M48
; DRILL file {KiCad (5.99.0-9393-ga28cb98626)} date Friday, May 07, 2021 at 03:04:02 PM
; FORMAT={-:-/ absolute / metric / decimal}
; #@! TF.CreationDate,2021-05-07T15:04:02-07:00
; #@! TF.GenerationSoftware,Kicad,Pcbnew,(5.99.0-9393-ga28cb98626)
FMAT,2
METRIC
T1C0.400
T2C0.750
T3C0.800
T4C1.000
T5C1.400
T6C3.200
%
G90
G05
T1
X129.54Y-78.105
X139.7Y-99.695
X142.24Y-73.025
X142.24Y-81.28
X143.51Y-86.36
X143.51Y-87.63
X143.51Y-112.395
X144.78Y-78.74
X144.78Y-99.695
X146.05Y-75.813
X146.05Y-81.31
X146.05Y-83.185
X146.05Y-88.9
X146.685Y-86.36
X147.32Y-67.945
X148.59Y-53.34
X149.225Y-50.8
X149.225Y-77.47
X149.225Y-78.74
X149.86Y-82.331
X150.778Y-74.578
X151.13Y-50.8
X151.13Y-54.61
X151.13Y-55.88
X151.13Y-99.695
X151.403Y-77.626
X151.664Y-70.485
X151.765Y-62.865
X152.4Y-78.74
X153.553Y-53.34
X153.67Y-57.15
X153.773Y-77.573
X154.305Y-112.395
X154.421Y-75.317
X155.575Y-55.88
X155.575Y-63.5
X155.575Y-78.74
X155.575Y-80.01
X155.575Y-81.28
X155.575Y-83.82
X155.575Y-85.09
X155.575Y-86.36
X156.227Y-77.611
X156.327Y-70.485
X156.845Y-88.9
X157.48Y-46.99
X158.75Y-76.835
X158.75Y-84.455
X163.1Y-53.245
X163.1Y-63.405
X163.1Y-73.565
X163.1Y-83.725
X163.1Y-98.33
X163.1Y-108.49
X163.1Y-118.65
X163.195Y-128.905
X178.435Y-50.165
X178.435Y-55.245
X178.435Y-60.325
X178.435Y-65.405
X178.435Y-70.485
X178.435Y-75.565
X178.435Y-80.645
X178.435Y-85.725
X178.435Y-95.25
X178.435Y-100.33
X178.435Y-105.41
X178.435Y-110.49
X178.435Y-115.57
X178.435Y-120.65
X178.435Y-125.73
X178.435Y-130.81
T2
X144.822Y-62.23
X144.822Y-63.5
X144.822Y-64.77
X144.822Y-69.85
X144.822Y-71.12
X144.822Y-72.39
T3
X134.048Y-89.535
X136.548Y-89.535
T4
X137.795Y-114.935
X137.795Y-117.475
X137.795Y-120.015
X137.795Y-122.555
X137.795Y-125.095
X137.795Y-127.635
X140.97Y-77.475
X140.97Y-80.015
X140.97Y-82.555
X140.97Y-85.095
X140.97Y-87.635
X149.225Y-114.935
X149.225Y-117.475
X149.225Y-120.015
X149.225Y-122.555
X149.225Y-125.095
X149.225Y-127.635
T5
X125.182Y-94.615
X125.182Y-99.695
X125.182Y-104.775
X125.182Y-109.855
X133.35Y-51.982
X138.43Y-51.982
X143.51Y-51.982
X186.69Y-50.165
X186.69Y-55.245
X186.69Y-60.325
X186.69Y-65.405
X186.69Y-70.485
X186.69Y-75.565
X186.69Y-80.645
X186.69Y-85.725
X186.69Y-95.25
X186.69Y-100.33
X186.69Y-105.41
X186.69Y-110.49
X186.69Y-115.57
X186.69Y-120.65
X186.69Y-125.73
X186.69Y-130.81
T6
X125.095Y-64.77
X125.095Y-128.27
T0
M30
