%TF.GenerationSoftware,KiCad,Pcbnew,(5.99.0-9393-ga28cb98626)*%
%TF.CreationDate,2021-05-07T15:11:42-07:00*%
%TF.ProjectId,R_Switch,525f5377-6974-4636-982e-6b696361645f,B*%
%TF.SameCoordinates,Original*%
%TF.FileFunction,Soldermask,Bot*%
%TF.FilePolarity,Negative*%
%FSLAX46Y46*%
G04 Gerber Fmt 4.6, Leading zero omitted, Abs format (unit mm)*
G04 Created by KiCad (PCBNEW (5.99.0-9393-ga28cb98626)) date 2021-05-07 15:11:42*
%MOMM*%
%LPD*%
G01*
G04 APERTURE LIST*
G04 Aperture macros list*
%AMRoundRect*
0 Rectangle with rounded corners*
0 $1 Rounding radius*
0 $2 $3 $4 $5 $6 $7 $8 $9 X,Y pos of 4 corners*
0 Add a 4 corners polygon primitive as box body*
4,1,4,$2,$3,$4,$5,$6,$7,$8,$9,$2,$3,0*
0 Add four circle primitives for the rounded corners*
1,1,$1+$1,$2,$3*
1,1,$1+$1,$4,$5*
1,1,$1+$1,$6,$7*
1,1,$1+$1,$8,$9*
0 Add four rect primitives between the rounded corners*
20,1,$1+$1,$2,$3,$4,$5,0*
20,1,$1+$1,$4,$5,$6,$7,0*
20,1,$1+$1,$6,$7,$8,$9,0*
20,1,$1+$1,$8,$9,$2,$3,0*%
G04 Aperture macros list end*
%ADD10R,1.700000X1.700000*%
%ADD11O,1.700000X1.700000*%
%ADD12C,3.200000*%
%ADD13R,1.500000X1.050000*%
%ADD14O,1.500000X1.050000*%
%ADD15R,1.600000X1.600000*%
%ADD16C,1.600000*%
%ADD17R,0.900000X1.200000*%
%ADD18RoundRect,0.250001X0.462499X0.624999X-0.462499X0.624999X-0.462499X-0.624999X0.462499X-0.624999X0*%
%ADD19RoundRect,0.250000X0.350000X0.450000X-0.350000X0.450000X-0.350000X-0.450000X0.350000X-0.450000X0*%
%ADD20RoundRect,0.249999X-1.550001X0.790001X-1.550001X-0.790001X1.550001X-0.790001X1.550001X0.790001X0*%
%ADD21O,3.600000X2.080000*%
%ADD22RoundRect,0.249999X-0.790001X-1.550001X0.790001X-1.550001X0.790001X1.550001X-0.790001X1.550001X0*%
%ADD23O,2.080000X3.600000*%
G04 APERTURE END LIST*
D10*
%TO.C,J3*%
X137795000Y-114935000D03*
D11*
X137795000Y-117475000D03*
X137795000Y-120015000D03*
X137795000Y-122555000D03*
X137795000Y-125095000D03*
X137795000Y-127635000D03*
%TD*%
D12*
%TO.C,H2*%
X125095000Y-128270000D03*
%TD*%
D10*
%TO.C,J2*%
X149225000Y-114935000D03*
D11*
X149225000Y-117475000D03*
X149225000Y-120015000D03*
X149225000Y-122555000D03*
X149225000Y-125095000D03*
X149225000Y-127635000D03*
%TD*%
D13*
%TO.C,Q10*%
X144822500Y-69850000D03*
D14*
X144822500Y-71120000D03*
X144822500Y-72390000D03*
%TD*%
D15*
%TO.C,C1*%
X136547613Y-89535000D03*
D16*
X134047613Y-89535000D03*
%TD*%
D13*
%TO.C,Q9*%
X144822500Y-62230000D03*
D14*
X144822500Y-63500000D03*
X144822500Y-64770000D03*
%TD*%
D10*
%TO.C,J4*%
X140970000Y-77475000D03*
D11*
X140970000Y-80015000D03*
X140970000Y-82555000D03*
X140970000Y-85095000D03*
X140970000Y-87635000D03*
%TD*%
D12*
%TO.C,H1*%
X125095000Y-64770000D03*
%TD*%
D17*
%TO.C,D11*%
X180085000Y-95250000D03*
X176785000Y-95250000D03*
%TD*%
D18*
%TO.C,D2*%
X150712500Y-80010000D03*
X147737500Y-80010000D03*
%TD*%
%TO.C,D28*%
X174207500Y-55245000D03*
X171232500Y-55245000D03*
%TD*%
D19*
%TO.C,R10*%
X168640000Y-110490000D03*
X166640000Y-110490000D03*
%TD*%
D18*
%TO.C,D32*%
X174207500Y-75565000D03*
X171232500Y-75565000D03*
%TD*%
D19*
%TO.C,R32*%
X168640000Y-55245000D03*
X166640000Y-55245000D03*
%TD*%
%TO.C,R37*%
X168640000Y-80645000D03*
X166640000Y-80645000D03*
%TD*%
%TO.C,R33*%
X168640000Y-60325000D03*
X166640000Y-60325000D03*
%TD*%
D17*
%TO.C,D35*%
X180085000Y-50165000D03*
X176785000Y-50165000D03*
%TD*%
%TO.C,D41*%
X180085000Y-80645000D03*
X176785000Y-80645000D03*
%TD*%
D18*
%TO.C,D29*%
X174207500Y-60325000D03*
X171232500Y-60325000D03*
%TD*%
%TO.C,D6*%
X174207500Y-110490000D03*
X171232500Y-110490000D03*
%TD*%
D19*
%TO.C,R38*%
X168640000Y-85725000D03*
X166640000Y-85725000D03*
%TD*%
D18*
%TO.C,D5*%
X174207500Y-105410000D03*
X171232500Y-105410000D03*
%TD*%
D19*
%TO.C,R8*%
X168640000Y-100330000D03*
X166640000Y-100330000D03*
%TD*%
D17*
%TO.C,D14*%
X180085000Y-110490000D03*
X176785000Y-110490000D03*
%TD*%
D19*
%TO.C,R35*%
X168640000Y-70485000D03*
X166640000Y-70485000D03*
%TD*%
%TO.C,R13*%
X168640000Y-125730000D03*
X166640000Y-125730000D03*
%TD*%
%TO.C,R14*%
X168640000Y-130810000D03*
X166640000Y-130810000D03*
%TD*%
D20*
%TO.C,J5*%
X186690000Y-50165000D03*
D21*
X186690000Y-55245000D03*
X186690000Y-60325000D03*
X186690000Y-65405000D03*
X186690000Y-70485000D03*
X186690000Y-75565000D03*
X186690000Y-80645000D03*
X186690000Y-85725000D03*
%TD*%
D17*
%TO.C,D37*%
X180085000Y-60325000D03*
X176785000Y-60325000D03*
%TD*%
D18*
%TO.C,D9*%
X174207500Y-125730000D03*
X171232500Y-125730000D03*
%TD*%
%TO.C,D33*%
X174207500Y-80645000D03*
X171232500Y-80645000D03*
%TD*%
%TO.C,D30*%
X174207500Y-65405000D03*
X171232500Y-65405000D03*
%TD*%
D20*
%TO.C,J6*%
X186690000Y-95250000D03*
D21*
X186690000Y-100330000D03*
X186690000Y-105410000D03*
X186690000Y-110490000D03*
X186690000Y-115570000D03*
X186690000Y-120650000D03*
X186690000Y-125730000D03*
X186690000Y-130810000D03*
%TD*%
D18*
%TO.C,D27*%
X174207500Y-50165000D03*
X171232500Y-50165000D03*
%TD*%
D19*
%TO.C,R34*%
X168640000Y-65405000D03*
X166640000Y-65405000D03*
%TD*%
D18*
%TO.C,D10*%
X174207500Y-130810000D03*
X171232500Y-130810000D03*
%TD*%
D17*
%TO.C,D13*%
X180085000Y-105410000D03*
X176785000Y-105410000D03*
%TD*%
D22*
%TO.C,J7*%
X133350000Y-51982500D03*
D23*
X138430000Y-51982500D03*
X143510000Y-51982500D03*
%TD*%
D19*
%TO.C,R7*%
X168640000Y-95250000D03*
X166640000Y-95250000D03*
%TD*%
%TO.C,R9*%
X168640000Y-105410000D03*
X166640000Y-105410000D03*
%TD*%
D18*
%TO.C,D4*%
X174207500Y-100330000D03*
X171232500Y-100330000D03*
%TD*%
D17*
%TO.C,D39*%
X180085000Y-70485000D03*
X176785000Y-70485000D03*
%TD*%
%TO.C,D18*%
X180085000Y-130810000D03*
X176785000Y-130810000D03*
%TD*%
D19*
%TO.C,R36*%
X168640000Y-75565000D03*
X166640000Y-75565000D03*
%TD*%
D17*
%TO.C,D36*%
X180085000Y-55245000D03*
X176785000Y-55245000D03*
%TD*%
%TO.C,D15*%
X180085000Y-115570000D03*
X176785000Y-115570000D03*
%TD*%
D18*
%TO.C,D7*%
X174207500Y-115570000D03*
X171232500Y-115570000D03*
%TD*%
%TO.C,D3*%
X174207500Y-95250000D03*
X171232500Y-95250000D03*
%TD*%
%TO.C,D31*%
X174207500Y-70485000D03*
X171232500Y-70485000D03*
%TD*%
D17*
%TO.C,D17*%
X180085000Y-125730000D03*
X176785000Y-125730000D03*
%TD*%
%TO.C,D42*%
X180085000Y-85725000D03*
X176785000Y-85725000D03*
%TD*%
D19*
%TO.C,R6*%
X145780000Y-80010000D03*
X143780000Y-80010000D03*
%TD*%
D17*
%TO.C,D16*%
X180085000Y-120650000D03*
X176785000Y-120650000D03*
%TD*%
D18*
%TO.C,D34*%
X174207500Y-85725000D03*
X171232500Y-85725000D03*
%TD*%
D19*
%TO.C,R11*%
X168640000Y-115570000D03*
X166640000Y-115570000D03*
%TD*%
D17*
%TO.C,D40*%
X180085000Y-75565000D03*
X176785000Y-75565000D03*
%TD*%
%TO.C,D38*%
X180085000Y-65405000D03*
X176785000Y-65405000D03*
%TD*%
D19*
%TO.C,R12*%
X168640000Y-120650000D03*
X166640000Y-120650000D03*
%TD*%
D17*
%TO.C,D12*%
X180085000Y-100330000D03*
X176785000Y-100330000D03*
%TD*%
D18*
%TO.C,D8*%
X174207500Y-120650000D03*
X171232500Y-120650000D03*
%TD*%
D19*
%TO.C,R31*%
X168640000Y-50165000D03*
X166640000Y-50165000D03*
%TD*%
D20*
%TO.C,J1*%
X125182500Y-94615000D03*
D21*
X125182500Y-99695000D03*
X125182500Y-104775000D03*
X125182500Y-109855000D03*
%TD*%
M02*
