%TF.GenerationSoftware,KiCad,Pcbnew,(5.99.0-9393-ga28cb98626)*%
%TF.CreationDate,2021-05-07T15:11:42-07:00*%
%TF.ProjectId,R_Switch,525f5377-6974-4636-982e-6b696361645f,B*%
%TF.SameCoordinates,Original*%
%TF.FileFunction,Legend,Top*%
%TF.FilePolarity,Positive*%
%FSLAX46Y46*%
G04 Gerber Fmt 4.6, Leading zero omitted, Abs format (unit mm)*
G04 Created by KiCad (PCBNEW (5.99.0-9393-ga28cb98626)) date 2021-05-07 15:11:42*
%MOMM*%
%LPD*%
G01*
G04 APERTURE LIST*
%ADD10C,0.150000*%
%ADD11C,0.120000*%
G04 APERTURE END LIST*
D10*
X146542380Y-131262380D02*
X146542380Y-130262380D01*
X147018571Y-130595714D02*
X147018571Y-131262380D01*
X147018571Y-130690952D02*
X147066190Y-130643333D01*
X147161428Y-130595714D01*
X147304285Y-130595714D01*
X147399523Y-130643333D01*
X147447142Y-130738571D01*
X147447142Y-131262380D01*
X147923333Y-130595714D02*
X147923333Y-131595714D01*
X147923333Y-130643333D02*
X148018571Y-130595714D01*
X148209047Y-130595714D01*
X148304285Y-130643333D01*
X148351904Y-130690952D01*
X148399523Y-130786190D01*
X148399523Y-131071904D01*
X148351904Y-131167142D01*
X148304285Y-131214761D01*
X148209047Y-131262380D01*
X148018571Y-131262380D01*
X147923333Y-131214761D01*
X149256666Y-130595714D02*
X149256666Y-131262380D01*
X148828095Y-130595714D02*
X148828095Y-131119523D01*
X148875714Y-131214761D01*
X148970952Y-131262380D01*
X149113809Y-131262380D01*
X149209047Y-131214761D01*
X149256666Y-131167142D01*
X149590000Y-130595714D02*
X149970952Y-130595714D01*
X149732857Y-130262380D02*
X149732857Y-131119523D01*
X149780476Y-131214761D01*
X149875714Y-131262380D01*
X149970952Y-131262380D01*
X150256666Y-131214761D02*
X150351904Y-131262380D01*
X150542380Y-131262380D01*
X150637619Y-131214761D01*
X150685238Y-131119523D01*
X150685238Y-131071904D01*
X150637619Y-130976666D01*
X150542380Y-130929047D01*
X150399523Y-130929047D01*
X150304285Y-130881428D01*
X150256666Y-130786190D01*
X150256666Y-130738571D01*
X150304285Y-130643333D01*
X150399523Y-130595714D01*
X150542380Y-130595714D01*
X150637619Y-130643333D01*
X136112380Y-131262380D02*
X135636190Y-131262380D01*
X135636190Y-130262380D01*
X136445714Y-130738571D02*
X136779047Y-130738571D01*
X136921904Y-131262380D02*
X136445714Y-131262380D01*
X136445714Y-130262380D01*
X136921904Y-130262380D01*
X137350476Y-131262380D02*
X137350476Y-130262380D01*
X137588571Y-130262380D01*
X137731428Y-130310000D01*
X137826666Y-130405238D01*
X137874285Y-130500476D01*
X137921904Y-130690952D01*
X137921904Y-130833809D01*
X137874285Y-131024285D01*
X137826666Y-131119523D01*
X137731428Y-131214761D01*
X137588571Y-131262380D01*
X137350476Y-131262380D01*
X138302857Y-131214761D02*
X138398095Y-131262380D01*
X138588571Y-131262380D01*
X138683809Y-131214761D01*
X138731428Y-131119523D01*
X138731428Y-131071904D01*
X138683809Y-130976666D01*
X138588571Y-130929047D01*
X138445714Y-130929047D01*
X138350476Y-130881428D01*
X138302857Y-130786190D01*
X138302857Y-130738571D01*
X138350476Y-130643333D01*
X138445714Y-130595714D01*
X138588571Y-130595714D01*
X138683809Y-130643333D01*
%TO.C,Q7*%
X170084761Y-115257619D02*
X169989523Y-115210000D01*
X169894285Y-115114761D01*
X169751428Y-114971904D01*
X169656190Y-114924285D01*
X169560952Y-114924285D01*
X169608571Y-115162380D02*
X169513333Y-115114761D01*
X169418095Y-115019523D01*
X169370476Y-114829047D01*
X169370476Y-114495714D01*
X169418095Y-114305238D01*
X169513333Y-114210000D01*
X169608571Y-114162380D01*
X169799047Y-114162380D01*
X169894285Y-114210000D01*
X169989523Y-114305238D01*
X170037142Y-114495714D01*
X170037142Y-114829047D01*
X169989523Y-115019523D01*
X169894285Y-115114761D01*
X169799047Y-115162380D01*
X169608571Y-115162380D01*
X170370476Y-114162380D02*
X171037142Y-114162380D01*
X170608571Y-115162380D01*
%TO.C,D20*%
X177855714Y-103282380D02*
X177855714Y-102282380D01*
X178093809Y-102282380D01*
X178236666Y-102330000D01*
X178331904Y-102425238D01*
X178379523Y-102520476D01*
X178427142Y-102710952D01*
X178427142Y-102853809D01*
X178379523Y-103044285D01*
X178331904Y-103139523D01*
X178236666Y-103234761D01*
X178093809Y-103282380D01*
X177855714Y-103282380D01*
X178808095Y-102377619D02*
X178855714Y-102330000D01*
X178950952Y-102282380D01*
X179189047Y-102282380D01*
X179284285Y-102330000D01*
X179331904Y-102377619D01*
X179379523Y-102472857D01*
X179379523Y-102568095D01*
X179331904Y-102710952D01*
X178760476Y-103282380D01*
X179379523Y-103282380D01*
X179998571Y-102282380D02*
X180093809Y-102282380D01*
X180189047Y-102330000D01*
X180236666Y-102377619D01*
X180284285Y-102472857D01*
X180331904Y-102663333D01*
X180331904Y-102901428D01*
X180284285Y-103091904D01*
X180236666Y-103187142D01*
X180189047Y-103234761D01*
X180093809Y-103282380D01*
X179998571Y-103282380D01*
X179903333Y-103234761D01*
X179855714Y-103187142D01*
X179808095Y-103091904D01*
X179760476Y-102901428D01*
X179760476Y-102663333D01*
X179808095Y-102472857D01*
X179855714Y-102377619D01*
X179903333Y-102330000D01*
X179998571Y-102282380D01*
%TO.C,R69*%
X140107142Y-67382380D02*
X139773809Y-66906190D01*
X139535714Y-67382380D02*
X139535714Y-66382380D01*
X139916666Y-66382380D01*
X140011904Y-66430000D01*
X140059523Y-66477619D01*
X140107142Y-66572857D01*
X140107142Y-66715714D01*
X140059523Y-66810952D01*
X140011904Y-66858571D01*
X139916666Y-66906190D01*
X139535714Y-66906190D01*
X140964285Y-66382380D02*
X140773809Y-66382380D01*
X140678571Y-66430000D01*
X140630952Y-66477619D01*
X140535714Y-66620476D01*
X140488095Y-66810952D01*
X140488095Y-67191904D01*
X140535714Y-67287142D01*
X140583333Y-67334761D01*
X140678571Y-67382380D01*
X140869047Y-67382380D01*
X140964285Y-67334761D01*
X141011904Y-67287142D01*
X141059523Y-67191904D01*
X141059523Y-66953809D01*
X141011904Y-66858571D01*
X140964285Y-66810952D01*
X140869047Y-66763333D01*
X140678571Y-66763333D01*
X140583333Y-66810952D01*
X140535714Y-66858571D01*
X140488095Y-66953809D01*
X141535714Y-67382380D02*
X141726190Y-67382380D01*
X141821428Y-67334761D01*
X141869047Y-67287142D01*
X141964285Y-67144285D01*
X142011904Y-66953809D01*
X142011904Y-66572857D01*
X141964285Y-66477619D01*
X141916666Y-66430000D01*
X141821428Y-66382380D01*
X141630952Y-66382380D01*
X141535714Y-66430000D01*
X141488095Y-66477619D01*
X141440476Y-66572857D01*
X141440476Y-66810952D01*
X141488095Y-66906190D01*
X141535714Y-66953809D01*
X141630952Y-67001428D01*
X141821428Y-67001428D01*
X141916666Y-66953809D01*
X141964285Y-66906190D01*
X142011904Y-66810952D01*
%TO.C,R28*%
X160012142Y-120467380D02*
X159678809Y-119991190D01*
X159440714Y-120467380D02*
X159440714Y-119467380D01*
X159821666Y-119467380D01*
X159916904Y-119515000D01*
X159964523Y-119562619D01*
X160012142Y-119657857D01*
X160012142Y-119800714D01*
X159964523Y-119895952D01*
X159916904Y-119943571D01*
X159821666Y-119991190D01*
X159440714Y-119991190D01*
X160393095Y-119562619D02*
X160440714Y-119515000D01*
X160535952Y-119467380D01*
X160774047Y-119467380D01*
X160869285Y-119515000D01*
X160916904Y-119562619D01*
X160964523Y-119657857D01*
X160964523Y-119753095D01*
X160916904Y-119895952D01*
X160345476Y-120467380D01*
X160964523Y-120467380D01*
X161535952Y-119895952D02*
X161440714Y-119848333D01*
X161393095Y-119800714D01*
X161345476Y-119705476D01*
X161345476Y-119657857D01*
X161393095Y-119562619D01*
X161440714Y-119515000D01*
X161535952Y-119467380D01*
X161726428Y-119467380D01*
X161821666Y-119515000D01*
X161869285Y-119562619D01*
X161916904Y-119657857D01*
X161916904Y-119705476D01*
X161869285Y-119800714D01*
X161821666Y-119848333D01*
X161726428Y-119895952D01*
X161535952Y-119895952D01*
X161440714Y-119943571D01*
X161393095Y-119991190D01*
X161345476Y-120086428D01*
X161345476Y-120276904D01*
X161393095Y-120372142D01*
X161440714Y-120419761D01*
X161535952Y-120467380D01*
X161726428Y-120467380D01*
X161821666Y-120419761D01*
X161869285Y-120372142D01*
X161916904Y-120276904D01*
X161916904Y-120086428D01*
X161869285Y-119991190D01*
X161821666Y-119943571D01*
X161726428Y-119895952D01*
%TO.C,R63*%
X156340917Y-123007380D02*
X156007584Y-122531190D01*
X155769489Y-123007380D02*
X155769489Y-122007380D01*
X156150441Y-122007380D01*
X156245679Y-122055000D01*
X156293298Y-122102619D01*
X156340917Y-122197857D01*
X156340917Y-122340714D01*
X156293298Y-122435952D01*
X156245679Y-122483571D01*
X156150441Y-122531190D01*
X155769489Y-122531190D01*
X157198060Y-122007380D02*
X157007584Y-122007380D01*
X156912346Y-122055000D01*
X156864727Y-122102619D01*
X156769489Y-122245476D01*
X156721870Y-122435952D01*
X156721870Y-122816904D01*
X156769489Y-122912142D01*
X156817108Y-122959761D01*
X156912346Y-123007380D01*
X157102822Y-123007380D01*
X157198060Y-122959761D01*
X157245679Y-122912142D01*
X157293298Y-122816904D01*
X157293298Y-122578809D01*
X157245679Y-122483571D01*
X157198060Y-122435952D01*
X157102822Y-122388333D01*
X156912346Y-122388333D01*
X156817108Y-122435952D01*
X156769489Y-122483571D01*
X156721870Y-122578809D01*
X157626632Y-122007380D02*
X158245679Y-122007380D01*
X157912346Y-122388333D01*
X158055203Y-122388333D01*
X158150441Y-122435952D01*
X158198060Y-122483571D01*
X158245679Y-122578809D01*
X158245679Y-122816904D01*
X158198060Y-122912142D01*
X158150441Y-122959761D01*
X158055203Y-123007380D01*
X157769489Y-123007380D01*
X157674251Y-122959761D01*
X157626632Y-122912142D01*
%TO.C,U1*%
X151638095Y-75282380D02*
X151638095Y-76091904D01*
X151685714Y-76187142D01*
X151733333Y-76234761D01*
X151828571Y-76282380D01*
X152019047Y-76282380D01*
X152114285Y-76234761D01*
X152161904Y-76187142D01*
X152209523Y-76091904D01*
X152209523Y-75282380D01*
X153209523Y-76282380D02*
X152638095Y-76282380D01*
X152923809Y-76282380D02*
X152923809Y-75282380D01*
X152828571Y-75425238D01*
X152733333Y-75520476D01*
X152638095Y-75568095D01*
%TO.C,R64*%
X140107142Y-59762380D02*
X139773809Y-59286190D01*
X139535714Y-59762380D02*
X139535714Y-58762380D01*
X139916666Y-58762380D01*
X140011904Y-58810000D01*
X140059523Y-58857619D01*
X140107142Y-58952857D01*
X140107142Y-59095714D01*
X140059523Y-59190952D01*
X140011904Y-59238571D01*
X139916666Y-59286190D01*
X139535714Y-59286190D01*
X140964285Y-58762380D02*
X140773809Y-58762380D01*
X140678571Y-58810000D01*
X140630952Y-58857619D01*
X140535714Y-59000476D01*
X140488095Y-59190952D01*
X140488095Y-59571904D01*
X140535714Y-59667142D01*
X140583333Y-59714761D01*
X140678571Y-59762380D01*
X140869047Y-59762380D01*
X140964285Y-59714761D01*
X141011904Y-59667142D01*
X141059523Y-59571904D01*
X141059523Y-59333809D01*
X141011904Y-59238571D01*
X140964285Y-59190952D01*
X140869047Y-59143333D01*
X140678571Y-59143333D01*
X140583333Y-59190952D01*
X140535714Y-59238571D01*
X140488095Y-59333809D01*
X141916666Y-59095714D02*
X141916666Y-59762380D01*
X141678571Y-58714761D02*
X141440476Y-59429047D01*
X142059523Y-59429047D01*
%TO.C,R17*%
X160012142Y-105227380D02*
X159678809Y-104751190D01*
X159440714Y-105227380D02*
X159440714Y-104227380D01*
X159821666Y-104227380D01*
X159916904Y-104275000D01*
X159964523Y-104322619D01*
X160012142Y-104417857D01*
X160012142Y-104560714D01*
X159964523Y-104655952D01*
X159916904Y-104703571D01*
X159821666Y-104751190D01*
X159440714Y-104751190D01*
X160964523Y-105227380D02*
X160393095Y-105227380D01*
X160678809Y-105227380D02*
X160678809Y-104227380D01*
X160583571Y-104370238D01*
X160488333Y-104465476D01*
X160393095Y-104513095D01*
X161297857Y-104227380D02*
X161964523Y-104227380D01*
X161535952Y-105227380D01*
%TO.C,R39*%
X160012142Y-49982380D02*
X159678809Y-49506190D01*
X159440714Y-49982380D02*
X159440714Y-48982380D01*
X159821666Y-48982380D01*
X159916904Y-49030000D01*
X159964523Y-49077619D01*
X160012142Y-49172857D01*
X160012142Y-49315714D01*
X159964523Y-49410952D01*
X159916904Y-49458571D01*
X159821666Y-49506190D01*
X159440714Y-49506190D01*
X160345476Y-48982380D02*
X160964523Y-48982380D01*
X160631190Y-49363333D01*
X160774047Y-49363333D01*
X160869285Y-49410952D01*
X160916904Y-49458571D01*
X160964523Y-49553809D01*
X160964523Y-49791904D01*
X160916904Y-49887142D01*
X160869285Y-49934761D01*
X160774047Y-49982380D01*
X160488333Y-49982380D01*
X160393095Y-49934761D01*
X160345476Y-49887142D01*
X161440714Y-49982380D02*
X161631190Y-49982380D01*
X161726428Y-49934761D01*
X161774047Y-49887142D01*
X161869285Y-49744285D01*
X161916904Y-49553809D01*
X161916904Y-49172857D01*
X161869285Y-49077619D01*
X161821666Y-49030000D01*
X161726428Y-48982380D01*
X161535952Y-48982380D01*
X161440714Y-49030000D01*
X161393095Y-49077619D01*
X161345476Y-49172857D01*
X161345476Y-49410952D01*
X161393095Y-49506190D01*
X161440714Y-49553809D01*
X161535952Y-49601428D01*
X161726428Y-49601428D01*
X161821666Y-49553809D01*
X161869285Y-49506190D01*
X161916904Y-49410952D01*
%TO.C,D43*%
X177855714Y-53117380D02*
X177855714Y-52117380D01*
X178093809Y-52117380D01*
X178236666Y-52165000D01*
X178331904Y-52260238D01*
X178379523Y-52355476D01*
X178427142Y-52545952D01*
X178427142Y-52688809D01*
X178379523Y-52879285D01*
X178331904Y-52974523D01*
X178236666Y-53069761D01*
X178093809Y-53117380D01*
X177855714Y-53117380D01*
X179284285Y-52450714D02*
X179284285Y-53117380D01*
X179046190Y-52069761D02*
X178808095Y-52784047D01*
X179427142Y-52784047D01*
X179712857Y-52117380D02*
X180331904Y-52117380D01*
X179998571Y-52498333D01*
X180141428Y-52498333D01*
X180236666Y-52545952D01*
X180284285Y-52593571D01*
X180331904Y-52688809D01*
X180331904Y-52926904D01*
X180284285Y-53022142D01*
X180236666Y-53069761D01*
X180141428Y-53117380D01*
X179855714Y-53117380D01*
X179760476Y-53069761D01*
X179712857Y-53022142D01*
%TO.C,D48*%
X177855714Y-78517380D02*
X177855714Y-77517380D01*
X178093809Y-77517380D01*
X178236666Y-77565000D01*
X178331904Y-77660238D01*
X178379523Y-77755476D01*
X178427142Y-77945952D01*
X178427142Y-78088809D01*
X178379523Y-78279285D01*
X178331904Y-78374523D01*
X178236666Y-78469761D01*
X178093809Y-78517380D01*
X177855714Y-78517380D01*
X179284285Y-77850714D02*
X179284285Y-78517380D01*
X179046190Y-77469761D02*
X178808095Y-78184047D01*
X179427142Y-78184047D01*
X179950952Y-77945952D02*
X179855714Y-77898333D01*
X179808095Y-77850714D01*
X179760476Y-77755476D01*
X179760476Y-77707857D01*
X179808095Y-77612619D01*
X179855714Y-77565000D01*
X179950952Y-77517380D01*
X180141428Y-77517380D01*
X180236666Y-77565000D01*
X180284285Y-77612619D01*
X180331904Y-77707857D01*
X180331904Y-77755476D01*
X180284285Y-77850714D01*
X180236666Y-77898333D01*
X180141428Y-77945952D01*
X179950952Y-77945952D01*
X179855714Y-77993571D01*
X179808095Y-78041190D01*
X179760476Y-78136428D01*
X179760476Y-78326904D01*
X179808095Y-78422142D01*
X179855714Y-78469761D01*
X179950952Y-78517380D01*
X180141428Y-78517380D01*
X180236666Y-78469761D01*
X180284285Y-78422142D01*
X180331904Y-78326904D01*
X180331904Y-78136428D01*
X180284285Y-78041190D01*
X180236666Y-77993571D01*
X180141428Y-77945952D01*
%TO.C,R46*%
X160012142Y-88082380D02*
X159678809Y-87606190D01*
X159440714Y-88082380D02*
X159440714Y-87082380D01*
X159821666Y-87082380D01*
X159916904Y-87130000D01*
X159964523Y-87177619D01*
X160012142Y-87272857D01*
X160012142Y-87415714D01*
X159964523Y-87510952D01*
X159916904Y-87558571D01*
X159821666Y-87606190D01*
X159440714Y-87606190D01*
X160869285Y-87415714D02*
X160869285Y-88082380D01*
X160631190Y-87034761D02*
X160393095Y-87749047D01*
X161012142Y-87749047D01*
X161821666Y-87082380D02*
X161631190Y-87082380D01*
X161535952Y-87130000D01*
X161488333Y-87177619D01*
X161393095Y-87320476D01*
X161345476Y-87510952D01*
X161345476Y-87891904D01*
X161393095Y-87987142D01*
X161440714Y-88034761D01*
X161535952Y-88082380D01*
X161726428Y-88082380D01*
X161821666Y-88034761D01*
X161869285Y-87987142D01*
X161916904Y-87891904D01*
X161916904Y-87653809D01*
X161869285Y-87558571D01*
X161821666Y-87510952D01*
X161726428Y-87463333D01*
X161535952Y-87463333D01*
X161440714Y-87510952D01*
X161393095Y-87558571D01*
X161345476Y-87653809D01*
%TO.C,R23*%
X160012142Y-97607380D02*
X159678809Y-97131190D01*
X159440714Y-97607380D02*
X159440714Y-96607380D01*
X159821666Y-96607380D01*
X159916904Y-96655000D01*
X159964523Y-96702619D01*
X160012142Y-96797857D01*
X160012142Y-96940714D01*
X159964523Y-97035952D01*
X159916904Y-97083571D01*
X159821666Y-97131190D01*
X159440714Y-97131190D01*
X160393095Y-96702619D02*
X160440714Y-96655000D01*
X160535952Y-96607380D01*
X160774047Y-96607380D01*
X160869285Y-96655000D01*
X160916904Y-96702619D01*
X160964523Y-96797857D01*
X160964523Y-96893095D01*
X160916904Y-97035952D01*
X160345476Y-97607380D01*
X160964523Y-97607380D01*
X161297857Y-96607380D02*
X161916904Y-96607380D01*
X161583571Y-96988333D01*
X161726428Y-96988333D01*
X161821666Y-97035952D01*
X161869285Y-97083571D01*
X161916904Y-97178809D01*
X161916904Y-97416904D01*
X161869285Y-97512142D01*
X161821666Y-97559761D01*
X161726428Y-97607380D01*
X161440714Y-97607380D01*
X161345476Y-97559761D01*
X161297857Y-97512142D01*
%TO.C,R65*%
X131217142Y-65602380D02*
X130883809Y-65126190D01*
X130645714Y-65602380D02*
X130645714Y-64602380D01*
X131026666Y-64602380D01*
X131121904Y-64650000D01*
X131169523Y-64697619D01*
X131217142Y-64792857D01*
X131217142Y-64935714D01*
X131169523Y-65030952D01*
X131121904Y-65078571D01*
X131026666Y-65126190D01*
X130645714Y-65126190D01*
X132074285Y-64602380D02*
X131883809Y-64602380D01*
X131788571Y-64650000D01*
X131740952Y-64697619D01*
X131645714Y-64840476D01*
X131598095Y-65030952D01*
X131598095Y-65411904D01*
X131645714Y-65507142D01*
X131693333Y-65554761D01*
X131788571Y-65602380D01*
X131979047Y-65602380D01*
X132074285Y-65554761D01*
X132121904Y-65507142D01*
X132169523Y-65411904D01*
X132169523Y-65173809D01*
X132121904Y-65078571D01*
X132074285Y-65030952D01*
X131979047Y-64983333D01*
X131788571Y-64983333D01*
X131693333Y-65030952D01*
X131645714Y-65078571D01*
X131598095Y-65173809D01*
X133074285Y-64602380D02*
X132598095Y-64602380D01*
X132550476Y-65078571D01*
X132598095Y-65030952D01*
X132693333Y-64983333D01*
X132931428Y-64983333D01*
X133026666Y-65030952D01*
X133074285Y-65078571D01*
X133121904Y-65173809D01*
X133121904Y-65411904D01*
X133074285Y-65507142D01*
X133026666Y-65554761D01*
X132931428Y-65602380D01*
X132693333Y-65602380D01*
X132598095Y-65554761D01*
X132550476Y-65507142D01*
%TO.C,D49*%
X177855714Y-83597380D02*
X177855714Y-82597380D01*
X178093809Y-82597380D01*
X178236666Y-82645000D01*
X178331904Y-82740238D01*
X178379523Y-82835476D01*
X178427142Y-83025952D01*
X178427142Y-83168809D01*
X178379523Y-83359285D01*
X178331904Y-83454523D01*
X178236666Y-83549761D01*
X178093809Y-83597380D01*
X177855714Y-83597380D01*
X179284285Y-82930714D02*
X179284285Y-83597380D01*
X179046190Y-82549761D02*
X178808095Y-83264047D01*
X179427142Y-83264047D01*
X179855714Y-83597380D02*
X180046190Y-83597380D01*
X180141428Y-83549761D01*
X180189047Y-83502142D01*
X180284285Y-83359285D01*
X180331904Y-83168809D01*
X180331904Y-82787857D01*
X180284285Y-82692619D01*
X180236666Y-82645000D01*
X180141428Y-82597380D01*
X179950952Y-82597380D01*
X179855714Y-82645000D01*
X179808095Y-82692619D01*
X179760476Y-82787857D01*
X179760476Y-83025952D01*
X179808095Y-83121190D01*
X179855714Y-83168809D01*
X179950952Y-83216428D01*
X180141428Y-83216428D01*
X180236666Y-83168809D01*
X180284285Y-83121190D01*
X180331904Y-83025952D01*
%TO.C,R5*%
X145248333Y-125547380D02*
X144915000Y-125071190D01*
X144676904Y-125547380D02*
X144676904Y-124547380D01*
X145057857Y-124547380D01*
X145153095Y-124595000D01*
X145200714Y-124642619D01*
X145248333Y-124737857D01*
X145248333Y-124880714D01*
X145200714Y-124975952D01*
X145153095Y-125023571D01*
X145057857Y-125071190D01*
X144676904Y-125071190D01*
X146153095Y-124547380D02*
X145676904Y-124547380D01*
X145629285Y-125023571D01*
X145676904Y-124975952D01*
X145772142Y-124928333D01*
X146010238Y-124928333D01*
X146105476Y-124975952D01*
X146153095Y-125023571D01*
X146200714Y-125118809D01*
X146200714Y-125356904D01*
X146153095Y-125452142D01*
X146105476Y-125499761D01*
X146010238Y-125547380D01*
X145772142Y-125547380D01*
X145676904Y-125499761D01*
X145629285Y-125452142D01*
%TO.C,R60*%
X156340917Y-115387380D02*
X156007584Y-114911190D01*
X155769489Y-115387380D02*
X155769489Y-114387380D01*
X156150441Y-114387380D01*
X156245679Y-114435000D01*
X156293298Y-114482619D01*
X156340917Y-114577857D01*
X156340917Y-114720714D01*
X156293298Y-114815952D01*
X156245679Y-114863571D01*
X156150441Y-114911190D01*
X155769489Y-114911190D01*
X157198060Y-114387380D02*
X157007584Y-114387380D01*
X156912346Y-114435000D01*
X156864727Y-114482619D01*
X156769489Y-114625476D01*
X156721870Y-114815952D01*
X156721870Y-115196904D01*
X156769489Y-115292142D01*
X156817108Y-115339761D01*
X156912346Y-115387380D01*
X157102822Y-115387380D01*
X157198060Y-115339761D01*
X157245679Y-115292142D01*
X157293298Y-115196904D01*
X157293298Y-114958809D01*
X157245679Y-114863571D01*
X157198060Y-114815952D01*
X157102822Y-114768333D01*
X156912346Y-114768333D01*
X156817108Y-114815952D01*
X156769489Y-114863571D01*
X156721870Y-114958809D01*
X157912346Y-114387380D02*
X158007584Y-114387380D01*
X158102822Y-114435000D01*
X158150441Y-114482619D01*
X158198060Y-114577857D01*
X158245679Y-114768333D01*
X158245679Y-115006428D01*
X158198060Y-115196904D01*
X158150441Y-115292142D01*
X158102822Y-115339761D01*
X158007584Y-115387380D01*
X157912346Y-115387380D01*
X157817108Y-115339761D01*
X157769489Y-115292142D01*
X157721870Y-115196904D01*
X157674251Y-115006428D01*
X157674251Y-114768333D01*
X157721870Y-114577857D01*
X157769489Y-114482619D01*
X157817108Y-114435000D01*
X157912346Y-114387380D01*
%TO.C,R74*%
X152807142Y-60777380D02*
X152473809Y-60301190D01*
X152235714Y-60777380D02*
X152235714Y-59777380D01*
X152616666Y-59777380D01*
X152711904Y-59825000D01*
X152759523Y-59872619D01*
X152807142Y-59967857D01*
X152807142Y-60110714D01*
X152759523Y-60205952D01*
X152711904Y-60253571D01*
X152616666Y-60301190D01*
X152235714Y-60301190D01*
X153140476Y-59777380D02*
X153807142Y-59777380D01*
X153378571Y-60777380D01*
X154616666Y-60110714D02*
X154616666Y-60777380D01*
X154378571Y-59729761D02*
X154140476Y-60444047D01*
X154759523Y-60444047D01*
%TO.C,D21*%
X177855714Y-108362380D02*
X177855714Y-107362380D01*
X178093809Y-107362380D01*
X178236666Y-107410000D01*
X178331904Y-107505238D01*
X178379523Y-107600476D01*
X178427142Y-107790952D01*
X178427142Y-107933809D01*
X178379523Y-108124285D01*
X178331904Y-108219523D01*
X178236666Y-108314761D01*
X178093809Y-108362380D01*
X177855714Y-108362380D01*
X178808095Y-107457619D02*
X178855714Y-107410000D01*
X178950952Y-107362380D01*
X179189047Y-107362380D01*
X179284285Y-107410000D01*
X179331904Y-107457619D01*
X179379523Y-107552857D01*
X179379523Y-107648095D01*
X179331904Y-107790952D01*
X178760476Y-108362380D01*
X179379523Y-108362380D01*
X180331904Y-108362380D02*
X179760476Y-108362380D01*
X180046190Y-108362380D02*
X180046190Y-107362380D01*
X179950952Y-107505238D01*
X179855714Y-107600476D01*
X179760476Y-107648095D01*
%TO.C,R72*%
X152807142Y-70937380D02*
X152473809Y-70461190D01*
X152235714Y-70937380D02*
X152235714Y-69937380D01*
X152616666Y-69937380D01*
X152711904Y-69985000D01*
X152759523Y-70032619D01*
X152807142Y-70127857D01*
X152807142Y-70270714D01*
X152759523Y-70365952D01*
X152711904Y-70413571D01*
X152616666Y-70461190D01*
X152235714Y-70461190D01*
X153140476Y-69937380D02*
X153807142Y-69937380D01*
X153378571Y-70937380D01*
X154140476Y-70032619D02*
X154188095Y-69985000D01*
X154283333Y-69937380D01*
X154521428Y-69937380D01*
X154616666Y-69985000D01*
X154664285Y-70032619D01*
X154711904Y-70127857D01*
X154711904Y-70223095D01*
X154664285Y-70365952D01*
X154092857Y-70937380D01*
X154711904Y-70937380D01*
%TO.C,R53*%
X160012142Y-81732380D02*
X159678809Y-81256190D01*
X159440714Y-81732380D02*
X159440714Y-80732380D01*
X159821666Y-80732380D01*
X159916904Y-80780000D01*
X159964523Y-80827619D01*
X160012142Y-80922857D01*
X160012142Y-81065714D01*
X159964523Y-81160952D01*
X159916904Y-81208571D01*
X159821666Y-81256190D01*
X159440714Y-81256190D01*
X160916904Y-80732380D02*
X160440714Y-80732380D01*
X160393095Y-81208571D01*
X160440714Y-81160952D01*
X160535952Y-81113333D01*
X160774047Y-81113333D01*
X160869285Y-81160952D01*
X160916904Y-81208571D01*
X160964523Y-81303809D01*
X160964523Y-81541904D01*
X160916904Y-81637142D01*
X160869285Y-81684761D01*
X160774047Y-81732380D01*
X160535952Y-81732380D01*
X160440714Y-81684761D01*
X160393095Y-81637142D01*
X161297857Y-80732380D02*
X161916904Y-80732380D01*
X161583571Y-81113333D01*
X161726428Y-81113333D01*
X161821666Y-81160952D01*
X161869285Y-81208571D01*
X161916904Y-81303809D01*
X161916904Y-81541904D01*
X161869285Y-81637142D01*
X161821666Y-81684761D01*
X161726428Y-81732380D01*
X161440714Y-81732380D01*
X161345476Y-81684761D01*
X161297857Y-81637142D01*
%TO.C,Q2*%
X170084761Y-60012619D02*
X169989523Y-59965000D01*
X169894285Y-59869761D01*
X169751428Y-59726904D01*
X169656190Y-59679285D01*
X169560952Y-59679285D01*
X169608571Y-59917380D02*
X169513333Y-59869761D01*
X169418095Y-59774523D01*
X169370476Y-59584047D01*
X169370476Y-59250714D01*
X169418095Y-59060238D01*
X169513333Y-58965000D01*
X169608571Y-58917380D01*
X169799047Y-58917380D01*
X169894285Y-58965000D01*
X169989523Y-59060238D01*
X170037142Y-59250714D01*
X170037142Y-59584047D01*
X169989523Y-59774523D01*
X169894285Y-59869761D01*
X169799047Y-59917380D01*
X169608571Y-59917380D01*
X170418095Y-59012619D02*
X170465714Y-58965000D01*
X170560952Y-58917380D01*
X170799047Y-58917380D01*
X170894285Y-58965000D01*
X170941904Y-59012619D01*
X170989523Y-59107857D01*
X170989523Y-59203095D01*
X170941904Y-59345952D01*
X170370476Y-59917380D01*
X170989523Y-59917380D01*
%TO.C,R48*%
X160012142Y-55062380D02*
X159678809Y-54586190D01*
X159440714Y-55062380D02*
X159440714Y-54062380D01*
X159821666Y-54062380D01*
X159916904Y-54110000D01*
X159964523Y-54157619D01*
X160012142Y-54252857D01*
X160012142Y-54395714D01*
X159964523Y-54490952D01*
X159916904Y-54538571D01*
X159821666Y-54586190D01*
X159440714Y-54586190D01*
X160869285Y-54395714D02*
X160869285Y-55062380D01*
X160631190Y-54014761D02*
X160393095Y-54729047D01*
X161012142Y-54729047D01*
X161535952Y-54490952D02*
X161440714Y-54443333D01*
X161393095Y-54395714D01*
X161345476Y-54300476D01*
X161345476Y-54252857D01*
X161393095Y-54157619D01*
X161440714Y-54110000D01*
X161535952Y-54062380D01*
X161726428Y-54062380D01*
X161821666Y-54110000D01*
X161869285Y-54157619D01*
X161916904Y-54252857D01*
X161916904Y-54300476D01*
X161869285Y-54395714D01*
X161821666Y-54443333D01*
X161726428Y-54490952D01*
X161535952Y-54490952D01*
X161440714Y-54538571D01*
X161393095Y-54586190D01*
X161345476Y-54681428D01*
X161345476Y-54871904D01*
X161393095Y-54967142D01*
X161440714Y-55014761D01*
X161535952Y-55062380D01*
X161726428Y-55062380D01*
X161821666Y-55014761D01*
X161869285Y-54967142D01*
X161916904Y-54871904D01*
X161916904Y-54681428D01*
X161869285Y-54586190D01*
X161821666Y-54538571D01*
X161726428Y-54490952D01*
%TO.C,D26*%
X177855714Y-133762380D02*
X177855714Y-132762380D01*
X178093809Y-132762380D01*
X178236666Y-132810000D01*
X178331904Y-132905238D01*
X178379523Y-133000476D01*
X178427142Y-133190952D01*
X178427142Y-133333809D01*
X178379523Y-133524285D01*
X178331904Y-133619523D01*
X178236666Y-133714761D01*
X178093809Y-133762380D01*
X177855714Y-133762380D01*
X178808095Y-132857619D02*
X178855714Y-132810000D01*
X178950952Y-132762380D01*
X179189047Y-132762380D01*
X179284285Y-132810000D01*
X179331904Y-132857619D01*
X179379523Y-132952857D01*
X179379523Y-133048095D01*
X179331904Y-133190952D01*
X178760476Y-133762380D01*
X179379523Y-133762380D01*
X180236666Y-132762380D02*
X180046190Y-132762380D01*
X179950952Y-132810000D01*
X179903333Y-132857619D01*
X179808095Y-133000476D01*
X179760476Y-133190952D01*
X179760476Y-133571904D01*
X179808095Y-133667142D01*
X179855714Y-133714761D01*
X179950952Y-133762380D01*
X180141428Y-133762380D01*
X180236666Y-133714761D01*
X180284285Y-133667142D01*
X180331904Y-133571904D01*
X180331904Y-133333809D01*
X180284285Y-133238571D01*
X180236666Y-133190952D01*
X180141428Y-133143333D01*
X179950952Y-133143333D01*
X179855714Y-133190952D01*
X179808095Y-133238571D01*
X179760476Y-133333809D01*
%TO.C,R47*%
X160012142Y-52522380D02*
X159678809Y-52046190D01*
X159440714Y-52522380D02*
X159440714Y-51522380D01*
X159821666Y-51522380D01*
X159916904Y-51570000D01*
X159964523Y-51617619D01*
X160012142Y-51712857D01*
X160012142Y-51855714D01*
X159964523Y-51950952D01*
X159916904Y-51998571D01*
X159821666Y-52046190D01*
X159440714Y-52046190D01*
X160869285Y-51855714D02*
X160869285Y-52522380D01*
X160631190Y-51474761D02*
X160393095Y-52189047D01*
X161012142Y-52189047D01*
X161297857Y-51522380D02*
X161964523Y-51522380D01*
X161535952Y-52522380D01*
%TO.C,Q4*%
X170084761Y-80332619D02*
X169989523Y-80285000D01*
X169894285Y-80189761D01*
X169751428Y-80046904D01*
X169656190Y-79999285D01*
X169560952Y-79999285D01*
X169608571Y-80237380D02*
X169513333Y-80189761D01*
X169418095Y-80094523D01*
X169370476Y-79904047D01*
X169370476Y-79570714D01*
X169418095Y-79380238D01*
X169513333Y-79285000D01*
X169608571Y-79237380D01*
X169799047Y-79237380D01*
X169894285Y-79285000D01*
X169989523Y-79380238D01*
X170037142Y-79570714D01*
X170037142Y-79904047D01*
X169989523Y-80094523D01*
X169894285Y-80189761D01*
X169799047Y-80237380D01*
X169608571Y-80237380D01*
X170894285Y-79570714D02*
X170894285Y-80237380D01*
X170656190Y-79189761D02*
X170418095Y-79904047D01*
X171037142Y-79904047D01*
%TO.C,D24*%
X177855714Y-123602380D02*
X177855714Y-122602380D01*
X178093809Y-122602380D01*
X178236666Y-122650000D01*
X178331904Y-122745238D01*
X178379523Y-122840476D01*
X178427142Y-123030952D01*
X178427142Y-123173809D01*
X178379523Y-123364285D01*
X178331904Y-123459523D01*
X178236666Y-123554761D01*
X178093809Y-123602380D01*
X177855714Y-123602380D01*
X178808095Y-122697619D02*
X178855714Y-122650000D01*
X178950952Y-122602380D01*
X179189047Y-122602380D01*
X179284285Y-122650000D01*
X179331904Y-122697619D01*
X179379523Y-122792857D01*
X179379523Y-122888095D01*
X179331904Y-123030952D01*
X178760476Y-123602380D01*
X179379523Y-123602380D01*
X180236666Y-122935714D02*
X180236666Y-123602380D01*
X179998571Y-122554761D02*
X179760476Y-123269047D01*
X180379523Y-123269047D01*
%TO.C,D25*%
X177855714Y-128682380D02*
X177855714Y-127682380D01*
X178093809Y-127682380D01*
X178236666Y-127730000D01*
X178331904Y-127825238D01*
X178379523Y-127920476D01*
X178427142Y-128110952D01*
X178427142Y-128253809D01*
X178379523Y-128444285D01*
X178331904Y-128539523D01*
X178236666Y-128634761D01*
X178093809Y-128682380D01*
X177855714Y-128682380D01*
X178808095Y-127777619D02*
X178855714Y-127730000D01*
X178950952Y-127682380D01*
X179189047Y-127682380D01*
X179284285Y-127730000D01*
X179331904Y-127777619D01*
X179379523Y-127872857D01*
X179379523Y-127968095D01*
X179331904Y-128110952D01*
X178760476Y-128682380D01*
X179379523Y-128682380D01*
X180284285Y-127682380D02*
X179808095Y-127682380D01*
X179760476Y-128158571D01*
X179808095Y-128110952D01*
X179903333Y-128063333D01*
X180141428Y-128063333D01*
X180236666Y-128110952D01*
X180284285Y-128158571D01*
X180331904Y-128253809D01*
X180331904Y-128491904D01*
X180284285Y-128587142D01*
X180236666Y-128634761D01*
X180141428Y-128682380D01*
X179903333Y-128682380D01*
X179808095Y-128634761D01*
X179760476Y-128587142D01*
%TO.C,R16*%
X160012142Y-102687380D02*
X159678809Y-102211190D01*
X159440714Y-102687380D02*
X159440714Y-101687380D01*
X159821666Y-101687380D01*
X159916904Y-101735000D01*
X159964523Y-101782619D01*
X160012142Y-101877857D01*
X160012142Y-102020714D01*
X159964523Y-102115952D01*
X159916904Y-102163571D01*
X159821666Y-102211190D01*
X159440714Y-102211190D01*
X160964523Y-102687380D02*
X160393095Y-102687380D01*
X160678809Y-102687380D02*
X160678809Y-101687380D01*
X160583571Y-101830238D01*
X160488333Y-101925476D01*
X160393095Y-101973095D01*
X161821666Y-101687380D02*
X161631190Y-101687380D01*
X161535952Y-101735000D01*
X161488333Y-101782619D01*
X161393095Y-101925476D01*
X161345476Y-102115952D01*
X161345476Y-102496904D01*
X161393095Y-102592142D01*
X161440714Y-102639761D01*
X161535952Y-102687380D01*
X161726428Y-102687380D01*
X161821666Y-102639761D01*
X161869285Y-102592142D01*
X161916904Y-102496904D01*
X161916904Y-102258809D01*
X161869285Y-102163571D01*
X161821666Y-102115952D01*
X161726428Y-102068333D01*
X161535952Y-102068333D01*
X161440714Y-102115952D01*
X161393095Y-102163571D01*
X161345476Y-102258809D01*
%TO.C,R57*%
X135969642Y-107767380D02*
X135636309Y-107291190D01*
X135398214Y-107767380D02*
X135398214Y-106767380D01*
X135779166Y-106767380D01*
X135874404Y-106815000D01*
X135922023Y-106862619D01*
X135969642Y-106957857D01*
X135969642Y-107100714D01*
X135922023Y-107195952D01*
X135874404Y-107243571D01*
X135779166Y-107291190D01*
X135398214Y-107291190D01*
X136874404Y-106767380D02*
X136398214Y-106767380D01*
X136350595Y-107243571D01*
X136398214Y-107195952D01*
X136493452Y-107148333D01*
X136731547Y-107148333D01*
X136826785Y-107195952D01*
X136874404Y-107243571D01*
X136922023Y-107338809D01*
X136922023Y-107576904D01*
X136874404Y-107672142D01*
X136826785Y-107719761D01*
X136731547Y-107767380D01*
X136493452Y-107767380D01*
X136398214Y-107719761D01*
X136350595Y-107672142D01*
X137255357Y-106767380D02*
X137922023Y-106767380D01*
X137493452Y-107767380D01*
%TO.C,R45*%
X160012142Y-80462380D02*
X159678809Y-79986190D01*
X159440714Y-80462380D02*
X159440714Y-79462380D01*
X159821666Y-79462380D01*
X159916904Y-79510000D01*
X159964523Y-79557619D01*
X160012142Y-79652857D01*
X160012142Y-79795714D01*
X159964523Y-79890952D01*
X159916904Y-79938571D01*
X159821666Y-79986190D01*
X159440714Y-79986190D01*
X160869285Y-79795714D02*
X160869285Y-80462380D01*
X160631190Y-79414761D02*
X160393095Y-80129047D01*
X161012142Y-80129047D01*
X161869285Y-79462380D02*
X161393095Y-79462380D01*
X161345476Y-79938571D01*
X161393095Y-79890952D01*
X161488333Y-79843333D01*
X161726428Y-79843333D01*
X161821666Y-79890952D01*
X161869285Y-79938571D01*
X161916904Y-80033809D01*
X161916904Y-80271904D01*
X161869285Y-80367142D01*
X161821666Y-80414761D01*
X161726428Y-80462380D01*
X161488333Y-80462380D01*
X161393095Y-80414761D01*
X161345476Y-80367142D01*
%TO.C,J3*%
X137461666Y-112057380D02*
X137461666Y-112771666D01*
X137414047Y-112914523D01*
X137318809Y-113009761D01*
X137175952Y-113057380D01*
X137080714Y-113057380D01*
X137842619Y-112057380D02*
X138461666Y-112057380D01*
X138128333Y-112438333D01*
X138271190Y-112438333D01*
X138366428Y-112485952D01*
X138414047Y-112533571D01*
X138461666Y-112628809D01*
X138461666Y-112866904D01*
X138414047Y-112962142D01*
X138366428Y-113009761D01*
X138271190Y-113057380D01*
X137985476Y-113057380D01*
X137890238Y-113009761D01*
X137842619Y-112962142D01*
%TO.C,R18*%
X160012142Y-112847380D02*
X159678809Y-112371190D01*
X159440714Y-112847380D02*
X159440714Y-111847380D01*
X159821666Y-111847380D01*
X159916904Y-111895000D01*
X159964523Y-111942619D01*
X160012142Y-112037857D01*
X160012142Y-112180714D01*
X159964523Y-112275952D01*
X159916904Y-112323571D01*
X159821666Y-112371190D01*
X159440714Y-112371190D01*
X160964523Y-112847380D02*
X160393095Y-112847380D01*
X160678809Y-112847380D02*
X160678809Y-111847380D01*
X160583571Y-111990238D01*
X160488333Y-112085476D01*
X160393095Y-112133095D01*
X161535952Y-112275952D02*
X161440714Y-112228333D01*
X161393095Y-112180714D01*
X161345476Y-112085476D01*
X161345476Y-112037857D01*
X161393095Y-111942619D01*
X161440714Y-111895000D01*
X161535952Y-111847380D01*
X161726428Y-111847380D01*
X161821666Y-111895000D01*
X161869285Y-111942619D01*
X161916904Y-112037857D01*
X161916904Y-112085476D01*
X161869285Y-112180714D01*
X161821666Y-112228333D01*
X161726428Y-112275952D01*
X161535952Y-112275952D01*
X161440714Y-112323571D01*
X161393095Y-112371190D01*
X161345476Y-112466428D01*
X161345476Y-112656904D01*
X161393095Y-112752142D01*
X161440714Y-112799761D01*
X161535952Y-112847380D01*
X161726428Y-112847380D01*
X161821666Y-112799761D01*
X161869285Y-112752142D01*
X161916904Y-112656904D01*
X161916904Y-112466428D01*
X161869285Y-112371190D01*
X161821666Y-112323571D01*
X161726428Y-112275952D01*
%TO.C,R19*%
X160012142Y-115387380D02*
X159678809Y-114911190D01*
X159440714Y-115387380D02*
X159440714Y-114387380D01*
X159821666Y-114387380D01*
X159916904Y-114435000D01*
X159964523Y-114482619D01*
X160012142Y-114577857D01*
X160012142Y-114720714D01*
X159964523Y-114815952D01*
X159916904Y-114863571D01*
X159821666Y-114911190D01*
X159440714Y-114911190D01*
X160964523Y-115387380D02*
X160393095Y-115387380D01*
X160678809Y-115387380D02*
X160678809Y-114387380D01*
X160583571Y-114530238D01*
X160488333Y-114625476D01*
X160393095Y-114673095D01*
X161440714Y-115387380D02*
X161631190Y-115387380D01*
X161726428Y-115339761D01*
X161774047Y-115292142D01*
X161869285Y-115149285D01*
X161916904Y-114958809D01*
X161916904Y-114577857D01*
X161869285Y-114482619D01*
X161821666Y-114435000D01*
X161726428Y-114387380D01*
X161535952Y-114387380D01*
X161440714Y-114435000D01*
X161393095Y-114482619D01*
X161345476Y-114577857D01*
X161345476Y-114815952D01*
X161393095Y-114911190D01*
X161440714Y-114958809D01*
X161535952Y-115006428D01*
X161726428Y-115006428D01*
X161821666Y-114958809D01*
X161869285Y-114911190D01*
X161916904Y-114815952D01*
%TO.C,D22*%
X177855714Y-113442380D02*
X177855714Y-112442380D01*
X178093809Y-112442380D01*
X178236666Y-112490000D01*
X178331904Y-112585238D01*
X178379523Y-112680476D01*
X178427142Y-112870952D01*
X178427142Y-113013809D01*
X178379523Y-113204285D01*
X178331904Y-113299523D01*
X178236666Y-113394761D01*
X178093809Y-113442380D01*
X177855714Y-113442380D01*
X178808095Y-112537619D02*
X178855714Y-112490000D01*
X178950952Y-112442380D01*
X179189047Y-112442380D01*
X179284285Y-112490000D01*
X179331904Y-112537619D01*
X179379523Y-112632857D01*
X179379523Y-112728095D01*
X179331904Y-112870952D01*
X178760476Y-113442380D01*
X179379523Y-113442380D01*
X179760476Y-112537619D02*
X179808095Y-112490000D01*
X179903333Y-112442380D01*
X180141428Y-112442380D01*
X180236666Y-112490000D01*
X180284285Y-112537619D01*
X180331904Y-112632857D01*
X180331904Y-112728095D01*
X180284285Y-112870952D01*
X179712857Y-113442380D01*
X180331904Y-113442380D01*
%TO.C,R68*%
X152807142Y-65857380D02*
X152473809Y-65381190D01*
X152235714Y-65857380D02*
X152235714Y-64857380D01*
X152616666Y-64857380D01*
X152711904Y-64905000D01*
X152759523Y-64952619D01*
X152807142Y-65047857D01*
X152807142Y-65190714D01*
X152759523Y-65285952D01*
X152711904Y-65333571D01*
X152616666Y-65381190D01*
X152235714Y-65381190D01*
X153664285Y-64857380D02*
X153473809Y-64857380D01*
X153378571Y-64905000D01*
X153330952Y-64952619D01*
X153235714Y-65095476D01*
X153188095Y-65285952D01*
X153188095Y-65666904D01*
X153235714Y-65762142D01*
X153283333Y-65809761D01*
X153378571Y-65857380D01*
X153569047Y-65857380D01*
X153664285Y-65809761D01*
X153711904Y-65762142D01*
X153759523Y-65666904D01*
X153759523Y-65428809D01*
X153711904Y-65333571D01*
X153664285Y-65285952D01*
X153569047Y-65238333D01*
X153378571Y-65238333D01*
X153283333Y-65285952D01*
X153235714Y-65333571D01*
X153188095Y-65428809D01*
X154330952Y-65285952D02*
X154235714Y-65238333D01*
X154188095Y-65190714D01*
X154140476Y-65095476D01*
X154140476Y-65047857D01*
X154188095Y-64952619D01*
X154235714Y-64905000D01*
X154330952Y-64857380D01*
X154521428Y-64857380D01*
X154616666Y-64905000D01*
X154664285Y-64952619D01*
X154711904Y-65047857D01*
X154711904Y-65095476D01*
X154664285Y-65190714D01*
X154616666Y-65238333D01*
X154521428Y-65285952D01*
X154330952Y-65285952D01*
X154235714Y-65333571D01*
X154188095Y-65381190D01*
X154140476Y-65476428D01*
X154140476Y-65666904D01*
X154188095Y-65762142D01*
X154235714Y-65809761D01*
X154330952Y-65857380D01*
X154521428Y-65857380D01*
X154616666Y-65809761D01*
X154664285Y-65762142D01*
X154711904Y-65666904D01*
X154711904Y-65476428D01*
X154664285Y-65381190D01*
X154616666Y-65333571D01*
X154521428Y-65285952D01*
%TO.C,R62*%
X156340917Y-120467380D02*
X156007584Y-119991190D01*
X155769489Y-120467380D02*
X155769489Y-119467380D01*
X156150441Y-119467380D01*
X156245679Y-119515000D01*
X156293298Y-119562619D01*
X156340917Y-119657857D01*
X156340917Y-119800714D01*
X156293298Y-119895952D01*
X156245679Y-119943571D01*
X156150441Y-119991190D01*
X155769489Y-119991190D01*
X157198060Y-119467380D02*
X157007584Y-119467380D01*
X156912346Y-119515000D01*
X156864727Y-119562619D01*
X156769489Y-119705476D01*
X156721870Y-119895952D01*
X156721870Y-120276904D01*
X156769489Y-120372142D01*
X156817108Y-120419761D01*
X156912346Y-120467380D01*
X157102822Y-120467380D01*
X157198060Y-120419761D01*
X157245679Y-120372142D01*
X157293298Y-120276904D01*
X157293298Y-120038809D01*
X157245679Y-119943571D01*
X157198060Y-119895952D01*
X157102822Y-119848333D01*
X156912346Y-119848333D01*
X156817108Y-119895952D01*
X156769489Y-119943571D01*
X156721870Y-120038809D01*
X157674251Y-119562619D02*
X157721870Y-119515000D01*
X157817108Y-119467380D01*
X158055203Y-119467380D01*
X158150441Y-119515000D01*
X158198060Y-119562619D01*
X158245679Y-119657857D01*
X158245679Y-119753095D01*
X158198060Y-119895952D01*
X157626632Y-120467380D01*
X158245679Y-120467380D01*
%TO.C,R52*%
X160012142Y-75382380D02*
X159678809Y-74906190D01*
X159440714Y-75382380D02*
X159440714Y-74382380D01*
X159821666Y-74382380D01*
X159916904Y-74430000D01*
X159964523Y-74477619D01*
X160012142Y-74572857D01*
X160012142Y-74715714D01*
X159964523Y-74810952D01*
X159916904Y-74858571D01*
X159821666Y-74906190D01*
X159440714Y-74906190D01*
X160916904Y-74382380D02*
X160440714Y-74382380D01*
X160393095Y-74858571D01*
X160440714Y-74810952D01*
X160535952Y-74763333D01*
X160774047Y-74763333D01*
X160869285Y-74810952D01*
X160916904Y-74858571D01*
X160964523Y-74953809D01*
X160964523Y-75191904D01*
X160916904Y-75287142D01*
X160869285Y-75334761D01*
X160774047Y-75382380D01*
X160535952Y-75382380D01*
X160440714Y-75334761D01*
X160393095Y-75287142D01*
X161345476Y-74477619D02*
X161393095Y-74430000D01*
X161488333Y-74382380D01*
X161726428Y-74382380D01*
X161821666Y-74430000D01*
X161869285Y-74477619D01*
X161916904Y-74572857D01*
X161916904Y-74668095D01*
X161869285Y-74810952D01*
X161297857Y-75382380D01*
X161916904Y-75382380D01*
%TO.C,J2*%
X148891666Y-112057380D02*
X148891666Y-112771666D01*
X148844047Y-112914523D01*
X148748809Y-113009761D01*
X148605952Y-113057380D01*
X148510714Y-113057380D01*
X149320238Y-112152619D02*
X149367857Y-112105000D01*
X149463095Y-112057380D01*
X149701190Y-112057380D01*
X149796428Y-112105000D01*
X149844047Y-112152619D01*
X149891666Y-112247857D01*
X149891666Y-112343095D01*
X149844047Y-112485952D01*
X149272619Y-113057380D01*
X149891666Y-113057380D01*
%TO.C,Q10*%
X144623571Y-67857619D02*
X144528333Y-67810000D01*
X144433095Y-67714761D01*
X144290238Y-67571904D01*
X144195000Y-67524285D01*
X144099761Y-67524285D01*
X144147380Y-67762380D02*
X144052142Y-67714761D01*
X143956904Y-67619523D01*
X143909285Y-67429047D01*
X143909285Y-67095714D01*
X143956904Y-66905238D01*
X144052142Y-66810000D01*
X144147380Y-66762380D01*
X144337857Y-66762380D01*
X144433095Y-66810000D01*
X144528333Y-66905238D01*
X144575952Y-67095714D01*
X144575952Y-67429047D01*
X144528333Y-67619523D01*
X144433095Y-67714761D01*
X144337857Y-67762380D01*
X144147380Y-67762380D01*
X145528333Y-67762380D02*
X144956904Y-67762380D01*
X145242619Y-67762380D02*
X145242619Y-66762380D01*
X145147380Y-66905238D01*
X145052142Y-67000476D01*
X144956904Y-67048095D01*
X146147380Y-66762380D02*
X146242619Y-66762380D01*
X146337857Y-66810000D01*
X146385476Y-66857619D01*
X146433095Y-66952857D01*
X146480714Y-67143333D01*
X146480714Y-67381428D01*
X146433095Y-67571904D01*
X146385476Y-67667142D01*
X146337857Y-67714761D01*
X146242619Y-67762380D01*
X146147380Y-67762380D01*
X146052142Y-67714761D01*
X146004523Y-67667142D01*
X145956904Y-67571904D01*
X145909285Y-67381428D01*
X145909285Y-67143333D01*
X145956904Y-66952857D01*
X146004523Y-66857619D01*
X146052142Y-66810000D01*
X146147380Y-66762380D01*
%TO.C,R50*%
X160012142Y-65222380D02*
X159678809Y-64746190D01*
X159440714Y-65222380D02*
X159440714Y-64222380D01*
X159821666Y-64222380D01*
X159916904Y-64270000D01*
X159964523Y-64317619D01*
X160012142Y-64412857D01*
X160012142Y-64555714D01*
X159964523Y-64650952D01*
X159916904Y-64698571D01*
X159821666Y-64746190D01*
X159440714Y-64746190D01*
X160916904Y-64222380D02*
X160440714Y-64222380D01*
X160393095Y-64698571D01*
X160440714Y-64650952D01*
X160535952Y-64603333D01*
X160774047Y-64603333D01*
X160869285Y-64650952D01*
X160916904Y-64698571D01*
X160964523Y-64793809D01*
X160964523Y-65031904D01*
X160916904Y-65127142D01*
X160869285Y-65174761D01*
X160774047Y-65222380D01*
X160535952Y-65222380D01*
X160440714Y-65174761D01*
X160393095Y-65127142D01*
X161583571Y-64222380D02*
X161678809Y-64222380D01*
X161774047Y-64270000D01*
X161821666Y-64317619D01*
X161869285Y-64412857D01*
X161916904Y-64603333D01*
X161916904Y-64841428D01*
X161869285Y-65031904D01*
X161821666Y-65127142D01*
X161774047Y-65174761D01*
X161678809Y-65222380D01*
X161583571Y-65222380D01*
X161488333Y-65174761D01*
X161440714Y-65127142D01*
X161393095Y-65031904D01*
X161345476Y-64841428D01*
X161345476Y-64603333D01*
X161393095Y-64412857D01*
X161440714Y-64317619D01*
X161488333Y-64270000D01*
X161583571Y-64222380D01*
%TO.C,R56*%
X135969642Y-100147380D02*
X135636309Y-99671190D01*
X135398214Y-100147380D02*
X135398214Y-99147380D01*
X135779166Y-99147380D01*
X135874404Y-99195000D01*
X135922023Y-99242619D01*
X135969642Y-99337857D01*
X135969642Y-99480714D01*
X135922023Y-99575952D01*
X135874404Y-99623571D01*
X135779166Y-99671190D01*
X135398214Y-99671190D01*
X136874404Y-99147380D02*
X136398214Y-99147380D01*
X136350595Y-99623571D01*
X136398214Y-99575952D01*
X136493452Y-99528333D01*
X136731547Y-99528333D01*
X136826785Y-99575952D01*
X136874404Y-99623571D01*
X136922023Y-99718809D01*
X136922023Y-99956904D01*
X136874404Y-100052142D01*
X136826785Y-100099761D01*
X136731547Y-100147380D01*
X136493452Y-100147380D01*
X136398214Y-100099761D01*
X136350595Y-100052142D01*
X137779166Y-99147380D02*
X137588690Y-99147380D01*
X137493452Y-99195000D01*
X137445833Y-99242619D01*
X137350595Y-99385476D01*
X137302976Y-99575952D01*
X137302976Y-99956904D01*
X137350595Y-100052142D01*
X137398214Y-100099761D01*
X137493452Y-100147380D01*
X137683928Y-100147380D01*
X137779166Y-100099761D01*
X137826785Y-100052142D01*
X137874404Y-99956904D01*
X137874404Y-99718809D01*
X137826785Y-99623571D01*
X137779166Y-99575952D01*
X137683928Y-99528333D01*
X137493452Y-99528333D01*
X137398214Y-99575952D01*
X137350595Y-99623571D01*
X137302976Y-99718809D01*
%TO.C,D23*%
X177855714Y-118522380D02*
X177855714Y-117522380D01*
X178093809Y-117522380D01*
X178236666Y-117570000D01*
X178331904Y-117665238D01*
X178379523Y-117760476D01*
X178427142Y-117950952D01*
X178427142Y-118093809D01*
X178379523Y-118284285D01*
X178331904Y-118379523D01*
X178236666Y-118474761D01*
X178093809Y-118522380D01*
X177855714Y-118522380D01*
X178808095Y-117617619D02*
X178855714Y-117570000D01*
X178950952Y-117522380D01*
X179189047Y-117522380D01*
X179284285Y-117570000D01*
X179331904Y-117617619D01*
X179379523Y-117712857D01*
X179379523Y-117808095D01*
X179331904Y-117950952D01*
X178760476Y-118522380D01*
X179379523Y-118522380D01*
X179712857Y-117522380D02*
X180331904Y-117522380D01*
X179998571Y-117903333D01*
X180141428Y-117903333D01*
X180236666Y-117950952D01*
X180284285Y-117998571D01*
X180331904Y-118093809D01*
X180331904Y-118331904D01*
X180284285Y-118427142D01*
X180236666Y-118474761D01*
X180141428Y-118522380D01*
X179855714Y-118522380D01*
X179760476Y-118474761D01*
X179712857Y-118427142D01*
%TO.C,R75*%
X152807142Y-68397380D02*
X152473809Y-67921190D01*
X152235714Y-68397380D02*
X152235714Y-67397380D01*
X152616666Y-67397380D01*
X152711904Y-67445000D01*
X152759523Y-67492619D01*
X152807142Y-67587857D01*
X152807142Y-67730714D01*
X152759523Y-67825952D01*
X152711904Y-67873571D01*
X152616666Y-67921190D01*
X152235714Y-67921190D01*
X153140476Y-67397380D02*
X153807142Y-67397380D01*
X153378571Y-68397380D01*
X154664285Y-67397380D02*
X154188095Y-67397380D01*
X154140476Y-67873571D01*
X154188095Y-67825952D01*
X154283333Y-67778333D01*
X154521428Y-67778333D01*
X154616666Y-67825952D01*
X154664285Y-67873571D01*
X154711904Y-67968809D01*
X154711904Y-68206904D01*
X154664285Y-68302142D01*
X154616666Y-68349761D01*
X154521428Y-68397380D01*
X154283333Y-68397380D01*
X154188095Y-68349761D01*
X154140476Y-68302142D01*
%TO.C,R58*%
X135969642Y-110307380D02*
X135636309Y-109831190D01*
X135398214Y-110307380D02*
X135398214Y-109307380D01*
X135779166Y-109307380D01*
X135874404Y-109355000D01*
X135922023Y-109402619D01*
X135969642Y-109497857D01*
X135969642Y-109640714D01*
X135922023Y-109735952D01*
X135874404Y-109783571D01*
X135779166Y-109831190D01*
X135398214Y-109831190D01*
X136874404Y-109307380D02*
X136398214Y-109307380D01*
X136350595Y-109783571D01*
X136398214Y-109735952D01*
X136493452Y-109688333D01*
X136731547Y-109688333D01*
X136826785Y-109735952D01*
X136874404Y-109783571D01*
X136922023Y-109878809D01*
X136922023Y-110116904D01*
X136874404Y-110212142D01*
X136826785Y-110259761D01*
X136731547Y-110307380D01*
X136493452Y-110307380D01*
X136398214Y-110259761D01*
X136350595Y-110212142D01*
X137493452Y-109735952D02*
X137398214Y-109688333D01*
X137350595Y-109640714D01*
X137302976Y-109545476D01*
X137302976Y-109497857D01*
X137350595Y-109402619D01*
X137398214Y-109355000D01*
X137493452Y-109307380D01*
X137683928Y-109307380D01*
X137779166Y-109355000D01*
X137826785Y-109402619D01*
X137874404Y-109497857D01*
X137874404Y-109545476D01*
X137826785Y-109640714D01*
X137779166Y-109688333D01*
X137683928Y-109735952D01*
X137493452Y-109735952D01*
X137398214Y-109783571D01*
X137350595Y-109831190D01*
X137302976Y-109926428D01*
X137302976Y-110116904D01*
X137350595Y-110212142D01*
X137398214Y-110259761D01*
X137493452Y-110307380D01*
X137683928Y-110307380D01*
X137779166Y-110259761D01*
X137826785Y-110212142D01*
X137874404Y-110116904D01*
X137874404Y-109926428D01*
X137826785Y-109831190D01*
X137779166Y-109783571D01*
X137683928Y-109735952D01*
%TO.C,D51*%
X135090714Y-65857380D02*
X135090714Y-64857380D01*
X135328809Y-64857380D01*
X135471666Y-64905000D01*
X135566904Y-65000238D01*
X135614523Y-65095476D01*
X135662142Y-65285952D01*
X135662142Y-65428809D01*
X135614523Y-65619285D01*
X135566904Y-65714523D01*
X135471666Y-65809761D01*
X135328809Y-65857380D01*
X135090714Y-65857380D01*
X136566904Y-64857380D02*
X136090714Y-64857380D01*
X136043095Y-65333571D01*
X136090714Y-65285952D01*
X136185952Y-65238333D01*
X136424047Y-65238333D01*
X136519285Y-65285952D01*
X136566904Y-65333571D01*
X136614523Y-65428809D01*
X136614523Y-65666904D01*
X136566904Y-65762142D01*
X136519285Y-65809761D01*
X136424047Y-65857380D01*
X136185952Y-65857380D01*
X136090714Y-65809761D01*
X136043095Y-65762142D01*
X137566904Y-65857380D02*
X136995476Y-65857380D01*
X137281190Y-65857380D02*
X137281190Y-64857380D01*
X137185952Y-65000238D01*
X137090714Y-65095476D01*
X136995476Y-65143095D01*
%TO.C,Q8*%
X170084761Y-125417619D02*
X169989523Y-125370000D01*
X169894285Y-125274761D01*
X169751428Y-125131904D01*
X169656190Y-125084285D01*
X169560952Y-125084285D01*
X169608571Y-125322380D02*
X169513333Y-125274761D01*
X169418095Y-125179523D01*
X169370476Y-124989047D01*
X169370476Y-124655714D01*
X169418095Y-124465238D01*
X169513333Y-124370000D01*
X169608571Y-124322380D01*
X169799047Y-124322380D01*
X169894285Y-124370000D01*
X169989523Y-124465238D01*
X170037142Y-124655714D01*
X170037142Y-124989047D01*
X169989523Y-125179523D01*
X169894285Y-125274761D01*
X169799047Y-125322380D01*
X169608571Y-125322380D01*
X170608571Y-124750952D02*
X170513333Y-124703333D01*
X170465714Y-124655714D01*
X170418095Y-124560476D01*
X170418095Y-124512857D01*
X170465714Y-124417619D01*
X170513333Y-124370000D01*
X170608571Y-124322380D01*
X170799047Y-124322380D01*
X170894285Y-124370000D01*
X170941904Y-124417619D01*
X170989523Y-124512857D01*
X170989523Y-124560476D01*
X170941904Y-124655714D01*
X170894285Y-124703333D01*
X170799047Y-124750952D01*
X170608571Y-124750952D01*
X170513333Y-124798571D01*
X170465714Y-124846190D01*
X170418095Y-124941428D01*
X170418095Y-125131904D01*
X170465714Y-125227142D01*
X170513333Y-125274761D01*
X170608571Y-125322380D01*
X170799047Y-125322380D01*
X170894285Y-125274761D01*
X170941904Y-125227142D01*
X170989523Y-125131904D01*
X170989523Y-124941428D01*
X170941904Y-124846190D01*
X170894285Y-124798571D01*
X170799047Y-124750952D01*
%TO.C,D19*%
X177855714Y-98202380D02*
X177855714Y-97202380D01*
X178093809Y-97202380D01*
X178236666Y-97250000D01*
X178331904Y-97345238D01*
X178379523Y-97440476D01*
X178427142Y-97630952D01*
X178427142Y-97773809D01*
X178379523Y-97964285D01*
X178331904Y-98059523D01*
X178236666Y-98154761D01*
X178093809Y-98202380D01*
X177855714Y-98202380D01*
X179379523Y-98202380D02*
X178808095Y-98202380D01*
X179093809Y-98202380D02*
X179093809Y-97202380D01*
X178998571Y-97345238D01*
X178903333Y-97440476D01*
X178808095Y-97488095D01*
X179855714Y-98202380D02*
X180046190Y-98202380D01*
X180141428Y-98154761D01*
X180189047Y-98107142D01*
X180284285Y-97964285D01*
X180331904Y-97773809D01*
X180331904Y-97392857D01*
X180284285Y-97297619D01*
X180236666Y-97250000D01*
X180141428Y-97202380D01*
X179950952Y-97202380D01*
X179855714Y-97250000D01*
X179808095Y-97297619D01*
X179760476Y-97392857D01*
X179760476Y-97630952D01*
X179808095Y-97726190D01*
X179855714Y-97773809D01*
X179950952Y-97821428D01*
X180141428Y-97821428D01*
X180236666Y-97773809D01*
X180284285Y-97726190D01*
X180331904Y-97630952D01*
%TO.C,U2*%
X128865596Y-87082380D02*
X128865596Y-87891904D01*
X128913215Y-87987142D01*
X128960834Y-88034761D01*
X129056072Y-88082380D01*
X129246548Y-88082380D01*
X129341786Y-88034761D01*
X129389405Y-87987142D01*
X129437024Y-87891904D01*
X129437024Y-87082380D01*
X129865596Y-87177619D02*
X129913215Y-87130000D01*
X130008453Y-87082380D01*
X130246548Y-87082380D01*
X130341786Y-87130000D01*
X130389405Y-87177619D01*
X130437024Y-87272857D01*
X130437024Y-87368095D01*
X130389405Y-87510952D01*
X129817977Y-88082380D01*
X130437024Y-88082380D01*
%TO.C,R27*%
X160012142Y-117927380D02*
X159678809Y-117451190D01*
X159440714Y-117927380D02*
X159440714Y-116927380D01*
X159821666Y-116927380D01*
X159916904Y-116975000D01*
X159964523Y-117022619D01*
X160012142Y-117117857D01*
X160012142Y-117260714D01*
X159964523Y-117355952D01*
X159916904Y-117403571D01*
X159821666Y-117451190D01*
X159440714Y-117451190D01*
X160393095Y-117022619D02*
X160440714Y-116975000D01*
X160535952Y-116927380D01*
X160774047Y-116927380D01*
X160869285Y-116975000D01*
X160916904Y-117022619D01*
X160964523Y-117117857D01*
X160964523Y-117213095D01*
X160916904Y-117355952D01*
X160345476Y-117927380D01*
X160964523Y-117927380D01*
X161297857Y-116927380D02*
X161964523Y-116927380D01*
X161535952Y-117927380D01*
%TO.C,R71*%
X140107142Y-73477380D02*
X139773809Y-73001190D01*
X139535714Y-73477380D02*
X139535714Y-72477380D01*
X139916666Y-72477380D01*
X140011904Y-72525000D01*
X140059523Y-72572619D01*
X140107142Y-72667857D01*
X140107142Y-72810714D01*
X140059523Y-72905952D01*
X140011904Y-72953571D01*
X139916666Y-73001190D01*
X139535714Y-73001190D01*
X140440476Y-72477380D02*
X141107142Y-72477380D01*
X140678571Y-73477380D01*
X142011904Y-73477380D02*
X141440476Y-73477380D01*
X141726190Y-73477380D02*
X141726190Y-72477380D01*
X141630952Y-72620238D01*
X141535714Y-72715476D01*
X141440476Y-72763095D01*
%TO.C,D52*%
X135090714Y-73477380D02*
X135090714Y-72477380D01*
X135328809Y-72477380D01*
X135471666Y-72525000D01*
X135566904Y-72620238D01*
X135614523Y-72715476D01*
X135662142Y-72905952D01*
X135662142Y-73048809D01*
X135614523Y-73239285D01*
X135566904Y-73334523D01*
X135471666Y-73429761D01*
X135328809Y-73477380D01*
X135090714Y-73477380D01*
X136566904Y-72477380D02*
X136090714Y-72477380D01*
X136043095Y-72953571D01*
X136090714Y-72905952D01*
X136185952Y-72858333D01*
X136424047Y-72858333D01*
X136519285Y-72905952D01*
X136566904Y-72953571D01*
X136614523Y-73048809D01*
X136614523Y-73286904D01*
X136566904Y-73382142D01*
X136519285Y-73429761D01*
X136424047Y-73477380D01*
X136185952Y-73477380D01*
X136090714Y-73429761D01*
X136043095Y-73382142D01*
X136995476Y-72572619D02*
X137043095Y-72525000D01*
X137138333Y-72477380D01*
X137376428Y-72477380D01*
X137471666Y-72525000D01*
X137519285Y-72572619D01*
X137566904Y-72667857D01*
X137566904Y-72763095D01*
X137519285Y-72905952D01*
X136947857Y-73477380D01*
X137566904Y-73477380D01*
%TO.C,C1*%
X130730834Y-91162142D02*
X130683215Y-91209761D01*
X130540358Y-91257380D01*
X130445120Y-91257380D01*
X130302262Y-91209761D01*
X130207024Y-91114523D01*
X130159405Y-91019285D01*
X130111786Y-90828809D01*
X130111786Y-90685952D01*
X130159405Y-90495476D01*
X130207024Y-90400238D01*
X130302262Y-90305000D01*
X130445120Y-90257380D01*
X130540358Y-90257380D01*
X130683215Y-90305000D01*
X130730834Y-90352619D01*
X131683215Y-91257380D02*
X131111786Y-91257380D01*
X131397501Y-91257380D02*
X131397501Y-90257380D01*
X131302262Y-90400238D01*
X131207024Y-90495476D01*
X131111786Y-90543095D01*
%TO.C,R70*%
X131217142Y-73222380D02*
X130883809Y-72746190D01*
X130645714Y-73222380D02*
X130645714Y-72222380D01*
X131026666Y-72222380D01*
X131121904Y-72270000D01*
X131169523Y-72317619D01*
X131217142Y-72412857D01*
X131217142Y-72555714D01*
X131169523Y-72650952D01*
X131121904Y-72698571D01*
X131026666Y-72746190D01*
X130645714Y-72746190D01*
X131550476Y-72222380D02*
X132217142Y-72222380D01*
X131788571Y-73222380D01*
X132788571Y-72222380D02*
X132883809Y-72222380D01*
X132979047Y-72270000D01*
X133026666Y-72317619D01*
X133074285Y-72412857D01*
X133121904Y-72603333D01*
X133121904Y-72841428D01*
X133074285Y-73031904D01*
X133026666Y-73127142D01*
X132979047Y-73174761D01*
X132883809Y-73222380D01*
X132788571Y-73222380D01*
X132693333Y-73174761D01*
X132645714Y-73127142D01*
X132598095Y-73031904D01*
X132550476Y-72841428D01*
X132550476Y-72603333D01*
X132598095Y-72412857D01*
X132645714Y-72317619D01*
X132693333Y-72270000D01*
X132788571Y-72222380D01*
%TO.C,D1*%
X133969404Y-97567380D02*
X133969404Y-96567380D01*
X134207500Y-96567380D01*
X134350357Y-96615000D01*
X134445595Y-96710238D01*
X134493214Y-96805476D01*
X134540833Y-96995952D01*
X134540833Y-97138809D01*
X134493214Y-97329285D01*
X134445595Y-97424523D01*
X134350357Y-97519761D01*
X134207500Y-97567380D01*
X133969404Y-97567380D01*
X135493214Y-97567380D02*
X134921785Y-97567380D01*
X135207500Y-97567380D02*
X135207500Y-96567380D01*
X135112261Y-96710238D01*
X135017023Y-96805476D01*
X134921785Y-96853095D01*
%TO.C,R22*%
X160012142Y-133167380D02*
X159678809Y-132691190D01*
X159440714Y-133167380D02*
X159440714Y-132167380D01*
X159821666Y-132167380D01*
X159916904Y-132215000D01*
X159964523Y-132262619D01*
X160012142Y-132357857D01*
X160012142Y-132500714D01*
X159964523Y-132595952D01*
X159916904Y-132643571D01*
X159821666Y-132691190D01*
X159440714Y-132691190D01*
X160393095Y-132262619D02*
X160440714Y-132215000D01*
X160535952Y-132167380D01*
X160774047Y-132167380D01*
X160869285Y-132215000D01*
X160916904Y-132262619D01*
X160964523Y-132357857D01*
X160964523Y-132453095D01*
X160916904Y-132595952D01*
X160345476Y-133167380D01*
X160964523Y-133167380D01*
X161345476Y-132262619D02*
X161393095Y-132215000D01*
X161488333Y-132167380D01*
X161726428Y-132167380D01*
X161821666Y-132215000D01*
X161869285Y-132262619D01*
X161916904Y-132357857D01*
X161916904Y-132453095D01*
X161869285Y-132595952D01*
X161297857Y-133167380D01*
X161916904Y-133167380D01*
%TO.C,D44*%
X177855714Y-58197380D02*
X177855714Y-57197380D01*
X178093809Y-57197380D01*
X178236666Y-57245000D01*
X178331904Y-57340238D01*
X178379523Y-57435476D01*
X178427142Y-57625952D01*
X178427142Y-57768809D01*
X178379523Y-57959285D01*
X178331904Y-58054523D01*
X178236666Y-58149761D01*
X178093809Y-58197380D01*
X177855714Y-58197380D01*
X179284285Y-57530714D02*
X179284285Y-58197380D01*
X179046190Y-57149761D02*
X178808095Y-57864047D01*
X179427142Y-57864047D01*
X180236666Y-57530714D02*
X180236666Y-58197380D01*
X179998571Y-57149761D02*
X179760476Y-57864047D01*
X180379523Y-57864047D01*
%TO.C,R55*%
X135969642Y-105227380D02*
X135636309Y-104751190D01*
X135398214Y-105227380D02*
X135398214Y-104227380D01*
X135779166Y-104227380D01*
X135874404Y-104275000D01*
X135922023Y-104322619D01*
X135969642Y-104417857D01*
X135969642Y-104560714D01*
X135922023Y-104655952D01*
X135874404Y-104703571D01*
X135779166Y-104751190D01*
X135398214Y-104751190D01*
X136874404Y-104227380D02*
X136398214Y-104227380D01*
X136350595Y-104703571D01*
X136398214Y-104655952D01*
X136493452Y-104608333D01*
X136731547Y-104608333D01*
X136826785Y-104655952D01*
X136874404Y-104703571D01*
X136922023Y-104798809D01*
X136922023Y-105036904D01*
X136874404Y-105132142D01*
X136826785Y-105179761D01*
X136731547Y-105227380D01*
X136493452Y-105227380D01*
X136398214Y-105179761D01*
X136350595Y-105132142D01*
X137826785Y-104227380D02*
X137350595Y-104227380D01*
X137302976Y-104703571D01*
X137350595Y-104655952D01*
X137445833Y-104608333D01*
X137683928Y-104608333D01*
X137779166Y-104655952D01*
X137826785Y-104703571D01*
X137874404Y-104798809D01*
X137874404Y-105036904D01*
X137826785Y-105132142D01*
X137779166Y-105179761D01*
X137683928Y-105227380D01*
X137445833Y-105227380D01*
X137350595Y-105179761D01*
X137302976Y-105132142D01*
%TO.C,R26*%
X160012142Y-110307380D02*
X159678809Y-109831190D01*
X159440714Y-110307380D02*
X159440714Y-109307380D01*
X159821666Y-109307380D01*
X159916904Y-109355000D01*
X159964523Y-109402619D01*
X160012142Y-109497857D01*
X160012142Y-109640714D01*
X159964523Y-109735952D01*
X159916904Y-109783571D01*
X159821666Y-109831190D01*
X159440714Y-109831190D01*
X160393095Y-109402619D02*
X160440714Y-109355000D01*
X160535952Y-109307380D01*
X160774047Y-109307380D01*
X160869285Y-109355000D01*
X160916904Y-109402619D01*
X160964523Y-109497857D01*
X160964523Y-109593095D01*
X160916904Y-109735952D01*
X160345476Y-110307380D01*
X160964523Y-110307380D01*
X161821666Y-109307380D02*
X161631190Y-109307380D01*
X161535952Y-109355000D01*
X161488333Y-109402619D01*
X161393095Y-109545476D01*
X161345476Y-109735952D01*
X161345476Y-110116904D01*
X161393095Y-110212142D01*
X161440714Y-110259761D01*
X161535952Y-110307380D01*
X161726428Y-110307380D01*
X161821666Y-110259761D01*
X161869285Y-110212142D01*
X161916904Y-110116904D01*
X161916904Y-109878809D01*
X161869285Y-109783571D01*
X161821666Y-109735952D01*
X161726428Y-109688333D01*
X161535952Y-109688333D01*
X161440714Y-109735952D01*
X161393095Y-109783571D01*
X161345476Y-109878809D01*
%TO.C,C2*%
X131365834Y-78462142D02*
X131318215Y-78509761D01*
X131175358Y-78557380D01*
X131080120Y-78557380D01*
X130937262Y-78509761D01*
X130842024Y-78414523D01*
X130794405Y-78319285D01*
X130746786Y-78128809D01*
X130746786Y-77985952D01*
X130794405Y-77795476D01*
X130842024Y-77700238D01*
X130937262Y-77605000D01*
X131080120Y-77557380D01*
X131175358Y-77557380D01*
X131318215Y-77605000D01*
X131365834Y-77652619D01*
X131746786Y-77652619D02*
X131794405Y-77605000D01*
X131889643Y-77557380D01*
X132127739Y-77557380D01*
X132222977Y-77605000D01*
X132270596Y-77652619D01*
X132318215Y-77747857D01*
X132318215Y-77843095D01*
X132270596Y-77985952D01*
X131699167Y-78557380D01*
X132318215Y-78557380D01*
%TO.C,Q6*%
X170084761Y-105097619D02*
X169989523Y-105050000D01*
X169894285Y-104954761D01*
X169751428Y-104811904D01*
X169656190Y-104764285D01*
X169560952Y-104764285D01*
X169608571Y-105002380D02*
X169513333Y-104954761D01*
X169418095Y-104859523D01*
X169370476Y-104669047D01*
X169370476Y-104335714D01*
X169418095Y-104145238D01*
X169513333Y-104050000D01*
X169608571Y-104002380D01*
X169799047Y-104002380D01*
X169894285Y-104050000D01*
X169989523Y-104145238D01*
X170037142Y-104335714D01*
X170037142Y-104669047D01*
X169989523Y-104859523D01*
X169894285Y-104954761D01*
X169799047Y-105002380D01*
X169608571Y-105002380D01*
X170894285Y-104002380D02*
X170703809Y-104002380D01*
X170608571Y-104050000D01*
X170560952Y-104097619D01*
X170465714Y-104240476D01*
X170418095Y-104430952D01*
X170418095Y-104811904D01*
X170465714Y-104907142D01*
X170513333Y-104954761D01*
X170608571Y-105002380D01*
X170799047Y-105002380D01*
X170894285Y-104954761D01*
X170941904Y-104907142D01*
X170989523Y-104811904D01*
X170989523Y-104573809D01*
X170941904Y-104478571D01*
X170894285Y-104430952D01*
X170799047Y-104383333D01*
X170608571Y-104383333D01*
X170513333Y-104430952D01*
X170465714Y-104478571D01*
X170418095Y-104573809D01*
%TO.C,R24*%
X160012142Y-100147380D02*
X159678809Y-99671190D01*
X159440714Y-100147380D02*
X159440714Y-99147380D01*
X159821666Y-99147380D01*
X159916904Y-99195000D01*
X159964523Y-99242619D01*
X160012142Y-99337857D01*
X160012142Y-99480714D01*
X159964523Y-99575952D01*
X159916904Y-99623571D01*
X159821666Y-99671190D01*
X159440714Y-99671190D01*
X160393095Y-99242619D02*
X160440714Y-99195000D01*
X160535952Y-99147380D01*
X160774047Y-99147380D01*
X160869285Y-99195000D01*
X160916904Y-99242619D01*
X160964523Y-99337857D01*
X160964523Y-99433095D01*
X160916904Y-99575952D01*
X160345476Y-100147380D01*
X160964523Y-100147380D01*
X161821666Y-99480714D02*
X161821666Y-100147380D01*
X161583571Y-99099761D02*
X161345476Y-99814047D01*
X161964523Y-99814047D01*
%TO.C,U4*%
X154178095Y-91342380D02*
X154178095Y-92151904D01*
X154225714Y-92247142D01*
X154273333Y-92294761D01*
X154368571Y-92342380D01*
X154559047Y-92342380D01*
X154654285Y-92294761D01*
X154701904Y-92247142D01*
X154749523Y-92151904D01*
X154749523Y-91342380D01*
X155654285Y-91675714D02*
X155654285Y-92342380D01*
X155416190Y-91294761D02*
X155178095Y-92009047D01*
X155797142Y-92009047D01*
%TO.C,D50*%
X177855714Y-88677380D02*
X177855714Y-87677380D01*
X178093809Y-87677380D01*
X178236666Y-87725000D01*
X178331904Y-87820238D01*
X178379523Y-87915476D01*
X178427142Y-88105952D01*
X178427142Y-88248809D01*
X178379523Y-88439285D01*
X178331904Y-88534523D01*
X178236666Y-88629761D01*
X178093809Y-88677380D01*
X177855714Y-88677380D01*
X179331904Y-87677380D02*
X178855714Y-87677380D01*
X178808095Y-88153571D01*
X178855714Y-88105952D01*
X178950952Y-88058333D01*
X179189047Y-88058333D01*
X179284285Y-88105952D01*
X179331904Y-88153571D01*
X179379523Y-88248809D01*
X179379523Y-88486904D01*
X179331904Y-88582142D01*
X179284285Y-88629761D01*
X179189047Y-88677380D01*
X178950952Y-88677380D01*
X178855714Y-88629761D01*
X178808095Y-88582142D01*
X179998571Y-87677380D02*
X180093809Y-87677380D01*
X180189047Y-87725000D01*
X180236666Y-87772619D01*
X180284285Y-87867857D01*
X180331904Y-88058333D01*
X180331904Y-88296428D01*
X180284285Y-88486904D01*
X180236666Y-88582142D01*
X180189047Y-88629761D01*
X180093809Y-88677380D01*
X179998571Y-88677380D01*
X179903333Y-88629761D01*
X179855714Y-88582142D01*
X179808095Y-88486904D01*
X179760476Y-88296428D01*
X179760476Y-88058333D01*
X179808095Y-87867857D01*
X179855714Y-87772619D01*
X179903333Y-87725000D01*
X179998571Y-87677380D01*
%TO.C,Q9*%
X144464761Y-60237619D02*
X144369523Y-60190000D01*
X144274285Y-60094761D01*
X144131428Y-59951904D01*
X144036190Y-59904285D01*
X143940952Y-59904285D01*
X143988571Y-60142380D02*
X143893333Y-60094761D01*
X143798095Y-59999523D01*
X143750476Y-59809047D01*
X143750476Y-59475714D01*
X143798095Y-59285238D01*
X143893333Y-59190000D01*
X143988571Y-59142380D01*
X144179047Y-59142380D01*
X144274285Y-59190000D01*
X144369523Y-59285238D01*
X144417142Y-59475714D01*
X144417142Y-59809047D01*
X144369523Y-59999523D01*
X144274285Y-60094761D01*
X144179047Y-60142380D01*
X143988571Y-60142380D01*
X144893333Y-60142380D02*
X145083809Y-60142380D01*
X145179047Y-60094761D01*
X145226666Y-60047142D01*
X145321904Y-59904285D01*
X145369523Y-59713809D01*
X145369523Y-59332857D01*
X145321904Y-59237619D01*
X145274285Y-59190000D01*
X145179047Y-59142380D01*
X144988571Y-59142380D01*
X144893333Y-59190000D01*
X144845714Y-59237619D01*
X144798095Y-59332857D01*
X144798095Y-59570952D01*
X144845714Y-59666190D01*
X144893333Y-59713809D01*
X144988571Y-59761428D01*
X145179047Y-59761428D01*
X145274285Y-59713809D01*
X145321904Y-59666190D01*
X145369523Y-59570952D01*
%TO.C,R1*%
X145248333Y-115387380D02*
X144915000Y-114911190D01*
X144676904Y-115387380D02*
X144676904Y-114387380D01*
X145057857Y-114387380D01*
X145153095Y-114435000D01*
X145200714Y-114482619D01*
X145248333Y-114577857D01*
X145248333Y-114720714D01*
X145200714Y-114815952D01*
X145153095Y-114863571D01*
X145057857Y-114911190D01*
X144676904Y-114911190D01*
X146200714Y-115387380D02*
X145629285Y-115387380D01*
X145915000Y-115387380D02*
X145915000Y-114387380D01*
X145819761Y-114530238D01*
X145724523Y-114625476D01*
X145629285Y-114673095D01*
%TO.C,Q3*%
X170084761Y-70172619D02*
X169989523Y-70125000D01*
X169894285Y-70029761D01*
X169751428Y-69886904D01*
X169656190Y-69839285D01*
X169560952Y-69839285D01*
X169608571Y-70077380D02*
X169513333Y-70029761D01*
X169418095Y-69934523D01*
X169370476Y-69744047D01*
X169370476Y-69410714D01*
X169418095Y-69220238D01*
X169513333Y-69125000D01*
X169608571Y-69077380D01*
X169799047Y-69077380D01*
X169894285Y-69125000D01*
X169989523Y-69220238D01*
X170037142Y-69410714D01*
X170037142Y-69744047D01*
X169989523Y-69934523D01*
X169894285Y-70029761D01*
X169799047Y-70077380D01*
X169608571Y-70077380D01*
X170370476Y-69077380D02*
X170989523Y-69077380D01*
X170656190Y-69458333D01*
X170799047Y-69458333D01*
X170894285Y-69505952D01*
X170941904Y-69553571D01*
X170989523Y-69648809D01*
X170989523Y-69886904D01*
X170941904Y-69982142D01*
X170894285Y-70029761D01*
X170799047Y-70077380D01*
X170513333Y-70077380D01*
X170418095Y-70029761D01*
X170370476Y-69982142D01*
%TO.C,R3*%
X145248333Y-120467380D02*
X144915000Y-119991190D01*
X144676904Y-120467380D02*
X144676904Y-119467380D01*
X145057857Y-119467380D01*
X145153095Y-119515000D01*
X145200714Y-119562619D01*
X145248333Y-119657857D01*
X145248333Y-119800714D01*
X145200714Y-119895952D01*
X145153095Y-119943571D01*
X145057857Y-119991190D01*
X144676904Y-119991190D01*
X145581666Y-119467380D02*
X146200714Y-119467380D01*
X145867380Y-119848333D01*
X146010238Y-119848333D01*
X146105476Y-119895952D01*
X146153095Y-119943571D01*
X146200714Y-120038809D01*
X146200714Y-120276904D01*
X146153095Y-120372142D01*
X146105476Y-120419761D01*
X146010238Y-120467380D01*
X145724523Y-120467380D01*
X145629285Y-120419761D01*
X145581666Y-120372142D01*
%TO.C,D46*%
X177855714Y-68357380D02*
X177855714Y-67357380D01*
X178093809Y-67357380D01*
X178236666Y-67405000D01*
X178331904Y-67500238D01*
X178379523Y-67595476D01*
X178427142Y-67785952D01*
X178427142Y-67928809D01*
X178379523Y-68119285D01*
X178331904Y-68214523D01*
X178236666Y-68309761D01*
X178093809Y-68357380D01*
X177855714Y-68357380D01*
X179284285Y-67690714D02*
X179284285Y-68357380D01*
X179046190Y-67309761D02*
X178808095Y-68024047D01*
X179427142Y-68024047D01*
X180236666Y-67357380D02*
X180046190Y-67357380D01*
X179950952Y-67405000D01*
X179903333Y-67452619D01*
X179808095Y-67595476D01*
X179760476Y-67785952D01*
X179760476Y-68166904D01*
X179808095Y-68262142D01*
X179855714Y-68309761D01*
X179950952Y-68357380D01*
X180141428Y-68357380D01*
X180236666Y-68309761D01*
X180284285Y-68262142D01*
X180331904Y-68166904D01*
X180331904Y-67928809D01*
X180284285Y-67833571D01*
X180236666Y-67785952D01*
X180141428Y-67738333D01*
X179950952Y-67738333D01*
X179855714Y-67785952D01*
X179808095Y-67833571D01*
X179760476Y-67928809D01*
%TO.C,R44*%
X160012142Y-77922380D02*
X159678809Y-77446190D01*
X159440714Y-77922380D02*
X159440714Y-76922380D01*
X159821666Y-76922380D01*
X159916904Y-76970000D01*
X159964523Y-77017619D01*
X160012142Y-77112857D01*
X160012142Y-77255714D01*
X159964523Y-77350952D01*
X159916904Y-77398571D01*
X159821666Y-77446190D01*
X159440714Y-77446190D01*
X160869285Y-77255714D02*
X160869285Y-77922380D01*
X160631190Y-76874761D02*
X160393095Y-77589047D01*
X161012142Y-77589047D01*
X161821666Y-77255714D02*
X161821666Y-77922380D01*
X161583571Y-76874761D02*
X161345476Y-77589047D01*
X161964523Y-77589047D01*
%TO.C,R20*%
X160012142Y-123007380D02*
X159678809Y-122531190D01*
X159440714Y-123007380D02*
X159440714Y-122007380D01*
X159821666Y-122007380D01*
X159916904Y-122055000D01*
X159964523Y-122102619D01*
X160012142Y-122197857D01*
X160012142Y-122340714D01*
X159964523Y-122435952D01*
X159916904Y-122483571D01*
X159821666Y-122531190D01*
X159440714Y-122531190D01*
X160393095Y-122102619D02*
X160440714Y-122055000D01*
X160535952Y-122007380D01*
X160774047Y-122007380D01*
X160869285Y-122055000D01*
X160916904Y-122102619D01*
X160964523Y-122197857D01*
X160964523Y-122293095D01*
X160916904Y-122435952D01*
X160345476Y-123007380D01*
X160964523Y-123007380D01*
X161583571Y-122007380D02*
X161678809Y-122007380D01*
X161774047Y-122055000D01*
X161821666Y-122102619D01*
X161869285Y-122197857D01*
X161916904Y-122388333D01*
X161916904Y-122626428D01*
X161869285Y-122816904D01*
X161821666Y-122912142D01*
X161774047Y-122959761D01*
X161678809Y-123007380D01*
X161583571Y-123007380D01*
X161488333Y-122959761D01*
X161440714Y-122912142D01*
X161393095Y-122816904D01*
X161345476Y-122626428D01*
X161345476Y-122388333D01*
X161393095Y-122197857D01*
X161440714Y-122102619D01*
X161488333Y-122055000D01*
X161583571Y-122007380D01*
%TO.C,R61*%
X156340917Y-117927380D02*
X156007584Y-117451190D01*
X155769489Y-117927380D02*
X155769489Y-116927380D01*
X156150441Y-116927380D01*
X156245679Y-116975000D01*
X156293298Y-117022619D01*
X156340917Y-117117857D01*
X156340917Y-117260714D01*
X156293298Y-117355952D01*
X156245679Y-117403571D01*
X156150441Y-117451190D01*
X155769489Y-117451190D01*
X157198060Y-116927380D02*
X157007584Y-116927380D01*
X156912346Y-116975000D01*
X156864727Y-117022619D01*
X156769489Y-117165476D01*
X156721870Y-117355952D01*
X156721870Y-117736904D01*
X156769489Y-117832142D01*
X156817108Y-117879761D01*
X156912346Y-117927380D01*
X157102822Y-117927380D01*
X157198060Y-117879761D01*
X157245679Y-117832142D01*
X157293298Y-117736904D01*
X157293298Y-117498809D01*
X157245679Y-117403571D01*
X157198060Y-117355952D01*
X157102822Y-117308333D01*
X156912346Y-117308333D01*
X156817108Y-117355952D01*
X156769489Y-117403571D01*
X156721870Y-117498809D01*
X158245679Y-117927380D02*
X157674251Y-117927380D01*
X157959965Y-117927380D02*
X157959965Y-116927380D01*
X157864727Y-117070238D01*
X157769489Y-117165476D01*
X157674251Y-117213095D01*
%TO.C,R73*%
X152807142Y-73477380D02*
X152473809Y-73001190D01*
X152235714Y-73477380D02*
X152235714Y-72477380D01*
X152616666Y-72477380D01*
X152711904Y-72525000D01*
X152759523Y-72572619D01*
X152807142Y-72667857D01*
X152807142Y-72810714D01*
X152759523Y-72905952D01*
X152711904Y-72953571D01*
X152616666Y-73001190D01*
X152235714Y-73001190D01*
X153140476Y-72477380D02*
X153807142Y-72477380D01*
X153378571Y-73477380D01*
X154092857Y-72477380D02*
X154711904Y-72477380D01*
X154378571Y-72858333D01*
X154521428Y-72858333D01*
X154616666Y-72905952D01*
X154664285Y-72953571D01*
X154711904Y-73048809D01*
X154711904Y-73286904D01*
X154664285Y-73382142D01*
X154616666Y-73429761D01*
X154521428Y-73477380D01*
X154235714Y-73477380D01*
X154140476Y-73429761D01*
X154092857Y-73382142D01*
%TO.C,D47*%
X177855714Y-73437380D02*
X177855714Y-72437380D01*
X178093809Y-72437380D01*
X178236666Y-72485000D01*
X178331904Y-72580238D01*
X178379523Y-72675476D01*
X178427142Y-72865952D01*
X178427142Y-73008809D01*
X178379523Y-73199285D01*
X178331904Y-73294523D01*
X178236666Y-73389761D01*
X178093809Y-73437380D01*
X177855714Y-73437380D01*
X179284285Y-72770714D02*
X179284285Y-73437380D01*
X179046190Y-72389761D02*
X178808095Y-73104047D01*
X179427142Y-73104047D01*
X179712857Y-72437380D02*
X180379523Y-72437380D01*
X179950952Y-73437380D01*
%TO.C,R4*%
X145248333Y-123037380D02*
X144915000Y-122561190D01*
X144676904Y-123037380D02*
X144676904Y-122037380D01*
X145057857Y-122037380D01*
X145153095Y-122085000D01*
X145200714Y-122132619D01*
X145248333Y-122227857D01*
X145248333Y-122370714D01*
X145200714Y-122465952D01*
X145153095Y-122513571D01*
X145057857Y-122561190D01*
X144676904Y-122561190D01*
X146105476Y-122370714D02*
X146105476Y-123037380D01*
X145867380Y-121989761D02*
X145629285Y-122704047D01*
X146248333Y-122704047D01*
%TO.C,R51*%
X160012142Y-72842380D02*
X159678809Y-72366190D01*
X159440714Y-72842380D02*
X159440714Y-71842380D01*
X159821666Y-71842380D01*
X159916904Y-71890000D01*
X159964523Y-71937619D01*
X160012142Y-72032857D01*
X160012142Y-72175714D01*
X159964523Y-72270952D01*
X159916904Y-72318571D01*
X159821666Y-72366190D01*
X159440714Y-72366190D01*
X160916904Y-71842380D02*
X160440714Y-71842380D01*
X160393095Y-72318571D01*
X160440714Y-72270952D01*
X160535952Y-72223333D01*
X160774047Y-72223333D01*
X160869285Y-72270952D01*
X160916904Y-72318571D01*
X160964523Y-72413809D01*
X160964523Y-72651904D01*
X160916904Y-72747142D01*
X160869285Y-72794761D01*
X160774047Y-72842380D01*
X160535952Y-72842380D01*
X160440714Y-72794761D01*
X160393095Y-72747142D01*
X161916904Y-72842380D02*
X161345476Y-72842380D01*
X161631190Y-72842380D02*
X161631190Y-71842380D01*
X161535952Y-71985238D01*
X161440714Y-72080476D01*
X161345476Y-72128095D01*
%TO.C,R42*%
X160012142Y-67762380D02*
X159678809Y-67286190D01*
X159440714Y-67762380D02*
X159440714Y-66762380D01*
X159821666Y-66762380D01*
X159916904Y-66810000D01*
X159964523Y-66857619D01*
X160012142Y-66952857D01*
X160012142Y-67095714D01*
X159964523Y-67190952D01*
X159916904Y-67238571D01*
X159821666Y-67286190D01*
X159440714Y-67286190D01*
X160869285Y-67095714D02*
X160869285Y-67762380D01*
X160631190Y-66714761D02*
X160393095Y-67429047D01*
X161012142Y-67429047D01*
X161345476Y-66857619D02*
X161393095Y-66810000D01*
X161488333Y-66762380D01*
X161726428Y-66762380D01*
X161821666Y-66810000D01*
X161869285Y-66857619D01*
X161916904Y-66952857D01*
X161916904Y-67048095D01*
X161869285Y-67190952D01*
X161297857Y-67762380D01*
X161916904Y-67762380D01*
%TO.C,C6*%
X133195833Y-68937142D02*
X133148214Y-68984761D01*
X133005357Y-69032380D01*
X132910119Y-69032380D01*
X132767261Y-68984761D01*
X132672023Y-68889523D01*
X132624404Y-68794285D01*
X132576785Y-68603809D01*
X132576785Y-68460952D01*
X132624404Y-68270476D01*
X132672023Y-68175238D01*
X132767261Y-68080000D01*
X132910119Y-68032380D01*
X133005357Y-68032380D01*
X133148214Y-68080000D01*
X133195833Y-68127619D01*
X134052976Y-68032380D02*
X133862500Y-68032380D01*
X133767261Y-68080000D01*
X133719642Y-68127619D01*
X133624404Y-68270476D01*
X133576785Y-68460952D01*
X133576785Y-68841904D01*
X133624404Y-68937142D01*
X133672023Y-68984761D01*
X133767261Y-69032380D01*
X133957738Y-69032380D01*
X134052976Y-68984761D01*
X134100595Y-68937142D01*
X134148214Y-68841904D01*
X134148214Y-68603809D01*
X134100595Y-68508571D01*
X134052976Y-68460952D01*
X133957738Y-68413333D01*
X133767261Y-68413333D01*
X133672023Y-68460952D01*
X133624404Y-68508571D01*
X133576785Y-68603809D01*
%TO.C,R29*%
X160012142Y-128087380D02*
X159678809Y-127611190D01*
X159440714Y-128087380D02*
X159440714Y-127087380D01*
X159821666Y-127087380D01*
X159916904Y-127135000D01*
X159964523Y-127182619D01*
X160012142Y-127277857D01*
X160012142Y-127420714D01*
X159964523Y-127515952D01*
X159916904Y-127563571D01*
X159821666Y-127611190D01*
X159440714Y-127611190D01*
X160393095Y-127182619D02*
X160440714Y-127135000D01*
X160535952Y-127087380D01*
X160774047Y-127087380D01*
X160869285Y-127135000D01*
X160916904Y-127182619D01*
X160964523Y-127277857D01*
X160964523Y-127373095D01*
X160916904Y-127515952D01*
X160345476Y-128087380D01*
X160964523Y-128087380D01*
X161440714Y-128087380D02*
X161631190Y-128087380D01*
X161726428Y-128039761D01*
X161774047Y-127992142D01*
X161869285Y-127849285D01*
X161916904Y-127658809D01*
X161916904Y-127277857D01*
X161869285Y-127182619D01*
X161821666Y-127135000D01*
X161726428Y-127087380D01*
X161535952Y-127087380D01*
X161440714Y-127135000D01*
X161393095Y-127182619D01*
X161345476Y-127277857D01*
X161345476Y-127515952D01*
X161393095Y-127611190D01*
X161440714Y-127658809D01*
X161535952Y-127706428D01*
X161726428Y-127706428D01*
X161821666Y-127658809D01*
X161869285Y-127611190D01*
X161916904Y-127515952D01*
%TO.C,R40*%
X160012142Y-57602380D02*
X159678809Y-57126190D01*
X159440714Y-57602380D02*
X159440714Y-56602380D01*
X159821666Y-56602380D01*
X159916904Y-56650000D01*
X159964523Y-56697619D01*
X160012142Y-56792857D01*
X160012142Y-56935714D01*
X159964523Y-57030952D01*
X159916904Y-57078571D01*
X159821666Y-57126190D01*
X159440714Y-57126190D01*
X160869285Y-56935714D02*
X160869285Y-57602380D01*
X160631190Y-56554761D02*
X160393095Y-57269047D01*
X161012142Y-57269047D01*
X161583571Y-56602380D02*
X161678809Y-56602380D01*
X161774047Y-56650000D01*
X161821666Y-56697619D01*
X161869285Y-56792857D01*
X161916904Y-56983333D01*
X161916904Y-57221428D01*
X161869285Y-57411904D01*
X161821666Y-57507142D01*
X161774047Y-57554761D01*
X161678809Y-57602380D01*
X161583571Y-57602380D01*
X161488333Y-57554761D01*
X161440714Y-57507142D01*
X161393095Y-57411904D01*
X161345476Y-57221428D01*
X161345476Y-56983333D01*
X161393095Y-56792857D01*
X161440714Y-56697619D01*
X161488333Y-56650000D01*
X161583571Y-56602380D01*
%TO.C,C4*%
X135810833Y-102592142D02*
X135763214Y-102639761D01*
X135620357Y-102687380D01*
X135525119Y-102687380D01*
X135382261Y-102639761D01*
X135287023Y-102544523D01*
X135239404Y-102449285D01*
X135191785Y-102258809D01*
X135191785Y-102115952D01*
X135239404Y-101925476D01*
X135287023Y-101830238D01*
X135382261Y-101735000D01*
X135525119Y-101687380D01*
X135620357Y-101687380D01*
X135763214Y-101735000D01*
X135810833Y-101782619D01*
X136667976Y-102020714D02*
X136667976Y-102687380D01*
X136429880Y-101639761D02*
X136191785Y-102354047D01*
X136810833Y-102354047D01*
%TO.C,R66*%
X140107142Y-65602380D02*
X139773809Y-65126190D01*
X139535714Y-65602380D02*
X139535714Y-64602380D01*
X139916666Y-64602380D01*
X140011904Y-64650000D01*
X140059523Y-64697619D01*
X140107142Y-64792857D01*
X140107142Y-64935714D01*
X140059523Y-65030952D01*
X140011904Y-65078571D01*
X139916666Y-65126190D01*
X139535714Y-65126190D01*
X140964285Y-64602380D02*
X140773809Y-64602380D01*
X140678571Y-64650000D01*
X140630952Y-64697619D01*
X140535714Y-64840476D01*
X140488095Y-65030952D01*
X140488095Y-65411904D01*
X140535714Y-65507142D01*
X140583333Y-65554761D01*
X140678571Y-65602380D01*
X140869047Y-65602380D01*
X140964285Y-65554761D01*
X141011904Y-65507142D01*
X141059523Y-65411904D01*
X141059523Y-65173809D01*
X141011904Y-65078571D01*
X140964285Y-65030952D01*
X140869047Y-64983333D01*
X140678571Y-64983333D01*
X140583333Y-65030952D01*
X140535714Y-65078571D01*
X140488095Y-65173809D01*
X141916666Y-64602380D02*
X141726190Y-64602380D01*
X141630952Y-64650000D01*
X141583333Y-64697619D01*
X141488095Y-64840476D01*
X141440476Y-65030952D01*
X141440476Y-65411904D01*
X141488095Y-65507142D01*
X141535714Y-65554761D01*
X141630952Y-65602380D01*
X141821428Y-65602380D01*
X141916666Y-65554761D01*
X141964285Y-65507142D01*
X142011904Y-65411904D01*
X142011904Y-65173809D01*
X141964285Y-65078571D01*
X141916666Y-65030952D01*
X141821428Y-64983333D01*
X141630952Y-64983333D01*
X141535714Y-65030952D01*
X141488095Y-65078571D01*
X141440476Y-65173809D01*
%TO.C,Q1*%
X170084761Y-49852619D02*
X169989523Y-49805000D01*
X169894285Y-49709761D01*
X169751428Y-49566904D01*
X169656190Y-49519285D01*
X169560952Y-49519285D01*
X169608571Y-49757380D02*
X169513333Y-49709761D01*
X169418095Y-49614523D01*
X169370476Y-49424047D01*
X169370476Y-49090714D01*
X169418095Y-48900238D01*
X169513333Y-48805000D01*
X169608571Y-48757380D01*
X169799047Y-48757380D01*
X169894285Y-48805000D01*
X169989523Y-48900238D01*
X170037142Y-49090714D01*
X170037142Y-49424047D01*
X169989523Y-49614523D01*
X169894285Y-49709761D01*
X169799047Y-49757380D01*
X169608571Y-49757380D01*
X170989523Y-49757380D02*
X170418095Y-49757380D01*
X170703809Y-49757380D02*
X170703809Y-48757380D01*
X170608571Y-48900238D01*
X170513333Y-48995476D01*
X170418095Y-49043095D01*
%TO.C,Q5*%
X170084761Y-94937619D02*
X169989523Y-94890000D01*
X169894285Y-94794761D01*
X169751428Y-94651904D01*
X169656190Y-94604285D01*
X169560952Y-94604285D01*
X169608571Y-94842380D02*
X169513333Y-94794761D01*
X169418095Y-94699523D01*
X169370476Y-94509047D01*
X169370476Y-94175714D01*
X169418095Y-93985238D01*
X169513333Y-93890000D01*
X169608571Y-93842380D01*
X169799047Y-93842380D01*
X169894285Y-93890000D01*
X169989523Y-93985238D01*
X170037142Y-94175714D01*
X170037142Y-94509047D01*
X169989523Y-94699523D01*
X169894285Y-94794761D01*
X169799047Y-94842380D01*
X169608571Y-94842380D01*
X170941904Y-93842380D02*
X170465714Y-93842380D01*
X170418095Y-94318571D01*
X170465714Y-94270952D01*
X170560952Y-94223333D01*
X170799047Y-94223333D01*
X170894285Y-94270952D01*
X170941904Y-94318571D01*
X170989523Y-94413809D01*
X170989523Y-94651904D01*
X170941904Y-94747142D01*
X170894285Y-94794761D01*
X170799047Y-94842380D01*
X170560952Y-94842380D01*
X170465714Y-94794761D01*
X170418095Y-94747142D01*
%TO.C,R49*%
X160012142Y-62682380D02*
X159678809Y-62206190D01*
X159440714Y-62682380D02*
X159440714Y-61682380D01*
X159821666Y-61682380D01*
X159916904Y-61730000D01*
X159964523Y-61777619D01*
X160012142Y-61872857D01*
X160012142Y-62015714D01*
X159964523Y-62110952D01*
X159916904Y-62158571D01*
X159821666Y-62206190D01*
X159440714Y-62206190D01*
X160869285Y-62015714D02*
X160869285Y-62682380D01*
X160631190Y-61634761D02*
X160393095Y-62349047D01*
X161012142Y-62349047D01*
X161440714Y-62682380D02*
X161631190Y-62682380D01*
X161726428Y-62634761D01*
X161774047Y-62587142D01*
X161869285Y-62444285D01*
X161916904Y-62253809D01*
X161916904Y-61872857D01*
X161869285Y-61777619D01*
X161821666Y-61730000D01*
X161726428Y-61682380D01*
X161535952Y-61682380D01*
X161440714Y-61730000D01*
X161393095Y-61777619D01*
X161345476Y-61872857D01*
X161345476Y-62110952D01*
X161393095Y-62206190D01*
X161440714Y-62253809D01*
X161535952Y-62301428D01*
X161726428Y-62301428D01*
X161821666Y-62253809D01*
X161869285Y-62206190D01*
X161916904Y-62110952D01*
%TO.C,R30*%
X160012142Y-130627380D02*
X159678809Y-130151190D01*
X159440714Y-130627380D02*
X159440714Y-129627380D01*
X159821666Y-129627380D01*
X159916904Y-129675000D01*
X159964523Y-129722619D01*
X160012142Y-129817857D01*
X160012142Y-129960714D01*
X159964523Y-130055952D01*
X159916904Y-130103571D01*
X159821666Y-130151190D01*
X159440714Y-130151190D01*
X160345476Y-129627380D02*
X160964523Y-129627380D01*
X160631190Y-130008333D01*
X160774047Y-130008333D01*
X160869285Y-130055952D01*
X160916904Y-130103571D01*
X160964523Y-130198809D01*
X160964523Y-130436904D01*
X160916904Y-130532142D01*
X160869285Y-130579761D01*
X160774047Y-130627380D01*
X160488333Y-130627380D01*
X160393095Y-130579761D01*
X160345476Y-130532142D01*
X161583571Y-129627380D02*
X161678809Y-129627380D01*
X161774047Y-129675000D01*
X161821666Y-129722619D01*
X161869285Y-129817857D01*
X161916904Y-130008333D01*
X161916904Y-130246428D01*
X161869285Y-130436904D01*
X161821666Y-130532142D01*
X161774047Y-130579761D01*
X161678809Y-130627380D01*
X161583571Y-130627380D01*
X161488333Y-130579761D01*
X161440714Y-130532142D01*
X161393095Y-130436904D01*
X161345476Y-130246428D01*
X161345476Y-130008333D01*
X161393095Y-129817857D01*
X161440714Y-129722619D01*
X161488333Y-129675000D01*
X161583571Y-129627380D01*
%TO.C,R25*%
X160012142Y-107767380D02*
X159678809Y-107291190D01*
X159440714Y-107767380D02*
X159440714Y-106767380D01*
X159821666Y-106767380D01*
X159916904Y-106815000D01*
X159964523Y-106862619D01*
X160012142Y-106957857D01*
X160012142Y-107100714D01*
X159964523Y-107195952D01*
X159916904Y-107243571D01*
X159821666Y-107291190D01*
X159440714Y-107291190D01*
X160393095Y-106862619D02*
X160440714Y-106815000D01*
X160535952Y-106767380D01*
X160774047Y-106767380D01*
X160869285Y-106815000D01*
X160916904Y-106862619D01*
X160964523Y-106957857D01*
X160964523Y-107053095D01*
X160916904Y-107195952D01*
X160345476Y-107767380D01*
X160964523Y-107767380D01*
X161869285Y-106767380D02*
X161393095Y-106767380D01*
X161345476Y-107243571D01*
X161393095Y-107195952D01*
X161488333Y-107148333D01*
X161726428Y-107148333D01*
X161821666Y-107195952D01*
X161869285Y-107243571D01*
X161916904Y-107338809D01*
X161916904Y-107576904D01*
X161869285Y-107672142D01*
X161821666Y-107719761D01*
X161726428Y-107767380D01*
X161488333Y-107767380D01*
X161393095Y-107719761D01*
X161345476Y-107672142D01*
%TO.C,R41*%
X160012142Y-60142380D02*
X159678809Y-59666190D01*
X159440714Y-60142380D02*
X159440714Y-59142380D01*
X159821666Y-59142380D01*
X159916904Y-59190000D01*
X159964523Y-59237619D01*
X160012142Y-59332857D01*
X160012142Y-59475714D01*
X159964523Y-59570952D01*
X159916904Y-59618571D01*
X159821666Y-59666190D01*
X159440714Y-59666190D01*
X160869285Y-59475714D02*
X160869285Y-60142380D01*
X160631190Y-59094761D02*
X160393095Y-59809047D01*
X161012142Y-59809047D01*
X161916904Y-60142380D02*
X161345476Y-60142380D01*
X161631190Y-60142380D02*
X161631190Y-59142380D01*
X161535952Y-59285238D01*
X161440714Y-59380476D01*
X161345476Y-59428095D01*
%TO.C,J4*%
X140636666Y-74597380D02*
X140636666Y-75311666D01*
X140589047Y-75454523D01*
X140493809Y-75549761D01*
X140350952Y-75597380D01*
X140255714Y-75597380D01*
X141541428Y-74930714D02*
X141541428Y-75597380D01*
X141303333Y-74549761D02*
X141065238Y-75264047D01*
X141684285Y-75264047D01*
%TO.C,R54*%
X160012142Y-86812380D02*
X159678809Y-86336190D01*
X159440714Y-86812380D02*
X159440714Y-85812380D01*
X159821666Y-85812380D01*
X159916904Y-85860000D01*
X159964523Y-85907619D01*
X160012142Y-86002857D01*
X160012142Y-86145714D01*
X159964523Y-86240952D01*
X159916904Y-86288571D01*
X159821666Y-86336190D01*
X159440714Y-86336190D01*
X160916904Y-85812380D02*
X160440714Y-85812380D01*
X160393095Y-86288571D01*
X160440714Y-86240952D01*
X160535952Y-86193333D01*
X160774047Y-86193333D01*
X160869285Y-86240952D01*
X160916904Y-86288571D01*
X160964523Y-86383809D01*
X160964523Y-86621904D01*
X160916904Y-86717142D01*
X160869285Y-86764761D01*
X160774047Y-86812380D01*
X160535952Y-86812380D01*
X160440714Y-86764761D01*
X160393095Y-86717142D01*
X161821666Y-86145714D02*
X161821666Y-86812380D01*
X161583571Y-85764761D02*
X161345476Y-86479047D01*
X161964523Y-86479047D01*
%TO.C,D45*%
X177855714Y-63277380D02*
X177855714Y-62277380D01*
X178093809Y-62277380D01*
X178236666Y-62325000D01*
X178331904Y-62420238D01*
X178379523Y-62515476D01*
X178427142Y-62705952D01*
X178427142Y-62848809D01*
X178379523Y-63039285D01*
X178331904Y-63134523D01*
X178236666Y-63229761D01*
X178093809Y-63277380D01*
X177855714Y-63277380D01*
X179284285Y-62610714D02*
X179284285Y-63277380D01*
X179046190Y-62229761D02*
X178808095Y-62944047D01*
X179427142Y-62944047D01*
X180284285Y-62277380D02*
X179808095Y-62277380D01*
X179760476Y-62753571D01*
X179808095Y-62705952D01*
X179903333Y-62658333D01*
X180141428Y-62658333D01*
X180236666Y-62705952D01*
X180284285Y-62753571D01*
X180331904Y-62848809D01*
X180331904Y-63086904D01*
X180284285Y-63182142D01*
X180236666Y-63229761D01*
X180141428Y-63277380D01*
X179903333Y-63277380D01*
X179808095Y-63229761D01*
X179760476Y-63182142D01*
%TO.C,R43*%
X160012142Y-70302380D02*
X159678809Y-69826190D01*
X159440714Y-70302380D02*
X159440714Y-69302380D01*
X159821666Y-69302380D01*
X159916904Y-69350000D01*
X159964523Y-69397619D01*
X160012142Y-69492857D01*
X160012142Y-69635714D01*
X159964523Y-69730952D01*
X159916904Y-69778571D01*
X159821666Y-69826190D01*
X159440714Y-69826190D01*
X160869285Y-69635714D02*
X160869285Y-70302380D01*
X160631190Y-69254761D02*
X160393095Y-69969047D01*
X161012142Y-69969047D01*
X161297857Y-69302380D02*
X161916904Y-69302380D01*
X161583571Y-69683333D01*
X161726428Y-69683333D01*
X161821666Y-69730952D01*
X161869285Y-69778571D01*
X161916904Y-69873809D01*
X161916904Y-70111904D01*
X161869285Y-70207142D01*
X161821666Y-70254761D01*
X161726428Y-70302380D01*
X161440714Y-70302380D01*
X161345476Y-70254761D01*
X161297857Y-70207142D01*
%TO.C,R67*%
X152807142Y-63317380D02*
X152473809Y-62841190D01*
X152235714Y-63317380D02*
X152235714Y-62317380D01*
X152616666Y-62317380D01*
X152711904Y-62365000D01*
X152759523Y-62412619D01*
X152807142Y-62507857D01*
X152807142Y-62650714D01*
X152759523Y-62745952D01*
X152711904Y-62793571D01*
X152616666Y-62841190D01*
X152235714Y-62841190D01*
X153664285Y-62317380D02*
X153473809Y-62317380D01*
X153378571Y-62365000D01*
X153330952Y-62412619D01*
X153235714Y-62555476D01*
X153188095Y-62745952D01*
X153188095Y-63126904D01*
X153235714Y-63222142D01*
X153283333Y-63269761D01*
X153378571Y-63317380D01*
X153569047Y-63317380D01*
X153664285Y-63269761D01*
X153711904Y-63222142D01*
X153759523Y-63126904D01*
X153759523Y-62888809D01*
X153711904Y-62793571D01*
X153664285Y-62745952D01*
X153569047Y-62698333D01*
X153378571Y-62698333D01*
X153283333Y-62745952D01*
X153235714Y-62793571D01*
X153188095Y-62888809D01*
X154092857Y-62317380D02*
X154759523Y-62317380D01*
X154330952Y-63317380D01*
%TO.C,R15*%
X160012142Y-95067380D02*
X159678809Y-94591190D01*
X159440714Y-95067380D02*
X159440714Y-94067380D01*
X159821666Y-94067380D01*
X159916904Y-94115000D01*
X159964523Y-94162619D01*
X160012142Y-94257857D01*
X160012142Y-94400714D01*
X159964523Y-94495952D01*
X159916904Y-94543571D01*
X159821666Y-94591190D01*
X159440714Y-94591190D01*
X160964523Y-95067380D02*
X160393095Y-95067380D01*
X160678809Y-95067380D02*
X160678809Y-94067380D01*
X160583571Y-94210238D01*
X160488333Y-94305476D01*
X160393095Y-94353095D01*
X161869285Y-94067380D02*
X161393095Y-94067380D01*
X161345476Y-94543571D01*
X161393095Y-94495952D01*
X161488333Y-94448333D01*
X161726428Y-94448333D01*
X161821666Y-94495952D01*
X161869285Y-94543571D01*
X161916904Y-94638809D01*
X161916904Y-94876904D01*
X161869285Y-94972142D01*
X161821666Y-95019761D01*
X161726428Y-95067380D01*
X161488333Y-95067380D01*
X161393095Y-95019761D01*
X161345476Y-94972142D01*
%TO.C,C5*%
X132963333Y-61317142D02*
X132915714Y-61364761D01*
X132772857Y-61412380D01*
X132677619Y-61412380D01*
X132534761Y-61364761D01*
X132439523Y-61269523D01*
X132391904Y-61174285D01*
X132344285Y-60983809D01*
X132344285Y-60840952D01*
X132391904Y-60650476D01*
X132439523Y-60555238D01*
X132534761Y-60460000D01*
X132677619Y-60412380D01*
X132772857Y-60412380D01*
X132915714Y-60460000D01*
X132963333Y-60507619D01*
X133868095Y-60412380D02*
X133391904Y-60412380D01*
X133344285Y-60888571D01*
X133391904Y-60840952D01*
X133487142Y-60793333D01*
X133725238Y-60793333D01*
X133820476Y-60840952D01*
X133868095Y-60888571D01*
X133915714Y-60983809D01*
X133915714Y-61221904D01*
X133868095Y-61317142D01*
X133820476Y-61364761D01*
X133725238Y-61412380D01*
X133487142Y-61412380D01*
X133391904Y-61364761D01*
X133344285Y-61317142D01*
%TO.C,R59*%
X156340917Y-125547380D02*
X156007584Y-125071190D01*
X155769489Y-125547380D02*
X155769489Y-124547380D01*
X156150441Y-124547380D01*
X156245679Y-124595000D01*
X156293298Y-124642619D01*
X156340917Y-124737857D01*
X156340917Y-124880714D01*
X156293298Y-124975952D01*
X156245679Y-125023571D01*
X156150441Y-125071190D01*
X155769489Y-125071190D01*
X157245679Y-124547380D02*
X156769489Y-124547380D01*
X156721870Y-125023571D01*
X156769489Y-124975952D01*
X156864727Y-124928333D01*
X157102822Y-124928333D01*
X157198060Y-124975952D01*
X157245679Y-125023571D01*
X157293298Y-125118809D01*
X157293298Y-125356904D01*
X157245679Y-125452142D01*
X157198060Y-125499761D01*
X157102822Y-125547380D01*
X156864727Y-125547380D01*
X156769489Y-125499761D01*
X156721870Y-125452142D01*
X157769489Y-125547380D02*
X157959965Y-125547380D01*
X158055203Y-125499761D01*
X158102822Y-125452142D01*
X158198060Y-125309285D01*
X158245679Y-125118809D01*
X158245679Y-124737857D01*
X158198060Y-124642619D01*
X158150441Y-124595000D01*
X158055203Y-124547380D01*
X157864727Y-124547380D01*
X157769489Y-124595000D01*
X157721870Y-124642619D01*
X157674251Y-124737857D01*
X157674251Y-124975952D01*
X157721870Y-125071190D01*
X157769489Y-125118809D01*
X157864727Y-125166428D01*
X158055203Y-125166428D01*
X158150441Y-125118809D01*
X158198060Y-125071190D01*
X158245679Y-124975952D01*
%TO.C,R2*%
X145248333Y-117927380D02*
X144915000Y-117451190D01*
X144676904Y-117927380D02*
X144676904Y-116927380D01*
X145057857Y-116927380D01*
X145153095Y-116975000D01*
X145200714Y-117022619D01*
X145248333Y-117117857D01*
X145248333Y-117260714D01*
X145200714Y-117355952D01*
X145153095Y-117403571D01*
X145057857Y-117451190D01*
X144676904Y-117451190D01*
X145629285Y-117022619D02*
X145676904Y-116975000D01*
X145772142Y-116927380D01*
X146010238Y-116927380D01*
X146105476Y-116975000D01*
X146153095Y-117022619D01*
X146200714Y-117117857D01*
X146200714Y-117213095D01*
X146153095Y-117355952D01*
X145581666Y-117927380D01*
X146200714Y-117927380D01*
%TO.C,U3*%
X154178095Y-46257380D02*
X154178095Y-47066904D01*
X154225714Y-47162142D01*
X154273333Y-47209761D01*
X154368571Y-47257380D01*
X154559047Y-47257380D01*
X154654285Y-47209761D01*
X154701904Y-47162142D01*
X154749523Y-47066904D01*
X154749523Y-46257380D01*
X155130476Y-46257380D02*
X155749523Y-46257380D01*
X155416190Y-46638333D01*
X155559047Y-46638333D01*
X155654285Y-46685952D01*
X155701904Y-46733571D01*
X155749523Y-46828809D01*
X155749523Y-47066904D01*
X155701904Y-47162142D01*
X155654285Y-47209761D01*
X155559047Y-47257380D01*
X155273333Y-47257380D01*
X155178095Y-47209761D01*
X155130476Y-47162142D01*
%TO.C,R21*%
X160012142Y-125547380D02*
X159678809Y-125071190D01*
X159440714Y-125547380D02*
X159440714Y-124547380D01*
X159821666Y-124547380D01*
X159916904Y-124595000D01*
X159964523Y-124642619D01*
X160012142Y-124737857D01*
X160012142Y-124880714D01*
X159964523Y-124975952D01*
X159916904Y-125023571D01*
X159821666Y-125071190D01*
X159440714Y-125071190D01*
X160393095Y-124642619D02*
X160440714Y-124595000D01*
X160535952Y-124547380D01*
X160774047Y-124547380D01*
X160869285Y-124595000D01*
X160916904Y-124642619D01*
X160964523Y-124737857D01*
X160964523Y-124833095D01*
X160916904Y-124975952D01*
X160345476Y-125547380D01*
X160964523Y-125547380D01*
X161916904Y-125547380D02*
X161345476Y-125547380D01*
X161631190Y-125547380D02*
X161631190Y-124547380D01*
X161535952Y-124690238D01*
X161440714Y-124785476D01*
X161345476Y-124833095D01*
D11*
%TO.C,Q7*%
X170180000Y-120670000D02*
X172130000Y-120670000D01*
X170180000Y-120670000D02*
X168230000Y-120670000D01*
X170180000Y-115550000D02*
X172130000Y-115550000D01*
X170180000Y-115550000D02*
X166730000Y-115550000D01*
%TO.C,D20*%
X183470000Y-101980000D02*
X183470000Y-98680000D01*
X183470000Y-101980000D02*
X176570000Y-101980000D01*
X183470000Y-98680000D02*
X176570000Y-98680000D01*
%TO.C,R69*%
X140522936Y-67845000D02*
X140977064Y-67845000D01*
X140522936Y-69315000D02*
X140977064Y-69315000D01*
%TO.C,R28*%
X163872936Y-120750000D02*
X164327064Y-120750000D01*
X163872936Y-119280000D02*
X164327064Y-119280000D01*
%TO.C,R63*%
X152946711Y-123290000D02*
X153400839Y-123290000D01*
X152946711Y-121820000D02*
X153400839Y-121820000D01*
%TO.C,U1*%
X152400000Y-76665000D02*
X148540000Y-76665000D01*
X156260000Y-88435000D02*
X156260000Y-88190000D01*
X148540000Y-76910000D02*
X146725000Y-76910000D01*
X152400000Y-76665000D02*
X156260000Y-76665000D01*
X152400000Y-88435000D02*
X156260000Y-88435000D01*
X152400000Y-88435000D02*
X148540000Y-88435000D01*
X148540000Y-88435000D02*
X148540000Y-88190000D01*
X156260000Y-76665000D02*
X156260000Y-76910000D01*
X148540000Y-76665000D02*
X148540000Y-76910000D01*
%TO.C,R64*%
X140522936Y-61695000D02*
X140977064Y-61695000D01*
X140522936Y-60225000D02*
X140977064Y-60225000D01*
%TO.C,R17*%
X164327064Y-105510000D02*
X163872936Y-105510000D01*
X164327064Y-104040000D02*
X163872936Y-104040000D01*
%TO.C,R39*%
X164327064Y-48795000D02*
X163872936Y-48795000D01*
X164327064Y-50265000D02*
X163872936Y-50265000D01*
%TO.C,D43*%
X183470000Y-51815000D02*
X183470000Y-48515000D01*
X183470000Y-51815000D02*
X176570000Y-51815000D01*
X183470000Y-48515000D02*
X176570000Y-48515000D01*
%TO.C,D48*%
X183470000Y-73915000D02*
X176570000Y-73915000D01*
X183470000Y-77215000D02*
X176570000Y-77215000D01*
X183470000Y-77215000D02*
X183470000Y-73915000D01*
%TO.C,R46*%
X164327064Y-88365000D02*
X163872936Y-88365000D01*
X164327064Y-86895000D02*
X163872936Y-86895000D01*
%TO.C,R23*%
X163872936Y-97890000D02*
X164327064Y-97890000D01*
X163872936Y-96420000D02*
X164327064Y-96420000D01*
%TO.C,R65*%
X132087064Y-64235000D02*
X131632936Y-64235000D01*
X132087064Y-62765000D02*
X131632936Y-62765000D01*
%TO.C,D49*%
X183470000Y-78995000D02*
X176570000Y-78995000D01*
X183470000Y-82295000D02*
X176570000Y-82295000D01*
X183470000Y-82295000D02*
X183470000Y-78995000D01*
%TO.C,R5*%
X142605839Y-124360000D02*
X142151711Y-124360000D01*
X142605839Y-125830000D02*
X142151711Y-125830000D01*
%TO.C,R60*%
X152946711Y-114200000D02*
X153400839Y-114200000D01*
X152946711Y-115670000D02*
X153400839Y-115670000D01*
%TO.C,R74*%
X149412936Y-61060000D02*
X149867064Y-61060000D01*
X149412936Y-59590000D02*
X149867064Y-59590000D01*
%TO.C,D21*%
X183470000Y-103760000D02*
X176570000Y-103760000D01*
X183470000Y-107060000D02*
X176570000Y-107060000D01*
X183470000Y-107060000D02*
X183470000Y-103760000D01*
%TO.C,R72*%
X149867064Y-71220000D02*
X149412936Y-71220000D01*
X149867064Y-69750000D02*
X149412936Y-69750000D01*
%TO.C,R53*%
X163872936Y-81815000D02*
X164327064Y-81815000D01*
X163872936Y-83285000D02*
X164327064Y-83285000D01*
%TO.C,Q2*%
X170180000Y-60305000D02*
X172130000Y-60305000D01*
X170180000Y-65425000D02*
X168230000Y-65425000D01*
X170180000Y-60305000D02*
X166730000Y-60305000D01*
X170180000Y-65425000D02*
X172130000Y-65425000D01*
%TO.C,R48*%
X163872936Y-55345000D02*
X164327064Y-55345000D01*
X163872936Y-53875000D02*
X164327064Y-53875000D01*
%TO.C,D26*%
X183470000Y-129160000D02*
X176570000Y-129160000D01*
X183470000Y-132460000D02*
X183470000Y-129160000D01*
X183470000Y-132460000D02*
X176570000Y-132460000D01*
%TO.C,R47*%
X163872936Y-51335000D02*
X164327064Y-51335000D01*
X163872936Y-52805000D02*
X164327064Y-52805000D01*
%TO.C,Q4*%
X170180000Y-85745000D02*
X172130000Y-85745000D01*
X170180000Y-85745000D02*
X168230000Y-85745000D01*
X170180000Y-80625000D02*
X172130000Y-80625000D01*
X170180000Y-80625000D02*
X166730000Y-80625000D01*
%TO.C,D24*%
X183470000Y-119000000D02*
X176570000Y-119000000D01*
X183470000Y-122300000D02*
X176570000Y-122300000D01*
X183470000Y-122300000D02*
X183470000Y-119000000D01*
%TO.C,D25*%
X183470000Y-127380000D02*
X176570000Y-127380000D01*
X183470000Y-124080000D02*
X176570000Y-124080000D01*
X183470000Y-127380000D02*
X183470000Y-124080000D01*
%TO.C,R16*%
X164327064Y-102970000D02*
X163872936Y-102970000D01*
X164327064Y-101500000D02*
X163872936Y-101500000D01*
%TO.C,R57*%
X133029564Y-106580000D02*
X132575436Y-106580000D01*
X133029564Y-108050000D02*
X132575436Y-108050000D01*
%TO.C,R45*%
X164327064Y-79275000D02*
X163872936Y-79275000D01*
X164327064Y-80745000D02*
X163872936Y-80745000D01*
%TO.C,J3*%
X136465000Y-113605000D02*
X137795000Y-113605000D01*
X136465000Y-128965000D02*
X139125000Y-128965000D01*
X136465000Y-116205000D02*
X136465000Y-128965000D01*
X136465000Y-116205000D02*
X139125000Y-116205000D01*
X139125000Y-116205000D02*
X139125000Y-128965000D01*
X136465000Y-114935000D02*
X136465000Y-113605000D01*
%TO.C,R18*%
X164327064Y-113130000D02*
X163872936Y-113130000D01*
X164327064Y-111660000D02*
X163872936Y-111660000D01*
%TO.C,R19*%
X164327064Y-115670000D02*
X163872936Y-115670000D01*
X164327064Y-114200000D02*
X163872936Y-114200000D01*
%TO.C,D22*%
X183470000Y-108840000D02*
X176570000Y-108840000D01*
X183470000Y-112140000D02*
X176570000Y-112140000D01*
X183470000Y-112140000D02*
X183470000Y-108840000D01*
%TO.C,R68*%
X149412936Y-64670000D02*
X149867064Y-64670000D01*
X149412936Y-66140000D02*
X149867064Y-66140000D01*
%TO.C,R62*%
X152946711Y-120750000D02*
X153400839Y-120750000D01*
X152946711Y-119280000D02*
X153400839Y-119280000D01*
%TO.C,C3*%
X160755000Y-83791248D02*
X160755000Y-84313752D01*
X159285000Y-83791248D02*
X159285000Y-84313752D01*
%TO.C,R52*%
X163872936Y-74195000D02*
X164327064Y-74195000D01*
X163872936Y-75665000D02*
X164327064Y-75665000D01*
%TO.C,J2*%
X147895000Y-114935000D02*
X147895000Y-113605000D01*
X147895000Y-113605000D02*
X149225000Y-113605000D01*
X147895000Y-128965000D02*
X150555000Y-128965000D01*
X147895000Y-116205000D02*
X150555000Y-116205000D01*
X150555000Y-116205000D02*
X150555000Y-128965000D01*
X147895000Y-116205000D02*
X147895000Y-128965000D01*
%TO.C,Q10*%
X142972500Y-69320000D02*
X142972500Y-72920000D01*
X142984022Y-72958478D02*
G75*
G03*
X147422500Y-71120000I1838478J1838478D01*
G01*
X142984022Y-69281522D02*
G75*
G02*
X147422500Y-71120000I1838478J-1838478D01*
G01*
%TO.C,R50*%
X163872936Y-64035000D02*
X164327064Y-64035000D01*
X163872936Y-65505000D02*
X164327064Y-65505000D01*
%TO.C,R56*%
X133029564Y-100430000D02*
X132575436Y-100430000D01*
X133029564Y-98960000D02*
X132575436Y-98960000D01*
%TO.C,D23*%
X183470000Y-113920000D02*
X176570000Y-113920000D01*
X183470000Y-117220000D02*
X176570000Y-117220000D01*
X183470000Y-117220000D02*
X183470000Y-113920000D01*
%TO.C,R75*%
X149412936Y-68680000D02*
X149867064Y-68680000D01*
X149412936Y-67210000D02*
X149867064Y-67210000D01*
%TO.C,R58*%
X133029564Y-109120000D02*
X132575436Y-109120000D01*
X133029564Y-110590000D02*
X132575436Y-110590000D01*
%TO.C,D51*%
X134055000Y-64500000D02*
X137955000Y-64500000D01*
X134055000Y-62500000D02*
X137955000Y-62500000D01*
X134055000Y-62500000D02*
X134055000Y-64500000D01*
%TO.C,Q8*%
X170180000Y-125710000D02*
X172130000Y-125710000D01*
X170180000Y-130830000D02*
X168230000Y-130830000D01*
X170180000Y-130830000D02*
X172130000Y-130830000D01*
X170180000Y-125710000D02*
X166730000Y-125710000D01*
%TO.C,D19*%
X183470000Y-96900000D02*
X176570000Y-96900000D01*
X183470000Y-93600000D02*
X176570000Y-93600000D01*
X183470000Y-96900000D02*
X183470000Y-93600000D01*
%TO.C,U2*%
X134637501Y-80005000D02*
X135737501Y-80005000D01*
X133137501Y-79735000D02*
X134637501Y-79735000D01*
X134637501Y-86365000D02*
X137467501Y-86365000D01*
X134637501Y-79735000D02*
X134637501Y-80005000D01*
X134637501Y-86635000D02*
X134637501Y-86365000D01*
X133137501Y-86635000D02*
X134637501Y-86635000D01*
%TO.C,R27*%
X163872936Y-118210000D02*
X164327064Y-118210000D01*
X163872936Y-116740000D02*
X164327064Y-116740000D01*
%TO.C,R71*%
X140977064Y-71855000D02*
X140522936Y-71855000D01*
X140977064Y-70385000D02*
X140522936Y-70385000D01*
%TO.C,D52*%
X134055000Y-70120000D02*
X134055000Y-72120000D01*
X134055000Y-70120000D02*
X137955000Y-70120000D01*
X134055000Y-72120000D02*
X137955000Y-72120000D01*
%TO.C,C1*%
X133776613Y-88495000D02*
X133776613Y-87440000D01*
X134496613Y-91990000D02*
X134496613Y-90575000D01*
X133056613Y-88495000D02*
X133056613Y-88216000D01*
X132936613Y-90633000D02*
X132936613Y-88437000D01*
X133976613Y-88495000D02*
X133976613Y-87311000D01*
X134777613Y-88495000D02*
X134777613Y-87007000D01*
X134136613Y-91845000D02*
X134136613Y-90575000D01*
X133856613Y-88495000D02*
X133856613Y-87386000D01*
X134576613Y-88495000D02*
X134576613Y-87055000D01*
X134937613Y-92091000D02*
X134937613Y-90575000D01*
X132896613Y-90546000D02*
X132896613Y-88524000D01*
X134136613Y-88495000D02*
X134136613Y-87225000D01*
X134416613Y-91963000D02*
X134416613Y-90575000D01*
X133016613Y-88495000D02*
X133016613Y-88284000D01*
X133816613Y-91657000D02*
X133816613Y-90575000D01*
X133016613Y-90786000D02*
X133016613Y-90575000D01*
X133816613Y-88495000D02*
X133816613Y-87413000D01*
X134336613Y-91933000D02*
X134336613Y-90575000D01*
X134536613Y-92003000D02*
X134536613Y-90575000D01*
X133336613Y-91234000D02*
X133336613Y-90575000D01*
X134456613Y-88495000D02*
X134456613Y-87093000D01*
X135057613Y-88495000D02*
X135057613Y-86966000D01*
X138102388Y-91010000D02*
X137602388Y-91010000D01*
X134977613Y-92096000D02*
X134977613Y-90575000D01*
X135177613Y-92113000D02*
X135177613Y-86957000D01*
X134016613Y-88495000D02*
X134016613Y-87288000D01*
X133336613Y-88495000D02*
X133336613Y-87836000D01*
X133576613Y-88495000D02*
X133576613Y-87598000D01*
X134897613Y-92085000D02*
X134897613Y-90575000D01*
X133456613Y-88495000D02*
X133456613Y-87709000D01*
X133416613Y-88495000D02*
X133416613Y-87750000D01*
X135217613Y-92114000D02*
X135217613Y-86956000D01*
X133296613Y-91188000D02*
X133296613Y-90575000D01*
X134376613Y-88495000D02*
X134376613Y-87121000D01*
X132816613Y-90340000D02*
X132816613Y-88730000D01*
X134857613Y-88495000D02*
X134857613Y-86992000D01*
X134536613Y-88495000D02*
X134536613Y-87067000D01*
X133696613Y-88495000D02*
X133696613Y-87500000D01*
X133456613Y-91361000D02*
X133456613Y-90575000D01*
X133976613Y-91759000D02*
X133976613Y-90575000D01*
X134977613Y-88495000D02*
X134977613Y-86974000D01*
X133376613Y-91278000D02*
X133376613Y-90575000D01*
X135017613Y-92100000D02*
X135017613Y-90575000D01*
X132736613Y-90053000D02*
X132736613Y-89017000D01*
X135137613Y-92111000D02*
X135137613Y-86959000D01*
X134096613Y-88495000D02*
X134096613Y-87245000D01*
X134897613Y-88495000D02*
X134897613Y-86985000D01*
X133696613Y-91570000D02*
X133696613Y-90575000D01*
X133656613Y-88495000D02*
X133656613Y-87531000D01*
X133576613Y-91472000D02*
X133576613Y-90575000D01*
X134336613Y-88495000D02*
X134336613Y-87137000D01*
X133536613Y-91436000D02*
X133536613Y-90575000D01*
X133216613Y-91089000D02*
X133216613Y-90575000D01*
X134737613Y-92055000D02*
X134737613Y-90575000D01*
X133136613Y-88495000D02*
X133136613Y-88092000D01*
X134697613Y-88495000D02*
X134697613Y-87024000D01*
X133296613Y-88495000D02*
X133296613Y-87882000D01*
X134456613Y-91977000D02*
X134456613Y-90575000D01*
X133656613Y-91539000D02*
X133656613Y-90575000D01*
X133176613Y-91035000D02*
X133176613Y-90575000D01*
X134016613Y-91782000D02*
X134016613Y-90575000D01*
X134056613Y-91803000D02*
X134056613Y-90575000D01*
X134576613Y-92015000D02*
X134576613Y-90575000D01*
X133496613Y-91399000D02*
X133496613Y-90575000D01*
X133736613Y-88495000D02*
X133736613Y-87470000D01*
X133096613Y-90918000D02*
X133096613Y-90575000D01*
X133256613Y-91140000D02*
X133256613Y-90575000D01*
X134937613Y-88495000D02*
X134937613Y-86979000D01*
X134256613Y-88495000D02*
X134256613Y-87170000D01*
X134617613Y-88495000D02*
X134617613Y-87044000D01*
X133896613Y-91710000D02*
X133896613Y-90575000D01*
X135017613Y-88495000D02*
X135017613Y-86970000D01*
X134216613Y-91883000D02*
X134216613Y-90575000D01*
X134416613Y-88495000D02*
X134416613Y-87107000D01*
X133216613Y-88495000D02*
X133216613Y-87981000D01*
X134657613Y-88495000D02*
X134657613Y-87034000D01*
X133776613Y-91630000D02*
X133776613Y-90575000D01*
X134857613Y-92078000D02*
X134857613Y-90575000D01*
X133536613Y-88495000D02*
X133536613Y-87634000D01*
X133616613Y-88495000D02*
X133616613Y-87564000D01*
X134376613Y-91949000D02*
X134376613Y-90575000D01*
X133936613Y-88495000D02*
X133936613Y-87335000D01*
X137852388Y-91260000D02*
X137852388Y-90760000D01*
X135257613Y-92115000D02*
X135257613Y-86955000D01*
X134777613Y-92063000D02*
X134777613Y-90575000D01*
X134176613Y-91864000D02*
X134176613Y-90575000D01*
X133376613Y-88495000D02*
X133376613Y-87792000D01*
X132976613Y-90713000D02*
X132976613Y-88357000D01*
X132856613Y-90450000D02*
X132856613Y-88620000D01*
X134496613Y-88495000D02*
X134496613Y-87080000D01*
X134296613Y-91917000D02*
X134296613Y-90575000D01*
X133496613Y-88495000D02*
X133496613Y-87671000D01*
X133096613Y-88495000D02*
X133096613Y-88152000D01*
X134176613Y-88495000D02*
X134176613Y-87206000D01*
X134056613Y-88495000D02*
X134056613Y-87267000D01*
X133136613Y-90978000D02*
X133136613Y-90575000D01*
X132776613Y-90212000D02*
X132776613Y-88858000D01*
X134817613Y-88495000D02*
X134817613Y-86999000D01*
X133616613Y-91506000D02*
X133616613Y-90575000D01*
X134697613Y-92046000D02*
X134697613Y-90575000D01*
X134657613Y-92036000D02*
X134657613Y-90575000D01*
X134096613Y-91825000D02*
X134096613Y-90575000D01*
X134216613Y-88495000D02*
X134216613Y-87187000D01*
X134617613Y-92026000D02*
X134617613Y-90575000D01*
X132696613Y-89819000D02*
X132696613Y-89251000D01*
X133176613Y-88495000D02*
X133176613Y-88035000D01*
X133736613Y-91600000D02*
X133736613Y-90575000D01*
X135297613Y-92115000D02*
X135297613Y-86955000D01*
X135057613Y-92104000D02*
X135057613Y-90575000D01*
X133856613Y-91684000D02*
X133856613Y-90575000D01*
X134256613Y-91900000D02*
X134256613Y-90575000D01*
X133936613Y-91735000D02*
X133936613Y-90575000D01*
X133256613Y-88495000D02*
X133256613Y-87930000D01*
X133416613Y-91320000D02*
X133416613Y-90575000D01*
X133056613Y-90854000D02*
X133056613Y-90575000D01*
X134296613Y-88495000D02*
X134296613Y-87153000D01*
X135097613Y-92108000D02*
X135097613Y-86962000D01*
X133896613Y-88495000D02*
X133896613Y-87360000D01*
X134737613Y-88495000D02*
X134737613Y-87015000D01*
X134817613Y-92071000D02*
X134817613Y-90575000D01*
X137917613Y-89535000D02*
G75*
G03*
X137917613Y-89535000I-2620000J0D01*
G01*
%TO.C,R70*%
X132087064Y-70385000D02*
X131632936Y-70385000D01*
X132087064Y-71855000D02*
X131632936Y-71855000D01*
%TO.C,D1*%
X139107500Y-96265000D02*
X139107500Y-92965000D01*
X139107500Y-96265000D02*
X132207500Y-96265000D01*
X139107500Y-92965000D02*
X132207500Y-92965000D01*
%TO.C,R22*%
X164327064Y-131980000D02*
X163872936Y-131980000D01*
X164327064Y-133450000D02*
X163872936Y-133450000D01*
%TO.C,D44*%
X183470000Y-53595000D02*
X176570000Y-53595000D01*
X183470000Y-56895000D02*
X176570000Y-56895000D01*
X183470000Y-56895000D02*
X183470000Y-53595000D01*
%TO.C,R55*%
X133029564Y-104040000D02*
X132575436Y-104040000D01*
X133029564Y-105510000D02*
X132575436Y-105510000D01*
%TO.C,R26*%
X163872936Y-110590000D02*
X164327064Y-110590000D01*
X163872936Y-109120000D02*
X164327064Y-109120000D01*
%TO.C,C2*%
X134968753Y-77370000D02*
X134446249Y-77370000D01*
X134968753Y-78840000D02*
X134446249Y-78840000D01*
%TO.C,Q6*%
X170180000Y-110510000D02*
X172130000Y-110510000D01*
X170180000Y-110510000D02*
X168230000Y-110510000D01*
X170180000Y-105390000D02*
X166730000Y-105390000D01*
X170180000Y-105390000D02*
X172130000Y-105390000D01*
%TO.C,R24*%
X163872936Y-100430000D02*
X164327064Y-100430000D01*
X163872936Y-98960000D02*
X164327064Y-98960000D01*
%TO.C,U4*%
X154940000Y-92730000D02*
X151440000Y-92730000D01*
X154940000Y-102850000D02*
X156890000Y-102850000D01*
X154940000Y-92730000D02*
X156890000Y-92730000D01*
X154940000Y-102850000D02*
X152990000Y-102850000D01*
%TO.C,D50*%
X183470000Y-87375000D02*
X176570000Y-87375000D01*
X183470000Y-84075000D02*
X176570000Y-84075000D01*
X183470000Y-87375000D02*
X183470000Y-84075000D01*
%TO.C,Q9*%
X142972500Y-61700000D02*
X142972500Y-65300000D01*
X142984022Y-65338478D02*
G75*
G03*
X147422500Y-63500000I1838478J1838478D01*
G01*
X142984022Y-61661522D02*
G75*
G02*
X147422500Y-63500000I1838478J-1838478D01*
G01*
%TO.C,R1*%
X142605839Y-115670000D02*
X142151711Y-115670000D01*
X142605839Y-114200000D02*
X142151711Y-114200000D01*
%TO.C,Q3*%
X170180000Y-70465000D02*
X166730000Y-70465000D01*
X170180000Y-75585000D02*
X172130000Y-75585000D01*
X170180000Y-70465000D02*
X172130000Y-70465000D01*
X170180000Y-75585000D02*
X168230000Y-75585000D01*
%TO.C,R3*%
X142605839Y-119280000D02*
X142151711Y-119280000D01*
X142605839Y-120750000D02*
X142151711Y-120750000D01*
%TO.C,D46*%
X183470000Y-63755000D02*
X176570000Y-63755000D01*
X183470000Y-67055000D02*
X183470000Y-63755000D01*
X183470000Y-67055000D02*
X176570000Y-67055000D01*
%TO.C,R44*%
X164327064Y-76735000D02*
X163872936Y-76735000D01*
X164327064Y-78205000D02*
X163872936Y-78205000D01*
%TO.C,R20*%
X164327064Y-123290000D02*
X163872936Y-123290000D01*
X164327064Y-121820000D02*
X163872936Y-121820000D01*
%TO.C,R61*%
X152946711Y-116740000D02*
X153400839Y-116740000D01*
X152946711Y-118210000D02*
X153400839Y-118210000D01*
%TO.C,R73*%
X149412936Y-73760000D02*
X149867064Y-73760000D01*
X149412936Y-72290000D02*
X149867064Y-72290000D01*
%TO.C,D47*%
X183470000Y-72135000D02*
X176570000Y-72135000D01*
X183470000Y-72135000D02*
X183470000Y-68835000D01*
X183470000Y-68835000D02*
X176570000Y-68835000D01*
%TO.C,R4*%
X142605839Y-121820000D02*
X142151711Y-121820000D01*
X142605839Y-123290000D02*
X142151711Y-123290000D01*
%TO.C,R51*%
X163872936Y-73125000D02*
X164327064Y-73125000D01*
X163872936Y-71655000D02*
X164327064Y-71655000D01*
%TO.C,R42*%
X164327064Y-66575000D02*
X163872936Y-66575000D01*
X164327064Y-68045000D02*
X163872936Y-68045000D01*
%TO.C,C6*%
X136566252Y-69315000D02*
X136043748Y-69315000D01*
X136566252Y-67845000D02*
X136043748Y-67845000D01*
%TO.C,R29*%
X163872936Y-126900000D02*
X164327064Y-126900000D01*
X163872936Y-128370000D02*
X164327064Y-128370000D01*
%TO.C,R40*%
X164327064Y-56415000D02*
X163872936Y-56415000D01*
X164327064Y-57885000D02*
X163872936Y-57885000D01*
%TO.C,C4*%
X133063752Y-102970000D02*
X132541248Y-102970000D01*
X133063752Y-101500000D02*
X132541248Y-101500000D01*
%TO.C,R66*%
X140977064Y-64235000D02*
X140522936Y-64235000D01*
X140977064Y-62765000D02*
X140522936Y-62765000D01*
%TO.C,Q1*%
X170180000Y-50145000D02*
X172130000Y-50145000D01*
X170180000Y-55265000D02*
X172130000Y-55265000D01*
X170180000Y-50145000D02*
X166730000Y-50145000D01*
X170180000Y-55265000D02*
X168230000Y-55265000D01*
%TO.C,Q5*%
X170180000Y-100350000D02*
X172130000Y-100350000D01*
X170180000Y-95230000D02*
X166730000Y-95230000D01*
X170180000Y-95230000D02*
X172130000Y-95230000D01*
X170180000Y-100350000D02*
X168230000Y-100350000D01*
%TO.C,R49*%
X163872936Y-61495000D02*
X164327064Y-61495000D01*
X163872936Y-62965000D02*
X164327064Y-62965000D01*
%TO.C,R30*%
X163872936Y-129440000D02*
X164327064Y-129440000D01*
X163872936Y-130910000D02*
X164327064Y-130910000D01*
%TO.C,R25*%
X163872936Y-106580000D02*
X164327064Y-106580000D01*
X163872936Y-108050000D02*
X164327064Y-108050000D01*
%TO.C,R41*%
X164327064Y-60425000D02*
X163872936Y-60425000D01*
X164327064Y-58955000D02*
X163872936Y-58955000D01*
%TO.C,J4*%
X139640000Y-78745000D02*
X139640000Y-88965000D01*
X142300000Y-78745000D02*
X142300000Y-88965000D01*
X139640000Y-78745000D02*
X142300000Y-78745000D01*
X139640000Y-76145000D02*
X140970000Y-76145000D01*
X139640000Y-77475000D02*
X139640000Y-76145000D01*
X139640000Y-88965000D02*
X142300000Y-88965000D01*
%TO.C,R54*%
X163872936Y-84355000D02*
X164327064Y-84355000D01*
X163872936Y-85825000D02*
X164327064Y-85825000D01*
%TO.C,D45*%
X183470000Y-61975000D02*
X183470000Y-58675000D01*
X183470000Y-58675000D02*
X176570000Y-58675000D01*
X183470000Y-61975000D02*
X176570000Y-61975000D01*
%TO.C,R43*%
X164327064Y-69115000D02*
X163872936Y-69115000D01*
X164327064Y-70585000D02*
X163872936Y-70585000D01*
%TO.C,R67*%
X149867064Y-63600000D02*
X149412936Y-63600000D01*
X149867064Y-62130000D02*
X149412936Y-62130000D01*
%TO.C,R15*%
X164327064Y-93880000D02*
X163872936Y-93880000D01*
X164327064Y-95350000D02*
X163872936Y-95350000D01*
%TO.C,C5*%
X136566252Y-61695000D02*
X136043748Y-61695000D01*
X136566252Y-60225000D02*
X136043748Y-60225000D01*
%TO.C,R59*%
X152946711Y-125830000D02*
X153400839Y-125830000D01*
X152946711Y-124360000D02*
X153400839Y-124360000D01*
%TO.C,R2*%
X142605839Y-116740000D02*
X142151711Y-116740000D01*
X142605839Y-118210000D02*
X142151711Y-118210000D01*
%TO.C,U3*%
X154940000Y-57765000D02*
X152990000Y-57765000D01*
X154940000Y-47645000D02*
X156890000Y-47645000D01*
X154940000Y-47645000D02*
X151440000Y-47645000D01*
X154940000Y-57765000D02*
X156890000Y-57765000D01*
%TO.C,R21*%
X164327064Y-125830000D02*
X163872936Y-125830000D01*
X164327064Y-124360000D02*
X163872936Y-124360000D01*
%TD*%
M02*
