%TF.GenerationSoftware,KiCad,Pcbnew,(5.99.0-9393-ga28cb98626)*%
%TF.CreationDate,2021-05-07T15:11:42-07:00*%
%TF.ProjectId,R_Switch,525f5377-6974-4636-982e-6b696361645f,B*%
%TF.SameCoordinates,Original*%
%TF.FileFunction,Legend,Bot*%
%TF.FilePolarity,Positive*%
%FSLAX46Y46*%
G04 Gerber Fmt 4.6, Leading zero omitted, Abs format (unit mm)*
G04 Created by KiCad (PCBNEW (5.99.0-9393-ga28cb98626)) date 2021-05-07 15:11:42*
%MOMM*%
%LPD*%
G01*
G04 APERTURE LIST*
%ADD10C,0.381000*%
%ADD11C,0.150000*%
%ADD12C,0.120000*%
G04 APERTURE END LIST*
D10*
X139464142Y-58964285D02*
X137178142Y-58964285D01*
X139464142Y-60052857D02*
X137178142Y-60052857D01*
X139464142Y-61359142D01*
X137178142Y-61359142D01*
X139464142Y-62447714D02*
X137178142Y-62447714D01*
X138266714Y-62447714D02*
X138266714Y-63754000D01*
X139464142Y-63754000D02*
X137178142Y-63754000D01*
X137178142Y-65169142D02*
X137722428Y-65169142D01*
X137504714Y-64624857D02*
X137722428Y-65169142D01*
X137504714Y-65713428D01*
X138157857Y-64842571D02*
X137722428Y-65169142D01*
X138157857Y-65495714D01*
D11*
X159328571Y-106327380D02*
X159661904Y-105851190D01*
X159900000Y-106327380D02*
X159900000Y-105327380D01*
X159519047Y-105327380D01*
X159423809Y-105375000D01*
X159376190Y-105422619D01*
X159328571Y-105517857D01*
X159328571Y-105660714D01*
X159376190Y-105755952D01*
X159423809Y-105803571D01*
X159519047Y-105851190D01*
X159900000Y-105851190D01*
X158757142Y-106327380D02*
X158852380Y-106279761D01*
X158900000Y-106232142D01*
X158947619Y-106136904D01*
X158947619Y-105851190D01*
X158900000Y-105755952D01*
X158852380Y-105708333D01*
X158757142Y-105660714D01*
X158614285Y-105660714D01*
X158519047Y-105708333D01*
X158471428Y-105755952D01*
X158423809Y-105851190D01*
X158423809Y-106136904D01*
X158471428Y-106232142D01*
X158519047Y-106279761D01*
X158614285Y-106327380D01*
X158757142Y-106327380D01*
X158138095Y-105660714D02*
X157757142Y-105660714D01*
X157995238Y-105327380D02*
X157995238Y-106184523D01*
X157947619Y-106279761D01*
X157852380Y-106327380D01*
X157757142Y-106327380D01*
X156995238Y-106327380D02*
X156995238Y-105803571D01*
X157042857Y-105708333D01*
X157138095Y-105660714D01*
X157328571Y-105660714D01*
X157423809Y-105708333D01*
X156995238Y-106279761D02*
X157090476Y-106327380D01*
X157328571Y-106327380D01*
X157423809Y-106279761D01*
X157471428Y-106184523D01*
X157471428Y-106089285D01*
X157423809Y-105994047D01*
X157328571Y-105946428D01*
X157090476Y-105946428D01*
X156995238Y-105898809D01*
X156519047Y-106327380D02*
X156519047Y-105660714D01*
X156519047Y-105851190D02*
X156471428Y-105755952D01*
X156423809Y-105708333D01*
X156328571Y-105660714D01*
X156233333Y-105660714D01*
X155995238Y-105660714D02*
X155757142Y-106327380D01*
X155519047Y-105660714D02*
X155757142Y-106327380D01*
X155852380Y-106565476D01*
X155900000Y-106613095D01*
X155995238Y-106660714D01*
X154423809Y-106279761D02*
X154280952Y-106327380D01*
X154042857Y-106327380D01*
X153947619Y-106279761D01*
X153900000Y-106232142D01*
X153852380Y-106136904D01*
X153852380Y-106041666D01*
X153900000Y-105946428D01*
X153947619Y-105898809D01*
X154042857Y-105851190D01*
X154233333Y-105803571D01*
X154328571Y-105755952D01*
X154376190Y-105708333D01*
X154423809Y-105613095D01*
X154423809Y-105517857D01*
X154376190Y-105422619D01*
X154328571Y-105375000D01*
X154233333Y-105327380D01*
X153995238Y-105327380D01*
X153852380Y-105375000D01*
X153519047Y-105660714D02*
X153328571Y-106327380D01*
X153138095Y-105851190D01*
X152947619Y-106327380D01*
X152757142Y-105660714D01*
X152376190Y-106327380D02*
X152376190Y-105660714D01*
X152376190Y-105327380D02*
X152423809Y-105375000D01*
X152376190Y-105422619D01*
X152328571Y-105375000D01*
X152376190Y-105327380D01*
X152376190Y-105422619D01*
X152042857Y-105660714D02*
X151661904Y-105660714D01*
X151900000Y-105327380D02*
X151900000Y-106184523D01*
X151852380Y-106279761D01*
X151757142Y-106327380D01*
X151661904Y-106327380D01*
X150900000Y-106279761D02*
X150995238Y-106327380D01*
X151185714Y-106327380D01*
X151280952Y-106279761D01*
X151328571Y-106232142D01*
X151376190Y-106136904D01*
X151376190Y-105851190D01*
X151328571Y-105755952D01*
X151280952Y-105708333D01*
X151185714Y-105660714D01*
X150995238Y-105660714D01*
X150900000Y-105708333D01*
X150471428Y-106327380D02*
X150471428Y-105327380D01*
X150042857Y-106327380D02*
X150042857Y-105803571D01*
X150090476Y-105708333D01*
X150185714Y-105660714D01*
X150328571Y-105660714D01*
X150423809Y-105708333D01*
X150471428Y-105755952D01*
X148233333Y-106327380D02*
X148566666Y-105851190D01*
X148804761Y-106327380D02*
X148804761Y-105327380D01*
X148423809Y-105327380D01*
X148328571Y-105375000D01*
X148280952Y-105422619D01*
X148233333Y-105517857D01*
X148233333Y-105660714D01*
X148280952Y-105755952D01*
X148328571Y-105803571D01*
X148423809Y-105851190D01*
X148804761Y-105851190D01*
X147423809Y-106279761D02*
X147519047Y-106327380D01*
X147709523Y-106327380D01*
X147804761Y-106279761D01*
X147852380Y-106184523D01*
X147852380Y-105803571D01*
X147804761Y-105708333D01*
X147709523Y-105660714D01*
X147519047Y-105660714D01*
X147423809Y-105708333D01*
X147376190Y-105803571D01*
X147376190Y-105898809D01*
X147852380Y-105994047D01*
X147042857Y-105660714D02*
X146804761Y-106327380D01*
X146566666Y-105660714D01*
X145090476Y-105803571D02*
X144947619Y-105851190D01*
X144900000Y-105898809D01*
X144852380Y-105994047D01*
X144852380Y-106136904D01*
X144900000Y-106232142D01*
X144947619Y-106279761D01*
X145042857Y-106327380D01*
X145423809Y-106327380D01*
X145423809Y-105327380D01*
X145090476Y-105327380D01*
X144995238Y-105375000D01*
X144947619Y-105422619D01*
X144900000Y-105517857D01*
X144900000Y-105613095D01*
X144947619Y-105708333D01*
X144995238Y-105755952D01*
X145090476Y-105803571D01*
X145423809Y-105803571D01*
X156400000Y-107937380D02*
X156400000Y-106937380D01*
X156161904Y-106937380D01*
X156019047Y-106985000D01*
X155923809Y-107080238D01*
X155876190Y-107175476D01*
X155828571Y-107365952D01*
X155828571Y-107508809D01*
X155876190Y-107699285D01*
X155923809Y-107794523D01*
X156019047Y-107889761D01*
X156161904Y-107937380D01*
X156400000Y-107937380D01*
X155400000Y-107937380D02*
X155400000Y-106937380D01*
X155066666Y-107651666D01*
X154733333Y-106937380D01*
X154733333Y-107937380D01*
X153923809Y-107413571D02*
X154257142Y-107413571D01*
X154257142Y-107937380D02*
X154257142Y-106937380D01*
X153780952Y-106937380D01*
X153400000Y-107413571D02*
X153066666Y-107413571D01*
X152923809Y-107937380D02*
X153400000Y-107937380D01*
X153400000Y-106937380D01*
X152923809Y-106937380D01*
X151780952Y-107032619D02*
X151733333Y-106985000D01*
X151638095Y-106937380D01*
X151400000Y-106937380D01*
X151304761Y-106985000D01*
X151257142Y-107032619D01*
X151209523Y-107127857D01*
X151209523Y-107223095D01*
X151257142Y-107365952D01*
X151828571Y-107937380D01*
X151209523Y-107937380D01*
X150590476Y-106937380D02*
X150495238Y-106937380D01*
X150400000Y-106985000D01*
X150352380Y-107032619D01*
X150304761Y-107127857D01*
X150257142Y-107318333D01*
X150257142Y-107556428D01*
X150304761Y-107746904D01*
X150352380Y-107842142D01*
X150400000Y-107889761D01*
X150495238Y-107937380D01*
X150590476Y-107937380D01*
X150685714Y-107889761D01*
X150733333Y-107842142D01*
X150780952Y-107746904D01*
X150828571Y-107556428D01*
X150828571Y-107318333D01*
X150780952Y-107127857D01*
X150733333Y-107032619D01*
X150685714Y-106985000D01*
X150590476Y-106937380D01*
X149876190Y-107032619D02*
X149828571Y-106985000D01*
X149733333Y-106937380D01*
X149495238Y-106937380D01*
X149400000Y-106985000D01*
X149352380Y-107032619D01*
X149304761Y-107127857D01*
X149304761Y-107223095D01*
X149352380Y-107365952D01*
X149923809Y-107937380D01*
X149304761Y-107937380D01*
X148352380Y-107937380D02*
X148923809Y-107937380D01*
X148638095Y-107937380D02*
X148638095Y-106937380D01*
X148733333Y-107080238D01*
X148828571Y-107175476D01*
X148923809Y-107223095D01*
X156637700Y-115110895D02*
X155875700Y-115110895D01*
X156790100Y-115568095D02*
X156256700Y-113967895D01*
X155723300Y-115568095D01*
X154885100Y-113967895D02*
X154732700Y-113967895D01*
X154580300Y-114044095D01*
X154504100Y-114120295D01*
X154427900Y-114272695D01*
X154351700Y-114577495D01*
X154351700Y-114958495D01*
X154427900Y-115263295D01*
X154504100Y-115415695D01*
X154580300Y-115491895D01*
X154732700Y-115568095D01*
X154885100Y-115568095D01*
X155037500Y-115491895D01*
X155113700Y-115415695D01*
X155189900Y-115263295D01*
X155266100Y-114958495D01*
X155266100Y-114577495D01*
X155189900Y-114272695D01*
X155113700Y-114120295D01*
X155037500Y-114044095D01*
X154885100Y-113967895D01*
X151532300Y-115415695D02*
X151608500Y-115491895D01*
X151837100Y-115568095D01*
X151989500Y-115568095D01*
X152218100Y-115491895D01*
X152370500Y-115339495D01*
X152446700Y-115187095D01*
X152522900Y-114882295D01*
X152522900Y-114653695D01*
X152446700Y-114348895D01*
X152370500Y-114196495D01*
X152218100Y-114044095D01*
X151989500Y-113967895D01*
X151837100Y-113967895D01*
X151608500Y-114044095D01*
X151532300Y-114120295D01*
X156637700Y-117687217D02*
X155875700Y-117687217D01*
X156790100Y-118144417D02*
X156256700Y-116544217D01*
X155723300Y-118144417D01*
X154351700Y-118144417D02*
X155266100Y-118144417D01*
X154808900Y-118144417D02*
X154808900Y-116544217D01*
X154961300Y-116772817D01*
X155113700Y-116925217D01*
X155266100Y-117001417D01*
X151532300Y-117992017D02*
X151608500Y-118068217D01*
X151837100Y-118144417D01*
X151989500Y-118144417D01*
X152218100Y-118068217D01*
X152370500Y-117915817D01*
X152446700Y-117763417D01*
X152522900Y-117458617D01*
X152522900Y-117230017D01*
X152446700Y-116925217D01*
X152370500Y-116772817D01*
X152218100Y-116620417D01*
X151989500Y-116544217D01*
X151837100Y-116544217D01*
X151608500Y-116620417D01*
X151532300Y-116696617D01*
X156637700Y-120263539D02*
X155875700Y-120263539D01*
X156790100Y-120720739D02*
X156256700Y-119120539D01*
X155723300Y-120720739D01*
X155266100Y-119272939D02*
X155189900Y-119196739D01*
X155037500Y-119120539D01*
X154656500Y-119120539D01*
X154504100Y-119196739D01*
X154427900Y-119272939D01*
X154351700Y-119425339D01*
X154351700Y-119577739D01*
X154427900Y-119806339D01*
X155342300Y-120720739D01*
X154351700Y-120720739D01*
X151532300Y-120568339D02*
X151608500Y-120644539D01*
X151837100Y-120720739D01*
X151989500Y-120720739D01*
X152218100Y-120644539D01*
X152370500Y-120492139D01*
X152446700Y-120339739D01*
X152522900Y-120034939D01*
X152522900Y-119806339D01*
X152446700Y-119501539D01*
X152370500Y-119349139D01*
X152218100Y-119196739D01*
X151989500Y-119120539D01*
X151837100Y-119120539D01*
X151608500Y-119196739D01*
X151532300Y-119272939D01*
X156637700Y-122839861D02*
X155875700Y-122839861D01*
X156790100Y-123297061D02*
X156256700Y-121696861D01*
X155723300Y-123297061D01*
X155342300Y-121696861D02*
X154351700Y-121696861D01*
X154885100Y-122306461D01*
X154656500Y-122306461D01*
X154504100Y-122382661D01*
X154427900Y-122458861D01*
X154351700Y-122611261D01*
X154351700Y-122992261D01*
X154427900Y-123144661D01*
X154504100Y-123220861D01*
X154656500Y-123297061D01*
X155113700Y-123297061D01*
X155266100Y-123220861D01*
X155342300Y-123144661D01*
X151532300Y-123144661D02*
X151608500Y-123220861D01*
X151837100Y-123297061D01*
X151989500Y-123297061D01*
X152218100Y-123220861D01*
X152370500Y-123068461D01*
X152446700Y-122916061D01*
X152522900Y-122611261D01*
X152522900Y-122382661D01*
X152446700Y-122077861D01*
X152370500Y-121925461D01*
X152218100Y-121773061D01*
X151989500Y-121696861D01*
X151837100Y-121696861D01*
X151608500Y-121773061D01*
X151532300Y-121849261D01*
X158009300Y-125035183D02*
X157475900Y-125035183D01*
X157247300Y-125873383D02*
X158009300Y-125873383D01*
X158009300Y-124273183D01*
X157247300Y-124273183D01*
X156561500Y-124806583D02*
X156561500Y-125873383D01*
X156561500Y-124958983D02*
X156485300Y-124882783D01*
X156332900Y-124806583D01*
X156104300Y-124806583D01*
X155951900Y-124882783D01*
X155875700Y-125035183D01*
X155875700Y-125873383D01*
X154427900Y-125873383D02*
X154427900Y-125035183D01*
X154504100Y-124882783D01*
X154656500Y-124806583D01*
X154961300Y-124806583D01*
X155113700Y-124882783D01*
X154427900Y-125797183D02*
X154580300Y-125873383D01*
X154961300Y-125873383D01*
X155113700Y-125797183D01*
X155189900Y-125644783D01*
X155189900Y-125492383D01*
X155113700Y-125339983D01*
X154961300Y-125263783D01*
X154580300Y-125263783D01*
X154427900Y-125187583D01*
X151532300Y-125720983D02*
X151608500Y-125797183D01*
X151837100Y-125873383D01*
X151989500Y-125873383D01*
X152218100Y-125797183D01*
X152370500Y-125644783D01*
X152446700Y-125492383D01*
X152522900Y-125187583D01*
X152522900Y-124958983D01*
X152446700Y-124654183D01*
X152370500Y-124501783D01*
X152218100Y-124349383D01*
X151989500Y-124273183D01*
X151837100Y-124273183D01*
X151608500Y-124349383D01*
X151532300Y-124425583D01*
X157780700Y-128297305D02*
X157856900Y-128373505D01*
X158085500Y-128449705D01*
X158237900Y-128449705D01*
X158466500Y-128373505D01*
X158618900Y-128221105D01*
X158695100Y-128068705D01*
X158771300Y-127763905D01*
X158771300Y-127535305D01*
X158695100Y-127230505D01*
X158618900Y-127078105D01*
X158466500Y-126925705D01*
X158237900Y-126849505D01*
X158085500Y-126849505D01*
X157856900Y-126925705D01*
X157780700Y-127001905D01*
X156866300Y-128449705D02*
X157018700Y-128373505D01*
X157094900Y-128297305D01*
X157171100Y-128144905D01*
X157171100Y-127687705D01*
X157094900Y-127535305D01*
X157018700Y-127459105D01*
X156866300Y-127382905D01*
X156637700Y-127382905D01*
X156485300Y-127459105D01*
X156409100Y-127535305D01*
X156332900Y-127687705D01*
X156332900Y-128144905D01*
X156409100Y-128297305D01*
X156485300Y-128373505D01*
X156637700Y-128449705D01*
X156866300Y-128449705D01*
X155647100Y-128449705D02*
X155647100Y-127382905D01*
X155647100Y-127535305D02*
X155570900Y-127459105D01*
X155418500Y-127382905D01*
X155189900Y-127382905D01*
X155037500Y-127459105D01*
X154961300Y-127611505D01*
X154961300Y-128449705D01*
X154961300Y-127611505D02*
X154885100Y-127459105D01*
X154732700Y-127382905D01*
X154504100Y-127382905D01*
X154351700Y-127459105D01*
X154275500Y-127611505D01*
X154275500Y-128449705D01*
X152294300Y-127611505D02*
X151760900Y-127611505D01*
X151532300Y-128449705D02*
X152294300Y-128449705D01*
X152294300Y-126849505D01*
X151532300Y-126849505D01*
D10*
X139917714Y-95413285D02*
X138176000Y-95413285D01*
X139046857Y-96284142D02*
X139046857Y-94542428D01*
X135890000Y-96284142D02*
X137196285Y-96284142D01*
X136543142Y-96284142D02*
X136543142Y-93998142D01*
X136760857Y-94324714D01*
X136978571Y-94542428D01*
X137196285Y-94651285D01*
X135019142Y-94215857D02*
X134910285Y-94107000D01*
X134692571Y-93998142D01*
X134148285Y-93998142D01*
X133930571Y-94107000D01*
X133821714Y-94215857D01*
X133712857Y-94433571D01*
X133712857Y-94651285D01*
X133821714Y-94977857D01*
X135128000Y-96284142D01*
X133712857Y-96284142D01*
X133059714Y-93998142D02*
X132297714Y-96284142D01*
X131535714Y-93998142D01*
X133186714Y-59671857D02*
X133186714Y-60433857D01*
X134384142Y-60760428D02*
X134384142Y-59671857D01*
X132098142Y-59671857D01*
X132098142Y-60760428D01*
X134384142Y-61740142D02*
X132098142Y-61740142D01*
X134384142Y-63046428D01*
X132098142Y-63046428D01*
X132098142Y-64461571D02*
X132642428Y-64461571D01*
X132424714Y-63917285D02*
X132642428Y-64461571D01*
X132424714Y-65005857D01*
X133077857Y-64135000D02*
X132642428Y-64461571D01*
X133077857Y-64788142D01*
X137631714Y-99187000D02*
X137849428Y-99078142D01*
X138176000Y-99078142D01*
X138502571Y-99187000D01*
X138720285Y-99404714D01*
X138829142Y-99622428D01*
X138938000Y-100057857D01*
X138938000Y-100384428D01*
X138829142Y-100819857D01*
X138720285Y-101037571D01*
X138502571Y-101255285D01*
X138176000Y-101364142D01*
X137958285Y-101364142D01*
X137631714Y-101255285D01*
X137522857Y-101146428D01*
X137522857Y-100384428D01*
X137958285Y-100384428D01*
X136543142Y-101364142D02*
X136543142Y-99078142D01*
X135236857Y-101364142D01*
X135236857Y-99078142D01*
X134148285Y-101364142D02*
X134148285Y-99078142D01*
X133604000Y-99078142D01*
X133277428Y-99187000D01*
X133059714Y-99404714D01*
X132950857Y-99622428D01*
X132842000Y-100057857D01*
X132842000Y-100384428D01*
X132950857Y-100819857D01*
X133059714Y-101037571D01*
X133277428Y-101255285D01*
X133604000Y-101364142D01*
X134148285Y-101364142D01*
X140081000Y-106444142D02*
X140081000Y-104158142D01*
X139210142Y-104158142D01*
X138992428Y-104267000D01*
X138883571Y-104375857D01*
X138774714Y-104593571D01*
X138774714Y-104920142D01*
X138883571Y-105137857D01*
X138992428Y-105246714D01*
X139210142Y-105355571D01*
X140081000Y-105355571D01*
X137033000Y-105246714D02*
X136706428Y-105355571D01*
X136597571Y-105464428D01*
X136488714Y-105682142D01*
X136488714Y-106008714D01*
X136597571Y-106226428D01*
X136706428Y-106335285D01*
X136924142Y-106444142D01*
X137795000Y-106444142D01*
X137795000Y-104158142D01*
X137033000Y-104158142D01*
X136815285Y-104267000D01*
X136706428Y-104375857D01*
X136597571Y-104593571D01*
X136597571Y-104811285D01*
X136706428Y-105029000D01*
X136815285Y-105137857D01*
X137033000Y-105246714D01*
X137795000Y-105246714D01*
X133767285Y-106444142D02*
X133767285Y-104158142D01*
X132678714Y-104920142D02*
X132678714Y-106444142D01*
X132678714Y-105137857D02*
X132569857Y-105029000D01*
X132352142Y-104920142D01*
X132025571Y-104920142D01*
X131807857Y-105029000D01*
X131699000Y-105246714D01*
X131699000Y-106444142D01*
X138774714Y-111524142D02*
X139863285Y-111524142D01*
X139863285Y-109238142D01*
X138012714Y-110326714D02*
X137250714Y-110326714D01*
X136924142Y-111524142D02*
X138012714Y-111524142D01*
X138012714Y-109238142D01*
X136924142Y-109238142D01*
X135944428Y-111524142D02*
X135944428Y-109238142D01*
X135400142Y-109238142D01*
X135073571Y-109347000D01*
X134855857Y-109564714D01*
X134747000Y-109782428D01*
X134638142Y-110217857D01*
X134638142Y-110544428D01*
X134747000Y-110979857D01*
X134855857Y-111197571D01*
X135073571Y-111415285D01*
X135400142Y-111524142D01*
X135944428Y-111524142D01*
X133658428Y-110653285D02*
X131916714Y-110653285D01*
D11*
%TO.C,D11*%
X179649285Y-97607380D02*
X179649285Y-96607380D01*
X179411190Y-96607380D01*
X179268333Y-96655000D01*
X179173095Y-96750238D01*
X179125476Y-96845476D01*
X179077857Y-97035952D01*
X179077857Y-97178809D01*
X179125476Y-97369285D01*
X179173095Y-97464523D01*
X179268333Y-97559761D01*
X179411190Y-97607380D01*
X179649285Y-97607380D01*
X178125476Y-97607380D02*
X178696904Y-97607380D01*
X178411190Y-97607380D02*
X178411190Y-96607380D01*
X178506428Y-96750238D01*
X178601666Y-96845476D01*
X178696904Y-96893095D01*
X177173095Y-97607380D02*
X177744523Y-97607380D01*
X177458809Y-97607380D02*
X177458809Y-96607380D01*
X177554047Y-96750238D01*
X177649285Y-96845476D01*
X177744523Y-96893095D01*
%TO.C,D2*%
X149963095Y-78642380D02*
X149963095Y-77642380D01*
X149725000Y-77642380D01*
X149582142Y-77690000D01*
X149486904Y-77785238D01*
X149439285Y-77880476D01*
X149391666Y-78070952D01*
X149391666Y-78213809D01*
X149439285Y-78404285D01*
X149486904Y-78499523D01*
X149582142Y-78594761D01*
X149725000Y-78642380D01*
X149963095Y-78642380D01*
X149010714Y-77737619D02*
X148963095Y-77690000D01*
X148867857Y-77642380D01*
X148629761Y-77642380D01*
X148534523Y-77690000D01*
X148486904Y-77737619D01*
X148439285Y-77832857D01*
X148439285Y-77928095D01*
X148486904Y-78070952D01*
X149058333Y-78642380D01*
X148439285Y-78642380D01*
%TO.C,D28*%
X173934285Y-53877380D02*
X173934285Y-52877380D01*
X173696190Y-52877380D01*
X173553333Y-52925000D01*
X173458095Y-53020238D01*
X173410476Y-53115476D01*
X173362857Y-53305952D01*
X173362857Y-53448809D01*
X173410476Y-53639285D01*
X173458095Y-53734523D01*
X173553333Y-53829761D01*
X173696190Y-53877380D01*
X173934285Y-53877380D01*
X172981904Y-52972619D02*
X172934285Y-52925000D01*
X172839047Y-52877380D01*
X172600952Y-52877380D01*
X172505714Y-52925000D01*
X172458095Y-52972619D01*
X172410476Y-53067857D01*
X172410476Y-53163095D01*
X172458095Y-53305952D01*
X173029523Y-53877380D01*
X172410476Y-53877380D01*
X171839047Y-53305952D02*
X171934285Y-53258333D01*
X171981904Y-53210714D01*
X172029523Y-53115476D01*
X172029523Y-53067857D01*
X171981904Y-52972619D01*
X171934285Y-52925000D01*
X171839047Y-52877380D01*
X171648571Y-52877380D01*
X171553333Y-52925000D01*
X171505714Y-52972619D01*
X171458095Y-53067857D01*
X171458095Y-53115476D01*
X171505714Y-53210714D01*
X171553333Y-53258333D01*
X171648571Y-53305952D01*
X171839047Y-53305952D01*
X171934285Y-53353571D01*
X171981904Y-53401190D01*
X172029523Y-53496428D01*
X172029523Y-53686904D01*
X171981904Y-53782142D01*
X171934285Y-53829761D01*
X171839047Y-53877380D01*
X171648571Y-53877380D01*
X171553333Y-53829761D01*
X171505714Y-53782142D01*
X171458095Y-53686904D01*
X171458095Y-53496428D01*
X171505714Y-53401190D01*
X171553333Y-53353571D01*
X171648571Y-53305952D01*
%TO.C,R10*%
X168282857Y-109292380D02*
X168616190Y-108816190D01*
X168854285Y-109292380D02*
X168854285Y-108292380D01*
X168473333Y-108292380D01*
X168378095Y-108340000D01*
X168330476Y-108387619D01*
X168282857Y-108482857D01*
X168282857Y-108625714D01*
X168330476Y-108720952D01*
X168378095Y-108768571D01*
X168473333Y-108816190D01*
X168854285Y-108816190D01*
X167330476Y-109292380D02*
X167901904Y-109292380D01*
X167616190Y-109292380D02*
X167616190Y-108292380D01*
X167711428Y-108435238D01*
X167806666Y-108530476D01*
X167901904Y-108578095D01*
X166711428Y-108292380D02*
X166616190Y-108292380D01*
X166520952Y-108340000D01*
X166473333Y-108387619D01*
X166425714Y-108482857D01*
X166378095Y-108673333D01*
X166378095Y-108911428D01*
X166425714Y-109101904D01*
X166473333Y-109197142D01*
X166520952Y-109244761D01*
X166616190Y-109292380D01*
X166711428Y-109292380D01*
X166806666Y-109244761D01*
X166854285Y-109197142D01*
X166901904Y-109101904D01*
X166949523Y-108911428D01*
X166949523Y-108673333D01*
X166901904Y-108482857D01*
X166854285Y-108387619D01*
X166806666Y-108340000D01*
X166711428Y-108292380D01*
%TO.C,D32*%
X173934285Y-74197380D02*
X173934285Y-73197380D01*
X173696190Y-73197380D01*
X173553333Y-73245000D01*
X173458095Y-73340238D01*
X173410476Y-73435476D01*
X173362857Y-73625952D01*
X173362857Y-73768809D01*
X173410476Y-73959285D01*
X173458095Y-74054523D01*
X173553333Y-74149761D01*
X173696190Y-74197380D01*
X173934285Y-74197380D01*
X173029523Y-73197380D02*
X172410476Y-73197380D01*
X172743809Y-73578333D01*
X172600952Y-73578333D01*
X172505714Y-73625952D01*
X172458095Y-73673571D01*
X172410476Y-73768809D01*
X172410476Y-74006904D01*
X172458095Y-74102142D01*
X172505714Y-74149761D01*
X172600952Y-74197380D01*
X172886666Y-74197380D01*
X172981904Y-74149761D01*
X173029523Y-74102142D01*
X172029523Y-73292619D02*
X171981904Y-73245000D01*
X171886666Y-73197380D01*
X171648571Y-73197380D01*
X171553333Y-73245000D01*
X171505714Y-73292619D01*
X171458095Y-73387857D01*
X171458095Y-73483095D01*
X171505714Y-73625952D01*
X172077142Y-74197380D01*
X171458095Y-74197380D01*
%TO.C,R32*%
X168282857Y-54047380D02*
X168616190Y-53571190D01*
X168854285Y-54047380D02*
X168854285Y-53047380D01*
X168473333Y-53047380D01*
X168378095Y-53095000D01*
X168330476Y-53142619D01*
X168282857Y-53237857D01*
X168282857Y-53380714D01*
X168330476Y-53475952D01*
X168378095Y-53523571D01*
X168473333Y-53571190D01*
X168854285Y-53571190D01*
X167949523Y-53047380D02*
X167330476Y-53047380D01*
X167663809Y-53428333D01*
X167520952Y-53428333D01*
X167425714Y-53475952D01*
X167378095Y-53523571D01*
X167330476Y-53618809D01*
X167330476Y-53856904D01*
X167378095Y-53952142D01*
X167425714Y-53999761D01*
X167520952Y-54047380D01*
X167806666Y-54047380D01*
X167901904Y-53999761D01*
X167949523Y-53952142D01*
X166949523Y-53142619D02*
X166901904Y-53095000D01*
X166806666Y-53047380D01*
X166568571Y-53047380D01*
X166473333Y-53095000D01*
X166425714Y-53142619D01*
X166378095Y-53237857D01*
X166378095Y-53333095D01*
X166425714Y-53475952D01*
X166997142Y-54047380D01*
X166378095Y-54047380D01*
%TO.C,R37*%
X168282857Y-79447380D02*
X168616190Y-78971190D01*
X168854285Y-79447380D02*
X168854285Y-78447380D01*
X168473333Y-78447380D01*
X168378095Y-78495000D01*
X168330476Y-78542619D01*
X168282857Y-78637857D01*
X168282857Y-78780714D01*
X168330476Y-78875952D01*
X168378095Y-78923571D01*
X168473333Y-78971190D01*
X168854285Y-78971190D01*
X167949523Y-78447380D02*
X167330476Y-78447380D01*
X167663809Y-78828333D01*
X167520952Y-78828333D01*
X167425714Y-78875952D01*
X167378095Y-78923571D01*
X167330476Y-79018809D01*
X167330476Y-79256904D01*
X167378095Y-79352142D01*
X167425714Y-79399761D01*
X167520952Y-79447380D01*
X167806666Y-79447380D01*
X167901904Y-79399761D01*
X167949523Y-79352142D01*
X166997142Y-78447380D02*
X166330476Y-78447380D01*
X166759047Y-79447380D01*
%TO.C,R33*%
X168282857Y-59127380D02*
X168616190Y-58651190D01*
X168854285Y-59127380D02*
X168854285Y-58127380D01*
X168473333Y-58127380D01*
X168378095Y-58175000D01*
X168330476Y-58222619D01*
X168282857Y-58317857D01*
X168282857Y-58460714D01*
X168330476Y-58555952D01*
X168378095Y-58603571D01*
X168473333Y-58651190D01*
X168854285Y-58651190D01*
X167949523Y-58127380D02*
X167330476Y-58127380D01*
X167663809Y-58508333D01*
X167520952Y-58508333D01*
X167425714Y-58555952D01*
X167378095Y-58603571D01*
X167330476Y-58698809D01*
X167330476Y-58936904D01*
X167378095Y-59032142D01*
X167425714Y-59079761D01*
X167520952Y-59127380D01*
X167806666Y-59127380D01*
X167901904Y-59079761D01*
X167949523Y-59032142D01*
X166997142Y-58127380D02*
X166378095Y-58127380D01*
X166711428Y-58508333D01*
X166568571Y-58508333D01*
X166473333Y-58555952D01*
X166425714Y-58603571D01*
X166378095Y-58698809D01*
X166378095Y-58936904D01*
X166425714Y-59032142D01*
X166473333Y-59079761D01*
X166568571Y-59127380D01*
X166854285Y-59127380D01*
X166949523Y-59079761D01*
X166997142Y-59032142D01*
%TO.C,D35*%
X179014285Y-52522380D02*
X179014285Y-51522380D01*
X178776190Y-51522380D01*
X178633333Y-51570000D01*
X178538095Y-51665238D01*
X178490476Y-51760476D01*
X178442857Y-51950952D01*
X178442857Y-52093809D01*
X178490476Y-52284285D01*
X178538095Y-52379523D01*
X178633333Y-52474761D01*
X178776190Y-52522380D01*
X179014285Y-52522380D01*
X178109523Y-51522380D02*
X177490476Y-51522380D01*
X177823809Y-51903333D01*
X177680952Y-51903333D01*
X177585714Y-51950952D01*
X177538095Y-51998571D01*
X177490476Y-52093809D01*
X177490476Y-52331904D01*
X177538095Y-52427142D01*
X177585714Y-52474761D01*
X177680952Y-52522380D01*
X177966666Y-52522380D01*
X178061904Y-52474761D01*
X178109523Y-52427142D01*
X176585714Y-51522380D02*
X177061904Y-51522380D01*
X177109523Y-51998571D01*
X177061904Y-51950952D01*
X176966666Y-51903333D01*
X176728571Y-51903333D01*
X176633333Y-51950952D01*
X176585714Y-51998571D01*
X176538095Y-52093809D01*
X176538095Y-52331904D01*
X176585714Y-52427142D01*
X176633333Y-52474761D01*
X176728571Y-52522380D01*
X176966666Y-52522380D01*
X177061904Y-52474761D01*
X177109523Y-52427142D01*
%TO.C,D41*%
X179649285Y-79097380D02*
X179649285Y-78097380D01*
X179411190Y-78097380D01*
X179268333Y-78145000D01*
X179173095Y-78240238D01*
X179125476Y-78335476D01*
X179077857Y-78525952D01*
X179077857Y-78668809D01*
X179125476Y-78859285D01*
X179173095Y-78954523D01*
X179268333Y-79049761D01*
X179411190Y-79097380D01*
X179649285Y-79097380D01*
X178220714Y-78430714D02*
X178220714Y-79097380D01*
X178458809Y-78049761D02*
X178696904Y-78764047D01*
X178077857Y-78764047D01*
X177173095Y-79097380D02*
X177744523Y-79097380D01*
X177458809Y-79097380D02*
X177458809Y-78097380D01*
X177554047Y-78240238D01*
X177649285Y-78335476D01*
X177744523Y-78383095D01*
%TO.C,D29*%
X173934285Y-58957380D02*
X173934285Y-57957380D01*
X173696190Y-57957380D01*
X173553333Y-58005000D01*
X173458095Y-58100238D01*
X173410476Y-58195476D01*
X173362857Y-58385952D01*
X173362857Y-58528809D01*
X173410476Y-58719285D01*
X173458095Y-58814523D01*
X173553333Y-58909761D01*
X173696190Y-58957380D01*
X173934285Y-58957380D01*
X172981904Y-58052619D02*
X172934285Y-58005000D01*
X172839047Y-57957380D01*
X172600952Y-57957380D01*
X172505714Y-58005000D01*
X172458095Y-58052619D01*
X172410476Y-58147857D01*
X172410476Y-58243095D01*
X172458095Y-58385952D01*
X173029523Y-58957380D01*
X172410476Y-58957380D01*
X171934285Y-58957380D02*
X171743809Y-58957380D01*
X171648571Y-58909761D01*
X171600952Y-58862142D01*
X171505714Y-58719285D01*
X171458095Y-58528809D01*
X171458095Y-58147857D01*
X171505714Y-58052619D01*
X171553333Y-58005000D01*
X171648571Y-57957380D01*
X171839047Y-57957380D01*
X171934285Y-58005000D01*
X171981904Y-58052619D01*
X172029523Y-58147857D01*
X172029523Y-58385952D01*
X171981904Y-58481190D01*
X171934285Y-58528809D01*
X171839047Y-58576428D01*
X171648571Y-58576428D01*
X171553333Y-58528809D01*
X171505714Y-58481190D01*
X171458095Y-58385952D01*
%TO.C,D6*%
X173458095Y-109122380D02*
X173458095Y-108122380D01*
X173220000Y-108122380D01*
X173077142Y-108170000D01*
X172981904Y-108265238D01*
X172934285Y-108360476D01*
X172886666Y-108550952D01*
X172886666Y-108693809D01*
X172934285Y-108884285D01*
X172981904Y-108979523D01*
X173077142Y-109074761D01*
X173220000Y-109122380D01*
X173458095Y-109122380D01*
X172029523Y-108122380D02*
X172220000Y-108122380D01*
X172315238Y-108170000D01*
X172362857Y-108217619D01*
X172458095Y-108360476D01*
X172505714Y-108550952D01*
X172505714Y-108931904D01*
X172458095Y-109027142D01*
X172410476Y-109074761D01*
X172315238Y-109122380D01*
X172124761Y-109122380D01*
X172029523Y-109074761D01*
X171981904Y-109027142D01*
X171934285Y-108931904D01*
X171934285Y-108693809D01*
X171981904Y-108598571D01*
X172029523Y-108550952D01*
X172124761Y-108503333D01*
X172315238Y-108503333D01*
X172410476Y-108550952D01*
X172458095Y-108598571D01*
X172505714Y-108693809D01*
%TO.C,R38*%
X168282857Y-84527380D02*
X168616190Y-84051190D01*
X168854285Y-84527380D02*
X168854285Y-83527380D01*
X168473333Y-83527380D01*
X168378095Y-83575000D01*
X168330476Y-83622619D01*
X168282857Y-83717857D01*
X168282857Y-83860714D01*
X168330476Y-83955952D01*
X168378095Y-84003571D01*
X168473333Y-84051190D01*
X168854285Y-84051190D01*
X167949523Y-83527380D02*
X167330476Y-83527380D01*
X167663809Y-83908333D01*
X167520952Y-83908333D01*
X167425714Y-83955952D01*
X167378095Y-84003571D01*
X167330476Y-84098809D01*
X167330476Y-84336904D01*
X167378095Y-84432142D01*
X167425714Y-84479761D01*
X167520952Y-84527380D01*
X167806666Y-84527380D01*
X167901904Y-84479761D01*
X167949523Y-84432142D01*
X166759047Y-83955952D02*
X166854285Y-83908333D01*
X166901904Y-83860714D01*
X166949523Y-83765476D01*
X166949523Y-83717857D01*
X166901904Y-83622619D01*
X166854285Y-83575000D01*
X166759047Y-83527380D01*
X166568571Y-83527380D01*
X166473333Y-83575000D01*
X166425714Y-83622619D01*
X166378095Y-83717857D01*
X166378095Y-83765476D01*
X166425714Y-83860714D01*
X166473333Y-83908333D01*
X166568571Y-83955952D01*
X166759047Y-83955952D01*
X166854285Y-84003571D01*
X166901904Y-84051190D01*
X166949523Y-84146428D01*
X166949523Y-84336904D01*
X166901904Y-84432142D01*
X166854285Y-84479761D01*
X166759047Y-84527380D01*
X166568571Y-84527380D01*
X166473333Y-84479761D01*
X166425714Y-84432142D01*
X166378095Y-84336904D01*
X166378095Y-84146428D01*
X166425714Y-84051190D01*
X166473333Y-84003571D01*
X166568571Y-83955952D01*
%TO.C,D5*%
X173458095Y-104042380D02*
X173458095Y-103042380D01*
X173220000Y-103042380D01*
X173077142Y-103090000D01*
X172981904Y-103185238D01*
X172934285Y-103280476D01*
X172886666Y-103470952D01*
X172886666Y-103613809D01*
X172934285Y-103804285D01*
X172981904Y-103899523D01*
X173077142Y-103994761D01*
X173220000Y-104042380D01*
X173458095Y-104042380D01*
X171981904Y-103042380D02*
X172458095Y-103042380D01*
X172505714Y-103518571D01*
X172458095Y-103470952D01*
X172362857Y-103423333D01*
X172124761Y-103423333D01*
X172029523Y-103470952D01*
X171981904Y-103518571D01*
X171934285Y-103613809D01*
X171934285Y-103851904D01*
X171981904Y-103947142D01*
X172029523Y-103994761D01*
X172124761Y-104042380D01*
X172362857Y-104042380D01*
X172458095Y-103994761D01*
X172505714Y-103947142D01*
%TO.C,R8*%
X167806666Y-99132380D02*
X168140000Y-98656190D01*
X168378095Y-99132380D02*
X168378095Y-98132380D01*
X167997142Y-98132380D01*
X167901904Y-98180000D01*
X167854285Y-98227619D01*
X167806666Y-98322857D01*
X167806666Y-98465714D01*
X167854285Y-98560952D01*
X167901904Y-98608571D01*
X167997142Y-98656190D01*
X168378095Y-98656190D01*
X167235238Y-98560952D02*
X167330476Y-98513333D01*
X167378095Y-98465714D01*
X167425714Y-98370476D01*
X167425714Y-98322857D01*
X167378095Y-98227619D01*
X167330476Y-98180000D01*
X167235238Y-98132380D01*
X167044761Y-98132380D01*
X166949523Y-98180000D01*
X166901904Y-98227619D01*
X166854285Y-98322857D01*
X166854285Y-98370476D01*
X166901904Y-98465714D01*
X166949523Y-98513333D01*
X167044761Y-98560952D01*
X167235238Y-98560952D01*
X167330476Y-98608571D01*
X167378095Y-98656190D01*
X167425714Y-98751428D01*
X167425714Y-98941904D01*
X167378095Y-99037142D01*
X167330476Y-99084761D01*
X167235238Y-99132380D01*
X167044761Y-99132380D01*
X166949523Y-99084761D01*
X166901904Y-99037142D01*
X166854285Y-98941904D01*
X166854285Y-98751428D01*
X166901904Y-98656190D01*
X166949523Y-98608571D01*
X167044761Y-98560952D01*
%TO.C,D14*%
X179649285Y-108942380D02*
X179649285Y-107942380D01*
X179411190Y-107942380D01*
X179268333Y-107990000D01*
X179173095Y-108085238D01*
X179125476Y-108180476D01*
X179077857Y-108370952D01*
X179077857Y-108513809D01*
X179125476Y-108704285D01*
X179173095Y-108799523D01*
X179268333Y-108894761D01*
X179411190Y-108942380D01*
X179649285Y-108942380D01*
X178125476Y-108942380D02*
X178696904Y-108942380D01*
X178411190Y-108942380D02*
X178411190Y-107942380D01*
X178506428Y-108085238D01*
X178601666Y-108180476D01*
X178696904Y-108228095D01*
X177268333Y-108275714D02*
X177268333Y-108942380D01*
X177506428Y-107894761D02*
X177744523Y-108609047D01*
X177125476Y-108609047D01*
%TO.C,R35*%
X168282857Y-69287380D02*
X168616190Y-68811190D01*
X168854285Y-69287380D02*
X168854285Y-68287380D01*
X168473333Y-68287380D01*
X168378095Y-68335000D01*
X168330476Y-68382619D01*
X168282857Y-68477857D01*
X168282857Y-68620714D01*
X168330476Y-68715952D01*
X168378095Y-68763571D01*
X168473333Y-68811190D01*
X168854285Y-68811190D01*
X167949523Y-68287380D02*
X167330476Y-68287380D01*
X167663809Y-68668333D01*
X167520952Y-68668333D01*
X167425714Y-68715952D01*
X167378095Y-68763571D01*
X167330476Y-68858809D01*
X167330476Y-69096904D01*
X167378095Y-69192142D01*
X167425714Y-69239761D01*
X167520952Y-69287380D01*
X167806666Y-69287380D01*
X167901904Y-69239761D01*
X167949523Y-69192142D01*
X166425714Y-68287380D02*
X166901904Y-68287380D01*
X166949523Y-68763571D01*
X166901904Y-68715952D01*
X166806666Y-68668333D01*
X166568571Y-68668333D01*
X166473333Y-68715952D01*
X166425714Y-68763571D01*
X166378095Y-68858809D01*
X166378095Y-69096904D01*
X166425714Y-69192142D01*
X166473333Y-69239761D01*
X166568571Y-69287380D01*
X166806666Y-69287380D01*
X166901904Y-69239761D01*
X166949523Y-69192142D01*
%TO.C,R13*%
X168282857Y-124532380D02*
X168616190Y-124056190D01*
X168854285Y-124532380D02*
X168854285Y-123532380D01*
X168473333Y-123532380D01*
X168378095Y-123580000D01*
X168330476Y-123627619D01*
X168282857Y-123722857D01*
X168282857Y-123865714D01*
X168330476Y-123960952D01*
X168378095Y-124008571D01*
X168473333Y-124056190D01*
X168854285Y-124056190D01*
X167330476Y-124532380D02*
X167901904Y-124532380D01*
X167616190Y-124532380D02*
X167616190Y-123532380D01*
X167711428Y-123675238D01*
X167806666Y-123770476D01*
X167901904Y-123818095D01*
X166997142Y-123532380D02*
X166378095Y-123532380D01*
X166711428Y-123913333D01*
X166568571Y-123913333D01*
X166473333Y-123960952D01*
X166425714Y-124008571D01*
X166378095Y-124103809D01*
X166378095Y-124341904D01*
X166425714Y-124437142D01*
X166473333Y-124484761D01*
X166568571Y-124532380D01*
X166854285Y-124532380D01*
X166949523Y-124484761D01*
X166997142Y-124437142D01*
%TO.C,R14*%
X168282857Y-129612380D02*
X168616190Y-129136190D01*
X168854285Y-129612380D02*
X168854285Y-128612380D01*
X168473333Y-128612380D01*
X168378095Y-128660000D01*
X168330476Y-128707619D01*
X168282857Y-128802857D01*
X168282857Y-128945714D01*
X168330476Y-129040952D01*
X168378095Y-129088571D01*
X168473333Y-129136190D01*
X168854285Y-129136190D01*
X167330476Y-129612380D02*
X167901904Y-129612380D01*
X167616190Y-129612380D02*
X167616190Y-128612380D01*
X167711428Y-128755238D01*
X167806666Y-128850476D01*
X167901904Y-128898095D01*
X166473333Y-128945714D02*
X166473333Y-129612380D01*
X166711428Y-128564761D02*
X166949523Y-129279047D01*
X166330476Y-129279047D01*
D10*
%TO.C,J5*%
X179832000Y-45738142D02*
X179832000Y-47371000D01*
X179940857Y-47697571D01*
X180158571Y-47915285D01*
X180485142Y-48024142D01*
X180702857Y-48024142D01*
X177654857Y-45738142D02*
X178743428Y-45738142D01*
X178852285Y-46826714D01*
X178743428Y-46717857D01*
X178525714Y-46609000D01*
X177981428Y-46609000D01*
X177763714Y-46717857D01*
X177654857Y-46826714D01*
X177546000Y-47044428D01*
X177546000Y-47588714D01*
X177654857Y-47806428D01*
X177763714Y-47915285D01*
X177981428Y-48024142D01*
X178525714Y-48024142D01*
X178743428Y-47915285D01*
X178852285Y-47806428D01*
D11*
%TO.C,D37*%
X179649285Y-58777380D02*
X179649285Y-57777380D01*
X179411190Y-57777380D01*
X179268333Y-57825000D01*
X179173095Y-57920238D01*
X179125476Y-58015476D01*
X179077857Y-58205952D01*
X179077857Y-58348809D01*
X179125476Y-58539285D01*
X179173095Y-58634523D01*
X179268333Y-58729761D01*
X179411190Y-58777380D01*
X179649285Y-58777380D01*
X178744523Y-57777380D02*
X178125476Y-57777380D01*
X178458809Y-58158333D01*
X178315952Y-58158333D01*
X178220714Y-58205952D01*
X178173095Y-58253571D01*
X178125476Y-58348809D01*
X178125476Y-58586904D01*
X178173095Y-58682142D01*
X178220714Y-58729761D01*
X178315952Y-58777380D01*
X178601666Y-58777380D01*
X178696904Y-58729761D01*
X178744523Y-58682142D01*
X177792142Y-57777380D02*
X177125476Y-57777380D01*
X177554047Y-58777380D01*
%TO.C,D9*%
X173458095Y-124362380D02*
X173458095Y-123362380D01*
X173220000Y-123362380D01*
X173077142Y-123410000D01*
X172981904Y-123505238D01*
X172934285Y-123600476D01*
X172886666Y-123790952D01*
X172886666Y-123933809D01*
X172934285Y-124124285D01*
X172981904Y-124219523D01*
X173077142Y-124314761D01*
X173220000Y-124362380D01*
X173458095Y-124362380D01*
X172410476Y-124362380D02*
X172220000Y-124362380D01*
X172124761Y-124314761D01*
X172077142Y-124267142D01*
X171981904Y-124124285D01*
X171934285Y-123933809D01*
X171934285Y-123552857D01*
X171981904Y-123457619D01*
X172029523Y-123410000D01*
X172124761Y-123362380D01*
X172315238Y-123362380D01*
X172410476Y-123410000D01*
X172458095Y-123457619D01*
X172505714Y-123552857D01*
X172505714Y-123790952D01*
X172458095Y-123886190D01*
X172410476Y-123933809D01*
X172315238Y-123981428D01*
X172124761Y-123981428D01*
X172029523Y-123933809D01*
X171981904Y-123886190D01*
X171934285Y-123790952D01*
%TO.C,D33*%
X173934285Y-79277380D02*
X173934285Y-78277380D01*
X173696190Y-78277380D01*
X173553333Y-78325000D01*
X173458095Y-78420238D01*
X173410476Y-78515476D01*
X173362857Y-78705952D01*
X173362857Y-78848809D01*
X173410476Y-79039285D01*
X173458095Y-79134523D01*
X173553333Y-79229761D01*
X173696190Y-79277380D01*
X173934285Y-79277380D01*
X173029523Y-78277380D02*
X172410476Y-78277380D01*
X172743809Y-78658333D01*
X172600952Y-78658333D01*
X172505714Y-78705952D01*
X172458095Y-78753571D01*
X172410476Y-78848809D01*
X172410476Y-79086904D01*
X172458095Y-79182142D01*
X172505714Y-79229761D01*
X172600952Y-79277380D01*
X172886666Y-79277380D01*
X172981904Y-79229761D01*
X173029523Y-79182142D01*
X172077142Y-78277380D02*
X171458095Y-78277380D01*
X171791428Y-78658333D01*
X171648571Y-78658333D01*
X171553333Y-78705952D01*
X171505714Y-78753571D01*
X171458095Y-78848809D01*
X171458095Y-79086904D01*
X171505714Y-79182142D01*
X171553333Y-79229761D01*
X171648571Y-79277380D01*
X171934285Y-79277380D01*
X172029523Y-79229761D01*
X172077142Y-79182142D01*
%TO.C,D30*%
X173934285Y-64037380D02*
X173934285Y-63037380D01*
X173696190Y-63037380D01*
X173553333Y-63085000D01*
X173458095Y-63180238D01*
X173410476Y-63275476D01*
X173362857Y-63465952D01*
X173362857Y-63608809D01*
X173410476Y-63799285D01*
X173458095Y-63894523D01*
X173553333Y-63989761D01*
X173696190Y-64037380D01*
X173934285Y-64037380D01*
X173029523Y-63037380D02*
X172410476Y-63037380D01*
X172743809Y-63418333D01*
X172600952Y-63418333D01*
X172505714Y-63465952D01*
X172458095Y-63513571D01*
X172410476Y-63608809D01*
X172410476Y-63846904D01*
X172458095Y-63942142D01*
X172505714Y-63989761D01*
X172600952Y-64037380D01*
X172886666Y-64037380D01*
X172981904Y-63989761D01*
X173029523Y-63942142D01*
X171791428Y-63037380D02*
X171696190Y-63037380D01*
X171600952Y-63085000D01*
X171553333Y-63132619D01*
X171505714Y-63227857D01*
X171458095Y-63418333D01*
X171458095Y-63656428D01*
X171505714Y-63846904D01*
X171553333Y-63942142D01*
X171600952Y-63989761D01*
X171696190Y-64037380D01*
X171791428Y-64037380D01*
X171886666Y-63989761D01*
X171934285Y-63942142D01*
X171981904Y-63846904D01*
X172029523Y-63656428D01*
X172029523Y-63418333D01*
X171981904Y-63227857D01*
X171934285Y-63132619D01*
X171886666Y-63085000D01*
X171791428Y-63037380D01*
D10*
%TO.C,J6*%
X179832000Y-90823142D02*
X179832000Y-92456000D01*
X179940857Y-92782571D01*
X180158571Y-93000285D01*
X180485142Y-93109142D01*
X180702857Y-93109142D01*
X177763714Y-90823142D02*
X178199142Y-90823142D01*
X178416857Y-90932000D01*
X178525714Y-91040857D01*
X178743428Y-91367428D01*
X178852285Y-91802857D01*
X178852285Y-92673714D01*
X178743428Y-92891428D01*
X178634571Y-93000285D01*
X178416857Y-93109142D01*
X177981428Y-93109142D01*
X177763714Y-93000285D01*
X177654857Y-92891428D01*
X177546000Y-92673714D01*
X177546000Y-92129428D01*
X177654857Y-91911714D01*
X177763714Y-91802857D01*
X177981428Y-91694000D01*
X178416857Y-91694000D01*
X178634571Y-91802857D01*
X178743428Y-91911714D01*
X178852285Y-92129428D01*
D11*
%TO.C,D27*%
X173934285Y-48797380D02*
X173934285Y-47797380D01*
X173696190Y-47797380D01*
X173553333Y-47845000D01*
X173458095Y-47940238D01*
X173410476Y-48035476D01*
X173362857Y-48225952D01*
X173362857Y-48368809D01*
X173410476Y-48559285D01*
X173458095Y-48654523D01*
X173553333Y-48749761D01*
X173696190Y-48797380D01*
X173934285Y-48797380D01*
X172981904Y-47892619D02*
X172934285Y-47845000D01*
X172839047Y-47797380D01*
X172600952Y-47797380D01*
X172505714Y-47845000D01*
X172458095Y-47892619D01*
X172410476Y-47987857D01*
X172410476Y-48083095D01*
X172458095Y-48225952D01*
X173029523Y-48797380D01*
X172410476Y-48797380D01*
X172077142Y-47797380D02*
X171410476Y-47797380D01*
X171839047Y-48797380D01*
%TO.C,R34*%
X168282857Y-64207380D02*
X168616190Y-63731190D01*
X168854285Y-64207380D02*
X168854285Y-63207380D01*
X168473333Y-63207380D01*
X168378095Y-63255000D01*
X168330476Y-63302619D01*
X168282857Y-63397857D01*
X168282857Y-63540714D01*
X168330476Y-63635952D01*
X168378095Y-63683571D01*
X168473333Y-63731190D01*
X168854285Y-63731190D01*
X167949523Y-63207380D02*
X167330476Y-63207380D01*
X167663809Y-63588333D01*
X167520952Y-63588333D01*
X167425714Y-63635952D01*
X167378095Y-63683571D01*
X167330476Y-63778809D01*
X167330476Y-64016904D01*
X167378095Y-64112142D01*
X167425714Y-64159761D01*
X167520952Y-64207380D01*
X167806666Y-64207380D01*
X167901904Y-64159761D01*
X167949523Y-64112142D01*
X166473333Y-63540714D02*
X166473333Y-64207380D01*
X166711428Y-63159761D02*
X166949523Y-63874047D01*
X166330476Y-63874047D01*
%TO.C,D10*%
X173934285Y-129442380D02*
X173934285Y-128442380D01*
X173696190Y-128442380D01*
X173553333Y-128490000D01*
X173458095Y-128585238D01*
X173410476Y-128680476D01*
X173362857Y-128870952D01*
X173362857Y-129013809D01*
X173410476Y-129204285D01*
X173458095Y-129299523D01*
X173553333Y-129394761D01*
X173696190Y-129442380D01*
X173934285Y-129442380D01*
X172410476Y-129442380D02*
X172981904Y-129442380D01*
X172696190Y-129442380D02*
X172696190Y-128442380D01*
X172791428Y-128585238D01*
X172886666Y-128680476D01*
X172981904Y-128728095D01*
X171791428Y-128442380D02*
X171696190Y-128442380D01*
X171600952Y-128490000D01*
X171553333Y-128537619D01*
X171505714Y-128632857D01*
X171458095Y-128823333D01*
X171458095Y-129061428D01*
X171505714Y-129251904D01*
X171553333Y-129347142D01*
X171600952Y-129394761D01*
X171696190Y-129442380D01*
X171791428Y-129442380D01*
X171886666Y-129394761D01*
X171934285Y-129347142D01*
X171981904Y-129251904D01*
X172029523Y-129061428D01*
X172029523Y-128823333D01*
X171981904Y-128632857D01*
X171934285Y-128537619D01*
X171886666Y-128490000D01*
X171791428Y-128442380D01*
%TO.C,D13*%
X179649285Y-103862380D02*
X179649285Y-102862380D01*
X179411190Y-102862380D01*
X179268333Y-102910000D01*
X179173095Y-103005238D01*
X179125476Y-103100476D01*
X179077857Y-103290952D01*
X179077857Y-103433809D01*
X179125476Y-103624285D01*
X179173095Y-103719523D01*
X179268333Y-103814761D01*
X179411190Y-103862380D01*
X179649285Y-103862380D01*
X178125476Y-103862380D02*
X178696904Y-103862380D01*
X178411190Y-103862380D02*
X178411190Y-102862380D01*
X178506428Y-103005238D01*
X178601666Y-103100476D01*
X178696904Y-103148095D01*
X177792142Y-102862380D02*
X177173095Y-102862380D01*
X177506428Y-103243333D01*
X177363571Y-103243333D01*
X177268333Y-103290952D01*
X177220714Y-103338571D01*
X177173095Y-103433809D01*
X177173095Y-103671904D01*
X177220714Y-103767142D01*
X177268333Y-103814761D01*
X177363571Y-103862380D01*
X177649285Y-103862380D01*
X177744523Y-103814761D01*
X177792142Y-103767142D01*
%TO.C,J7*%
X127333333Y-50252380D02*
X127333333Y-50966666D01*
X127380952Y-51109523D01*
X127476190Y-51204761D01*
X127619047Y-51252380D01*
X127714285Y-51252380D01*
X126952380Y-50252380D02*
X126285714Y-50252380D01*
X126714285Y-51252380D01*
%TO.C,R7*%
X167806666Y-94052380D02*
X168140000Y-93576190D01*
X168378095Y-94052380D02*
X168378095Y-93052380D01*
X167997142Y-93052380D01*
X167901904Y-93100000D01*
X167854285Y-93147619D01*
X167806666Y-93242857D01*
X167806666Y-93385714D01*
X167854285Y-93480952D01*
X167901904Y-93528571D01*
X167997142Y-93576190D01*
X168378095Y-93576190D01*
X167473333Y-93052380D02*
X166806666Y-93052380D01*
X167235238Y-94052380D01*
%TO.C,R9*%
X167806666Y-104212380D02*
X168140000Y-103736190D01*
X168378095Y-104212380D02*
X168378095Y-103212380D01*
X167997142Y-103212380D01*
X167901904Y-103260000D01*
X167854285Y-103307619D01*
X167806666Y-103402857D01*
X167806666Y-103545714D01*
X167854285Y-103640952D01*
X167901904Y-103688571D01*
X167997142Y-103736190D01*
X168378095Y-103736190D01*
X167330476Y-104212380D02*
X167140000Y-104212380D01*
X167044761Y-104164761D01*
X166997142Y-104117142D01*
X166901904Y-103974285D01*
X166854285Y-103783809D01*
X166854285Y-103402857D01*
X166901904Y-103307619D01*
X166949523Y-103260000D01*
X167044761Y-103212380D01*
X167235238Y-103212380D01*
X167330476Y-103260000D01*
X167378095Y-103307619D01*
X167425714Y-103402857D01*
X167425714Y-103640952D01*
X167378095Y-103736190D01*
X167330476Y-103783809D01*
X167235238Y-103831428D01*
X167044761Y-103831428D01*
X166949523Y-103783809D01*
X166901904Y-103736190D01*
X166854285Y-103640952D01*
%TO.C,D4*%
X173458095Y-98962380D02*
X173458095Y-97962380D01*
X173220000Y-97962380D01*
X173077142Y-98010000D01*
X172981904Y-98105238D01*
X172934285Y-98200476D01*
X172886666Y-98390952D01*
X172886666Y-98533809D01*
X172934285Y-98724285D01*
X172981904Y-98819523D01*
X173077142Y-98914761D01*
X173220000Y-98962380D01*
X173458095Y-98962380D01*
X172029523Y-98295714D02*
X172029523Y-98962380D01*
X172267619Y-97914761D02*
X172505714Y-98629047D01*
X171886666Y-98629047D01*
%TO.C,D39*%
X179649285Y-68937380D02*
X179649285Y-67937380D01*
X179411190Y-67937380D01*
X179268333Y-67985000D01*
X179173095Y-68080238D01*
X179125476Y-68175476D01*
X179077857Y-68365952D01*
X179077857Y-68508809D01*
X179125476Y-68699285D01*
X179173095Y-68794523D01*
X179268333Y-68889761D01*
X179411190Y-68937380D01*
X179649285Y-68937380D01*
X178744523Y-67937380D02*
X178125476Y-67937380D01*
X178458809Y-68318333D01*
X178315952Y-68318333D01*
X178220714Y-68365952D01*
X178173095Y-68413571D01*
X178125476Y-68508809D01*
X178125476Y-68746904D01*
X178173095Y-68842142D01*
X178220714Y-68889761D01*
X178315952Y-68937380D01*
X178601666Y-68937380D01*
X178696904Y-68889761D01*
X178744523Y-68842142D01*
X177649285Y-68937380D02*
X177458809Y-68937380D01*
X177363571Y-68889761D01*
X177315952Y-68842142D01*
X177220714Y-68699285D01*
X177173095Y-68508809D01*
X177173095Y-68127857D01*
X177220714Y-68032619D01*
X177268333Y-67985000D01*
X177363571Y-67937380D01*
X177554047Y-67937380D01*
X177649285Y-67985000D01*
X177696904Y-68032619D01*
X177744523Y-68127857D01*
X177744523Y-68365952D01*
X177696904Y-68461190D01*
X177649285Y-68508809D01*
X177554047Y-68556428D01*
X177363571Y-68556428D01*
X177268333Y-68508809D01*
X177220714Y-68461190D01*
X177173095Y-68365952D01*
%TO.C,D18*%
X179649285Y-129262380D02*
X179649285Y-128262380D01*
X179411190Y-128262380D01*
X179268333Y-128310000D01*
X179173095Y-128405238D01*
X179125476Y-128500476D01*
X179077857Y-128690952D01*
X179077857Y-128833809D01*
X179125476Y-129024285D01*
X179173095Y-129119523D01*
X179268333Y-129214761D01*
X179411190Y-129262380D01*
X179649285Y-129262380D01*
X178125476Y-129262380D02*
X178696904Y-129262380D01*
X178411190Y-129262380D02*
X178411190Y-128262380D01*
X178506428Y-128405238D01*
X178601666Y-128500476D01*
X178696904Y-128548095D01*
X177554047Y-128690952D02*
X177649285Y-128643333D01*
X177696904Y-128595714D01*
X177744523Y-128500476D01*
X177744523Y-128452857D01*
X177696904Y-128357619D01*
X177649285Y-128310000D01*
X177554047Y-128262380D01*
X177363571Y-128262380D01*
X177268333Y-128310000D01*
X177220714Y-128357619D01*
X177173095Y-128452857D01*
X177173095Y-128500476D01*
X177220714Y-128595714D01*
X177268333Y-128643333D01*
X177363571Y-128690952D01*
X177554047Y-128690952D01*
X177649285Y-128738571D01*
X177696904Y-128786190D01*
X177744523Y-128881428D01*
X177744523Y-129071904D01*
X177696904Y-129167142D01*
X177649285Y-129214761D01*
X177554047Y-129262380D01*
X177363571Y-129262380D01*
X177268333Y-129214761D01*
X177220714Y-129167142D01*
X177173095Y-129071904D01*
X177173095Y-128881428D01*
X177220714Y-128786190D01*
X177268333Y-128738571D01*
X177363571Y-128690952D01*
%TO.C,R36*%
X168282857Y-74367380D02*
X168616190Y-73891190D01*
X168854285Y-74367380D02*
X168854285Y-73367380D01*
X168473333Y-73367380D01*
X168378095Y-73415000D01*
X168330476Y-73462619D01*
X168282857Y-73557857D01*
X168282857Y-73700714D01*
X168330476Y-73795952D01*
X168378095Y-73843571D01*
X168473333Y-73891190D01*
X168854285Y-73891190D01*
X167949523Y-73367380D02*
X167330476Y-73367380D01*
X167663809Y-73748333D01*
X167520952Y-73748333D01*
X167425714Y-73795952D01*
X167378095Y-73843571D01*
X167330476Y-73938809D01*
X167330476Y-74176904D01*
X167378095Y-74272142D01*
X167425714Y-74319761D01*
X167520952Y-74367380D01*
X167806666Y-74367380D01*
X167901904Y-74319761D01*
X167949523Y-74272142D01*
X166473333Y-73367380D02*
X166663809Y-73367380D01*
X166759047Y-73415000D01*
X166806666Y-73462619D01*
X166901904Y-73605476D01*
X166949523Y-73795952D01*
X166949523Y-74176904D01*
X166901904Y-74272142D01*
X166854285Y-74319761D01*
X166759047Y-74367380D01*
X166568571Y-74367380D01*
X166473333Y-74319761D01*
X166425714Y-74272142D01*
X166378095Y-74176904D01*
X166378095Y-73938809D01*
X166425714Y-73843571D01*
X166473333Y-73795952D01*
X166568571Y-73748333D01*
X166759047Y-73748333D01*
X166854285Y-73795952D01*
X166901904Y-73843571D01*
X166949523Y-73938809D01*
%TO.C,D36*%
X179649285Y-53697380D02*
X179649285Y-52697380D01*
X179411190Y-52697380D01*
X179268333Y-52745000D01*
X179173095Y-52840238D01*
X179125476Y-52935476D01*
X179077857Y-53125952D01*
X179077857Y-53268809D01*
X179125476Y-53459285D01*
X179173095Y-53554523D01*
X179268333Y-53649761D01*
X179411190Y-53697380D01*
X179649285Y-53697380D01*
X178744523Y-52697380D02*
X178125476Y-52697380D01*
X178458809Y-53078333D01*
X178315952Y-53078333D01*
X178220714Y-53125952D01*
X178173095Y-53173571D01*
X178125476Y-53268809D01*
X178125476Y-53506904D01*
X178173095Y-53602142D01*
X178220714Y-53649761D01*
X178315952Y-53697380D01*
X178601666Y-53697380D01*
X178696904Y-53649761D01*
X178744523Y-53602142D01*
X177268333Y-52697380D02*
X177458809Y-52697380D01*
X177554047Y-52745000D01*
X177601666Y-52792619D01*
X177696904Y-52935476D01*
X177744523Y-53125952D01*
X177744523Y-53506904D01*
X177696904Y-53602142D01*
X177649285Y-53649761D01*
X177554047Y-53697380D01*
X177363571Y-53697380D01*
X177268333Y-53649761D01*
X177220714Y-53602142D01*
X177173095Y-53506904D01*
X177173095Y-53268809D01*
X177220714Y-53173571D01*
X177268333Y-53125952D01*
X177363571Y-53078333D01*
X177554047Y-53078333D01*
X177649285Y-53125952D01*
X177696904Y-53173571D01*
X177744523Y-53268809D01*
%TO.C,D15*%
X179649285Y-114022380D02*
X179649285Y-113022380D01*
X179411190Y-113022380D01*
X179268333Y-113070000D01*
X179173095Y-113165238D01*
X179125476Y-113260476D01*
X179077857Y-113450952D01*
X179077857Y-113593809D01*
X179125476Y-113784285D01*
X179173095Y-113879523D01*
X179268333Y-113974761D01*
X179411190Y-114022380D01*
X179649285Y-114022380D01*
X178125476Y-114022380D02*
X178696904Y-114022380D01*
X178411190Y-114022380D02*
X178411190Y-113022380D01*
X178506428Y-113165238D01*
X178601666Y-113260476D01*
X178696904Y-113308095D01*
X177220714Y-113022380D02*
X177696904Y-113022380D01*
X177744523Y-113498571D01*
X177696904Y-113450952D01*
X177601666Y-113403333D01*
X177363571Y-113403333D01*
X177268333Y-113450952D01*
X177220714Y-113498571D01*
X177173095Y-113593809D01*
X177173095Y-113831904D01*
X177220714Y-113927142D01*
X177268333Y-113974761D01*
X177363571Y-114022380D01*
X177601666Y-114022380D01*
X177696904Y-113974761D01*
X177744523Y-113927142D01*
%TO.C,D7*%
X173458095Y-114202380D02*
X173458095Y-113202380D01*
X173220000Y-113202380D01*
X173077142Y-113250000D01*
X172981904Y-113345238D01*
X172934285Y-113440476D01*
X172886666Y-113630952D01*
X172886666Y-113773809D01*
X172934285Y-113964285D01*
X172981904Y-114059523D01*
X173077142Y-114154761D01*
X173220000Y-114202380D01*
X173458095Y-114202380D01*
X172553333Y-113202380D02*
X171886666Y-113202380D01*
X172315238Y-114202380D01*
%TO.C,D3*%
X173458095Y-93882380D02*
X173458095Y-92882380D01*
X173220000Y-92882380D01*
X173077142Y-92930000D01*
X172981904Y-93025238D01*
X172934285Y-93120476D01*
X172886666Y-93310952D01*
X172886666Y-93453809D01*
X172934285Y-93644285D01*
X172981904Y-93739523D01*
X173077142Y-93834761D01*
X173220000Y-93882380D01*
X173458095Y-93882380D01*
X172553333Y-92882380D02*
X171934285Y-92882380D01*
X172267619Y-93263333D01*
X172124761Y-93263333D01*
X172029523Y-93310952D01*
X171981904Y-93358571D01*
X171934285Y-93453809D01*
X171934285Y-93691904D01*
X171981904Y-93787142D01*
X172029523Y-93834761D01*
X172124761Y-93882380D01*
X172410476Y-93882380D01*
X172505714Y-93834761D01*
X172553333Y-93787142D01*
%TO.C,D31*%
X173934285Y-69117380D02*
X173934285Y-68117380D01*
X173696190Y-68117380D01*
X173553333Y-68165000D01*
X173458095Y-68260238D01*
X173410476Y-68355476D01*
X173362857Y-68545952D01*
X173362857Y-68688809D01*
X173410476Y-68879285D01*
X173458095Y-68974523D01*
X173553333Y-69069761D01*
X173696190Y-69117380D01*
X173934285Y-69117380D01*
X173029523Y-68117380D02*
X172410476Y-68117380D01*
X172743809Y-68498333D01*
X172600952Y-68498333D01*
X172505714Y-68545952D01*
X172458095Y-68593571D01*
X172410476Y-68688809D01*
X172410476Y-68926904D01*
X172458095Y-69022142D01*
X172505714Y-69069761D01*
X172600952Y-69117380D01*
X172886666Y-69117380D01*
X172981904Y-69069761D01*
X173029523Y-69022142D01*
X171458095Y-69117380D02*
X172029523Y-69117380D01*
X171743809Y-69117380D02*
X171743809Y-68117380D01*
X171839047Y-68260238D01*
X171934285Y-68355476D01*
X172029523Y-68403095D01*
%TO.C,D17*%
X179649285Y-124182380D02*
X179649285Y-123182380D01*
X179411190Y-123182380D01*
X179268333Y-123230000D01*
X179173095Y-123325238D01*
X179125476Y-123420476D01*
X179077857Y-123610952D01*
X179077857Y-123753809D01*
X179125476Y-123944285D01*
X179173095Y-124039523D01*
X179268333Y-124134761D01*
X179411190Y-124182380D01*
X179649285Y-124182380D01*
X178125476Y-124182380D02*
X178696904Y-124182380D01*
X178411190Y-124182380D02*
X178411190Y-123182380D01*
X178506428Y-123325238D01*
X178601666Y-123420476D01*
X178696904Y-123468095D01*
X177792142Y-123182380D02*
X177125476Y-123182380D01*
X177554047Y-124182380D01*
%TO.C,D42*%
X179649285Y-84177380D02*
X179649285Y-83177380D01*
X179411190Y-83177380D01*
X179268333Y-83225000D01*
X179173095Y-83320238D01*
X179125476Y-83415476D01*
X179077857Y-83605952D01*
X179077857Y-83748809D01*
X179125476Y-83939285D01*
X179173095Y-84034523D01*
X179268333Y-84129761D01*
X179411190Y-84177380D01*
X179649285Y-84177380D01*
X178220714Y-83510714D02*
X178220714Y-84177380D01*
X178458809Y-83129761D02*
X178696904Y-83844047D01*
X178077857Y-83844047D01*
X177744523Y-83272619D02*
X177696904Y-83225000D01*
X177601666Y-83177380D01*
X177363571Y-83177380D01*
X177268333Y-83225000D01*
X177220714Y-83272619D01*
X177173095Y-83367857D01*
X177173095Y-83463095D01*
X177220714Y-83605952D01*
X177792142Y-84177380D01*
X177173095Y-84177380D01*
%TO.C,R6*%
X144946666Y-78812380D02*
X145280000Y-78336190D01*
X145518095Y-78812380D02*
X145518095Y-77812380D01*
X145137142Y-77812380D01*
X145041904Y-77860000D01*
X144994285Y-77907619D01*
X144946666Y-78002857D01*
X144946666Y-78145714D01*
X144994285Y-78240952D01*
X145041904Y-78288571D01*
X145137142Y-78336190D01*
X145518095Y-78336190D01*
X144089523Y-77812380D02*
X144280000Y-77812380D01*
X144375238Y-77860000D01*
X144422857Y-77907619D01*
X144518095Y-78050476D01*
X144565714Y-78240952D01*
X144565714Y-78621904D01*
X144518095Y-78717142D01*
X144470476Y-78764761D01*
X144375238Y-78812380D01*
X144184761Y-78812380D01*
X144089523Y-78764761D01*
X144041904Y-78717142D01*
X143994285Y-78621904D01*
X143994285Y-78383809D01*
X144041904Y-78288571D01*
X144089523Y-78240952D01*
X144184761Y-78193333D01*
X144375238Y-78193333D01*
X144470476Y-78240952D01*
X144518095Y-78288571D01*
X144565714Y-78383809D01*
%TO.C,D16*%
X179649285Y-119102380D02*
X179649285Y-118102380D01*
X179411190Y-118102380D01*
X179268333Y-118150000D01*
X179173095Y-118245238D01*
X179125476Y-118340476D01*
X179077857Y-118530952D01*
X179077857Y-118673809D01*
X179125476Y-118864285D01*
X179173095Y-118959523D01*
X179268333Y-119054761D01*
X179411190Y-119102380D01*
X179649285Y-119102380D01*
X178125476Y-119102380D02*
X178696904Y-119102380D01*
X178411190Y-119102380D02*
X178411190Y-118102380D01*
X178506428Y-118245238D01*
X178601666Y-118340476D01*
X178696904Y-118388095D01*
X177268333Y-118102380D02*
X177458809Y-118102380D01*
X177554047Y-118150000D01*
X177601666Y-118197619D01*
X177696904Y-118340476D01*
X177744523Y-118530952D01*
X177744523Y-118911904D01*
X177696904Y-119007142D01*
X177649285Y-119054761D01*
X177554047Y-119102380D01*
X177363571Y-119102380D01*
X177268333Y-119054761D01*
X177220714Y-119007142D01*
X177173095Y-118911904D01*
X177173095Y-118673809D01*
X177220714Y-118578571D01*
X177268333Y-118530952D01*
X177363571Y-118483333D01*
X177554047Y-118483333D01*
X177649285Y-118530952D01*
X177696904Y-118578571D01*
X177744523Y-118673809D01*
%TO.C,D34*%
X173934285Y-84357380D02*
X173934285Y-83357380D01*
X173696190Y-83357380D01*
X173553333Y-83405000D01*
X173458095Y-83500238D01*
X173410476Y-83595476D01*
X173362857Y-83785952D01*
X173362857Y-83928809D01*
X173410476Y-84119285D01*
X173458095Y-84214523D01*
X173553333Y-84309761D01*
X173696190Y-84357380D01*
X173934285Y-84357380D01*
X173029523Y-83357380D02*
X172410476Y-83357380D01*
X172743809Y-83738333D01*
X172600952Y-83738333D01*
X172505714Y-83785952D01*
X172458095Y-83833571D01*
X172410476Y-83928809D01*
X172410476Y-84166904D01*
X172458095Y-84262142D01*
X172505714Y-84309761D01*
X172600952Y-84357380D01*
X172886666Y-84357380D01*
X172981904Y-84309761D01*
X173029523Y-84262142D01*
X171553333Y-83690714D02*
X171553333Y-84357380D01*
X171791428Y-83309761D02*
X172029523Y-84024047D01*
X171410476Y-84024047D01*
%TO.C,R11*%
X168282857Y-114372380D02*
X168616190Y-113896190D01*
X168854285Y-114372380D02*
X168854285Y-113372380D01*
X168473333Y-113372380D01*
X168378095Y-113420000D01*
X168330476Y-113467619D01*
X168282857Y-113562857D01*
X168282857Y-113705714D01*
X168330476Y-113800952D01*
X168378095Y-113848571D01*
X168473333Y-113896190D01*
X168854285Y-113896190D01*
X167330476Y-114372380D02*
X167901904Y-114372380D01*
X167616190Y-114372380D02*
X167616190Y-113372380D01*
X167711428Y-113515238D01*
X167806666Y-113610476D01*
X167901904Y-113658095D01*
X166378095Y-114372380D02*
X166949523Y-114372380D01*
X166663809Y-114372380D02*
X166663809Y-113372380D01*
X166759047Y-113515238D01*
X166854285Y-113610476D01*
X166949523Y-113658095D01*
%TO.C,D40*%
X179649285Y-74017380D02*
X179649285Y-73017380D01*
X179411190Y-73017380D01*
X179268333Y-73065000D01*
X179173095Y-73160238D01*
X179125476Y-73255476D01*
X179077857Y-73445952D01*
X179077857Y-73588809D01*
X179125476Y-73779285D01*
X179173095Y-73874523D01*
X179268333Y-73969761D01*
X179411190Y-74017380D01*
X179649285Y-74017380D01*
X178220714Y-73350714D02*
X178220714Y-74017380D01*
X178458809Y-72969761D02*
X178696904Y-73684047D01*
X178077857Y-73684047D01*
X177506428Y-73017380D02*
X177411190Y-73017380D01*
X177315952Y-73065000D01*
X177268333Y-73112619D01*
X177220714Y-73207857D01*
X177173095Y-73398333D01*
X177173095Y-73636428D01*
X177220714Y-73826904D01*
X177268333Y-73922142D01*
X177315952Y-73969761D01*
X177411190Y-74017380D01*
X177506428Y-74017380D01*
X177601666Y-73969761D01*
X177649285Y-73922142D01*
X177696904Y-73826904D01*
X177744523Y-73636428D01*
X177744523Y-73398333D01*
X177696904Y-73207857D01*
X177649285Y-73112619D01*
X177601666Y-73065000D01*
X177506428Y-73017380D01*
%TO.C,D38*%
X179649285Y-63857380D02*
X179649285Y-62857380D01*
X179411190Y-62857380D01*
X179268333Y-62905000D01*
X179173095Y-63000238D01*
X179125476Y-63095476D01*
X179077857Y-63285952D01*
X179077857Y-63428809D01*
X179125476Y-63619285D01*
X179173095Y-63714523D01*
X179268333Y-63809761D01*
X179411190Y-63857380D01*
X179649285Y-63857380D01*
X178744523Y-62857380D02*
X178125476Y-62857380D01*
X178458809Y-63238333D01*
X178315952Y-63238333D01*
X178220714Y-63285952D01*
X178173095Y-63333571D01*
X178125476Y-63428809D01*
X178125476Y-63666904D01*
X178173095Y-63762142D01*
X178220714Y-63809761D01*
X178315952Y-63857380D01*
X178601666Y-63857380D01*
X178696904Y-63809761D01*
X178744523Y-63762142D01*
X177554047Y-63285952D02*
X177649285Y-63238333D01*
X177696904Y-63190714D01*
X177744523Y-63095476D01*
X177744523Y-63047857D01*
X177696904Y-62952619D01*
X177649285Y-62905000D01*
X177554047Y-62857380D01*
X177363571Y-62857380D01*
X177268333Y-62905000D01*
X177220714Y-62952619D01*
X177173095Y-63047857D01*
X177173095Y-63095476D01*
X177220714Y-63190714D01*
X177268333Y-63238333D01*
X177363571Y-63285952D01*
X177554047Y-63285952D01*
X177649285Y-63333571D01*
X177696904Y-63381190D01*
X177744523Y-63476428D01*
X177744523Y-63666904D01*
X177696904Y-63762142D01*
X177649285Y-63809761D01*
X177554047Y-63857380D01*
X177363571Y-63857380D01*
X177268333Y-63809761D01*
X177220714Y-63762142D01*
X177173095Y-63666904D01*
X177173095Y-63476428D01*
X177220714Y-63381190D01*
X177268333Y-63333571D01*
X177363571Y-63285952D01*
%TO.C,R12*%
X168282857Y-119452380D02*
X168616190Y-118976190D01*
X168854285Y-119452380D02*
X168854285Y-118452380D01*
X168473333Y-118452380D01*
X168378095Y-118500000D01*
X168330476Y-118547619D01*
X168282857Y-118642857D01*
X168282857Y-118785714D01*
X168330476Y-118880952D01*
X168378095Y-118928571D01*
X168473333Y-118976190D01*
X168854285Y-118976190D01*
X167330476Y-119452380D02*
X167901904Y-119452380D01*
X167616190Y-119452380D02*
X167616190Y-118452380D01*
X167711428Y-118595238D01*
X167806666Y-118690476D01*
X167901904Y-118738095D01*
X166949523Y-118547619D02*
X166901904Y-118500000D01*
X166806666Y-118452380D01*
X166568571Y-118452380D01*
X166473333Y-118500000D01*
X166425714Y-118547619D01*
X166378095Y-118642857D01*
X166378095Y-118738095D01*
X166425714Y-118880952D01*
X166997142Y-119452380D01*
X166378095Y-119452380D01*
%TO.C,D12*%
X179649285Y-98782380D02*
X179649285Y-97782380D01*
X179411190Y-97782380D01*
X179268333Y-97830000D01*
X179173095Y-97925238D01*
X179125476Y-98020476D01*
X179077857Y-98210952D01*
X179077857Y-98353809D01*
X179125476Y-98544285D01*
X179173095Y-98639523D01*
X179268333Y-98734761D01*
X179411190Y-98782380D01*
X179649285Y-98782380D01*
X178125476Y-98782380D02*
X178696904Y-98782380D01*
X178411190Y-98782380D02*
X178411190Y-97782380D01*
X178506428Y-97925238D01*
X178601666Y-98020476D01*
X178696904Y-98068095D01*
X177744523Y-97877619D02*
X177696904Y-97830000D01*
X177601666Y-97782380D01*
X177363571Y-97782380D01*
X177268333Y-97830000D01*
X177220714Y-97877619D01*
X177173095Y-97972857D01*
X177173095Y-98068095D01*
X177220714Y-98210952D01*
X177792142Y-98782380D01*
X177173095Y-98782380D01*
%TO.C,D8*%
X173458095Y-119282380D02*
X173458095Y-118282380D01*
X173220000Y-118282380D01*
X173077142Y-118330000D01*
X172981904Y-118425238D01*
X172934285Y-118520476D01*
X172886666Y-118710952D01*
X172886666Y-118853809D01*
X172934285Y-119044285D01*
X172981904Y-119139523D01*
X173077142Y-119234761D01*
X173220000Y-119282380D01*
X173458095Y-119282380D01*
X172315238Y-118710952D02*
X172410476Y-118663333D01*
X172458095Y-118615714D01*
X172505714Y-118520476D01*
X172505714Y-118472857D01*
X172458095Y-118377619D01*
X172410476Y-118330000D01*
X172315238Y-118282380D01*
X172124761Y-118282380D01*
X172029523Y-118330000D01*
X171981904Y-118377619D01*
X171934285Y-118472857D01*
X171934285Y-118520476D01*
X171981904Y-118615714D01*
X172029523Y-118663333D01*
X172124761Y-118710952D01*
X172315238Y-118710952D01*
X172410476Y-118758571D01*
X172458095Y-118806190D01*
X172505714Y-118901428D01*
X172505714Y-119091904D01*
X172458095Y-119187142D01*
X172410476Y-119234761D01*
X172315238Y-119282380D01*
X172124761Y-119282380D01*
X172029523Y-119234761D01*
X171981904Y-119187142D01*
X171934285Y-119091904D01*
X171934285Y-118901428D01*
X171981904Y-118806190D01*
X172029523Y-118758571D01*
X172124761Y-118710952D01*
%TO.C,R31*%
X168282857Y-48967380D02*
X168616190Y-48491190D01*
X168854285Y-48967380D02*
X168854285Y-47967380D01*
X168473333Y-47967380D01*
X168378095Y-48015000D01*
X168330476Y-48062619D01*
X168282857Y-48157857D01*
X168282857Y-48300714D01*
X168330476Y-48395952D01*
X168378095Y-48443571D01*
X168473333Y-48491190D01*
X168854285Y-48491190D01*
X167949523Y-47967380D02*
X167330476Y-47967380D01*
X167663809Y-48348333D01*
X167520952Y-48348333D01*
X167425714Y-48395952D01*
X167378095Y-48443571D01*
X167330476Y-48538809D01*
X167330476Y-48776904D01*
X167378095Y-48872142D01*
X167425714Y-48919761D01*
X167520952Y-48967380D01*
X167806666Y-48967380D01*
X167901904Y-48919761D01*
X167949523Y-48872142D01*
X166378095Y-48967380D02*
X166949523Y-48967380D01*
X166663809Y-48967380D02*
X166663809Y-47967380D01*
X166759047Y-48110238D01*
X166854285Y-48205476D01*
X166949523Y-48253095D01*
D10*
%TO.C,J1*%
X125444500Y-87648142D02*
X125444500Y-89281000D01*
X125553357Y-89607571D01*
X125771071Y-89825285D01*
X126097642Y-89934142D01*
X126315357Y-89934142D01*
X123158500Y-89934142D02*
X124464785Y-89934142D01*
X123811642Y-89934142D02*
X123811642Y-87648142D01*
X124029357Y-87974714D01*
X124247071Y-88192428D01*
X124464785Y-88301285D01*
D12*
%TO.C,D11*%
X180685000Y-96250000D02*
X176785000Y-96250000D01*
X180685000Y-94250000D02*
X180685000Y-96250000D01*
X180685000Y-94250000D02*
X176785000Y-94250000D01*
%TO.C,D2*%
X151685000Y-81145000D02*
X147625000Y-81145000D01*
X147625000Y-78875000D02*
X151685000Y-78875000D01*
X151685000Y-78875000D02*
X151685000Y-81145000D01*
%TO.C,D28*%
X175180000Y-54110000D02*
X175180000Y-56380000D01*
X175180000Y-56380000D02*
X171120000Y-56380000D01*
X171120000Y-54110000D02*
X175180000Y-54110000D01*
%TO.C,R10*%
X167867064Y-109755000D02*
X167412936Y-109755000D01*
X167867064Y-111225000D02*
X167412936Y-111225000D01*
%TO.C,D32*%
X175180000Y-76700000D02*
X171120000Y-76700000D01*
X171120000Y-74430000D02*
X175180000Y-74430000D01*
X175180000Y-74430000D02*
X175180000Y-76700000D01*
%TO.C,R32*%
X167867064Y-54510000D02*
X167412936Y-54510000D01*
X167867064Y-55980000D02*
X167412936Y-55980000D01*
%TO.C,R37*%
X167867064Y-79910000D02*
X167412936Y-79910000D01*
X167867064Y-81380000D02*
X167412936Y-81380000D01*
%TO.C,R33*%
X167867064Y-61060000D02*
X167412936Y-61060000D01*
X167867064Y-59590000D02*
X167412936Y-59590000D01*
%TO.C,D35*%
X180685000Y-49165000D02*
X180685000Y-51165000D01*
X180685000Y-51165000D02*
X176785000Y-51165000D01*
X180685000Y-49165000D02*
X176785000Y-49165000D01*
%TO.C,D41*%
X180685000Y-79645000D02*
X176785000Y-79645000D01*
X180685000Y-81645000D02*
X176785000Y-81645000D01*
X180685000Y-79645000D02*
X180685000Y-81645000D01*
%TO.C,D29*%
X175180000Y-61460000D02*
X171120000Y-61460000D01*
X171120000Y-59190000D02*
X175180000Y-59190000D01*
X175180000Y-59190000D02*
X175180000Y-61460000D01*
%TO.C,D6*%
X171120000Y-109355000D02*
X175180000Y-109355000D01*
X175180000Y-111625000D02*
X171120000Y-111625000D01*
X175180000Y-109355000D02*
X175180000Y-111625000D01*
%TO.C,R38*%
X167867064Y-86460000D02*
X167412936Y-86460000D01*
X167867064Y-84990000D02*
X167412936Y-84990000D01*
%TO.C,D5*%
X171120000Y-104275000D02*
X175180000Y-104275000D01*
X175180000Y-106545000D02*
X171120000Y-106545000D01*
X175180000Y-104275000D02*
X175180000Y-106545000D01*
%TO.C,R8*%
X167867064Y-99595000D02*
X167412936Y-99595000D01*
X167867064Y-101065000D02*
X167412936Y-101065000D01*
%TO.C,D14*%
X180685000Y-109490000D02*
X180685000Y-111490000D01*
X180685000Y-109490000D02*
X176785000Y-109490000D01*
X180685000Y-111490000D02*
X176785000Y-111490000D01*
%TO.C,R35*%
X167867064Y-69750000D02*
X167412936Y-69750000D01*
X167867064Y-71220000D02*
X167412936Y-71220000D01*
%TO.C,R13*%
X167867064Y-126465000D02*
X167412936Y-126465000D01*
X167867064Y-124995000D02*
X167412936Y-124995000D01*
%TO.C,R14*%
X167867064Y-131545000D02*
X167412936Y-131545000D01*
X167867064Y-130075000D02*
X167412936Y-130075000D01*
%TO.C,J5*%
X182590000Y-71485000D02*
X182590000Y-74565000D01*
X190600000Y-89375000D02*
X181780000Y-89375000D01*
X181780000Y-76565000D02*
X183590000Y-76565000D01*
X182590000Y-89375000D02*
X182590000Y-86835000D01*
X182590000Y-81645000D02*
X182590000Y-84725000D01*
X183590000Y-61325000D02*
X183590000Y-59325000D01*
X181780000Y-51165000D02*
X183590000Y-51165000D01*
X188890000Y-57245000D02*
X188890000Y-58325000D01*
X182590000Y-76565000D02*
X182590000Y-79645000D01*
X181780000Y-69485000D02*
X181780000Y-71485000D01*
X183590000Y-47425000D02*
X183590000Y-88465000D01*
X183590000Y-54245000D02*
X181780000Y-54245000D01*
X188890000Y-72485000D02*
X188890000Y-73565000D01*
X183590000Y-81645000D02*
X183590000Y-79645000D01*
X182590000Y-56245000D02*
X182590000Y-59325000D01*
X183590000Y-84725000D02*
X181780000Y-84725000D01*
X181780000Y-66405000D02*
X183590000Y-66405000D01*
X181780000Y-61325000D02*
X183590000Y-61325000D01*
X183590000Y-88465000D02*
X188890000Y-88465000D01*
X188890000Y-48165000D02*
X188890000Y-47425000D01*
X181780000Y-54245000D02*
X181780000Y-56245000D01*
X183590000Y-74565000D02*
X181780000Y-74565000D01*
X181780000Y-46515000D02*
X190600000Y-46515000D01*
X188890000Y-82645000D02*
X188890000Y-83725000D01*
X182590000Y-66405000D02*
X182590000Y-69485000D01*
X183590000Y-76565000D02*
X183590000Y-74565000D01*
X183590000Y-56245000D02*
X183590000Y-54245000D01*
X188890000Y-52165000D02*
X188890000Y-53245000D01*
X181780000Y-49165000D02*
X181780000Y-51165000D01*
X182590000Y-61325000D02*
X182590000Y-64405000D01*
X188890000Y-88465000D02*
X188890000Y-87725000D01*
X188890000Y-67405000D02*
X188890000Y-68485000D01*
X183590000Y-79645000D02*
X181780000Y-79645000D01*
X181780000Y-86725000D02*
X183590000Y-86725000D01*
X183590000Y-49165000D02*
X181780000Y-49165000D01*
X182590000Y-51165000D02*
X182590000Y-54245000D01*
X183590000Y-64405000D02*
X181780000Y-64405000D01*
X182590000Y-46515000D02*
X182590000Y-49055000D01*
X190600000Y-46515000D02*
X190600000Y-89375000D01*
X181780000Y-59325000D02*
X181780000Y-61325000D01*
X183590000Y-71485000D02*
X183590000Y-69485000D01*
X188890000Y-77565000D02*
X188890000Y-78645000D01*
X181780000Y-64405000D02*
X181780000Y-66405000D01*
X181780000Y-84725000D02*
X181780000Y-86725000D01*
X188890000Y-62325000D02*
X188890000Y-63405000D01*
X181780000Y-89375000D02*
X181780000Y-46515000D01*
X180980000Y-49865000D02*
X180980000Y-50465000D01*
X181780000Y-81645000D02*
X183590000Y-81645000D01*
X181780000Y-71485000D02*
X183590000Y-71485000D01*
X181580000Y-50165000D02*
X180980000Y-49865000D01*
X183590000Y-59325000D02*
X181780000Y-59325000D01*
X183590000Y-51165000D02*
X183590000Y-49165000D01*
X181780000Y-74565000D02*
X181780000Y-76565000D01*
X183590000Y-69485000D02*
X181780000Y-69485000D01*
X183590000Y-66405000D02*
X183590000Y-64405000D01*
X188890000Y-47425000D02*
X183590000Y-47425000D01*
X180980000Y-50465000D02*
X181580000Y-50165000D01*
X181780000Y-79645000D02*
X181780000Y-81645000D01*
X181780000Y-56245000D02*
X183590000Y-56245000D01*
X183590000Y-86725000D02*
X183590000Y-84725000D01*
X188905821Y-52151841D02*
G75*
G03*
X188890000Y-48165000I-1665821J1986841D01*
G01*
X188905821Y-72471841D02*
G75*
G03*
X188890000Y-68485000I-1665821J1986841D01*
G01*
X188905821Y-87711841D02*
G75*
G03*
X188890000Y-83725000I-1665821J1986841D01*
G01*
X188905821Y-67391841D02*
G75*
G03*
X188890000Y-63405000I-1665821J1986841D01*
G01*
X188905821Y-57231841D02*
G75*
G03*
X188890000Y-53245000I-1665821J1986841D01*
G01*
X188905821Y-62311841D02*
G75*
G03*
X188890000Y-58325000I-1665821J1986841D01*
G01*
X188905821Y-82631841D02*
G75*
G03*
X188890000Y-78645000I-1665821J1986841D01*
G01*
X188905821Y-77551841D02*
G75*
G03*
X188890000Y-73565000I-1665821J1986841D01*
G01*
%TO.C,D37*%
X180685000Y-61325000D02*
X176785000Y-61325000D01*
X180685000Y-59325000D02*
X180685000Y-61325000D01*
X180685000Y-59325000D02*
X176785000Y-59325000D01*
%TO.C,D9*%
X175180000Y-124595000D02*
X175180000Y-126865000D01*
X175180000Y-126865000D02*
X171120000Y-126865000D01*
X171120000Y-124595000D02*
X175180000Y-124595000D01*
%TO.C,D33*%
X175180000Y-81780000D02*
X171120000Y-81780000D01*
X175180000Y-79510000D02*
X175180000Y-81780000D01*
X171120000Y-79510000D02*
X175180000Y-79510000D01*
%TO.C,D30*%
X175180000Y-64270000D02*
X175180000Y-66540000D01*
X171120000Y-64270000D02*
X175180000Y-64270000D01*
X175180000Y-66540000D02*
X171120000Y-66540000D01*
%TO.C,J6*%
X181780000Y-101330000D02*
X183590000Y-101330000D01*
X181780000Y-111490000D02*
X183590000Y-111490000D01*
X188890000Y-102330000D02*
X188890000Y-103410000D01*
X183590000Y-96250000D02*
X183590000Y-94250000D01*
X181780000Y-109490000D02*
X181780000Y-111490000D01*
X181780000Y-124730000D02*
X181780000Y-126730000D01*
X181780000Y-116570000D02*
X183590000Y-116570000D01*
X183590000Y-124730000D02*
X181780000Y-124730000D01*
X188890000Y-107410000D02*
X188890000Y-108490000D01*
X182590000Y-126730000D02*
X182590000Y-129810000D01*
X180980000Y-95550000D02*
X181580000Y-95250000D01*
X181780000Y-121650000D02*
X183590000Y-121650000D01*
X188890000Y-117570000D02*
X188890000Y-118650000D01*
X181780000Y-91600000D02*
X190600000Y-91600000D01*
X183590000Y-111490000D02*
X183590000Y-109490000D01*
X181780000Y-126730000D02*
X183590000Y-126730000D01*
X181780000Y-96250000D02*
X183590000Y-96250000D01*
X181780000Y-114570000D02*
X181780000Y-116570000D01*
X181780000Y-104410000D02*
X181780000Y-106410000D01*
X183590000Y-109490000D02*
X181780000Y-109490000D01*
X183590000Y-121650000D02*
X183590000Y-119650000D01*
X180980000Y-94950000D02*
X180980000Y-95550000D01*
X182590000Y-106410000D02*
X182590000Y-109490000D01*
X181580000Y-95250000D02*
X180980000Y-94950000D01*
X183590000Y-94250000D02*
X181780000Y-94250000D01*
X181780000Y-134460000D02*
X181780000Y-91600000D01*
X190600000Y-91600000D02*
X190600000Y-134460000D01*
X188890000Y-122650000D02*
X188890000Y-123730000D01*
X188890000Y-93250000D02*
X188890000Y-92510000D01*
X183590000Y-101330000D02*
X183590000Y-99330000D01*
X183590000Y-133550000D02*
X188890000Y-133550000D01*
X182590000Y-91600000D02*
X182590000Y-94140000D01*
X183590000Y-129810000D02*
X181780000Y-129810000D01*
X188890000Y-97250000D02*
X188890000Y-98330000D01*
X188890000Y-127730000D02*
X188890000Y-128810000D01*
X183590000Y-99330000D02*
X181780000Y-99330000D01*
X181780000Y-99330000D02*
X181780000Y-101330000D01*
X182590000Y-96250000D02*
X182590000Y-99330000D01*
X188890000Y-92510000D02*
X183590000Y-92510000D01*
X182590000Y-101330000D02*
X182590000Y-104410000D01*
X190600000Y-134460000D02*
X181780000Y-134460000D01*
X183590000Y-114570000D02*
X181780000Y-114570000D01*
X181780000Y-129810000D02*
X181780000Y-131810000D01*
X183590000Y-119650000D02*
X181780000Y-119650000D01*
X183590000Y-131810000D02*
X183590000Y-129810000D01*
X182590000Y-121650000D02*
X182590000Y-124730000D01*
X182590000Y-116570000D02*
X182590000Y-119650000D01*
X183590000Y-126730000D02*
X183590000Y-124730000D01*
X181780000Y-119650000D02*
X181780000Y-121650000D01*
X181780000Y-131810000D02*
X183590000Y-131810000D01*
X183590000Y-116570000D02*
X183590000Y-114570000D01*
X188890000Y-133550000D02*
X188890000Y-132810000D01*
X183590000Y-92510000D02*
X183590000Y-133550000D01*
X183590000Y-104410000D02*
X181780000Y-104410000D01*
X181780000Y-94250000D02*
X181780000Y-96250000D01*
X188890000Y-112490000D02*
X188890000Y-113570000D01*
X182590000Y-134460000D02*
X182590000Y-131920000D01*
X182590000Y-111490000D02*
X182590000Y-114570000D01*
X181780000Y-106410000D02*
X183590000Y-106410000D01*
X183590000Y-106410000D02*
X183590000Y-104410000D01*
X188905821Y-117556841D02*
G75*
G03*
X188890000Y-113570000I-1665821J1986841D01*
G01*
X188905821Y-97236841D02*
G75*
G03*
X188890000Y-93250000I-1665821J1986841D01*
G01*
X188905821Y-122636841D02*
G75*
G03*
X188890000Y-118650000I-1665821J1986841D01*
G01*
X188905821Y-127716841D02*
G75*
G03*
X188890000Y-123730000I-1665821J1986841D01*
G01*
X188905821Y-132796841D02*
G75*
G03*
X188890000Y-128810000I-1665821J1986841D01*
G01*
X188905821Y-107396841D02*
G75*
G03*
X188890000Y-103410000I-1665821J1986841D01*
G01*
X188905821Y-112476841D02*
G75*
G03*
X188890000Y-108490000I-1665821J1986841D01*
G01*
X188905821Y-102316841D02*
G75*
G03*
X188890000Y-98330000I-1665821J1986841D01*
G01*
%TO.C,D27*%
X171120000Y-49030000D02*
X175180000Y-49030000D01*
X175180000Y-51300000D02*
X171120000Y-51300000D01*
X175180000Y-49030000D02*
X175180000Y-51300000D01*
%TO.C,R34*%
X167867064Y-64670000D02*
X167412936Y-64670000D01*
X167867064Y-66140000D02*
X167412936Y-66140000D01*
%TO.C,D10*%
X171120000Y-129675000D02*
X175180000Y-129675000D01*
X175180000Y-131945000D02*
X171120000Y-131945000D01*
X175180000Y-129675000D02*
X175180000Y-131945000D01*
%TO.C,D13*%
X180685000Y-104410000D02*
X176785000Y-104410000D01*
X180685000Y-104410000D02*
X180685000Y-106410000D01*
X180685000Y-106410000D02*
X176785000Y-106410000D01*
%TO.C,J7*%
X137430000Y-55082500D02*
X137430000Y-56892500D01*
X131350000Y-49782500D02*
X130610000Y-49782500D01*
X129700000Y-48072500D02*
X147160000Y-48072500D01*
X133350000Y-57092500D02*
X133050000Y-57692500D01*
X147160000Y-56082500D02*
X144620000Y-56082500D01*
X130610000Y-49782500D02*
X130610000Y-55082500D01*
X133050000Y-57692500D02*
X133650000Y-57692500D01*
X139430000Y-56892500D02*
X139430000Y-55082500D01*
X132350000Y-56892500D02*
X134350000Y-56892500D01*
X133650000Y-57692500D02*
X133350000Y-57092500D01*
X146250000Y-49782500D02*
X145510000Y-49782500D01*
X130610000Y-55082500D02*
X146250000Y-55082500D01*
X134350000Y-56892500D02*
X134350000Y-55082500D01*
X146250000Y-55082500D02*
X146250000Y-49782500D01*
X142510000Y-55082500D02*
X142510000Y-56892500D01*
X142510000Y-56892500D02*
X144510000Y-56892500D01*
X139430000Y-55082500D02*
X137430000Y-55082500D01*
X144510000Y-55082500D02*
X142510000Y-55082500D01*
X129700000Y-56892500D02*
X129700000Y-48072500D01*
X134350000Y-56082500D02*
X137430000Y-56082500D01*
X129700000Y-56082500D02*
X132240000Y-56082500D01*
X134350000Y-55082500D02*
X132350000Y-55082500D01*
X137430000Y-56892500D02*
X139430000Y-56892500D01*
X132350000Y-55082500D02*
X132350000Y-56892500D01*
X140430000Y-49782500D02*
X141510000Y-49782500D01*
X147160000Y-56892500D02*
X129700000Y-56892500D01*
X144510000Y-56892500D02*
X144510000Y-55082500D01*
X139430000Y-56082500D02*
X142510000Y-56082500D01*
X135350000Y-49782500D02*
X136430000Y-49782500D01*
X147160000Y-48072500D02*
X147160000Y-56892500D01*
X140416841Y-49766679D02*
G75*
G03*
X136430000Y-49782500I-1986841J-1665821D01*
G01*
X135336841Y-49766679D02*
G75*
G03*
X131350000Y-49782500I-1986841J-1665821D01*
G01*
X145496841Y-49766679D02*
G75*
G03*
X141510000Y-49782500I-1986841J-1665821D01*
G01*
%TO.C,R7*%
X167867064Y-94515000D02*
X167412936Y-94515000D01*
X167867064Y-95985000D02*
X167412936Y-95985000D01*
%TO.C,R9*%
X167867064Y-104675000D02*
X167412936Y-104675000D01*
X167867064Y-106145000D02*
X167412936Y-106145000D01*
%TO.C,D4*%
X175180000Y-99195000D02*
X175180000Y-101465000D01*
X175180000Y-101465000D02*
X171120000Y-101465000D01*
X171120000Y-99195000D02*
X175180000Y-99195000D01*
%TO.C,D39*%
X180685000Y-71485000D02*
X176785000Y-71485000D01*
X180685000Y-69485000D02*
X180685000Y-71485000D01*
X180685000Y-69485000D02*
X176785000Y-69485000D01*
%TO.C,D18*%
X180685000Y-129810000D02*
X180685000Y-131810000D01*
X180685000Y-131810000D02*
X176785000Y-131810000D01*
X180685000Y-129810000D02*
X176785000Y-129810000D01*
%TO.C,R36*%
X167867064Y-76300000D02*
X167412936Y-76300000D01*
X167867064Y-74830000D02*
X167412936Y-74830000D01*
%TO.C,D36*%
X180685000Y-54245000D02*
X176785000Y-54245000D01*
X180685000Y-56245000D02*
X176785000Y-56245000D01*
X180685000Y-54245000D02*
X180685000Y-56245000D01*
%TO.C,D15*%
X180685000Y-114570000D02*
X176785000Y-114570000D01*
X180685000Y-116570000D02*
X176785000Y-116570000D01*
X180685000Y-114570000D02*
X180685000Y-116570000D01*
%TO.C,D7*%
X175180000Y-114435000D02*
X175180000Y-116705000D01*
X171120000Y-114435000D02*
X175180000Y-114435000D01*
X175180000Y-116705000D02*
X171120000Y-116705000D01*
%TO.C,D3*%
X171120000Y-94115000D02*
X175180000Y-94115000D01*
X175180000Y-94115000D02*
X175180000Y-96385000D01*
X175180000Y-96385000D02*
X171120000Y-96385000D01*
%TO.C,D31*%
X175180000Y-69350000D02*
X175180000Y-71620000D01*
X175180000Y-71620000D02*
X171120000Y-71620000D01*
X171120000Y-69350000D02*
X175180000Y-69350000D01*
%TO.C,D17*%
X180685000Y-124730000D02*
X176785000Y-124730000D01*
X180685000Y-126730000D02*
X176785000Y-126730000D01*
X180685000Y-124730000D02*
X180685000Y-126730000D01*
%TO.C,D42*%
X180685000Y-86725000D02*
X176785000Y-86725000D01*
X180685000Y-84725000D02*
X176785000Y-84725000D01*
X180685000Y-84725000D02*
X180685000Y-86725000D01*
%TO.C,R6*%
X145007064Y-79275000D02*
X144552936Y-79275000D01*
X145007064Y-80745000D02*
X144552936Y-80745000D01*
%TO.C,D16*%
X180685000Y-119650000D02*
X180685000Y-121650000D01*
X180685000Y-121650000D02*
X176785000Y-121650000D01*
X180685000Y-119650000D02*
X176785000Y-119650000D01*
%TO.C,D34*%
X171120000Y-84590000D02*
X175180000Y-84590000D01*
X175180000Y-86860000D02*
X171120000Y-86860000D01*
X175180000Y-84590000D02*
X175180000Y-86860000D01*
%TO.C,R11*%
X167867064Y-116305000D02*
X167412936Y-116305000D01*
X167867064Y-114835000D02*
X167412936Y-114835000D01*
%TO.C,D40*%
X180685000Y-76565000D02*
X176785000Y-76565000D01*
X180685000Y-74565000D02*
X176785000Y-74565000D01*
X180685000Y-74565000D02*
X180685000Y-76565000D01*
%TO.C,D38*%
X180685000Y-66405000D02*
X176785000Y-66405000D01*
X180685000Y-64405000D02*
X176785000Y-64405000D01*
X180685000Y-64405000D02*
X180685000Y-66405000D01*
%TO.C,R12*%
X167867064Y-119915000D02*
X167412936Y-119915000D01*
X167867064Y-121385000D02*
X167412936Y-121385000D01*
%TO.C,D12*%
X180685000Y-101330000D02*
X176785000Y-101330000D01*
X180685000Y-99330000D02*
X176785000Y-99330000D01*
X180685000Y-99330000D02*
X180685000Y-101330000D01*
%TO.C,D8*%
X175180000Y-119515000D02*
X175180000Y-121785000D01*
X171120000Y-119515000D02*
X175180000Y-119515000D01*
X175180000Y-121785000D02*
X171120000Y-121785000D01*
%TO.C,R31*%
X167867064Y-50900000D02*
X167412936Y-50900000D01*
X167867064Y-49430000D02*
X167412936Y-49430000D01*
%TO.C,J1*%
X120272500Y-93615000D02*
X120272500Y-95615000D01*
X122082500Y-91875000D02*
X122082500Y-112595000D01*
X120272500Y-100695000D02*
X122082500Y-100695000D01*
X122082500Y-110855000D02*
X122082500Y-108855000D01*
X119472500Y-94915000D02*
X120072500Y-94615000D01*
X121082500Y-95615000D02*
X121082500Y-98695000D01*
X121082500Y-90965000D02*
X121082500Y-93505000D01*
X120272500Y-108855000D02*
X120272500Y-110855000D01*
X121082500Y-113505000D02*
X121082500Y-110965000D01*
X127382500Y-96615000D02*
X127382500Y-97695000D01*
X122082500Y-108855000D02*
X120272500Y-108855000D01*
X120272500Y-95615000D02*
X122082500Y-95615000D01*
X127382500Y-112595000D02*
X127382500Y-111855000D01*
X120072500Y-94615000D02*
X119472500Y-94315000D01*
X120272500Y-90965000D02*
X129092500Y-90965000D01*
X127382500Y-92615000D02*
X127382500Y-91875000D01*
X129092500Y-90965000D02*
X129092500Y-113505000D01*
X122082500Y-103775000D02*
X120272500Y-103775000D01*
X120272500Y-110855000D02*
X122082500Y-110855000D01*
X127382500Y-101695000D02*
X127382500Y-102775000D01*
X121082500Y-105775000D02*
X121082500Y-108855000D01*
X120272500Y-103775000D02*
X120272500Y-105775000D01*
X121082500Y-100695000D02*
X121082500Y-103775000D01*
X127382500Y-106775000D02*
X127382500Y-107855000D01*
X120272500Y-98695000D02*
X120272500Y-100695000D01*
X127382500Y-91875000D02*
X122082500Y-91875000D01*
X122082500Y-100695000D02*
X122082500Y-98695000D01*
X119472500Y-94315000D02*
X119472500Y-94915000D01*
X122082500Y-98695000D02*
X120272500Y-98695000D01*
X129092500Y-113505000D02*
X120272500Y-113505000D01*
X122082500Y-95615000D02*
X122082500Y-93615000D01*
X122082500Y-112595000D02*
X127382500Y-112595000D01*
X122082500Y-93615000D02*
X120272500Y-93615000D01*
X122082500Y-105775000D02*
X122082500Y-103775000D01*
X120272500Y-105775000D02*
X122082500Y-105775000D01*
X120272500Y-113505000D02*
X120272500Y-90965000D01*
X127398321Y-96601841D02*
G75*
G03*
X127382500Y-92615000I-1665821J1986841D01*
G01*
X127398321Y-106761841D02*
G75*
G03*
X127382500Y-102775000I-1665821J1986841D01*
G01*
X127398321Y-111841841D02*
G75*
G03*
X127382500Y-107855000I-1665821J1986841D01*
G01*
X127398321Y-101681841D02*
G75*
G03*
X127382500Y-97695000I-1665821J1986841D01*
G01*
%TD*%
M02*
