%TF.GenerationSoftware,KiCad,Pcbnew,(5.99.0-9393-ga28cb98626)*%
%TF.CreationDate,2021-05-07T15:11:42-07:00*%
%TF.ProjectId,R_Switch,525f5377-6974-4636-982e-6b696361645f,B*%
%TF.SameCoordinates,Original*%
%TF.FileFunction,Copper,L1,Top*%
%TF.FilePolarity,Positive*%
%FSLAX46Y46*%
G04 Gerber Fmt 4.6, Leading zero omitted, Abs format (unit mm)*
G04 Created by KiCad (PCBNEW (5.99.0-9393-ga28cb98626)) date 2021-05-07 15:11:42*
%MOMM*%
%LPD*%
G01*
G04 APERTURE LIST*
G04 Aperture macros list*
%AMRoundRect*
0 Rectangle with rounded corners*
0 $1 Rounding radius*
0 $2 $3 $4 $5 $6 $7 $8 $9 X,Y pos of 4 corners*
0 Add a 4 corners polygon primitive as box body*
4,1,4,$2,$3,$4,$5,$6,$7,$8,$9,$2,$3,0*
0 Add four circle primitives for the rounded corners*
1,1,$1+$1,$2,$3*
1,1,$1+$1,$4,$5*
1,1,$1+$1,$6,$7*
1,1,$1+$1,$8,$9*
0 Add four rect primitives between the rounded corners*
20,1,$1+$1,$2,$3,$4,$5,0*
20,1,$1+$1,$4,$5,$6,$7,0*
20,1,$1+$1,$6,$7,$8,$9,0*
20,1,$1+$1,$8,$9,$2,$3,0*%
G04 Aperture macros list end*
%TA.AperFunction,SMDPad,CuDef*%
%ADD10RoundRect,0.150000X-0.825000X-0.150000X0.825000X-0.150000X0.825000X0.150000X-0.825000X0.150000X0*%
%TD*%
%TA.AperFunction,SMDPad,CuDef*%
%ADD11R,3.500000X1.800000*%
%TD*%
%TA.AperFunction,SMDPad,CuDef*%
%ADD12RoundRect,0.250000X-0.350000X-0.450000X0.350000X-0.450000X0.350000X0.450000X-0.350000X0.450000X0*%
%TD*%
%TA.AperFunction,SMDPad,CuDef*%
%ADD13RoundRect,0.150000X-0.875000X-0.150000X0.875000X-0.150000X0.875000X0.150000X-0.875000X0.150000X0*%
%TD*%
%TA.AperFunction,SMDPad,CuDef*%
%ADD14RoundRect,0.250000X0.350000X0.450000X-0.350000X0.450000X-0.350000X-0.450000X0.350000X-0.450000X0*%
%TD*%
%TA.AperFunction,ComponentPad*%
%ADD15R,1.700000X1.700000*%
%TD*%
%TA.AperFunction,ComponentPad*%
%ADD16O,1.700000X1.700000*%
%TD*%
%TA.AperFunction,SMDPad,CuDef*%
%ADD17RoundRect,0.250000X-0.475000X0.337500X-0.475000X-0.337500X0.475000X-0.337500X0.475000X0.337500X0*%
%TD*%
%TA.AperFunction,ComponentPad*%
%ADD18R,1.500000X1.050000*%
%TD*%
%TA.AperFunction,ComponentPad*%
%ADD19O,1.500000X1.050000*%
%TD*%
%TA.AperFunction,SMDPad,CuDef*%
%ADD20R,0.900000X1.200000*%
%TD*%
%TA.AperFunction,SMDPad,CuDef*%
%ADD21R,2.200000X1.200000*%
%TD*%
%TA.AperFunction,SMDPad,CuDef*%
%ADD22R,6.400000X5.800000*%
%TD*%
%TA.AperFunction,ComponentPad*%
%ADD23R,1.600000X1.600000*%
%TD*%
%TA.AperFunction,ComponentPad*%
%ADD24C,1.600000*%
%TD*%
%TA.AperFunction,SMDPad,CuDef*%
%ADD25RoundRect,0.250000X0.337500X0.475000X-0.337500X0.475000X-0.337500X-0.475000X0.337500X-0.475000X0*%
%TD*%
%TA.AperFunction,SMDPad,CuDef*%
%ADD26RoundRect,0.150000X-0.850000X-0.150000X0.850000X-0.150000X0.850000X0.150000X-0.850000X0.150000X0*%
%TD*%
%TA.AperFunction,ComponentPad*%
%ADD27RoundRect,0.249999X-1.550001X0.790001X-1.550001X-0.790001X1.550001X-0.790001X1.550001X0.790001X0*%
%TD*%
%TA.AperFunction,ComponentPad*%
%ADD28O,3.600000X2.080000*%
%TD*%
%TA.AperFunction,ComponentPad*%
%ADD29RoundRect,0.249999X-0.790001X-1.550001X0.790001X-1.550001X0.790001X1.550001X-0.790001X1.550001X0*%
%TD*%
%TA.AperFunction,ComponentPad*%
%ADD30O,2.080000X3.600000*%
%TD*%
%TA.AperFunction,ViaPad*%
%ADD31C,0.800000*%
%TD*%
%TA.AperFunction,Conductor*%
%ADD32C,0.508000*%
%TD*%
%TA.AperFunction,Conductor*%
%ADD33C,0.635000*%
%TD*%
%TA.AperFunction,Conductor*%
%ADD34C,1.270000*%
%TD*%
%TA.AperFunction,Conductor*%
%ADD35C,0.304800*%
%TD*%
G04 APERTURE END LIST*
D10*
%TO.P,Q7,1,S*%
%TO.N,GND*%
X167705000Y-116205000D03*
%TO.P,Q7,2,G*%
%TO.N,Net-(Q7-Pad2)*%
X167705000Y-117475000D03*
%TO.P,Q7,3,1*%
%TO.N,GND*%
X167705000Y-118745000D03*
%TO.P,Q7,4,G*%
%TO.N,Net-(Q7-Pad4)*%
X167705000Y-120015000D03*
%TO.P,Q7,5,D*%
%TO.N,Net-(D16-Pad1)*%
X172655000Y-120015000D03*
%TO.P,Q7,6,D*%
X172655000Y-118745000D03*
%TO.P,Q7,7,D*%
%TO.N,Net-(D15-Pad1)*%
X172655000Y-117475000D03*
%TO.P,Q7,8,D*%
X172655000Y-116205000D03*
%TD*%
D11*
%TO.P,D20,1,K*%
%TO.N,Net-(D12-Pad1)*%
X181570000Y-100330000D03*
%TO.P,D20,2,A*%
%TO.N,GND*%
X176570000Y-100330000D03*
%TD*%
D12*
%TO.P,R69,1*%
%TO.N,Net-(Q10-Pad2)*%
X139750000Y-68580000D03*
%TO.P,R69,2*%
%TO.N,+5V*%
X141750000Y-68580000D03*
%TD*%
%TO.P,R28,1*%
%TO.N,GND*%
X163100000Y-120015000D03*
%TO.P,R28,2*%
%TO.N,Net-(Q7-Pad4)*%
X165100000Y-120015000D03*
%TD*%
%TO.P,R63,1*%
%TO.N,Net-(J2-Pad4)*%
X152173775Y-122555000D03*
%TO.P,R63,2*%
%TO.N,+5V*%
X154173775Y-122555000D03*
%TD*%
D13*
%TO.P,U1,1,Vref/AN2/RA2*%
%TO.N,Net-(U1-Pad1)*%
X147750000Y-77470000D03*
%TO.P,U1,2,CMP1/AN3/RA3*%
%TO.N,Net-(U1-Pad2)*%
X147750000Y-78740000D03*
%TO.P,U1,3,TOCKI/CMP2/RA4*%
%TO.N,Net-(U1-Pad3)*%
X147750000Y-80010000D03*
%TO.P,U1,4,~MCLR~/Vpp/RA5*%
%TO.N,VPP*%
X147750000Y-81280000D03*
%TO.P,U1,5,VSS*%
%TO.N,GND*%
X147750000Y-82550000D03*
%TO.P,U1,6,RB0/INT*%
%TO.N,Net-(J2-Pad1)*%
X147750000Y-83820000D03*
%TO.P,U1,7,RB1/RX/DT*%
%TO.N,Net-(J2-Pad2)*%
X147750000Y-85090000D03*
%TO.P,U1,8,RB2/TX/CK*%
%TO.N,Net-(R58-Pad1)*%
X147750000Y-86360000D03*
%TO.P,U1,9,RB3/CCP1*%
%TO.N,Net-(J2-Pad3)*%
X147750000Y-87630000D03*
%TO.P,U1,10,RB4/PGM*%
%TO.N,Net-(J2-Pad4)*%
X157050000Y-87630000D03*
%TO.P,U1,11,RB5*%
%TO.N,Net-(R57-Pad1)*%
X157050000Y-86360000D03*
%TO.P,U1,12,RB6/T1OSC0/T1CKI/PGC*%
%TO.N,PGC*%
X157050000Y-85090000D03*
%TO.P,U1,13,RB7/T1OSI/PGD*%
%TO.N,PGD*%
X157050000Y-83820000D03*
%TO.P,U1,14,VDD*%
%TO.N,+5V*%
X157050000Y-82550000D03*
%TO.P,U1,15,CLKOUT/OSC2/RA6*%
%TO.N,Net-(J2-Pad5)*%
X157050000Y-81280000D03*
%TO.P,U1,16,CLKIN/OSC1/RA7*%
%TO.N,Net-(D2-Pad1)*%
X157050000Y-80010000D03*
%TO.P,U1,17,AN0/RA0*%
%TO.N,Net-(U1-Pad17)*%
X157050000Y-78740000D03*
%TO.P,U1,18,AN1/RA1*%
%TO.N,Net-(U1-Pad18)*%
X157050000Y-77470000D03*
%TD*%
D12*
%TO.P,R64,1*%
%TO.N,Net-(Q9-Pad2)*%
X139750000Y-60960000D03*
%TO.P,R64,2*%
%TO.N,+5V*%
X141750000Y-60960000D03*
%TD*%
D14*
%TO.P,R17,1*%
%TO.N,Net-(Q6-Pad2)*%
X165100000Y-104775000D03*
%TO.P,R17,2*%
%TO.N,Out_10*%
X163100000Y-104775000D03*
%TD*%
%TO.P,R39,1*%
%TO.N,Net-(Q1-Pad2)*%
X165100000Y-49530000D03*
%TO.P,R39,2*%
%TO.N,Out_0*%
X163100000Y-49530000D03*
%TD*%
D11*
%TO.P,D43,1,K*%
%TO.N,Net-(D35-Pad1)*%
X181570000Y-50165000D03*
%TO.P,D43,2,A*%
%TO.N,GND*%
X176570000Y-50165000D03*
%TD*%
%TO.P,D48,1,K*%
%TO.N,Net-(D40-Pad1)*%
X181570000Y-75565000D03*
%TO.P,D48,2,A*%
%TO.N,GND*%
X176570000Y-75565000D03*
%TD*%
D14*
%TO.P,R46,1*%
%TO.N,Net-(Q4-Pad4)*%
X165100000Y-87630000D03*
%TO.P,R46,2*%
%TO.N,Out_7*%
X163100000Y-87630000D03*
%TD*%
D12*
%TO.P,R23,1*%
%TO.N,GND*%
X163100000Y-97155000D03*
%TO.P,R23,2*%
%TO.N,Net-(Q5-Pad2)*%
X165100000Y-97155000D03*
%TD*%
D14*
%TO.P,R65,1*%
%TO.N,Net-(D51-Pad1)*%
X132860000Y-63500000D03*
%TO.P,R65,2*%
%TO.N,Net-(J7-Pad1)*%
X130860000Y-63500000D03*
%TD*%
D11*
%TO.P,D49,1,K*%
%TO.N,Net-(D41-Pad1)*%
X181570000Y-80645000D03*
%TO.P,D49,2,A*%
%TO.N,GND*%
X176570000Y-80645000D03*
%TD*%
D14*
%TO.P,R5,1*%
%TO.N,+5V*%
X143378775Y-125095000D03*
%TO.P,R5,2*%
%TO.N,Net-(J3-Pad5)*%
X141378775Y-125095000D03*
%TD*%
D12*
%TO.P,R60,1*%
%TO.N,Net-(J2-Pad1)*%
X152173775Y-114935000D03*
%TO.P,R60,2*%
%TO.N,+5V*%
X154173775Y-114935000D03*
%TD*%
%TO.P,R74,1*%
%TO.N,+5V*%
X148640000Y-60325000D03*
%TO.P,R74,2*%
%TO.N,PGC*%
X150640000Y-60325000D03*
%TD*%
D11*
%TO.P,D21,1,K*%
%TO.N,Net-(D13-Pad1)*%
X181570000Y-105410000D03*
%TO.P,D21,2,A*%
%TO.N,GND*%
X176570000Y-105410000D03*
%TD*%
D14*
%TO.P,R72,1*%
%TO.N,PGD*%
X150640000Y-70485000D03*
%TO.P,R72,2*%
%TO.N,Net-(Q10-Pad3)*%
X148640000Y-70485000D03*
%TD*%
D12*
%TO.P,R53,1*%
%TO.N,GND*%
X163100000Y-82550000D03*
%TO.P,R53,2*%
%TO.N,Net-(Q4-Pad2)*%
X165100000Y-82550000D03*
%TD*%
D10*
%TO.P,Q2,1,S*%
%TO.N,GND*%
X167705000Y-60960000D03*
%TO.P,Q2,2,G*%
%TO.N,Net-(Q2-Pad2)*%
X167705000Y-62230000D03*
%TO.P,Q2,3,1*%
%TO.N,GND*%
X167705000Y-63500000D03*
%TO.P,Q2,4,G*%
%TO.N,Net-(Q2-Pad4)*%
X167705000Y-64770000D03*
%TO.P,Q2,5,D*%
%TO.N,Net-(D38-Pad1)*%
X172655000Y-64770000D03*
%TO.P,Q2,6,D*%
X172655000Y-63500000D03*
%TO.P,Q2,7,D*%
%TO.N,Net-(D37-Pad1)*%
X172655000Y-62230000D03*
%TO.P,Q2,8,D*%
X172655000Y-60960000D03*
%TD*%
D12*
%TO.P,R48,1*%
%TO.N,GND*%
X163100000Y-54610000D03*
%TO.P,R48,2*%
%TO.N,Net-(Q1-Pad4)*%
X165100000Y-54610000D03*
%TD*%
D11*
%TO.P,D26,1,K*%
%TO.N,Net-(D18-Pad1)*%
X181570000Y-130810000D03*
%TO.P,D26,2,A*%
%TO.N,GND*%
X176570000Y-130810000D03*
%TD*%
D12*
%TO.P,R47,1*%
%TO.N,GND*%
X163100000Y-52070000D03*
%TO.P,R47,2*%
%TO.N,Net-(Q1-Pad2)*%
X165100000Y-52070000D03*
%TD*%
D10*
%TO.P,Q4,1,S*%
%TO.N,GND*%
X167705000Y-81280000D03*
%TO.P,Q4,2,G*%
%TO.N,Net-(Q4-Pad2)*%
X167705000Y-82550000D03*
%TO.P,Q4,3,1*%
%TO.N,GND*%
X167705000Y-83820000D03*
%TO.P,Q4,4,G*%
%TO.N,Net-(Q4-Pad4)*%
X167705000Y-85090000D03*
%TO.P,Q4,5,D*%
%TO.N,Net-(D42-Pad1)*%
X172655000Y-85090000D03*
%TO.P,Q4,6,D*%
X172655000Y-83820000D03*
%TO.P,Q4,7,D*%
%TO.N,Net-(D41-Pad1)*%
X172655000Y-82550000D03*
%TO.P,Q4,8,D*%
X172655000Y-81280000D03*
%TD*%
D11*
%TO.P,D24,1,K*%
%TO.N,Net-(D16-Pad1)*%
X181570000Y-120650000D03*
%TO.P,D24,2,A*%
%TO.N,GND*%
X176570000Y-120650000D03*
%TD*%
%TO.P,D25,1,K*%
%TO.N,Net-(D17-Pad1)*%
X181570000Y-125730000D03*
%TO.P,D25,2,A*%
%TO.N,GND*%
X176570000Y-125730000D03*
%TD*%
D14*
%TO.P,R16,1*%
%TO.N,Net-(Q5-Pad4)*%
X165100000Y-102235000D03*
%TO.P,R16,2*%
%TO.N,Out_9*%
X163100000Y-102235000D03*
%TD*%
%TO.P,R57,1*%
%TO.N,Net-(R57-Pad1)*%
X133802500Y-107315000D03*
%TO.P,R57,2*%
%TO.N,Net-(C4-Pad1)*%
X131802500Y-107315000D03*
%TD*%
%TO.P,R45,1*%
%TO.N,Net-(Q4-Pad2)*%
X165100000Y-80010000D03*
%TO.P,R45,2*%
%TO.N,Out_6*%
X163100000Y-80010000D03*
%TD*%
D15*
%TO.P,J3,1,Pin_1*%
%TO.N,Net-(J3-Pad1)*%
X137795000Y-114935000D03*
D16*
%TO.P,J3,2,Pin_2*%
%TO.N,Net-(J3-Pad2)*%
X137795000Y-117475000D03*
%TO.P,J3,3,Pin_3*%
%TO.N,Net-(J3-Pad3)*%
X137795000Y-120015000D03*
%TO.P,J3,4,Pin_4*%
%TO.N,Net-(J3-Pad4)*%
X137795000Y-122555000D03*
%TO.P,J3,5,Pin_5*%
%TO.N,Net-(J3-Pad5)*%
X137795000Y-125095000D03*
%TO.P,J3,6,Pin_6*%
%TO.N,GND*%
X137795000Y-127635000D03*
%TD*%
D14*
%TO.P,R18,1*%
%TO.N,Net-(Q6-Pad4)*%
X165100000Y-112395000D03*
%TO.P,R18,2*%
%TO.N,Out_11*%
X163100000Y-112395000D03*
%TD*%
%TO.P,R19,1*%
%TO.N,Net-(Q7-Pad2)*%
X165100000Y-114935000D03*
%TO.P,R19,2*%
%TO.N,Out_12*%
X163100000Y-114935000D03*
%TD*%
D11*
%TO.P,D22,1,K*%
%TO.N,Net-(D14-Pad1)*%
X181570000Y-110490000D03*
%TO.P,D22,2,A*%
%TO.N,GND*%
X176570000Y-110490000D03*
%TD*%
D12*
%TO.P,R68,1*%
%TO.N,Net-(Q9-Pad3)*%
X148640000Y-65405000D03*
%TO.P,R68,2*%
%TO.N,GND*%
X150640000Y-65405000D03*
%TD*%
%TO.P,R62,1*%
%TO.N,Net-(J2-Pad3)*%
X152173775Y-120015000D03*
%TO.P,R62,2*%
%TO.N,+5V*%
X154173775Y-120015000D03*
%TD*%
D17*
%TO.P,C3,1*%
%TO.N,+5V*%
X160020000Y-83015000D03*
%TO.P,C3,2*%
%TO.N,GND*%
X160020000Y-85090000D03*
%TD*%
D12*
%TO.P,R52,1*%
%TO.N,GND*%
X163100000Y-74930000D03*
%TO.P,R52,2*%
%TO.N,Net-(Q3-Pad4)*%
X165100000Y-74930000D03*
%TD*%
D15*
%TO.P,J2,1,Pin_1*%
%TO.N,Net-(J2-Pad1)*%
X149225000Y-114935000D03*
D16*
%TO.P,J2,2,Pin_2*%
%TO.N,Net-(J2-Pad2)*%
X149225000Y-117475000D03*
%TO.P,J2,3,Pin_3*%
%TO.N,Net-(J2-Pad3)*%
X149225000Y-120015000D03*
%TO.P,J2,4,Pin_4*%
%TO.N,Net-(J2-Pad4)*%
X149225000Y-122555000D03*
%TO.P,J2,5,Pin_5*%
%TO.N,Net-(J2-Pad5)*%
X149225000Y-125095000D03*
%TO.P,J2,6,Pin_6*%
%TO.N,GND*%
X149225000Y-127635000D03*
%TD*%
D18*
%TO.P,Q10,1,E*%
%TO.N,+5V*%
X144822500Y-69850000D03*
D19*
%TO.P,Q10,2,B*%
%TO.N,Net-(Q10-Pad2)*%
X144822500Y-71120000D03*
%TO.P,Q10,3,C*%
%TO.N,Net-(Q10-Pad3)*%
X144822500Y-72390000D03*
%TD*%
D12*
%TO.P,R50,1*%
%TO.N,GND*%
X163100000Y-64770000D03*
%TO.P,R50,2*%
%TO.N,Net-(Q2-Pad4)*%
X165100000Y-64770000D03*
%TD*%
D14*
%TO.P,R56,1*%
%TO.N,+5V*%
X133802500Y-99695000D03*
%TO.P,R56,2*%
%TO.N,Net-(C4-Pad1)*%
X131802500Y-99695000D03*
%TD*%
D11*
%TO.P,D23,1,K*%
%TO.N,Net-(D15-Pad1)*%
X181570000Y-115570000D03*
%TO.P,D23,2,A*%
%TO.N,GND*%
X176570000Y-115570000D03*
%TD*%
D12*
%TO.P,R75,1*%
%TO.N,GND*%
X148640000Y-67945000D03*
%TO.P,R75,2*%
%TO.N,PGD*%
X150640000Y-67945000D03*
%TD*%
D14*
%TO.P,R58,1*%
%TO.N,Net-(R58-Pad1)*%
X133802500Y-109855000D03*
%TO.P,R58,2*%
%TO.N,RX*%
X131802500Y-109855000D03*
%TD*%
D20*
%TO.P,D51,1,K*%
%TO.N,Net-(D51-Pad1)*%
X134655000Y-63500000D03*
%TO.P,D51,2,A*%
%TO.N,Net-(C5-Pad1)*%
X137955000Y-63500000D03*
%TD*%
D10*
%TO.P,Q8,1,S*%
%TO.N,GND*%
X167705000Y-126365000D03*
%TO.P,Q8,2,G*%
%TO.N,Net-(Q8-Pad2)*%
X167705000Y-127635000D03*
%TO.P,Q8,3,1*%
%TO.N,GND*%
X167705000Y-128905000D03*
%TO.P,Q8,4,G*%
%TO.N,Net-(Q8-Pad4)*%
X167705000Y-130175000D03*
%TO.P,Q8,5,D*%
%TO.N,Net-(D18-Pad1)*%
X172655000Y-130175000D03*
%TO.P,Q8,6,D*%
X172655000Y-128905000D03*
%TO.P,Q8,7,D*%
%TO.N,Net-(D17-Pad1)*%
X172655000Y-127635000D03*
%TO.P,Q8,8,D*%
X172655000Y-126365000D03*
%TD*%
D11*
%TO.P,D19,1,K*%
%TO.N,Net-(D11-Pad1)*%
X181570000Y-95250000D03*
%TO.P,D19,2,A*%
%TO.N,GND*%
X176570000Y-95250000D03*
%TD*%
D21*
%TO.P,U2,1,IN*%
%TO.N,Net-(C1-Pad1)*%
X136367501Y-85465000D03*
D22*
%TO.P,U2,2,GND*%
%TO.N,GND*%
X130067501Y-83185000D03*
D21*
%TO.P,U2,3,OUT*%
%TO.N,+5V*%
X136367501Y-80905000D03*
%TD*%
D12*
%TO.P,R27,1*%
%TO.N,GND*%
X163100000Y-117475000D03*
%TO.P,R27,2*%
%TO.N,Net-(Q7-Pad2)*%
X165100000Y-117475000D03*
%TD*%
D14*
%TO.P,R71,1*%
%TO.N,Net-(Q10-Pad2)*%
X141750000Y-71120000D03*
%TO.P,R71,2*%
%TO.N,Net-(C6-Pad1)*%
X139750000Y-71120000D03*
%TD*%
D20*
%TO.P,D52,1,K*%
%TO.N,Net-(D52-Pad1)*%
X134655000Y-71120000D03*
%TO.P,D52,2,A*%
%TO.N,Net-(C6-Pad1)*%
X137955000Y-71120000D03*
%TD*%
D23*
%TO.P,C1,1*%
%TO.N,Net-(C1-Pad1)*%
X136547613Y-89535000D03*
D24*
%TO.P,C1,2*%
%TO.N,GND*%
X134047613Y-89535000D03*
%TD*%
D14*
%TO.P,R70,1*%
%TO.N,Net-(D52-Pad1)*%
X132860000Y-71120000D03*
%TO.P,R70,2*%
%TO.N,Net-(J7-Pad2)*%
X130860000Y-71120000D03*
%TD*%
D11*
%TO.P,D1,1,K*%
%TO.N,Net-(C1-Pad1)*%
X137207500Y-94615000D03*
%TO.P,D1,2,A*%
%TO.N,+12V*%
X132207500Y-94615000D03*
%TD*%
D14*
%TO.P,R22,1*%
%TO.N,Net-(Q8-Pad4)*%
X165100000Y-132715000D03*
%TO.P,R22,2*%
%TO.N,Out_15*%
X163100000Y-132715000D03*
%TD*%
D11*
%TO.P,D44,1,K*%
%TO.N,Net-(D36-Pad1)*%
X181570000Y-55245000D03*
%TO.P,D44,2,A*%
%TO.N,GND*%
X176570000Y-55245000D03*
%TD*%
D14*
%TO.P,R55,1*%
%TO.N,Net-(C4-Pad1)*%
X133802500Y-104775000D03*
%TO.P,R55,2*%
%TO.N,TX*%
X131802500Y-104775000D03*
%TD*%
D12*
%TO.P,R26,1*%
%TO.N,GND*%
X163100000Y-109855000D03*
%TO.P,R26,2*%
%TO.N,Net-(Q6-Pad4)*%
X165100000Y-109855000D03*
%TD*%
D25*
%TO.P,C2,1*%
%TO.N,+5V*%
X135745001Y-78105000D03*
%TO.P,C2,2*%
%TO.N,GND*%
X133670001Y-78105000D03*
%TD*%
D10*
%TO.P,Q6,1,S*%
%TO.N,GND*%
X167705000Y-106045000D03*
%TO.P,Q6,2,G*%
%TO.N,Net-(Q6-Pad2)*%
X167705000Y-107315000D03*
%TO.P,Q6,3,1*%
%TO.N,GND*%
X167705000Y-108585000D03*
%TO.P,Q6,4,G*%
%TO.N,Net-(Q6-Pad4)*%
X167705000Y-109855000D03*
%TO.P,Q6,5,D*%
%TO.N,Net-(D14-Pad1)*%
X172655000Y-109855000D03*
%TO.P,Q6,6,D*%
X172655000Y-108585000D03*
%TO.P,Q6,7,D*%
%TO.N,Net-(D13-Pad1)*%
X172655000Y-107315000D03*
%TO.P,Q6,8,D*%
X172655000Y-106045000D03*
%TD*%
D12*
%TO.P,R24,1*%
%TO.N,GND*%
X163100000Y-99695000D03*
%TO.P,R24,2*%
%TO.N,Net-(Q5-Pad4)*%
X165100000Y-99695000D03*
%TD*%
D26*
%TO.P,U4,1,A0*%
%TO.N,Net-(U1-Pad17)*%
X152440000Y-93345000D03*
%TO.P,U4,2,A1*%
%TO.N,Net-(U1-Pad18)*%
X152440000Y-94615000D03*
%TO.P,U4,3,A2*%
%TO.N,Net-(U1-Pad1)*%
X152440000Y-95885000D03*
%TO.P,U4,4,~G2A*%
%TO.N,Net-(U1-Pad3)*%
X152440000Y-97155000D03*
%TO.P,U4,5,~G2B*%
%TO.N,GND*%
X152440000Y-98425000D03*
%TO.P,U4,6,G1*%
%TO.N,Net-(U1-Pad2)*%
X152440000Y-99695000D03*
%TO.P,U4,7,Y7*%
%TO.N,Out_15*%
X152440000Y-100965000D03*
%TO.P,U4,8,GND*%
%TO.N,GND*%
X152440000Y-102235000D03*
%TO.P,U4,9,Y6*%
%TO.N,Out_14*%
X157440000Y-102235000D03*
%TO.P,U4,10,Y5*%
%TO.N,Out_13*%
X157440000Y-100965000D03*
%TO.P,U4,11,Y4*%
%TO.N,Out_12*%
X157440000Y-99695000D03*
%TO.P,U4,12,Y3*%
%TO.N,Out_11*%
X157440000Y-98425000D03*
%TO.P,U4,13,Y2*%
%TO.N,Out_10*%
X157440000Y-97155000D03*
%TO.P,U4,14,Y1*%
%TO.N,Out_9*%
X157440000Y-95885000D03*
%TO.P,U4,15,Y0*%
%TO.N,Out_8*%
X157440000Y-94615000D03*
%TO.P,U4,16,VCC*%
%TO.N,+5V*%
X157440000Y-93345000D03*
%TD*%
D11*
%TO.P,D50,1,K*%
%TO.N,Net-(D42-Pad1)*%
X181570000Y-85725000D03*
%TO.P,D50,2,A*%
%TO.N,GND*%
X176570000Y-85725000D03*
%TD*%
D18*
%TO.P,Q9,1,E*%
%TO.N,+5V*%
X144822500Y-62230000D03*
D19*
%TO.P,Q9,2,B*%
%TO.N,Net-(Q9-Pad2)*%
X144822500Y-63500000D03*
%TO.P,Q9,3,C*%
%TO.N,Net-(Q9-Pad3)*%
X144822500Y-64770000D03*
%TD*%
D14*
%TO.P,R1,1*%
%TO.N,+5V*%
X143378775Y-114935000D03*
%TO.P,R1,2*%
%TO.N,Net-(J3-Pad1)*%
X141378775Y-114935000D03*
%TD*%
D10*
%TO.P,Q3,1,S*%
%TO.N,GND*%
X167705000Y-71120000D03*
%TO.P,Q3,2,G*%
%TO.N,Net-(Q3-Pad2)*%
X167705000Y-72390000D03*
%TO.P,Q3,3,1*%
%TO.N,GND*%
X167705000Y-73660000D03*
%TO.P,Q3,4,G*%
%TO.N,Net-(Q3-Pad4)*%
X167705000Y-74930000D03*
%TO.P,Q3,5,D*%
%TO.N,Net-(D40-Pad1)*%
X172655000Y-74930000D03*
%TO.P,Q3,6,D*%
X172655000Y-73660000D03*
%TO.P,Q3,7,D*%
%TO.N,Net-(D39-Pad1)*%
X172655000Y-72390000D03*
%TO.P,Q3,8,D*%
X172655000Y-71120000D03*
%TD*%
D14*
%TO.P,R3,1*%
%TO.N,+5V*%
X143378775Y-120015000D03*
%TO.P,R3,2*%
%TO.N,Net-(J3-Pad3)*%
X141378775Y-120015000D03*
%TD*%
D11*
%TO.P,D46,1,K*%
%TO.N,Net-(D38-Pad1)*%
X181570000Y-65405000D03*
%TO.P,D46,2,A*%
%TO.N,GND*%
X176570000Y-65405000D03*
%TD*%
D14*
%TO.P,R44,1*%
%TO.N,Net-(Q3-Pad4)*%
X165100000Y-77470000D03*
%TO.P,R44,2*%
%TO.N,Out_5*%
X163100000Y-77470000D03*
%TD*%
%TO.P,R20,1*%
%TO.N,Net-(Q7-Pad4)*%
X165100000Y-122555000D03*
%TO.P,R20,2*%
%TO.N,Out_13*%
X163100000Y-122555000D03*
%TD*%
D12*
%TO.P,R61,1*%
%TO.N,Net-(J2-Pad2)*%
X152173775Y-117475000D03*
%TO.P,R61,2*%
%TO.N,+5V*%
X154173775Y-117475000D03*
%TD*%
%TO.P,R73,1*%
%TO.N,Net-(Q10-Pad3)*%
X148640000Y-73025000D03*
%TO.P,R73,2*%
%TO.N,GND*%
X150640000Y-73025000D03*
%TD*%
D11*
%TO.P,D47,1,K*%
%TO.N,Net-(D39-Pad1)*%
X181570000Y-70485000D03*
%TO.P,D47,2,A*%
%TO.N,GND*%
X176570000Y-70485000D03*
%TD*%
D14*
%TO.P,R4,1*%
%TO.N,+5V*%
X143378775Y-122555000D03*
%TO.P,R4,2*%
%TO.N,Net-(J3-Pad4)*%
X141378775Y-122555000D03*
%TD*%
D12*
%TO.P,R51,1*%
%TO.N,GND*%
X163100000Y-72390000D03*
%TO.P,R51,2*%
%TO.N,Net-(Q3-Pad2)*%
X165100000Y-72390000D03*
%TD*%
D14*
%TO.P,R42,1*%
%TO.N,Net-(Q2-Pad4)*%
X165100000Y-67310000D03*
%TO.P,R42,2*%
%TO.N,Out_3*%
X163100000Y-67310000D03*
%TD*%
D25*
%TO.P,C6,1*%
%TO.N,Net-(C6-Pad1)*%
X137342500Y-68580000D03*
%TO.P,C6,2*%
%TO.N,GND*%
X135267500Y-68580000D03*
%TD*%
D12*
%TO.P,R29,1*%
%TO.N,GND*%
X163100000Y-127635000D03*
%TO.P,R29,2*%
%TO.N,Net-(Q8-Pad2)*%
X165100000Y-127635000D03*
%TD*%
D14*
%TO.P,R40,1*%
%TO.N,Net-(Q1-Pad4)*%
X165100000Y-57150000D03*
%TO.P,R40,2*%
%TO.N,Out_1*%
X163100000Y-57150000D03*
%TD*%
D25*
%TO.P,C4,1*%
%TO.N,Net-(C4-Pad1)*%
X133840000Y-102235000D03*
%TO.P,C4,2*%
%TO.N,GND*%
X131765000Y-102235000D03*
%TD*%
D14*
%TO.P,R66,1*%
%TO.N,Net-(Q9-Pad2)*%
X141750000Y-63500000D03*
%TO.P,R66,2*%
%TO.N,Net-(C5-Pad1)*%
X139750000Y-63500000D03*
%TD*%
D10*
%TO.P,Q1,1,S*%
%TO.N,GND*%
X167705000Y-50800000D03*
%TO.P,Q1,2,G*%
%TO.N,Net-(Q1-Pad2)*%
X167705000Y-52070000D03*
%TO.P,Q1,3,1*%
%TO.N,GND*%
X167705000Y-53340000D03*
%TO.P,Q1,4,G*%
%TO.N,Net-(Q1-Pad4)*%
X167705000Y-54610000D03*
%TO.P,Q1,5,D*%
%TO.N,Net-(D36-Pad1)*%
X172655000Y-54610000D03*
%TO.P,Q1,6,D*%
X172655000Y-53340000D03*
%TO.P,Q1,7,D*%
%TO.N,Net-(D35-Pad1)*%
X172655000Y-52070000D03*
%TO.P,Q1,8,D*%
X172655000Y-50800000D03*
%TD*%
%TO.P,Q5,1,S*%
%TO.N,GND*%
X167705000Y-95885000D03*
%TO.P,Q5,2,G*%
%TO.N,Net-(Q5-Pad2)*%
X167705000Y-97155000D03*
%TO.P,Q5,3,1*%
%TO.N,GND*%
X167705000Y-98425000D03*
%TO.P,Q5,4,G*%
%TO.N,Net-(Q5-Pad4)*%
X167705000Y-99695000D03*
%TO.P,Q5,5,D*%
%TO.N,Net-(D12-Pad1)*%
X172655000Y-99695000D03*
%TO.P,Q5,6,D*%
X172655000Y-98425000D03*
%TO.P,Q5,7,D*%
%TO.N,Net-(D11-Pad1)*%
X172655000Y-97155000D03*
%TO.P,Q5,8,D*%
X172655000Y-95885000D03*
%TD*%
D12*
%TO.P,R49,1*%
%TO.N,GND*%
X163100000Y-62230000D03*
%TO.P,R49,2*%
%TO.N,Net-(Q2-Pad2)*%
X165100000Y-62230000D03*
%TD*%
%TO.P,R30,1*%
%TO.N,GND*%
X163100000Y-130175000D03*
%TO.P,R30,2*%
%TO.N,Net-(Q8-Pad4)*%
X165100000Y-130175000D03*
%TD*%
%TO.P,R25,1*%
%TO.N,GND*%
X163100000Y-107315000D03*
%TO.P,R25,2*%
%TO.N,Net-(Q6-Pad2)*%
X165100000Y-107315000D03*
%TD*%
D14*
%TO.P,R41,1*%
%TO.N,Net-(Q2-Pad2)*%
X165100000Y-59690000D03*
%TO.P,R41,2*%
%TO.N,Out_2*%
X163100000Y-59690000D03*
%TD*%
D15*
%TO.P,J4,1,Pin_1*%
%TO.N,VPP*%
X140970000Y-77475000D03*
D16*
%TO.P,J4,2,Pin_2*%
%TO.N,+5V*%
X140970000Y-80015000D03*
%TO.P,J4,3,Pin_3*%
%TO.N,GND*%
X140970000Y-82555000D03*
%TO.P,J4,4,Pin_4*%
%TO.N,PGD*%
X140970000Y-85095000D03*
%TO.P,J4,5,Pin_5*%
%TO.N,PGC*%
X140970000Y-87635000D03*
%TD*%
D12*
%TO.P,R54,1*%
%TO.N,GND*%
X163100000Y-85090000D03*
%TO.P,R54,2*%
%TO.N,Net-(Q4-Pad4)*%
X165100000Y-85090000D03*
%TD*%
D11*
%TO.P,D45,1,K*%
%TO.N,Net-(D37-Pad1)*%
X181570000Y-60325000D03*
%TO.P,D45,2,A*%
%TO.N,GND*%
X176570000Y-60325000D03*
%TD*%
D14*
%TO.P,R43,1*%
%TO.N,Net-(Q3-Pad2)*%
X165100000Y-69850000D03*
%TO.P,R43,2*%
%TO.N,Out_4*%
X163100000Y-69850000D03*
%TD*%
%TO.P,R67,1*%
%TO.N,PGC*%
X150640000Y-62865000D03*
%TO.P,R67,2*%
%TO.N,Net-(Q9-Pad3)*%
X148640000Y-62865000D03*
%TD*%
%TO.P,R15,1*%
%TO.N,Net-(Q5-Pad2)*%
X165100000Y-94615000D03*
%TO.P,R15,2*%
%TO.N,Out_8*%
X163100000Y-94615000D03*
%TD*%
D25*
%TO.P,C5,1*%
%TO.N,Net-(C5-Pad1)*%
X137342500Y-60960000D03*
%TO.P,C5,2*%
%TO.N,GND*%
X135267500Y-60960000D03*
%TD*%
D12*
%TO.P,R59,1*%
%TO.N,Net-(J2-Pad5)*%
X152173775Y-125095000D03*
%TO.P,R59,2*%
%TO.N,+5V*%
X154173775Y-125095000D03*
%TD*%
D14*
%TO.P,R2,1*%
%TO.N,+5V*%
X143378775Y-117475000D03*
%TO.P,R2,2*%
%TO.N,Net-(J3-Pad2)*%
X141378775Y-117475000D03*
%TD*%
D26*
%TO.P,U3,1,A0*%
%TO.N,Net-(U1-Pad17)*%
X152440000Y-48260000D03*
%TO.P,U3,2,A1*%
%TO.N,Net-(U1-Pad18)*%
X152440000Y-49530000D03*
%TO.P,U3,3,A2*%
%TO.N,Net-(U1-Pad1)*%
X152440000Y-50800000D03*
%TO.P,U3,4,~G2A*%
%TO.N,Net-(U1-Pad3)*%
X152440000Y-52070000D03*
%TO.P,U3,5,~G2B*%
%TO.N,Net-(U1-Pad2)*%
X152440000Y-53340000D03*
%TO.P,U3,6,G1*%
%TO.N,+5V*%
X152440000Y-54610000D03*
%TO.P,U3,7,Y7*%
%TO.N,Out_7*%
X152440000Y-55880000D03*
%TO.P,U3,8,GND*%
%TO.N,GND*%
X152440000Y-57150000D03*
%TO.P,U3,9,Y6*%
%TO.N,Out_6*%
X157440000Y-57150000D03*
%TO.P,U3,10,Y5*%
%TO.N,Out_5*%
X157440000Y-55880000D03*
%TO.P,U3,11,Y4*%
%TO.N,Out_4*%
X157440000Y-54610000D03*
%TO.P,U3,12,Y3*%
%TO.N,Out_3*%
X157440000Y-53340000D03*
%TO.P,U3,13,Y2*%
%TO.N,Out_2*%
X157440000Y-52070000D03*
%TO.P,U3,14,Y1*%
%TO.N,Out_1*%
X157440000Y-50800000D03*
%TO.P,U3,15,Y0*%
%TO.N,Out_0*%
X157440000Y-49530000D03*
%TO.P,U3,16,VCC*%
%TO.N,+5V*%
X157440000Y-48260000D03*
%TD*%
D14*
%TO.P,R21,1*%
%TO.N,Net-(Q8-Pad2)*%
X165100000Y-125095000D03*
%TO.P,R21,2*%
%TO.N,Out_14*%
X163100000Y-125095000D03*
%TD*%
D27*
%TO.P,J5,1,Pin_1*%
%TO.N,Net-(D35-Pad1)*%
X186690000Y-50165000D03*
D28*
%TO.P,J5,2,Pin_2*%
%TO.N,Net-(D36-Pad1)*%
X186690000Y-55245000D03*
%TO.P,J5,3,Pin_3*%
%TO.N,Net-(D37-Pad1)*%
X186690000Y-60325000D03*
%TO.P,J5,4,Pin_4*%
%TO.N,Net-(D38-Pad1)*%
X186690000Y-65405000D03*
%TO.P,J5,5,Pin_5*%
%TO.N,Net-(D39-Pad1)*%
X186690000Y-70485000D03*
%TO.P,J5,6,Pin_6*%
%TO.N,Net-(D40-Pad1)*%
X186690000Y-75565000D03*
%TO.P,J5,7,Pin_7*%
%TO.N,Net-(D41-Pad1)*%
X186690000Y-80645000D03*
%TO.P,J5,8,Pin_8*%
%TO.N,Net-(D42-Pad1)*%
X186690000Y-85725000D03*
%TD*%
D27*
%TO.P,J6,1,Pin_1*%
%TO.N,Net-(D11-Pad1)*%
X186690000Y-95250000D03*
D28*
%TO.P,J6,2,Pin_2*%
%TO.N,Net-(D12-Pad1)*%
X186690000Y-100330000D03*
%TO.P,J6,3,Pin_3*%
%TO.N,Net-(D13-Pad1)*%
X186690000Y-105410000D03*
%TO.P,J6,4,Pin_4*%
%TO.N,Net-(D14-Pad1)*%
X186690000Y-110490000D03*
%TO.P,J6,5,Pin_5*%
%TO.N,Net-(D15-Pad1)*%
X186690000Y-115570000D03*
%TO.P,J6,6,Pin_6*%
%TO.N,Net-(D16-Pad1)*%
X186690000Y-120650000D03*
%TO.P,J6,7,Pin_7*%
%TO.N,Net-(D17-Pad1)*%
X186690000Y-125730000D03*
%TO.P,J6,8,Pin_8*%
%TO.N,Net-(D18-Pad1)*%
X186690000Y-130810000D03*
%TD*%
D29*
%TO.P,J7,1,Pin_1*%
%TO.N,Net-(J7-Pad1)*%
X133350000Y-51982500D03*
D30*
%TO.P,J7,2,Pin_2*%
%TO.N,Net-(J7-Pad2)*%
X138430000Y-51982500D03*
%TO.P,J7,3,Pin_3*%
%TO.N,GND*%
X143510000Y-51982500D03*
%TD*%
D27*
%TO.P,J1,1,Pin_1*%
%TO.N,+12V*%
X125182500Y-94615000D03*
D28*
%TO.P,J1,2,Pin_2*%
%TO.N,GND*%
X125182500Y-99695000D03*
%TO.P,J1,3,Pin_3*%
%TO.N,TX*%
X125182500Y-104775000D03*
%TO.P,J1,4,Pin_4*%
%TO.N,RX*%
X125182500Y-109855000D03*
%TD*%
D31*
%TO.N,GND*%
X163100000Y-83725000D03*
X150777589Y-74577589D03*
X178435000Y-50165000D03*
X163195000Y-128905000D03*
X163100000Y-53245000D03*
X178435000Y-125730000D03*
X178435000Y-60325000D03*
X178435000Y-95250000D03*
X178435000Y-105410000D03*
X158750000Y-84455000D03*
X178435000Y-65405000D03*
X146050000Y-83185000D03*
X147320000Y-67945000D03*
X178435000Y-110490000D03*
X178435000Y-70485000D03*
X178435000Y-120650000D03*
X163100000Y-118650000D03*
X178435000Y-75565000D03*
X153670000Y-57150000D03*
X163100000Y-73565000D03*
X178435000Y-130810000D03*
X178435000Y-55245000D03*
X178435000Y-115570000D03*
X163100000Y-98330000D03*
X163100000Y-108490000D03*
X129540000Y-78105000D03*
X178435000Y-100330000D03*
X178435000Y-85725000D03*
X178435000Y-80645000D03*
X163100000Y-63405000D03*
%TO.N,+5V*%
X157480000Y-46990000D03*
X158750000Y-76835000D03*
X143510000Y-112395000D03*
X139700000Y-99695000D03*
X154305000Y-112395000D03*
X142240000Y-73025000D03*
X151130000Y-54610000D03*
%TO.N,Net-(D2-Pad1)*%
X155575000Y-80010000D03*
%TO.N,Net-(J2-Pad5)*%
X155575000Y-81280000D03*
X146050000Y-81310000D03*
%TO.N,Net-(J2-Pad4)*%
X156845000Y-88900000D03*
X146050000Y-88900000D03*
%TO.N,PGC*%
X155575000Y-85090000D03*
X151765000Y-62865000D03*
X155575000Y-63500000D03*
%TO.N,PGD*%
X156327410Y-70485000D03*
X155575000Y-83820000D03*
X151663536Y-70485000D03*
%TO.N,VPP*%
X142240000Y-81280000D03*
X149860000Y-82330990D03*
%TO.N,Out_7*%
X151130000Y-55880000D03*
X155575000Y-55880000D03*
%TO.N,Net-(R57-Pad1)*%
X155575000Y-86360000D03*
X143510000Y-87630000D03*
%TO.N,Net-(R58-Pad1)*%
X143510000Y-86360000D03*
X146685000Y-86360000D03*
%TO.N,Net-(U1-Pad18)*%
X156227224Y-77610609D03*
X153772965Y-77572965D03*
%TO.N,Net-(U1-Pad17)*%
X152400000Y-78740000D03*
X155575000Y-78740000D03*
%TO.N,Net-(U1-Pad3)*%
X154420974Y-75317410D03*
X146050000Y-75812599D03*
%TO.N,Net-(U1-Pad2)*%
X151130000Y-99695000D03*
X144780000Y-99695000D03*
X148590000Y-53340000D03*
X153552590Y-53340000D03*
X149225000Y-78740000D03*
X144780000Y-78740000D03*
%TO.N,Net-(U1-Pad1)*%
X151403240Y-77625830D03*
X149225000Y-77470000D03*
X151130000Y-50800000D03*
X149225000Y-50800000D03*
%TD*%
D32*
%TO.N,GND*%
X163100000Y-108490000D02*
X163100000Y-107315000D01*
D33*
X167705000Y-50800000D02*
X169545000Y-50800000D01*
X136525000Y-64770000D02*
X136525000Y-62217500D01*
X154940000Y-92710000D02*
X158750000Y-88900000D01*
D34*
X176570000Y-125730000D02*
X178435000Y-125730000D01*
D33*
X167705000Y-53340000D02*
X163195000Y-53340000D01*
X167705000Y-71120000D02*
X169545000Y-71120000D01*
D34*
X129540000Y-82657499D02*
X130067501Y-83185000D01*
D32*
X127722500Y-102235000D02*
X125182500Y-99695000D01*
D34*
X176570000Y-50165000D02*
X178435000Y-50165000D01*
D33*
X135255000Y-68592500D02*
X135267500Y-68580000D01*
D35*
X149860000Y-102235000D02*
X152440000Y-102235000D01*
D33*
X167705000Y-98425000D02*
X163195000Y-98425000D01*
D32*
X158750000Y-84455000D02*
X159385000Y-84455000D01*
D35*
X149860000Y-98425000D02*
X149860000Y-102235000D01*
D33*
X150640000Y-65405000D02*
X150640000Y-65945000D01*
D34*
X176570000Y-75565000D02*
X178435000Y-75565000D01*
D33*
X158750000Y-88900000D02*
X160020000Y-88900000D01*
D32*
X163100000Y-118650000D02*
X163100000Y-117475000D01*
D33*
X167705000Y-81280000D02*
X169545000Y-81280000D01*
D34*
X176570000Y-115570000D02*
X178435000Y-115570000D01*
X176570000Y-55245000D02*
X178435000Y-55245000D01*
D32*
X147750000Y-82550000D02*
X146685000Y-82550000D01*
X159385000Y-84455000D02*
X160020000Y-85090000D01*
D33*
X167705000Y-73660000D02*
X163195000Y-73660000D01*
X160020000Y-88900000D02*
X160020000Y-85090000D01*
X169545000Y-108585000D02*
X167705000Y-108585000D01*
X163830000Y-128905000D02*
X163195000Y-128905000D01*
D34*
X134047613Y-89535000D02*
X131445000Y-89535000D01*
D32*
X163100000Y-83725000D02*
X163100000Y-82550000D01*
D33*
X163195000Y-108585000D02*
X163100000Y-108490000D01*
D32*
X146685000Y-82550000D02*
X146050000Y-83185000D01*
D33*
X169545000Y-83820000D02*
X167705000Y-83820000D01*
X153670000Y-57150000D02*
X152440000Y-57150000D01*
X169545000Y-128905000D02*
X167705000Y-128905000D01*
X142327500Y-51982500D02*
X135267500Y-59042500D01*
X133670001Y-77149999D02*
X136525000Y-74295000D01*
X167705000Y-118745000D02*
X163195000Y-118745000D01*
D34*
X138430000Y-83185000D02*
X130067501Y-83185000D01*
X149225000Y-127635000D02*
X137795000Y-127635000D01*
D33*
X163195000Y-63500000D02*
X163100000Y-63405000D01*
X135267500Y-68580000D02*
X135267500Y-66027500D01*
X169545000Y-53340000D02*
X167705000Y-53340000D01*
X169545000Y-73660000D02*
X167705000Y-73660000D01*
X152440000Y-98425000D02*
X154305000Y-98425000D01*
X163195000Y-83820000D02*
X163100000Y-83725000D01*
X169545000Y-98425000D02*
X167705000Y-98425000D01*
D34*
X178435000Y-130810000D02*
X176570000Y-130810000D01*
D32*
X163100000Y-109855000D02*
X163100000Y-108490000D01*
D35*
X150640000Y-73025000D02*
X150640000Y-74440000D01*
D34*
X131445000Y-78105000D02*
X133670001Y-78105000D01*
D33*
X133670001Y-78105000D02*
X133670001Y-77149999D01*
X135267500Y-66027500D02*
X136525000Y-64770000D01*
X169545000Y-63500000D02*
X167705000Y-63500000D01*
D32*
X131765000Y-102235000D02*
X127722500Y-102235000D01*
D33*
X150640000Y-65945000D02*
X148640000Y-67945000D01*
X136525000Y-70485000D02*
X135890000Y-69850000D01*
X163195000Y-53340000D02*
X163100000Y-53245000D01*
X169545000Y-60960000D02*
X169545000Y-63500000D01*
X163195000Y-128905000D02*
X163100000Y-128810000D01*
D35*
X150640000Y-74440000D02*
X150777589Y-74577589D01*
D34*
X130067501Y-79482499D02*
X131445000Y-78105000D01*
D33*
X169545000Y-71120000D02*
X169545000Y-73660000D01*
D35*
X152440000Y-98425000D02*
X149860000Y-98425000D01*
D33*
X167705000Y-95885000D02*
X169545000Y-95885000D01*
X167705000Y-126365000D02*
X169545000Y-126365000D01*
D32*
X163100000Y-52070000D02*
X163100000Y-53245000D01*
D34*
X129540000Y-78105000D02*
X129540000Y-82657499D01*
D33*
X135267500Y-59042500D02*
X135267500Y-60960000D01*
D34*
X176570000Y-60325000D02*
X178435000Y-60325000D01*
D33*
X147320000Y-67945000D02*
X148640000Y-67945000D01*
D34*
X139060000Y-82555000D02*
X138430000Y-83185000D01*
X130067501Y-83185000D02*
X130067501Y-79482499D01*
D33*
X163195000Y-118745000D02*
X163100000Y-118650000D01*
X169545000Y-126365000D02*
X169545000Y-128905000D01*
D34*
X176570000Y-95250000D02*
X178435000Y-95250000D01*
X130067501Y-88157501D02*
X130067501Y-83185000D01*
D32*
X163100000Y-130175000D02*
X163100000Y-128810000D01*
X163100000Y-120015000D02*
X163100000Y-118650000D01*
X163100000Y-62230000D02*
X163100000Y-63405000D01*
D33*
X163195000Y-73660000D02*
X163100000Y-73565000D01*
D32*
X163100000Y-73565000D02*
X163100000Y-72390000D01*
X163100000Y-53245000D02*
X163100000Y-54610000D01*
D33*
X135255000Y-69850000D02*
X135255000Y-68592500D01*
X167705000Y-60960000D02*
X169545000Y-60960000D01*
X154940000Y-97790000D02*
X154940000Y-92710000D01*
D32*
X163100000Y-74930000D02*
X163100000Y-73565000D01*
D33*
X143510000Y-51982500D02*
X142327500Y-51982500D01*
X167705000Y-116205000D02*
X169545000Y-116205000D01*
D32*
X163100000Y-63405000D02*
X163100000Y-64770000D01*
D33*
X169545000Y-116205000D02*
X169545000Y-118745000D01*
D34*
X140970000Y-82555000D02*
X139060000Y-82555000D01*
D33*
X169545000Y-95885000D02*
X169545000Y-98425000D01*
D32*
X163100000Y-128810000D02*
X163100000Y-127635000D01*
D34*
X176570000Y-85725000D02*
X178435000Y-85725000D01*
X176570000Y-120650000D02*
X178435000Y-120650000D01*
D33*
X169545000Y-81280000D02*
X169545000Y-83820000D01*
X136525000Y-74295000D02*
X136525000Y-70485000D01*
X169545000Y-118745000D02*
X167705000Y-118745000D01*
D34*
X176570000Y-100330000D02*
X178435000Y-100330000D01*
D33*
X163195000Y-98425000D02*
X163100000Y-98330000D01*
X136525000Y-62217500D02*
X135267500Y-60960000D01*
D34*
X176570000Y-105410000D02*
X178435000Y-105410000D01*
D33*
X167705000Y-63500000D02*
X163195000Y-63500000D01*
D32*
X163100000Y-98330000D02*
X163100000Y-97155000D01*
D33*
X167705000Y-83820000D02*
X163195000Y-83820000D01*
D34*
X176570000Y-110490000D02*
X178435000Y-110490000D01*
D32*
X163100000Y-85090000D02*
X163100000Y-83725000D01*
D33*
X169545000Y-50800000D02*
X169545000Y-53340000D01*
D34*
X176570000Y-80645000D02*
X178435000Y-80645000D01*
D33*
X167705000Y-108585000D02*
X163195000Y-108585000D01*
X135890000Y-69850000D02*
X135255000Y-69850000D01*
X154305000Y-98425000D02*
X154940000Y-97790000D01*
X167705000Y-128905000D02*
X163195000Y-128905000D01*
X169545000Y-106045000D02*
X169545000Y-108585000D01*
D34*
X131445000Y-89535000D02*
X130067501Y-88157501D01*
D32*
X163100000Y-99695000D02*
X163100000Y-98330000D01*
D34*
X176570000Y-70485000D02*
X178435000Y-70485000D01*
X176570000Y-65405000D02*
X178435000Y-65405000D01*
D33*
X167705000Y-106045000D02*
X169545000Y-106045000D01*
D34*
%TO.N,Net-(C1-Pad1)*%
X137207500Y-90194887D02*
X136547613Y-89535000D01*
X136547613Y-89535000D02*
X136547613Y-85645112D01*
X136547613Y-85645112D02*
X136367501Y-85465000D01*
X137207500Y-94615000D02*
X137207500Y-90194887D01*
D33*
%TO.N,+5V*%
X161290000Y-83185000D02*
X161120000Y-83015000D01*
X137257501Y-80015000D02*
X137257501Y-78007499D01*
D32*
X143552500Y-68580000D02*
X144822500Y-69850000D01*
D33*
X157480000Y-48220000D02*
X157440000Y-48260000D01*
X154173775Y-114935000D02*
X154173775Y-112526225D01*
X143378775Y-117475000D02*
X143378775Y-114935000D01*
X154173775Y-112526225D02*
X154305000Y-112395000D01*
X143510000Y-114803775D02*
X143378775Y-114935000D01*
X154173775Y-122555000D02*
X154173775Y-120015000D01*
X137257501Y-78007499D02*
X142240000Y-73025000D01*
X147955000Y-60325000D02*
X146050000Y-62230000D01*
X148640000Y-60325000D02*
X147955000Y-60325000D01*
D32*
X143020000Y-62230000D02*
X141750000Y-60960000D01*
D33*
X157050000Y-82550000D02*
X159555000Y-82550000D01*
X143378775Y-122555000D02*
X143378775Y-120015000D01*
X158750000Y-81745000D02*
X160020000Y-83015000D01*
X146050000Y-62230000D02*
X144822500Y-62230000D01*
X159555000Y-82550000D02*
X160020000Y-83015000D01*
D32*
X144822500Y-62230000D02*
X143020000Y-62230000D01*
D33*
X143378775Y-120015000D02*
X143378775Y-117475000D01*
X154173775Y-117475000D02*
X154173775Y-114935000D01*
D34*
X137257501Y-80015000D02*
X136367501Y-80905000D01*
X136367501Y-80905000D02*
X136367501Y-78727500D01*
D33*
X143510000Y-112395000D02*
X143510000Y-114803775D01*
X154173775Y-120015000D02*
X154173775Y-117475000D01*
D34*
X140970000Y-80015000D02*
X137257501Y-80015000D01*
X136367501Y-78727500D02*
X135745001Y-78105000D01*
D32*
X141750000Y-68580000D02*
X143552500Y-68580000D01*
D33*
X157480000Y-46990000D02*
X157480000Y-48220000D01*
D35*
X133802500Y-99695000D02*
X139700000Y-99695000D01*
D33*
X158750000Y-76835000D02*
X158750000Y-81745000D01*
X161290000Y-89495000D02*
X161290000Y-83185000D01*
X161120000Y-83015000D02*
X160020000Y-83015000D01*
X143378775Y-125095000D02*
X143378775Y-122555000D01*
X157440000Y-93345000D02*
X161290000Y-89495000D01*
X154173775Y-125095000D02*
X154173775Y-122555000D01*
D35*
X152440000Y-54610000D02*
X151130000Y-54610000D01*
D32*
%TO.N,Net-(C4-Pad1)*%
X133840000Y-101732500D02*
X131802500Y-99695000D01*
X131802500Y-107315000D02*
X131802500Y-106775000D01*
X133840000Y-102235000D02*
X133840000Y-101732500D01*
X131802500Y-106775000D02*
X133802500Y-104775000D01*
X133802500Y-102272500D02*
X133840000Y-102235000D01*
X133802500Y-104775000D02*
X133802500Y-102272500D01*
%TO.N,Net-(C5-Pad1)*%
X139750000Y-63500000D02*
X137955000Y-63500000D01*
X137955000Y-61572500D02*
X137342500Y-60960000D01*
X137955000Y-63500000D02*
X137955000Y-61572500D01*
%TO.N,Net-(C6-Pad1)*%
X137955000Y-69192500D02*
X137342500Y-68580000D01*
X137955000Y-71120000D02*
X137955000Y-69192500D01*
X139750000Y-71120000D02*
X137955000Y-71120000D01*
D34*
%TO.N,+12V*%
X125182500Y-94615000D02*
X132207500Y-94615000D01*
D35*
%TO.N,Net-(D2-Pad1)*%
X155575000Y-80010000D02*
X157050000Y-80010000D01*
D33*
%TO.N,Net-(D11-Pad1)*%
X172655000Y-97155000D02*
X172655000Y-95885000D01*
D34*
X181570000Y-95250000D02*
X181570000Y-93940000D01*
X180340000Y-92710000D02*
X173990000Y-92710000D01*
X181570000Y-93940000D02*
X180340000Y-92710000D01*
X172655000Y-94045000D02*
X172655000Y-95885000D01*
X173990000Y-92710000D02*
X172655000Y-94045000D01*
X181570000Y-95250000D02*
X186690000Y-95250000D01*
%TO.N,Net-(D12-Pad1)*%
X181570000Y-100330000D02*
X181570000Y-99020000D01*
X175260000Y-97790000D02*
X174625000Y-98425000D01*
X180340000Y-97790000D02*
X175260000Y-97790000D01*
X181570000Y-100330000D02*
X186690000Y-100330000D01*
X174625000Y-98425000D02*
X172655000Y-98425000D01*
D33*
X172655000Y-99695000D02*
X172655000Y-98425000D01*
D34*
X181570000Y-99020000D02*
X180340000Y-97790000D01*
%TO.N,Net-(D13-Pad1)*%
X181570000Y-105410000D02*
X186690000Y-105410000D01*
X180340000Y-102870000D02*
X173990000Y-102870000D01*
D33*
X172655000Y-107315000D02*
X172655000Y-106045000D01*
D34*
X181570000Y-105410000D02*
X181570000Y-104100000D01*
X172655000Y-104205000D02*
X172655000Y-106045000D01*
X173990000Y-102870000D02*
X172655000Y-104205000D01*
X181570000Y-104100000D02*
X180340000Y-102870000D01*
D33*
%TO.N,Net-(D14-Pad1)*%
X172655000Y-108585000D02*
X172655000Y-109855000D01*
D34*
X173355000Y-109855000D02*
X172655000Y-109855000D01*
X181570000Y-108545000D02*
X180975000Y-107950000D01*
X175260000Y-107950000D02*
X173355000Y-109855000D01*
X181570000Y-110490000D02*
X186690000Y-110490000D01*
X181570000Y-110490000D02*
X181570000Y-108545000D01*
X180975000Y-107950000D02*
X175260000Y-107950000D01*
%TO.N,Net-(D15-Pad1)*%
X173990000Y-113030000D02*
X172655000Y-114365000D01*
X181570000Y-115570000D02*
X186690000Y-115570000D01*
X180340000Y-113030000D02*
X173990000Y-113030000D01*
D33*
X172655000Y-117475000D02*
X172655000Y-116205000D01*
D34*
X181570000Y-114260000D02*
X180340000Y-113030000D01*
X181570000Y-115570000D02*
X181570000Y-114260000D01*
X172655000Y-114365000D02*
X172655000Y-116205000D01*
%TO.N,Net-(D16-Pad1)*%
X181570000Y-119340000D02*
X180340000Y-118110000D01*
D33*
X172655000Y-118745000D02*
X172655000Y-120015000D01*
D34*
X181570000Y-120650000D02*
X181570000Y-119340000D01*
X174560000Y-118110000D02*
X172655000Y-120015000D01*
X180340000Y-118110000D02*
X174560000Y-118110000D01*
X181570000Y-120650000D02*
X186690000Y-120650000D01*
%TO.N,Net-(D17-Pad1)*%
X172655000Y-124525000D02*
X172655000Y-126365000D01*
D33*
X172655000Y-127635000D02*
X172655000Y-126365000D01*
D34*
X181570000Y-123785000D02*
X180975000Y-123190000D01*
X180975000Y-123190000D02*
X173990000Y-123190000D01*
X181570000Y-125730000D02*
X186690000Y-125730000D01*
X181570000Y-125730000D02*
X181570000Y-123785000D01*
X173990000Y-123190000D02*
X172655000Y-124525000D01*
%TO.N,Net-(D18-Pad1)*%
X180340000Y-128270000D02*
X174560000Y-128270000D01*
X181570000Y-130810000D02*
X186690000Y-130810000D01*
X174560000Y-128270000D02*
X172655000Y-130175000D01*
D33*
X172655000Y-128905000D02*
X172655000Y-130175000D01*
D34*
X181570000Y-129500000D02*
X180340000Y-128270000D01*
X181570000Y-130810000D02*
X181570000Y-129500000D01*
%TO.N,Net-(D35-Pad1)*%
X180340000Y-47625000D02*
X173990000Y-47625000D01*
X181570000Y-50165000D02*
X186690000Y-50165000D01*
X181570000Y-48855000D02*
X180340000Y-47625000D01*
X181570000Y-50165000D02*
X181570000Y-48855000D01*
D33*
X172655000Y-52070000D02*
X172655000Y-50800000D01*
D34*
X172655000Y-48960000D02*
X172655000Y-50800000D01*
X173990000Y-47625000D02*
X172655000Y-48960000D01*
%TO.N,Net-(D36-Pad1)*%
X181570000Y-55245000D02*
X181570000Y-53935000D01*
X174560000Y-52705000D02*
X172655000Y-54610000D01*
X181570000Y-55245000D02*
X186690000Y-55245000D01*
D33*
X172655000Y-53340000D02*
X172655000Y-54610000D01*
D34*
X181570000Y-53935000D02*
X180340000Y-52705000D01*
X180340000Y-52705000D02*
X174560000Y-52705000D01*
%TO.N,Net-(D37-Pad1)*%
X181570000Y-60325000D02*
X181570000Y-59015000D01*
X180340000Y-57785000D02*
X173990000Y-57785000D01*
X181570000Y-60325000D02*
X186690000Y-60325000D01*
X172655000Y-59120000D02*
X172655000Y-60960000D01*
X181570000Y-59015000D02*
X180340000Y-57785000D01*
D33*
X172655000Y-62230000D02*
X172655000Y-60960000D01*
D34*
X173990000Y-57785000D02*
X172655000Y-59120000D01*
D33*
%TO.N,Net-(D38-Pad1)*%
X172655000Y-63500000D02*
X172655000Y-64770000D01*
D34*
X181570000Y-65405000D02*
X186690000Y-65405000D01*
X181570000Y-65405000D02*
X181570000Y-63460000D01*
X181570000Y-63460000D02*
X180975000Y-62865000D01*
X180975000Y-62865000D02*
X174560000Y-62865000D01*
X174560000Y-62865000D02*
X172655000Y-64770000D01*
%TO.N,Net-(D39-Pad1)*%
X181570000Y-69810000D02*
X179705000Y-67945000D01*
X173990000Y-67945000D02*
X172655000Y-69280000D01*
X181570000Y-70485000D02*
X181570000Y-69810000D01*
D33*
X172655000Y-72390000D02*
X172655000Y-71120000D01*
D34*
X181570000Y-70485000D02*
X186690000Y-70485000D01*
X172655000Y-69280000D02*
X172655000Y-71120000D01*
X179705000Y-67945000D02*
X173990000Y-67945000D01*
%TO.N,Net-(D40-Pad1)*%
X172655000Y-74758030D02*
X172655000Y-74930000D01*
X180975000Y-73025000D02*
X174388030Y-73025000D01*
X181570000Y-75565000D02*
X181570000Y-73620000D01*
D33*
X172655000Y-73660000D02*
X172655000Y-74930000D01*
D34*
X181570000Y-75565000D02*
X186690000Y-75565000D01*
X181570000Y-73620000D02*
X180975000Y-73025000D01*
X174388030Y-73025000D02*
X172655000Y-74758030D01*
D33*
%TO.N,Net-(D41-Pad1)*%
X172655000Y-82550000D02*
X172655000Y-81280000D01*
D34*
X181570000Y-80645000D02*
X181570000Y-79335000D01*
X172655000Y-79440000D02*
X172655000Y-81280000D01*
X180340000Y-78105000D02*
X173990000Y-78105000D01*
X181570000Y-80645000D02*
X186690000Y-80645000D01*
X181570000Y-79335000D02*
X180340000Y-78105000D01*
X173990000Y-78105000D02*
X172655000Y-79440000D01*
%TO.N,Net-(D42-Pad1)*%
X181570000Y-84415000D02*
X180340000Y-83185000D01*
D33*
X172655000Y-83820000D02*
X172655000Y-85090000D01*
D34*
X174560000Y-83185000D02*
X172655000Y-85090000D01*
X180340000Y-83185000D02*
X174560000Y-83185000D01*
X181570000Y-85725000D02*
X186690000Y-85725000D01*
X181570000Y-85725000D02*
X181570000Y-84415000D01*
D32*
%TO.N,Net-(D51-Pad1)*%
X134655000Y-63500000D02*
X132860000Y-63500000D01*
%TO.N,Net-(D52-Pad1)*%
X134655000Y-71120000D02*
X132860000Y-71120000D01*
%TO.N,RX*%
X131802500Y-109855000D02*
X125182500Y-109855000D01*
%TO.N,TX*%
X131802500Y-104775000D02*
X125182500Y-104775000D01*
D35*
%TO.N,Net-(J2-Pad5)*%
X145532401Y-99333847D02*
X145284811Y-99086257D01*
D33*
X152173775Y-125095000D02*
X149225000Y-125095000D01*
D35*
X145284811Y-99086257D02*
X145284811Y-82075189D01*
X145284811Y-82075189D02*
X146050000Y-81310000D01*
X145532401Y-121402401D02*
X145532401Y-99333847D01*
X149225000Y-125095000D02*
X145532401Y-121402401D01*
X155575000Y-81280000D02*
X157050000Y-81280000D01*
D33*
%TO.N,Net-(J2-Pad4)*%
X152173775Y-122555000D02*
X149225000Y-122555000D01*
D35*
X146050000Y-119380000D02*
X146050000Y-88900000D01*
X156845000Y-87835000D02*
X157050000Y-87630000D01*
X146685000Y-120015000D02*
X146050000Y-119380000D01*
X149225000Y-122555000D02*
X146685000Y-120015000D01*
X156845000Y-88900000D02*
X156845000Y-87835000D01*
%TO.N,Net-(J2-Pad3)*%
X147750000Y-90773270D02*
X147750000Y-87630000D01*
X146685000Y-117475000D02*
X146685000Y-91838270D01*
X149225000Y-120015000D02*
X146685000Y-117475000D01*
D33*
X152173775Y-120015000D02*
X149225000Y-120015000D01*
D35*
X146685000Y-91838270D02*
X147750000Y-90773270D01*
%TO.N,Net-(J2-Pad2)*%
X148775000Y-85090000D02*
X149225000Y-85540000D01*
X148850378Y-90386802D02*
X147955000Y-91282180D01*
X148850378Y-88481802D02*
X148850378Y-90386802D01*
X147955000Y-91282180D02*
X147955000Y-116205000D01*
X147955000Y-116205000D02*
X149225000Y-117475000D01*
D33*
X152173775Y-117475000D02*
X149225000Y-117475000D01*
D35*
X147750000Y-85090000D02*
X148775000Y-85090000D01*
X149225000Y-88107180D02*
X148850378Y-88481802D01*
X149225000Y-85540000D02*
X149225000Y-88107180D01*
D33*
%TO.N,Net-(J2-Pad1)*%
X152173775Y-114935000D02*
X149225000Y-114935000D01*
D35*
X149990189Y-97580901D02*
X149990189Y-85035189D01*
X148775000Y-83820000D02*
X147750000Y-83820000D01*
X149225000Y-98346090D02*
X149990189Y-97580901D01*
X149990189Y-85035189D02*
X148775000Y-83820000D01*
X149225000Y-114935000D02*
X149225000Y-98346090D01*
D33*
%TO.N,Net-(J3-Pad5)*%
X141378775Y-125095000D02*
X137795000Y-125095000D01*
%TO.N,Net-(J3-Pad4)*%
X141378775Y-122555000D02*
X137795000Y-122555000D01*
%TO.N,Net-(J3-Pad3)*%
X141378775Y-120015000D02*
X137795000Y-120015000D01*
%TO.N,Net-(J3-Pad2)*%
X141378775Y-117475000D02*
X137795000Y-117475000D01*
%TO.N,Net-(J3-Pad1)*%
X141378775Y-114935000D02*
X137795000Y-114935000D01*
D35*
%TO.N,PGC*%
X155678186Y-74750744D02*
X155678186Y-76381668D01*
X154940000Y-77470000D02*
X154305000Y-78105000D01*
X150640000Y-62865000D02*
X151765000Y-62865000D01*
X155575000Y-63500000D02*
X155575000Y-74647558D01*
X154305000Y-83820000D02*
X155575000Y-85090000D01*
X154940000Y-77119854D02*
X154940000Y-77470000D01*
D32*
X150640000Y-62865000D02*
X150640000Y-60325000D01*
D35*
X155575000Y-74647558D02*
X155678186Y-74750744D01*
X154305000Y-78105000D02*
X154305000Y-83820000D01*
X157050000Y-85090000D02*
X155575000Y-85090000D01*
X155678186Y-76381668D02*
X154940000Y-77119854D01*
%TO.N,PGD*%
X155444810Y-77328954D02*
X156327410Y-76446354D01*
X157050000Y-83820000D02*
X155575000Y-83820000D01*
X156327410Y-76446354D02*
X156327410Y-70485000D01*
X154822589Y-78301321D02*
X155444810Y-77679100D01*
X155575000Y-83820000D02*
X154822589Y-83067589D01*
X150640000Y-70485000D02*
X151663536Y-70485000D01*
D32*
X150640000Y-70485000D02*
X150640000Y-67945000D01*
D35*
X155444810Y-77679100D02*
X155444810Y-77328954D01*
X154822589Y-83067589D02*
X154822589Y-78301321D01*
%TO.N,VPP*%
X142240000Y-78740000D02*
X142240000Y-81280000D01*
X140970000Y-77475000D02*
X140975000Y-77475000D01*
X147750000Y-81280000D02*
X148809010Y-81280000D01*
X148809010Y-81280000D02*
X149860000Y-82330990D01*
X140975000Y-77475000D02*
X142240000Y-78740000D01*
D33*
%TO.N,Net-(J7-Pad2)*%
X128905000Y-51435000D02*
X131445000Y-48895000D01*
X131445000Y-48895000D02*
X135342500Y-48895000D01*
X130860000Y-71120000D02*
X130860000Y-66090000D01*
X128905000Y-64135000D02*
X128905000Y-51435000D01*
X135342500Y-48895000D02*
X138430000Y-51982500D01*
X128905000Y-64135000D02*
X128905000Y-63500000D01*
X130860000Y-66090000D02*
X128905000Y-64135000D01*
%TO.N,Net-(J7-Pad1)*%
X130860000Y-63500000D02*
X130860000Y-54472500D01*
X130860000Y-54472500D02*
X133350000Y-51982500D01*
D32*
%TO.N,Net-(Q1-Pad4)*%
X165100000Y-54610000D02*
X167705000Y-54610000D01*
X165100000Y-57150000D02*
X165100000Y-54610000D01*
%TO.N,Net-(Q1-Pad2)*%
X165100000Y-52070000D02*
X165100000Y-49530000D01*
X167705000Y-52070000D02*
X165100000Y-52070000D01*
%TO.N,Net-(Q2-Pad4)*%
X165100000Y-67310000D02*
X165100000Y-64770000D01*
X165100000Y-64770000D02*
X167705000Y-64770000D01*
%TO.N,Net-(Q2-Pad2)*%
X165100000Y-62230000D02*
X167705000Y-62230000D01*
X165100000Y-62230000D02*
X165100000Y-59690000D01*
%TO.N,Net-(Q3-Pad4)*%
X165100000Y-74930000D02*
X167705000Y-74930000D01*
X165100000Y-77470000D02*
X165100000Y-74930000D01*
%TO.N,Net-(Q3-Pad2)*%
X167705000Y-72390000D02*
X165100000Y-72390000D01*
X165100000Y-72390000D02*
X165100000Y-69850000D01*
%TO.N,Net-(Q4-Pad4)*%
X165100000Y-85090000D02*
X167705000Y-85090000D01*
X165100000Y-87630000D02*
X165100000Y-85090000D01*
%TO.N,Net-(Q4-Pad2)*%
X167705000Y-82550000D02*
X165100000Y-82550000D01*
X165100000Y-82550000D02*
X165100000Y-80010000D01*
%TO.N,Net-(Q5-Pad4)*%
X165100000Y-99695000D02*
X167705000Y-99695000D01*
X165100000Y-102235000D02*
X165100000Y-99695000D01*
%TO.N,Net-(Q5-Pad2)*%
X165100000Y-97155000D02*
X165100000Y-94615000D01*
X165100000Y-97155000D02*
X167705000Y-97155000D01*
%TO.N,Net-(Q6-Pad4)*%
X165100000Y-109855000D02*
X167705000Y-109855000D01*
X165100000Y-112395000D02*
X165100000Y-109855000D01*
%TO.N,Net-(Q6-Pad2)*%
X165100000Y-107315000D02*
X167705000Y-107315000D01*
X165100000Y-104775000D02*
X165100000Y-107315000D01*
%TO.N,Net-(Q7-Pad4)*%
X165100000Y-122555000D02*
X165100000Y-120015000D01*
X165100000Y-120015000D02*
X167705000Y-120015000D01*
%TO.N,Net-(Q7-Pad2)*%
X165100000Y-117475000D02*
X167705000Y-117475000D01*
X165100000Y-117475000D02*
X165100000Y-114935000D01*
%TO.N,Net-(Q8-Pad4)*%
X165100000Y-132715000D02*
X165100000Y-130175000D01*
X165100000Y-130175000D02*
X167705000Y-130175000D01*
%TO.N,Net-(Q8-Pad2)*%
X165100000Y-125095000D02*
X165100000Y-127635000D01*
X165100000Y-127635000D02*
X167705000Y-127635000D01*
%TO.N,Net-(Q9-Pad3)*%
X145457500Y-65405000D02*
X144822500Y-64770000D01*
X148640000Y-65405000D02*
X145457500Y-65405000D01*
X148640000Y-65405000D02*
X148640000Y-62865000D01*
%TO.N,Net-(Q9-Pad2)*%
X141750000Y-63500000D02*
X141750000Y-62960000D01*
X144822500Y-63500000D02*
X141750000Y-63500000D01*
X141750000Y-62960000D02*
X139750000Y-60960000D01*
%TO.N,Net-(Q10-Pad3)*%
X148640000Y-73025000D02*
X145457500Y-73025000D01*
X148640000Y-73025000D02*
X148640000Y-70485000D01*
X145457500Y-73025000D02*
X144822500Y-72390000D01*
%TO.N,Net-(Q10-Pad2)*%
X141750000Y-70580000D02*
X139750000Y-68580000D01*
X141750000Y-71120000D02*
X141750000Y-70580000D01*
X144822500Y-71120000D02*
X141750000Y-71120000D01*
D35*
%TO.N,Out_8*%
X157440000Y-94615000D02*
X163100000Y-94615000D01*
%TO.N,Out_9*%
X157440000Y-95885000D02*
X160655000Y-95885000D01*
X161925000Y-97155000D02*
X161925000Y-101060000D01*
X160655000Y-95885000D02*
X161925000Y-97155000D01*
X161925000Y-101060000D02*
X163100000Y-102235000D01*
%TO.N,Out_10*%
X158440000Y-97155000D02*
X161159811Y-99874811D01*
X161534433Y-101917703D02*
X161534433Y-102477173D01*
X157440000Y-97155000D02*
X158440000Y-97155000D01*
X161534433Y-102477173D02*
X163100000Y-104042740D01*
X161159811Y-101543081D02*
X161534433Y-101917703D01*
X163100000Y-104042740D02*
X163100000Y-104775000D01*
X161159811Y-99874811D02*
X161159811Y-101543081D01*
%TO.N,Out_11*%
X158440000Y-98425000D02*
X160655000Y-100640000D01*
X161029622Y-102686272D02*
X161664622Y-103321272D01*
X161029622Y-102126802D02*
X161029622Y-102686272D01*
X160655000Y-100640000D02*
X160655000Y-101752180D01*
X157440000Y-98425000D02*
X158440000Y-98425000D01*
X161664622Y-110959622D02*
X163100000Y-112395000D01*
X161664622Y-103321272D02*
X161664622Y-110959622D01*
X160655000Y-101752180D02*
X161029622Y-102126802D01*
%TO.N,Out_12*%
X160524811Y-102895371D02*
X161159811Y-103530371D01*
X161159811Y-112994811D02*
X163100000Y-114935000D01*
X157440000Y-99695000D02*
X157883910Y-99695000D01*
X161159811Y-103530371D02*
X161159811Y-112994811D01*
X157883910Y-99695000D02*
X160524811Y-102335901D01*
X160524811Y-102335901D02*
X160524811Y-102895371D01*
%TO.N,Out_13*%
X157440000Y-100965000D02*
X157880530Y-100965000D01*
X161290000Y-122555000D02*
X163100000Y-122555000D01*
X160655000Y-103739470D02*
X160655000Y-121920000D01*
X157880530Y-100965000D02*
X160655000Y-103739470D01*
X160655000Y-121920000D02*
X161290000Y-122555000D01*
%TO.N,Out_14*%
X161290000Y-125095000D02*
X163100000Y-125095000D01*
X157440000Y-102235000D02*
X160020000Y-104815000D01*
X160020000Y-123825000D02*
X161290000Y-125095000D01*
X160020000Y-104815000D02*
X160020000Y-123825000D01*
%TO.N,Out_15*%
X154305000Y-102870000D02*
X154305000Y-100965000D01*
X158115000Y-127730000D02*
X158115000Y-104775000D01*
X154940000Y-103505000D02*
X154305000Y-102870000D01*
X158115000Y-104775000D02*
X156845000Y-103505000D01*
X163100000Y-132715000D02*
X158115000Y-127730000D01*
X154305000Y-100965000D02*
X152440000Y-100965000D01*
X156845000Y-103505000D02*
X154940000Y-103505000D01*
%TO.N,Out_0*%
X157440000Y-49530000D02*
X163100000Y-49530000D01*
%TO.N,Out_1*%
X160020000Y-50800000D02*
X161794811Y-52574811D01*
X161794811Y-55844811D02*
X163100000Y-57150000D01*
X157440000Y-50800000D02*
X160020000Y-50800000D01*
X161794811Y-52574811D02*
X161794811Y-55844811D01*
%TO.N,Out_2*%
X161290000Y-55479470D02*
X161290000Y-59055000D01*
X161925000Y-59690000D02*
X163100000Y-59690000D01*
X157880530Y-52070000D02*
X161290000Y-55479470D01*
X161290000Y-59055000D02*
X161925000Y-59690000D01*
X157440000Y-52070000D02*
X157880530Y-52070000D01*
%TO.N,Out_3*%
X160769244Y-64279244D02*
X163100000Y-66610000D01*
X157440000Y-53340000D02*
X157880530Y-53340000D01*
X160769244Y-56228714D02*
X160769244Y-64279244D01*
X163100000Y-66610000D02*
X163100000Y-67310000D01*
X157880530Y-53340000D02*
X160769244Y-56228714D01*
%TO.N,Out_4*%
X157880530Y-54610000D02*
X160264433Y-56993903D01*
X161534433Y-68284433D02*
X163100000Y-69850000D01*
X161534433Y-66047703D02*
X161534433Y-68284433D01*
X160264433Y-64777703D02*
X161534433Y-66047703D01*
X160264433Y-56993903D02*
X160264433Y-64777703D01*
X157440000Y-54610000D02*
X157880530Y-54610000D01*
%TO.N,Out_5*%
X159759622Y-57759092D02*
X159759622Y-64986802D01*
X159759622Y-64986802D02*
X161029622Y-66256802D01*
X161029622Y-75399622D02*
X163100000Y-77470000D01*
X157440000Y-55880000D02*
X157880530Y-55880000D01*
X161029622Y-66256802D02*
X161029622Y-75399622D01*
X157880530Y-55880000D02*
X159759622Y-57759092D01*
%TO.N,Out_6*%
X157440000Y-57150000D02*
X157440000Y-63381090D01*
X160524811Y-77434811D02*
X163100000Y-80010000D01*
X157440000Y-63381090D02*
X160524811Y-66465901D01*
X160524811Y-66465901D02*
X160524811Y-77434811D01*
%TO.N,Out_7*%
X151130000Y-55880000D02*
X152440000Y-55880000D01*
X160020000Y-78740000D02*
X160020000Y-66675000D01*
X161959911Y-86489911D02*
X161959911Y-80679911D01*
X155575000Y-62230000D02*
X155575000Y-55880000D01*
X161959911Y-80679911D02*
X160020000Y-78740000D01*
X160020000Y-66675000D02*
X155575000Y-62230000D01*
X163100000Y-87630000D02*
X161959911Y-86489911D01*
%TO.N,Net-(R57-Pad1)*%
X141605000Y-100965000D02*
X143510000Y-99060000D01*
X133802500Y-107315000D02*
X135255000Y-107315000D01*
X143510000Y-99060000D02*
X143510000Y-87630000D01*
X135255000Y-107315000D02*
X141605000Y-100965000D01*
X155575000Y-86360000D02*
X157050000Y-86360000D01*
%TO.N,Net-(R58-Pad1)*%
X144262401Y-87112401D02*
X143510000Y-86360000D01*
X144014811Y-99642689D02*
X144014811Y-88238743D01*
X146685000Y-86360000D02*
X147750000Y-86360000D01*
X144014811Y-88238743D02*
X144262401Y-87991153D01*
X133802500Y-109855000D02*
X144014811Y-99642689D01*
X144262401Y-87991153D02*
X144262401Y-87112401D01*
%TO.N,Net-(U1-Pad18)*%
X154809811Y-74596279D02*
X155173375Y-74959843D01*
X154809811Y-56462347D02*
X154927212Y-56579748D01*
X153440000Y-94615000D02*
X153800189Y-94254811D01*
X155173375Y-74959843D02*
X155173375Y-76172555D01*
X156367833Y-77470000D02*
X156227224Y-77610609D01*
X154809811Y-57837653D02*
X154809811Y-74596279D01*
X155173375Y-76172555D02*
X153772965Y-77572965D01*
X154927211Y-57720253D02*
X154809811Y-57837653D01*
X153748910Y-49530000D02*
X154809811Y-50590901D01*
X154927212Y-56579748D02*
X154927211Y-57720253D01*
X153800189Y-94254811D02*
X153800189Y-77600189D01*
X152440000Y-49530000D02*
X153748910Y-49530000D01*
X152440000Y-94615000D02*
X153440000Y-94615000D01*
X157050000Y-77470000D02*
X156367833Y-77470000D01*
X154809811Y-50590901D02*
X154809811Y-56462347D01*
X153800189Y-77600189D02*
X153772965Y-77572965D01*
%TO.N,Net-(U1-Pad17)*%
X152440000Y-93345000D02*
X152440000Y-78780000D01*
X152053009Y-57915189D02*
X151339099Y-57915189D01*
X152530190Y-78609810D02*
X152530190Y-76625900D01*
X153425568Y-75730522D02*
X153425568Y-69857702D01*
X151339099Y-57915189D02*
X150377599Y-56953689D01*
X151440000Y-48260000D02*
X152440000Y-48260000D01*
X150377599Y-56953689D02*
X150377599Y-49322401D01*
X153425568Y-69857702D02*
X153527023Y-69756247D01*
X152440000Y-78780000D02*
X152400000Y-78740000D01*
X155575000Y-78740000D02*
X157050000Y-78740000D01*
X153527023Y-59389203D02*
X152053009Y-57915189D01*
X150377599Y-49322401D02*
X151440000Y-48260000D01*
X153527023Y-69756247D02*
X153527023Y-59389203D01*
X152400000Y-78740000D02*
X152530190Y-78609810D01*
X152530190Y-76625900D02*
X153425568Y-75730522D01*
%TO.N,Net-(U1-Pad3)*%
X148775000Y-80010000D02*
X147750000Y-80010000D01*
X146725000Y-80010000D02*
X146050000Y-79335000D01*
X151440000Y-97155000D02*
X150495000Y-96210000D01*
X146050000Y-79335000D02*
X146050000Y-75812599D01*
X154305000Y-56671446D02*
X154422401Y-56788847D01*
X150612401Y-81847401D02*
X148775000Y-80010000D01*
X154422401Y-57511153D02*
X154244706Y-57688848D01*
X154244706Y-75141142D02*
X154420974Y-75317410D01*
X154305000Y-52935000D02*
X154305000Y-56671446D01*
X152440000Y-97155000D02*
X151440000Y-97155000D01*
X150612401Y-82911153D02*
X150612401Y-81847401D01*
X154422401Y-56788847D02*
X154422401Y-57511153D01*
X154244706Y-57688848D02*
X154244706Y-75141142D01*
X153440000Y-52070000D02*
X154305000Y-52935000D01*
X152440000Y-52070000D02*
X153440000Y-52070000D01*
X150495000Y-83028554D02*
X150612401Y-82911153D01*
X147750000Y-80010000D02*
X146725000Y-80010000D01*
X150495000Y-96210000D02*
X150495000Y-83028554D01*
%TO.N,Net-(U1-Pad2)*%
X149225000Y-78740000D02*
X147750000Y-78740000D01*
X149225000Y-78740000D02*
X151520568Y-76444432D01*
X152517401Y-59807401D02*
X151765001Y-59055001D01*
X152440000Y-53340000D02*
X153552590Y-53340000D01*
X152517401Y-69338049D02*
X152517401Y-59807401D01*
X152415946Y-69439504D02*
X152517401Y-69338049D01*
X151520568Y-76207702D02*
X152415946Y-75312324D01*
X151520568Y-76444432D02*
X151520568Y-76207702D01*
X152415946Y-75312324D02*
X152415946Y-69439504D01*
X144780000Y-81280000D02*
X144780000Y-78740000D01*
X152440000Y-99695000D02*
X151130000Y-99695000D01*
X149225000Y-59055000D02*
X148590000Y-58420000D01*
X151765001Y-59055001D02*
X149225000Y-59055000D01*
X148590000Y-58420000D02*
X148590000Y-53340000D01*
X144780000Y-99695000D02*
X144780000Y-81280000D01*
%TO.N,Net-(U1-Pad1)*%
X151087580Y-83149884D02*
X151403240Y-82834224D01*
X149225000Y-77470000D02*
X147750000Y-77470000D01*
X152025379Y-77003691D02*
X151403240Y-77625830D01*
X152025379Y-76416801D02*
X152025379Y-77003691D01*
X151974100Y-58550190D02*
X153022212Y-59598302D01*
X153022212Y-59598302D02*
X153022212Y-69547148D01*
X149225000Y-50800000D02*
X149342401Y-50917401D01*
X152920757Y-75521423D02*
X152025379Y-76416801D01*
X149342401Y-50917401D02*
X149342401Y-57902401D01*
X151440000Y-95885000D02*
X151087580Y-95532580D01*
X151130000Y-50800000D02*
X152440000Y-50800000D01*
X149990189Y-58550189D02*
X151974100Y-58550190D01*
X152920757Y-69648603D02*
X152920757Y-75521423D01*
X152440000Y-95885000D02*
X151440000Y-95885000D01*
X153022212Y-69547148D02*
X152920757Y-69648603D01*
X151087580Y-95532580D02*
X151087580Y-83149884D01*
X149342401Y-57902401D02*
X149990189Y-58550189D01*
X151403240Y-82834224D02*
X151403240Y-77625830D01*
%TD*%
M02*
