%TF.GenerationSoftware,KiCad,Pcbnew,(5.99.0-9393-ga28cb98626)*%
%TF.CreationDate,2021-05-07T15:11:42-07:00*%
%TF.ProjectId,R_Switch,525f5377-6974-4636-982e-6b696361645f,B*%
%TF.SameCoordinates,Original*%
%TF.FileFunction,Copper,L2,Bot*%
%TF.FilePolarity,Positive*%
%FSLAX46Y46*%
G04 Gerber Fmt 4.6, Leading zero omitted, Abs format (unit mm)*
G04 Created by KiCad (PCBNEW (5.99.0-9393-ga28cb98626)) date 2021-05-07 15:11:42*
%MOMM*%
%LPD*%
G01*
G04 APERTURE LIST*
G04 Aperture macros list*
%AMRoundRect*
0 Rectangle with rounded corners*
0 $1 Rounding radius*
0 $2 $3 $4 $5 $6 $7 $8 $9 X,Y pos of 4 corners*
0 Add a 4 corners polygon primitive as box body*
4,1,4,$2,$3,$4,$5,$6,$7,$8,$9,$2,$3,0*
0 Add four circle primitives for the rounded corners*
1,1,$1+$1,$2,$3*
1,1,$1+$1,$4,$5*
1,1,$1+$1,$6,$7*
1,1,$1+$1,$8,$9*
0 Add four rect primitives between the rounded corners*
20,1,$1+$1,$2,$3,$4,$5,0*
20,1,$1+$1,$4,$5,$6,$7,0*
20,1,$1+$1,$6,$7,$8,$9,0*
20,1,$1+$1,$8,$9,$2,$3,0*%
G04 Aperture macros list end*
%TA.AperFunction,ComponentPad*%
%ADD10R,1.700000X1.700000*%
%TD*%
%TA.AperFunction,ComponentPad*%
%ADD11O,1.700000X1.700000*%
%TD*%
%TA.AperFunction,ComponentPad*%
%ADD12R,1.500000X1.050000*%
%TD*%
%TA.AperFunction,ComponentPad*%
%ADD13O,1.500000X1.050000*%
%TD*%
%TA.AperFunction,ComponentPad*%
%ADD14R,1.600000X1.600000*%
%TD*%
%TA.AperFunction,ComponentPad*%
%ADD15C,1.600000*%
%TD*%
%TA.AperFunction,SMDPad,CuDef*%
%ADD16R,0.900000X1.200000*%
%TD*%
%TA.AperFunction,SMDPad,CuDef*%
%ADD17RoundRect,0.250001X0.462499X0.624999X-0.462499X0.624999X-0.462499X-0.624999X0.462499X-0.624999X0*%
%TD*%
%TA.AperFunction,SMDPad,CuDef*%
%ADD18RoundRect,0.250000X0.350000X0.450000X-0.350000X0.450000X-0.350000X-0.450000X0.350000X-0.450000X0*%
%TD*%
%TA.AperFunction,ComponentPad*%
%ADD19RoundRect,0.249999X-1.550001X0.790001X-1.550001X-0.790001X1.550001X-0.790001X1.550001X0.790001X0*%
%TD*%
%TA.AperFunction,ComponentPad*%
%ADD20O,3.600000X2.080000*%
%TD*%
%TA.AperFunction,ComponentPad*%
%ADD21RoundRect,0.249999X-0.790001X-1.550001X0.790001X-1.550001X0.790001X1.550001X-0.790001X1.550001X0*%
%TD*%
%TA.AperFunction,ComponentPad*%
%ADD22O,2.080000X3.600000*%
%TD*%
%TA.AperFunction,ViaPad*%
%ADD23C,0.800000*%
%TD*%
%TA.AperFunction,Conductor*%
%ADD24C,0.635000*%
%TD*%
%TA.AperFunction,Conductor*%
%ADD25C,1.270000*%
%TD*%
%TA.AperFunction,Conductor*%
%ADD26C,2.032000*%
%TD*%
%TA.AperFunction,Conductor*%
%ADD27C,0.508000*%
%TD*%
%TA.AperFunction,Conductor*%
%ADD28C,1.016000*%
%TD*%
%TA.AperFunction,Conductor*%
%ADD29C,0.304800*%
%TD*%
G04 APERTURE END LIST*
D10*
%TO.P,J3,1,Pin_1*%
%TO.N,Net-(J3-Pad1)*%
X137795000Y-114935000D03*
D11*
%TO.P,J3,2,Pin_2*%
%TO.N,Net-(J3-Pad2)*%
X137795000Y-117475000D03*
%TO.P,J3,3,Pin_3*%
%TO.N,Net-(J3-Pad3)*%
X137795000Y-120015000D03*
%TO.P,J3,4,Pin_4*%
%TO.N,Net-(J3-Pad4)*%
X137795000Y-122555000D03*
%TO.P,J3,5,Pin_5*%
%TO.N,Net-(J3-Pad5)*%
X137795000Y-125095000D03*
%TO.P,J3,6,Pin_6*%
%TO.N,GND*%
X137795000Y-127635000D03*
%TD*%
D10*
%TO.P,J2,1,Pin_1*%
%TO.N,Net-(J2-Pad1)*%
X149225000Y-114935000D03*
D11*
%TO.P,J2,2,Pin_2*%
%TO.N,Net-(J2-Pad2)*%
X149225000Y-117475000D03*
%TO.P,J2,3,Pin_3*%
%TO.N,Net-(J2-Pad3)*%
X149225000Y-120015000D03*
%TO.P,J2,4,Pin_4*%
%TO.N,Net-(J2-Pad4)*%
X149225000Y-122555000D03*
%TO.P,J2,5,Pin_5*%
%TO.N,Net-(J2-Pad5)*%
X149225000Y-125095000D03*
%TO.P,J2,6,Pin_6*%
%TO.N,GND*%
X149225000Y-127635000D03*
%TD*%
D12*
%TO.P,Q10,1,E*%
%TO.N,+5V*%
X144822500Y-69850000D03*
D13*
%TO.P,Q10,2,B*%
%TO.N,Net-(Q10-Pad2)*%
X144822500Y-71120000D03*
%TO.P,Q10,3,C*%
%TO.N,Net-(Q10-Pad3)*%
X144822500Y-72390000D03*
%TD*%
D14*
%TO.P,C1,1*%
%TO.N,Net-(C1-Pad1)*%
X136547613Y-89535000D03*
D15*
%TO.P,C1,2*%
%TO.N,GND*%
X134047613Y-89535000D03*
%TD*%
D12*
%TO.P,Q9,1,E*%
%TO.N,+5V*%
X144822500Y-62230000D03*
D13*
%TO.P,Q9,2,B*%
%TO.N,Net-(Q9-Pad2)*%
X144822500Y-63500000D03*
%TO.P,Q9,3,C*%
%TO.N,Net-(Q9-Pad3)*%
X144822500Y-64770000D03*
%TD*%
D10*
%TO.P,J4,1,Pin_1*%
%TO.N,VPP*%
X140970000Y-77475000D03*
D11*
%TO.P,J4,2,Pin_2*%
%TO.N,+5V*%
X140970000Y-80015000D03*
%TO.P,J4,3,Pin_3*%
%TO.N,GND*%
X140970000Y-82555000D03*
%TO.P,J4,4,Pin_4*%
%TO.N,PGD*%
X140970000Y-85095000D03*
%TO.P,J4,5,Pin_5*%
%TO.N,PGC*%
X140970000Y-87635000D03*
%TD*%
D16*
%TO.P,D11,1,K*%
%TO.N,Net-(D11-Pad1)*%
X180085000Y-95250000D03*
%TO.P,D11,2,A*%
%TO.N,Net-(D11-Pad2)*%
X176785000Y-95250000D03*
%TD*%
D17*
%TO.P,D2,1,K*%
%TO.N,Net-(D2-Pad1)*%
X150712500Y-80010000D03*
%TO.P,D2,2,A*%
%TO.N,Net-(D2-Pad2)*%
X147737500Y-80010000D03*
%TD*%
%TO.P,D28,1,K*%
%TO.N,Net-(D28-Pad1)*%
X174207500Y-55245000D03*
%TO.P,D28,2,A*%
%TO.N,Net-(D28-Pad2)*%
X171232500Y-55245000D03*
%TD*%
D18*
%TO.P,R10,1*%
%TO.N,Net-(D6-Pad2)*%
X168640000Y-110490000D03*
%TO.P,R10,2*%
%TO.N,+5V*%
X166640000Y-110490000D03*
%TD*%
D17*
%TO.P,D32,1,K*%
%TO.N,Net-(D32-Pad1)*%
X174207500Y-75565000D03*
%TO.P,D32,2,A*%
%TO.N,Net-(D32-Pad2)*%
X171232500Y-75565000D03*
%TD*%
D18*
%TO.P,R32,1*%
%TO.N,Net-(D28-Pad2)*%
X168640000Y-55245000D03*
%TO.P,R32,2*%
%TO.N,+5V*%
X166640000Y-55245000D03*
%TD*%
%TO.P,R37,1*%
%TO.N,Net-(D33-Pad2)*%
X168640000Y-80645000D03*
%TO.P,R37,2*%
%TO.N,+5V*%
X166640000Y-80645000D03*
%TD*%
%TO.P,R33,1*%
%TO.N,Net-(D29-Pad2)*%
X168640000Y-60325000D03*
%TO.P,R33,2*%
%TO.N,+5V*%
X166640000Y-60325000D03*
%TD*%
D16*
%TO.P,D35,1,K*%
%TO.N,Net-(D35-Pad1)*%
X180085000Y-50165000D03*
%TO.P,D35,2,A*%
%TO.N,Net-(D27-Pad1)*%
X176785000Y-50165000D03*
%TD*%
%TO.P,D41,1,K*%
%TO.N,Net-(D41-Pad1)*%
X180085000Y-80645000D03*
%TO.P,D41,2,A*%
%TO.N,Net-(D33-Pad1)*%
X176785000Y-80645000D03*
%TD*%
D17*
%TO.P,D29,1,K*%
%TO.N,Net-(D29-Pad1)*%
X174207500Y-60325000D03*
%TO.P,D29,2,A*%
%TO.N,Net-(D29-Pad2)*%
X171232500Y-60325000D03*
%TD*%
%TO.P,D6,1,K*%
%TO.N,Net-(D14-Pad2)*%
X174207500Y-110490000D03*
%TO.P,D6,2,A*%
%TO.N,Net-(D6-Pad2)*%
X171232500Y-110490000D03*
%TD*%
D18*
%TO.P,R38,1*%
%TO.N,Net-(D34-Pad2)*%
X168640000Y-85725000D03*
%TO.P,R38,2*%
%TO.N,+5V*%
X166640000Y-85725000D03*
%TD*%
D17*
%TO.P,D5,1,K*%
%TO.N,Net-(D13-Pad2)*%
X174207500Y-105410000D03*
%TO.P,D5,2,A*%
%TO.N,Net-(D5-Pad2)*%
X171232500Y-105410000D03*
%TD*%
D18*
%TO.P,R8,1*%
%TO.N,Net-(D4-Pad2)*%
X168640000Y-100330000D03*
%TO.P,R8,2*%
%TO.N,+5V*%
X166640000Y-100330000D03*
%TD*%
D16*
%TO.P,D14,1,K*%
%TO.N,Net-(D14-Pad1)*%
X180085000Y-110490000D03*
%TO.P,D14,2,A*%
%TO.N,Net-(D14-Pad2)*%
X176785000Y-110490000D03*
%TD*%
D18*
%TO.P,R35,1*%
%TO.N,Net-(D31-Pad2)*%
X168640000Y-70485000D03*
%TO.P,R35,2*%
%TO.N,+5V*%
X166640000Y-70485000D03*
%TD*%
%TO.P,R13,1*%
%TO.N,Net-(D9-Pad2)*%
X168640000Y-125730000D03*
%TO.P,R13,2*%
%TO.N,+5V*%
X166640000Y-125730000D03*
%TD*%
%TO.P,R14,1*%
%TO.N,Net-(D10-Pad2)*%
X168640000Y-130810000D03*
%TO.P,R14,2*%
%TO.N,+5V*%
X166640000Y-130810000D03*
%TD*%
D19*
%TO.P,J5,1,Pin_1*%
%TO.N,Net-(D35-Pad1)*%
X186690000Y-50165000D03*
D20*
%TO.P,J5,2,Pin_2*%
%TO.N,Net-(D36-Pad1)*%
X186690000Y-55245000D03*
%TO.P,J5,3,Pin_3*%
%TO.N,Net-(D37-Pad1)*%
X186690000Y-60325000D03*
%TO.P,J5,4,Pin_4*%
%TO.N,Net-(D38-Pad1)*%
X186690000Y-65405000D03*
%TO.P,J5,5,Pin_5*%
%TO.N,Net-(D39-Pad1)*%
X186690000Y-70485000D03*
%TO.P,J5,6,Pin_6*%
%TO.N,Net-(D40-Pad1)*%
X186690000Y-75565000D03*
%TO.P,J5,7,Pin_7*%
%TO.N,Net-(D41-Pad1)*%
X186690000Y-80645000D03*
%TO.P,J5,8,Pin_8*%
%TO.N,Net-(D42-Pad1)*%
X186690000Y-85725000D03*
%TD*%
D16*
%TO.P,D37,1,K*%
%TO.N,Net-(D37-Pad1)*%
X180085000Y-60325000D03*
%TO.P,D37,2,A*%
%TO.N,Net-(D29-Pad1)*%
X176785000Y-60325000D03*
%TD*%
D17*
%TO.P,D9,1,K*%
%TO.N,Net-(D17-Pad2)*%
X174207500Y-125730000D03*
%TO.P,D9,2,A*%
%TO.N,Net-(D9-Pad2)*%
X171232500Y-125730000D03*
%TD*%
%TO.P,D33,1,K*%
%TO.N,Net-(D33-Pad1)*%
X174207500Y-80645000D03*
%TO.P,D33,2,A*%
%TO.N,Net-(D33-Pad2)*%
X171232500Y-80645000D03*
%TD*%
%TO.P,D30,1,K*%
%TO.N,Net-(D30-Pad1)*%
X174207500Y-65405000D03*
%TO.P,D30,2,A*%
%TO.N,Net-(D30-Pad2)*%
X171232500Y-65405000D03*
%TD*%
D19*
%TO.P,J6,1,Pin_1*%
%TO.N,Net-(D11-Pad1)*%
X186690000Y-95250000D03*
D20*
%TO.P,J6,2,Pin_2*%
%TO.N,Net-(D12-Pad1)*%
X186690000Y-100330000D03*
%TO.P,J6,3,Pin_3*%
%TO.N,Net-(D13-Pad1)*%
X186690000Y-105410000D03*
%TO.P,J6,4,Pin_4*%
%TO.N,Net-(D14-Pad1)*%
X186690000Y-110490000D03*
%TO.P,J6,5,Pin_5*%
%TO.N,Net-(D15-Pad1)*%
X186690000Y-115570000D03*
%TO.P,J6,6,Pin_6*%
%TO.N,Net-(D16-Pad1)*%
X186690000Y-120650000D03*
%TO.P,J6,7,Pin_7*%
%TO.N,Net-(D17-Pad1)*%
X186690000Y-125730000D03*
%TO.P,J6,8,Pin_8*%
%TO.N,Net-(D18-Pad1)*%
X186690000Y-130810000D03*
%TD*%
D17*
%TO.P,D27,1,K*%
%TO.N,Net-(D27-Pad1)*%
X174207500Y-50165000D03*
%TO.P,D27,2,A*%
%TO.N,Net-(D27-Pad2)*%
X171232500Y-50165000D03*
%TD*%
D18*
%TO.P,R34,1*%
%TO.N,Net-(D30-Pad2)*%
X168640000Y-65405000D03*
%TO.P,R34,2*%
%TO.N,+5V*%
X166640000Y-65405000D03*
%TD*%
D17*
%TO.P,D10,1,K*%
%TO.N,Net-(D10-Pad1)*%
X174207500Y-130810000D03*
%TO.P,D10,2,A*%
%TO.N,Net-(D10-Pad2)*%
X171232500Y-130810000D03*
%TD*%
D16*
%TO.P,D13,1,K*%
%TO.N,Net-(D13-Pad1)*%
X180085000Y-105410000D03*
%TO.P,D13,2,A*%
%TO.N,Net-(D13-Pad2)*%
X176785000Y-105410000D03*
%TD*%
D21*
%TO.P,J7,1,Pin_1*%
%TO.N,Net-(J7-Pad1)*%
X133350000Y-51982500D03*
D22*
%TO.P,J7,2,Pin_2*%
%TO.N,Net-(J7-Pad2)*%
X138430000Y-51982500D03*
%TO.P,J7,3,Pin_3*%
%TO.N,GND*%
X143510000Y-51982500D03*
%TD*%
D18*
%TO.P,R7,1*%
%TO.N,Net-(D3-Pad2)*%
X168640000Y-95250000D03*
%TO.P,R7,2*%
%TO.N,+5V*%
X166640000Y-95250000D03*
%TD*%
%TO.P,R9,1*%
%TO.N,Net-(D5-Pad2)*%
X168640000Y-105410000D03*
%TO.P,R9,2*%
%TO.N,+5V*%
X166640000Y-105410000D03*
%TD*%
D17*
%TO.P,D4,1,K*%
%TO.N,Net-(D12-Pad2)*%
X174207500Y-100330000D03*
%TO.P,D4,2,A*%
%TO.N,Net-(D4-Pad2)*%
X171232500Y-100330000D03*
%TD*%
D16*
%TO.P,D39,1,K*%
%TO.N,Net-(D39-Pad1)*%
X180085000Y-70485000D03*
%TO.P,D39,2,A*%
%TO.N,Net-(D31-Pad1)*%
X176785000Y-70485000D03*
%TD*%
%TO.P,D18,1,K*%
%TO.N,Net-(D18-Pad1)*%
X180085000Y-130810000D03*
%TO.P,D18,2,A*%
%TO.N,Net-(D10-Pad1)*%
X176785000Y-130810000D03*
%TD*%
D18*
%TO.P,R36,1*%
%TO.N,Net-(D32-Pad2)*%
X168640000Y-75565000D03*
%TO.P,R36,2*%
%TO.N,+5V*%
X166640000Y-75565000D03*
%TD*%
D16*
%TO.P,D36,1,K*%
%TO.N,Net-(D36-Pad1)*%
X180085000Y-55245000D03*
%TO.P,D36,2,A*%
%TO.N,Net-(D28-Pad1)*%
X176785000Y-55245000D03*
%TD*%
%TO.P,D15,1,K*%
%TO.N,Net-(D15-Pad1)*%
X180085000Y-115570000D03*
%TO.P,D15,2,A*%
%TO.N,Net-(D15-Pad2)*%
X176785000Y-115570000D03*
%TD*%
D17*
%TO.P,D7,1,K*%
%TO.N,Net-(D15-Pad2)*%
X174207500Y-115570000D03*
%TO.P,D7,2,A*%
%TO.N,Net-(D7-Pad2)*%
X171232500Y-115570000D03*
%TD*%
%TO.P,D3,1,K*%
%TO.N,Net-(D11-Pad2)*%
X174207500Y-95250000D03*
%TO.P,D3,2,A*%
%TO.N,Net-(D3-Pad2)*%
X171232500Y-95250000D03*
%TD*%
%TO.P,D31,1,K*%
%TO.N,Net-(D31-Pad1)*%
X174207500Y-70485000D03*
%TO.P,D31,2,A*%
%TO.N,Net-(D31-Pad2)*%
X171232500Y-70485000D03*
%TD*%
D16*
%TO.P,D17,1,K*%
%TO.N,Net-(D17-Pad1)*%
X180085000Y-125730000D03*
%TO.P,D17,2,A*%
%TO.N,Net-(D17-Pad2)*%
X176785000Y-125730000D03*
%TD*%
%TO.P,D42,1,K*%
%TO.N,Net-(D42-Pad1)*%
X180085000Y-85725000D03*
%TO.P,D42,2,A*%
%TO.N,Net-(D34-Pad1)*%
X176785000Y-85725000D03*
%TD*%
D18*
%TO.P,R6,1*%
%TO.N,Net-(D2-Pad2)*%
X145780000Y-80010000D03*
%TO.P,R6,2*%
%TO.N,+5V*%
X143780000Y-80010000D03*
%TD*%
D16*
%TO.P,D16,1,K*%
%TO.N,Net-(D16-Pad1)*%
X180085000Y-120650000D03*
%TO.P,D16,2,A*%
%TO.N,Net-(D16-Pad2)*%
X176785000Y-120650000D03*
%TD*%
D17*
%TO.P,D34,1,K*%
%TO.N,Net-(D34-Pad1)*%
X174207500Y-85725000D03*
%TO.P,D34,2,A*%
%TO.N,Net-(D34-Pad2)*%
X171232500Y-85725000D03*
%TD*%
D18*
%TO.P,R11,1*%
%TO.N,Net-(D7-Pad2)*%
X168640000Y-115570000D03*
%TO.P,R11,2*%
%TO.N,+5V*%
X166640000Y-115570000D03*
%TD*%
D16*
%TO.P,D40,1,K*%
%TO.N,Net-(D40-Pad1)*%
X180085000Y-75565000D03*
%TO.P,D40,2,A*%
%TO.N,Net-(D32-Pad1)*%
X176785000Y-75565000D03*
%TD*%
%TO.P,D38,1,K*%
%TO.N,Net-(D38-Pad1)*%
X180085000Y-65405000D03*
%TO.P,D38,2,A*%
%TO.N,Net-(D30-Pad1)*%
X176785000Y-65405000D03*
%TD*%
D18*
%TO.P,R12,1*%
%TO.N,Net-(D8-Pad2)*%
X168640000Y-120650000D03*
%TO.P,R12,2*%
%TO.N,+5V*%
X166640000Y-120650000D03*
%TD*%
D16*
%TO.P,D12,1,K*%
%TO.N,Net-(D12-Pad1)*%
X180085000Y-100330000D03*
%TO.P,D12,2,A*%
%TO.N,Net-(D12-Pad2)*%
X176785000Y-100330000D03*
%TD*%
D17*
%TO.P,D8,1,K*%
%TO.N,Net-(D16-Pad2)*%
X174207500Y-120650000D03*
%TO.P,D8,2,A*%
%TO.N,Net-(D8-Pad2)*%
X171232500Y-120650000D03*
%TD*%
D18*
%TO.P,R31,1*%
%TO.N,Net-(D27-Pad2)*%
X168640000Y-50165000D03*
%TO.P,R31,2*%
%TO.N,+5V*%
X166640000Y-50165000D03*
%TD*%
D19*
%TO.P,J1,1,Pin_1*%
%TO.N,+12V*%
X125182500Y-94615000D03*
D20*
%TO.P,J1,2,Pin_2*%
%TO.N,GND*%
X125182500Y-99695000D03*
%TO.P,J1,3,Pin_3*%
%TO.N,TX*%
X125182500Y-104775000D03*
%TO.P,J1,4,Pin_4*%
%TO.N,RX*%
X125182500Y-109855000D03*
%TD*%
D23*
%TO.N,GND*%
X163100000Y-83725000D03*
X150777589Y-74577589D03*
X178435000Y-50165000D03*
X163195000Y-128905000D03*
X163100000Y-53245000D03*
X178435000Y-125730000D03*
X178435000Y-60325000D03*
X178435000Y-95250000D03*
X178435000Y-105410000D03*
X158750000Y-84455000D03*
X178435000Y-65405000D03*
X146050000Y-83185000D03*
X147320000Y-67945000D03*
X178435000Y-110490000D03*
X178435000Y-70485000D03*
X178435000Y-120650000D03*
X163100000Y-118650000D03*
X178435000Y-75565000D03*
X153670000Y-57150000D03*
X163100000Y-73565000D03*
X178435000Y-130810000D03*
X178435000Y-55245000D03*
X178435000Y-115570000D03*
X163100000Y-98330000D03*
X163100000Y-108490000D03*
X129540000Y-78105000D03*
X178435000Y-100330000D03*
X178435000Y-85725000D03*
X178435000Y-80645000D03*
X163100000Y-63405000D03*
%TO.N,+5V*%
X157480000Y-46990000D03*
X158750000Y-76835000D03*
X143510000Y-112395000D03*
X139700000Y-99695000D03*
X154305000Y-112395000D03*
X142240000Y-73025000D03*
X151130000Y-54610000D03*
%TO.N,Net-(D2-Pad1)*%
X155575000Y-80010000D03*
%TO.N,Net-(J2-Pad5)*%
X155575000Y-81280000D03*
X146050000Y-81310000D03*
%TO.N,Net-(J2-Pad4)*%
X156845000Y-88900000D03*
X146050000Y-88900000D03*
%TO.N,PGC*%
X155575000Y-85090000D03*
X151765000Y-62865000D03*
X155575000Y-63500000D03*
%TO.N,PGD*%
X156327410Y-70485000D03*
X155575000Y-83820000D03*
X151663536Y-70485000D03*
%TO.N,VPP*%
X142240000Y-81280000D03*
X149860000Y-82330990D03*
%TO.N,Out_7*%
X151130000Y-55880000D03*
X155575000Y-55880000D03*
%TO.N,Net-(R57-Pad1)*%
X155575000Y-86360000D03*
X143510000Y-87630000D03*
%TO.N,Net-(R58-Pad1)*%
X143510000Y-86360000D03*
X146685000Y-86360000D03*
%TO.N,Net-(U1-Pad18)*%
X156227224Y-77610609D03*
X153772965Y-77572965D03*
%TO.N,Net-(U1-Pad17)*%
X152400000Y-78740000D03*
X155575000Y-78740000D03*
%TO.N,Net-(U1-Pad3)*%
X154420974Y-75317410D03*
X146050000Y-75812599D03*
%TO.N,Net-(U1-Pad2)*%
X151130000Y-99695000D03*
X144780000Y-99695000D03*
X148590000Y-53340000D03*
X153552590Y-53340000D03*
X149225000Y-78740000D03*
X144780000Y-78740000D03*
%TO.N,Net-(U1-Pad1)*%
X151403240Y-77625830D03*
X149225000Y-77470000D03*
X151130000Y-50800000D03*
X149225000Y-50800000D03*
%TD*%
D24*
%TO.N,Net-(D13-Pad1)*%
X186690000Y-105410000D02*
X180085000Y-105410000D01*
%TO.N,Net-(D40-Pad1)*%
X186690000Y-75565000D02*
X180085000Y-75565000D01*
D25*
%TO.N,GND*%
X178435000Y-85725000D02*
X178435000Y-95250000D01*
X178435000Y-50165000D02*
X178435000Y-55245000D01*
X163100000Y-73565000D02*
X163100000Y-63405000D01*
X131445000Y-74930000D02*
X129540000Y-76835000D01*
D26*
X132715000Y-123825000D02*
X132715000Y-128270000D01*
D27*
X154305000Y-83185000D02*
X154940000Y-82550000D01*
D25*
X150777589Y-74577589D02*
X147037411Y-74577589D01*
X158210000Y-73565000D02*
X151790178Y-73565000D01*
X163100000Y-108490000D02*
X163100000Y-98330000D01*
X178435000Y-130810000D02*
X178435000Y-133350000D01*
D27*
X141600000Y-83185000D02*
X140970000Y-82555000D01*
D25*
X134047613Y-94552387D02*
X128905000Y-99695000D01*
D26*
X176530000Y-134620000D02*
X177165000Y-134620000D01*
D25*
X178435000Y-125730000D02*
X178435000Y-130810000D01*
X178435000Y-120650000D02*
X178435000Y-125730000D01*
X178435000Y-70485000D02*
X178435000Y-75565000D01*
D26*
X137160000Y-132715000D02*
X139065000Y-134620000D01*
D25*
X178435000Y-55245000D02*
X178435000Y-60325000D01*
D24*
X147037411Y-74577589D02*
X147037411Y-68227589D01*
D25*
X178435000Y-110490000D02*
X178435000Y-115570000D01*
X128905000Y-99695000D02*
X125182500Y-99695000D01*
D27*
X156845000Y-82550000D02*
X158750000Y-84455000D01*
D26*
X132715000Y-104140000D02*
X132715000Y-123825000D01*
D25*
X178435000Y-95250000D02*
X178435000Y-100330000D01*
D26*
X177165000Y-134620000D02*
X178435000Y-133350000D01*
D25*
X131797411Y-74577589D02*
X131445000Y-74930000D01*
X163100000Y-83725000D02*
X163100000Y-73565000D01*
X178435000Y-65405000D02*
X178435000Y-70485000D01*
X163195000Y-118745000D02*
X163100000Y-118650000D01*
X163100000Y-98330000D02*
X163100000Y-83725000D01*
X163100000Y-63405000D02*
X163100000Y-53245000D01*
D26*
X125182500Y-99695000D02*
X128270000Y-99695000D01*
D25*
X136525000Y-127635000D02*
X132715000Y-123825000D01*
X151790178Y-73565000D02*
X150777589Y-74577589D01*
X129540000Y-76835000D02*
X129540000Y-78105000D01*
X137795000Y-127635000D02*
X136525000Y-127635000D01*
X178435000Y-105410000D02*
X178435000Y-110490000D01*
D27*
X154940000Y-82550000D02*
X156845000Y-82550000D01*
D24*
X147037411Y-68227589D02*
X147320000Y-67945000D01*
D26*
X132715000Y-128270000D02*
X137160000Y-132715000D01*
D27*
X146050000Y-83185000D02*
X154305000Y-83185000D01*
D25*
X163100000Y-118650000D02*
X163100000Y-108490000D01*
X147037411Y-74577589D02*
X131797411Y-74577589D01*
X163100000Y-73565000D02*
X158210000Y-73565000D01*
D24*
X158210000Y-61690000D02*
X153670000Y-57150000D01*
D25*
X163195000Y-128905000D02*
X163195000Y-118745000D01*
D26*
X139065000Y-134620000D02*
X176530000Y-134620000D01*
D25*
X134047613Y-89535000D02*
X134047613Y-94552387D01*
X178435000Y-75565000D02*
X178435000Y-80645000D01*
X178435000Y-100330000D02*
X178435000Y-105410000D01*
D26*
X128270000Y-99695000D02*
X132715000Y-104140000D01*
D24*
X158210000Y-73565000D02*
X158210000Y-61690000D01*
D25*
X178435000Y-60325000D02*
X178435000Y-65405000D01*
X178435000Y-80645000D02*
X178435000Y-85725000D01*
X178435000Y-115570000D02*
X178435000Y-120650000D01*
D27*
X146050000Y-83185000D02*
X141600000Y-83185000D01*
D24*
%TO.N,+5V*%
X166640000Y-95250000D02*
X166640000Y-100330000D01*
X154305000Y-112395000D02*
X143510000Y-112395000D01*
D28*
X140970000Y-80015000D02*
X139060000Y-80015000D01*
D24*
X158149920Y-76234920D02*
X158750000Y-76835000D01*
X142875000Y-79375000D02*
X143510000Y-78740000D01*
D28*
X137795000Y-87630000D02*
X141605000Y-91440000D01*
D24*
X147320000Y-58420000D02*
X147320000Y-55245000D01*
X141610000Y-79375000D02*
X142875000Y-79375000D01*
D28*
X141605000Y-110490000D02*
X143510000Y-112395000D01*
X143510000Y-127635000D02*
X147320000Y-131445000D01*
D24*
X166640000Y-60325000D02*
X166640000Y-65405000D01*
X144822500Y-68622500D02*
X142875000Y-66675000D01*
X147320000Y-48895000D02*
X149225000Y-46990000D01*
X142240000Y-73025000D02*
X142875000Y-72390000D01*
D28*
X147320000Y-131445000D02*
X166005000Y-131445000D01*
X137795000Y-81280000D02*
X137795000Y-87630000D01*
X141605000Y-99695000D02*
X141605000Y-110490000D01*
D24*
X166640000Y-75565000D02*
X166640000Y-80645000D01*
D29*
X151130000Y-54610000D02*
X147320000Y-54610000D01*
D24*
X166640000Y-115570000D02*
X166640000Y-120650000D01*
D28*
X139060000Y-80015000D02*
X137795000Y-81280000D01*
D24*
X166640000Y-65405000D02*
X166640000Y-70485000D01*
D28*
X141605000Y-91440000D02*
X141605000Y-99695000D01*
D24*
X147320000Y-54610000D02*
X147320000Y-48895000D01*
X166640000Y-85725000D02*
X166640000Y-95250000D01*
X140970000Y-80015000D02*
X141610000Y-79375000D01*
X166640000Y-80645000D02*
X166640000Y-85725000D01*
X166640000Y-125730000D02*
X166640000Y-130810000D01*
X143510000Y-62230000D02*
X144822500Y-62230000D01*
X166640000Y-120650000D02*
X166640000Y-125730000D01*
X142875000Y-69850000D02*
X144822500Y-69850000D01*
X140975000Y-80010000D02*
X140970000Y-80015000D01*
X166640000Y-105410000D02*
X166640000Y-110490000D01*
X147955000Y-76835000D02*
X148555080Y-76234920D01*
X145415000Y-60325000D02*
X147320000Y-58420000D01*
X148590000Y-76234920D02*
X158149920Y-76234920D01*
X143510000Y-76835000D02*
X147320000Y-76835000D01*
X166640000Y-50165000D02*
X166640000Y-55245000D01*
D29*
X139700000Y-99695000D02*
X141605000Y-99695000D01*
D24*
X142875000Y-62865000D02*
X143510000Y-62230000D01*
X143510000Y-78740000D02*
X143510000Y-76835000D01*
X142875000Y-72390000D02*
X142875000Y-69850000D01*
X166640000Y-55245000D02*
X166640000Y-60325000D01*
X144822500Y-62230000D02*
X144822500Y-60917500D01*
D28*
X143510000Y-112395000D02*
X143510000Y-127635000D01*
D24*
X166640000Y-70485000D02*
X166640000Y-75565000D01*
X166640000Y-110490000D02*
X166640000Y-115570000D01*
X149225000Y-46990000D02*
X157480000Y-46990000D01*
X147320000Y-76835000D02*
X147955000Y-76835000D01*
X166640000Y-100330000D02*
X166640000Y-105410000D01*
X144822500Y-60917500D02*
X145415000Y-60325000D01*
D28*
X166005000Y-131445000D02*
X166640000Y-130810000D01*
D24*
X147320000Y-55245000D02*
X147320000Y-54610000D01*
X142875000Y-66675000D02*
X142875000Y-62865000D01*
X144822500Y-69850000D02*
X144822500Y-68622500D01*
X143780000Y-80010000D02*
X140975000Y-80010000D01*
%TO.N,Net-(D2-Pad2)*%
X145780000Y-80010000D02*
X147737500Y-80010000D01*
D29*
%TO.N,Net-(D2-Pad1)*%
X150712500Y-80010000D02*
X155575000Y-80010000D01*
D27*
%TO.N,Net-(D3-Pad2)*%
X168640000Y-95250000D02*
X171232500Y-95250000D01*
%TO.N,Net-(D11-Pad2)*%
X174207500Y-95250000D02*
X176785000Y-95250000D01*
%TO.N,Net-(D4-Pad2)*%
X168640000Y-100330000D02*
X171232500Y-100330000D01*
%TO.N,Net-(D12-Pad2)*%
X174207500Y-100330000D02*
X176785000Y-100330000D01*
%TO.N,Net-(D5-Pad2)*%
X168640000Y-105410000D02*
X171232500Y-105410000D01*
%TO.N,Net-(D13-Pad2)*%
X174207500Y-105410000D02*
X176785000Y-105410000D01*
%TO.N,Net-(D6-Pad2)*%
X168640000Y-110490000D02*
X171232500Y-110490000D01*
%TO.N,Net-(D14-Pad2)*%
X174207500Y-110490000D02*
X176785000Y-110490000D01*
%TO.N,Net-(D7-Pad2)*%
X168640000Y-115570000D02*
X171232500Y-115570000D01*
%TO.N,Net-(D15-Pad2)*%
X174207500Y-115570000D02*
X176785000Y-115570000D01*
%TO.N,Net-(D8-Pad2)*%
X168640000Y-120650000D02*
X171232500Y-120650000D01*
%TO.N,Net-(D16-Pad2)*%
X174207500Y-120650000D02*
X176785000Y-120650000D01*
%TO.N,Net-(D9-Pad2)*%
X168640000Y-125730000D02*
X171232500Y-125730000D01*
%TO.N,Net-(D17-Pad2)*%
X174207500Y-125730000D02*
X176785000Y-125730000D01*
%TO.N,Net-(D10-Pad2)*%
X168640000Y-130810000D02*
X171232500Y-130810000D01*
%TO.N,Net-(D10-Pad1)*%
X176785000Y-130810000D02*
X174207500Y-130810000D01*
%TO.N,Net-(D11-Pad1)*%
X186690000Y-95250000D02*
X180085000Y-95250000D01*
%TO.N,Net-(D12-Pad1)*%
X186690000Y-100330000D02*
X180085000Y-100330000D01*
%TO.N,Net-(D14-Pad1)*%
X186690000Y-110490000D02*
X180085000Y-110490000D01*
%TO.N,Net-(D15-Pad1)*%
X186690000Y-115570000D02*
X180085000Y-115570000D01*
%TO.N,Net-(D16-Pad1)*%
X186690000Y-120650000D02*
X180085000Y-120650000D01*
%TO.N,Net-(D17-Pad1)*%
X186690000Y-125730000D02*
X180085000Y-125730000D01*
%TO.N,Net-(D18-Pad1)*%
X186690000Y-130810000D02*
X180085000Y-130810000D01*
%TO.N,Net-(D27-Pad2)*%
X168640000Y-50165000D02*
X171232500Y-50165000D01*
%TO.N,Net-(D27-Pad1)*%
X174207500Y-50165000D02*
X176785000Y-50165000D01*
%TO.N,Net-(D28-Pad2)*%
X168640000Y-55245000D02*
X171232500Y-55245000D01*
%TO.N,Net-(D28-Pad1)*%
X174207500Y-55245000D02*
X176785000Y-55245000D01*
%TO.N,Net-(D29-Pad2)*%
X168640000Y-60325000D02*
X171232500Y-60325000D01*
%TO.N,Net-(D29-Pad1)*%
X174207500Y-60325000D02*
X176785000Y-60325000D01*
%TO.N,Net-(D30-Pad2)*%
X168640000Y-65405000D02*
X171232500Y-65405000D01*
%TO.N,Net-(D30-Pad1)*%
X174207500Y-65405000D02*
X176785000Y-65405000D01*
%TO.N,Net-(D31-Pad2)*%
X168640000Y-70485000D02*
X171232500Y-70485000D01*
%TO.N,Net-(D31-Pad1)*%
X174207500Y-70485000D02*
X176785000Y-70485000D01*
%TO.N,Net-(D32-Pad2)*%
X168640000Y-75565000D02*
X171232500Y-75565000D01*
%TO.N,Net-(D32-Pad1)*%
X174207500Y-75565000D02*
X176785000Y-75565000D01*
%TO.N,Net-(D33-Pad2)*%
X168640000Y-80645000D02*
X171232500Y-80645000D01*
%TO.N,Net-(D33-Pad1)*%
X174207500Y-80645000D02*
X176785000Y-80645000D01*
%TO.N,Net-(D34-Pad2)*%
X168640000Y-85725000D02*
X171232500Y-85725000D01*
%TO.N,Net-(D34-Pad1)*%
X174207500Y-85725000D02*
X176785000Y-85725000D01*
%TO.N,Net-(D35-Pad1)*%
X186690000Y-50165000D02*
X180085000Y-50165000D01*
%TO.N,Net-(D36-Pad1)*%
X186690000Y-55245000D02*
X180085000Y-55245000D01*
%TO.N,Net-(D37-Pad1)*%
X186690000Y-60325000D02*
X180085000Y-60325000D01*
%TO.N,Net-(D38-Pad1)*%
X186690000Y-65405000D02*
X180085000Y-65405000D01*
%TO.N,Net-(D39-Pad1)*%
X186690000Y-70485000D02*
X180085000Y-70485000D01*
%TO.N,Net-(D41-Pad1)*%
X186690000Y-80645000D02*
X180085000Y-80645000D01*
%TO.N,Net-(D42-Pad1)*%
X186690000Y-85725000D02*
X180085000Y-85725000D01*
D29*
%TO.N,Net-(J2-Pad5)*%
X146080000Y-81280000D02*
X155575000Y-81280000D01*
X146050000Y-81310000D02*
X146080000Y-81280000D01*
%TO.N,Net-(J2-Pad4)*%
X146050000Y-88900000D02*
X156845000Y-88900000D01*
%TO.N,PGC*%
X154940000Y-62865000D02*
X155575000Y-63500000D01*
X155575000Y-85090000D02*
X143515000Y-85090000D01*
X151765000Y-62865000D02*
X154940000Y-62865000D01*
X143515000Y-85090000D02*
X140970000Y-87635000D01*
%TO.N,PGD*%
X151663536Y-70485000D02*
X156327410Y-70485000D01*
X155575000Y-83820000D02*
X155457599Y-83937401D01*
X155457599Y-83937401D02*
X142127599Y-83937401D01*
X142127599Y-83937401D02*
X140970000Y-85095000D01*
%TO.N,VPP*%
X143392599Y-82432599D02*
X149758391Y-82432599D01*
X142240000Y-81280000D02*
X143392599Y-82432599D01*
X149758391Y-82432599D02*
X149860000Y-82330990D01*
%TO.N,Out_7*%
X155575000Y-55880000D02*
X151130000Y-55880000D01*
%TO.N,Net-(R57-Pad1)*%
X154305000Y-87630000D02*
X155575000Y-86360000D01*
X143510000Y-87630000D02*
X154305000Y-87630000D01*
%TO.N,Net-(R58-Pad1)*%
X143510000Y-86360000D02*
X146685000Y-86360000D01*
%TO.N,Net-(U1-Pad18)*%
X153772965Y-77572965D02*
X156189580Y-77572965D01*
X156189580Y-77572965D02*
X156227224Y-77610609D01*
%TO.N,Net-(U1-Pad17)*%
X152400000Y-78740000D02*
X155575000Y-78740000D01*
%TO.N,Net-(U1-Pad3)*%
X154173384Y-75565000D02*
X154420974Y-75317410D01*
X146297599Y-75565000D02*
X154173384Y-75565000D01*
X146050000Y-75812599D02*
X146297599Y-75565000D01*
%TO.N,Net-(U1-Pad2)*%
X151130000Y-99695000D02*
X144780000Y-99695000D01*
X147955000Y-78740000D02*
X149225000Y-78740000D01*
X148590000Y-53340000D02*
X153552590Y-53340000D01*
X144780000Y-78740000D02*
X147955000Y-78740000D01*
%TO.N,Net-(U1-Pad1)*%
X149225000Y-50800000D02*
X151130000Y-50800000D01*
X149225000Y-77470000D02*
X151247410Y-77470000D01*
X151247410Y-77470000D02*
X151403240Y-77625830D01*
%TD*%
M02*
