M48
; DRILL file {KiCad (5.1.0-846-g23d3ccbdc)} date Monday, June 03, 2019 at 05:32:11 PM
; FORMAT={-:-/ absolute / inch / decimal}
; #@! TF.CreationDate,2019-06-03T17:32:11-07:00
; #@! TF.GenerationSoftware,Kicad,Pcbnew,(5.1.0-846-g23d3ccbdc)
; #@! TF.FileFunction,Plated,1,2,PTH
FMAT,2
INCH
T1C0.0157
T2C0.0315
T3C0.0394
T4C0.0551
%
G90
G05
T1
X3.725Y-3.85
X3.85Y-2.975
X3.85Y-3.425
X4.125Y-2.725
X4.125Y-3.55
X4.125Y-3.625
X4.1375Y-3.8375
X4.1454Y-3.375
X4.1704Y-3.9
X4.3534Y-3.0954
X4.4Y-2.025
X4.4005Y-3.025
X4.4204Y-3.225
X4.425Y-2.225
X4.425Y-3.15
X4.45Y-2.125
X4.45Y-2.325
X4.45Y-4.725
X4.4796Y-3.075
X4.4796Y-4.425
X4.55Y-2.85
X4.65Y-3.275
X4.7Y-3.475
X5.075Y-1.775
X5.075Y-2.575
X5.075Y-4.375
X5.075Y-4.45
X5.0904Y-1.85
X5.0904Y-2.25
X5.0904Y-3.05
X5.0904Y-4.05
X5.1Y-2.175
X5.1Y-2.65
X5.1Y-2.975
X5.1Y-3.575
X5.1Y-3.65
X5.1Y-3.975
X5.1Y-4.75
X5.1Y-4.85
X5.35Y-2.325
X5.35Y-2.725
X5.35Y-3.125
X5.3679Y-4.1679
X5.3699Y-1.7699
X5.3699Y-2.9801
X5.3724Y-2.1724
X5.3724Y-2.5724
X5.3724Y-3.5724
X5.3724Y-3.9724
X5.3724Y-4.3776
X5.3724Y-4.7724
X5.375Y-3.725
X5.375Y-4.525
X5.375Y-4.925
X5.3929Y-1.9679
X5.625Y-1.725
X5.625Y-1.925
X5.625Y-2.125
X5.625Y-2.325
X5.625Y-2.525
X5.625Y-2.725
X5.625Y-2.925
X5.625Y-3.125
X5.625Y-3.525
X5.625Y-3.725
X5.625Y-3.925
X5.625Y-4.125
X5.625Y-4.325
X5.625Y-4.525
X5.625Y-4.725
X5.625Y-4.925
X5.75Y-1.725
X5.75Y-1.925
X5.75Y-2.125
X5.75Y-2.325
X5.75Y-2.525
X5.75Y-2.725
X5.75Y-2.925
X5.75Y-3.125
X5.75Y-3.525
X5.75Y-3.725
X5.75Y-3.925
X5.75Y-4.125
X5.75Y-4.325
X5.75Y-4.525
X5.75Y-4.725
X5.75Y-4.925
T2
X4.275Y-4.225
X4.275Y-4.325
X4.275Y-4.425
X4.275Y-4.525
X4.275Y-4.625
X4.275Y-4.725
X4.275Y-4.825
X4.275Y-4.925
X4.575Y-4.225
X4.575Y-4.325
X4.575Y-4.425
X4.575Y-4.525
X4.575Y-4.625
X4.575Y-4.725
X4.575Y-4.825
X4.575Y-4.925
X4.275Y-1.925
X4.275Y-2.025
X4.275Y-2.125
X4.275Y-2.225
X4.275Y-2.325
X4.275Y-2.425
X4.275Y-2.525
X4.275Y-2.625
X4.575Y-1.925
X4.575Y-2.025
X4.575Y-2.125
X4.575Y-2.225
X4.575Y-2.325
X4.575Y-2.425
X4.575Y-2.525
X4.575Y-2.625
X4.275Y-3.025
X4.275Y-3.125
X4.275Y-3.225
X4.275Y-3.325
X4.275Y-3.425
X4.275Y-3.525
X4.275Y-3.625
X4.275Y-3.725
X4.275Y-3.825
X4.575Y-3.025
X4.575Y-3.125
X4.575Y-3.225
X4.575Y-3.325
X4.575Y-3.425
X4.575Y-3.525
X4.575Y-3.625
X4.575Y-3.725
X4.575Y-3.825
X3.525Y-2.575
X3.525Y-2.6734
T3
X3.975Y-3.325
X3.975Y-3.425
X3.975Y-3.525
X3.975Y-3.625
X3.975Y-3.725
X3.4459Y-3.925
X3.4459Y-4.025
X3.4459Y-4.125
X3.4459Y-4.225
X3.4459Y-4.325
X3.4459Y-4.425
X3.975Y-3.925
X3.975Y-4.025
X3.975Y-4.125
X3.975Y-4.225
X3.975Y-4.325
X3.975Y-4.425
T4
X5.975Y-1.725
X5.975Y-1.925
X5.975Y-2.125
X5.975Y-2.325
X5.975Y-2.525
X5.975Y-2.725
X5.975Y-2.925
X5.975Y-3.125
X5.975Y-3.525
X5.975Y-3.725
X5.975Y-3.925
X5.975Y-4.125
X5.975Y-4.325
X5.975Y-4.525
X5.975Y-4.725
X5.975Y-4.925
X3.375Y-3.0
X3.375Y-3.2
X3.375Y-3.4
X3.375Y-3.6
T0
M30
