G04 #@! TF.GenerationSoftware,KiCad,Pcbnew,(5.1.0-846-g23d3ccbdc)*
G04 #@! TF.CreationDate,2019-06-03T17:31:47-07:00*
G04 #@! TF.ProjectId,R_Switch,525f5377-6974-4636-982e-6b696361645f,n/c*
G04 #@! TF.SameCoordinates,Original*
G04 #@! TF.FileFunction,Legend,Bot*
G04 #@! TF.FilePolarity,Positive*
%FSLAX46Y46*%
G04 Gerber Fmt 4.6, Leading zero omitted, Abs format (unit mm)*
G04 Created by KiCad (PCBNEW (5.1.0-846-g23d3ccbdc)) date 2019-06-03 17:31:47*
%MOMM*%
%LPD*%
G04 APERTURE LIST*
%ADD10C,0.150000*%
%ADD11C,0.120000*%
%ADD12C,3.302000*%
%ADD13O,2.502000X1.702000*%
%ADD14R,2.502000X1.702000*%
%ADD15O,3.702000X2.182000*%
%ADD16C,0.100000*%
%ADD17C,2.182000*%
%ADD18O,1.802000X1.802000*%
%ADD19R,1.802000X1.802000*%
%ADD20C,1.778868*%
%ADD21C,1.527000*%
%ADD22C,1.702000*%
%ADD23R,1.702000X1.702000*%
G04 APERTURE END LIST*
D10*
X93971904Y-91892380D02*
X94448095Y-91892380D01*
X94448095Y-90892380D01*
X93638571Y-91368571D02*
X93305238Y-91368571D01*
X93162380Y-91892380D02*
X93638571Y-91892380D01*
X93638571Y-90892380D01*
X93162380Y-90892380D01*
X92733809Y-91892380D02*
X92733809Y-90892380D01*
X92495714Y-90892380D01*
X92352857Y-90940000D01*
X92257619Y-91035238D01*
X92210000Y-91130476D01*
X92162380Y-91320952D01*
X92162380Y-91463809D01*
X92210000Y-91654285D01*
X92257619Y-91749523D01*
X92352857Y-91844761D01*
X92495714Y-91892380D01*
X92733809Y-91892380D01*
X91733809Y-91511428D02*
X90971904Y-91511428D01*
X94543333Y-86812380D02*
X94543333Y-85812380D01*
X94162380Y-85812380D01*
X94067142Y-85860000D01*
X94019523Y-85907619D01*
X93971904Y-86002857D01*
X93971904Y-86145714D01*
X94019523Y-86240952D01*
X94067142Y-86288571D01*
X94162380Y-86336190D01*
X94543333Y-86336190D01*
X93210000Y-86288571D02*
X93067142Y-86336190D01*
X93019523Y-86383809D01*
X92971904Y-86479047D01*
X92971904Y-86621904D01*
X93019523Y-86717142D01*
X93067142Y-86764761D01*
X93162380Y-86812380D01*
X93543333Y-86812380D01*
X93543333Y-85812380D01*
X93210000Y-85812380D01*
X93114761Y-85860000D01*
X93067142Y-85907619D01*
X93019523Y-86002857D01*
X93019523Y-86098095D01*
X93067142Y-86193333D01*
X93114761Y-86240952D01*
X93210000Y-86288571D01*
X93543333Y-86288571D01*
X91781428Y-86812380D02*
X91781428Y-85812380D01*
X91305238Y-86145714D02*
X91305238Y-86812380D01*
X91305238Y-86240952D02*
X91257619Y-86193333D01*
X91162380Y-86145714D01*
X91019523Y-86145714D01*
X90924285Y-86193333D01*
X90876666Y-86288571D01*
X90876666Y-86812380D01*
X93471904Y-80780000D02*
X93567142Y-80732380D01*
X93710000Y-80732380D01*
X93852857Y-80780000D01*
X93948095Y-80875238D01*
X93995714Y-80970476D01*
X94043333Y-81160952D01*
X94043333Y-81303809D01*
X93995714Y-81494285D01*
X93948095Y-81589523D01*
X93852857Y-81684761D01*
X93710000Y-81732380D01*
X93614761Y-81732380D01*
X93471904Y-81684761D01*
X93424285Y-81637142D01*
X93424285Y-81303809D01*
X93614761Y-81303809D01*
X92995714Y-81732380D02*
X92995714Y-80732380D01*
X92424285Y-81732380D01*
X92424285Y-80732380D01*
X91948095Y-81732380D02*
X91948095Y-80732380D01*
X91710000Y-80732380D01*
X91567142Y-80780000D01*
X91471904Y-80875238D01*
X91424285Y-80970476D01*
X91376666Y-81160952D01*
X91376666Y-81303809D01*
X91424285Y-81494285D01*
X91471904Y-81589523D01*
X91567142Y-81684761D01*
X91710000Y-81732380D01*
X91948095Y-81732380D01*
X94471904Y-76271428D02*
X93710000Y-76271428D01*
X94090952Y-76652380D02*
X94090952Y-75890476D01*
X92710000Y-76652380D02*
X93281428Y-76652380D01*
X92995714Y-76652380D02*
X92995714Y-75652380D01*
X93090952Y-75795238D01*
X93186190Y-75890476D01*
X93281428Y-75938095D01*
X92329047Y-75747619D02*
X92281428Y-75700000D01*
X92186190Y-75652380D01*
X91948095Y-75652380D01*
X91852857Y-75700000D01*
X91805238Y-75747619D01*
X91757619Y-75842857D01*
X91757619Y-75938095D01*
X91805238Y-76080952D01*
X92376666Y-76652380D01*
X91757619Y-76652380D01*
X91471904Y-75652380D02*
X91138571Y-76652380D01*
X90805238Y-75652380D01*
D11*
X146055000Y-43515000D02*
X146055000Y-44115000D01*
X146655000Y-43815000D02*
X146055000Y-43515000D01*
X146055000Y-44115000D02*
X146655000Y-43815000D01*
X153965000Y-82115000D02*
X153965000Y-81375000D01*
X148665000Y-82115000D02*
X153965000Y-82115000D01*
X148665000Y-41075000D02*
X148665000Y-82115000D01*
X153965000Y-41075000D02*
X148665000Y-41075000D01*
X153965000Y-41815000D02*
X153965000Y-41075000D01*
X153965000Y-76295000D02*
X153965000Y-77375000D01*
X153965000Y-71215000D02*
X153965000Y-72295000D01*
X153965000Y-66135000D02*
X153965000Y-67215000D01*
X153965000Y-61055000D02*
X153965000Y-62135000D01*
X153965000Y-55975000D02*
X153965000Y-57055000D01*
X153965000Y-50895000D02*
X153965000Y-51975000D01*
X153965000Y-45815000D02*
X153965000Y-46895000D01*
X148665000Y-80375000D02*
X148665000Y-78375000D01*
X146855000Y-80375000D02*
X148665000Y-80375000D01*
X146855000Y-78375000D02*
X146855000Y-80375000D01*
X148665000Y-78375000D02*
X146855000Y-78375000D01*
X148665000Y-75295000D02*
X148665000Y-73295000D01*
X146855000Y-75295000D02*
X148665000Y-75295000D01*
X146855000Y-73295000D02*
X146855000Y-75295000D01*
X148665000Y-73295000D02*
X146855000Y-73295000D01*
X148665000Y-70215000D02*
X148665000Y-68215000D01*
X146855000Y-70215000D02*
X148665000Y-70215000D01*
X146855000Y-68215000D02*
X146855000Y-70215000D01*
X148665000Y-68215000D02*
X146855000Y-68215000D01*
X148665000Y-65135000D02*
X148665000Y-63135000D01*
X146855000Y-65135000D02*
X148665000Y-65135000D01*
X146855000Y-63135000D02*
X146855000Y-65135000D01*
X148665000Y-63135000D02*
X146855000Y-63135000D01*
X148665000Y-60055000D02*
X148665000Y-58055000D01*
X146855000Y-60055000D02*
X148665000Y-60055000D01*
X146855000Y-58055000D02*
X146855000Y-60055000D01*
X148665000Y-58055000D02*
X146855000Y-58055000D01*
X148665000Y-54975000D02*
X148665000Y-52975000D01*
X146855000Y-54975000D02*
X148665000Y-54975000D01*
X146855000Y-52975000D02*
X146855000Y-54975000D01*
X148665000Y-52975000D02*
X146855000Y-52975000D01*
X148665000Y-49895000D02*
X148665000Y-47895000D01*
X146855000Y-49895000D02*
X148665000Y-49895000D01*
X146855000Y-47895000D02*
X146855000Y-49895000D01*
X148665000Y-47895000D02*
X146855000Y-47895000D01*
X148665000Y-44815000D02*
X148665000Y-42815000D01*
X146855000Y-44815000D02*
X148665000Y-44815000D01*
X146855000Y-42815000D02*
X146855000Y-44815000D01*
X148665000Y-42815000D02*
X146855000Y-42815000D01*
X147665000Y-75295000D02*
X147665000Y-78375000D01*
X147665000Y-70215000D02*
X147665000Y-73295000D01*
X147665000Y-65135000D02*
X147665000Y-68215000D01*
X147665000Y-60055000D02*
X147665000Y-63135000D01*
X147665000Y-54975000D02*
X147665000Y-58055000D01*
X147665000Y-49895000D02*
X147665000Y-52975000D01*
X147665000Y-44815000D02*
X147665000Y-47895000D01*
X147665000Y-83025000D02*
X147665000Y-80485000D01*
X147665000Y-40165000D02*
X147665000Y-42705000D01*
X146855000Y-83025000D02*
X146855000Y-40165000D01*
X155675000Y-83025000D02*
X146855000Y-83025000D01*
X155675000Y-40165000D02*
X155675000Y-83025000D01*
X146855000Y-40165000D02*
X155675000Y-40165000D01*
X153980821Y-81361841D02*
G75*
G03X153965000Y-77375000I-1665821J1986841D01*
G01*
X153980821Y-76281841D02*
G75*
G03X153965000Y-72295000I-1665821J1986841D01*
G01*
X153980821Y-71201841D02*
G75*
G03X153965000Y-67215000I-1665821J1986841D01*
G01*
X153980821Y-66121841D02*
G75*
G03X153965000Y-62135000I-1665821J1986841D01*
G01*
X153980821Y-61041841D02*
G75*
G03X153965000Y-57055000I-1665821J1986841D01*
G01*
X153980821Y-55961841D02*
G75*
G03X153965000Y-51975000I-1665821J1986841D01*
G01*
X153980821Y-50881841D02*
G75*
G03X153965000Y-46895000I-1665821J1986841D01*
G01*
X153980821Y-45801841D02*
G75*
G03X153965000Y-41815000I-1665821J1986841D01*
G01*
X146055000Y-89235000D02*
X146055000Y-89835000D01*
X146655000Y-89535000D02*
X146055000Y-89235000D01*
X146055000Y-89835000D02*
X146655000Y-89535000D01*
X153965000Y-127835000D02*
X153965000Y-127095000D01*
X148665000Y-127835000D02*
X153965000Y-127835000D01*
X148665000Y-86795000D02*
X148665000Y-127835000D01*
X153965000Y-86795000D02*
X148665000Y-86795000D01*
X153965000Y-87535000D02*
X153965000Y-86795000D01*
X153965000Y-122015000D02*
X153965000Y-123095000D01*
X153965000Y-116935000D02*
X153965000Y-118015000D01*
X153965000Y-111855000D02*
X153965000Y-112935000D01*
X153965000Y-106775000D02*
X153965000Y-107855000D01*
X153965000Y-101695000D02*
X153965000Y-102775000D01*
X153965000Y-96615000D02*
X153965000Y-97695000D01*
X153965000Y-91535000D02*
X153965000Y-92615000D01*
X148665000Y-126095000D02*
X148665000Y-124095000D01*
X146855000Y-126095000D02*
X148665000Y-126095000D01*
X146855000Y-124095000D02*
X146855000Y-126095000D01*
X148665000Y-124095000D02*
X146855000Y-124095000D01*
X148665000Y-121015000D02*
X148665000Y-119015000D01*
X146855000Y-121015000D02*
X148665000Y-121015000D01*
X146855000Y-119015000D02*
X146855000Y-121015000D01*
X148665000Y-119015000D02*
X146855000Y-119015000D01*
X148665000Y-115935000D02*
X148665000Y-113935000D01*
X146855000Y-115935000D02*
X148665000Y-115935000D01*
X146855000Y-113935000D02*
X146855000Y-115935000D01*
X148665000Y-113935000D02*
X146855000Y-113935000D01*
X148665000Y-110855000D02*
X148665000Y-108855000D01*
X146855000Y-110855000D02*
X148665000Y-110855000D01*
X146855000Y-108855000D02*
X146855000Y-110855000D01*
X148665000Y-108855000D02*
X146855000Y-108855000D01*
X148665000Y-105775000D02*
X148665000Y-103775000D01*
X146855000Y-105775000D02*
X148665000Y-105775000D01*
X146855000Y-103775000D02*
X146855000Y-105775000D01*
X148665000Y-103775000D02*
X146855000Y-103775000D01*
X148665000Y-100695000D02*
X148665000Y-98695000D01*
X146855000Y-100695000D02*
X148665000Y-100695000D01*
X146855000Y-98695000D02*
X146855000Y-100695000D01*
X148665000Y-98695000D02*
X146855000Y-98695000D01*
X148665000Y-95615000D02*
X148665000Y-93615000D01*
X146855000Y-95615000D02*
X148665000Y-95615000D01*
X146855000Y-93615000D02*
X146855000Y-95615000D01*
X148665000Y-93615000D02*
X146855000Y-93615000D01*
X148665000Y-90535000D02*
X148665000Y-88535000D01*
X146855000Y-90535000D02*
X148665000Y-90535000D01*
X146855000Y-88535000D02*
X146855000Y-90535000D01*
X148665000Y-88535000D02*
X146855000Y-88535000D01*
X147665000Y-121015000D02*
X147665000Y-124095000D01*
X147665000Y-115935000D02*
X147665000Y-119015000D01*
X147665000Y-110855000D02*
X147665000Y-113935000D01*
X147665000Y-105775000D02*
X147665000Y-108855000D01*
X147665000Y-100695000D02*
X147665000Y-103775000D01*
X147665000Y-95615000D02*
X147665000Y-98695000D01*
X147665000Y-90535000D02*
X147665000Y-93615000D01*
X147665000Y-128745000D02*
X147665000Y-126205000D01*
X147665000Y-85885000D02*
X147665000Y-88425000D01*
X146855000Y-128745000D02*
X146855000Y-85885000D01*
X155675000Y-128745000D02*
X146855000Y-128745000D01*
X155675000Y-85885000D02*
X155675000Y-128745000D01*
X146855000Y-85885000D02*
X155675000Y-85885000D01*
X153980821Y-127081841D02*
G75*
G03X153965000Y-123095000I-1665821J1986841D01*
G01*
X153980821Y-122001841D02*
G75*
G03X153965000Y-118015000I-1665821J1986841D01*
G01*
X153980821Y-116921841D02*
G75*
G03X153965000Y-112935000I-1665821J1986841D01*
G01*
X153980821Y-111841841D02*
G75*
G03X153965000Y-107855000I-1665821J1986841D01*
G01*
X153980821Y-106761841D02*
G75*
G03X153965000Y-102775000I-1665821J1986841D01*
G01*
X153980821Y-101681841D02*
G75*
G03X153965000Y-97695000I-1665821J1986841D01*
G01*
X153980821Y-96601841D02*
G75*
G03X153965000Y-92615000I-1665821J1986841D01*
G01*
X153980821Y-91521841D02*
G75*
G03X153965000Y-87535000I-1665821J1986841D01*
G01*
X80015000Y-75900000D02*
X80015000Y-76500000D01*
X80615000Y-76200000D02*
X80015000Y-75900000D01*
X80015000Y-76500000D02*
X80615000Y-76200000D01*
X87925000Y-94180000D02*
X87925000Y-93440000D01*
X82625000Y-94180000D02*
X87925000Y-94180000D01*
X82625000Y-73460000D02*
X82625000Y-94180000D01*
X87925000Y-73460000D02*
X82625000Y-73460000D01*
X87925000Y-74200000D02*
X87925000Y-73460000D01*
X87925000Y-88360000D02*
X87925000Y-89440000D01*
X87925000Y-83280000D02*
X87925000Y-84360000D01*
X87925000Y-78200000D02*
X87925000Y-79280000D01*
X82625000Y-92440000D02*
X82625000Y-90440000D01*
X80815000Y-92440000D02*
X82625000Y-92440000D01*
X80815000Y-90440000D02*
X80815000Y-92440000D01*
X82625000Y-90440000D02*
X80815000Y-90440000D01*
X82625000Y-87360000D02*
X82625000Y-85360000D01*
X80815000Y-87360000D02*
X82625000Y-87360000D01*
X80815000Y-85360000D02*
X80815000Y-87360000D01*
X82625000Y-85360000D02*
X80815000Y-85360000D01*
X82625000Y-82280000D02*
X82625000Y-80280000D01*
X80815000Y-82280000D02*
X82625000Y-82280000D01*
X80815000Y-80280000D02*
X80815000Y-82280000D01*
X82625000Y-80280000D02*
X80815000Y-80280000D01*
X82625000Y-77200000D02*
X82625000Y-75200000D01*
X80815000Y-77200000D02*
X82625000Y-77200000D01*
X80815000Y-75200000D02*
X80815000Y-77200000D01*
X82625000Y-75200000D02*
X80815000Y-75200000D01*
X81625000Y-87360000D02*
X81625000Y-90440000D01*
X81625000Y-82280000D02*
X81625000Y-85360000D01*
X81625000Y-77200000D02*
X81625000Y-80280000D01*
X81625000Y-95090000D02*
X81625000Y-92550000D01*
X81625000Y-72550000D02*
X81625000Y-75090000D01*
X80815000Y-95090000D02*
X80815000Y-72550000D01*
X89635000Y-95090000D02*
X80815000Y-95090000D01*
X89635000Y-72550000D02*
X89635000Y-95090000D01*
X80815000Y-72550000D02*
X89635000Y-72550000D01*
X87940821Y-93426841D02*
G75*
G03X87925000Y-89440000I-1665821J1986841D01*
G01*
X87940821Y-88346841D02*
G75*
G03X87925000Y-84360000I-1665821J1986841D01*
G01*
X87940821Y-83266841D02*
G75*
G03X87925000Y-79280000I-1665821J1986841D01*
G01*
X87940821Y-78186841D02*
G75*
G03X87925000Y-74200000I-1665821J1986841D01*
G01*
X135660000Y-77225000D02*
X128110000Y-77225000D01*
X135660000Y-81525000D02*
X128110000Y-81525000D01*
X135660000Y-77225000D02*
X135660000Y-81525000D01*
X135660000Y-72145000D02*
X128110000Y-72145000D01*
X135660000Y-76445000D02*
X128110000Y-76445000D01*
X135660000Y-72145000D02*
X135660000Y-76445000D01*
X135660000Y-67065000D02*
X128110000Y-67065000D01*
X135660000Y-71365000D02*
X128110000Y-71365000D01*
X135660000Y-67065000D02*
X135660000Y-71365000D01*
X135660000Y-61985000D02*
X128110000Y-61985000D01*
X135660000Y-66285000D02*
X128110000Y-66285000D01*
X135660000Y-61985000D02*
X135660000Y-66285000D01*
X135660000Y-56905000D02*
X128110000Y-56905000D01*
X135660000Y-61205000D02*
X128110000Y-61205000D01*
X135660000Y-56905000D02*
X135660000Y-61205000D01*
X135660000Y-51825000D02*
X128110000Y-51825000D01*
X135660000Y-56125000D02*
X128110000Y-56125000D01*
X135660000Y-51825000D02*
X135660000Y-56125000D01*
X135660000Y-46745000D02*
X128110000Y-46745000D01*
X135660000Y-51045000D02*
X128110000Y-51045000D01*
X135660000Y-46745000D02*
X135660000Y-51045000D01*
X135660000Y-41665000D02*
X128110000Y-41665000D01*
X135660000Y-45965000D02*
X128110000Y-45965000D01*
X135660000Y-41665000D02*
X135660000Y-45965000D01*
X140415000Y-78240000D02*
X144475000Y-78240000D01*
X140415000Y-80510000D02*
X140415000Y-78240000D01*
X144475000Y-80510000D02*
X140415000Y-80510000D01*
X140415000Y-73160000D02*
X144475000Y-73160000D01*
X140415000Y-75430000D02*
X140415000Y-73160000D01*
X144475000Y-75430000D02*
X140415000Y-75430000D01*
X140415000Y-68080000D02*
X144475000Y-68080000D01*
X140415000Y-70350000D02*
X140415000Y-68080000D01*
X144475000Y-70350000D02*
X140415000Y-70350000D01*
X140415000Y-63000000D02*
X144475000Y-63000000D01*
X140415000Y-65270000D02*
X140415000Y-63000000D01*
X144475000Y-65270000D02*
X140415000Y-65270000D01*
X140415000Y-57920000D02*
X144475000Y-57920000D01*
X140415000Y-60190000D02*
X140415000Y-57920000D01*
X144475000Y-60190000D02*
X140415000Y-60190000D01*
X140415000Y-52840000D02*
X144475000Y-52840000D01*
X140415000Y-55110000D02*
X140415000Y-52840000D01*
X144475000Y-55110000D02*
X140415000Y-55110000D01*
X140415000Y-47760000D02*
X144475000Y-47760000D01*
X140415000Y-50030000D02*
X140415000Y-47760000D01*
X144475000Y-50030000D02*
X140415000Y-50030000D01*
X140415000Y-42680000D02*
X144475000Y-42680000D01*
X140415000Y-44950000D02*
X140415000Y-42680000D01*
X144475000Y-44950000D02*
X140415000Y-44950000D01*
X135660000Y-122945000D02*
X128110000Y-122945000D01*
X135660000Y-127245000D02*
X128110000Y-127245000D01*
X135660000Y-122945000D02*
X135660000Y-127245000D01*
X135660000Y-117865000D02*
X128110000Y-117865000D01*
X135660000Y-122165000D02*
X128110000Y-122165000D01*
X135660000Y-117865000D02*
X135660000Y-122165000D01*
X135660000Y-112785000D02*
X128110000Y-112785000D01*
X135660000Y-117085000D02*
X128110000Y-117085000D01*
X135660000Y-112785000D02*
X135660000Y-117085000D01*
X135660000Y-107705000D02*
X128110000Y-107705000D01*
X135660000Y-112005000D02*
X128110000Y-112005000D01*
X135660000Y-107705000D02*
X135660000Y-112005000D01*
X135660000Y-102625000D02*
X128110000Y-102625000D01*
X135660000Y-106925000D02*
X128110000Y-106925000D01*
X135660000Y-102625000D02*
X135660000Y-106925000D01*
X135660000Y-97545000D02*
X128110000Y-97545000D01*
X135660000Y-101845000D02*
X128110000Y-101845000D01*
X135660000Y-97545000D02*
X135660000Y-101845000D01*
X135660000Y-92465000D02*
X128110000Y-92465000D01*
X135660000Y-96765000D02*
X128110000Y-96765000D01*
X135660000Y-92465000D02*
X135660000Y-96765000D01*
X135660000Y-87385000D02*
X128110000Y-87385000D01*
X135660000Y-91685000D02*
X128110000Y-91685000D01*
X135660000Y-87385000D02*
X135660000Y-91685000D01*
X140415000Y-123960000D02*
X144475000Y-123960000D01*
X140415000Y-126230000D02*
X140415000Y-123960000D01*
X144475000Y-126230000D02*
X140415000Y-126230000D01*
X140415000Y-118880000D02*
X144475000Y-118880000D01*
X140415000Y-121150000D02*
X140415000Y-118880000D01*
X144475000Y-121150000D02*
X140415000Y-121150000D01*
X140415000Y-113800000D02*
X144475000Y-113800000D01*
X140415000Y-116070000D02*
X140415000Y-113800000D01*
X144475000Y-116070000D02*
X140415000Y-116070000D01*
X140415000Y-108720000D02*
X144475000Y-108720000D01*
X140415000Y-110990000D02*
X140415000Y-108720000D01*
X144475000Y-110990000D02*
X140415000Y-110990000D01*
X140415000Y-103640000D02*
X144475000Y-103640000D01*
X140415000Y-105910000D02*
X140415000Y-103640000D01*
X144475000Y-105910000D02*
X140415000Y-105910000D01*
X140415000Y-98560000D02*
X144475000Y-98560000D01*
X140415000Y-100830000D02*
X140415000Y-98560000D01*
X144475000Y-100830000D02*
X140415000Y-100830000D01*
X140415000Y-93480000D02*
X144475000Y-93480000D01*
X140415000Y-95750000D02*
X140415000Y-93480000D01*
X144475000Y-95750000D02*
X140415000Y-95750000D01*
X140415000Y-88400000D02*
X144475000Y-88400000D01*
X140415000Y-90670000D02*
X140415000Y-88400000D01*
X144475000Y-90670000D02*
X140415000Y-90670000D01*
D10*
X145217380Y-61261666D02*
X145931666Y-61261666D01*
X146074523Y-61214047D01*
X146169761Y-61118809D01*
X146217380Y-60975952D01*
X146217380Y-60880714D01*
X145217380Y-62166428D02*
X145217380Y-61975952D01*
X145265000Y-61880714D01*
X145312619Y-61833095D01*
X145455476Y-61737857D01*
X145645952Y-61690238D01*
X146026904Y-61690238D01*
X146122142Y-61737857D01*
X146169761Y-61785476D01*
X146217380Y-61880714D01*
X146217380Y-62071190D01*
X146169761Y-62166428D01*
X146122142Y-62214047D01*
X146026904Y-62261666D01*
X145788809Y-62261666D01*
X145693571Y-62214047D01*
X145645952Y-62166428D01*
X145598333Y-62071190D01*
X145598333Y-61880714D01*
X145645952Y-61785476D01*
X145693571Y-61737857D01*
X145788809Y-61690238D01*
X145217380Y-106981666D02*
X145931666Y-106981666D01*
X146074523Y-106934047D01*
X146169761Y-106838809D01*
X146217380Y-106695952D01*
X146217380Y-106600714D01*
X145217380Y-107934047D02*
X145217380Y-107457857D01*
X145693571Y-107410238D01*
X145645952Y-107457857D01*
X145598333Y-107553095D01*
X145598333Y-107791190D01*
X145645952Y-107886428D01*
X145693571Y-107934047D01*
X145788809Y-107981666D01*
X146026904Y-107981666D01*
X146122142Y-107934047D01*
X146169761Y-107886428D01*
X146217380Y-107791190D01*
X146217380Y-107553095D01*
X146169761Y-107457857D01*
X146122142Y-107410238D01*
X82883333Y-70572380D02*
X82883333Y-71286666D01*
X82930952Y-71429523D01*
X83026190Y-71524761D01*
X83169047Y-71572380D01*
X83264285Y-71572380D01*
X81883333Y-71572380D02*
X82454761Y-71572380D01*
X82169047Y-71572380D02*
X82169047Y-70572380D01*
X82264285Y-70715238D01*
X82359523Y-70810476D01*
X82454761Y-70858095D01*
X132024285Y-76827380D02*
X132024285Y-75827380D01*
X131786190Y-75827380D01*
X131643333Y-75875000D01*
X131548095Y-75970238D01*
X131500476Y-76065476D01*
X131452857Y-76255952D01*
X131452857Y-76398809D01*
X131500476Y-76589285D01*
X131548095Y-76684523D01*
X131643333Y-76779761D01*
X131786190Y-76827380D01*
X132024285Y-76827380D01*
X130548095Y-75827380D02*
X131024285Y-75827380D01*
X131071904Y-76303571D01*
X131024285Y-76255952D01*
X130929047Y-76208333D01*
X130690952Y-76208333D01*
X130595714Y-76255952D01*
X130548095Y-76303571D01*
X130500476Y-76398809D01*
X130500476Y-76636904D01*
X130548095Y-76732142D01*
X130595714Y-76779761D01*
X130690952Y-76827380D01*
X130929047Y-76827380D01*
X131024285Y-76779761D01*
X131071904Y-76732142D01*
X129881428Y-75827380D02*
X129786190Y-75827380D01*
X129690952Y-75875000D01*
X129643333Y-75922619D01*
X129595714Y-76017857D01*
X129548095Y-76208333D01*
X129548095Y-76446428D01*
X129595714Y-76636904D01*
X129643333Y-76732142D01*
X129690952Y-76779761D01*
X129786190Y-76827380D01*
X129881428Y-76827380D01*
X129976666Y-76779761D01*
X130024285Y-76732142D01*
X130071904Y-76636904D01*
X130119523Y-76446428D01*
X130119523Y-76208333D01*
X130071904Y-76017857D01*
X130024285Y-75922619D01*
X129976666Y-75875000D01*
X129881428Y-75827380D01*
X132024285Y-71747380D02*
X132024285Y-70747380D01*
X131786190Y-70747380D01*
X131643333Y-70795000D01*
X131548095Y-70890238D01*
X131500476Y-70985476D01*
X131452857Y-71175952D01*
X131452857Y-71318809D01*
X131500476Y-71509285D01*
X131548095Y-71604523D01*
X131643333Y-71699761D01*
X131786190Y-71747380D01*
X132024285Y-71747380D01*
X130595714Y-71080714D02*
X130595714Y-71747380D01*
X130833809Y-70699761D02*
X131071904Y-71414047D01*
X130452857Y-71414047D01*
X130024285Y-71747380D02*
X129833809Y-71747380D01*
X129738571Y-71699761D01*
X129690952Y-71652142D01*
X129595714Y-71509285D01*
X129548095Y-71318809D01*
X129548095Y-70937857D01*
X129595714Y-70842619D01*
X129643333Y-70795000D01*
X129738571Y-70747380D01*
X129929047Y-70747380D01*
X130024285Y-70795000D01*
X130071904Y-70842619D01*
X130119523Y-70937857D01*
X130119523Y-71175952D01*
X130071904Y-71271190D01*
X130024285Y-71318809D01*
X129929047Y-71366428D01*
X129738571Y-71366428D01*
X129643333Y-71318809D01*
X129595714Y-71271190D01*
X129548095Y-71175952D01*
X132024285Y-66667380D02*
X132024285Y-65667380D01*
X131786190Y-65667380D01*
X131643333Y-65715000D01*
X131548095Y-65810238D01*
X131500476Y-65905476D01*
X131452857Y-66095952D01*
X131452857Y-66238809D01*
X131500476Y-66429285D01*
X131548095Y-66524523D01*
X131643333Y-66619761D01*
X131786190Y-66667380D01*
X132024285Y-66667380D01*
X130595714Y-66000714D02*
X130595714Y-66667380D01*
X130833809Y-65619761D02*
X131071904Y-66334047D01*
X130452857Y-66334047D01*
X129929047Y-66095952D02*
X130024285Y-66048333D01*
X130071904Y-66000714D01*
X130119523Y-65905476D01*
X130119523Y-65857857D01*
X130071904Y-65762619D01*
X130024285Y-65715000D01*
X129929047Y-65667380D01*
X129738571Y-65667380D01*
X129643333Y-65715000D01*
X129595714Y-65762619D01*
X129548095Y-65857857D01*
X129548095Y-65905476D01*
X129595714Y-66000714D01*
X129643333Y-66048333D01*
X129738571Y-66095952D01*
X129929047Y-66095952D01*
X130024285Y-66143571D01*
X130071904Y-66191190D01*
X130119523Y-66286428D01*
X130119523Y-66476904D01*
X130071904Y-66572142D01*
X130024285Y-66619761D01*
X129929047Y-66667380D01*
X129738571Y-66667380D01*
X129643333Y-66619761D01*
X129595714Y-66572142D01*
X129548095Y-66476904D01*
X129548095Y-66286428D01*
X129595714Y-66191190D01*
X129643333Y-66143571D01*
X129738571Y-66095952D01*
X132024285Y-61587380D02*
X132024285Y-60587380D01*
X131786190Y-60587380D01*
X131643333Y-60635000D01*
X131548095Y-60730238D01*
X131500476Y-60825476D01*
X131452857Y-61015952D01*
X131452857Y-61158809D01*
X131500476Y-61349285D01*
X131548095Y-61444523D01*
X131643333Y-61539761D01*
X131786190Y-61587380D01*
X132024285Y-61587380D01*
X130595714Y-60920714D02*
X130595714Y-61587380D01*
X130833809Y-60539761D02*
X131071904Y-61254047D01*
X130452857Y-61254047D01*
X130167142Y-60587380D02*
X129500476Y-60587380D01*
X129929047Y-61587380D01*
X132024285Y-56507380D02*
X132024285Y-55507380D01*
X131786190Y-55507380D01*
X131643333Y-55555000D01*
X131548095Y-55650238D01*
X131500476Y-55745476D01*
X131452857Y-55935952D01*
X131452857Y-56078809D01*
X131500476Y-56269285D01*
X131548095Y-56364523D01*
X131643333Y-56459761D01*
X131786190Y-56507380D01*
X132024285Y-56507380D01*
X130595714Y-55840714D02*
X130595714Y-56507380D01*
X130833809Y-55459761D02*
X131071904Y-56174047D01*
X130452857Y-56174047D01*
X129643333Y-55507380D02*
X129833809Y-55507380D01*
X129929047Y-55555000D01*
X129976666Y-55602619D01*
X130071904Y-55745476D01*
X130119523Y-55935952D01*
X130119523Y-56316904D01*
X130071904Y-56412142D01*
X130024285Y-56459761D01*
X129929047Y-56507380D01*
X129738571Y-56507380D01*
X129643333Y-56459761D01*
X129595714Y-56412142D01*
X129548095Y-56316904D01*
X129548095Y-56078809D01*
X129595714Y-55983571D01*
X129643333Y-55935952D01*
X129738571Y-55888333D01*
X129929047Y-55888333D01*
X130024285Y-55935952D01*
X130071904Y-55983571D01*
X130119523Y-56078809D01*
X132024285Y-51427380D02*
X132024285Y-50427380D01*
X131786190Y-50427380D01*
X131643333Y-50475000D01*
X131548095Y-50570238D01*
X131500476Y-50665476D01*
X131452857Y-50855952D01*
X131452857Y-50998809D01*
X131500476Y-51189285D01*
X131548095Y-51284523D01*
X131643333Y-51379761D01*
X131786190Y-51427380D01*
X132024285Y-51427380D01*
X130595714Y-50760714D02*
X130595714Y-51427380D01*
X130833809Y-50379761D02*
X131071904Y-51094047D01*
X130452857Y-51094047D01*
X129595714Y-50427380D02*
X130071904Y-50427380D01*
X130119523Y-50903571D01*
X130071904Y-50855952D01*
X129976666Y-50808333D01*
X129738571Y-50808333D01*
X129643333Y-50855952D01*
X129595714Y-50903571D01*
X129548095Y-50998809D01*
X129548095Y-51236904D01*
X129595714Y-51332142D01*
X129643333Y-51379761D01*
X129738571Y-51427380D01*
X129976666Y-51427380D01*
X130071904Y-51379761D01*
X130119523Y-51332142D01*
X132024285Y-46347380D02*
X132024285Y-45347380D01*
X131786190Y-45347380D01*
X131643333Y-45395000D01*
X131548095Y-45490238D01*
X131500476Y-45585476D01*
X131452857Y-45775952D01*
X131452857Y-45918809D01*
X131500476Y-46109285D01*
X131548095Y-46204523D01*
X131643333Y-46299761D01*
X131786190Y-46347380D01*
X132024285Y-46347380D01*
X130595714Y-45680714D02*
X130595714Y-46347380D01*
X130833809Y-45299761D02*
X131071904Y-46014047D01*
X130452857Y-46014047D01*
X129643333Y-45680714D02*
X129643333Y-46347380D01*
X129881428Y-45299761D02*
X130119523Y-46014047D01*
X129500476Y-46014047D01*
X132024285Y-41267380D02*
X132024285Y-40267380D01*
X131786190Y-40267380D01*
X131643333Y-40315000D01*
X131548095Y-40410238D01*
X131500476Y-40505476D01*
X131452857Y-40695952D01*
X131452857Y-40838809D01*
X131500476Y-41029285D01*
X131548095Y-41124523D01*
X131643333Y-41219761D01*
X131786190Y-41267380D01*
X132024285Y-41267380D01*
X130595714Y-40600714D02*
X130595714Y-41267380D01*
X130833809Y-40219761D02*
X131071904Y-40934047D01*
X130452857Y-40934047D01*
X130167142Y-40267380D02*
X129548095Y-40267380D01*
X129881428Y-40648333D01*
X129738571Y-40648333D01*
X129643333Y-40695952D01*
X129595714Y-40743571D01*
X129548095Y-40838809D01*
X129548095Y-41076904D01*
X129595714Y-41172142D01*
X129643333Y-41219761D01*
X129738571Y-41267380D01*
X130024285Y-41267380D01*
X130119523Y-41219761D01*
X130167142Y-41172142D01*
X144089285Y-81647380D02*
X144089285Y-80647380D01*
X143851190Y-80647380D01*
X143708333Y-80695000D01*
X143613095Y-80790238D01*
X143565476Y-80885476D01*
X143517857Y-81075952D01*
X143517857Y-81218809D01*
X143565476Y-81409285D01*
X143613095Y-81504523D01*
X143708333Y-81599761D01*
X143851190Y-81647380D01*
X144089285Y-81647380D01*
X143184523Y-80647380D02*
X142565476Y-80647380D01*
X142898809Y-81028333D01*
X142755952Y-81028333D01*
X142660714Y-81075952D01*
X142613095Y-81123571D01*
X142565476Y-81218809D01*
X142565476Y-81456904D01*
X142613095Y-81552142D01*
X142660714Y-81599761D01*
X142755952Y-81647380D01*
X143041666Y-81647380D01*
X143136904Y-81599761D01*
X143184523Y-81552142D01*
X141708333Y-80980714D02*
X141708333Y-81647380D01*
X141946428Y-80599761D02*
X142184523Y-81314047D01*
X141565476Y-81314047D01*
X144089285Y-76567380D02*
X144089285Y-75567380D01*
X143851190Y-75567380D01*
X143708333Y-75615000D01*
X143613095Y-75710238D01*
X143565476Y-75805476D01*
X143517857Y-75995952D01*
X143517857Y-76138809D01*
X143565476Y-76329285D01*
X143613095Y-76424523D01*
X143708333Y-76519761D01*
X143851190Y-76567380D01*
X144089285Y-76567380D01*
X143184523Y-75567380D02*
X142565476Y-75567380D01*
X142898809Y-75948333D01*
X142755952Y-75948333D01*
X142660714Y-75995952D01*
X142613095Y-76043571D01*
X142565476Y-76138809D01*
X142565476Y-76376904D01*
X142613095Y-76472142D01*
X142660714Y-76519761D01*
X142755952Y-76567380D01*
X143041666Y-76567380D01*
X143136904Y-76519761D01*
X143184523Y-76472142D01*
X142232142Y-75567380D02*
X141613095Y-75567380D01*
X141946428Y-75948333D01*
X141803571Y-75948333D01*
X141708333Y-75995952D01*
X141660714Y-76043571D01*
X141613095Y-76138809D01*
X141613095Y-76376904D01*
X141660714Y-76472142D01*
X141708333Y-76519761D01*
X141803571Y-76567380D01*
X142089285Y-76567380D01*
X142184523Y-76519761D01*
X142232142Y-76472142D01*
X144089285Y-71487380D02*
X144089285Y-70487380D01*
X143851190Y-70487380D01*
X143708333Y-70535000D01*
X143613095Y-70630238D01*
X143565476Y-70725476D01*
X143517857Y-70915952D01*
X143517857Y-71058809D01*
X143565476Y-71249285D01*
X143613095Y-71344523D01*
X143708333Y-71439761D01*
X143851190Y-71487380D01*
X144089285Y-71487380D01*
X143184523Y-70487380D02*
X142565476Y-70487380D01*
X142898809Y-70868333D01*
X142755952Y-70868333D01*
X142660714Y-70915952D01*
X142613095Y-70963571D01*
X142565476Y-71058809D01*
X142565476Y-71296904D01*
X142613095Y-71392142D01*
X142660714Y-71439761D01*
X142755952Y-71487380D01*
X143041666Y-71487380D01*
X143136904Y-71439761D01*
X143184523Y-71392142D01*
X142184523Y-70582619D02*
X142136904Y-70535000D01*
X142041666Y-70487380D01*
X141803571Y-70487380D01*
X141708333Y-70535000D01*
X141660714Y-70582619D01*
X141613095Y-70677857D01*
X141613095Y-70773095D01*
X141660714Y-70915952D01*
X142232142Y-71487380D01*
X141613095Y-71487380D01*
X144089285Y-66407380D02*
X144089285Y-65407380D01*
X143851190Y-65407380D01*
X143708333Y-65455000D01*
X143613095Y-65550238D01*
X143565476Y-65645476D01*
X143517857Y-65835952D01*
X143517857Y-65978809D01*
X143565476Y-66169285D01*
X143613095Y-66264523D01*
X143708333Y-66359761D01*
X143851190Y-66407380D01*
X144089285Y-66407380D01*
X143184523Y-65407380D02*
X142565476Y-65407380D01*
X142898809Y-65788333D01*
X142755952Y-65788333D01*
X142660714Y-65835952D01*
X142613095Y-65883571D01*
X142565476Y-65978809D01*
X142565476Y-66216904D01*
X142613095Y-66312142D01*
X142660714Y-66359761D01*
X142755952Y-66407380D01*
X143041666Y-66407380D01*
X143136904Y-66359761D01*
X143184523Y-66312142D01*
X141613095Y-66407380D02*
X142184523Y-66407380D01*
X141898809Y-66407380D02*
X141898809Y-65407380D01*
X141994047Y-65550238D01*
X142089285Y-65645476D01*
X142184523Y-65693095D01*
X144089285Y-61327380D02*
X144089285Y-60327380D01*
X143851190Y-60327380D01*
X143708333Y-60375000D01*
X143613095Y-60470238D01*
X143565476Y-60565476D01*
X143517857Y-60755952D01*
X143517857Y-60898809D01*
X143565476Y-61089285D01*
X143613095Y-61184523D01*
X143708333Y-61279761D01*
X143851190Y-61327380D01*
X144089285Y-61327380D01*
X143184523Y-60327380D02*
X142565476Y-60327380D01*
X142898809Y-60708333D01*
X142755952Y-60708333D01*
X142660714Y-60755952D01*
X142613095Y-60803571D01*
X142565476Y-60898809D01*
X142565476Y-61136904D01*
X142613095Y-61232142D01*
X142660714Y-61279761D01*
X142755952Y-61327380D01*
X143041666Y-61327380D01*
X143136904Y-61279761D01*
X143184523Y-61232142D01*
X141946428Y-60327380D02*
X141851190Y-60327380D01*
X141755952Y-60375000D01*
X141708333Y-60422619D01*
X141660714Y-60517857D01*
X141613095Y-60708333D01*
X141613095Y-60946428D01*
X141660714Y-61136904D01*
X141708333Y-61232142D01*
X141755952Y-61279761D01*
X141851190Y-61327380D01*
X141946428Y-61327380D01*
X142041666Y-61279761D01*
X142089285Y-61232142D01*
X142136904Y-61136904D01*
X142184523Y-60946428D01*
X142184523Y-60708333D01*
X142136904Y-60517857D01*
X142089285Y-60422619D01*
X142041666Y-60375000D01*
X141946428Y-60327380D01*
X144089285Y-56247380D02*
X144089285Y-55247380D01*
X143851190Y-55247380D01*
X143708333Y-55295000D01*
X143613095Y-55390238D01*
X143565476Y-55485476D01*
X143517857Y-55675952D01*
X143517857Y-55818809D01*
X143565476Y-56009285D01*
X143613095Y-56104523D01*
X143708333Y-56199761D01*
X143851190Y-56247380D01*
X144089285Y-56247380D01*
X143136904Y-55342619D02*
X143089285Y-55295000D01*
X142994047Y-55247380D01*
X142755952Y-55247380D01*
X142660714Y-55295000D01*
X142613095Y-55342619D01*
X142565476Y-55437857D01*
X142565476Y-55533095D01*
X142613095Y-55675952D01*
X143184523Y-56247380D01*
X142565476Y-56247380D01*
X142089285Y-56247380D02*
X141898809Y-56247380D01*
X141803571Y-56199761D01*
X141755952Y-56152142D01*
X141660714Y-56009285D01*
X141613095Y-55818809D01*
X141613095Y-55437857D01*
X141660714Y-55342619D01*
X141708333Y-55295000D01*
X141803571Y-55247380D01*
X141994047Y-55247380D01*
X142089285Y-55295000D01*
X142136904Y-55342619D01*
X142184523Y-55437857D01*
X142184523Y-55675952D01*
X142136904Y-55771190D01*
X142089285Y-55818809D01*
X141994047Y-55866428D01*
X141803571Y-55866428D01*
X141708333Y-55818809D01*
X141660714Y-55771190D01*
X141613095Y-55675952D01*
X144089285Y-51167380D02*
X144089285Y-50167380D01*
X143851190Y-50167380D01*
X143708333Y-50215000D01*
X143613095Y-50310238D01*
X143565476Y-50405476D01*
X143517857Y-50595952D01*
X143517857Y-50738809D01*
X143565476Y-50929285D01*
X143613095Y-51024523D01*
X143708333Y-51119761D01*
X143851190Y-51167380D01*
X144089285Y-51167380D01*
X143136904Y-50262619D02*
X143089285Y-50215000D01*
X142994047Y-50167380D01*
X142755952Y-50167380D01*
X142660714Y-50215000D01*
X142613095Y-50262619D01*
X142565476Y-50357857D01*
X142565476Y-50453095D01*
X142613095Y-50595952D01*
X143184523Y-51167380D01*
X142565476Y-51167380D01*
X141994047Y-50595952D02*
X142089285Y-50548333D01*
X142136904Y-50500714D01*
X142184523Y-50405476D01*
X142184523Y-50357857D01*
X142136904Y-50262619D01*
X142089285Y-50215000D01*
X141994047Y-50167380D01*
X141803571Y-50167380D01*
X141708333Y-50215000D01*
X141660714Y-50262619D01*
X141613095Y-50357857D01*
X141613095Y-50405476D01*
X141660714Y-50500714D01*
X141708333Y-50548333D01*
X141803571Y-50595952D01*
X141994047Y-50595952D01*
X142089285Y-50643571D01*
X142136904Y-50691190D01*
X142184523Y-50786428D01*
X142184523Y-50976904D01*
X142136904Y-51072142D01*
X142089285Y-51119761D01*
X141994047Y-51167380D01*
X141803571Y-51167380D01*
X141708333Y-51119761D01*
X141660714Y-51072142D01*
X141613095Y-50976904D01*
X141613095Y-50786428D01*
X141660714Y-50691190D01*
X141708333Y-50643571D01*
X141803571Y-50595952D01*
X144089285Y-46087380D02*
X144089285Y-45087380D01*
X143851190Y-45087380D01*
X143708333Y-45135000D01*
X143613095Y-45230238D01*
X143565476Y-45325476D01*
X143517857Y-45515952D01*
X143517857Y-45658809D01*
X143565476Y-45849285D01*
X143613095Y-45944523D01*
X143708333Y-46039761D01*
X143851190Y-46087380D01*
X144089285Y-46087380D01*
X143136904Y-45182619D02*
X143089285Y-45135000D01*
X142994047Y-45087380D01*
X142755952Y-45087380D01*
X142660714Y-45135000D01*
X142613095Y-45182619D01*
X142565476Y-45277857D01*
X142565476Y-45373095D01*
X142613095Y-45515952D01*
X143184523Y-46087380D01*
X142565476Y-46087380D01*
X142232142Y-45087380D02*
X141565476Y-45087380D01*
X141994047Y-46087380D01*
X132024285Y-122547380D02*
X132024285Y-121547380D01*
X131786190Y-121547380D01*
X131643333Y-121595000D01*
X131548095Y-121690238D01*
X131500476Y-121785476D01*
X131452857Y-121975952D01*
X131452857Y-122118809D01*
X131500476Y-122309285D01*
X131548095Y-122404523D01*
X131643333Y-122499761D01*
X131786190Y-122547380D01*
X132024285Y-122547380D01*
X131071904Y-121642619D02*
X131024285Y-121595000D01*
X130929047Y-121547380D01*
X130690952Y-121547380D01*
X130595714Y-121595000D01*
X130548095Y-121642619D01*
X130500476Y-121737857D01*
X130500476Y-121833095D01*
X130548095Y-121975952D01*
X131119523Y-122547380D01*
X130500476Y-122547380D01*
X129643333Y-121547380D02*
X129833809Y-121547380D01*
X129929047Y-121595000D01*
X129976666Y-121642619D01*
X130071904Y-121785476D01*
X130119523Y-121975952D01*
X130119523Y-122356904D01*
X130071904Y-122452142D01*
X130024285Y-122499761D01*
X129929047Y-122547380D01*
X129738571Y-122547380D01*
X129643333Y-122499761D01*
X129595714Y-122452142D01*
X129548095Y-122356904D01*
X129548095Y-122118809D01*
X129595714Y-122023571D01*
X129643333Y-121975952D01*
X129738571Y-121928333D01*
X129929047Y-121928333D01*
X130024285Y-121975952D01*
X130071904Y-122023571D01*
X130119523Y-122118809D01*
X132024285Y-117467380D02*
X132024285Y-116467380D01*
X131786190Y-116467380D01*
X131643333Y-116515000D01*
X131548095Y-116610238D01*
X131500476Y-116705476D01*
X131452857Y-116895952D01*
X131452857Y-117038809D01*
X131500476Y-117229285D01*
X131548095Y-117324523D01*
X131643333Y-117419761D01*
X131786190Y-117467380D01*
X132024285Y-117467380D01*
X131071904Y-116562619D02*
X131024285Y-116515000D01*
X130929047Y-116467380D01*
X130690952Y-116467380D01*
X130595714Y-116515000D01*
X130548095Y-116562619D01*
X130500476Y-116657857D01*
X130500476Y-116753095D01*
X130548095Y-116895952D01*
X131119523Y-117467380D01*
X130500476Y-117467380D01*
X129595714Y-116467380D02*
X130071904Y-116467380D01*
X130119523Y-116943571D01*
X130071904Y-116895952D01*
X129976666Y-116848333D01*
X129738571Y-116848333D01*
X129643333Y-116895952D01*
X129595714Y-116943571D01*
X129548095Y-117038809D01*
X129548095Y-117276904D01*
X129595714Y-117372142D01*
X129643333Y-117419761D01*
X129738571Y-117467380D01*
X129976666Y-117467380D01*
X130071904Y-117419761D01*
X130119523Y-117372142D01*
X132024285Y-112387380D02*
X132024285Y-111387380D01*
X131786190Y-111387380D01*
X131643333Y-111435000D01*
X131548095Y-111530238D01*
X131500476Y-111625476D01*
X131452857Y-111815952D01*
X131452857Y-111958809D01*
X131500476Y-112149285D01*
X131548095Y-112244523D01*
X131643333Y-112339761D01*
X131786190Y-112387380D01*
X132024285Y-112387380D01*
X131071904Y-111482619D02*
X131024285Y-111435000D01*
X130929047Y-111387380D01*
X130690952Y-111387380D01*
X130595714Y-111435000D01*
X130548095Y-111482619D01*
X130500476Y-111577857D01*
X130500476Y-111673095D01*
X130548095Y-111815952D01*
X131119523Y-112387380D01*
X130500476Y-112387380D01*
X129643333Y-111720714D02*
X129643333Y-112387380D01*
X129881428Y-111339761D02*
X130119523Y-112054047D01*
X129500476Y-112054047D01*
X132024285Y-107307380D02*
X132024285Y-106307380D01*
X131786190Y-106307380D01*
X131643333Y-106355000D01*
X131548095Y-106450238D01*
X131500476Y-106545476D01*
X131452857Y-106735952D01*
X131452857Y-106878809D01*
X131500476Y-107069285D01*
X131548095Y-107164523D01*
X131643333Y-107259761D01*
X131786190Y-107307380D01*
X132024285Y-107307380D01*
X131071904Y-106402619D02*
X131024285Y-106355000D01*
X130929047Y-106307380D01*
X130690952Y-106307380D01*
X130595714Y-106355000D01*
X130548095Y-106402619D01*
X130500476Y-106497857D01*
X130500476Y-106593095D01*
X130548095Y-106735952D01*
X131119523Y-107307380D01*
X130500476Y-107307380D01*
X130167142Y-106307380D02*
X129548095Y-106307380D01*
X129881428Y-106688333D01*
X129738571Y-106688333D01*
X129643333Y-106735952D01*
X129595714Y-106783571D01*
X129548095Y-106878809D01*
X129548095Y-107116904D01*
X129595714Y-107212142D01*
X129643333Y-107259761D01*
X129738571Y-107307380D01*
X130024285Y-107307380D01*
X130119523Y-107259761D01*
X130167142Y-107212142D01*
X132024285Y-102227380D02*
X132024285Y-101227380D01*
X131786190Y-101227380D01*
X131643333Y-101275000D01*
X131548095Y-101370238D01*
X131500476Y-101465476D01*
X131452857Y-101655952D01*
X131452857Y-101798809D01*
X131500476Y-101989285D01*
X131548095Y-102084523D01*
X131643333Y-102179761D01*
X131786190Y-102227380D01*
X132024285Y-102227380D01*
X131071904Y-101322619D02*
X131024285Y-101275000D01*
X130929047Y-101227380D01*
X130690952Y-101227380D01*
X130595714Y-101275000D01*
X130548095Y-101322619D01*
X130500476Y-101417857D01*
X130500476Y-101513095D01*
X130548095Y-101655952D01*
X131119523Y-102227380D01*
X130500476Y-102227380D01*
X130119523Y-101322619D02*
X130071904Y-101275000D01*
X129976666Y-101227380D01*
X129738571Y-101227380D01*
X129643333Y-101275000D01*
X129595714Y-101322619D01*
X129548095Y-101417857D01*
X129548095Y-101513095D01*
X129595714Y-101655952D01*
X130167142Y-102227380D01*
X129548095Y-102227380D01*
X132024285Y-97147380D02*
X132024285Y-96147380D01*
X131786190Y-96147380D01*
X131643333Y-96195000D01*
X131548095Y-96290238D01*
X131500476Y-96385476D01*
X131452857Y-96575952D01*
X131452857Y-96718809D01*
X131500476Y-96909285D01*
X131548095Y-97004523D01*
X131643333Y-97099761D01*
X131786190Y-97147380D01*
X132024285Y-97147380D01*
X131071904Y-96242619D02*
X131024285Y-96195000D01*
X130929047Y-96147380D01*
X130690952Y-96147380D01*
X130595714Y-96195000D01*
X130548095Y-96242619D01*
X130500476Y-96337857D01*
X130500476Y-96433095D01*
X130548095Y-96575952D01*
X131119523Y-97147380D01*
X130500476Y-97147380D01*
X129548095Y-97147380D02*
X130119523Y-97147380D01*
X129833809Y-97147380D02*
X129833809Y-96147380D01*
X129929047Y-96290238D01*
X130024285Y-96385476D01*
X130119523Y-96433095D01*
X132024285Y-92067380D02*
X132024285Y-91067380D01*
X131786190Y-91067380D01*
X131643333Y-91115000D01*
X131548095Y-91210238D01*
X131500476Y-91305476D01*
X131452857Y-91495952D01*
X131452857Y-91638809D01*
X131500476Y-91829285D01*
X131548095Y-91924523D01*
X131643333Y-92019761D01*
X131786190Y-92067380D01*
X132024285Y-92067380D01*
X131071904Y-91162619D02*
X131024285Y-91115000D01*
X130929047Y-91067380D01*
X130690952Y-91067380D01*
X130595714Y-91115000D01*
X130548095Y-91162619D01*
X130500476Y-91257857D01*
X130500476Y-91353095D01*
X130548095Y-91495952D01*
X131119523Y-92067380D01*
X130500476Y-92067380D01*
X129881428Y-91067380D02*
X129786190Y-91067380D01*
X129690952Y-91115000D01*
X129643333Y-91162619D01*
X129595714Y-91257857D01*
X129548095Y-91448333D01*
X129548095Y-91686428D01*
X129595714Y-91876904D01*
X129643333Y-91972142D01*
X129690952Y-92019761D01*
X129786190Y-92067380D01*
X129881428Y-92067380D01*
X129976666Y-92019761D01*
X130024285Y-91972142D01*
X130071904Y-91876904D01*
X130119523Y-91686428D01*
X130119523Y-91448333D01*
X130071904Y-91257857D01*
X130024285Y-91162619D01*
X129976666Y-91115000D01*
X129881428Y-91067380D01*
X132024285Y-86987380D02*
X132024285Y-85987380D01*
X131786190Y-85987380D01*
X131643333Y-86035000D01*
X131548095Y-86130238D01*
X131500476Y-86225476D01*
X131452857Y-86415952D01*
X131452857Y-86558809D01*
X131500476Y-86749285D01*
X131548095Y-86844523D01*
X131643333Y-86939761D01*
X131786190Y-86987380D01*
X132024285Y-86987380D01*
X130500476Y-86987380D02*
X131071904Y-86987380D01*
X130786190Y-86987380D02*
X130786190Y-85987380D01*
X130881428Y-86130238D01*
X130976666Y-86225476D01*
X131071904Y-86273095D01*
X130024285Y-86987380D02*
X129833809Y-86987380D01*
X129738571Y-86939761D01*
X129690952Y-86892142D01*
X129595714Y-86749285D01*
X129548095Y-86558809D01*
X129548095Y-86177857D01*
X129595714Y-86082619D01*
X129643333Y-86035000D01*
X129738571Y-85987380D01*
X129929047Y-85987380D01*
X130024285Y-86035000D01*
X130071904Y-86082619D01*
X130119523Y-86177857D01*
X130119523Y-86415952D01*
X130071904Y-86511190D01*
X130024285Y-86558809D01*
X129929047Y-86606428D01*
X129738571Y-86606428D01*
X129643333Y-86558809D01*
X129595714Y-86511190D01*
X129548095Y-86415952D01*
X144089285Y-127367380D02*
X144089285Y-126367380D01*
X143851190Y-126367380D01*
X143708333Y-126415000D01*
X143613095Y-126510238D01*
X143565476Y-126605476D01*
X143517857Y-126795952D01*
X143517857Y-126938809D01*
X143565476Y-127129285D01*
X143613095Y-127224523D01*
X143708333Y-127319761D01*
X143851190Y-127367380D01*
X144089285Y-127367380D01*
X142565476Y-127367380D02*
X143136904Y-127367380D01*
X142851190Y-127367380D02*
X142851190Y-126367380D01*
X142946428Y-126510238D01*
X143041666Y-126605476D01*
X143136904Y-126653095D01*
X141946428Y-126367380D02*
X141851190Y-126367380D01*
X141755952Y-126415000D01*
X141708333Y-126462619D01*
X141660714Y-126557857D01*
X141613095Y-126748333D01*
X141613095Y-126986428D01*
X141660714Y-127176904D01*
X141708333Y-127272142D01*
X141755952Y-127319761D01*
X141851190Y-127367380D01*
X141946428Y-127367380D01*
X142041666Y-127319761D01*
X142089285Y-127272142D01*
X142136904Y-127176904D01*
X142184523Y-126986428D01*
X142184523Y-126748333D01*
X142136904Y-126557857D01*
X142089285Y-126462619D01*
X142041666Y-126415000D01*
X141946428Y-126367380D01*
X143613095Y-122287380D02*
X143613095Y-121287380D01*
X143375000Y-121287380D01*
X143232142Y-121335000D01*
X143136904Y-121430238D01*
X143089285Y-121525476D01*
X143041666Y-121715952D01*
X143041666Y-121858809D01*
X143089285Y-122049285D01*
X143136904Y-122144523D01*
X143232142Y-122239761D01*
X143375000Y-122287380D01*
X143613095Y-122287380D01*
X142565476Y-122287380D02*
X142375000Y-122287380D01*
X142279761Y-122239761D01*
X142232142Y-122192142D01*
X142136904Y-122049285D01*
X142089285Y-121858809D01*
X142089285Y-121477857D01*
X142136904Y-121382619D01*
X142184523Y-121335000D01*
X142279761Y-121287380D01*
X142470238Y-121287380D01*
X142565476Y-121335000D01*
X142613095Y-121382619D01*
X142660714Y-121477857D01*
X142660714Y-121715952D01*
X142613095Y-121811190D01*
X142565476Y-121858809D01*
X142470238Y-121906428D01*
X142279761Y-121906428D01*
X142184523Y-121858809D01*
X142136904Y-121811190D01*
X142089285Y-121715952D01*
X143613095Y-117207380D02*
X143613095Y-116207380D01*
X143375000Y-116207380D01*
X143232142Y-116255000D01*
X143136904Y-116350238D01*
X143089285Y-116445476D01*
X143041666Y-116635952D01*
X143041666Y-116778809D01*
X143089285Y-116969285D01*
X143136904Y-117064523D01*
X143232142Y-117159761D01*
X143375000Y-117207380D01*
X143613095Y-117207380D01*
X142470238Y-116635952D02*
X142565476Y-116588333D01*
X142613095Y-116540714D01*
X142660714Y-116445476D01*
X142660714Y-116397857D01*
X142613095Y-116302619D01*
X142565476Y-116255000D01*
X142470238Y-116207380D01*
X142279761Y-116207380D01*
X142184523Y-116255000D01*
X142136904Y-116302619D01*
X142089285Y-116397857D01*
X142089285Y-116445476D01*
X142136904Y-116540714D01*
X142184523Y-116588333D01*
X142279761Y-116635952D01*
X142470238Y-116635952D01*
X142565476Y-116683571D01*
X142613095Y-116731190D01*
X142660714Y-116826428D01*
X142660714Y-117016904D01*
X142613095Y-117112142D01*
X142565476Y-117159761D01*
X142470238Y-117207380D01*
X142279761Y-117207380D01*
X142184523Y-117159761D01*
X142136904Y-117112142D01*
X142089285Y-117016904D01*
X142089285Y-116826428D01*
X142136904Y-116731190D01*
X142184523Y-116683571D01*
X142279761Y-116635952D01*
X143613095Y-112127380D02*
X143613095Y-111127380D01*
X143375000Y-111127380D01*
X143232142Y-111175000D01*
X143136904Y-111270238D01*
X143089285Y-111365476D01*
X143041666Y-111555952D01*
X143041666Y-111698809D01*
X143089285Y-111889285D01*
X143136904Y-111984523D01*
X143232142Y-112079761D01*
X143375000Y-112127380D01*
X143613095Y-112127380D01*
X142708333Y-111127380D02*
X142041666Y-111127380D01*
X142470238Y-112127380D01*
X143613095Y-107047380D02*
X143613095Y-106047380D01*
X143375000Y-106047380D01*
X143232142Y-106095000D01*
X143136904Y-106190238D01*
X143089285Y-106285476D01*
X143041666Y-106475952D01*
X143041666Y-106618809D01*
X143089285Y-106809285D01*
X143136904Y-106904523D01*
X143232142Y-106999761D01*
X143375000Y-107047380D01*
X143613095Y-107047380D01*
X142184523Y-106047380D02*
X142375000Y-106047380D01*
X142470238Y-106095000D01*
X142517857Y-106142619D01*
X142613095Y-106285476D01*
X142660714Y-106475952D01*
X142660714Y-106856904D01*
X142613095Y-106952142D01*
X142565476Y-106999761D01*
X142470238Y-107047380D01*
X142279761Y-107047380D01*
X142184523Y-106999761D01*
X142136904Y-106952142D01*
X142089285Y-106856904D01*
X142089285Y-106618809D01*
X142136904Y-106523571D01*
X142184523Y-106475952D01*
X142279761Y-106428333D01*
X142470238Y-106428333D01*
X142565476Y-106475952D01*
X142613095Y-106523571D01*
X142660714Y-106618809D01*
X143613095Y-101967380D02*
X143613095Y-100967380D01*
X143375000Y-100967380D01*
X143232142Y-101015000D01*
X143136904Y-101110238D01*
X143089285Y-101205476D01*
X143041666Y-101395952D01*
X143041666Y-101538809D01*
X143089285Y-101729285D01*
X143136904Y-101824523D01*
X143232142Y-101919761D01*
X143375000Y-101967380D01*
X143613095Y-101967380D01*
X142136904Y-100967380D02*
X142613095Y-100967380D01*
X142660714Y-101443571D01*
X142613095Y-101395952D01*
X142517857Y-101348333D01*
X142279761Y-101348333D01*
X142184523Y-101395952D01*
X142136904Y-101443571D01*
X142089285Y-101538809D01*
X142089285Y-101776904D01*
X142136904Y-101872142D01*
X142184523Y-101919761D01*
X142279761Y-101967380D01*
X142517857Y-101967380D01*
X142613095Y-101919761D01*
X142660714Y-101872142D01*
X143613095Y-96887380D02*
X143613095Y-95887380D01*
X143375000Y-95887380D01*
X143232142Y-95935000D01*
X143136904Y-96030238D01*
X143089285Y-96125476D01*
X143041666Y-96315952D01*
X143041666Y-96458809D01*
X143089285Y-96649285D01*
X143136904Y-96744523D01*
X143232142Y-96839761D01*
X143375000Y-96887380D01*
X143613095Y-96887380D01*
X142184523Y-96220714D02*
X142184523Y-96887380D01*
X142422619Y-95839761D02*
X142660714Y-96554047D01*
X142041666Y-96554047D01*
X143613095Y-91807380D02*
X143613095Y-90807380D01*
X143375000Y-90807380D01*
X143232142Y-90855000D01*
X143136904Y-90950238D01*
X143089285Y-91045476D01*
X143041666Y-91235952D01*
X143041666Y-91378809D01*
X143089285Y-91569285D01*
X143136904Y-91664523D01*
X143232142Y-91759761D01*
X143375000Y-91807380D01*
X143613095Y-91807380D01*
X142708333Y-90807380D02*
X142089285Y-90807380D01*
X142422619Y-91188333D01*
X142279761Y-91188333D01*
X142184523Y-91235952D01*
X142136904Y-91283571D01*
X142089285Y-91378809D01*
X142089285Y-91616904D01*
X142136904Y-91712142D01*
X142184523Y-91759761D01*
X142279761Y-91807380D01*
X142565476Y-91807380D01*
X142660714Y-91759761D01*
X142708333Y-91712142D01*
%LPC*%
D12*
X83820000Y-43180000D03*
X83820000Y-125730000D03*
D13*
X116205000Y-107315000D03*
X108585000Y-125095000D03*
X116205000Y-109855000D03*
X108585000Y-122555000D03*
X116205000Y-112395000D03*
X108585000Y-120015000D03*
X116205000Y-114935000D03*
X108585000Y-117475000D03*
X116205000Y-117475000D03*
X108585000Y-114935000D03*
X116205000Y-120015000D03*
X108585000Y-112395000D03*
X116205000Y-122555000D03*
X108585000Y-109855000D03*
X116205000Y-125095000D03*
D14*
X108585000Y-107315000D03*
D13*
X116205000Y-48895000D03*
X108585000Y-66675000D03*
X116205000Y-51435000D03*
X108585000Y-64135000D03*
X116205000Y-53975000D03*
X108585000Y-61595000D03*
X116205000Y-56515000D03*
X108585000Y-59055000D03*
X116205000Y-59055000D03*
X108585000Y-56515000D03*
X116205000Y-61595000D03*
X108585000Y-53975000D03*
X116205000Y-64135000D03*
X108585000Y-51435000D03*
X116205000Y-66675000D03*
D14*
X108585000Y-48895000D03*
D13*
X116205000Y-76835000D03*
X108585000Y-97155000D03*
X116205000Y-79375000D03*
X108585000Y-94615000D03*
X116205000Y-81915000D03*
X108585000Y-92075000D03*
X116205000Y-84455000D03*
X108585000Y-89535000D03*
X116205000Y-86995000D03*
X108585000Y-86995000D03*
X116205000Y-89535000D03*
X108585000Y-84455000D03*
X116205000Y-92075000D03*
X108585000Y-81915000D03*
X116205000Y-94615000D03*
X108585000Y-79375000D03*
X116205000Y-97155000D03*
D14*
X108585000Y-76835000D03*
D15*
X151765000Y-79375000D03*
X151765000Y-74295000D03*
X151765000Y-69215000D03*
X151765000Y-64135000D03*
X151765000Y-59055000D03*
X151765000Y-53975000D03*
X151765000Y-48895000D03*
D16*
G36*
X153454104Y-42743963D02*
G01*
X153539186Y-42800814D01*
X153596037Y-42885896D01*
X153616000Y-42986258D01*
X153616000Y-44643742D01*
X153596037Y-44744104D01*
X153539186Y-44829186D01*
X153454104Y-44886037D01*
X153353742Y-44906000D01*
X150176258Y-44906000D01*
X150075896Y-44886037D01*
X149990814Y-44829186D01*
X149933963Y-44744104D01*
X149914000Y-44643742D01*
X149914000Y-42986258D01*
X149933963Y-42885896D01*
X149990814Y-42800814D01*
X150075896Y-42743963D01*
X150176258Y-42724000D01*
X153353742Y-42724000D01*
X153454104Y-42743963D01*
X153454104Y-42743963D01*
G37*
D17*
X151765000Y-43815000D03*
D15*
X151765000Y-125095000D03*
X151765000Y-120015000D03*
X151765000Y-114935000D03*
X151765000Y-109855000D03*
X151765000Y-104775000D03*
X151765000Y-99695000D03*
X151765000Y-94615000D03*
D16*
G36*
X153454104Y-88463963D02*
G01*
X153539186Y-88520814D01*
X153596037Y-88605896D01*
X153616000Y-88706258D01*
X153616000Y-90363742D01*
X153596037Y-90464104D01*
X153539186Y-90549186D01*
X153454104Y-90606037D01*
X153353742Y-90626000D01*
X150176258Y-90626000D01*
X150075896Y-90606037D01*
X149990814Y-90549186D01*
X149933963Y-90464104D01*
X149914000Y-90363742D01*
X149914000Y-88706258D01*
X149933963Y-88605896D01*
X149990814Y-88520814D01*
X150075896Y-88463963D01*
X150176258Y-88444000D01*
X153353742Y-88444000D01*
X153454104Y-88463963D01*
X153454104Y-88463963D01*
G37*
D17*
X151765000Y-89535000D03*
D18*
X100965000Y-94615000D03*
X100965000Y-92075000D03*
X100965000Y-89535000D03*
X100965000Y-86995000D03*
D19*
X100965000Y-84455000D03*
D18*
X87525225Y-112395000D03*
X87525225Y-109855000D03*
X87525225Y-107315000D03*
X87525225Y-104775000D03*
X87525225Y-102235000D03*
D19*
X87525225Y-99695000D03*
D18*
X100965000Y-112395000D03*
X100965000Y-109855000D03*
X100965000Y-107315000D03*
X100965000Y-104775000D03*
X100965000Y-102235000D03*
D19*
X100965000Y-99695000D03*
D15*
X85725000Y-91440000D03*
X85725000Y-86360000D03*
X85725000Y-81280000D03*
D16*
G36*
X87414104Y-75128963D02*
G01*
X87499186Y-75185814D01*
X87556037Y-75270896D01*
X87576000Y-75371258D01*
X87576000Y-77028742D01*
X87556037Y-77129104D01*
X87499186Y-77214186D01*
X87414104Y-77271037D01*
X87313742Y-77291000D01*
X84136258Y-77291000D01*
X84035896Y-77271037D01*
X83950814Y-77214186D01*
X83893963Y-77129104D01*
X83874000Y-77028742D01*
X83874000Y-75371258D01*
X83893963Y-75270896D01*
X83950814Y-75185814D01*
X84035896Y-75128963D01*
X84136258Y-75109000D01*
X87313742Y-75109000D01*
X87414104Y-75128963D01*
X87414104Y-75128963D01*
G37*
D17*
X85725000Y-76200000D03*
D20*
X127910000Y-79375000D03*
D16*
G36*
X126059000Y-80585203D02*
G01*
X126059000Y-78164797D01*
X129761000Y-78781797D01*
X129761000Y-79968203D01*
X126059000Y-80585203D01*
X126059000Y-80585203D01*
G37*
D20*
X133710000Y-79375000D03*
D16*
G36*
X135561000Y-78164797D02*
G01*
X135561000Y-80585203D01*
X131859000Y-79968203D01*
X131859000Y-78781797D01*
X135561000Y-78164797D01*
X135561000Y-78164797D01*
G37*
D20*
X127910000Y-74295000D03*
D16*
G36*
X126059000Y-75505203D02*
G01*
X126059000Y-73084797D01*
X129761000Y-73701797D01*
X129761000Y-74888203D01*
X126059000Y-75505203D01*
X126059000Y-75505203D01*
G37*
D20*
X133710000Y-74295000D03*
D16*
G36*
X135561000Y-73084797D02*
G01*
X135561000Y-75505203D01*
X131859000Y-74888203D01*
X131859000Y-73701797D01*
X135561000Y-73084797D01*
X135561000Y-73084797D01*
G37*
D20*
X127910000Y-69215000D03*
D16*
G36*
X126059000Y-70425203D02*
G01*
X126059000Y-68004797D01*
X129761000Y-68621797D01*
X129761000Y-69808203D01*
X126059000Y-70425203D01*
X126059000Y-70425203D01*
G37*
D20*
X133710000Y-69215000D03*
D16*
G36*
X135561000Y-68004797D02*
G01*
X135561000Y-70425203D01*
X131859000Y-69808203D01*
X131859000Y-68621797D01*
X135561000Y-68004797D01*
X135561000Y-68004797D01*
G37*
D20*
X127910000Y-64135000D03*
D16*
G36*
X126059000Y-65345203D02*
G01*
X126059000Y-62924797D01*
X129761000Y-63541797D01*
X129761000Y-64728203D01*
X126059000Y-65345203D01*
X126059000Y-65345203D01*
G37*
D20*
X133710000Y-64135000D03*
D16*
G36*
X135561000Y-62924797D02*
G01*
X135561000Y-65345203D01*
X131859000Y-64728203D01*
X131859000Y-63541797D01*
X135561000Y-62924797D01*
X135561000Y-62924797D01*
G37*
D20*
X127910000Y-59055000D03*
D16*
G36*
X126059000Y-60265203D02*
G01*
X126059000Y-57844797D01*
X129761000Y-58461797D01*
X129761000Y-59648203D01*
X126059000Y-60265203D01*
X126059000Y-60265203D01*
G37*
D20*
X133710000Y-59055000D03*
D16*
G36*
X135561000Y-57844797D02*
G01*
X135561000Y-60265203D01*
X131859000Y-59648203D01*
X131859000Y-58461797D01*
X135561000Y-57844797D01*
X135561000Y-57844797D01*
G37*
D20*
X127910000Y-53975000D03*
D16*
G36*
X126059000Y-55185203D02*
G01*
X126059000Y-52764797D01*
X129761000Y-53381797D01*
X129761000Y-54568203D01*
X126059000Y-55185203D01*
X126059000Y-55185203D01*
G37*
D20*
X133710000Y-53975000D03*
D16*
G36*
X135561000Y-52764797D02*
G01*
X135561000Y-55185203D01*
X131859000Y-54568203D01*
X131859000Y-53381797D01*
X135561000Y-52764797D01*
X135561000Y-52764797D01*
G37*
D20*
X127910000Y-48895000D03*
D16*
G36*
X126059000Y-50105203D02*
G01*
X126059000Y-47684797D01*
X129761000Y-48301797D01*
X129761000Y-49488203D01*
X126059000Y-50105203D01*
X126059000Y-50105203D01*
G37*
D20*
X133710000Y-48895000D03*
D16*
G36*
X135561000Y-47684797D02*
G01*
X135561000Y-50105203D01*
X131859000Y-49488203D01*
X131859000Y-48301797D01*
X135561000Y-47684797D01*
X135561000Y-47684797D01*
G37*
D20*
X127910000Y-43815000D03*
D16*
G36*
X126059000Y-45025203D02*
G01*
X126059000Y-42604797D01*
X129761000Y-43221797D01*
X129761000Y-44408203D01*
X126059000Y-45025203D01*
X126059000Y-45025203D01*
G37*
D20*
X133710000Y-43815000D03*
D16*
G36*
X135561000Y-42604797D02*
G01*
X135561000Y-45025203D01*
X131859000Y-44408203D01*
X131859000Y-43221797D01*
X135561000Y-42604797D01*
X135561000Y-42604797D01*
G37*
G36*
X144960624Y-78469392D02*
G01*
X145047535Y-78527465D01*
X145105608Y-78614376D01*
X145126000Y-78716895D01*
X145126000Y-80033105D01*
X145105608Y-80135624D01*
X145047535Y-80222535D01*
X144960624Y-80280608D01*
X144858105Y-80301000D01*
X143866895Y-80301000D01*
X143764376Y-80280608D01*
X143677465Y-80222535D01*
X143619392Y-80135624D01*
X143599000Y-80033105D01*
X143599000Y-78716895D01*
X143619392Y-78614376D01*
X143677465Y-78527465D01*
X143764376Y-78469392D01*
X143866895Y-78449000D01*
X144858105Y-78449000D01*
X144960624Y-78469392D01*
X144960624Y-78469392D01*
G37*
D21*
X144362500Y-79375000D03*
D16*
G36*
X141985624Y-78469392D02*
G01*
X142072535Y-78527465D01*
X142130608Y-78614376D01*
X142151000Y-78716895D01*
X142151000Y-80033105D01*
X142130608Y-80135624D01*
X142072535Y-80222535D01*
X141985624Y-80280608D01*
X141883105Y-80301000D01*
X140891895Y-80301000D01*
X140789376Y-80280608D01*
X140702465Y-80222535D01*
X140644392Y-80135624D01*
X140624000Y-80033105D01*
X140624000Y-78716895D01*
X140644392Y-78614376D01*
X140702465Y-78527465D01*
X140789376Y-78469392D01*
X140891895Y-78449000D01*
X141883105Y-78449000D01*
X141985624Y-78469392D01*
X141985624Y-78469392D01*
G37*
D21*
X141387500Y-79375000D03*
D16*
G36*
X144960624Y-73389392D02*
G01*
X145047535Y-73447465D01*
X145105608Y-73534376D01*
X145126000Y-73636895D01*
X145126000Y-74953105D01*
X145105608Y-75055624D01*
X145047535Y-75142535D01*
X144960624Y-75200608D01*
X144858105Y-75221000D01*
X143866895Y-75221000D01*
X143764376Y-75200608D01*
X143677465Y-75142535D01*
X143619392Y-75055624D01*
X143599000Y-74953105D01*
X143599000Y-73636895D01*
X143619392Y-73534376D01*
X143677465Y-73447465D01*
X143764376Y-73389392D01*
X143866895Y-73369000D01*
X144858105Y-73369000D01*
X144960624Y-73389392D01*
X144960624Y-73389392D01*
G37*
D21*
X144362500Y-74295000D03*
D16*
G36*
X141985624Y-73389392D02*
G01*
X142072535Y-73447465D01*
X142130608Y-73534376D01*
X142151000Y-73636895D01*
X142151000Y-74953105D01*
X142130608Y-75055624D01*
X142072535Y-75142535D01*
X141985624Y-75200608D01*
X141883105Y-75221000D01*
X140891895Y-75221000D01*
X140789376Y-75200608D01*
X140702465Y-75142535D01*
X140644392Y-75055624D01*
X140624000Y-74953105D01*
X140624000Y-73636895D01*
X140644392Y-73534376D01*
X140702465Y-73447465D01*
X140789376Y-73389392D01*
X140891895Y-73369000D01*
X141883105Y-73369000D01*
X141985624Y-73389392D01*
X141985624Y-73389392D01*
G37*
D21*
X141387500Y-74295000D03*
D16*
G36*
X144960624Y-68309392D02*
G01*
X145047535Y-68367465D01*
X145105608Y-68454376D01*
X145126000Y-68556895D01*
X145126000Y-69873105D01*
X145105608Y-69975624D01*
X145047535Y-70062535D01*
X144960624Y-70120608D01*
X144858105Y-70141000D01*
X143866895Y-70141000D01*
X143764376Y-70120608D01*
X143677465Y-70062535D01*
X143619392Y-69975624D01*
X143599000Y-69873105D01*
X143599000Y-68556895D01*
X143619392Y-68454376D01*
X143677465Y-68367465D01*
X143764376Y-68309392D01*
X143866895Y-68289000D01*
X144858105Y-68289000D01*
X144960624Y-68309392D01*
X144960624Y-68309392D01*
G37*
D21*
X144362500Y-69215000D03*
D16*
G36*
X141985624Y-68309392D02*
G01*
X142072535Y-68367465D01*
X142130608Y-68454376D01*
X142151000Y-68556895D01*
X142151000Y-69873105D01*
X142130608Y-69975624D01*
X142072535Y-70062535D01*
X141985624Y-70120608D01*
X141883105Y-70141000D01*
X140891895Y-70141000D01*
X140789376Y-70120608D01*
X140702465Y-70062535D01*
X140644392Y-69975624D01*
X140624000Y-69873105D01*
X140624000Y-68556895D01*
X140644392Y-68454376D01*
X140702465Y-68367465D01*
X140789376Y-68309392D01*
X140891895Y-68289000D01*
X141883105Y-68289000D01*
X141985624Y-68309392D01*
X141985624Y-68309392D01*
G37*
D21*
X141387500Y-69215000D03*
D16*
G36*
X144960624Y-63229392D02*
G01*
X145047535Y-63287465D01*
X145105608Y-63374376D01*
X145126000Y-63476895D01*
X145126000Y-64793105D01*
X145105608Y-64895624D01*
X145047535Y-64982535D01*
X144960624Y-65040608D01*
X144858105Y-65061000D01*
X143866895Y-65061000D01*
X143764376Y-65040608D01*
X143677465Y-64982535D01*
X143619392Y-64895624D01*
X143599000Y-64793105D01*
X143599000Y-63476895D01*
X143619392Y-63374376D01*
X143677465Y-63287465D01*
X143764376Y-63229392D01*
X143866895Y-63209000D01*
X144858105Y-63209000D01*
X144960624Y-63229392D01*
X144960624Y-63229392D01*
G37*
D21*
X144362500Y-64135000D03*
D16*
G36*
X141985624Y-63229392D02*
G01*
X142072535Y-63287465D01*
X142130608Y-63374376D01*
X142151000Y-63476895D01*
X142151000Y-64793105D01*
X142130608Y-64895624D01*
X142072535Y-64982535D01*
X141985624Y-65040608D01*
X141883105Y-65061000D01*
X140891895Y-65061000D01*
X140789376Y-65040608D01*
X140702465Y-64982535D01*
X140644392Y-64895624D01*
X140624000Y-64793105D01*
X140624000Y-63476895D01*
X140644392Y-63374376D01*
X140702465Y-63287465D01*
X140789376Y-63229392D01*
X140891895Y-63209000D01*
X141883105Y-63209000D01*
X141985624Y-63229392D01*
X141985624Y-63229392D01*
G37*
D21*
X141387500Y-64135000D03*
D16*
G36*
X144960624Y-58149392D02*
G01*
X145047535Y-58207465D01*
X145105608Y-58294376D01*
X145126000Y-58396895D01*
X145126000Y-59713105D01*
X145105608Y-59815624D01*
X145047535Y-59902535D01*
X144960624Y-59960608D01*
X144858105Y-59981000D01*
X143866895Y-59981000D01*
X143764376Y-59960608D01*
X143677465Y-59902535D01*
X143619392Y-59815624D01*
X143599000Y-59713105D01*
X143599000Y-58396895D01*
X143619392Y-58294376D01*
X143677465Y-58207465D01*
X143764376Y-58149392D01*
X143866895Y-58129000D01*
X144858105Y-58129000D01*
X144960624Y-58149392D01*
X144960624Y-58149392D01*
G37*
D21*
X144362500Y-59055000D03*
D16*
G36*
X141985624Y-58149392D02*
G01*
X142072535Y-58207465D01*
X142130608Y-58294376D01*
X142151000Y-58396895D01*
X142151000Y-59713105D01*
X142130608Y-59815624D01*
X142072535Y-59902535D01*
X141985624Y-59960608D01*
X141883105Y-59981000D01*
X140891895Y-59981000D01*
X140789376Y-59960608D01*
X140702465Y-59902535D01*
X140644392Y-59815624D01*
X140624000Y-59713105D01*
X140624000Y-58396895D01*
X140644392Y-58294376D01*
X140702465Y-58207465D01*
X140789376Y-58149392D01*
X140891895Y-58129000D01*
X141883105Y-58129000D01*
X141985624Y-58149392D01*
X141985624Y-58149392D01*
G37*
D21*
X141387500Y-59055000D03*
D16*
G36*
X144960624Y-53069392D02*
G01*
X145047535Y-53127465D01*
X145105608Y-53214376D01*
X145126000Y-53316895D01*
X145126000Y-54633105D01*
X145105608Y-54735624D01*
X145047535Y-54822535D01*
X144960624Y-54880608D01*
X144858105Y-54901000D01*
X143866895Y-54901000D01*
X143764376Y-54880608D01*
X143677465Y-54822535D01*
X143619392Y-54735624D01*
X143599000Y-54633105D01*
X143599000Y-53316895D01*
X143619392Y-53214376D01*
X143677465Y-53127465D01*
X143764376Y-53069392D01*
X143866895Y-53049000D01*
X144858105Y-53049000D01*
X144960624Y-53069392D01*
X144960624Y-53069392D01*
G37*
D21*
X144362500Y-53975000D03*
D16*
G36*
X141985624Y-53069392D02*
G01*
X142072535Y-53127465D01*
X142130608Y-53214376D01*
X142151000Y-53316895D01*
X142151000Y-54633105D01*
X142130608Y-54735624D01*
X142072535Y-54822535D01*
X141985624Y-54880608D01*
X141883105Y-54901000D01*
X140891895Y-54901000D01*
X140789376Y-54880608D01*
X140702465Y-54822535D01*
X140644392Y-54735624D01*
X140624000Y-54633105D01*
X140624000Y-53316895D01*
X140644392Y-53214376D01*
X140702465Y-53127465D01*
X140789376Y-53069392D01*
X140891895Y-53049000D01*
X141883105Y-53049000D01*
X141985624Y-53069392D01*
X141985624Y-53069392D01*
G37*
D21*
X141387500Y-53975000D03*
D16*
G36*
X144960624Y-47989392D02*
G01*
X145047535Y-48047465D01*
X145105608Y-48134376D01*
X145126000Y-48236895D01*
X145126000Y-49553105D01*
X145105608Y-49655624D01*
X145047535Y-49742535D01*
X144960624Y-49800608D01*
X144858105Y-49821000D01*
X143866895Y-49821000D01*
X143764376Y-49800608D01*
X143677465Y-49742535D01*
X143619392Y-49655624D01*
X143599000Y-49553105D01*
X143599000Y-48236895D01*
X143619392Y-48134376D01*
X143677465Y-48047465D01*
X143764376Y-47989392D01*
X143866895Y-47969000D01*
X144858105Y-47969000D01*
X144960624Y-47989392D01*
X144960624Y-47989392D01*
G37*
D21*
X144362500Y-48895000D03*
D16*
G36*
X141985624Y-47989392D02*
G01*
X142072535Y-48047465D01*
X142130608Y-48134376D01*
X142151000Y-48236895D01*
X142151000Y-49553105D01*
X142130608Y-49655624D01*
X142072535Y-49742535D01*
X141985624Y-49800608D01*
X141883105Y-49821000D01*
X140891895Y-49821000D01*
X140789376Y-49800608D01*
X140702465Y-49742535D01*
X140644392Y-49655624D01*
X140624000Y-49553105D01*
X140624000Y-48236895D01*
X140644392Y-48134376D01*
X140702465Y-48047465D01*
X140789376Y-47989392D01*
X140891895Y-47969000D01*
X141883105Y-47969000D01*
X141985624Y-47989392D01*
X141985624Y-47989392D01*
G37*
D21*
X141387500Y-48895000D03*
D16*
G36*
X144960624Y-42909392D02*
G01*
X145047535Y-42967465D01*
X145105608Y-43054376D01*
X145126000Y-43156895D01*
X145126000Y-44473105D01*
X145105608Y-44575624D01*
X145047535Y-44662535D01*
X144960624Y-44720608D01*
X144858105Y-44741000D01*
X143866895Y-44741000D01*
X143764376Y-44720608D01*
X143677465Y-44662535D01*
X143619392Y-44575624D01*
X143599000Y-44473105D01*
X143599000Y-43156895D01*
X143619392Y-43054376D01*
X143677465Y-42967465D01*
X143764376Y-42909392D01*
X143866895Y-42889000D01*
X144858105Y-42889000D01*
X144960624Y-42909392D01*
X144960624Y-42909392D01*
G37*
D21*
X144362500Y-43815000D03*
D16*
G36*
X141985624Y-42909392D02*
G01*
X142072535Y-42967465D01*
X142130608Y-43054376D01*
X142151000Y-43156895D01*
X142151000Y-44473105D01*
X142130608Y-44575624D01*
X142072535Y-44662535D01*
X141985624Y-44720608D01*
X141883105Y-44741000D01*
X140891895Y-44741000D01*
X140789376Y-44720608D01*
X140702465Y-44662535D01*
X140644392Y-44575624D01*
X140624000Y-44473105D01*
X140624000Y-43156895D01*
X140644392Y-43054376D01*
X140702465Y-42967465D01*
X140789376Y-42909392D01*
X140891895Y-42889000D01*
X141883105Y-42889000D01*
X141985624Y-42909392D01*
X141985624Y-42909392D01*
G37*
D21*
X141387500Y-43815000D03*
D20*
X127910000Y-125095000D03*
D16*
G36*
X126059000Y-126305203D02*
G01*
X126059000Y-123884797D01*
X129761000Y-124501797D01*
X129761000Y-125688203D01*
X126059000Y-126305203D01*
X126059000Y-126305203D01*
G37*
D20*
X133710000Y-125095000D03*
D16*
G36*
X135561000Y-123884797D02*
G01*
X135561000Y-126305203D01*
X131859000Y-125688203D01*
X131859000Y-124501797D01*
X135561000Y-123884797D01*
X135561000Y-123884797D01*
G37*
D20*
X127910000Y-120015000D03*
D16*
G36*
X126059000Y-121225203D02*
G01*
X126059000Y-118804797D01*
X129761000Y-119421797D01*
X129761000Y-120608203D01*
X126059000Y-121225203D01*
X126059000Y-121225203D01*
G37*
D20*
X133710000Y-120015000D03*
D16*
G36*
X135561000Y-118804797D02*
G01*
X135561000Y-121225203D01*
X131859000Y-120608203D01*
X131859000Y-119421797D01*
X135561000Y-118804797D01*
X135561000Y-118804797D01*
G37*
D20*
X127910000Y-114935000D03*
D16*
G36*
X126059000Y-116145203D02*
G01*
X126059000Y-113724797D01*
X129761000Y-114341797D01*
X129761000Y-115528203D01*
X126059000Y-116145203D01*
X126059000Y-116145203D01*
G37*
D20*
X133710000Y-114935000D03*
D16*
G36*
X135561000Y-113724797D02*
G01*
X135561000Y-116145203D01*
X131859000Y-115528203D01*
X131859000Y-114341797D01*
X135561000Y-113724797D01*
X135561000Y-113724797D01*
G37*
D20*
X127910000Y-109855000D03*
D16*
G36*
X126059000Y-111065203D02*
G01*
X126059000Y-108644797D01*
X129761000Y-109261797D01*
X129761000Y-110448203D01*
X126059000Y-111065203D01*
X126059000Y-111065203D01*
G37*
D20*
X133710000Y-109855000D03*
D16*
G36*
X135561000Y-108644797D02*
G01*
X135561000Y-111065203D01*
X131859000Y-110448203D01*
X131859000Y-109261797D01*
X135561000Y-108644797D01*
X135561000Y-108644797D01*
G37*
D20*
X127910000Y-104775000D03*
D16*
G36*
X126059000Y-105985203D02*
G01*
X126059000Y-103564797D01*
X129761000Y-104181797D01*
X129761000Y-105368203D01*
X126059000Y-105985203D01*
X126059000Y-105985203D01*
G37*
D20*
X133710000Y-104775000D03*
D16*
G36*
X135561000Y-103564797D02*
G01*
X135561000Y-105985203D01*
X131859000Y-105368203D01*
X131859000Y-104181797D01*
X135561000Y-103564797D01*
X135561000Y-103564797D01*
G37*
D20*
X127910000Y-99695000D03*
D16*
G36*
X126059000Y-100905203D02*
G01*
X126059000Y-98484797D01*
X129761000Y-99101797D01*
X129761000Y-100288203D01*
X126059000Y-100905203D01*
X126059000Y-100905203D01*
G37*
D20*
X133710000Y-99695000D03*
D16*
G36*
X135561000Y-98484797D02*
G01*
X135561000Y-100905203D01*
X131859000Y-100288203D01*
X131859000Y-99101797D01*
X135561000Y-98484797D01*
X135561000Y-98484797D01*
G37*
D20*
X127910000Y-94615000D03*
D16*
G36*
X126059000Y-95825203D02*
G01*
X126059000Y-93404797D01*
X129761000Y-94021797D01*
X129761000Y-95208203D01*
X126059000Y-95825203D01*
X126059000Y-95825203D01*
G37*
D20*
X133710000Y-94615000D03*
D16*
G36*
X135561000Y-93404797D02*
G01*
X135561000Y-95825203D01*
X131859000Y-95208203D01*
X131859000Y-94021797D01*
X135561000Y-93404797D01*
X135561000Y-93404797D01*
G37*
D20*
X127910000Y-89535000D03*
D16*
G36*
X126059000Y-90745203D02*
G01*
X126059000Y-88324797D01*
X129761000Y-88941797D01*
X129761000Y-90128203D01*
X126059000Y-90745203D01*
X126059000Y-90745203D01*
G37*
D20*
X133710000Y-89535000D03*
D16*
G36*
X135561000Y-88324797D02*
G01*
X135561000Y-90745203D01*
X131859000Y-90128203D01*
X131859000Y-88941797D01*
X135561000Y-88324797D01*
X135561000Y-88324797D01*
G37*
G36*
X144960624Y-124189392D02*
G01*
X145047535Y-124247465D01*
X145105608Y-124334376D01*
X145126000Y-124436895D01*
X145126000Y-125753105D01*
X145105608Y-125855624D01*
X145047535Y-125942535D01*
X144960624Y-126000608D01*
X144858105Y-126021000D01*
X143866895Y-126021000D01*
X143764376Y-126000608D01*
X143677465Y-125942535D01*
X143619392Y-125855624D01*
X143599000Y-125753105D01*
X143599000Y-124436895D01*
X143619392Y-124334376D01*
X143677465Y-124247465D01*
X143764376Y-124189392D01*
X143866895Y-124169000D01*
X144858105Y-124169000D01*
X144960624Y-124189392D01*
X144960624Y-124189392D01*
G37*
D21*
X144362500Y-125095000D03*
D16*
G36*
X141985624Y-124189392D02*
G01*
X142072535Y-124247465D01*
X142130608Y-124334376D01*
X142151000Y-124436895D01*
X142151000Y-125753105D01*
X142130608Y-125855624D01*
X142072535Y-125942535D01*
X141985624Y-126000608D01*
X141883105Y-126021000D01*
X140891895Y-126021000D01*
X140789376Y-126000608D01*
X140702465Y-125942535D01*
X140644392Y-125855624D01*
X140624000Y-125753105D01*
X140624000Y-124436895D01*
X140644392Y-124334376D01*
X140702465Y-124247465D01*
X140789376Y-124189392D01*
X140891895Y-124169000D01*
X141883105Y-124169000D01*
X141985624Y-124189392D01*
X141985624Y-124189392D01*
G37*
D21*
X141387500Y-125095000D03*
D16*
G36*
X144960624Y-119109392D02*
G01*
X145047535Y-119167465D01*
X145105608Y-119254376D01*
X145126000Y-119356895D01*
X145126000Y-120673105D01*
X145105608Y-120775624D01*
X145047535Y-120862535D01*
X144960624Y-120920608D01*
X144858105Y-120941000D01*
X143866895Y-120941000D01*
X143764376Y-120920608D01*
X143677465Y-120862535D01*
X143619392Y-120775624D01*
X143599000Y-120673105D01*
X143599000Y-119356895D01*
X143619392Y-119254376D01*
X143677465Y-119167465D01*
X143764376Y-119109392D01*
X143866895Y-119089000D01*
X144858105Y-119089000D01*
X144960624Y-119109392D01*
X144960624Y-119109392D01*
G37*
D21*
X144362500Y-120015000D03*
D16*
G36*
X141985624Y-119109392D02*
G01*
X142072535Y-119167465D01*
X142130608Y-119254376D01*
X142151000Y-119356895D01*
X142151000Y-120673105D01*
X142130608Y-120775624D01*
X142072535Y-120862535D01*
X141985624Y-120920608D01*
X141883105Y-120941000D01*
X140891895Y-120941000D01*
X140789376Y-120920608D01*
X140702465Y-120862535D01*
X140644392Y-120775624D01*
X140624000Y-120673105D01*
X140624000Y-119356895D01*
X140644392Y-119254376D01*
X140702465Y-119167465D01*
X140789376Y-119109392D01*
X140891895Y-119089000D01*
X141883105Y-119089000D01*
X141985624Y-119109392D01*
X141985624Y-119109392D01*
G37*
D21*
X141387500Y-120015000D03*
D16*
G36*
X144960624Y-114029392D02*
G01*
X145047535Y-114087465D01*
X145105608Y-114174376D01*
X145126000Y-114276895D01*
X145126000Y-115593105D01*
X145105608Y-115695624D01*
X145047535Y-115782535D01*
X144960624Y-115840608D01*
X144858105Y-115861000D01*
X143866895Y-115861000D01*
X143764376Y-115840608D01*
X143677465Y-115782535D01*
X143619392Y-115695624D01*
X143599000Y-115593105D01*
X143599000Y-114276895D01*
X143619392Y-114174376D01*
X143677465Y-114087465D01*
X143764376Y-114029392D01*
X143866895Y-114009000D01*
X144858105Y-114009000D01*
X144960624Y-114029392D01*
X144960624Y-114029392D01*
G37*
D21*
X144362500Y-114935000D03*
D16*
G36*
X141985624Y-114029392D02*
G01*
X142072535Y-114087465D01*
X142130608Y-114174376D01*
X142151000Y-114276895D01*
X142151000Y-115593105D01*
X142130608Y-115695624D01*
X142072535Y-115782535D01*
X141985624Y-115840608D01*
X141883105Y-115861000D01*
X140891895Y-115861000D01*
X140789376Y-115840608D01*
X140702465Y-115782535D01*
X140644392Y-115695624D01*
X140624000Y-115593105D01*
X140624000Y-114276895D01*
X140644392Y-114174376D01*
X140702465Y-114087465D01*
X140789376Y-114029392D01*
X140891895Y-114009000D01*
X141883105Y-114009000D01*
X141985624Y-114029392D01*
X141985624Y-114029392D01*
G37*
D21*
X141387500Y-114935000D03*
D16*
G36*
X144960624Y-108949392D02*
G01*
X145047535Y-109007465D01*
X145105608Y-109094376D01*
X145126000Y-109196895D01*
X145126000Y-110513105D01*
X145105608Y-110615624D01*
X145047535Y-110702535D01*
X144960624Y-110760608D01*
X144858105Y-110781000D01*
X143866895Y-110781000D01*
X143764376Y-110760608D01*
X143677465Y-110702535D01*
X143619392Y-110615624D01*
X143599000Y-110513105D01*
X143599000Y-109196895D01*
X143619392Y-109094376D01*
X143677465Y-109007465D01*
X143764376Y-108949392D01*
X143866895Y-108929000D01*
X144858105Y-108929000D01*
X144960624Y-108949392D01*
X144960624Y-108949392D01*
G37*
D21*
X144362500Y-109855000D03*
D16*
G36*
X141985624Y-108949392D02*
G01*
X142072535Y-109007465D01*
X142130608Y-109094376D01*
X142151000Y-109196895D01*
X142151000Y-110513105D01*
X142130608Y-110615624D01*
X142072535Y-110702535D01*
X141985624Y-110760608D01*
X141883105Y-110781000D01*
X140891895Y-110781000D01*
X140789376Y-110760608D01*
X140702465Y-110702535D01*
X140644392Y-110615624D01*
X140624000Y-110513105D01*
X140624000Y-109196895D01*
X140644392Y-109094376D01*
X140702465Y-109007465D01*
X140789376Y-108949392D01*
X140891895Y-108929000D01*
X141883105Y-108929000D01*
X141985624Y-108949392D01*
X141985624Y-108949392D01*
G37*
D21*
X141387500Y-109855000D03*
D16*
G36*
X144960624Y-103869392D02*
G01*
X145047535Y-103927465D01*
X145105608Y-104014376D01*
X145126000Y-104116895D01*
X145126000Y-105433105D01*
X145105608Y-105535624D01*
X145047535Y-105622535D01*
X144960624Y-105680608D01*
X144858105Y-105701000D01*
X143866895Y-105701000D01*
X143764376Y-105680608D01*
X143677465Y-105622535D01*
X143619392Y-105535624D01*
X143599000Y-105433105D01*
X143599000Y-104116895D01*
X143619392Y-104014376D01*
X143677465Y-103927465D01*
X143764376Y-103869392D01*
X143866895Y-103849000D01*
X144858105Y-103849000D01*
X144960624Y-103869392D01*
X144960624Y-103869392D01*
G37*
D21*
X144362500Y-104775000D03*
D16*
G36*
X141985624Y-103869392D02*
G01*
X142072535Y-103927465D01*
X142130608Y-104014376D01*
X142151000Y-104116895D01*
X142151000Y-105433105D01*
X142130608Y-105535624D01*
X142072535Y-105622535D01*
X141985624Y-105680608D01*
X141883105Y-105701000D01*
X140891895Y-105701000D01*
X140789376Y-105680608D01*
X140702465Y-105622535D01*
X140644392Y-105535624D01*
X140624000Y-105433105D01*
X140624000Y-104116895D01*
X140644392Y-104014376D01*
X140702465Y-103927465D01*
X140789376Y-103869392D01*
X140891895Y-103849000D01*
X141883105Y-103849000D01*
X141985624Y-103869392D01*
X141985624Y-103869392D01*
G37*
D21*
X141387500Y-104775000D03*
D16*
G36*
X144960624Y-98789392D02*
G01*
X145047535Y-98847465D01*
X145105608Y-98934376D01*
X145126000Y-99036895D01*
X145126000Y-100353105D01*
X145105608Y-100455624D01*
X145047535Y-100542535D01*
X144960624Y-100600608D01*
X144858105Y-100621000D01*
X143866895Y-100621000D01*
X143764376Y-100600608D01*
X143677465Y-100542535D01*
X143619392Y-100455624D01*
X143599000Y-100353105D01*
X143599000Y-99036895D01*
X143619392Y-98934376D01*
X143677465Y-98847465D01*
X143764376Y-98789392D01*
X143866895Y-98769000D01*
X144858105Y-98769000D01*
X144960624Y-98789392D01*
X144960624Y-98789392D01*
G37*
D21*
X144362500Y-99695000D03*
D16*
G36*
X141985624Y-98789392D02*
G01*
X142072535Y-98847465D01*
X142130608Y-98934376D01*
X142151000Y-99036895D01*
X142151000Y-100353105D01*
X142130608Y-100455624D01*
X142072535Y-100542535D01*
X141985624Y-100600608D01*
X141883105Y-100621000D01*
X140891895Y-100621000D01*
X140789376Y-100600608D01*
X140702465Y-100542535D01*
X140644392Y-100455624D01*
X140624000Y-100353105D01*
X140624000Y-99036895D01*
X140644392Y-98934376D01*
X140702465Y-98847465D01*
X140789376Y-98789392D01*
X140891895Y-98769000D01*
X141883105Y-98769000D01*
X141985624Y-98789392D01*
X141985624Y-98789392D01*
G37*
D21*
X141387500Y-99695000D03*
D16*
G36*
X144960624Y-93709392D02*
G01*
X145047535Y-93767465D01*
X145105608Y-93854376D01*
X145126000Y-93956895D01*
X145126000Y-95273105D01*
X145105608Y-95375624D01*
X145047535Y-95462535D01*
X144960624Y-95520608D01*
X144858105Y-95541000D01*
X143866895Y-95541000D01*
X143764376Y-95520608D01*
X143677465Y-95462535D01*
X143619392Y-95375624D01*
X143599000Y-95273105D01*
X143599000Y-93956895D01*
X143619392Y-93854376D01*
X143677465Y-93767465D01*
X143764376Y-93709392D01*
X143866895Y-93689000D01*
X144858105Y-93689000D01*
X144960624Y-93709392D01*
X144960624Y-93709392D01*
G37*
D21*
X144362500Y-94615000D03*
D16*
G36*
X141985624Y-93709392D02*
G01*
X142072535Y-93767465D01*
X142130608Y-93854376D01*
X142151000Y-93956895D01*
X142151000Y-95273105D01*
X142130608Y-95375624D01*
X142072535Y-95462535D01*
X141985624Y-95520608D01*
X141883105Y-95541000D01*
X140891895Y-95541000D01*
X140789376Y-95520608D01*
X140702465Y-95462535D01*
X140644392Y-95375624D01*
X140624000Y-95273105D01*
X140624000Y-93956895D01*
X140644392Y-93854376D01*
X140702465Y-93767465D01*
X140789376Y-93709392D01*
X140891895Y-93689000D01*
X141883105Y-93689000D01*
X141985624Y-93709392D01*
X141985624Y-93709392D01*
G37*
D21*
X141387500Y-94615000D03*
D16*
G36*
X144960624Y-88629392D02*
G01*
X145047535Y-88687465D01*
X145105608Y-88774376D01*
X145126000Y-88876895D01*
X145126000Y-90193105D01*
X145105608Y-90295624D01*
X145047535Y-90382535D01*
X144960624Y-90440608D01*
X144858105Y-90461000D01*
X143866895Y-90461000D01*
X143764376Y-90440608D01*
X143677465Y-90382535D01*
X143619392Y-90295624D01*
X143599000Y-90193105D01*
X143599000Y-88876895D01*
X143619392Y-88774376D01*
X143677465Y-88687465D01*
X143764376Y-88629392D01*
X143866895Y-88609000D01*
X144858105Y-88609000D01*
X144960624Y-88629392D01*
X144960624Y-88629392D01*
G37*
D21*
X144362500Y-89535000D03*
D16*
G36*
X141985624Y-88629392D02*
G01*
X142072535Y-88687465D01*
X142130608Y-88774376D01*
X142151000Y-88876895D01*
X142151000Y-90193105D01*
X142130608Y-90295624D01*
X142072535Y-90382535D01*
X141985624Y-90440608D01*
X141883105Y-90461000D01*
X140891895Y-90461000D01*
X140789376Y-90440608D01*
X140702465Y-90382535D01*
X140644392Y-90295624D01*
X140624000Y-90193105D01*
X140624000Y-88876895D01*
X140644392Y-88774376D01*
X140702465Y-88687465D01*
X140789376Y-88629392D01*
X140891895Y-88609000D01*
X141883105Y-88609000D01*
X141985624Y-88629392D01*
X141985624Y-88629392D01*
G37*
D21*
X141387500Y-89535000D03*
D22*
X89535000Y-67905000D03*
D23*
X89535000Y-65405000D03*
M02*
