G04 #@! TF.GenerationSoftware,KiCad,Pcbnew,(5.99.0-434-g6ad8b170c)*
G04 #@! TF.CreationDate,2019-12-07T15:10:00-08:00*
G04 #@! TF.ProjectId,R_Switch,525f5377-6974-4636-982e-6b696361645f,A*
G04 #@! TF.SameCoordinates,Original*
G04 #@! TF.FileFunction,Copper,L2,Bot*
G04 #@! TF.FilePolarity,Positive*
%FSLAX46Y46*%
G04 Gerber Fmt 4.6, Leading zero omitted, Abs format (unit mm)*
G04 Created by KiCad (PCBNEW (5.99.0-434-g6ad8b170c)) date 2019-12-07 15:10:00*
%MOMM*%
%LPD*%
G04 APERTURE LIST*
%ADD10R,1.500000X1.050000*%
%ADD11O,1.500000X1.050000*%
%ADD12O,2.080000X3.600000*%
%ADD13O,2.400000X1.600000*%
%ADD14R,2.400000X1.600000*%
%ADD15O,3.600000X2.080000*%
%ADD16O,1.700000X1.700000*%
%ADD17R,1.700000X1.700000*%
%ADD18C,1.600000*%
%ADD19R,1.600000X1.600000*%
%ADD20C,0.800000*%
%ADD21C,0.304800*%
%ADD22C,2.032000*%
%ADD23C,0.635000*%
%ADD24C,1.016000*%
%ADD25C,0.508000*%
G04 APERTURE END LIST*
D10*
X97155000Y-52070000D03*
D11*
X97155000Y-54610000D03*
X97155000Y-53340000D03*
D10*
X86995000Y-52070000D03*
D11*
X86995000Y-54610000D03*
X86995000Y-53340000D03*
D12*
X105410000Y-43180000D03*
X100330000Y-43180000D03*
G04 #@! TA.AperFunction,ComponentPad*
G36*
X96135671Y-41399030D02*
G01*
X96216777Y-41453223D01*
X96270970Y-41534329D01*
X96290000Y-41629999D01*
X96290000Y-44730001D01*
X96270970Y-44825671D01*
X96216777Y-44906777D01*
X96135671Y-44960970D01*
X96040001Y-44980000D01*
X94459999Y-44980000D01*
X94364329Y-44960970D01*
X94283223Y-44906777D01*
X94229030Y-44825671D01*
X94210000Y-44730001D01*
X94210000Y-41629999D01*
X94229030Y-41534329D01*
X94283223Y-41453223D01*
X94364329Y-41399030D01*
X94459999Y-41380000D01*
X96040001Y-41380000D01*
X96135671Y-41399030D01*
G37*
G04 #@! TD.AperFunction*
D13*
X116205000Y-107315000D03*
X108585000Y-125095000D03*
X116205000Y-109855000D03*
X108585000Y-122555000D03*
X116205000Y-112395000D03*
X108585000Y-120015000D03*
X116205000Y-114935000D03*
X108585000Y-117475000D03*
X116205000Y-117475000D03*
X108585000Y-114935000D03*
X116205000Y-120015000D03*
X108585000Y-112395000D03*
X116205000Y-122555000D03*
X108585000Y-109855000D03*
X116205000Y-125095000D03*
D14*
X108585000Y-107315000D03*
D13*
X116205000Y-48895000D03*
X108585000Y-66675000D03*
X116205000Y-51435000D03*
X108585000Y-64135000D03*
X116205000Y-53975000D03*
X108585000Y-61595000D03*
X116205000Y-56515000D03*
X108585000Y-59055000D03*
X116205000Y-59055000D03*
X108585000Y-56515000D03*
X116205000Y-61595000D03*
X108585000Y-53975000D03*
X116205000Y-64135000D03*
X108585000Y-51435000D03*
X116205000Y-66675000D03*
D14*
X108585000Y-48895000D03*
D13*
X116205000Y-76835000D03*
X108585000Y-97155000D03*
X116205000Y-79375000D03*
X108585000Y-94615000D03*
X116205000Y-81915000D03*
X108585000Y-92075000D03*
X116205000Y-84455000D03*
X108585000Y-89535000D03*
X116205000Y-86995000D03*
X108585000Y-86995000D03*
X116205000Y-89535000D03*
X108585000Y-84455000D03*
X116205000Y-92075000D03*
X108585000Y-81915000D03*
X116205000Y-94615000D03*
X108585000Y-79375000D03*
X116205000Y-97155000D03*
D14*
X108585000Y-76835000D03*
D15*
X151765000Y-79375000D03*
X151765000Y-74295000D03*
X151765000Y-69215000D03*
X151765000Y-64135000D03*
X151765000Y-59055000D03*
X151765000Y-53975000D03*
X151765000Y-48895000D03*
G04 #@! TA.AperFunction,ComponentPad*
G36*
X153410671Y-42794030D02*
G01*
X153491777Y-42848223D01*
X153545970Y-42929329D01*
X153565000Y-43024999D01*
X153565000Y-44605001D01*
X153545970Y-44700671D01*
X153491777Y-44781777D01*
X153410671Y-44835970D01*
X153315001Y-44855000D01*
X150214999Y-44855000D01*
X150119329Y-44835970D01*
X150038223Y-44781777D01*
X149984030Y-44700671D01*
X149965000Y-44605001D01*
X149965000Y-43024999D01*
X149984030Y-42929329D01*
X150038223Y-42848223D01*
X150119329Y-42794030D01*
X150214999Y-42775000D01*
X153315001Y-42775000D01*
X153410671Y-42794030D01*
G37*
G04 #@! TD.AperFunction*
X151765000Y-125095000D03*
X151765000Y-120015000D03*
X151765000Y-114935000D03*
X151765000Y-109855000D03*
X151765000Y-104775000D03*
X151765000Y-99695000D03*
X151765000Y-94615000D03*
G04 #@! TA.AperFunction,ComponentPad*
G36*
X153410671Y-88514030D02*
G01*
X153491777Y-88568223D01*
X153545970Y-88649329D01*
X153565000Y-88744999D01*
X153565000Y-90325001D01*
X153545970Y-90420671D01*
X153491777Y-90501777D01*
X153410671Y-90555970D01*
X153315001Y-90575000D01*
X150214999Y-90575000D01*
X150119329Y-90555970D01*
X150038223Y-90501777D01*
X149984030Y-90420671D01*
X149965000Y-90325001D01*
X149965000Y-88744999D01*
X149984030Y-88649329D01*
X150038223Y-88568223D01*
X150119329Y-88514030D01*
X150214999Y-88495000D01*
X153315001Y-88495000D01*
X153410671Y-88514030D01*
G37*
G04 #@! TD.AperFunction*
D16*
X100965000Y-94615000D03*
X100965000Y-92075000D03*
X100965000Y-89535000D03*
X100965000Y-86995000D03*
D17*
X100965000Y-84455000D03*
D16*
X87525225Y-112395000D03*
X87525225Y-109855000D03*
X87525225Y-107315000D03*
X87525225Y-104775000D03*
X87525225Y-102235000D03*
D17*
X87525225Y-99695000D03*
D16*
X100965000Y-112395000D03*
X100965000Y-109855000D03*
X100965000Y-107315000D03*
X100965000Y-104775000D03*
X100965000Y-102235000D03*
D17*
X100965000Y-99695000D03*
D15*
X85725000Y-91440000D03*
X85725000Y-86360000D03*
X85725000Y-81280000D03*
G04 #@! TA.AperFunction,ComponentPad*
G36*
X87370671Y-75179030D02*
G01*
X87451777Y-75233223D01*
X87505970Y-75314329D01*
X87525000Y-75409999D01*
X87525000Y-76990001D01*
X87505970Y-77085671D01*
X87451777Y-77166777D01*
X87370671Y-77220970D01*
X87275001Y-77240000D01*
X84174999Y-77240000D01*
X84079329Y-77220970D01*
X83998223Y-77166777D01*
X83944030Y-77085671D01*
X83925000Y-76990001D01*
X83925000Y-75409999D01*
X83944030Y-75314329D01*
X83998223Y-75233223D01*
X84079329Y-75179030D01*
X84174999Y-75160000D01*
X87275001Y-75160000D01*
X87370671Y-75179030D01*
G37*
G04 #@! TD.AperFunction*
G04 #@! TA.AperFunction,SMDPad,CuDef*
G36*
X126110000Y-80525000D02*
G01*
X126110000Y-78225000D01*
X129710000Y-78825000D01*
X129710000Y-79925000D01*
X126110000Y-80525000D01*
G37*
G04 #@! TD.AperFunction*
G04 #@! TA.AperFunction,SMDPad,CuDef*
G36*
X135510000Y-78225000D02*
G01*
X135510000Y-80525000D01*
X131910000Y-79925000D01*
X131910000Y-78825000D01*
X135510000Y-78225000D01*
G37*
G04 #@! TD.AperFunction*
G04 #@! TA.AperFunction,SMDPad,CuDef*
G36*
X126110000Y-75445000D02*
G01*
X126110000Y-73145000D01*
X129710000Y-73745000D01*
X129710000Y-74845000D01*
X126110000Y-75445000D01*
G37*
G04 #@! TD.AperFunction*
G04 #@! TA.AperFunction,SMDPad,CuDef*
G36*
X135510000Y-73145000D02*
G01*
X135510000Y-75445000D01*
X131910000Y-74845000D01*
X131910000Y-73745000D01*
X135510000Y-73145000D01*
G37*
G04 #@! TD.AperFunction*
G04 #@! TA.AperFunction,SMDPad,CuDef*
G36*
X126110000Y-70365000D02*
G01*
X126110000Y-68065000D01*
X129710000Y-68665000D01*
X129710000Y-69765000D01*
X126110000Y-70365000D01*
G37*
G04 #@! TD.AperFunction*
G04 #@! TA.AperFunction,SMDPad,CuDef*
G36*
X135510000Y-68065000D02*
G01*
X135510000Y-70365000D01*
X131910000Y-69765000D01*
X131910000Y-68665000D01*
X135510000Y-68065000D01*
G37*
G04 #@! TD.AperFunction*
G04 #@! TA.AperFunction,SMDPad,CuDef*
G36*
X126110000Y-65285000D02*
G01*
X126110000Y-62985000D01*
X129710000Y-63585000D01*
X129710000Y-64685000D01*
X126110000Y-65285000D01*
G37*
G04 #@! TD.AperFunction*
G04 #@! TA.AperFunction,SMDPad,CuDef*
G36*
X135510000Y-62985000D02*
G01*
X135510000Y-65285000D01*
X131910000Y-64685000D01*
X131910000Y-63585000D01*
X135510000Y-62985000D01*
G37*
G04 #@! TD.AperFunction*
G04 #@! TA.AperFunction,SMDPad,CuDef*
G36*
X126110000Y-60205000D02*
G01*
X126110000Y-57905000D01*
X129710000Y-58505000D01*
X129710000Y-59605000D01*
X126110000Y-60205000D01*
G37*
G04 #@! TD.AperFunction*
G04 #@! TA.AperFunction,SMDPad,CuDef*
G36*
X135510000Y-57905000D02*
G01*
X135510000Y-60205000D01*
X131910000Y-59605000D01*
X131910000Y-58505000D01*
X135510000Y-57905000D01*
G37*
G04 #@! TD.AperFunction*
G04 #@! TA.AperFunction,SMDPad,CuDef*
G36*
X126110000Y-55125000D02*
G01*
X126110000Y-52825000D01*
X129710000Y-53425000D01*
X129710000Y-54525000D01*
X126110000Y-55125000D01*
G37*
G04 #@! TD.AperFunction*
G04 #@! TA.AperFunction,SMDPad,CuDef*
G36*
X135510000Y-52825000D02*
G01*
X135510000Y-55125000D01*
X131910000Y-54525000D01*
X131910000Y-53425000D01*
X135510000Y-52825000D01*
G37*
G04 #@! TD.AperFunction*
G04 #@! TA.AperFunction,SMDPad,CuDef*
G36*
X126110000Y-50045000D02*
G01*
X126110000Y-47745000D01*
X129710000Y-48345000D01*
X129710000Y-49445000D01*
X126110000Y-50045000D01*
G37*
G04 #@! TD.AperFunction*
G04 #@! TA.AperFunction,SMDPad,CuDef*
G36*
X135510000Y-47745000D02*
G01*
X135510000Y-50045000D01*
X131910000Y-49445000D01*
X131910000Y-48345000D01*
X135510000Y-47745000D01*
G37*
G04 #@! TD.AperFunction*
G04 #@! TA.AperFunction,SMDPad,CuDef*
G36*
X126110000Y-44965000D02*
G01*
X126110000Y-42665000D01*
X129710000Y-43265000D01*
X129710000Y-44365000D01*
X126110000Y-44965000D01*
G37*
G04 #@! TD.AperFunction*
G04 #@! TA.AperFunction,SMDPad,CuDef*
G36*
X135510000Y-42665000D02*
G01*
X135510000Y-44965000D01*
X131910000Y-44365000D01*
X131910000Y-43265000D01*
X135510000Y-42665000D01*
G37*
G04 #@! TD.AperFunction*
G04 #@! TA.AperFunction,SMDPad,CuDef*
G36*
X141945671Y-78519030D02*
G01*
X142026777Y-78573223D01*
X142080970Y-78654329D01*
X142100000Y-78750000D01*
X142100000Y-80000000D01*
X142080970Y-80095671D01*
X142026777Y-80176777D01*
X141945671Y-80230970D01*
X141850000Y-80250000D01*
X140925000Y-80250000D01*
X140829329Y-80230970D01*
X140748223Y-80176777D01*
X140694030Y-80095671D01*
X140675000Y-80000000D01*
X140675000Y-78750000D01*
X140694030Y-78654329D01*
X140748223Y-78573223D01*
X140829329Y-78519030D01*
X140925000Y-78500000D01*
X141850000Y-78500000D01*
X141945671Y-78519030D01*
G37*
G04 #@! TD.AperFunction*
G04 #@! TA.AperFunction,SMDPad,CuDef*
G36*
X144920671Y-78519030D02*
G01*
X145001777Y-78573223D01*
X145055970Y-78654329D01*
X145075000Y-78750000D01*
X145075000Y-80000000D01*
X145055970Y-80095671D01*
X145001777Y-80176777D01*
X144920671Y-80230970D01*
X144825000Y-80250000D01*
X143900000Y-80250000D01*
X143804329Y-80230970D01*
X143723223Y-80176777D01*
X143669030Y-80095671D01*
X143650000Y-80000000D01*
X143650000Y-78750000D01*
X143669030Y-78654329D01*
X143723223Y-78573223D01*
X143804329Y-78519030D01*
X143900000Y-78500000D01*
X144825000Y-78500000D01*
X144920671Y-78519030D01*
G37*
G04 #@! TD.AperFunction*
G04 #@! TA.AperFunction,SMDPad,CuDef*
G36*
X141945671Y-73439030D02*
G01*
X142026777Y-73493223D01*
X142080970Y-73574329D01*
X142100000Y-73670000D01*
X142100000Y-74920000D01*
X142080970Y-75015671D01*
X142026777Y-75096777D01*
X141945671Y-75150970D01*
X141850000Y-75170000D01*
X140925000Y-75170000D01*
X140829329Y-75150970D01*
X140748223Y-75096777D01*
X140694030Y-75015671D01*
X140675000Y-74920000D01*
X140675000Y-73670000D01*
X140694030Y-73574329D01*
X140748223Y-73493223D01*
X140829329Y-73439030D01*
X140925000Y-73420000D01*
X141850000Y-73420000D01*
X141945671Y-73439030D01*
G37*
G04 #@! TD.AperFunction*
G04 #@! TA.AperFunction,SMDPad,CuDef*
G36*
X144920671Y-73439030D02*
G01*
X145001777Y-73493223D01*
X145055970Y-73574329D01*
X145075000Y-73670000D01*
X145075000Y-74920000D01*
X145055970Y-75015671D01*
X145001777Y-75096777D01*
X144920671Y-75150970D01*
X144825000Y-75170000D01*
X143900000Y-75170000D01*
X143804329Y-75150970D01*
X143723223Y-75096777D01*
X143669030Y-75015671D01*
X143650000Y-74920000D01*
X143650000Y-73670000D01*
X143669030Y-73574329D01*
X143723223Y-73493223D01*
X143804329Y-73439030D01*
X143900000Y-73420000D01*
X144825000Y-73420000D01*
X144920671Y-73439030D01*
G37*
G04 #@! TD.AperFunction*
G04 #@! TA.AperFunction,SMDPad,CuDef*
G36*
X141945671Y-68359030D02*
G01*
X142026777Y-68413223D01*
X142080970Y-68494329D01*
X142100000Y-68590000D01*
X142100000Y-69840000D01*
X142080970Y-69935671D01*
X142026777Y-70016777D01*
X141945671Y-70070970D01*
X141850000Y-70090000D01*
X140925000Y-70090000D01*
X140829329Y-70070970D01*
X140748223Y-70016777D01*
X140694030Y-69935671D01*
X140675000Y-69840000D01*
X140675000Y-68590000D01*
X140694030Y-68494329D01*
X140748223Y-68413223D01*
X140829329Y-68359030D01*
X140925000Y-68340000D01*
X141850000Y-68340000D01*
X141945671Y-68359030D01*
G37*
G04 #@! TD.AperFunction*
G04 #@! TA.AperFunction,SMDPad,CuDef*
G36*
X144920671Y-68359030D02*
G01*
X145001777Y-68413223D01*
X145055970Y-68494329D01*
X145075000Y-68590000D01*
X145075000Y-69840000D01*
X145055970Y-69935671D01*
X145001777Y-70016777D01*
X144920671Y-70070970D01*
X144825000Y-70090000D01*
X143900000Y-70090000D01*
X143804329Y-70070970D01*
X143723223Y-70016777D01*
X143669030Y-69935671D01*
X143650000Y-69840000D01*
X143650000Y-68590000D01*
X143669030Y-68494329D01*
X143723223Y-68413223D01*
X143804329Y-68359030D01*
X143900000Y-68340000D01*
X144825000Y-68340000D01*
X144920671Y-68359030D01*
G37*
G04 #@! TD.AperFunction*
G04 #@! TA.AperFunction,SMDPad,CuDef*
G36*
X141945671Y-63279030D02*
G01*
X142026777Y-63333223D01*
X142080970Y-63414329D01*
X142100000Y-63510000D01*
X142100000Y-64760000D01*
X142080970Y-64855671D01*
X142026777Y-64936777D01*
X141945671Y-64990970D01*
X141850000Y-65010000D01*
X140925000Y-65010000D01*
X140829329Y-64990970D01*
X140748223Y-64936777D01*
X140694030Y-64855671D01*
X140675000Y-64760000D01*
X140675000Y-63510000D01*
X140694030Y-63414329D01*
X140748223Y-63333223D01*
X140829329Y-63279030D01*
X140925000Y-63260000D01*
X141850000Y-63260000D01*
X141945671Y-63279030D01*
G37*
G04 #@! TD.AperFunction*
G04 #@! TA.AperFunction,SMDPad,CuDef*
G36*
X144920671Y-63279030D02*
G01*
X145001777Y-63333223D01*
X145055970Y-63414329D01*
X145075000Y-63510000D01*
X145075000Y-64760000D01*
X145055970Y-64855671D01*
X145001777Y-64936777D01*
X144920671Y-64990970D01*
X144825000Y-65010000D01*
X143900000Y-65010000D01*
X143804329Y-64990970D01*
X143723223Y-64936777D01*
X143669030Y-64855671D01*
X143650000Y-64760000D01*
X143650000Y-63510000D01*
X143669030Y-63414329D01*
X143723223Y-63333223D01*
X143804329Y-63279030D01*
X143900000Y-63260000D01*
X144825000Y-63260000D01*
X144920671Y-63279030D01*
G37*
G04 #@! TD.AperFunction*
G04 #@! TA.AperFunction,SMDPad,CuDef*
G36*
X141945671Y-58199030D02*
G01*
X142026777Y-58253223D01*
X142080970Y-58334329D01*
X142100000Y-58430000D01*
X142100000Y-59680000D01*
X142080970Y-59775671D01*
X142026777Y-59856777D01*
X141945671Y-59910970D01*
X141850000Y-59930000D01*
X140925000Y-59930000D01*
X140829329Y-59910970D01*
X140748223Y-59856777D01*
X140694030Y-59775671D01*
X140675000Y-59680000D01*
X140675000Y-58430000D01*
X140694030Y-58334329D01*
X140748223Y-58253223D01*
X140829329Y-58199030D01*
X140925000Y-58180000D01*
X141850000Y-58180000D01*
X141945671Y-58199030D01*
G37*
G04 #@! TD.AperFunction*
G04 #@! TA.AperFunction,SMDPad,CuDef*
G36*
X144920671Y-58199030D02*
G01*
X145001777Y-58253223D01*
X145055970Y-58334329D01*
X145075000Y-58430000D01*
X145075000Y-59680000D01*
X145055970Y-59775671D01*
X145001777Y-59856777D01*
X144920671Y-59910970D01*
X144825000Y-59930000D01*
X143900000Y-59930000D01*
X143804329Y-59910970D01*
X143723223Y-59856777D01*
X143669030Y-59775671D01*
X143650000Y-59680000D01*
X143650000Y-58430000D01*
X143669030Y-58334329D01*
X143723223Y-58253223D01*
X143804329Y-58199030D01*
X143900000Y-58180000D01*
X144825000Y-58180000D01*
X144920671Y-58199030D01*
G37*
G04 #@! TD.AperFunction*
G04 #@! TA.AperFunction,SMDPad,CuDef*
G36*
X141945671Y-53119030D02*
G01*
X142026777Y-53173223D01*
X142080970Y-53254329D01*
X142100000Y-53350000D01*
X142100000Y-54600000D01*
X142080970Y-54695671D01*
X142026777Y-54776777D01*
X141945671Y-54830970D01*
X141850000Y-54850000D01*
X140925000Y-54850000D01*
X140829329Y-54830970D01*
X140748223Y-54776777D01*
X140694030Y-54695671D01*
X140675000Y-54600000D01*
X140675000Y-53350000D01*
X140694030Y-53254329D01*
X140748223Y-53173223D01*
X140829329Y-53119030D01*
X140925000Y-53100000D01*
X141850000Y-53100000D01*
X141945671Y-53119030D01*
G37*
G04 #@! TD.AperFunction*
G04 #@! TA.AperFunction,SMDPad,CuDef*
G36*
X144920671Y-53119030D02*
G01*
X145001777Y-53173223D01*
X145055970Y-53254329D01*
X145075000Y-53350000D01*
X145075000Y-54600000D01*
X145055970Y-54695671D01*
X145001777Y-54776777D01*
X144920671Y-54830970D01*
X144825000Y-54850000D01*
X143900000Y-54850000D01*
X143804329Y-54830970D01*
X143723223Y-54776777D01*
X143669030Y-54695671D01*
X143650000Y-54600000D01*
X143650000Y-53350000D01*
X143669030Y-53254329D01*
X143723223Y-53173223D01*
X143804329Y-53119030D01*
X143900000Y-53100000D01*
X144825000Y-53100000D01*
X144920671Y-53119030D01*
G37*
G04 #@! TD.AperFunction*
G04 #@! TA.AperFunction,SMDPad,CuDef*
G36*
X141945671Y-48039030D02*
G01*
X142026777Y-48093223D01*
X142080970Y-48174329D01*
X142100000Y-48270000D01*
X142100000Y-49520000D01*
X142080970Y-49615671D01*
X142026777Y-49696777D01*
X141945671Y-49750970D01*
X141850000Y-49770000D01*
X140925000Y-49770000D01*
X140829329Y-49750970D01*
X140748223Y-49696777D01*
X140694030Y-49615671D01*
X140675000Y-49520000D01*
X140675000Y-48270000D01*
X140694030Y-48174329D01*
X140748223Y-48093223D01*
X140829329Y-48039030D01*
X140925000Y-48020000D01*
X141850000Y-48020000D01*
X141945671Y-48039030D01*
G37*
G04 #@! TD.AperFunction*
G04 #@! TA.AperFunction,SMDPad,CuDef*
G36*
X144920671Y-48039030D02*
G01*
X145001777Y-48093223D01*
X145055970Y-48174329D01*
X145075000Y-48270000D01*
X145075000Y-49520000D01*
X145055970Y-49615671D01*
X145001777Y-49696777D01*
X144920671Y-49750970D01*
X144825000Y-49770000D01*
X143900000Y-49770000D01*
X143804329Y-49750970D01*
X143723223Y-49696777D01*
X143669030Y-49615671D01*
X143650000Y-49520000D01*
X143650000Y-48270000D01*
X143669030Y-48174329D01*
X143723223Y-48093223D01*
X143804329Y-48039030D01*
X143900000Y-48020000D01*
X144825000Y-48020000D01*
X144920671Y-48039030D01*
G37*
G04 #@! TD.AperFunction*
G04 #@! TA.AperFunction,SMDPad,CuDef*
G36*
X141945671Y-42959030D02*
G01*
X142026777Y-43013223D01*
X142080970Y-43094329D01*
X142100000Y-43190000D01*
X142100000Y-44440000D01*
X142080970Y-44535671D01*
X142026777Y-44616777D01*
X141945671Y-44670970D01*
X141850000Y-44690000D01*
X140925000Y-44690000D01*
X140829329Y-44670970D01*
X140748223Y-44616777D01*
X140694030Y-44535671D01*
X140675000Y-44440000D01*
X140675000Y-43190000D01*
X140694030Y-43094329D01*
X140748223Y-43013223D01*
X140829329Y-42959030D01*
X140925000Y-42940000D01*
X141850000Y-42940000D01*
X141945671Y-42959030D01*
G37*
G04 #@! TD.AperFunction*
G04 #@! TA.AperFunction,SMDPad,CuDef*
G36*
X144920671Y-42959030D02*
G01*
X145001777Y-43013223D01*
X145055970Y-43094329D01*
X145075000Y-43190000D01*
X145075000Y-44440000D01*
X145055970Y-44535671D01*
X145001777Y-44616777D01*
X144920671Y-44670970D01*
X144825000Y-44690000D01*
X143900000Y-44690000D01*
X143804329Y-44670970D01*
X143723223Y-44616777D01*
X143669030Y-44535671D01*
X143650000Y-44440000D01*
X143650000Y-43190000D01*
X143669030Y-43094329D01*
X143723223Y-43013223D01*
X143804329Y-42959030D01*
X143900000Y-42940000D01*
X144825000Y-42940000D01*
X144920671Y-42959030D01*
G37*
G04 #@! TD.AperFunction*
G04 #@! TA.AperFunction,SMDPad,CuDef*
G36*
X126110000Y-126245000D02*
G01*
X126110000Y-123945000D01*
X129710000Y-124545000D01*
X129710000Y-125645000D01*
X126110000Y-126245000D01*
G37*
G04 #@! TD.AperFunction*
G04 #@! TA.AperFunction,SMDPad,CuDef*
G36*
X135510000Y-123945000D02*
G01*
X135510000Y-126245000D01*
X131910000Y-125645000D01*
X131910000Y-124545000D01*
X135510000Y-123945000D01*
G37*
G04 #@! TD.AperFunction*
G04 #@! TA.AperFunction,SMDPad,CuDef*
G36*
X126110000Y-121165000D02*
G01*
X126110000Y-118865000D01*
X129710000Y-119465000D01*
X129710000Y-120565000D01*
X126110000Y-121165000D01*
G37*
G04 #@! TD.AperFunction*
G04 #@! TA.AperFunction,SMDPad,CuDef*
G36*
X135510000Y-118865000D02*
G01*
X135510000Y-121165000D01*
X131910000Y-120565000D01*
X131910000Y-119465000D01*
X135510000Y-118865000D01*
G37*
G04 #@! TD.AperFunction*
G04 #@! TA.AperFunction,SMDPad,CuDef*
G36*
X126110000Y-116085000D02*
G01*
X126110000Y-113785000D01*
X129710000Y-114385000D01*
X129710000Y-115485000D01*
X126110000Y-116085000D01*
G37*
G04 #@! TD.AperFunction*
G04 #@! TA.AperFunction,SMDPad,CuDef*
G36*
X135510000Y-113785000D02*
G01*
X135510000Y-116085000D01*
X131910000Y-115485000D01*
X131910000Y-114385000D01*
X135510000Y-113785000D01*
G37*
G04 #@! TD.AperFunction*
G04 #@! TA.AperFunction,SMDPad,CuDef*
G36*
X126110000Y-111005000D02*
G01*
X126110000Y-108705000D01*
X129710000Y-109305000D01*
X129710000Y-110405000D01*
X126110000Y-111005000D01*
G37*
G04 #@! TD.AperFunction*
G04 #@! TA.AperFunction,SMDPad,CuDef*
G36*
X135510000Y-108705000D02*
G01*
X135510000Y-111005000D01*
X131910000Y-110405000D01*
X131910000Y-109305000D01*
X135510000Y-108705000D01*
G37*
G04 #@! TD.AperFunction*
G04 #@! TA.AperFunction,SMDPad,CuDef*
G36*
X126110000Y-105925000D02*
G01*
X126110000Y-103625000D01*
X129710000Y-104225000D01*
X129710000Y-105325000D01*
X126110000Y-105925000D01*
G37*
G04 #@! TD.AperFunction*
G04 #@! TA.AperFunction,SMDPad,CuDef*
G36*
X135510000Y-103625000D02*
G01*
X135510000Y-105925000D01*
X131910000Y-105325000D01*
X131910000Y-104225000D01*
X135510000Y-103625000D01*
G37*
G04 #@! TD.AperFunction*
G04 #@! TA.AperFunction,SMDPad,CuDef*
G36*
X126110000Y-100845000D02*
G01*
X126110000Y-98545000D01*
X129710000Y-99145000D01*
X129710000Y-100245000D01*
X126110000Y-100845000D01*
G37*
G04 #@! TD.AperFunction*
G04 #@! TA.AperFunction,SMDPad,CuDef*
G36*
X135510000Y-98545000D02*
G01*
X135510000Y-100845000D01*
X131910000Y-100245000D01*
X131910000Y-99145000D01*
X135510000Y-98545000D01*
G37*
G04 #@! TD.AperFunction*
G04 #@! TA.AperFunction,SMDPad,CuDef*
G36*
X126110000Y-95765000D02*
G01*
X126110000Y-93465000D01*
X129710000Y-94065000D01*
X129710000Y-95165000D01*
X126110000Y-95765000D01*
G37*
G04 #@! TD.AperFunction*
G04 #@! TA.AperFunction,SMDPad,CuDef*
G36*
X135510000Y-93465000D02*
G01*
X135510000Y-95765000D01*
X131910000Y-95165000D01*
X131910000Y-94065000D01*
X135510000Y-93465000D01*
G37*
G04 #@! TD.AperFunction*
G04 #@! TA.AperFunction,SMDPad,CuDef*
G36*
X126110000Y-90685000D02*
G01*
X126110000Y-88385000D01*
X129710000Y-88985000D01*
X129710000Y-90085000D01*
X126110000Y-90685000D01*
G37*
G04 #@! TD.AperFunction*
G04 #@! TA.AperFunction,SMDPad,CuDef*
G36*
X135510000Y-88385000D02*
G01*
X135510000Y-90685000D01*
X131910000Y-90085000D01*
X131910000Y-88985000D01*
X135510000Y-88385000D01*
G37*
G04 #@! TD.AperFunction*
G04 #@! TA.AperFunction,SMDPad,CuDef*
G36*
X141945671Y-124239030D02*
G01*
X142026777Y-124293223D01*
X142080970Y-124374329D01*
X142100000Y-124470000D01*
X142100000Y-125720000D01*
X142080970Y-125815671D01*
X142026777Y-125896777D01*
X141945671Y-125950970D01*
X141850000Y-125970000D01*
X140925000Y-125970000D01*
X140829329Y-125950970D01*
X140748223Y-125896777D01*
X140694030Y-125815671D01*
X140675000Y-125720000D01*
X140675000Y-124470000D01*
X140694030Y-124374329D01*
X140748223Y-124293223D01*
X140829329Y-124239030D01*
X140925000Y-124220000D01*
X141850000Y-124220000D01*
X141945671Y-124239030D01*
G37*
G04 #@! TD.AperFunction*
G04 #@! TA.AperFunction,SMDPad,CuDef*
G36*
X144920671Y-124239030D02*
G01*
X145001777Y-124293223D01*
X145055970Y-124374329D01*
X145075000Y-124470000D01*
X145075000Y-125720000D01*
X145055970Y-125815671D01*
X145001777Y-125896777D01*
X144920671Y-125950970D01*
X144825000Y-125970000D01*
X143900000Y-125970000D01*
X143804329Y-125950970D01*
X143723223Y-125896777D01*
X143669030Y-125815671D01*
X143650000Y-125720000D01*
X143650000Y-124470000D01*
X143669030Y-124374329D01*
X143723223Y-124293223D01*
X143804329Y-124239030D01*
X143900000Y-124220000D01*
X144825000Y-124220000D01*
X144920671Y-124239030D01*
G37*
G04 #@! TD.AperFunction*
G04 #@! TA.AperFunction,SMDPad,CuDef*
G36*
X141945671Y-119159030D02*
G01*
X142026777Y-119213223D01*
X142080970Y-119294329D01*
X142100000Y-119390000D01*
X142100000Y-120640000D01*
X142080970Y-120735671D01*
X142026777Y-120816777D01*
X141945671Y-120870970D01*
X141850000Y-120890000D01*
X140925000Y-120890000D01*
X140829329Y-120870970D01*
X140748223Y-120816777D01*
X140694030Y-120735671D01*
X140675000Y-120640000D01*
X140675000Y-119390000D01*
X140694030Y-119294329D01*
X140748223Y-119213223D01*
X140829329Y-119159030D01*
X140925000Y-119140000D01*
X141850000Y-119140000D01*
X141945671Y-119159030D01*
G37*
G04 #@! TD.AperFunction*
G04 #@! TA.AperFunction,SMDPad,CuDef*
G36*
X144920671Y-119159030D02*
G01*
X145001777Y-119213223D01*
X145055970Y-119294329D01*
X145075000Y-119390000D01*
X145075000Y-120640000D01*
X145055970Y-120735671D01*
X145001777Y-120816777D01*
X144920671Y-120870970D01*
X144825000Y-120890000D01*
X143900000Y-120890000D01*
X143804329Y-120870970D01*
X143723223Y-120816777D01*
X143669030Y-120735671D01*
X143650000Y-120640000D01*
X143650000Y-119390000D01*
X143669030Y-119294329D01*
X143723223Y-119213223D01*
X143804329Y-119159030D01*
X143900000Y-119140000D01*
X144825000Y-119140000D01*
X144920671Y-119159030D01*
G37*
G04 #@! TD.AperFunction*
G04 #@! TA.AperFunction,SMDPad,CuDef*
G36*
X141945671Y-114079030D02*
G01*
X142026777Y-114133223D01*
X142080970Y-114214329D01*
X142100000Y-114310000D01*
X142100000Y-115560000D01*
X142080970Y-115655671D01*
X142026777Y-115736777D01*
X141945671Y-115790970D01*
X141850000Y-115810000D01*
X140925000Y-115810000D01*
X140829329Y-115790970D01*
X140748223Y-115736777D01*
X140694030Y-115655671D01*
X140675000Y-115560000D01*
X140675000Y-114310000D01*
X140694030Y-114214329D01*
X140748223Y-114133223D01*
X140829329Y-114079030D01*
X140925000Y-114060000D01*
X141850000Y-114060000D01*
X141945671Y-114079030D01*
G37*
G04 #@! TD.AperFunction*
G04 #@! TA.AperFunction,SMDPad,CuDef*
G36*
X144920671Y-114079030D02*
G01*
X145001777Y-114133223D01*
X145055970Y-114214329D01*
X145075000Y-114310000D01*
X145075000Y-115560000D01*
X145055970Y-115655671D01*
X145001777Y-115736777D01*
X144920671Y-115790970D01*
X144825000Y-115810000D01*
X143900000Y-115810000D01*
X143804329Y-115790970D01*
X143723223Y-115736777D01*
X143669030Y-115655671D01*
X143650000Y-115560000D01*
X143650000Y-114310000D01*
X143669030Y-114214329D01*
X143723223Y-114133223D01*
X143804329Y-114079030D01*
X143900000Y-114060000D01*
X144825000Y-114060000D01*
X144920671Y-114079030D01*
G37*
G04 #@! TD.AperFunction*
G04 #@! TA.AperFunction,SMDPad,CuDef*
G36*
X141945671Y-108999030D02*
G01*
X142026777Y-109053223D01*
X142080970Y-109134329D01*
X142100000Y-109230000D01*
X142100000Y-110480000D01*
X142080970Y-110575671D01*
X142026777Y-110656777D01*
X141945671Y-110710970D01*
X141850000Y-110730000D01*
X140925000Y-110730000D01*
X140829329Y-110710970D01*
X140748223Y-110656777D01*
X140694030Y-110575671D01*
X140675000Y-110480000D01*
X140675000Y-109230000D01*
X140694030Y-109134329D01*
X140748223Y-109053223D01*
X140829329Y-108999030D01*
X140925000Y-108980000D01*
X141850000Y-108980000D01*
X141945671Y-108999030D01*
G37*
G04 #@! TD.AperFunction*
G04 #@! TA.AperFunction,SMDPad,CuDef*
G36*
X144920671Y-108999030D02*
G01*
X145001777Y-109053223D01*
X145055970Y-109134329D01*
X145075000Y-109230000D01*
X145075000Y-110480000D01*
X145055970Y-110575671D01*
X145001777Y-110656777D01*
X144920671Y-110710970D01*
X144825000Y-110730000D01*
X143900000Y-110730000D01*
X143804329Y-110710970D01*
X143723223Y-110656777D01*
X143669030Y-110575671D01*
X143650000Y-110480000D01*
X143650000Y-109230000D01*
X143669030Y-109134329D01*
X143723223Y-109053223D01*
X143804329Y-108999030D01*
X143900000Y-108980000D01*
X144825000Y-108980000D01*
X144920671Y-108999030D01*
G37*
G04 #@! TD.AperFunction*
G04 #@! TA.AperFunction,SMDPad,CuDef*
G36*
X141945671Y-103919030D02*
G01*
X142026777Y-103973223D01*
X142080970Y-104054329D01*
X142100000Y-104150000D01*
X142100000Y-105400000D01*
X142080970Y-105495671D01*
X142026777Y-105576777D01*
X141945671Y-105630970D01*
X141850000Y-105650000D01*
X140925000Y-105650000D01*
X140829329Y-105630970D01*
X140748223Y-105576777D01*
X140694030Y-105495671D01*
X140675000Y-105400000D01*
X140675000Y-104150000D01*
X140694030Y-104054329D01*
X140748223Y-103973223D01*
X140829329Y-103919030D01*
X140925000Y-103900000D01*
X141850000Y-103900000D01*
X141945671Y-103919030D01*
G37*
G04 #@! TD.AperFunction*
G04 #@! TA.AperFunction,SMDPad,CuDef*
G36*
X144920671Y-103919030D02*
G01*
X145001777Y-103973223D01*
X145055970Y-104054329D01*
X145075000Y-104150000D01*
X145075000Y-105400000D01*
X145055970Y-105495671D01*
X145001777Y-105576777D01*
X144920671Y-105630970D01*
X144825000Y-105650000D01*
X143900000Y-105650000D01*
X143804329Y-105630970D01*
X143723223Y-105576777D01*
X143669030Y-105495671D01*
X143650000Y-105400000D01*
X143650000Y-104150000D01*
X143669030Y-104054329D01*
X143723223Y-103973223D01*
X143804329Y-103919030D01*
X143900000Y-103900000D01*
X144825000Y-103900000D01*
X144920671Y-103919030D01*
G37*
G04 #@! TD.AperFunction*
G04 #@! TA.AperFunction,SMDPad,CuDef*
G36*
X141945671Y-98839030D02*
G01*
X142026777Y-98893223D01*
X142080970Y-98974329D01*
X142100000Y-99070000D01*
X142100000Y-100320000D01*
X142080970Y-100415671D01*
X142026777Y-100496777D01*
X141945671Y-100550970D01*
X141850000Y-100570000D01*
X140925000Y-100570000D01*
X140829329Y-100550970D01*
X140748223Y-100496777D01*
X140694030Y-100415671D01*
X140675000Y-100320000D01*
X140675000Y-99070000D01*
X140694030Y-98974329D01*
X140748223Y-98893223D01*
X140829329Y-98839030D01*
X140925000Y-98820000D01*
X141850000Y-98820000D01*
X141945671Y-98839030D01*
G37*
G04 #@! TD.AperFunction*
G04 #@! TA.AperFunction,SMDPad,CuDef*
G36*
X144920671Y-98839030D02*
G01*
X145001777Y-98893223D01*
X145055970Y-98974329D01*
X145075000Y-99070000D01*
X145075000Y-100320000D01*
X145055970Y-100415671D01*
X145001777Y-100496777D01*
X144920671Y-100550970D01*
X144825000Y-100570000D01*
X143900000Y-100570000D01*
X143804329Y-100550970D01*
X143723223Y-100496777D01*
X143669030Y-100415671D01*
X143650000Y-100320000D01*
X143650000Y-99070000D01*
X143669030Y-98974329D01*
X143723223Y-98893223D01*
X143804329Y-98839030D01*
X143900000Y-98820000D01*
X144825000Y-98820000D01*
X144920671Y-98839030D01*
G37*
G04 #@! TD.AperFunction*
G04 #@! TA.AperFunction,SMDPad,CuDef*
G36*
X141945671Y-93759030D02*
G01*
X142026777Y-93813223D01*
X142080970Y-93894329D01*
X142100000Y-93990000D01*
X142100000Y-95240000D01*
X142080970Y-95335671D01*
X142026777Y-95416777D01*
X141945671Y-95470970D01*
X141850000Y-95490000D01*
X140925000Y-95490000D01*
X140829329Y-95470970D01*
X140748223Y-95416777D01*
X140694030Y-95335671D01*
X140675000Y-95240000D01*
X140675000Y-93990000D01*
X140694030Y-93894329D01*
X140748223Y-93813223D01*
X140829329Y-93759030D01*
X140925000Y-93740000D01*
X141850000Y-93740000D01*
X141945671Y-93759030D01*
G37*
G04 #@! TD.AperFunction*
G04 #@! TA.AperFunction,SMDPad,CuDef*
G36*
X144920671Y-93759030D02*
G01*
X145001777Y-93813223D01*
X145055970Y-93894329D01*
X145075000Y-93990000D01*
X145075000Y-95240000D01*
X145055970Y-95335671D01*
X145001777Y-95416777D01*
X144920671Y-95470970D01*
X144825000Y-95490000D01*
X143900000Y-95490000D01*
X143804329Y-95470970D01*
X143723223Y-95416777D01*
X143669030Y-95335671D01*
X143650000Y-95240000D01*
X143650000Y-93990000D01*
X143669030Y-93894329D01*
X143723223Y-93813223D01*
X143804329Y-93759030D01*
X143900000Y-93740000D01*
X144825000Y-93740000D01*
X144920671Y-93759030D01*
G37*
G04 #@! TD.AperFunction*
G04 #@! TA.AperFunction,SMDPad,CuDef*
G36*
X141945671Y-88679030D02*
G01*
X142026777Y-88733223D01*
X142080970Y-88814329D01*
X142100000Y-88910000D01*
X142100000Y-90160000D01*
X142080970Y-90255671D01*
X142026777Y-90336777D01*
X141945671Y-90390970D01*
X141850000Y-90410000D01*
X140925000Y-90410000D01*
X140829329Y-90390970D01*
X140748223Y-90336777D01*
X140694030Y-90255671D01*
X140675000Y-90160000D01*
X140675000Y-88910000D01*
X140694030Y-88814329D01*
X140748223Y-88733223D01*
X140829329Y-88679030D01*
X140925000Y-88660000D01*
X141850000Y-88660000D01*
X141945671Y-88679030D01*
G37*
G04 #@! TD.AperFunction*
G04 #@! TA.AperFunction,SMDPad,CuDef*
G36*
X144920671Y-88679030D02*
G01*
X145001777Y-88733223D01*
X145055970Y-88814329D01*
X145075000Y-88910000D01*
X145075000Y-90160000D01*
X145055970Y-90255671D01*
X145001777Y-90336777D01*
X144920671Y-90390970D01*
X144825000Y-90410000D01*
X143900000Y-90410000D01*
X143804329Y-90390970D01*
X143723223Y-90336777D01*
X143669030Y-90255671D01*
X143650000Y-90160000D01*
X143650000Y-88910000D01*
X143669030Y-88814329D01*
X143723223Y-88733223D01*
X143804329Y-88679030D01*
X143900000Y-88660000D01*
X144825000Y-88660000D01*
X144920671Y-88679030D01*
G37*
G04 #@! TD.AperFunction*
D18*
X89535000Y-67905000D03*
D19*
X89535000Y-65405000D03*
D20*
X104858579Y-97362290D03*
X105775355Y-97761721D03*
X129540000Y-123190000D03*
X129540000Y-120650000D03*
X128905000Y-113030000D03*
X128905000Y-111125000D03*
X129295000Y-102870000D03*
X129540000Y-100965000D03*
X129540000Y-92710000D03*
X129540000Y-90805000D03*
X129295000Y-77470000D03*
X129540000Y-75565000D03*
X129540000Y-67310000D03*
X128905000Y-65405000D03*
X129295000Y-57150000D03*
X129540000Y-55245000D03*
X129295000Y-46990000D03*
X128905000Y-45085000D03*
X119380000Y-88265000D03*
X94615000Y-97790000D03*
X97790000Y-86995000D03*
X97790000Y-75565000D03*
X104775000Y-69215000D03*
X115570000Y-72390000D03*
X146050000Y-89535000D03*
X142875000Y-89535000D03*
X146050000Y-94615000D03*
X142875000Y-94615000D03*
X146050000Y-99695000D03*
X142875000Y-99695000D03*
X146050000Y-104775000D03*
X142875000Y-104775000D03*
X146050000Y-109855000D03*
X142875000Y-109855000D03*
X146050000Y-114935000D03*
X142875000Y-114935000D03*
X146050000Y-120015000D03*
X142875000Y-120015000D03*
X146050000Y-125095000D03*
X142875000Y-125095000D03*
X136460000Y-90740000D03*
X136525000Y-94615000D03*
X136460000Y-100900000D03*
X136345710Y-105865710D03*
X136460000Y-111190000D03*
X136525000Y-114935000D03*
X136460000Y-121220000D03*
X136525000Y-125095000D03*
X146050000Y-43815000D03*
X142875000Y-43815000D03*
X146050000Y-48895000D03*
X142875000Y-48895000D03*
X146050000Y-53975000D03*
X142875000Y-53975000D03*
X146050000Y-59055000D03*
X142875000Y-59055000D03*
X146050000Y-64135000D03*
X142875000Y-64135000D03*
X146050000Y-69215000D03*
X142875000Y-69215000D03*
X146050000Y-74295000D03*
X142875000Y-74295000D03*
X146050000Y-79375000D03*
X142875000Y-79375000D03*
X136395000Y-44955000D03*
X136980710Y-49985710D03*
X136460000Y-55180000D03*
X135890000Y-59055000D03*
X136460000Y-65340000D03*
X135890000Y-69215000D03*
X136395000Y-75695000D03*
X135890000Y-79375000D03*
X105292590Y-85725000D03*
X104775000Y-92075000D03*
X104775000Y-90170000D03*
X111760000Y-51435000D03*
X111772779Y-76835000D03*
X110575984Y-78622590D03*
X112395000Y-56515000D03*
X112277590Y-81915000D03*
X113030000Y-59055000D03*
X112395000Y-80010000D03*
X113030000Y-120015000D03*
X113030000Y-53975000D03*
X113782410Y-78105000D03*
X113782410Y-112395000D03*
X118110000Y-83185000D03*
X90805000Y-54610000D03*
X100965000Y-54610000D03*
X94364757Y-54640649D03*
X94615000Y-59055000D03*
X106680000Y-54610000D03*
X95885000Y-50165000D03*
X104524757Y-58450649D03*
X104580000Y-56320000D03*
X97155000Y-93345000D03*
X97272410Y-92075000D03*
X102235000Y-60960000D03*
D21*
X105035380Y-100546800D02*
X105648590Y-99933590D01*
X105648590Y-99933590D02*
X105775355Y-99806825D01*
X105775355Y-99806825D02*
X105775355Y-97761721D01*
X105775355Y-99502355D02*
X105775355Y-97761721D01*
X105540189Y-86538284D02*
X105292590Y-86290685D01*
X106797401Y-99498689D02*
X106797401Y-98111064D01*
X105540190Y-100755900D02*
X106797401Y-99498689D01*
X107302212Y-99707788D02*
X107302212Y-97901965D01*
X107032590Y-97632343D02*
X107032590Y-96950126D01*
X105540189Y-96171635D02*
X105540189Y-86538284D01*
X108585000Y-114935000D02*
X108185000Y-114935000D01*
X106045000Y-95962536D02*
X106045000Y-84055000D01*
X108185000Y-81915000D02*
X108585000Y-81915000D01*
X105540189Y-105279811D02*
X105540190Y-100755900D01*
X104106177Y-99093823D02*
X104106177Y-97001152D01*
X106045000Y-100965000D02*
X107302212Y-99707788D01*
X106045000Y-84055000D02*
X108185000Y-81915000D01*
X106045000Y-112795000D02*
X106045000Y-100965000D01*
X104858579Y-97927975D02*
X104858579Y-97362290D01*
X104530569Y-101209431D02*
X104530570Y-100337700D01*
X108185000Y-114935000D02*
X106045000Y-112795000D01*
X107302212Y-97901965D02*
X107032590Y-97632343D01*
X100965000Y-104775000D02*
X104530569Y-101209431D01*
X106797401Y-98111064D02*
X106527779Y-97841442D01*
X100965000Y-102235000D02*
X104106177Y-99093823D01*
X104775000Y-92640685D02*
X104775000Y-92075000D01*
X104106177Y-97001152D02*
X104775000Y-96332329D01*
X104775000Y-96332329D02*
X104775000Y-92640685D01*
X106527779Y-97841442D02*
X106527779Y-97159226D01*
X100965000Y-109855000D02*
X105540189Y-105279811D01*
X104858579Y-100009691D02*
X104858579Y-97927975D01*
X104530570Y-100337700D02*
X104858579Y-100009691D01*
X105292590Y-86290685D02*
X105292590Y-85725000D01*
X106527779Y-97159226D02*
X105540189Y-96171635D01*
X107032590Y-96950126D02*
X106045000Y-95962536D01*
D22*
X127910000Y-120015000D02*
X127910000Y-114935000D01*
X127910000Y-109855000D02*
X127910000Y-104775000D01*
X127910000Y-99695000D02*
X127910000Y-94615000D01*
X127910000Y-74295000D02*
X127910000Y-69215000D01*
X127910000Y-64135000D02*
X127910000Y-59055000D01*
X127910000Y-53975000D02*
X127910000Y-48895000D01*
X127910000Y-89535000D02*
X127910000Y-79375000D01*
D21*
X108585000Y-117475000D02*
X111125000Y-117475000D01*
X111125000Y-117475000D02*
X111760000Y-118110000D01*
X111760000Y-118110000D02*
X111760000Y-124460000D01*
X111760000Y-124460000D02*
X111125000Y-125095000D01*
X111125000Y-125095000D02*
X108585000Y-125095000D01*
D23*
X128270000Y-123190000D02*
X127910000Y-122830000D01*
X129540000Y-123190000D02*
X128270000Y-123190000D01*
D22*
X127910000Y-125095000D02*
X127910000Y-122830000D01*
D23*
X128270000Y-113030000D02*
X127910000Y-112670000D01*
X128905000Y-113030000D02*
X128270000Y-113030000D01*
D22*
X127910000Y-114935000D02*
X127910000Y-112670000D01*
X127910000Y-110130000D02*
X127910000Y-109855000D01*
X127910000Y-112670000D02*
X127910000Y-110130000D01*
X127910000Y-104775000D02*
X127910000Y-103865000D01*
D23*
X129540000Y-100965000D02*
X128270000Y-100965000D01*
X128270000Y-100965000D02*
X127910000Y-101325000D01*
D22*
X127910000Y-101325000D02*
X127910000Y-99695000D01*
D23*
X128270000Y-92710000D02*
X127910000Y-92350000D01*
X129540000Y-92710000D02*
X128270000Y-92710000D01*
D22*
X127910000Y-94615000D02*
X127910000Y-92350000D01*
D23*
X128270000Y-90805000D02*
X127910000Y-90445000D01*
X129540000Y-90805000D02*
X128270000Y-90805000D01*
D22*
X127910000Y-90445000D02*
X127910000Y-89535000D01*
X127910000Y-92350000D02*
X127910000Y-90445000D01*
D23*
X128270000Y-77470000D02*
X127910000Y-77830000D01*
X129295000Y-77470000D02*
X128270000Y-77470000D01*
D22*
X127910000Y-79375000D02*
X127910000Y-77830000D01*
D23*
X128270000Y-75565000D02*
X127910000Y-75925000D01*
X129540000Y-75565000D02*
X128270000Y-75565000D01*
D22*
X127910000Y-75925000D02*
X127910000Y-74295000D01*
X127910000Y-77830000D02*
X127910000Y-75925000D01*
D23*
X128270000Y-67310000D02*
X127910000Y-66950000D01*
X129540000Y-67310000D02*
X128270000Y-67310000D01*
D22*
X127910000Y-69215000D02*
X127910000Y-66950000D01*
D23*
X128270000Y-65405000D02*
X127910000Y-65765000D01*
X128905000Y-65405000D02*
X128270000Y-65405000D01*
D22*
X127910000Y-65765000D02*
X127910000Y-64135000D01*
X127910000Y-66950000D02*
X127910000Y-65765000D01*
D23*
X128270000Y-57150000D02*
X127910000Y-57510000D01*
X129295000Y-57150000D02*
X128270000Y-57150000D01*
D22*
X127910000Y-59055000D02*
X127910000Y-57510000D01*
D23*
X128270000Y-55245000D02*
X127910000Y-54885000D01*
X129540000Y-55245000D02*
X128270000Y-55245000D01*
D22*
X127910000Y-54885000D02*
X127910000Y-53975000D01*
X127910000Y-57510000D02*
X127910000Y-54885000D01*
D23*
X128270000Y-46990000D02*
X127910000Y-47350000D01*
X129295000Y-46990000D02*
X128270000Y-46990000D01*
D22*
X127910000Y-48895000D02*
X127910000Y-47350000D01*
D23*
X128905000Y-45085000D02*
X128185000Y-45085000D01*
X128185000Y-45085000D02*
X127910000Y-45360000D01*
D22*
X127910000Y-45360000D02*
X127910000Y-43815000D01*
X127910000Y-47350000D02*
X127910000Y-45360000D01*
D23*
X128270000Y-102870000D02*
X127910000Y-103230000D01*
X129295000Y-102870000D02*
X128270000Y-102870000D01*
D22*
X127910000Y-103230000D02*
X127910000Y-101325000D01*
X127910000Y-103865000D02*
X127910000Y-103230000D01*
D23*
X128820000Y-120650000D02*
X127910000Y-121560000D01*
X129540000Y-120650000D02*
X128820000Y-120650000D01*
D22*
X127910000Y-121560000D02*
X127910000Y-120015000D01*
X127910000Y-122830000D02*
X127910000Y-121560000D01*
D24*
X105321000Y-71755000D02*
X108585000Y-68491000D01*
X104140000Y-71755000D02*
X105321000Y-71755000D01*
X108585000Y-68491000D02*
X108585000Y-66675000D01*
X104140000Y-88265000D02*
X104140000Y-71755000D01*
X102870000Y-89535000D02*
X104140000Y-88265000D01*
X100965000Y-89535000D02*
X102870000Y-89535000D01*
D22*
X105410000Y-127635000D02*
X117475000Y-127635000D01*
X81280000Y-111760000D02*
X85090000Y-115570000D01*
X117475000Y-127635000D02*
X122280000Y-122830000D01*
X93345000Y-115570000D02*
X105410000Y-127635000D01*
X81280000Y-84965000D02*
X81280000Y-111760000D01*
X85090000Y-115570000D02*
X93345000Y-115570000D01*
X84965000Y-81280000D02*
X81280000Y-84965000D01*
X122280000Y-122830000D02*
X127910000Y-122830000D01*
X85725000Y-81280000D02*
X84965000Y-81280000D01*
D24*
X99060000Y-112395000D02*
X100965000Y-112395000D01*
X98425000Y-111760000D02*
X99060000Y-112395000D01*
X98425000Y-90805000D02*
X98425000Y-111760000D01*
X99695000Y-89535000D02*
X98425000Y-90805000D01*
X100965000Y-89535000D02*
X99695000Y-89535000D01*
D23*
X116205000Y-105880000D02*
X118745000Y-103340000D01*
X116205000Y-107315000D02*
X116205000Y-105880000D01*
X118745000Y-103340000D02*
X118745000Y-99060000D01*
X118745000Y-99060000D02*
X118745000Y-94615000D01*
X119380000Y-93980000D02*
X119380000Y-88265000D01*
X118745000Y-94615000D02*
X119380000Y-93980000D01*
X97790000Y-86995000D02*
X97790000Y-75565000D01*
X104775000Y-65005000D02*
X104775000Y-69215000D01*
X108185000Y-61595000D02*
X104775000Y-65005000D01*
X108585000Y-61595000D02*
X108185000Y-61595000D01*
X119380000Y-76200000D02*
X115570000Y-72390000D01*
X119380000Y-88265000D02*
X119380000Y-76200000D01*
X94615000Y-97790000D02*
X94615000Y-90170000D01*
X94615000Y-90170000D02*
X97390001Y-87394999D01*
X97390001Y-87394999D02*
X97790000Y-86995000D01*
D21*
X146050000Y-89535000D02*
X144362500Y-89535000D01*
X142875000Y-89535000D02*
X141387500Y-89535000D01*
X146050000Y-94615000D02*
X144362500Y-94615000D01*
X141387500Y-94615000D02*
X142875000Y-94615000D01*
X146050000Y-99695000D02*
X144362500Y-99695000D01*
X141387500Y-99695000D02*
X142875000Y-99695000D01*
X146050000Y-104775000D02*
X144362500Y-104775000D01*
X142875000Y-104775000D02*
X141387500Y-104775000D01*
X146050000Y-109855000D02*
X144362500Y-109855000D01*
X141387500Y-109855000D02*
X142875000Y-109855000D01*
X146050000Y-114935000D02*
X144362500Y-114935000D01*
X141387500Y-114935000D02*
X142875000Y-114935000D01*
X146050000Y-120015000D02*
X144362500Y-120015000D01*
X142875000Y-120015000D02*
X141387500Y-120015000D01*
X146050000Y-125095000D02*
X144362500Y-125095000D01*
X142875000Y-125095000D02*
X141387500Y-125095000D01*
D22*
X133710000Y-89535000D02*
X135890000Y-89535000D01*
X135890000Y-89535000D02*
X138430000Y-92075000D01*
X149225000Y-92075000D02*
X151765000Y-89535000D01*
X138430000Y-92075000D02*
X149225000Y-92075000D01*
X134800710Y-95705710D02*
X136980710Y-95705710D01*
X133710000Y-94615000D02*
X134800710Y-95705710D01*
X136980710Y-95705710D02*
X138430000Y-97155000D01*
X149860000Y-97155000D02*
X151765000Y-95250000D01*
X151765000Y-95250000D02*
X151765000Y-94615000D01*
X138430000Y-97155000D02*
X149860000Y-97155000D01*
D23*
X136980710Y-95070710D02*
X136980710Y-95705710D01*
X136525000Y-94615000D02*
X136980710Y-95070710D01*
D22*
X133710000Y-99695000D02*
X135890000Y-99695000D01*
X135890000Y-99695000D02*
X138430000Y-102235000D01*
X149860000Y-102235000D02*
X151765000Y-100330000D01*
X151765000Y-100330000D02*
X151765000Y-99695000D01*
X138430000Y-102235000D02*
X149860000Y-102235000D01*
X134800710Y-105865710D02*
X136345710Y-105865710D01*
X133710000Y-104775000D02*
X134800710Y-105865710D01*
X136345710Y-105865710D02*
X137795000Y-107315000D01*
X151765000Y-106045000D02*
X151765000Y-104775000D01*
X150495000Y-107315000D02*
X151765000Y-106045000D01*
X137795000Y-107315000D02*
X150495000Y-107315000D01*
X134800710Y-110945710D02*
X136345710Y-110945710D01*
X133710000Y-109855000D02*
X134800710Y-110945710D01*
X136345710Y-110945710D02*
X137795000Y-112395000D01*
X151765000Y-110490000D02*
X151765000Y-109855000D01*
X149860000Y-112395000D02*
X151765000Y-110490000D01*
X137795000Y-112395000D02*
X149860000Y-112395000D01*
X134800710Y-116025710D02*
X136345710Y-116025710D01*
X133710000Y-114935000D02*
X134800710Y-116025710D01*
X136345710Y-116025710D02*
X137795000Y-117475000D01*
X151765000Y-115570000D02*
X151765000Y-114935000D01*
X149860000Y-117475000D02*
X151765000Y-115570000D01*
X137795000Y-117475000D02*
X149860000Y-117475000D01*
D23*
X136525000Y-115846420D02*
X136345710Y-116025710D01*
X136525000Y-114935000D02*
X136525000Y-115846420D01*
D22*
X134800710Y-121105710D02*
X136980710Y-121105710D01*
X133710000Y-120015000D02*
X134800710Y-121105710D01*
X136980710Y-121105710D02*
X138430000Y-122555000D01*
X151765000Y-121285000D02*
X151765000Y-120015000D01*
X150495000Y-122555000D02*
X151765000Y-121285000D01*
X138430000Y-122555000D02*
X150495000Y-122555000D01*
X138616010Y-127186010D02*
X139065000Y-127635000D01*
X137615710Y-126185710D02*
X138616010Y-127186010D01*
X133710000Y-125095000D02*
X134800710Y-126185710D01*
X151005000Y-125095000D02*
X151765000Y-125095000D01*
X147933000Y-128167000D02*
X151005000Y-125095000D01*
X139597000Y-128167000D02*
X147933000Y-128167000D01*
X138616010Y-127186010D02*
X139597000Y-128167000D01*
D23*
X136525000Y-126006420D02*
X136345710Y-126185710D01*
X136525000Y-125095000D02*
X136525000Y-126006420D01*
D22*
X136345710Y-126185710D02*
X137615710Y-126185710D01*
X134800710Y-126185710D02*
X136345710Y-126185710D01*
D21*
X146050000Y-43815000D02*
X144362500Y-43815000D01*
X142875000Y-43815000D02*
X141387500Y-43815000D01*
X146050000Y-48895000D02*
X144362500Y-48895000D01*
X142875000Y-48895000D02*
X141387500Y-48895000D01*
X146050000Y-53975000D02*
X144362500Y-53975000D01*
X142875000Y-53975000D02*
X141387500Y-53975000D01*
X146050000Y-59055000D02*
X144362500Y-59055000D01*
X141387500Y-59055000D02*
X142875000Y-59055000D01*
X146050000Y-64135000D02*
X144362500Y-64135000D01*
X142875000Y-64135000D02*
X141387500Y-64135000D01*
X146050000Y-69215000D02*
X144362500Y-69215000D01*
X141387500Y-69215000D02*
X142875000Y-69215000D01*
X146050000Y-74295000D02*
X144362500Y-74295000D01*
X142875000Y-74295000D02*
X141387500Y-74295000D01*
X146050000Y-79375000D02*
X144362500Y-79375000D01*
X141387500Y-79375000D02*
X142875000Y-79375000D01*
D22*
X151765000Y-44955000D02*
X150365000Y-46355000D01*
X151765000Y-43815000D02*
X151765000Y-44955000D01*
X150365000Y-46355000D02*
X138430000Y-46355000D01*
X135890000Y-43815000D02*
X138430000Y-46355000D01*
X133710000Y-43815000D02*
X135890000Y-43815000D01*
X134800710Y-49985710D02*
X136980710Y-49985710D01*
X133710000Y-48895000D02*
X134800710Y-49985710D01*
X136980710Y-49985710D02*
X138430000Y-51435000D01*
X149225000Y-51435000D02*
X151765000Y-48895000D01*
X138430000Y-51435000D02*
X149225000Y-51435000D01*
X134800710Y-55065710D02*
X136980710Y-55065710D01*
X133710000Y-53975000D02*
X134800710Y-55065710D01*
X136980710Y-55065710D02*
X138430000Y-56515000D01*
X151765000Y-54610000D02*
X151765000Y-53975000D01*
X149860000Y-56515000D02*
X151765000Y-54610000D01*
X138430000Y-56515000D02*
X149860000Y-56515000D01*
X133710000Y-59055000D02*
X135890000Y-59055000D01*
X135890000Y-59055000D02*
X138430000Y-61595000D01*
X151765000Y-60325000D02*
X151765000Y-59055000D01*
X150495000Y-61595000D02*
X151765000Y-60325000D01*
X138430000Y-61595000D02*
X150495000Y-61595000D01*
X149225000Y-66675000D02*
X151765000Y-64135000D01*
X137795000Y-66675000D02*
X149225000Y-66675000D01*
X134800710Y-65225710D02*
X136345710Y-65225710D01*
X136345710Y-65225710D02*
X137795000Y-66675000D01*
X133710000Y-64135000D02*
X134800710Y-65225710D01*
X134800710Y-70305710D02*
X135710710Y-70305710D01*
X133710000Y-69215000D02*
X134800710Y-70305710D01*
X135710710Y-70305710D02*
X137160000Y-71755000D01*
X151765000Y-69850000D02*
X151765000Y-69215000D01*
X149860000Y-71755000D02*
X151765000Y-69850000D01*
X137160000Y-71755000D02*
X149860000Y-71755000D01*
D23*
X135890000Y-70126420D02*
X135710710Y-70305710D01*
X135890000Y-69215000D02*
X135890000Y-70126420D01*
D22*
X133710000Y-74295000D02*
X135890000Y-74295000D01*
X135890000Y-74295000D02*
X138430000Y-76835000D01*
X151130000Y-74295000D02*
X151765000Y-74295000D01*
X148590000Y-76835000D02*
X151130000Y-74295000D01*
X138430000Y-76835000D02*
X148590000Y-76835000D01*
X151765000Y-80645000D02*
X151765000Y-79375000D01*
X150495000Y-81915000D02*
X151765000Y-80645000D01*
X135890000Y-79375000D02*
X138430000Y-81915000D01*
X138430000Y-81915000D02*
X150495000Y-81915000D01*
X133710000Y-79375000D02*
X135890000Y-79375000D01*
D21*
X100965000Y-107315000D02*
X105035379Y-103244621D01*
X105035379Y-103244621D02*
X105035380Y-100546800D01*
X100965000Y-99695000D02*
X100965000Y-98540200D01*
X100965000Y-98540200D02*
X104022598Y-95482602D01*
X104375001Y-90569999D02*
X104775000Y-90170000D01*
X104022598Y-95482602D02*
X104022598Y-90922402D01*
X104022598Y-90922402D02*
X104375001Y-90569999D01*
X111642599Y-76139135D02*
X111772779Y-76269315D01*
X111760000Y-56036446D02*
X111642599Y-56153847D01*
X111760000Y-51435000D02*
X111760000Y-56036446D01*
X111642599Y-56153847D02*
X111642599Y-76139135D01*
X111772779Y-76269315D02*
X111772779Y-76835000D01*
X111772779Y-78804755D02*
X111772779Y-77400685D01*
X111137787Y-81888753D02*
X111137787Y-79439747D01*
X111772779Y-77400685D02*
X111772779Y-76835000D01*
X112395000Y-83145966D02*
X111137787Y-81888753D01*
X112395000Y-106445000D02*
X112395000Y-83145966D01*
X108585000Y-109855000D02*
X108985000Y-109855000D01*
X111137787Y-79439747D02*
X111772779Y-78804755D01*
X108985000Y-109855000D02*
X112395000Y-106445000D01*
X110575984Y-76918239D02*
X110575984Y-78056905D01*
X110089800Y-50878354D02*
X111125000Y-51913554D01*
X110089800Y-49999800D02*
X110089800Y-50878354D01*
X111125000Y-76369223D02*
X110575984Y-76918239D01*
X108585000Y-48895000D02*
X108985000Y-48895000D01*
X108985000Y-48895000D02*
X110089800Y-49999800D01*
X111125000Y-51913554D02*
X111125000Y-76369223D01*
X110575984Y-78056905D02*
X110575984Y-78622590D01*
X108585000Y-107315000D02*
X108585000Y-106210200D01*
X111125000Y-103670200D02*
X111125000Y-82589876D01*
X111125000Y-82589876D02*
X110575984Y-82040860D01*
X110575984Y-82040860D02*
X110575984Y-79188275D01*
X110575984Y-79188275D02*
X110575984Y-78622590D01*
X108585000Y-106210200D02*
X111125000Y-103670200D01*
X112525189Y-78766255D02*
X111642598Y-79648846D01*
X112395000Y-59533554D02*
X112395000Y-75721446D01*
X112395000Y-56515000D02*
X112395000Y-57080685D01*
X112277599Y-59416153D02*
X112395000Y-59533554D01*
X111642598Y-81280008D02*
X111877591Y-81515001D01*
X111642598Y-79648846D02*
X111642598Y-81280008D01*
X112277599Y-57198086D02*
X112277599Y-59416153D01*
X112395000Y-57080685D02*
X112277599Y-57198086D01*
X111877591Y-81515001D02*
X112277590Y-81915000D01*
X112525189Y-75851635D02*
X112525189Y-78766255D01*
X112395000Y-75721446D02*
X112525189Y-75851635D01*
X113030000Y-79375000D02*
X112395000Y-80010000D01*
X113030000Y-59055000D02*
X113030000Y-79375000D01*
X112395000Y-80010000D02*
X113030000Y-80645000D01*
X113030000Y-80645000D02*
X113030000Y-109220000D01*
X113030000Y-109220000D02*
X113030000Y-120015000D01*
X113030000Y-53975000D02*
X113782410Y-54727410D01*
X113782410Y-54727410D02*
X113782410Y-78105000D01*
X113782410Y-78105000D02*
X113782410Y-111829315D01*
X113782410Y-111829315D02*
X113782410Y-112395000D01*
X116605000Y-94615000D02*
X116205000Y-94615000D01*
X118110000Y-93110000D02*
X116605000Y-94615000D01*
X118110000Y-83185000D02*
X118110000Y-93110000D01*
D25*
X86995000Y-52070000D02*
X88253000Y-52070000D01*
X90805000Y-52070000D02*
X97155000Y-52070000D01*
X90805000Y-54610000D02*
X90805000Y-52070000D01*
X88253000Y-52070000D02*
X90805000Y-52070000D01*
X98425000Y-52070000D02*
X97155000Y-52070000D01*
X100965000Y-54610000D02*
X98425000Y-52070000D01*
X94364757Y-58804757D02*
X94615000Y-59055000D01*
X94364757Y-54640649D02*
X94364757Y-58804757D01*
X100965000Y-54610000D02*
X106680000Y-54610000D01*
X96877000Y-50165000D02*
X95885000Y-50165000D01*
X103862000Y-43180000D02*
X96877000Y-50165000D01*
X105410000Y-43180000D02*
X103862000Y-43180000D01*
X103920406Y-59055000D02*
X94615000Y-59055000D01*
X104524757Y-58450649D02*
X103920406Y-59055000D01*
D21*
X104580000Y-56320000D02*
X105277158Y-57017158D01*
X101406955Y-88332599D02*
X99627401Y-88332599D01*
X105277158Y-57017158D02*
X105277158Y-59557158D01*
X97155000Y-93345000D02*
X96520000Y-92710000D01*
X105277158Y-59557158D02*
X102870000Y-61964316D01*
X102870000Y-61964316D02*
X102870000Y-86869554D01*
X97272410Y-90687590D02*
X97272410Y-91509315D01*
X102870000Y-86869554D02*
X101406955Y-88332599D01*
X99627401Y-88332599D02*
X97272410Y-90687590D01*
X97272410Y-91509315D02*
X97272410Y-92075000D01*
X96520000Y-89660446D02*
X100455446Y-85725000D01*
X96520000Y-92710000D02*
X96520000Y-89660446D01*
X102029322Y-85725000D02*
X102235000Y-85519322D01*
X100455446Y-85725000D02*
X102029322Y-85725000D01*
X102235000Y-85519322D02*
X102235000Y-60960000D01*
M02*
