G04 #@! TF.GenerationSoftware,KiCad,Pcbnew,(5.99.0-434-g6ad8b170c)*
G04 #@! TF.CreationDate,2019-12-07T15:10:00-08:00*
G04 #@! TF.ProjectId,R_Switch,525f5377-6974-4636-982e-6b696361645f,A*
G04 #@! TF.SameCoordinates,Original*
G04 #@! TF.FileFunction,Copper,L1,Top*
G04 #@! TF.FilePolarity,Positive*
%FSLAX46Y46*%
G04 Gerber Fmt 4.6, Leading zero omitted, Abs format (unit mm)*
G04 Created by KiCad (PCBNEW (5.99.0-434-g6ad8b170c)) date 2019-12-07 15:10:00*
%MOMM*%
%LPD*%
G04 APERTURE LIST*
%ADD10R,1.500000X1.050000*%
%ADD11O,1.500000X1.050000*%
%ADD12O,2.080000X3.600000*%
%ADD13R,0.900000X1.200000*%
%ADD14O,2.400000X1.600000*%
%ADD15R,2.400000X1.600000*%
%ADD16R,5.800000X6.400000*%
%ADD17R,1.200000X2.200000*%
%ADD18O,3.600000X2.080000*%
%ADD19O,1.700000X1.700000*%
%ADD20R,1.700000X1.700000*%
%ADD21C,1.600000*%
%ADD22R,1.600000X1.600000*%
%ADD23C,0.800000*%
%ADD24C,0.508000*%
%ADD25C,0.304800*%
%ADD26C,1.016000*%
%ADD27C,0.635000*%
%ADD28C,0.254000*%
G04 APERTURE END LIST*
G04 #@! TA.AperFunction,SMDPad,CuDef*
G36*
X103535671Y-57104030D02*
G01*
X103616777Y-57158223D01*
X103670970Y-57239329D01*
X103690000Y-57334999D01*
X103690000Y-58235001D01*
X103670970Y-58330671D01*
X103616777Y-58411777D01*
X103535671Y-58465970D01*
X103440001Y-58485000D01*
X102789999Y-58485000D01*
X102694329Y-58465970D01*
X102613223Y-58411777D01*
X102559030Y-58330671D01*
X102540000Y-58235001D01*
X102540000Y-57334999D01*
X102559030Y-57239329D01*
X102613223Y-57158223D01*
X102694329Y-57104030D01*
X102789999Y-57085000D01*
X103440001Y-57085000D01*
X103535671Y-57104030D01*
G37*
G04 #@! TD.AperFunction*
G04 #@! TA.AperFunction,SMDPad,CuDef*
G36*
X105585671Y-57104030D02*
G01*
X105666777Y-57158223D01*
X105720970Y-57239329D01*
X105740000Y-57334999D01*
X105740000Y-58235001D01*
X105720970Y-58330671D01*
X105666777Y-58411777D01*
X105585671Y-58465970D01*
X105490001Y-58485000D01*
X104839999Y-58485000D01*
X104744329Y-58465970D01*
X104663223Y-58411777D01*
X104609030Y-58330671D01*
X104590000Y-58235001D01*
X104590000Y-57334999D01*
X104609030Y-57239329D01*
X104663223Y-57158223D01*
X104744329Y-57104030D01*
X104839999Y-57085000D01*
X105490001Y-57085000D01*
X105585671Y-57104030D01*
G37*
G04 #@! TD.AperFunction*
G04 #@! TA.AperFunction,SMDPad,CuDef*
G36*
X103535671Y-59009030D02*
G01*
X103616777Y-59063223D01*
X103670970Y-59144329D01*
X103690000Y-59239999D01*
X103690000Y-60140001D01*
X103670970Y-60235671D01*
X103616777Y-60316777D01*
X103535671Y-60370970D01*
X103440001Y-60390000D01*
X102789999Y-60390000D01*
X102694329Y-60370970D01*
X102613223Y-60316777D01*
X102559030Y-60235671D01*
X102540000Y-60140001D01*
X102540000Y-59239999D01*
X102559030Y-59144329D01*
X102613223Y-59063223D01*
X102694329Y-59009030D01*
X102789999Y-58990000D01*
X103440001Y-58990000D01*
X103535671Y-59009030D01*
G37*
G04 #@! TD.AperFunction*
G04 #@! TA.AperFunction,SMDPad,CuDef*
G36*
X105585671Y-59009030D02*
G01*
X105666777Y-59063223D01*
X105720970Y-59144329D01*
X105740000Y-59239999D01*
X105740000Y-60140001D01*
X105720970Y-60235671D01*
X105666777Y-60316777D01*
X105585671Y-60370970D01*
X105490001Y-60390000D01*
X104839999Y-60390000D01*
X104744329Y-60370970D01*
X104663223Y-60316777D01*
X104609030Y-60235671D01*
X104590000Y-60140001D01*
X104590000Y-59239999D01*
X104609030Y-59144329D01*
X104663223Y-59063223D01*
X104744329Y-59009030D01*
X104839999Y-58990000D01*
X105490001Y-58990000D01*
X105585671Y-59009030D01*
G37*
G04 #@! TD.AperFunction*
G04 #@! TA.AperFunction,SMDPad,CuDef*
G36*
X105585671Y-53294030D02*
G01*
X105666777Y-53348223D01*
X105720970Y-53429329D01*
X105740000Y-53524999D01*
X105740000Y-54425001D01*
X105720970Y-54520671D01*
X105666777Y-54601777D01*
X105585671Y-54655970D01*
X105490001Y-54675000D01*
X104839999Y-54675000D01*
X104744329Y-54655970D01*
X104663223Y-54601777D01*
X104609030Y-54520671D01*
X104590000Y-54425001D01*
X104590000Y-53524999D01*
X104609030Y-53429329D01*
X104663223Y-53348223D01*
X104744329Y-53294030D01*
X104839999Y-53275000D01*
X105490001Y-53275000D01*
X105585671Y-53294030D01*
G37*
G04 #@! TD.AperFunction*
G04 #@! TA.AperFunction,SMDPad,CuDef*
G36*
X103535671Y-53294030D02*
G01*
X103616777Y-53348223D01*
X103670970Y-53429329D01*
X103690000Y-53524999D01*
X103690000Y-54425001D01*
X103670970Y-54520671D01*
X103616777Y-54601777D01*
X103535671Y-54655970D01*
X103440001Y-54675000D01*
X102789999Y-54675000D01*
X102694329Y-54655970D01*
X102613223Y-54601777D01*
X102559030Y-54520671D01*
X102540000Y-54425001D01*
X102540000Y-53524999D01*
X102559030Y-53429329D01*
X102613223Y-53348223D01*
X102694329Y-53294030D01*
X102789999Y-53275000D01*
X103440001Y-53275000D01*
X103535671Y-53294030D01*
G37*
G04 #@! TD.AperFunction*
G04 #@! TA.AperFunction,SMDPad,CuDef*
G36*
X103535671Y-55199030D02*
G01*
X103616777Y-55253223D01*
X103670970Y-55334329D01*
X103690000Y-55429999D01*
X103690000Y-56330001D01*
X103670970Y-56425671D01*
X103616777Y-56506777D01*
X103535671Y-56560970D01*
X103440001Y-56580000D01*
X102789999Y-56580000D01*
X102694329Y-56560970D01*
X102613223Y-56506777D01*
X102559030Y-56425671D01*
X102540000Y-56330001D01*
X102540000Y-55429999D01*
X102559030Y-55334329D01*
X102613223Y-55253223D01*
X102694329Y-55199030D01*
X102789999Y-55180000D01*
X103440001Y-55180000D01*
X103535671Y-55199030D01*
G37*
G04 #@! TD.AperFunction*
G04 #@! TA.AperFunction,SMDPad,CuDef*
G36*
X105585671Y-55199030D02*
G01*
X105666777Y-55253223D01*
X105720970Y-55334329D01*
X105740000Y-55429999D01*
X105740000Y-56330001D01*
X105720970Y-56425671D01*
X105666777Y-56506777D01*
X105585671Y-56560970D01*
X105490001Y-56580000D01*
X104839999Y-56580000D01*
X104744329Y-56560970D01*
X104663223Y-56506777D01*
X104609030Y-56425671D01*
X104590000Y-56330001D01*
X104590000Y-55429999D01*
X104609030Y-55334329D01*
X104663223Y-55253223D01*
X104744329Y-55199030D01*
X104839999Y-55180000D01*
X105490001Y-55180000D01*
X105585671Y-55199030D01*
G37*
G04 #@! TD.AperFunction*
G04 #@! TA.AperFunction,SMDPad,CuDef*
G36*
X101775671Y-51389030D02*
G01*
X101856777Y-51443223D01*
X101910970Y-51524329D01*
X101930000Y-51619999D01*
X101930000Y-52520001D01*
X101910970Y-52615671D01*
X101856777Y-52696777D01*
X101775671Y-52750970D01*
X101680001Y-52770000D01*
X101029999Y-52770000D01*
X100934329Y-52750970D01*
X100853223Y-52696777D01*
X100799030Y-52615671D01*
X100780000Y-52520001D01*
X100780000Y-51619999D01*
X100799030Y-51524329D01*
X100853223Y-51443223D01*
X100934329Y-51389030D01*
X101029999Y-51370000D01*
X101680001Y-51370000D01*
X101775671Y-51389030D01*
G37*
G04 #@! TD.AperFunction*
G04 #@! TA.AperFunction,SMDPad,CuDef*
G36*
X99725671Y-51389030D02*
G01*
X99806777Y-51443223D01*
X99860970Y-51524329D01*
X99880000Y-51619999D01*
X99880000Y-52520001D01*
X99860970Y-52615671D01*
X99806777Y-52696777D01*
X99725671Y-52750970D01*
X99630001Y-52770000D01*
X98979999Y-52770000D01*
X98884329Y-52750970D01*
X98803223Y-52696777D01*
X98749030Y-52615671D01*
X98730000Y-52520001D01*
X98730000Y-51619999D01*
X98749030Y-51524329D01*
X98803223Y-51443223D01*
X98884329Y-51389030D01*
X98979999Y-51370000D01*
X99630001Y-51370000D01*
X99725671Y-51389030D01*
G37*
G04 #@! TD.AperFunction*
G04 #@! TA.AperFunction,SMDPad,CuDef*
G36*
X103045671Y-46309030D02*
G01*
X103126777Y-46363223D01*
X103180970Y-46444329D01*
X103200000Y-46539999D01*
X103200000Y-47440001D01*
X103180970Y-47535671D01*
X103126777Y-47616777D01*
X103045671Y-47670970D01*
X102950001Y-47690000D01*
X102299999Y-47690000D01*
X102204329Y-47670970D01*
X102123223Y-47616777D01*
X102069030Y-47535671D01*
X102050000Y-47440001D01*
X102050000Y-46539999D01*
X102069030Y-46444329D01*
X102123223Y-46363223D01*
X102204329Y-46309030D01*
X102299999Y-46290000D01*
X102950001Y-46290000D01*
X103045671Y-46309030D01*
G37*
G04 #@! TD.AperFunction*
G04 #@! TA.AperFunction,SMDPad,CuDef*
G36*
X100995671Y-46309030D02*
G01*
X101076777Y-46363223D01*
X101130970Y-46444329D01*
X101150000Y-46539999D01*
X101150000Y-47440001D01*
X101130970Y-47535671D01*
X101076777Y-47616777D01*
X100995671Y-47670970D01*
X100900001Y-47690000D01*
X100249999Y-47690000D01*
X100154329Y-47670970D01*
X100073223Y-47616777D01*
X100019030Y-47535671D01*
X100000000Y-47440001D01*
X100000000Y-46539999D01*
X100019030Y-46444329D01*
X100073223Y-46363223D01*
X100154329Y-46309030D01*
X100249999Y-46290000D01*
X100900001Y-46290000D01*
X100995671Y-46309030D01*
G37*
G04 #@! TD.AperFunction*
G04 #@! TA.AperFunction,SMDPad,CuDef*
G36*
X101775671Y-53294030D02*
G01*
X101856777Y-53348223D01*
X101910970Y-53429329D01*
X101930000Y-53524999D01*
X101930000Y-54425001D01*
X101910970Y-54520671D01*
X101856777Y-54601777D01*
X101775671Y-54655970D01*
X101680001Y-54675000D01*
X101029999Y-54675000D01*
X100934329Y-54655970D01*
X100853223Y-54601777D01*
X100799030Y-54520671D01*
X100780000Y-54425001D01*
X100780000Y-53524999D01*
X100799030Y-53429329D01*
X100853223Y-53348223D01*
X100934329Y-53294030D01*
X101029999Y-53275000D01*
X101680001Y-53275000D01*
X101775671Y-53294030D01*
G37*
G04 #@! TD.AperFunction*
G04 #@! TA.AperFunction,SMDPad,CuDef*
G36*
X99725671Y-53294030D02*
G01*
X99806777Y-53348223D01*
X99860970Y-53429329D01*
X99880000Y-53524999D01*
X99880000Y-54425001D01*
X99860970Y-54520671D01*
X99806777Y-54601777D01*
X99725671Y-54655970D01*
X99630001Y-54675000D01*
X98979999Y-54675000D01*
X98884329Y-54655970D01*
X98803223Y-54601777D01*
X98749030Y-54520671D01*
X98730000Y-54425001D01*
X98730000Y-53524999D01*
X98749030Y-53429329D01*
X98803223Y-53348223D01*
X98884329Y-53294030D01*
X98979999Y-53275000D01*
X99630001Y-53275000D01*
X99725671Y-53294030D01*
G37*
G04 #@! TD.AperFunction*
G04 #@! TA.AperFunction,SMDPad,CuDef*
G36*
X95425671Y-53294030D02*
G01*
X95506777Y-53348223D01*
X95560970Y-53429329D01*
X95580000Y-53524999D01*
X95580000Y-54425001D01*
X95560970Y-54520671D01*
X95506777Y-54601777D01*
X95425671Y-54655970D01*
X95330001Y-54675000D01*
X94679999Y-54675000D01*
X94584329Y-54655970D01*
X94503223Y-54601777D01*
X94449030Y-54520671D01*
X94430000Y-54425001D01*
X94430000Y-53524999D01*
X94449030Y-53429329D01*
X94503223Y-53348223D01*
X94584329Y-53294030D01*
X94679999Y-53275000D01*
X95330001Y-53275000D01*
X95425671Y-53294030D01*
G37*
G04 #@! TD.AperFunction*
G04 #@! TA.AperFunction,SMDPad,CuDef*
G36*
X93375671Y-53294030D02*
G01*
X93456777Y-53348223D01*
X93510970Y-53429329D01*
X93530000Y-53524999D01*
X93530000Y-54425001D01*
X93510970Y-54520671D01*
X93456777Y-54601777D01*
X93375671Y-54655970D01*
X93280001Y-54675000D01*
X92629999Y-54675000D01*
X92534329Y-54655970D01*
X92453223Y-54601777D01*
X92399030Y-54520671D01*
X92380000Y-54425001D01*
X92380000Y-53524999D01*
X92399030Y-53429329D01*
X92453223Y-53348223D01*
X92534329Y-53294030D01*
X92629999Y-53275000D01*
X93280001Y-53275000D01*
X93375671Y-53294030D01*
G37*
G04 #@! TD.AperFunction*
G04 #@! TA.AperFunction,SMDPad,CuDef*
G36*
X93375671Y-55199030D02*
G01*
X93456777Y-55253223D01*
X93510970Y-55334329D01*
X93530000Y-55429999D01*
X93530000Y-56330001D01*
X93510970Y-56425671D01*
X93456777Y-56506777D01*
X93375671Y-56560970D01*
X93280001Y-56580000D01*
X92629999Y-56580000D01*
X92534329Y-56560970D01*
X92453223Y-56506777D01*
X92399030Y-56425671D01*
X92380000Y-56330001D01*
X92380000Y-55429999D01*
X92399030Y-55334329D01*
X92453223Y-55253223D01*
X92534329Y-55199030D01*
X92629999Y-55180000D01*
X93280001Y-55180000D01*
X93375671Y-55199030D01*
G37*
G04 #@! TD.AperFunction*
G04 #@! TA.AperFunction,SMDPad,CuDef*
G36*
X95425671Y-55199030D02*
G01*
X95506777Y-55253223D01*
X95560970Y-55334329D01*
X95580000Y-55429999D01*
X95580000Y-56330001D01*
X95560970Y-56425671D01*
X95506777Y-56506777D01*
X95425671Y-56560970D01*
X95330001Y-56580000D01*
X94679999Y-56580000D01*
X94584329Y-56560970D01*
X94503223Y-56506777D01*
X94449030Y-56425671D01*
X94430000Y-56330001D01*
X94430000Y-55429999D01*
X94449030Y-55334329D01*
X94503223Y-55253223D01*
X94584329Y-55199030D01*
X94679999Y-55180000D01*
X95330001Y-55180000D01*
X95425671Y-55199030D01*
G37*
G04 #@! TD.AperFunction*
G04 #@! TA.AperFunction,SMDPad,CuDef*
G36*
X91615671Y-51389030D02*
G01*
X91696777Y-51443223D01*
X91750970Y-51524329D01*
X91770000Y-51619999D01*
X91770000Y-52520001D01*
X91750970Y-52615671D01*
X91696777Y-52696777D01*
X91615671Y-52750970D01*
X91520001Y-52770000D01*
X90869999Y-52770000D01*
X90774329Y-52750970D01*
X90693223Y-52696777D01*
X90639030Y-52615671D01*
X90620000Y-52520001D01*
X90620000Y-51619999D01*
X90639030Y-51524329D01*
X90693223Y-51443223D01*
X90774329Y-51389030D01*
X90869999Y-51370000D01*
X91520001Y-51370000D01*
X91615671Y-51389030D01*
G37*
G04 #@! TD.AperFunction*
G04 #@! TA.AperFunction,SMDPad,CuDef*
G36*
X89565671Y-51389030D02*
G01*
X89646777Y-51443223D01*
X89700970Y-51524329D01*
X89720000Y-51619999D01*
X89720000Y-52520001D01*
X89700970Y-52615671D01*
X89646777Y-52696777D01*
X89565671Y-52750970D01*
X89470001Y-52770000D01*
X88819999Y-52770000D01*
X88724329Y-52750970D01*
X88643223Y-52696777D01*
X88589030Y-52615671D01*
X88570000Y-52520001D01*
X88570000Y-51619999D01*
X88589030Y-51524329D01*
X88643223Y-51443223D01*
X88724329Y-51389030D01*
X88819999Y-51370000D01*
X89470001Y-51370000D01*
X89565671Y-51389030D01*
G37*
G04 #@! TD.AperFunction*
G04 #@! TA.AperFunction,SMDPad,CuDef*
G36*
X97330671Y-46309030D02*
G01*
X97411777Y-46363223D01*
X97465970Y-46444329D01*
X97485000Y-46539999D01*
X97485000Y-47440001D01*
X97465970Y-47535671D01*
X97411777Y-47616777D01*
X97330671Y-47670970D01*
X97235001Y-47690000D01*
X96584999Y-47690000D01*
X96489329Y-47670970D01*
X96408223Y-47616777D01*
X96354030Y-47535671D01*
X96335000Y-47440001D01*
X96335000Y-46539999D01*
X96354030Y-46444329D01*
X96408223Y-46363223D01*
X96489329Y-46309030D01*
X96584999Y-46290000D01*
X97235001Y-46290000D01*
X97330671Y-46309030D01*
G37*
G04 #@! TD.AperFunction*
G04 #@! TA.AperFunction,SMDPad,CuDef*
G36*
X95280671Y-46309030D02*
G01*
X95361777Y-46363223D01*
X95415970Y-46444329D01*
X95435000Y-46539999D01*
X95435000Y-47440001D01*
X95415970Y-47535671D01*
X95361777Y-47616777D01*
X95280671Y-47670970D01*
X95185001Y-47690000D01*
X94534999Y-47690000D01*
X94439329Y-47670970D01*
X94358223Y-47616777D01*
X94304030Y-47535671D01*
X94285000Y-47440001D01*
X94285000Y-46539999D01*
X94304030Y-46444329D01*
X94358223Y-46363223D01*
X94439329Y-46309030D01*
X94534999Y-46290000D01*
X95185001Y-46290000D01*
X95280671Y-46309030D01*
G37*
G04 #@! TD.AperFunction*
G04 #@! TA.AperFunction,SMDPad,CuDef*
G36*
X91615671Y-53294030D02*
G01*
X91696777Y-53348223D01*
X91750970Y-53429329D01*
X91770000Y-53524999D01*
X91770000Y-54425001D01*
X91750970Y-54520671D01*
X91696777Y-54601777D01*
X91615671Y-54655970D01*
X91520001Y-54675000D01*
X90869999Y-54675000D01*
X90774329Y-54655970D01*
X90693223Y-54601777D01*
X90639030Y-54520671D01*
X90620000Y-54425001D01*
X90620000Y-53524999D01*
X90639030Y-53429329D01*
X90693223Y-53348223D01*
X90774329Y-53294030D01*
X90869999Y-53275000D01*
X91520001Y-53275000D01*
X91615671Y-53294030D01*
G37*
G04 #@! TD.AperFunction*
G04 #@! TA.AperFunction,SMDPad,CuDef*
G36*
X89565671Y-53294030D02*
G01*
X89646777Y-53348223D01*
X89700970Y-53429329D01*
X89720000Y-53524999D01*
X89720000Y-54425001D01*
X89700970Y-54520671D01*
X89646777Y-54601777D01*
X89565671Y-54655970D01*
X89470001Y-54675000D01*
X88819999Y-54675000D01*
X88724329Y-54655970D01*
X88643223Y-54601777D01*
X88589030Y-54520671D01*
X88570000Y-54425001D01*
X88570000Y-53524999D01*
X88589030Y-53429329D01*
X88643223Y-53348223D01*
X88724329Y-53294030D01*
X88819999Y-53275000D01*
X89470001Y-53275000D01*
X89565671Y-53294030D01*
G37*
G04 #@! TD.AperFunction*
D10*
X97155000Y-52070000D03*
D11*
X97155000Y-54610000D03*
X97155000Y-53340000D03*
D10*
X86995000Y-52070000D03*
D11*
X86995000Y-54610000D03*
X86995000Y-53340000D03*
D12*
X105410000Y-43180000D03*
X100330000Y-43180000D03*
G04 #@! TA.AperFunction,ComponentPad*
G36*
X96135671Y-41399030D02*
G01*
X96216777Y-41453223D01*
X96270970Y-41534329D01*
X96290000Y-41629999D01*
X96290000Y-44730001D01*
X96270970Y-44825671D01*
X96216777Y-44906777D01*
X96135671Y-44960970D01*
X96040001Y-44980000D01*
X94459999Y-44980000D01*
X94364329Y-44960970D01*
X94283223Y-44906777D01*
X94229030Y-44825671D01*
X94210000Y-44730001D01*
X94210000Y-41629999D01*
X94229030Y-41534329D01*
X94283223Y-41453223D01*
X94364329Y-41399030D01*
X94459999Y-41380000D01*
X96040001Y-41380000D01*
X96135671Y-41399030D01*
G37*
G04 #@! TD.AperFunction*
D13*
X103885000Y-49530000D03*
X100585000Y-49530000D03*
X94360000Y-49530000D03*
X91060000Y-49530000D03*
G04 #@! TA.AperFunction,SMDPad,CuDef*
G36*
X105585671Y-51389030D02*
G01*
X105666777Y-51443223D01*
X105720970Y-51524329D01*
X105740000Y-51619999D01*
X105740000Y-52520001D01*
X105720970Y-52615671D01*
X105666777Y-52696777D01*
X105585671Y-52750970D01*
X105490001Y-52770000D01*
X104839999Y-52770000D01*
X104744329Y-52750970D01*
X104663223Y-52696777D01*
X104609030Y-52615671D01*
X104590000Y-52520001D01*
X104590000Y-51619999D01*
X104609030Y-51524329D01*
X104663223Y-51443223D01*
X104744329Y-51389030D01*
X104839999Y-51370000D01*
X105490001Y-51370000D01*
X105585671Y-51389030D01*
G37*
G04 #@! TD.AperFunction*
G04 #@! TA.AperFunction,SMDPad,CuDef*
G36*
X103535671Y-51389030D02*
G01*
X103616777Y-51443223D01*
X103670970Y-51524329D01*
X103690000Y-51619999D01*
X103690000Y-52520001D01*
X103670970Y-52615671D01*
X103616777Y-52696777D01*
X103535671Y-52750970D01*
X103440001Y-52770000D01*
X102789999Y-52770000D01*
X102694329Y-52750970D01*
X102613223Y-52696777D01*
X102559030Y-52615671D01*
X102540000Y-52520001D01*
X102540000Y-51619999D01*
X102559030Y-51524329D01*
X102613223Y-51443223D01*
X102694329Y-51389030D01*
X102789999Y-51370000D01*
X103440001Y-51370000D01*
X103535671Y-51389030D01*
G37*
G04 #@! TD.AperFunction*
G04 #@! TA.AperFunction,SMDPad,CuDef*
G36*
X95425671Y-51389030D02*
G01*
X95506777Y-51443223D01*
X95560970Y-51524329D01*
X95580000Y-51619999D01*
X95580000Y-52520001D01*
X95560970Y-52615671D01*
X95506777Y-52696777D01*
X95425671Y-52750970D01*
X95330001Y-52770000D01*
X94679999Y-52770000D01*
X94584329Y-52750970D01*
X94503223Y-52696777D01*
X94449030Y-52615671D01*
X94430000Y-52520001D01*
X94430000Y-51619999D01*
X94449030Y-51524329D01*
X94503223Y-51443223D01*
X94584329Y-51389030D01*
X94679999Y-51370000D01*
X95330001Y-51370000D01*
X95425671Y-51389030D01*
G37*
G04 #@! TD.AperFunction*
G04 #@! TA.AperFunction,SMDPad,CuDef*
G36*
X93375671Y-51389030D02*
G01*
X93456777Y-51443223D01*
X93510970Y-51524329D01*
X93530000Y-51619999D01*
X93530000Y-52520001D01*
X93510970Y-52615671D01*
X93456777Y-52696777D01*
X93375671Y-52750970D01*
X93280001Y-52770000D01*
X92629999Y-52770000D01*
X92534329Y-52750970D01*
X92453223Y-52696777D01*
X92399030Y-52615671D01*
X92380000Y-52520001D01*
X92380000Y-51619999D01*
X92399030Y-51524329D01*
X92453223Y-51443223D01*
X92534329Y-51389030D01*
X92629999Y-51370000D01*
X93280001Y-51370000D01*
X93375671Y-51389030D01*
G37*
G04 #@! TD.AperFunction*
G04 #@! TA.AperFunction,SMDPad,CuDef*
G36*
X106093671Y-106634030D02*
G01*
X106174777Y-106688223D01*
X106228970Y-106769329D01*
X106248000Y-106864999D01*
X106248000Y-107765001D01*
X106228970Y-107860671D01*
X106174777Y-107941777D01*
X106093671Y-107995970D01*
X105998001Y-108015000D01*
X105347999Y-108015000D01*
X105252329Y-107995970D01*
X105171223Y-107941777D01*
X105117030Y-107860671D01*
X105098000Y-107765001D01*
X105098000Y-106864999D01*
X105117030Y-106769329D01*
X105171223Y-106688223D01*
X105252329Y-106634030D01*
X105347999Y-106615000D01*
X105998001Y-106615000D01*
X106093671Y-106634030D01*
G37*
G04 #@! TD.AperFunction*
G04 #@! TA.AperFunction,SMDPad,CuDef*
G36*
X104043671Y-106634030D02*
G01*
X104124777Y-106688223D01*
X104178970Y-106769329D01*
X104198000Y-106864999D01*
X104198000Y-107765001D01*
X104178970Y-107860671D01*
X104124777Y-107941777D01*
X104043671Y-107995970D01*
X103948001Y-108015000D01*
X103297999Y-108015000D01*
X103202329Y-107995970D01*
X103121223Y-107941777D01*
X103067030Y-107860671D01*
X103048000Y-107765001D01*
X103048000Y-106864999D01*
X103067030Y-106769329D01*
X103121223Y-106688223D01*
X103202329Y-106634030D01*
X103297999Y-106615000D01*
X103948001Y-106615000D01*
X104043671Y-106634030D01*
G37*
G04 #@! TD.AperFunction*
G04 #@! TA.AperFunction,SMDPad,CuDef*
G36*
X106093671Y-104094030D02*
G01*
X106174777Y-104148223D01*
X106228970Y-104229329D01*
X106248000Y-104324999D01*
X106248000Y-105225001D01*
X106228970Y-105320671D01*
X106174777Y-105401777D01*
X106093671Y-105455970D01*
X105998001Y-105475000D01*
X105347999Y-105475000D01*
X105252329Y-105455970D01*
X105171223Y-105401777D01*
X105117030Y-105320671D01*
X105098000Y-105225001D01*
X105098000Y-104324999D01*
X105117030Y-104229329D01*
X105171223Y-104148223D01*
X105252329Y-104094030D01*
X105347999Y-104075000D01*
X105998001Y-104075000D01*
X106093671Y-104094030D01*
G37*
G04 #@! TD.AperFunction*
G04 #@! TA.AperFunction,SMDPad,CuDef*
G36*
X104043671Y-104094030D02*
G01*
X104124777Y-104148223D01*
X104178970Y-104229329D01*
X104198000Y-104324999D01*
X104198000Y-105225001D01*
X104178970Y-105320671D01*
X104124777Y-105401777D01*
X104043671Y-105455970D01*
X103948001Y-105475000D01*
X103297999Y-105475000D01*
X103202329Y-105455970D01*
X103121223Y-105401777D01*
X103067030Y-105320671D01*
X103048000Y-105225001D01*
X103048000Y-104324999D01*
X103067030Y-104229329D01*
X103121223Y-104148223D01*
X103202329Y-104094030D01*
X103297999Y-104075000D01*
X103948001Y-104075000D01*
X104043671Y-104094030D01*
G37*
G04 #@! TD.AperFunction*
G04 #@! TA.AperFunction,SMDPad,CuDef*
G36*
X106093671Y-101554030D02*
G01*
X106174777Y-101608223D01*
X106228970Y-101689329D01*
X106248000Y-101784999D01*
X106248000Y-102685001D01*
X106228970Y-102780671D01*
X106174777Y-102861777D01*
X106093671Y-102915970D01*
X105998001Y-102935000D01*
X105347999Y-102935000D01*
X105252329Y-102915970D01*
X105171223Y-102861777D01*
X105117030Y-102780671D01*
X105098000Y-102685001D01*
X105098000Y-101784999D01*
X105117030Y-101689329D01*
X105171223Y-101608223D01*
X105252329Y-101554030D01*
X105347999Y-101535000D01*
X105998001Y-101535000D01*
X106093671Y-101554030D01*
G37*
G04 #@! TD.AperFunction*
G04 #@! TA.AperFunction,SMDPad,CuDef*
G36*
X104043671Y-101554030D02*
G01*
X104124777Y-101608223D01*
X104178970Y-101689329D01*
X104198000Y-101784999D01*
X104198000Y-102685001D01*
X104178970Y-102780671D01*
X104124777Y-102861777D01*
X104043671Y-102915970D01*
X103948001Y-102935000D01*
X103297999Y-102935000D01*
X103202329Y-102915970D01*
X103121223Y-102861777D01*
X103067030Y-102780671D01*
X103048000Y-102685001D01*
X103048000Y-101784999D01*
X103067030Y-101689329D01*
X103121223Y-101608223D01*
X103202329Y-101554030D01*
X103297999Y-101535000D01*
X103948001Y-101535000D01*
X104043671Y-101554030D01*
G37*
G04 #@! TD.AperFunction*
G04 #@! TA.AperFunction,SMDPad,CuDef*
G36*
X106093671Y-99014030D02*
G01*
X106174777Y-99068223D01*
X106228970Y-99149329D01*
X106248000Y-99244999D01*
X106248000Y-100145001D01*
X106228970Y-100240671D01*
X106174777Y-100321777D01*
X106093671Y-100375970D01*
X105998001Y-100395000D01*
X105347999Y-100395000D01*
X105252329Y-100375970D01*
X105171223Y-100321777D01*
X105117030Y-100240671D01*
X105098000Y-100145001D01*
X105098000Y-99244999D01*
X105117030Y-99149329D01*
X105171223Y-99068223D01*
X105252329Y-99014030D01*
X105347999Y-98995000D01*
X105998001Y-98995000D01*
X106093671Y-99014030D01*
G37*
G04 #@! TD.AperFunction*
G04 #@! TA.AperFunction,SMDPad,CuDef*
G36*
X104043671Y-99014030D02*
G01*
X104124777Y-99068223D01*
X104178970Y-99149329D01*
X104198000Y-99244999D01*
X104198000Y-100145001D01*
X104178970Y-100240671D01*
X104124777Y-100321777D01*
X104043671Y-100375970D01*
X103948001Y-100395000D01*
X103297999Y-100395000D01*
X103202329Y-100375970D01*
X103121223Y-100321777D01*
X103067030Y-100240671D01*
X103048000Y-100145001D01*
X103048000Y-99244999D01*
X103067030Y-99149329D01*
X103121223Y-99068223D01*
X103202329Y-99014030D01*
X103297999Y-98995000D01*
X103948001Y-98995000D01*
X104043671Y-99014030D01*
G37*
G04 #@! TD.AperFunction*
G04 #@! TA.AperFunction,SMDPad,CuDef*
G36*
X106093671Y-109174030D02*
G01*
X106174777Y-109228223D01*
X106228970Y-109309329D01*
X106248000Y-109404999D01*
X106248000Y-110305001D01*
X106228970Y-110400671D01*
X106174777Y-110481777D01*
X106093671Y-110535970D01*
X105998001Y-110555000D01*
X105347999Y-110555000D01*
X105252329Y-110535970D01*
X105171223Y-110481777D01*
X105117030Y-110400671D01*
X105098000Y-110305001D01*
X105098000Y-109404999D01*
X105117030Y-109309329D01*
X105171223Y-109228223D01*
X105252329Y-109174030D01*
X105347999Y-109155000D01*
X105998001Y-109155000D01*
X106093671Y-109174030D01*
G37*
G04 #@! TD.AperFunction*
G04 #@! TA.AperFunction,SMDPad,CuDef*
G36*
X104043671Y-109174030D02*
G01*
X104124777Y-109228223D01*
X104178970Y-109309329D01*
X104198000Y-109404999D01*
X104198000Y-110305001D01*
X104178970Y-110400671D01*
X104124777Y-110481777D01*
X104043671Y-110535970D01*
X103948001Y-110555000D01*
X103297999Y-110555000D01*
X103202329Y-110535970D01*
X103121223Y-110481777D01*
X103067030Y-110400671D01*
X103048000Y-110305001D01*
X103048000Y-109404999D01*
X103067030Y-109309329D01*
X103121223Y-109228223D01*
X103202329Y-109174030D01*
X103297999Y-109155000D01*
X103948001Y-109155000D01*
X104043671Y-109174030D01*
G37*
G04 #@! TD.AperFunction*
G04 #@! TA.AperFunction,SMDPad,CuDef*
G36*
X94010671Y-90759030D02*
G01*
X94091777Y-90813223D01*
X94145970Y-90894329D01*
X94165000Y-90989999D01*
X94165000Y-91890001D01*
X94145970Y-91985671D01*
X94091777Y-92066777D01*
X94010671Y-92120970D01*
X93915001Y-92140000D01*
X93264999Y-92140000D01*
X93169329Y-92120970D01*
X93088223Y-92066777D01*
X93034030Y-91985671D01*
X93015000Y-91890001D01*
X93015000Y-90989999D01*
X93034030Y-90894329D01*
X93088223Y-90813223D01*
X93169329Y-90759030D01*
X93264999Y-90740000D01*
X93915001Y-90740000D01*
X94010671Y-90759030D01*
G37*
G04 #@! TD.AperFunction*
G04 #@! TA.AperFunction,SMDPad,CuDef*
G36*
X96060671Y-90759030D02*
G01*
X96141777Y-90813223D01*
X96195970Y-90894329D01*
X96215000Y-90989999D01*
X96215000Y-91890001D01*
X96195970Y-91985671D01*
X96141777Y-92066777D01*
X96060671Y-92120970D01*
X95965001Y-92140000D01*
X95314999Y-92140000D01*
X95219329Y-92120970D01*
X95138223Y-92066777D01*
X95084030Y-91985671D01*
X95065000Y-91890001D01*
X95065000Y-90989999D01*
X95084030Y-90894329D01*
X95138223Y-90813223D01*
X95219329Y-90759030D01*
X95314999Y-90740000D01*
X95965001Y-90740000D01*
X96060671Y-90759030D01*
G37*
G04 #@! TD.AperFunction*
G04 #@! TA.AperFunction,SMDPad,CuDef*
G36*
X94010671Y-81869030D02*
G01*
X94091777Y-81923223D01*
X94145970Y-82004329D01*
X94165000Y-82099999D01*
X94165000Y-83000001D01*
X94145970Y-83095671D01*
X94091777Y-83176777D01*
X94010671Y-83230970D01*
X93915001Y-83250000D01*
X93264999Y-83250000D01*
X93169329Y-83230970D01*
X93088223Y-83176777D01*
X93034030Y-83095671D01*
X93015000Y-83000001D01*
X93015000Y-82099999D01*
X93034030Y-82004329D01*
X93088223Y-81923223D01*
X93169329Y-81869030D01*
X93264999Y-81850000D01*
X93915001Y-81850000D01*
X94010671Y-81869030D01*
G37*
G04 #@! TD.AperFunction*
G04 #@! TA.AperFunction,SMDPad,CuDef*
G36*
X96060671Y-81869030D02*
G01*
X96141777Y-81923223D01*
X96195970Y-82004329D01*
X96215000Y-82099999D01*
X96215000Y-83000001D01*
X96195970Y-83095671D01*
X96141777Y-83176777D01*
X96060671Y-83230970D01*
X95965001Y-83250000D01*
X95314999Y-83250000D01*
X95219329Y-83230970D01*
X95138223Y-83176777D01*
X95084030Y-83095671D01*
X95065000Y-83000001D01*
X95065000Y-82099999D01*
X95084030Y-82004329D01*
X95138223Y-81923223D01*
X95219329Y-81869030D01*
X95314999Y-81850000D01*
X95965001Y-81850000D01*
X96060671Y-81869030D01*
G37*
G04 #@! TD.AperFunction*
G04 #@! TA.AperFunction,SMDPad,CuDef*
G36*
X94010671Y-85044030D02*
G01*
X94091777Y-85098223D01*
X94145970Y-85179329D01*
X94165000Y-85274999D01*
X94165000Y-86175001D01*
X94145970Y-86270671D01*
X94091777Y-86351777D01*
X94010671Y-86405970D01*
X93915001Y-86425000D01*
X93264999Y-86425000D01*
X93169329Y-86405970D01*
X93088223Y-86351777D01*
X93034030Y-86270671D01*
X93015000Y-86175001D01*
X93015000Y-85274999D01*
X93034030Y-85179329D01*
X93088223Y-85098223D01*
X93169329Y-85044030D01*
X93264999Y-85025000D01*
X93915001Y-85025000D01*
X94010671Y-85044030D01*
G37*
G04 #@! TD.AperFunction*
G04 #@! TA.AperFunction,SMDPad,CuDef*
G36*
X96060671Y-85044030D02*
G01*
X96141777Y-85098223D01*
X96195970Y-85179329D01*
X96215000Y-85274999D01*
X96215000Y-86175001D01*
X96195970Y-86270671D01*
X96141777Y-86351777D01*
X96060671Y-86405970D01*
X95965001Y-86425000D01*
X95314999Y-86425000D01*
X95219329Y-86405970D01*
X95138223Y-86351777D01*
X95084030Y-86270671D01*
X95065000Y-86175001D01*
X95065000Y-85274999D01*
X95084030Y-85179329D01*
X95138223Y-85098223D01*
X95219329Y-85044030D01*
X95314999Y-85025000D01*
X95965001Y-85025000D01*
X96060671Y-85044030D01*
G37*
G04 #@! TD.AperFunction*
G04 #@! TA.AperFunction,SMDPad,CuDef*
G36*
X94010671Y-87584030D02*
G01*
X94091777Y-87638223D01*
X94145970Y-87719329D01*
X94165000Y-87814999D01*
X94165000Y-88715001D01*
X94145970Y-88810671D01*
X94091777Y-88891777D01*
X94010671Y-88945970D01*
X93915001Y-88965000D01*
X93264999Y-88965000D01*
X93169329Y-88945970D01*
X93088223Y-88891777D01*
X93034030Y-88810671D01*
X93015000Y-88715001D01*
X93015000Y-87814999D01*
X93034030Y-87719329D01*
X93088223Y-87638223D01*
X93169329Y-87584030D01*
X93264999Y-87565000D01*
X93915001Y-87565000D01*
X94010671Y-87584030D01*
G37*
G04 #@! TD.AperFunction*
G04 #@! TA.AperFunction,SMDPad,CuDef*
G36*
X96060671Y-87584030D02*
G01*
X96141777Y-87638223D01*
X96195970Y-87719329D01*
X96215000Y-87814999D01*
X96215000Y-88715001D01*
X96195970Y-88810671D01*
X96141777Y-88891777D01*
X96060671Y-88945970D01*
X95965001Y-88965000D01*
X95314999Y-88965000D01*
X95219329Y-88945970D01*
X95138223Y-88891777D01*
X95084030Y-88810671D01*
X95065000Y-88715001D01*
X95065000Y-87814999D01*
X95084030Y-87719329D01*
X95138223Y-87638223D01*
X95219329Y-87584030D01*
X95314999Y-87565000D01*
X95965001Y-87565000D01*
X96060671Y-87584030D01*
G37*
G04 #@! TD.AperFunction*
G04 #@! TA.AperFunction,SMDPad,CuDef*
G36*
X94010671Y-78694030D02*
G01*
X94091777Y-78748223D01*
X94145970Y-78829329D01*
X94165000Y-78924999D01*
X94165000Y-79825001D01*
X94145970Y-79920671D01*
X94091777Y-80001777D01*
X94010671Y-80055970D01*
X93915001Y-80075000D01*
X93264999Y-80075000D01*
X93169329Y-80055970D01*
X93088223Y-80001777D01*
X93034030Y-79920671D01*
X93015000Y-79825001D01*
X93015000Y-78924999D01*
X93034030Y-78829329D01*
X93088223Y-78748223D01*
X93169329Y-78694030D01*
X93264999Y-78675000D01*
X93915001Y-78675000D01*
X94010671Y-78694030D01*
G37*
G04 #@! TD.AperFunction*
G04 #@! TA.AperFunction,SMDPad,CuDef*
G36*
X96060671Y-78694030D02*
G01*
X96141777Y-78748223D01*
X96195970Y-78829329D01*
X96215000Y-78924999D01*
X96215000Y-79825001D01*
X96195970Y-79920671D01*
X96141777Y-80001777D01*
X96060671Y-80055970D01*
X95965001Y-80075000D01*
X95314999Y-80075000D01*
X95219329Y-80055970D01*
X95138223Y-80001777D01*
X95084030Y-79920671D01*
X95065000Y-79825001D01*
X95065000Y-78924999D01*
X95084030Y-78829329D01*
X95138223Y-78748223D01*
X95219329Y-78694030D01*
X95314999Y-78675000D01*
X95965001Y-78675000D01*
X96060671Y-78694030D01*
G37*
G04 #@! TD.AperFunction*
D14*
X116205000Y-107315000D03*
X108585000Y-125095000D03*
X116205000Y-109855000D03*
X108585000Y-122555000D03*
X116205000Y-112395000D03*
X108585000Y-120015000D03*
X116205000Y-114935000D03*
X108585000Y-117475000D03*
X116205000Y-117475000D03*
X108585000Y-114935000D03*
X116205000Y-120015000D03*
X108585000Y-112395000D03*
X116205000Y-122555000D03*
X108585000Y-109855000D03*
X116205000Y-125095000D03*
D15*
X108585000Y-107315000D03*
D14*
X116205000Y-48895000D03*
X108585000Y-66675000D03*
X116205000Y-51435000D03*
X108585000Y-64135000D03*
X116205000Y-53975000D03*
X108585000Y-61595000D03*
X116205000Y-56515000D03*
X108585000Y-59055000D03*
X116205000Y-59055000D03*
X108585000Y-56515000D03*
X116205000Y-61595000D03*
X108585000Y-53975000D03*
X116205000Y-64135000D03*
X108585000Y-51435000D03*
X116205000Y-66675000D03*
D15*
X108585000Y-48895000D03*
D16*
X97790000Y-62670000D03*
D17*
X100070000Y-68970000D03*
X95510000Y-68970000D03*
D14*
X116205000Y-76835000D03*
X108585000Y-97155000D03*
X116205000Y-79375000D03*
X108585000Y-94615000D03*
X116205000Y-81915000D03*
X108585000Y-92075000D03*
X116205000Y-84455000D03*
X108585000Y-89535000D03*
X116205000Y-86995000D03*
X108585000Y-86995000D03*
X116205000Y-89535000D03*
X108585000Y-84455000D03*
X116205000Y-92075000D03*
X108585000Y-81915000D03*
X116205000Y-94615000D03*
X108585000Y-79375000D03*
X116205000Y-97155000D03*
D15*
X108585000Y-76835000D03*
G04 #@! TA.AperFunction,SMDPad,CuDef*
G36*
X125760671Y-78694030D02*
G01*
X125841777Y-78748223D01*
X125895970Y-78829329D01*
X125915000Y-78924999D01*
X125915000Y-79825001D01*
X125895970Y-79920671D01*
X125841777Y-80001777D01*
X125760671Y-80055970D01*
X125665001Y-80075000D01*
X125014999Y-80075000D01*
X124919329Y-80055970D01*
X124838223Y-80001777D01*
X124784030Y-79920671D01*
X124765000Y-79825001D01*
X124765000Y-78924999D01*
X124784030Y-78829329D01*
X124838223Y-78748223D01*
X124919329Y-78694030D01*
X125014999Y-78675000D01*
X125665001Y-78675000D01*
X125760671Y-78694030D01*
G37*
G04 #@! TD.AperFunction*
G04 #@! TA.AperFunction,SMDPad,CuDef*
G36*
X127810671Y-78694030D02*
G01*
X127891777Y-78748223D01*
X127945970Y-78829329D01*
X127965000Y-78924999D01*
X127965000Y-79825001D01*
X127945970Y-79920671D01*
X127891777Y-80001777D01*
X127810671Y-80055970D01*
X127715001Y-80075000D01*
X127064999Y-80075000D01*
X126969329Y-80055970D01*
X126888223Y-80001777D01*
X126834030Y-79920671D01*
X126815000Y-79825001D01*
X126815000Y-78924999D01*
X126834030Y-78829329D01*
X126888223Y-78748223D01*
X126969329Y-78694030D01*
X127064999Y-78675000D01*
X127715001Y-78675000D01*
X127810671Y-78694030D01*
G37*
G04 #@! TD.AperFunction*
G04 #@! TA.AperFunction,SMDPad,CuDef*
G36*
X125760671Y-73614030D02*
G01*
X125841777Y-73668223D01*
X125895970Y-73749329D01*
X125915000Y-73844999D01*
X125915000Y-74745001D01*
X125895970Y-74840671D01*
X125841777Y-74921777D01*
X125760671Y-74975970D01*
X125665001Y-74995000D01*
X125014999Y-74995000D01*
X124919329Y-74975970D01*
X124838223Y-74921777D01*
X124784030Y-74840671D01*
X124765000Y-74745001D01*
X124765000Y-73844999D01*
X124784030Y-73749329D01*
X124838223Y-73668223D01*
X124919329Y-73614030D01*
X125014999Y-73595000D01*
X125665001Y-73595000D01*
X125760671Y-73614030D01*
G37*
G04 #@! TD.AperFunction*
G04 #@! TA.AperFunction,SMDPad,CuDef*
G36*
X127810671Y-73614030D02*
G01*
X127891777Y-73668223D01*
X127945970Y-73749329D01*
X127965000Y-73844999D01*
X127965000Y-74745001D01*
X127945970Y-74840671D01*
X127891777Y-74921777D01*
X127810671Y-74975970D01*
X127715001Y-74995000D01*
X127064999Y-74995000D01*
X126969329Y-74975970D01*
X126888223Y-74921777D01*
X126834030Y-74840671D01*
X126815000Y-74745001D01*
X126815000Y-73844999D01*
X126834030Y-73749329D01*
X126888223Y-73668223D01*
X126969329Y-73614030D01*
X127064999Y-73595000D01*
X127715001Y-73595000D01*
X127810671Y-73614030D01*
G37*
G04 #@! TD.AperFunction*
G04 #@! TA.AperFunction,SMDPad,CuDef*
G36*
X125760671Y-68534030D02*
G01*
X125841777Y-68588223D01*
X125895970Y-68669329D01*
X125915000Y-68764999D01*
X125915000Y-69665001D01*
X125895970Y-69760671D01*
X125841777Y-69841777D01*
X125760671Y-69895970D01*
X125665001Y-69915000D01*
X125014999Y-69915000D01*
X124919329Y-69895970D01*
X124838223Y-69841777D01*
X124784030Y-69760671D01*
X124765000Y-69665001D01*
X124765000Y-68764999D01*
X124784030Y-68669329D01*
X124838223Y-68588223D01*
X124919329Y-68534030D01*
X125014999Y-68515000D01*
X125665001Y-68515000D01*
X125760671Y-68534030D01*
G37*
G04 #@! TD.AperFunction*
G04 #@! TA.AperFunction,SMDPad,CuDef*
G36*
X127810671Y-68534030D02*
G01*
X127891777Y-68588223D01*
X127945970Y-68669329D01*
X127965000Y-68764999D01*
X127965000Y-69665001D01*
X127945970Y-69760671D01*
X127891777Y-69841777D01*
X127810671Y-69895970D01*
X127715001Y-69915000D01*
X127064999Y-69915000D01*
X126969329Y-69895970D01*
X126888223Y-69841777D01*
X126834030Y-69760671D01*
X126815000Y-69665001D01*
X126815000Y-68764999D01*
X126834030Y-68669329D01*
X126888223Y-68588223D01*
X126969329Y-68534030D01*
X127064999Y-68515000D01*
X127715001Y-68515000D01*
X127810671Y-68534030D01*
G37*
G04 #@! TD.AperFunction*
G04 #@! TA.AperFunction,SMDPad,CuDef*
G36*
X125760671Y-63454030D02*
G01*
X125841777Y-63508223D01*
X125895970Y-63589329D01*
X125915000Y-63684999D01*
X125915000Y-64585001D01*
X125895970Y-64680671D01*
X125841777Y-64761777D01*
X125760671Y-64815970D01*
X125665001Y-64835000D01*
X125014999Y-64835000D01*
X124919329Y-64815970D01*
X124838223Y-64761777D01*
X124784030Y-64680671D01*
X124765000Y-64585001D01*
X124765000Y-63684999D01*
X124784030Y-63589329D01*
X124838223Y-63508223D01*
X124919329Y-63454030D01*
X125014999Y-63435000D01*
X125665001Y-63435000D01*
X125760671Y-63454030D01*
G37*
G04 #@! TD.AperFunction*
G04 #@! TA.AperFunction,SMDPad,CuDef*
G36*
X127810671Y-63454030D02*
G01*
X127891777Y-63508223D01*
X127945970Y-63589329D01*
X127965000Y-63684999D01*
X127965000Y-64585001D01*
X127945970Y-64680671D01*
X127891777Y-64761777D01*
X127810671Y-64815970D01*
X127715001Y-64835000D01*
X127064999Y-64835000D01*
X126969329Y-64815970D01*
X126888223Y-64761777D01*
X126834030Y-64680671D01*
X126815000Y-64585001D01*
X126815000Y-63684999D01*
X126834030Y-63589329D01*
X126888223Y-63508223D01*
X126969329Y-63454030D01*
X127064999Y-63435000D01*
X127715001Y-63435000D01*
X127810671Y-63454030D01*
G37*
G04 #@! TD.AperFunction*
G04 #@! TA.AperFunction,SMDPad,CuDef*
G36*
X125760671Y-58374030D02*
G01*
X125841777Y-58428223D01*
X125895970Y-58509329D01*
X125915000Y-58604999D01*
X125915000Y-59505001D01*
X125895970Y-59600671D01*
X125841777Y-59681777D01*
X125760671Y-59735970D01*
X125665001Y-59755000D01*
X125014999Y-59755000D01*
X124919329Y-59735970D01*
X124838223Y-59681777D01*
X124784030Y-59600671D01*
X124765000Y-59505001D01*
X124765000Y-58604999D01*
X124784030Y-58509329D01*
X124838223Y-58428223D01*
X124919329Y-58374030D01*
X125014999Y-58355000D01*
X125665001Y-58355000D01*
X125760671Y-58374030D01*
G37*
G04 #@! TD.AperFunction*
G04 #@! TA.AperFunction,SMDPad,CuDef*
G36*
X127810671Y-58374030D02*
G01*
X127891777Y-58428223D01*
X127945970Y-58509329D01*
X127965000Y-58604999D01*
X127965000Y-59505001D01*
X127945970Y-59600671D01*
X127891777Y-59681777D01*
X127810671Y-59735970D01*
X127715001Y-59755000D01*
X127064999Y-59755000D01*
X126969329Y-59735970D01*
X126888223Y-59681777D01*
X126834030Y-59600671D01*
X126815000Y-59505001D01*
X126815000Y-58604999D01*
X126834030Y-58509329D01*
X126888223Y-58428223D01*
X126969329Y-58374030D01*
X127064999Y-58355000D01*
X127715001Y-58355000D01*
X127810671Y-58374030D01*
G37*
G04 #@! TD.AperFunction*
G04 #@! TA.AperFunction,SMDPad,CuDef*
G36*
X125760671Y-53294030D02*
G01*
X125841777Y-53348223D01*
X125895970Y-53429329D01*
X125915000Y-53524999D01*
X125915000Y-54425001D01*
X125895970Y-54520671D01*
X125841777Y-54601777D01*
X125760671Y-54655970D01*
X125665001Y-54675000D01*
X125014999Y-54675000D01*
X124919329Y-54655970D01*
X124838223Y-54601777D01*
X124784030Y-54520671D01*
X124765000Y-54425001D01*
X124765000Y-53524999D01*
X124784030Y-53429329D01*
X124838223Y-53348223D01*
X124919329Y-53294030D01*
X125014999Y-53275000D01*
X125665001Y-53275000D01*
X125760671Y-53294030D01*
G37*
G04 #@! TD.AperFunction*
G04 #@! TA.AperFunction,SMDPad,CuDef*
G36*
X127810671Y-53294030D02*
G01*
X127891777Y-53348223D01*
X127945970Y-53429329D01*
X127965000Y-53524999D01*
X127965000Y-54425001D01*
X127945970Y-54520671D01*
X127891777Y-54601777D01*
X127810671Y-54655970D01*
X127715001Y-54675000D01*
X127064999Y-54675000D01*
X126969329Y-54655970D01*
X126888223Y-54601777D01*
X126834030Y-54520671D01*
X126815000Y-54425001D01*
X126815000Y-53524999D01*
X126834030Y-53429329D01*
X126888223Y-53348223D01*
X126969329Y-53294030D01*
X127064999Y-53275000D01*
X127715001Y-53275000D01*
X127810671Y-53294030D01*
G37*
G04 #@! TD.AperFunction*
G04 #@! TA.AperFunction,SMDPad,CuDef*
G36*
X125760671Y-48214030D02*
G01*
X125841777Y-48268223D01*
X125895970Y-48349329D01*
X125915000Y-48444999D01*
X125915000Y-49345001D01*
X125895970Y-49440671D01*
X125841777Y-49521777D01*
X125760671Y-49575970D01*
X125665001Y-49595000D01*
X125014999Y-49595000D01*
X124919329Y-49575970D01*
X124838223Y-49521777D01*
X124784030Y-49440671D01*
X124765000Y-49345001D01*
X124765000Y-48444999D01*
X124784030Y-48349329D01*
X124838223Y-48268223D01*
X124919329Y-48214030D01*
X125014999Y-48195000D01*
X125665001Y-48195000D01*
X125760671Y-48214030D01*
G37*
G04 #@! TD.AperFunction*
G04 #@! TA.AperFunction,SMDPad,CuDef*
G36*
X127810671Y-48214030D02*
G01*
X127891777Y-48268223D01*
X127945970Y-48349329D01*
X127965000Y-48444999D01*
X127965000Y-49345001D01*
X127945970Y-49440671D01*
X127891777Y-49521777D01*
X127810671Y-49575970D01*
X127715001Y-49595000D01*
X127064999Y-49595000D01*
X126969329Y-49575970D01*
X126888223Y-49521777D01*
X126834030Y-49440671D01*
X126815000Y-49345001D01*
X126815000Y-48444999D01*
X126834030Y-48349329D01*
X126888223Y-48268223D01*
X126969329Y-48214030D01*
X127064999Y-48195000D01*
X127715001Y-48195000D01*
X127810671Y-48214030D01*
G37*
G04 #@! TD.AperFunction*
G04 #@! TA.AperFunction,SMDPad,CuDef*
G36*
X125760671Y-43134030D02*
G01*
X125841777Y-43188223D01*
X125895970Y-43269329D01*
X125915000Y-43364999D01*
X125915000Y-44265001D01*
X125895970Y-44360671D01*
X125841777Y-44441777D01*
X125760671Y-44495970D01*
X125665001Y-44515000D01*
X125014999Y-44515000D01*
X124919329Y-44495970D01*
X124838223Y-44441777D01*
X124784030Y-44360671D01*
X124765000Y-44265001D01*
X124765000Y-43364999D01*
X124784030Y-43269329D01*
X124838223Y-43188223D01*
X124919329Y-43134030D01*
X125014999Y-43115000D01*
X125665001Y-43115000D01*
X125760671Y-43134030D01*
G37*
G04 #@! TD.AperFunction*
G04 #@! TA.AperFunction,SMDPad,CuDef*
G36*
X127810671Y-43134030D02*
G01*
X127891777Y-43188223D01*
X127945970Y-43269329D01*
X127965000Y-43364999D01*
X127965000Y-44265001D01*
X127945970Y-44360671D01*
X127891777Y-44441777D01*
X127810671Y-44495970D01*
X127715001Y-44515000D01*
X127064999Y-44515000D01*
X126969329Y-44495970D01*
X126888223Y-44441777D01*
X126834030Y-44360671D01*
X126815000Y-44265001D01*
X126815000Y-43364999D01*
X126834030Y-43269329D01*
X126888223Y-43188223D01*
X126969329Y-43134030D01*
X127064999Y-43115000D01*
X127715001Y-43115000D01*
X127810671Y-43134030D01*
G37*
G04 #@! TD.AperFunction*
G04 #@! TA.AperFunction,SMDPad,CuDef*
G36*
X125760671Y-81234030D02*
G01*
X125841777Y-81288223D01*
X125895970Y-81369329D01*
X125915000Y-81464999D01*
X125915000Y-82365001D01*
X125895970Y-82460671D01*
X125841777Y-82541777D01*
X125760671Y-82595970D01*
X125665001Y-82615000D01*
X125014999Y-82615000D01*
X124919329Y-82595970D01*
X124838223Y-82541777D01*
X124784030Y-82460671D01*
X124765000Y-82365001D01*
X124765000Y-81464999D01*
X124784030Y-81369329D01*
X124838223Y-81288223D01*
X124919329Y-81234030D01*
X125014999Y-81215000D01*
X125665001Y-81215000D01*
X125760671Y-81234030D01*
G37*
G04 #@! TD.AperFunction*
G04 #@! TA.AperFunction,SMDPad,CuDef*
G36*
X127810671Y-81234030D02*
G01*
X127891777Y-81288223D01*
X127945970Y-81369329D01*
X127965000Y-81464999D01*
X127965000Y-82365001D01*
X127945970Y-82460671D01*
X127891777Y-82541777D01*
X127810671Y-82595970D01*
X127715001Y-82615000D01*
X127064999Y-82615000D01*
X126969329Y-82595970D01*
X126888223Y-82541777D01*
X126834030Y-82460671D01*
X126815000Y-82365001D01*
X126815000Y-81464999D01*
X126834030Y-81369329D01*
X126888223Y-81288223D01*
X126969329Y-81234030D01*
X127064999Y-81215000D01*
X127715001Y-81215000D01*
X127810671Y-81234030D01*
G37*
G04 #@! TD.AperFunction*
G04 #@! TA.AperFunction,SMDPad,CuDef*
G36*
X125760671Y-76154030D02*
G01*
X125841777Y-76208223D01*
X125895970Y-76289329D01*
X125915000Y-76384999D01*
X125915000Y-77285001D01*
X125895970Y-77380671D01*
X125841777Y-77461777D01*
X125760671Y-77515970D01*
X125665001Y-77535000D01*
X125014999Y-77535000D01*
X124919329Y-77515970D01*
X124838223Y-77461777D01*
X124784030Y-77380671D01*
X124765000Y-77285001D01*
X124765000Y-76384999D01*
X124784030Y-76289329D01*
X124838223Y-76208223D01*
X124919329Y-76154030D01*
X125014999Y-76135000D01*
X125665001Y-76135000D01*
X125760671Y-76154030D01*
G37*
G04 #@! TD.AperFunction*
G04 #@! TA.AperFunction,SMDPad,CuDef*
G36*
X127810671Y-76154030D02*
G01*
X127891777Y-76208223D01*
X127945970Y-76289329D01*
X127965000Y-76384999D01*
X127965000Y-77285001D01*
X127945970Y-77380671D01*
X127891777Y-77461777D01*
X127810671Y-77515970D01*
X127715001Y-77535000D01*
X127064999Y-77535000D01*
X126969329Y-77515970D01*
X126888223Y-77461777D01*
X126834030Y-77380671D01*
X126815000Y-77285001D01*
X126815000Y-76384999D01*
X126834030Y-76289329D01*
X126888223Y-76208223D01*
X126969329Y-76154030D01*
X127064999Y-76135000D01*
X127715001Y-76135000D01*
X127810671Y-76154030D01*
G37*
G04 #@! TD.AperFunction*
G04 #@! TA.AperFunction,SMDPad,CuDef*
G36*
X125760671Y-71074030D02*
G01*
X125841777Y-71128223D01*
X125895970Y-71209329D01*
X125915000Y-71304999D01*
X125915000Y-72205001D01*
X125895970Y-72300671D01*
X125841777Y-72381777D01*
X125760671Y-72435970D01*
X125665001Y-72455000D01*
X125014999Y-72455000D01*
X124919329Y-72435970D01*
X124838223Y-72381777D01*
X124784030Y-72300671D01*
X124765000Y-72205001D01*
X124765000Y-71304999D01*
X124784030Y-71209329D01*
X124838223Y-71128223D01*
X124919329Y-71074030D01*
X125014999Y-71055000D01*
X125665001Y-71055000D01*
X125760671Y-71074030D01*
G37*
G04 #@! TD.AperFunction*
G04 #@! TA.AperFunction,SMDPad,CuDef*
G36*
X127810671Y-71074030D02*
G01*
X127891777Y-71128223D01*
X127945970Y-71209329D01*
X127965000Y-71304999D01*
X127965000Y-72205001D01*
X127945970Y-72300671D01*
X127891777Y-72381777D01*
X127810671Y-72435970D01*
X127715001Y-72455000D01*
X127064999Y-72455000D01*
X126969329Y-72435970D01*
X126888223Y-72381777D01*
X126834030Y-72300671D01*
X126815000Y-72205001D01*
X126815000Y-71304999D01*
X126834030Y-71209329D01*
X126888223Y-71128223D01*
X126969329Y-71074030D01*
X127064999Y-71055000D01*
X127715001Y-71055000D01*
X127810671Y-71074030D01*
G37*
G04 #@! TD.AperFunction*
G04 #@! TA.AperFunction,SMDPad,CuDef*
G36*
X125760671Y-65994030D02*
G01*
X125841777Y-66048223D01*
X125895970Y-66129329D01*
X125915000Y-66224999D01*
X125915000Y-67125001D01*
X125895970Y-67220671D01*
X125841777Y-67301777D01*
X125760671Y-67355970D01*
X125665001Y-67375000D01*
X125014999Y-67375000D01*
X124919329Y-67355970D01*
X124838223Y-67301777D01*
X124784030Y-67220671D01*
X124765000Y-67125001D01*
X124765000Y-66224999D01*
X124784030Y-66129329D01*
X124838223Y-66048223D01*
X124919329Y-65994030D01*
X125014999Y-65975000D01*
X125665001Y-65975000D01*
X125760671Y-65994030D01*
G37*
G04 #@! TD.AperFunction*
G04 #@! TA.AperFunction,SMDPad,CuDef*
G36*
X127810671Y-65994030D02*
G01*
X127891777Y-66048223D01*
X127945970Y-66129329D01*
X127965000Y-66224999D01*
X127965000Y-67125001D01*
X127945970Y-67220671D01*
X127891777Y-67301777D01*
X127810671Y-67355970D01*
X127715001Y-67375000D01*
X127064999Y-67375000D01*
X126969329Y-67355970D01*
X126888223Y-67301777D01*
X126834030Y-67220671D01*
X126815000Y-67125001D01*
X126815000Y-66224999D01*
X126834030Y-66129329D01*
X126888223Y-66048223D01*
X126969329Y-65994030D01*
X127064999Y-65975000D01*
X127715001Y-65975000D01*
X127810671Y-65994030D01*
G37*
G04 #@! TD.AperFunction*
G04 #@! TA.AperFunction,SMDPad,CuDef*
G36*
X125760671Y-60914030D02*
G01*
X125841777Y-60968223D01*
X125895970Y-61049329D01*
X125915000Y-61144999D01*
X125915000Y-62045001D01*
X125895970Y-62140671D01*
X125841777Y-62221777D01*
X125760671Y-62275970D01*
X125665001Y-62295000D01*
X125014999Y-62295000D01*
X124919329Y-62275970D01*
X124838223Y-62221777D01*
X124784030Y-62140671D01*
X124765000Y-62045001D01*
X124765000Y-61144999D01*
X124784030Y-61049329D01*
X124838223Y-60968223D01*
X124919329Y-60914030D01*
X125014999Y-60895000D01*
X125665001Y-60895000D01*
X125760671Y-60914030D01*
G37*
G04 #@! TD.AperFunction*
G04 #@! TA.AperFunction,SMDPad,CuDef*
G36*
X127810671Y-60914030D02*
G01*
X127891777Y-60968223D01*
X127945970Y-61049329D01*
X127965000Y-61144999D01*
X127965000Y-62045001D01*
X127945970Y-62140671D01*
X127891777Y-62221777D01*
X127810671Y-62275970D01*
X127715001Y-62295000D01*
X127064999Y-62295000D01*
X126969329Y-62275970D01*
X126888223Y-62221777D01*
X126834030Y-62140671D01*
X126815000Y-62045001D01*
X126815000Y-61144999D01*
X126834030Y-61049329D01*
X126888223Y-60968223D01*
X126969329Y-60914030D01*
X127064999Y-60895000D01*
X127715001Y-60895000D01*
X127810671Y-60914030D01*
G37*
G04 #@! TD.AperFunction*
G04 #@! TA.AperFunction,SMDPad,CuDef*
G36*
X125760671Y-55834030D02*
G01*
X125841777Y-55888223D01*
X125895970Y-55969329D01*
X125915000Y-56064999D01*
X125915000Y-56965001D01*
X125895970Y-57060671D01*
X125841777Y-57141777D01*
X125760671Y-57195970D01*
X125665001Y-57215000D01*
X125014999Y-57215000D01*
X124919329Y-57195970D01*
X124838223Y-57141777D01*
X124784030Y-57060671D01*
X124765000Y-56965001D01*
X124765000Y-56064999D01*
X124784030Y-55969329D01*
X124838223Y-55888223D01*
X124919329Y-55834030D01*
X125014999Y-55815000D01*
X125665001Y-55815000D01*
X125760671Y-55834030D01*
G37*
G04 #@! TD.AperFunction*
G04 #@! TA.AperFunction,SMDPad,CuDef*
G36*
X127810671Y-55834030D02*
G01*
X127891777Y-55888223D01*
X127945970Y-55969329D01*
X127965000Y-56064999D01*
X127965000Y-56965001D01*
X127945970Y-57060671D01*
X127891777Y-57141777D01*
X127810671Y-57195970D01*
X127715001Y-57215000D01*
X127064999Y-57215000D01*
X126969329Y-57195970D01*
X126888223Y-57141777D01*
X126834030Y-57060671D01*
X126815000Y-56965001D01*
X126815000Y-56064999D01*
X126834030Y-55969329D01*
X126888223Y-55888223D01*
X126969329Y-55834030D01*
X127064999Y-55815000D01*
X127715001Y-55815000D01*
X127810671Y-55834030D01*
G37*
G04 #@! TD.AperFunction*
G04 #@! TA.AperFunction,SMDPad,CuDef*
G36*
X125760671Y-50754030D02*
G01*
X125841777Y-50808223D01*
X125895970Y-50889329D01*
X125915000Y-50984999D01*
X125915000Y-51885001D01*
X125895970Y-51980671D01*
X125841777Y-52061777D01*
X125760671Y-52115970D01*
X125665001Y-52135000D01*
X125014999Y-52135000D01*
X124919329Y-52115970D01*
X124838223Y-52061777D01*
X124784030Y-51980671D01*
X124765000Y-51885001D01*
X124765000Y-50984999D01*
X124784030Y-50889329D01*
X124838223Y-50808223D01*
X124919329Y-50754030D01*
X125014999Y-50735000D01*
X125665001Y-50735000D01*
X125760671Y-50754030D01*
G37*
G04 #@! TD.AperFunction*
G04 #@! TA.AperFunction,SMDPad,CuDef*
G36*
X127810671Y-50754030D02*
G01*
X127891777Y-50808223D01*
X127945970Y-50889329D01*
X127965000Y-50984999D01*
X127965000Y-51885001D01*
X127945970Y-51980671D01*
X127891777Y-52061777D01*
X127810671Y-52115970D01*
X127715001Y-52135000D01*
X127064999Y-52135000D01*
X126969329Y-52115970D01*
X126888223Y-52061777D01*
X126834030Y-51980671D01*
X126815000Y-51885001D01*
X126815000Y-50984999D01*
X126834030Y-50889329D01*
X126888223Y-50808223D01*
X126969329Y-50754030D01*
X127064999Y-50735000D01*
X127715001Y-50735000D01*
X127810671Y-50754030D01*
G37*
G04 #@! TD.AperFunction*
G04 #@! TA.AperFunction,SMDPad,CuDef*
G36*
X125760671Y-45674030D02*
G01*
X125841777Y-45728223D01*
X125895970Y-45809329D01*
X125915000Y-45904999D01*
X125915000Y-46805001D01*
X125895970Y-46900671D01*
X125841777Y-46981777D01*
X125760671Y-47035970D01*
X125665001Y-47055000D01*
X125014999Y-47055000D01*
X124919329Y-47035970D01*
X124838223Y-46981777D01*
X124784030Y-46900671D01*
X124765000Y-46805001D01*
X124765000Y-45904999D01*
X124784030Y-45809329D01*
X124838223Y-45728223D01*
X124919329Y-45674030D01*
X125014999Y-45655000D01*
X125665001Y-45655000D01*
X125760671Y-45674030D01*
G37*
G04 #@! TD.AperFunction*
G04 #@! TA.AperFunction,SMDPad,CuDef*
G36*
X127810671Y-45674030D02*
G01*
X127891777Y-45728223D01*
X127945970Y-45809329D01*
X127965000Y-45904999D01*
X127965000Y-46805001D01*
X127945970Y-46900671D01*
X127891777Y-46981777D01*
X127810671Y-47035970D01*
X127715001Y-47055000D01*
X127064999Y-47055000D01*
X126969329Y-47035970D01*
X126888223Y-46981777D01*
X126834030Y-46900671D01*
X126815000Y-46805001D01*
X126815000Y-45904999D01*
X126834030Y-45809329D01*
X126888223Y-45728223D01*
X126969329Y-45674030D01*
X127064999Y-45655000D01*
X127715001Y-45655000D01*
X127810671Y-45674030D01*
G37*
G04 #@! TD.AperFunction*
G04 #@! TA.AperFunction,SMDPad,CuDef*
G36*
X140365671Y-78694030D02*
G01*
X140446777Y-78748223D01*
X140500970Y-78829329D01*
X140520000Y-78924999D01*
X140520000Y-79825001D01*
X140500970Y-79920671D01*
X140446777Y-80001777D01*
X140365671Y-80055970D01*
X140270001Y-80075000D01*
X139619999Y-80075000D01*
X139524329Y-80055970D01*
X139443223Y-80001777D01*
X139389030Y-79920671D01*
X139370000Y-79825001D01*
X139370000Y-78924999D01*
X139389030Y-78829329D01*
X139443223Y-78748223D01*
X139524329Y-78694030D01*
X139619999Y-78675000D01*
X140270001Y-78675000D01*
X140365671Y-78694030D01*
G37*
G04 #@! TD.AperFunction*
G04 #@! TA.AperFunction,SMDPad,CuDef*
G36*
X142415671Y-78694030D02*
G01*
X142496777Y-78748223D01*
X142550970Y-78829329D01*
X142570000Y-78924999D01*
X142570000Y-79825001D01*
X142550970Y-79920671D01*
X142496777Y-80001777D01*
X142415671Y-80055970D01*
X142320001Y-80075000D01*
X141669999Y-80075000D01*
X141574329Y-80055970D01*
X141493223Y-80001777D01*
X141439030Y-79920671D01*
X141420000Y-79825001D01*
X141420000Y-78924999D01*
X141439030Y-78829329D01*
X141493223Y-78748223D01*
X141574329Y-78694030D01*
X141669999Y-78675000D01*
X142320001Y-78675000D01*
X142415671Y-78694030D01*
G37*
G04 #@! TD.AperFunction*
G04 #@! TA.AperFunction,SMDPad,CuDef*
G36*
X140365671Y-73614030D02*
G01*
X140446777Y-73668223D01*
X140500970Y-73749329D01*
X140520000Y-73844999D01*
X140520000Y-74745001D01*
X140500970Y-74840671D01*
X140446777Y-74921777D01*
X140365671Y-74975970D01*
X140270001Y-74995000D01*
X139619999Y-74995000D01*
X139524329Y-74975970D01*
X139443223Y-74921777D01*
X139389030Y-74840671D01*
X139370000Y-74745001D01*
X139370000Y-73844999D01*
X139389030Y-73749329D01*
X139443223Y-73668223D01*
X139524329Y-73614030D01*
X139619999Y-73595000D01*
X140270001Y-73595000D01*
X140365671Y-73614030D01*
G37*
G04 #@! TD.AperFunction*
G04 #@! TA.AperFunction,SMDPad,CuDef*
G36*
X142415671Y-73614030D02*
G01*
X142496777Y-73668223D01*
X142550970Y-73749329D01*
X142570000Y-73844999D01*
X142570000Y-74745001D01*
X142550970Y-74840671D01*
X142496777Y-74921777D01*
X142415671Y-74975970D01*
X142320001Y-74995000D01*
X141669999Y-74995000D01*
X141574329Y-74975970D01*
X141493223Y-74921777D01*
X141439030Y-74840671D01*
X141420000Y-74745001D01*
X141420000Y-73844999D01*
X141439030Y-73749329D01*
X141493223Y-73668223D01*
X141574329Y-73614030D01*
X141669999Y-73595000D01*
X142320001Y-73595000D01*
X142415671Y-73614030D01*
G37*
G04 #@! TD.AperFunction*
G04 #@! TA.AperFunction,SMDPad,CuDef*
G36*
X140365671Y-68534030D02*
G01*
X140446777Y-68588223D01*
X140500970Y-68669329D01*
X140520000Y-68764999D01*
X140520000Y-69665001D01*
X140500970Y-69760671D01*
X140446777Y-69841777D01*
X140365671Y-69895970D01*
X140270001Y-69915000D01*
X139619999Y-69915000D01*
X139524329Y-69895970D01*
X139443223Y-69841777D01*
X139389030Y-69760671D01*
X139370000Y-69665001D01*
X139370000Y-68764999D01*
X139389030Y-68669329D01*
X139443223Y-68588223D01*
X139524329Y-68534030D01*
X139619999Y-68515000D01*
X140270001Y-68515000D01*
X140365671Y-68534030D01*
G37*
G04 #@! TD.AperFunction*
G04 #@! TA.AperFunction,SMDPad,CuDef*
G36*
X142415671Y-68534030D02*
G01*
X142496777Y-68588223D01*
X142550970Y-68669329D01*
X142570000Y-68764999D01*
X142570000Y-69665001D01*
X142550970Y-69760671D01*
X142496777Y-69841777D01*
X142415671Y-69895970D01*
X142320001Y-69915000D01*
X141669999Y-69915000D01*
X141574329Y-69895970D01*
X141493223Y-69841777D01*
X141439030Y-69760671D01*
X141420000Y-69665001D01*
X141420000Y-68764999D01*
X141439030Y-68669329D01*
X141493223Y-68588223D01*
X141574329Y-68534030D01*
X141669999Y-68515000D01*
X142320001Y-68515000D01*
X142415671Y-68534030D01*
G37*
G04 #@! TD.AperFunction*
G04 #@! TA.AperFunction,SMDPad,CuDef*
G36*
X140365671Y-63454030D02*
G01*
X140446777Y-63508223D01*
X140500970Y-63589329D01*
X140520000Y-63684999D01*
X140520000Y-64585001D01*
X140500970Y-64680671D01*
X140446777Y-64761777D01*
X140365671Y-64815970D01*
X140270001Y-64835000D01*
X139619999Y-64835000D01*
X139524329Y-64815970D01*
X139443223Y-64761777D01*
X139389030Y-64680671D01*
X139370000Y-64585001D01*
X139370000Y-63684999D01*
X139389030Y-63589329D01*
X139443223Y-63508223D01*
X139524329Y-63454030D01*
X139619999Y-63435000D01*
X140270001Y-63435000D01*
X140365671Y-63454030D01*
G37*
G04 #@! TD.AperFunction*
G04 #@! TA.AperFunction,SMDPad,CuDef*
G36*
X142415671Y-63454030D02*
G01*
X142496777Y-63508223D01*
X142550970Y-63589329D01*
X142570000Y-63684999D01*
X142570000Y-64585001D01*
X142550970Y-64680671D01*
X142496777Y-64761777D01*
X142415671Y-64815970D01*
X142320001Y-64835000D01*
X141669999Y-64835000D01*
X141574329Y-64815970D01*
X141493223Y-64761777D01*
X141439030Y-64680671D01*
X141420000Y-64585001D01*
X141420000Y-63684999D01*
X141439030Y-63589329D01*
X141493223Y-63508223D01*
X141574329Y-63454030D01*
X141669999Y-63435000D01*
X142320001Y-63435000D01*
X142415671Y-63454030D01*
G37*
G04 #@! TD.AperFunction*
G04 #@! TA.AperFunction,SMDPad,CuDef*
G36*
X140365671Y-58374030D02*
G01*
X140446777Y-58428223D01*
X140500970Y-58509329D01*
X140520000Y-58604999D01*
X140520000Y-59505001D01*
X140500970Y-59600671D01*
X140446777Y-59681777D01*
X140365671Y-59735970D01*
X140270001Y-59755000D01*
X139619999Y-59755000D01*
X139524329Y-59735970D01*
X139443223Y-59681777D01*
X139389030Y-59600671D01*
X139370000Y-59505001D01*
X139370000Y-58604999D01*
X139389030Y-58509329D01*
X139443223Y-58428223D01*
X139524329Y-58374030D01*
X139619999Y-58355000D01*
X140270001Y-58355000D01*
X140365671Y-58374030D01*
G37*
G04 #@! TD.AperFunction*
G04 #@! TA.AperFunction,SMDPad,CuDef*
G36*
X142415671Y-58374030D02*
G01*
X142496777Y-58428223D01*
X142550970Y-58509329D01*
X142570000Y-58604999D01*
X142570000Y-59505001D01*
X142550970Y-59600671D01*
X142496777Y-59681777D01*
X142415671Y-59735970D01*
X142320001Y-59755000D01*
X141669999Y-59755000D01*
X141574329Y-59735970D01*
X141493223Y-59681777D01*
X141439030Y-59600671D01*
X141420000Y-59505001D01*
X141420000Y-58604999D01*
X141439030Y-58509329D01*
X141493223Y-58428223D01*
X141574329Y-58374030D01*
X141669999Y-58355000D01*
X142320001Y-58355000D01*
X142415671Y-58374030D01*
G37*
G04 #@! TD.AperFunction*
G04 #@! TA.AperFunction,SMDPad,CuDef*
G36*
X140365671Y-53294030D02*
G01*
X140446777Y-53348223D01*
X140500970Y-53429329D01*
X140520000Y-53524999D01*
X140520000Y-54425001D01*
X140500970Y-54520671D01*
X140446777Y-54601777D01*
X140365671Y-54655970D01*
X140270001Y-54675000D01*
X139619999Y-54675000D01*
X139524329Y-54655970D01*
X139443223Y-54601777D01*
X139389030Y-54520671D01*
X139370000Y-54425001D01*
X139370000Y-53524999D01*
X139389030Y-53429329D01*
X139443223Y-53348223D01*
X139524329Y-53294030D01*
X139619999Y-53275000D01*
X140270001Y-53275000D01*
X140365671Y-53294030D01*
G37*
G04 #@! TD.AperFunction*
G04 #@! TA.AperFunction,SMDPad,CuDef*
G36*
X142415671Y-53294030D02*
G01*
X142496777Y-53348223D01*
X142550970Y-53429329D01*
X142570000Y-53524999D01*
X142570000Y-54425001D01*
X142550970Y-54520671D01*
X142496777Y-54601777D01*
X142415671Y-54655970D01*
X142320001Y-54675000D01*
X141669999Y-54675000D01*
X141574329Y-54655970D01*
X141493223Y-54601777D01*
X141439030Y-54520671D01*
X141420000Y-54425001D01*
X141420000Y-53524999D01*
X141439030Y-53429329D01*
X141493223Y-53348223D01*
X141574329Y-53294030D01*
X141669999Y-53275000D01*
X142320001Y-53275000D01*
X142415671Y-53294030D01*
G37*
G04 #@! TD.AperFunction*
G04 #@! TA.AperFunction,SMDPad,CuDef*
G36*
X140365671Y-48214030D02*
G01*
X140446777Y-48268223D01*
X140500970Y-48349329D01*
X140520000Y-48444999D01*
X140520000Y-49345001D01*
X140500970Y-49440671D01*
X140446777Y-49521777D01*
X140365671Y-49575970D01*
X140270001Y-49595000D01*
X139619999Y-49595000D01*
X139524329Y-49575970D01*
X139443223Y-49521777D01*
X139389030Y-49440671D01*
X139370000Y-49345001D01*
X139370000Y-48444999D01*
X139389030Y-48349329D01*
X139443223Y-48268223D01*
X139524329Y-48214030D01*
X139619999Y-48195000D01*
X140270001Y-48195000D01*
X140365671Y-48214030D01*
G37*
G04 #@! TD.AperFunction*
G04 #@! TA.AperFunction,SMDPad,CuDef*
G36*
X142415671Y-48214030D02*
G01*
X142496777Y-48268223D01*
X142550970Y-48349329D01*
X142570000Y-48444999D01*
X142570000Y-49345001D01*
X142550970Y-49440671D01*
X142496777Y-49521777D01*
X142415671Y-49575970D01*
X142320001Y-49595000D01*
X141669999Y-49595000D01*
X141574329Y-49575970D01*
X141493223Y-49521777D01*
X141439030Y-49440671D01*
X141420000Y-49345001D01*
X141420000Y-48444999D01*
X141439030Y-48349329D01*
X141493223Y-48268223D01*
X141574329Y-48214030D01*
X141669999Y-48195000D01*
X142320001Y-48195000D01*
X142415671Y-48214030D01*
G37*
G04 #@! TD.AperFunction*
G04 #@! TA.AperFunction,SMDPad,CuDef*
G36*
X140365671Y-43134030D02*
G01*
X140446777Y-43188223D01*
X140500970Y-43269329D01*
X140520000Y-43364999D01*
X140520000Y-44265001D01*
X140500970Y-44360671D01*
X140446777Y-44441777D01*
X140365671Y-44495970D01*
X140270001Y-44515000D01*
X139619999Y-44515000D01*
X139524329Y-44495970D01*
X139443223Y-44441777D01*
X139389030Y-44360671D01*
X139370000Y-44265001D01*
X139370000Y-43364999D01*
X139389030Y-43269329D01*
X139443223Y-43188223D01*
X139524329Y-43134030D01*
X139619999Y-43115000D01*
X140270001Y-43115000D01*
X140365671Y-43134030D01*
G37*
G04 #@! TD.AperFunction*
G04 #@! TA.AperFunction,SMDPad,CuDef*
G36*
X142415671Y-43134030D02*
G01*
X142496777Y-43188223D01*
X142550970Y-43269329D01*
X142570000Y-43364999D01*
X142570000Y-44265001D01*
X142550970Y-44360671D01*
X142496777Y-44441777D01*
X142415671Y-44495970D01*
X142320001Y-44515000D01*
X141669999Y-44515000D01*
X141574329Y-44495970D01*
X141493223Y-44441777D01*
X141439030Y-44360671D01*
X141420000Y-44265001D01*
X141420000Y-43364999D01*
X141439030Y-43269329D01*
X141493223Y-43188223D01*
X141574329Y-43134030D01*
X141669999Y-43115000D01*
X142320001Y-43115000D01*
X142415671Y-43134030D01*
G37*
G04 #@! TD.AperFunction*
G04 #@! TA.AperFunction,SMDPad,CuDef*
G36*
X125760671Y-124414030D02*
G01*
X125841777Y-124468223D01*
X125895970Y-124549329D01*
X125915000Y-124644999D01*
X125915000Y-125545001D01*
X125895970Y-125640671D01*
X125841777Y-125721777D01*
X125760671Y-125775970D01*
X125665001Y-125795000D01*
X125014999Y-125795000D01*
X124919329Y-125775970D01*
X124838223Y-125721777D01*
X124784030Y-125640671D01*
X124765000Y-125545001D01*
X124765000Y-124644999D01*
X124784030Y-124549329D01*
X124838223Y-124468223D01*
X124919329Y-124414030D01*
X125014999Y-124395000D01*
X125665001Y-124395000D01*
X125760671Y-124414030D01*
G37*
G04 #@! TD.AperFunction*
G04 #@! TA.AperFunction,SMDPad,CuDef*
G36*
X127810671Y-124414030D02*
G01*
X127891777Y-124468223D01*
X127945970Y-124549329D01*
X127965000Y-124644999D01*
X127965000Y-125545001D01*
X127945970Y-125640671D01*
X127891777Y-125721777D01*
X127810671Y-125775970D01*
X127715001Y-125795000D01*
X127064999Y-125795000D01*
X126969329Y-125775970D01*
X126888223Y-125721777D01*
X126834030Y-125640671D01*
X126815000Y-125545001D01*
X126815000Y-124644999D01*
X126834030Y-124549329D01*
X126888223Y-124468223D01*
X126969329Y-124414030D01*
X127064999Y-124395000D01*
X127715001Y-124395000D01*
X127810671Y-124414030D01*
G37*
G04 #@! TD.AperFunction*
G04 #@! TA.AperFunction,SMDPad,CuDef*
G36*
X125760671Y-119334030D02*
G01*
X125841777Y-119388223D01*
X125895970Y-119469329D01*
X125915000Y-119564999D01*
X125915000Y-120465001D01*
X125895970Y-120560671D01*
X125841777Y-120641777D01*
X125760671Y-120695970D01*
X125665001Y-120715000D01*
X125014999Y-120715000D01*
X124919329Y-120695970D01*
X124838223Y-120641777D01*
X124784030Y-120560671D01*
X124765000Y-120465001D01*
X124765000Y-119564999D01*
X124784030Y-119469329D01*
X124838223Y-119388223D01*
X124919329Y-119334030D01*
X125014999Y-119315000D01*
X125665001Y-119315000D01*
X125760671Y-119334030D01*
G37*
G04 #@! TD.AperFunction*
G04 #@! TA.AperFunction,SMDPad,CuDef*
G36*
X127810671Y-119334030D02*
G01*
X127891777Y-119388223D01*
X127945970Y-119469329D01*
X127965000Y-119564999D01*
X127965000Y-120465001D01*
X127945970Y-120560671D01*
X127891777Y-120641777D01*
X127810671Y-120695970D01*
X127715001Y-120715000D01*
X127064999Y-120715000D01*
X126969329Y-120695970D01*
X126888223Y-120641777D01*
X126834030Y-120560671D01*
X126815000Y-120465001D01*
X126815000Y-119564999D01*
X126834030Y-119469329D01*
X126888223Y-119388223D01*
X126969329Y-119334030D01*
X127064999Y-119315000D01*
X127715001Y-119315000D01*
X127810671Y-119334030D01*
G37*
G04 #@! TD.AperFunction*
G04 #@! TA.AperFunction,SMDPad,CuDef*
G36*
X125760671Y-114254030D02*
G01*
X125841777Y-114308223D01*
X125895970Y-114389329D01*
X125915000Y-114484999D01*
X125915000Y-115385001D01*
X125895970Y-115480671D01*
X125841777Y-115561777D01*
X125760671Y-115615970D01*
X125665001Y-115635000D01*
X125014999Y-115635000D01*
X124919329Y-115615970D01*
X124838223Y-115561777D01*
X124784030Y-115480671D01*
X124765000Y-115385001D01*
X124765000Y-114484999D01*
X124784030Y-114389329D01*
X124838223Y-114308223D01*
X124919329Y-114254030D01*
X125014999Y-114235000D01*
X125665001Y-114235000D01*
X125760671Y-114254030D01*
G37*
G04 #@! TD.AperFunction*
G04 #@! TA.AperFunction,SMDPad,CuDef*
G36*
X127810671Y-114254030D02*
G01*
X127891777Y-114308223D01*
X127945970Y-114389329D01*
X127965000Y-114484999D01*
X127965000Y-115385001D01*
X127945970Y-115480671D01*
X127891777Y-115561777D01*
X127810671Y-115615970D01*
X127715001Y-115635000D01*
X127064999Y-115635000D01*
X126969329Y-115615970D01*
X126888223Y-115561777D01*
X126834030Y-115480671D01*
X126815000Y-115385001D01*
X126815000Y-114484999D01*
X126834030Y-114389329D01*
X126888223Y-114308223D01*
X126969329Y-114254030D01*
X127064999Y-114235000D01*
X127715001Y-114235000D01*
X127810671Y-114254030D01*
G37*
G04 #@! TD.AperFunction*
G04 #@! TA.AperFunction,SMDPad,CuDef*
G36*
X125760671Y-109174030D02*
G01*
X125841777Y-109228223D01*
X125895970Y-109309329D01*
X125915000Y-109404999D01*
X125915000Y-110305001D01*
X125895970Y-110400671D01*
X125841777Y-110481777D01*
X125760671Y-110535970D01*
X125665001Y-110555000D01*
X125014999Y-110555000D01*
X124919329Y-110535970D01*
X124838223Y-110481777D01*
X124784030Y-110400671D01*
X124765000Y-110305001D01*
X124765000Y-109404999D01*
X124784030Y-109309329D01*
X124838223Y-109228223D01*
X124919329Y-109174030D01*
X125014999Y-109155000D01*
X125665001Y-109155000D01*
X125760671Y-109174030D01*
G37*
G04 #@! TD.AperFunction*
G04 #@! TA.AperFunction,SMDPad,CuDef*
G36*
X127810671Y-109174030D02*
G01*
X127891777Y-109228223D01*
X127945970Y-109309329D01*
X127965000Y-109404999D01*
X127965000Y-110305001D01*
X127945970Y-110400671D01*
X127891777Y-110481777D01*
X127810671Y-110535970D01*
X127715001Y-110555000D01*
X127064999Y-110555000D01*
X126969329Y-110535970D01*
X126888223Y-110481777D01*
X126834030Y-110400671D01*
X126815000Y-110305001D01*
X126815000Y-109404999D01*
X126834030Y-109309329D01*
X126888223Y-109228223D01*
X126969329Y-109174030D01*
X127064999Y-109155000D01*
X127715001Y-109155000D01*
X127810671Y-109174030D01*
G37*
G04 #@! TD.AperFunction*
G04 #@! TA.AperFunction,SMDPad,CuDef*
G36*
X125760671Y-104094030D02*
G01*
X125841777Y-104148223D01*
X125895970Y-104229329D01*
X125915000Y-104324999D01*
X125915000Y-105225001D01*
X125895970Y-105320671D01*
X125841777Y-105401777D01*
X125760671Y-105455970D01*
X125665001Y-105475000D01*
X125014999Y-105475000D01*
X124919329Y-105455970D01*
X124838223Y-105401777D01*
X124784030Y-105320671D01*
X124765000Y-105225001D01*
X124765000Y-104324999D01*
X124784030Y-104229329D01*
X124838223Y-104148223D01*
X124919329Y-104094030D01*
X125014999Y-104075000D01*
X125665001Y-104075000D01*
X125760671Y-104094030D01*
G37*
G04 #@! TD.AperFunction*
G04 #@! TA.AperFunction,SMDPad,CuDef*
G36*
X127810671Y-104094030D02*
G01*
X127891777Y-104148223D01*
X127945970Y-104229329D01*
X127965000Y-104324999D01*
X127965000Y-105225001D01*
X127945970Y-105320671D01*
X127891777Y-105401777D01*
X127810671Y-105455970D01*
X127715001Y-105475000D01*
X127064999Y-105475000D01*
X126969329Y-105455970D01*
X126888223Y-105401777D01*
X126834030Y-105320671D01*
X126815000Y-105225001D01*
X126815000Y-104324999D01*
X126834030Y-104229329D01*
X126888223Y-104148223D01*
X126969329Y-104094030D01*
X127064999Y-104075000D01*
X127715001Y-104075000D01*
X127810671Y-104094030D01*
G37*
G04 #@! TD.AperFunction*
G04 #@! TA.AperFunction,SMDPad,CuDef*
G36*
X125760671Y-99014030D02*
G01*
X125841777Y-99068223D01*
X125895970Y-99149329D01*
X125915000Y-99244999D01*
X125915000Y-100145001D01*
X125895970Y-100240671D01*
X125841777Y-100321777D01*
X125760671Y-100375970D01*
X125665001Y-100395000D01*
X125014999Y-100395000D01*
X124919329Y-100375970D01*
X124838223Y-100321777D01*
X124784030Y-100240671D01*
X124765000Y-100145001D01*
X124765000Y-99244999D01*
X124784030Y-99149329D01*
X124838223Y-99068223D01*
X124919329Y-99014030D01*
X125014999Y-98995000D01*
X125665001Y-98995000D01*
X125760671Y-99014030D01*
G37*
G04 #@! TD.AperFunction*
G04 #@! TA.AperFunction,SMDPad,CuDef*
G36*
X127810671Y-99014030D02*
G01*
X127891777Y-99068223D01*
X127945970Y-99149329D01*
X127965000Y-99244999D01*
X127965000Y-100145001D01*
X127945970Y-100240671D01*
X127891777Y-100321777D01*
X127810671Y-100375970D01*
X127715001Y-100395000D01*
X127064999Y-100395000D01*
X126969329Y-100375970D01*
X126888223Y-100321777D01*
X126834030Y-100240671D01*
X126815000Y-100145001D01*
X126815000Y-99244999D01*
X126834030Y-99149329D01*
X126888223Y-99068223D01*
X126969329Y-99014030D01*
X127064999Y-98995000D01*
X127715001Y-98995000D01*
X127810671Y-99014030D01*
G37*
G04 #@! TD.AperFunction*
G04 #@! TA.AperFunction,SMDPad,CuDef*
G36*
X125760671Y-93934030D02*
G01*
X125841777Y-93988223D01*
X125895970Y-94069329D01*
X125915000Y-94164999D01*
X125915000Y-95065001D01*
X125895970Y-95160671D01*
X125841777Y-95241777D01*
X125760671Y-95295970D01*
X125665001Y-95315000D01*
X125014999Y-95315000D01*
X124919329Y-95295970D01*
X124838223Y-95241777D01*
X124784030Y-95160671D01*
X124765000Y-95065001D01*
X124765000Y-94164999D01*
X124784030Y-94069329D01*
X124838223Y-93988223D01*
X124919329Y-93934030D01*
X125014999Y-93915000D01*
X125665001Y-93915000D01*
X125760671Y-93934030D01*
G37*
G04 #@! TD.AperFunction*
G04 #@! TA.AperFunction,SMDPad,CuDef*
G36*
X127810671Y-93934030D02*
G01*
X127891777Y-93988223D01*
X127945970Y-94069329D01*
X127965000Y-94164999D01*
X127965000Y-95065001D01*
X127945970Y-95160671D01*
X127891777Y-95241777D01*
X127810671Y-95295970D01*
X127715001Y-95315000D01*
X127064999Y-95315000D01*
X126969329Y-95295970D01*
X126888223Y-95241777D01*
X126834030Y-95160671D01*
X126815000Y-95065001D01*
X126815000Y-94164999D01*
X126834030Y-94069329D01*
X126888223Y-93988223D01*
X126969329Y-93934030D01*
X127064999Y-93915000D01*
X127715001Y-93915000D01*
X127810671Y-93934030D01*
G37*
G04 #@! TD.AperFunction*
G04 #@! TA.AperFunction,SMDPad,CuDef*
G36*
X125760671Y-88854030D02*
G01*
X125841777Y-88908223D01*
X125895970Y-88989329D01*
X125915000Y-89084999D01*
X125915000Y-89985001D01*
X125895970Y-90080671D01*
X125841777Y-90161777D01*
X125760671Y-90215970D01*
X125665001Y-90235000D01*
X125014999Y-90235000D01*
X124919329Y-90215970D01*
X124838223Y-90161777D01*
X124784030Y-90080671D01*
X124765000Y-89985001D01*
X124765000Y-89084999D01*
X124784030Y-88989329D01*
X124838223Y-88908223D01*
X124919329Y-88854030D01*
X125014999Y-88835000D01*
X125665001Y-88835000D01*
X125760671Y-88854030D01*
G37*
G04 #@! TD.AperFunction*
G04 #@! TA.AperFunction,SMDPad,CuDef*
G36*
X127810671Y-88854030D02*
G01*
X127891777Y-88908223D01*
X127945970Y-88989329D01*
X127965000Y-89084999D01*
X127965000Y-89985001D01*
X127945970Y-90080671D01*
X127891777Y-90161777D01*
X127810671Y-90215970D01*
X127715001Y-90235000D01*
X127064999Y-90235000D01*
X126969329Y-90215970D01*
X126888223Y-90161777D01*
X126834030Y-90080671D01*
X126815000Y-89985001D01*
X126815000Y-89084999D01*
X126834030Y-88989329D01*
X126888223Y-88908223D01*
X126969329Y-88854030D01*
X127064999Y-88835000D01*
X127715001Y-88835000D01*
X127810671Y-88854030D01*
G37*
G04 #@! TD.AperFunction*
G04 #@! TA.AperFunction,SMDPad,CuDef*
G36*
X125760671Y-126954030D02*
G01*
X125841777Y-127008223D01*
X125895970Y-127089329D01*
X125915000Y-127184999D01*
X125915000Y-128085001D01*
X125895970Y-128180671D01*
X125841777Y-128261777D01*
X125760671Y-128315970D01*
X125665001Y-128335000D01*
X125014999Y-128335000D01*
X124919329Y-128315970D01*
X124838223Y-128261777D01*
X124784030Y-128180671D01*
X124765000Y-128085001D01*
X124765000Y-127184999D01*
X124784030Y-127089329D01*
X124838223Y-127008223D01*
X124919329Y-126954030D01*
X125014999Y-126935000D01*
X125665001Y-126935000D01*
X125760671Y-126954030D01*
G37*
G04 #@! TD.AperFunction*
G04 #@! TA.AperFunction,SMDPad,CuDef*
G36*
X127810671Y-126954030D02*
G01*
X127891777Y-127008223D01*
X127945970Y-127089329D01*
X127965000Y-127184999D01*
X127965000Y-128085001D01*
X127945970Y-128180671D01*
X127891777Y-128261777D01*
X127810671Y-128315970D01*
X127715001Y-128335000D01*
X127064999Y-128335000D01*
X126969329Y-128315970D01*
X126888223Y-128261777D01*
X126834030Y-128180671D01*
X126815000Y-128085001D01*
X126815000Y-127184999D01*
X126834030Y-127089329D01*
X126888223Y-127008223D01*
X126969329Y-126954030D01*
X127064999Y-126935000D01*
X127715001Y-126935000D01*
X127810671Y-126954030D01*
G37*
G04 #@! TD.AperFunction*
G04 #@! TA.AperFunction,SMDPad,CuDef*
G36*
X125760671Y-121874030D02*
G01*
X125841777Y-121928223D01*
X125895970Y-122009329D01*
X125915000Y-122104999D01*
X125915000Y-123005001D01*
X125895970Y-123100671D01*
X125841777Y-123181777D01*
X125760671Y-123235970D01*
X125665001Y-123255000D01*
X125014999Y-123255000D01*
X124919329Y-123235970D01*
X124838223Y-123181777D01*
X124784030Y-123100671D01*
X124765000Y-123005001D01*
X124765000Y-122104999D01*
X124784030Y-122009329D01*
X124838223Y-121928223D01*
X124919329Y-121874030D01*
X125014999Y-121855000D01*
X125665001Y-121855000D01*
X125760671Y-121874030D01*
G37*
G04 #@! TD.AperFunction*
G04 #@! TA.AperFunction,SMDPad,CuDef*
G36*
X127810671Y-121874030D02*
G01*
X127891777Y-121928223D01*
X127945970Y-122009329D01*
X127965000Y-122104999D01*
X127965000Y-123005001D01*
X127945970Y-123100671D01*
X127891777Y-123181777D01*
X127810671Y-123235970D01*
X127715001Y-123255000D01*
X127064999Y-123255000D01*
X126969329Y-123235970D01*
X126888223Y-123181777D01*
X126834030Y-123100671D01*
X126815000Y-123005001D01*
X126815000Y-122104999D01*
X126834030Y-122009329D01*
X126888223Y-121928223D01*
X126969329Y-121874030D01*
X127064999Y-121855000D01*
X127715001Y-121855000D01*
X127810671Y-121874030D01*
G37*
G04 #@! TD.AperFunction*
G04 #@! TA.AperFunction,SMDPad,CuDef*
G36*
X125760671Y-116794030D02*
G01*
X125841777Y-116848223D01*
X125895970Y-116929329D01*
X125915000Y-117024999D01*
X125915000Y-117925001D01*
X125895970Y-118020671D01*
X125841777Y-118101777D01*
X125760671Y-118155970D01*
X125665001Y-118175000D01*
X125014999Y-118175000D01*
X124919329Y-118155970D01*
X124838223Y-118101777D01*
X124784030Y-118020671D01*
X124765000Y-117925001D01*
X124765000Y-117024999D01*
X124784030Y-116929329D01*
X124838223Y-116848223D01*
X124919329Y-116794030D01*
X125014999Y-116775000D01*
X125665001Y-116775000D01*
X125760671Y-116794030D01*
G37*
G04 #@! TD.AperFunction*
G04 #@! TA.AperFunction,SMDPad,CuDef*
G36*
X127810671Y-116794030D02*
G01*
X127891777Y-116848223D01*
X127945970Y-116929329D01*
X127965000Y-117024999D01*
X127965000Y-117925001D01*
X127945970Y-118020671D01*
X127891777Y-118101777D01*
X127810671Y-118155970D01*
X127715001Y-118175000D01*
X127064999Y-118175000D01*
X126969329Y-118155970D01*
X126888223Y-118101777D01*
X126834030Y-118020671D01*
X126815000Y-117925001D01*
X126815000Y-117024999D01*
X126834030Y-116929329D01*
X126888223Y-116848223D01*
X126969329Y-116794030D01*
X127064999Y-116775000D01*
X127715001Y-116775000D01*
X127810671Y-116794030D01*
G37*
G04 #@! TD.AperFunction*
G04 #@! TA.AperFunction,SMDPad,CuDef*
G36*
X125760671Y-111714030D02*
G01*
X125841777Y-111768223D01*
X125895970Y-111849329D01*
X125915000Y-111944999D01*
X125915000Y-112845001D01*
X125895970Y-112940671D01*
X125841777Y-113021777D01*
X125760671Y-113075970D01*
X125665001Y-113095000D01*
X125014999Y-113095000D01*
X124919329Y-113075970D01*
X124838223Y-113021777D01*
X124784030Y-112940671D01*
X124765000Y-112845001D01*
X124765000Y-111944999D01*
X124784030Y-111849329D01*
X124838223Y-111768223D01*
X124919329Y-111714030D01*
X125014999Y-111695000D01*
X125665001Y-111695000D01*
X125760671Y-111714030D01*
G37*
G04 #@! TD.AperFunction*
G04 #@! TA.AperFunction,SMDPad,CuDef*
G36*
X127810671Y-111714030D02*
G01*
X127891777Y-111768223D01*
X127945970Y-111849329D01*
X127965000Y-111944999D01*
X127965000Y-112845001D01*
X127945970Y-112940671D01*
X127891777Y-113021777D01*
X127810671Y-113075970D01*
X127715001Y-113095000D01*
X127064999Y-113095000D01*
X126969329Y-113075970D01*
X126888223Y-113021777D01*
X126834030Y-112940671D01*
X126815000Y-112845001D01*
X126815000Y-111944999D01*
X126834030Y-111849329D01*
X126888223Y-111768223D01*
X126969329Y-111714030D01*
X127064999Y-111695000D01*
X127715001Y-111695000D01*
X127810671Y-111714030D01*
G37*
G04 #@! TD.AperFunction*
G04 #@! TA.AperFunction,SMDPad,CuDef*
G36*
X125760671Y-106634030D02*
G01*
X125841777Y-106688223D01*
X125895970Y-106769329D01*
X125915000Y-106864999D01*
X125915000Y-107765001D01*
X125895970Y-107860671D01*
X125841777Y-107941777D01*
X125760671Y-107995970D01*
X125665001Y-108015000D01*
X125014999Y-108015000D01*
X124919329Y-107995970D01*
X124838223Y-107941777D01*
X124784030Y-107860671D01*
X124765000Y-107765001D01*
X124765000Y-106864999D01*
X124784030Y-106769329D01*
X124838223Y-106688223D01*
X124919329Y-106634030D01*
X125014999Y-106615000D01*
X125665001Y-106615000D01*
X125760671Y-106634030D01*
G37*
G04 #@! TD.AperFunction*
G04 #@! TA.AperFunction,SMDPad,CuDef*
G36*
X127810671Y-106634030D02*
G01*
X127891777Y-106688223D01*
X127945970Y-106769329D01*
X127965000Y-106864999D01*
X127965000Y-107765001D01*
X127945970Y-107860671D01*
X127891777Y-107941777D01*
X127810671Y-107995970D01*
X127715001Y-108015000D01*
X127064999Y-108015000D01*
X126969329Y-107995970D01*
X126888223Y-107941777D01*
X126834030Y-107860671D01*
X126815000Y-107765001D01*
X126815000Y-106864999D01*
X126834030Y-106769329D01*
X126888223Y-106688223D01*
X126969329Y-106634030D01*
X127064999Y-106615000D01*
X127715001Y-106615000D01*
X127810671Y-106634030D01*
G37*
G04 #@! TD.AperFunction*
G04 #@! TA.AperFunction,SMDPad,CuDef*
G36*
X125760671Y-101554030D02*
G01*
X125841777Y-101608223D01*
X125895970Y-101689329D01*
X125915000Y-101784999D01*
X125915000Y-102685001D01*
X125895970Y-102780671D01*
X125841777Y-102861777D01*
X125760671Y-102915970D01*
X125665001Y-102935000D01*
X125014999Y-102935000D01*
X124919329Y-102915970D01*
X124838223Y-102861777D01*
X124784030Y-102780671D01*
X124765000Y-102685001D01*
X124765000Y-101784999D01*
X124784030Y-101689329D01*
X124838223Y-101608223D01*
X124919329Y-101554030D01*
X125014999Y-101535000D01*
X125665001Y-101535000D01*
X125760671Y-101554030D01*
G37*
G04 #@! TD.AperFunction*
G04 #@! TA.AperFunction,SMDPad,CuDef*
G36*
X127810671Y-101554030D02*
G01*
X127891777Y-101608223D01*
X127945970Y-101689329D01*
X127965000Y-101784999D01*
X127965000Y-102685001D01*
X127945970Y-102780671D01*
X127891777Y-102861777D01*
X127810671Y-102915970D01*
X127715001Y-102935000D01*
X127064999Y-102935000D01*
X126969329Y-102915970D01*
X126888223Y-102861777D01*
X126834030Y-102780671D01*
X126815000Y-102685001D01*
X126815000Y-101784999D01*
X126834030Y-101689329D01*
X126888223Y-101608223D01*
X126969329Y-101554030D01*
X127064999Y-101535000D01*
X127715001Y-101535000D01*
X127810671Y-101554030D01*
G37*
G04 #@! TD.AperFunction*
G04 #@! TA.AperFunction,SMDPad,CuDef*
G36*
X125760671Y-96474030D02*
G01*
X125841777Y-96528223D01*
X125895970Y-96609329D01*
X125915000Y-96704999D01*
X125915000Y-97605001D01*
X125895970Y-97700671D01*
X125841777Y-97781777D01*
X125760671Y-97835970D01*
X125665001Y-97855000D01*
X125014999Y-97855000D01*
X124919329Y-97835970D01*
X124838223Y-97781777D01*
X124784030Y-97700671D01*
X124765000Y-97605001D01*
X124765000Y-96704999D01*
X124784030Y-96609329D01*
X124838223Y-96528223D01*
X124919329Y-96474030D01*
X125014999Y-96455000D01*
X125665001Y-96455000D01*
X125760671Y-96474030D01*
G37*
G04 #@! TD.AperFunction*
G04 #@! TA.AperFunction,SMDPad,CuDef*
G36*
X127810671Y-96474030D02*
G01*
X127891777Y-96528223D01*
X127945970Y-96609329D01*
X127965000Y-96704999D01*
X127965000Y-97605001D01*
X127945970Y-97700671D01*
X127891777Y-97781777D01*
X127810671Y-97835970D01*
X127715001Y-97855000D01*
X127064999Y-97855000D01*
X126969329Y-97835970D01*
X126888223Y-97781777D01*
X126834030Y-97700671D01*
X126815000Y-97605001D01*
X126815000Y-96704999D01*
X126834030Y-96609329D01*
X126888223Y-96528223D01*
X126969329Y-96474030D01*
X127064999Y-96455000D01*
X127715001Y-96455000D01*
X127810671Y-96474030D01*
G37*
G04 #@! TD.AperFunction*
G04 #@! TA.AperFunction,SMDPad,CuDef*
G36*
X125760671Y-91394030D02*
G01*
X125841777Y-91448223D01*
X125895970Y-91529329D01*
X125915000Y-91624999D01*
X125915000Y-92525001D01*
X125895970Y-92620671D01*
X125841777Y-92701777D01*
X125760671Y-92755970D01*
X125665001Y-92775000D01*
X125014999Y-92775000D01*
X124919329Y-92755970D01*
X124838223Y-92701777D01*
X124784030Y-92620671D01*
X124765000Y-92525001D01*
X124765000Y-91624999D01*
X124784030Y-91529329D01*
X124838223Y-91448223D01*
X124919329Y-91394030D01*
X125014999Y-91375000D01*
X125665001Y-91375000D01*
X125760671Y-91394030D01*
G37*
G04 #@! TD.AperFunction*
G04 #@! TA.AperFunction,SMDPad,CuDef*
G36*
X127810671Y-91394030D02*
G01*
X127891777Y-91448223D01*
X127945970Y-91529329D01*
X127965000Y-91624999D01*
X127965000Y-92525001D01*
X127945970Y-92620671D01*
X127891777Y-92701777D01*
X127810671Y-92755970D01*
X127715001Y-92775000D01*
X127064999Y-92775000D01*
X126969329Y-92755970D01*
X126888223Y-92701777D01*
X126834030Y-92620671D01*
X126815000Y-92525001D01*
X126815000Y-91624999D01*
X126834030Y-91529329D01*
X126888223Y-91448223D01*
X126969329Y-91394030D01*
X127064999Y-91375000D01*
X127715001Y-91375000D01*
X127810671Y-91394030D01*
G37*
G04 #@! TD.AperFunction*
G04 #@! TA.AperFunction,SMDPad,CuDef*
G36*
X140365671Y-124414030D02*
G01*
X140446777Y-124468223D01*
X140500970Y-124549329D01*
X140520000Y-124644999D01*
X140520000Y-125545001D01*
X140500970Y-125640671D01*
X140446777Y-125721777D01*
X140365671Y-125775970D01*
X140270001Y-125795000D01*
X139619999Y-125795000D01*
X139524329Y-125775970D01*
X139443223Y-125721777D01*
X139389030Y-125640671D01*
X139370000Y-125545001D01*
X139370000Y-124644999D01*
X139389030Y-124549329D01*
X139443223Y-124468223D01*
X139524329Y-124414030D01*
X139619999Y-124395000D01*
X140270001Y-124395000D01*
X140365671Y-124414030D01*
G37*
G04 #@! TD.AperFunction*
G04 #@! TA.AperFunction,SMDPad,CuDef*
G36*
X142415671Y-124414030D02*
G01*
X142496777Y-124468223D01*
X142550970Y-124549329D01*
X142570000Y-124644999D01*
X142570000Y-125545001D01*
X142550970Y-125640671D01*
X142496777Y-125721777D01*
X142415671Y-125775970D01*
X142320001Y-125795000D01*
X141669999Y-125795000D01*
X141574329Y-125775970D01*
X141493223Y-125721777D01*
X141439030Y-125640671D01*
X141420000Y-125545001D01*
X141420000Y-124644999D01*
X141439030Y-124549329D01*
X141493223Y-124468223D01*
X141574329Y-124414030D01*
X141669999Y-124395000D01*
X142320001Y-124395000D01*
X142415671Y-124414030D01*
G37*
G04 #@! TD.AperFunction*
G04 #@! TA.AperFunction,SMDPad,CuDef*
G36*
X140365671Y-119334030D02*
G01*
X140446777Y-119388223D01*
X140500970Y-119469329D01*
X140520000Y-119564999D01*
X140520000Y-120465001D01*
X140500970Y-120560671D01*
X140446777Y-120641777D01*
X140365671Y-120695970D01*
X140270001Y-120715000D01*
X139619999Y-120715000D01*
X139524329Y-120695970D01*
X139443223Y-120641777D01*
X139389030Y-120560671D01*
X139370000Y-120465001D01*
X139370000Y-119564999D01*
X139389030Y-119469329D01*
X139443223Y-119388223D01*
X139524329Y-119334030D01*
X139619999Y-119315000D01*
X140270001Y-119315000D01*
X140365671Y-119334030D01*
G37*
G04 #@! TD.AperFunction*
G04 #@! TA.AperFunction,SMDPad,CuDef*
G36*
X142415671Y-119334030D02*
G01*
X142496777Y-119388223D01*
X142550970Y-119469329D01*
X142570000Y-119564999D01*
X142570000Y-120465001D01*
X142550970Y-120560671D01*
X142496777Y-120641777D01*
X142415671Y-120695970D01*
X142320001Y-120715000D01*
X141669999Y-120715000D01*
X141574329Y-120695970D01*
X141493223Y-120641777D01*
X141439030Y-120560671D01*
X141420000Y-120465001D01*
X141420000Y-119564999D01*
X141439030Y-119469329D01*
X141493223Y-119388223D01*
X141574329Y-119334030D01*
X141669999Y-119315000D01*
X142320001Y-119315000D01*
X142415671Y-119334030D01*
G37*
G04 #@! TD.AperFunction*
G04 #@! TA.AperFunction,SMDPad,CuDef*
G36*
X140365671Y-114254030D02*
G01*
X140446777Y-114308223D01*
X140500970Y-114389329D01*
X140520000Y-114484999D01*
X140520000Y-115385001D01*
X140500970Y-115480671D01*
X140446777Y-115561777D01*
X140365671Y-115615970D01*
X140270001Y-115635000D01*
X139619999Y-115635000D01*
X139524329Y-115615970D01*
X139443223Y-115561777D01*
X139389030Y-115480671D01*
X139370000Y-115385001D01*
X139370000Y-114484999D01*
X139389030Y-114389329D01*
X139443223Y-114308223D01*
X139524329Y-114254030D01*
X139619999Y-114235000D01*
X140270001Y-114235000D01*
X140365671Y-114254030D01*
G37*
G04 #@! TD.AperFunction*
G04 #@! TA.AperFunction,SMDPad,CuDef*
G36*
X142415671Y-114254030D02*
G01*
X142496777Y-114308223D01*
X142550970Y-114389329D01*
X142570000Y-114484999D01*
X142570000Y-115385001D01*
X142550970Y-115480671D01*
X142496777Y-115561777D01*
X142415671Y-115615970D01*
X142320001Y-115635000D01*
X141669999Y-115635000D01*
X141574329Y-115615970D01*
X141493223Y-115561777D01*
X141439030Y-115480671D01*
X141420000Y-115385001D01*
X141420000Y-114484999D01*
X141439030Y-114389329D01*
X141493223Y-114308223D01*
X141574329Y-114254030D01*
X141669999Y-114235000D01*
X142320001Y-114235000D01*
X142415671Y-114254030D01*
G37*
G04 #@! TD.AperFunction*
G04 #@! TA.AperFunction,SMDPad,CuDef*
G36*
X140365671Y-109174030D02*
G01*
X140446777Y-109228223D01*
X140500970Y-109309329D01*
X140520000Y-109404999D01*
X140520000Y-110305001D01*
X140500970Y-110400671D01*
X140446777Y-110481777D01*
X140365671Y-110535970D01*
X140270001Y-110555000D01*
X139619999Y-110555000D01*
X139524329Y-110535970D01*
X139443223Y-110481777D01*
X139389030Y-110400671D01*
X139370000Y-110305001D01*
X139370000Y-109404999D01*
X139389030Y-109309329D01*
X139443223Y-109228223D01*
X139524329Y-109174030D01*
X139619999Y-109155000D01*
X140270001Y-109155000D01*
X140365671Y-109174030D01*
G37*
G04 #@! TD.AperFunction*
G04 #@! TA.AperFunction,SMDPad,CuDef*
G36*
X142415671Y-109174030D02*
G01*
X142496777Y-109228223D01*
X142550970Y-109309329D01*
X142570000Y-109404999D01*
X142570000Y-110305001D01*
X142550970Y-110400671D01*
X142496777Y-110481777D01*
X142415671Y-110535970D01*
X142320001Y-110555000D01*
X141669999Y-110555000D01*
X141574329Y-110535970D01*
X141493223Y-110481777D01*
X141439030Y-110400671D01*
X141420000Y-110305001D01*
X141420000Y-109404999D01*
X141439030Y-109309329D01*
X141493223Y-109228223D01*
X141574329Y-109174030D01*
X141669999Y-109155000D01*
X142320001Y-109155000D01*
X142415671Y-109174030D01*
G37*
G04 #@! TD.AperFunction*
G04 #@! TA.AperFunction,SMDPad,CuDef*
G36*
X140365671Y-104094030D02*
G01*
X140446777Y-104148223D01*
X140500970Y-104229329D01*
X140520000Y-104324999D01*
X140520000Y-105225001D01*
X140500970Y-105320671D01*
X140446777Y-105401777D01*
X140365671Y-105455970D01*
X140270001Y-105475000D01*
X139619999Y-105475000D01*
X139524329Y-105455970D01*
X139443223Y-105401777D01*
X139389030Y-105320671D01*
X139370000Y-105225001D01*
X139370000Y-104324999D01*
X139389030Y-104229329D01*
X139443223Y-104148223D01*
X139524329Y-104094030D01*
X139619999Y-104075000D01*
X140270001Y-104075000D01*
X140365671Y-104094030D01*
G37*
G04 #@! TD.AperFunction*
G04 #@! TA.AperFunction,SMDPad,CuDef*
G36*
X142415671Y-104094030D02*
G01*
X142496777Y-104148223D01*
X142550970Y-104229329D01*
X142570000Y-104324999D01*
X142570000Y-105225001D01*
X142550970Y-105320671D01*
X142496777Y-105401777D01*
X142415671Y-105455970D01*
X142320001Y-105475000D01*
X141669999Y-105475000D01*
X141574329Y-105455970D01*
X141493223Y-105401777D01*
X141439030Y-105320671D01*
X141420000Y-105225001D01*
X141420000Y-104324999D01*
X141439030Y-104229329D01*
X141493223Y-104148223D01*
X141574329Y-104094030D01*
X141669999Y-104075000D01*
X142320001Y-104075000D01*
X142415671Y-104094030D01*
G37*
G04 #@! TD.AperFunction*
G04 #@! TA.AperFunction,SMDPad,CuDef*
G36*
X140365671Y-99014030D02*
G01*
X140446777Y-99068223D01*
X140500970Y-99149329D01*
X140520000Y-99244999D01*
X140520000Y-100145001D01*
X140500970Y-100240671D01*
X140446777Y-100321777D01*
X140365671Y-100375970D01*
X140270001Y-100395000D01*
X139619999Y-100395000D01*
X139524329Y-100375970D01*
X139443223Y-100321777D01*
X139389030Y-100240671D01*
X139370000Y-100145001D01*
X139370000Y-99244999D01*
X139389030Y-99149329D01*
X139443223Y-99068223D01*
X139524329Y-99014030D01*
X139619999Y-98995000D01*
X140270001Y-98995000D01*
X140365671Y-99014030D01*
G37*
G04 #@! TD.AperFunction*
G04 #@! TA.AperFunction,SMDPad,CuDef*
G36*
X142415671Y-99014030D02*
G01*
X142496777Y-99068223D01*
X142550970Y-99149329D01*
X142570000Y-99244999D01*
X142570000Y-100145001D01*
X142550970Y-100240671D01*
X142496777Y-100321777D01*
X142415671Y-100375970D01*
X142320001Y-100395000D01*
X141669999Y-100395000D01*
X141574329Y-100375970D01*
X141493223Y-100321777D01*
X141439030Y-100240671D01*
X141420000Y-100145001D01*
X141420000Y-99244999D01*
X141439030Y-99149329D01*
X141493223Y-99068223D01*
X141574329Y-99014030D01*
X141669999Y-98995000D01*
X142320001Y-98995000D01*
X142415671Y-99014030D01*
G37*
G04 #@! TD.AperFunction*
G04 #@! TA.AperFunction,SMDPad,CuDef*
G36*
X140365671Y-93934030D02*
G01*
X140446777Y-93988223D01*
X140500970Y-94069329D01*
X140520000Y-94164999D01*
X140520000Y-95065001D01*
X140500970Y-95160671D01*
X140446777Y-95241777D01*
X140365671Y-95295970D01*
X140270001Y-95315000D01*
X139619999Y-95315000D01*
X139524329Y-95295970D01*
X139443223Y-95241777D01*
X139389030Y-95160671D01*
X139370000Y-95065001D01*
X139370000Y-94164999D01*
X139389030Y-94069329D01*
X139443223Y-93988223D01*
X139524329Y-93934030D01*
X139619999Y-93915000D01*
X140270001Y-93915000D01*
X140365671Y-93934030D01*
G37*
G04 #@! TD.AperFunction*
G04 #@! TA.AperFunction,SMDPad,CuDef*
G36*
X142415671Y-93934030D02*
G01*
X142496777Y-93988223D01*
X142550970Y-94069329D01*
X142570000Y-94164999D01*
X142570000Y-95065001D01*
X142550970Y-95160671D01*
X142496777Y-95241777D01*
X142415671Y-95295970D01*
X142320001Y-95315000D01*
X141669999Y-95315000D01*
X141574329Y-95295970D01*
X141493223Y-95241777D01*
X141439030Y-95160671D01*
X141420000Y-95065001D01*
X141420000Y-94164999D01*
X141439030Y-94069329D01*
X141493223Y-93988223D01*
X141574329Y-93934030D01*
X141669999Y-93915000D01*
X142320001Y-93915000D01*
X142415671Y-93934030D01*
G37*
G04 #@! TD.AperFunction*
G04 #@! TA.AperFunction,SMDPad,CuDef*
G36*
X140365671Y-88854030D02*
G01*
X140446777Y-88908223D01*
X140500970Y-88989329D01*
X140520000Y-89084999D01*
X140520000Y-89985001D01*
X140500970Y-90080671D01*
X140446777Y-90161777D01*
X140365671Y-90215970D01*
X140270001Y-90235000D01*
X139619999Y-90235000D01*
X139524329Y-90215970D01*
X139443223Y-90161777D01*
X139389030Y-90080671D01*
X139370000Y-89985001D01*
X139370000Y-89084999D01*
X139389030Y-88989329D01*
X139443223Y-88908223D01*
X139524329Y-88854030D01*
X139619999Y-88835000D01*
X140270001Y-88835000D01*
X140365671Y-88854030D01*
G37*
G04 #@! TD.AperFunction*
G04 #@! TA.AperFunction,SMDPad,CuDef*
G36*
X142415671Y-88854030D02*
G01*
X142496777Y-88908223D01*
X142550970Y-88989329D01*
X142570000Y-89084999D01*
X142570000Y-89985001D01*
X142550970Y-90080671D01*
X142496777Y-90161777D01*
X142415671Y-90215970D01*
X142320001Y-90235000D01*
X141669999Y-90235000D01*
X141574329Y-90215970D01*
X141493223Y-90161777D01*
X141439030Y-90080671D01*
X141420000Y-89985001D01*
X141420000Y-89084999D01*
X141439030Y-88989329D01*
X141493223Y-88908223D01*
X141574329Y-88854030D01*
X141669999Y-88835000D01*
X142320001Y-88835000D01*
X142415671Y-88854030D01*
G37*
G04 #@! TD.AperFunction*
G04 #@! TA.AperFunction,SMDPad,CuDef*
G36*
X100360671Y-73614030D02*
G01*
X100441777Y-73668223D01*
X100495970Y-73749329D01*
X100515000Y-73844999D01*
X100515000Y-74745001D01*
X100495970Y-74840671D01*
X100441777Y-74921777D01*
X100360671Y-74975970D01*
X100265001Y-74995000D01*
X99614999Y-74995000D01*
X99519329Y-74975970D01*
X99438223Y-74921777D01*
X99384030Y-74840671D01*
X99365000Y-74745001D01*
X99365000Y-73844999D01*
X99384030Y-73749329D01*
X99438223Y-73668223D01*
X99519329Y-73614030D01*
X99614999Y-73595000D01*
X100265001Y-73595000D01*
X100360671Y-73614030D01*
G37*
G04 #@! TD.AperFunction*
G04 #@! TA.AperFunction,SMDPad,CuDef*
G36*
X102410671Y-73614030D02*
G01*
X102491777Y-73668223D01*
X102545970Y-73749329D01*
X102565000Y-73844999D01*
X102565000Y-74745001D01*
X102545970Y-74840671D01*
X102491777Y-74921777D01*
X102410671Y-74975970D01*
X102315001Y-74995000D01*
X101664999Y-74995000D01*
X101569329Y-74975970D01*
X101488223Y-74921777D01*
X101434030Y-74840671D01*
X101415000Y-74745001D01*
X101415000Y-73844999D01*
X101434030Y-73749329D01*
X101488223Y-73668223D01*
X101569329Y-73614030D01*
X101664999Y-73595000D01*
X102315001Y-73595000D01*
X102410671Y-73614030D01*
G37*
G04 #@! TD.AperFunction*
G04 #@! TA.AperFunction,SMDPad,CuDef*
G36*
X92740671Y-109174030D02*
G01*
X92821777Y-109228223D01*
X92875970Y-109309329D01*
X92895000Y-109404999D01*
X92895000Y-110305001D01*
X92875970Y-110400671D01*
X92821777Y-110481777D01*
X92740671Y-110535970D01*
X92645001Y-110555000D01*
X91994999Y-110555000D01*
X91899329Y-110535970D01*
X91818223Y-110481777D01*
X91764030Y-110400671D01*
X91745000Y-110305001D01*
X91745000Y-109404999D01*
X91764030Y-109309329D01*
X91818223Y-109228223D01*
X91899329Y-109174030D01*
X91994999Y-109155000D01*
X92645001Y-109155000D01*
X92740671Y-109174030D01*
G37*
G04 #@! TD.AperFunction*
G04 #@! TA.AperFunction,SMDPad,CuDef*
G36*
X94790671Y-109174030D02*
G01*
X94871777Y-109228223D01*
X94925970Y-109309329D01*
X94945000Y-109404999D01*
X94945000Y-110305001D01*
X94925970Y-110400671D01*
X94871777Y-110481777D01*
X94790671Y-110535970D01*
X94695001Y-110555000D01*
X94044999Y-110555000D01*
X93949329Y-110535970D01*
X93868223Y-110481777D01*
X93814030Y-110400671D01*
X93795000Y-110305001D01*
X93795000Y-109404999D01*
X93814030Y-109309329D01*
X93868223Y-109228223D01*
X93949329Y-109174030D01*
X94044999Y-109155000D01*
X94695001Y-109155000D01*
X94790671Y-109174030D01*
G37*
G04 #@! TD.AperFunction*
G04 #@! TA.AperFunction,SMDPad,CuDef*
G36*
X92740671Y-106634030D02*
G01*
X92821777Y-106688223D01*
X92875970Y-106769329D01*
X92895000Y-106864999D01*
X92895000Y-107765001D01*
X92875970Y-107860671D01*
X92821777Y-107941777D01*
X92740671Y-107995970D01*
X92645001Y-108015000D01*
X91994999Y-108015000D01*
X91899329Y-107995970D01*
X91818223Y-107941777D01*
X91764030Y-107860671D01*
X91745000Y-107765001D01*
X91745000Y-106864999D01*
X91764030Y-106769329D01*
X91818223Y-106688223D01*
X91899329Y-106634030D01*
X91994999Y-106615000D01*
X92645001Y-106615000D01*
X92740671Y-106634030D01*
G37*
G04 #@! TD.AperFunction*
G04 #@! TA.AperFunction,SMDPad,CuDef*
G36*
X94790671Y-106634030D02*
G01*
X94871777Y-106688223D01*
X94925970Y-106769329D01*
X94945000Y-106864999D01*
X94945000Y-107765001D01*
X94925970Y-107860671D01*
X94871777Y-107941777D01*
X94790671Y-107995970D01*
X94695001Y-108015000D01*
X94044999Y-108015000D01*
X93949329Y-107995970D01*
X93868223Y-107941777D01*
X93814030Y-107860671D01*
X93795000Y-107765001D01*
X93795000Y-106864999D01*
X93814030Y-106769329D01*
X93868223Y-106688223D01*
X93949329Y-106634030D01*
X94044999Y-106615000D01*
X94695001Y-106615000D01*
X94790671Y-106634030D01*
G37*
G04 #@! TD.AperFunction*
G04 #@! TA.AperFunction,SMDPad,CuDef*
G36*
X92740671Y-104094030D02*
G01*
X92821777Y-104148223D01*
X92875970Y-104229329D01*
X92895000Y-104324999D01*
X92895000Y-105225001D01*
X92875970Y-105320671D01*
X92821777Y-105401777D01*
X92740671Y-105455970D01*
X92645001Y-105475000D01*
X91994999Y-105475000D01*
X91899329Y-105455970D01*
X91818223Y-105401777D01*
X91764030Y-105320671D01*
X91745000Y-105225001D01*
X91745000Y-104324999D01*
X91764030Y-104229329D01*
X91818223Y-104148223D01*
X91899329Y-104094030D01*
X91994999Y-104075000D01*
X92645001Y-104075000D01*
X92740671Y-104094030D01*
G37*
G04 #@! TD.AperFunction*
G04 #@! TA.AperFunction,SMDPad,CuDef*
G36*
X94790671Y-104094030D02*
G01*
X94871777Y-104148223D01*
X94925970Y-104229329D01*
X94945000Y-104324999D01*
X94945000Y-105225001D01*
X94925970Y-105320671D01*
X94871777Y-105401777D01*
X94790671Y-105455970D01*
X94695001Y-105475000D01*
X94044999Y-105475000D01*
X93949329Y-105455970D01*
X93868223Y-105401777D01*
X93814030Y-105320671D01*
X93795000Y-105225001D01*
X93795000Y-104324999D01*
X93814030Y-104229329D01*
X93868223Y-104148223D01*
X93949329Y-104094030D01*
X94044999Y-104075000D01*
X94695001Y-104075000D01*
X94790671Y-104094030D01*
G37*
G04 #@! TD.AperFunction*
G04 #@! TA.AperFunction,SMDPad,CuDef*
G36*
X92740671Y-101554030D02*
G01*
X92821777Y-101608223D01*
X92875970Y-101689329D01*
X92895000Y-101784999D01*
X92895000Y-102685001D01*
X92875970Y-102780671D01*
X92821777Y-102861777D01*
X92740671Y-102915970D01*
X92645001Y-102935000D01*
X91994999Y-102935000D01*
X91899329Y-102915970D01*
X91818223Y-102861777D01*
X91764030Y-102780671D01*
X91745000Y-102685001D01*
X91745000Y-101784999D01*
X91764030Y-101689329D01*
X91818223Y-101608223D01*
X91899329Y-101554030D01*
X91994999Y-101535000D01*
X92645001Y-101535000D01*
X92740671Y-101554030D01*
G37*
G04 #@! TD.AperFunction*
G04 #@! TA.AperFunction,SMDPad,CuDef*
G36*
X94790671Y-101554030D02*
G01*
X94871777Y-101608223D01*
X94925970Y-101689329D01*
X94945000Y-101784999D01*
X94945000Y-102685001D01*
X94925970Y-102780671D01*
X94871777Y-102861777D01*
X94790671Y-102915970D01*
X94695001Y-102935000D01*
X94044999Y-102935000D01*
X93949329Y-102915970D01*
X93868223Y-102861777D01*
X93814030Y-102780671D01*
X93795000Y-102685001D01*
X93795000Y-101784999D01*
X93814030Y-101689329D01*
X93868223Y-101608223D01*
X93949329Y-101554030D01*
X94044999Y-101535000D01*
X94695001Y-101535000D01*
X94790671Y-101554030D01*
G37*
G04 #@! TD.AperFunction*
G04 #@! TA.AperFunction,SMDPad,CuDef*
G36*
X92740671Y-99014030D02*
G01*
X92821777Y-99068223D01*
X92875970Y-99149329D01*
X92895000Y-99244999D01*
X92895000Y-100145001D01*
X92875970Y-100240671D01*
X92821777Y-100321777D01*
X92740671Y-100375970D01*
X92645001Y-100395000D01*
X91994999Y-100395000D01*
X91899329Y-100375970D01*
X91818223Y-100321777D01*
X91764030Y-100240671D01*
X91745000Y-100145001D01*
X91745000Y-99244999D01*
X91764030Y-99149329D01*
X91818223Y-99068223D01*
X91899329Y-99014030D01*
X91994999Y-98995000D01*
X92645001Y-98995000D01*
X92740671Y-99014030D01*
G37*
G04 #@! TD.AperFunction*
G04 #@! TA.AperFunction,SMDPad,CuDef*
G36*
X94790671Y-99014030D02*
G01*
X94871777Y-99068223D01*
X94925970Y-99149329D01*
X94945000Y-99244999D01*
X94945000Y-100145001D01*
X94925970Y-100240671D01*
X94871777Y-100321777D01*
X94790671Y-100375970D01*
X94695001Y-100395000D01*
X94044999Y-100395000D01*
X93949329Y-100375970D01*
X93868223Y-100321777D01*
X93814030Y-100240671D01*
X93795000Y-100145001D01*
X93795000Y-99244999D01*
X93814030Y-99149329D01*
X93868223Y-99068223D01*
X93949329Y-99014030D01*
X94044999Y-98995000D01*
X94695001Y-98995000D01*
X94790671Y-99014030D01*
G37*
G04 #@! TD.AperFunction*
G04 #@! TA.AperFunction,SMDPad,CuDef*
G36*
X137342403Y-120361418D02*
G01*
X137391066Y-120393934D01*
X137423582Y-120442597D01*
X137435000Y-120500000D01*
X137435000Y-120800000D01*
X137423582Y-120857403D01*
X137391066Y-120906066D01*
X137342403Y-120938582D01*
X137285000Y-120950000D01*
X135635000Y-120950000D01*
X135577597Y-120938582D01*
X135528934Y-120906066D01*
X135496418Y-120857403D01*
X135485000Y-120800000D01*
X135485000Y-120500000D01*
X135496418Y-120442597D01*
X135528934Y-120393934D01*
X135577597Y-120361418D01*
X135635000Y-120350000D01*
X137285000Y-120350000D01*
X137342403Y-120361418D01*
G37*
G04 #@! TD.AperFunction*
G04 #@! TA.AperFunction,SMDPad,CuDef*
G36*
X137342403Y-121631418D02*
G01*
X137391066Y-121663934D01*
X137423582Y-121712597D01*
X137435000Y-121770000D01*
X137435000Y-122070000D01*
X137423582Y-122127403D01*
X137391066Y-122176066D01*
X137342403Y-122208582D01*
X137285000Y-122220000D01*
X135635000Y-122220000D01*
X135577597Y-122208582D01*
X135528934Y-122176066D01*
X135496418Y-122127403D01*
X135485000Y-122070000D01*
X135485000Y-121770000D01*
X135496418Y-121712597D01*
X135528934Y-121663934D01*
X135577597Y-121631418D01*
X135635000Y-121620000D01*
X137285000Y-121620000D01*
X137342403Y-121631418D01*
G37*
G04 #@! TD.AperFunction*
G04 #@! TA.AperFunction,SMDPad,CuDef*
G36*
X137342403Y-122901418D02*
G01*
X137391066Y-122933934D01*
X137423582Y-122982597D01*
X137435000Y-123040000D01*
X137435000Y-123340000D01*
X137423582Y-123397403D01*
X137391066Y-123446066D01*
X137342403Y-123478582D01*
X137285000Y-123490000D01*
X135635000Y-123490000D01*
X135577597Y-123478582D01*
X135528934Y-123446066D01*
X135496418Y-123397403D01*
X135485000Y-123340000D01*
X135485000Y-123040000D01*
X135496418Y-122982597D01*
X135528934Y-122933934D01*
X135577597Y-122901418D01*
X135635000Y-122890000D01*
X137285000Y-122890000D01*
X137342403Y-122901418D01*
G37*
G04 #@! TD.AperFunction*
G04 #@! TA.AperFunction,SMDPad,CuDef*
G36*
X137342403Y-124171418D02*
G01*
X137391066Y-124203934D01*
X137423582Y-124252597D01*
X137435000Y-124310000D01*
X137435000Y-124610000D01*
X137423582Y-124667403D01*
X137391066Y-124716066D01*
X137342403Y-124748582D01*
X137285000Y-124760000D01*
X135635000Y-124760000D01*
X135577597Y-124748582D01*
X135528934Y-124716066D01*
X135496418Y-124667403D01*
X135485000Y-124610000D01*
X135485000Y-124310000D01*
X135496418Y-124252597D01*
X135528934Y-124203934D01*
X135577597Y-124171418D01*
X135635000Y-124160000D01*
X137285000Y-124160000D01*
X137342403Y-124171418D01*
G37*
G04 #@! TD.AperFunction*
G04 #@! TA.AperFunction,SMDPad,CuDef*
G36*
X132392403Y-124171418D02*
G01*
X132441066Y-124203934D01*
X132473582Y-124252597D01*
X132485000Y-124310000D01*
X132485000Y-124610000D01*
X132473582Y-124667403D01*
X132441066Y-124716066D01*
X132392403Y-124748582D01*
X132335000Y-124760000D01*
X130685000Y-124760000D01*
X130627597Y-124748582D01*
X130578934Y-124716066D01*
X130546418Y-124667403D01*
X130535000Y-124610000D01*
X130535000Y-124310000D01*
X130546418Y-124252597D01*
X130578934Y-124203934D01*
X130627597Y-124171418D01*
X130685000Y-124160000D01*
X132335000Y-124160000D01*
X132392403Y-124171418D01*
G37*
G04 #@! TD.AperFunction*
G04 #@! TA.AperFunction,SMDPad,CuDef*
G36*
X132392403Y-122901418D02*
G01*
X132441066Y-122933934D01*
X132473582Y-122982597D01*
X132485000Y-123040000D01*
X132485000Y-123340000D01*
X132473582Y-123397403D01*
X132441066Y-123446066D01*
X132392403Y-123478582D01*
X132335000Y-123490000D01*
X130685000Y-123490000D01*
X130627597Y-123478582D01*
X130578934Y-123446066D01*
X130546418Y-123397403D01*
X130535000Y-123340000D01*
X130535000Y-123040000D01*
X130546418Y-122982597D01*
X130578934Y-122933934D01*
X130627597Y-122901418D01*
X130685000Y-122890000D01*
X132335000Y-122890000D01*
X132392403Y-122901418D01*
G37*
G04 #@! TD.AperFunction*
G04 #@! TA.AperFunction,SMDPad,CuDef*
G36*
X132392403Y-121631418D02*
G01*
X132441066Y-121663934D01*
X132473582Y-121712597D01*
X132485000Y-121770000D01*
X132485000Y-122070000D01*
X132473582Y-122127403D01*
X132441066Y-122176066D01*
X132392403Y-122208582D01*
X132335000Y-122220000D01*
X130685000Y-122220000D01*
X130627597Y-122208582D01*
X130578934Y-122176066D01*
X130546418Y-122127403D01*
X130535000Y-122070000D01*
X130535000Y-121770000D01*
X130546418Y-121712597D01*
X130578934Y-121663934D01*
X130627597Y-121631418D01*
X130685000Y-121620000D01*
X132335000Y-121620000D01*
X132392403Y-121631418D01*
G37*
G04 #@! TD.AperFunction*
G04 #@! TA.AperFunction,SMDPad,CuDef*
G36*
X132392403Y-120361418D02*
G01*
X132441066Y-120393934D01*
X132473582Y-120442597D01*
X132485000Y-120500000D01*
X132485000Y-120800000D01*
X132473582Y-120857403D01*
X132441066Y-120906066D01*
X132392403Y-120938582D01*
X132335000Y-120950000D01*
X130685000Y-120950000D01*
X130627597Y-120938582D01*
X130578934Y-120906066D01*
X130546418Y-120857403D01*
X130535000Y-120800000D01*
X130535000Y-120500000D01*
X130546418Y-120442597D01*
X130578934Y-120393934D01*
X130627597Y-120361418D01*
X130685000Y-120350000D01*
X132335000Y-120350000D01*
X132392403Y-120361418D01*
G37*
G04 #@! TD.AperFunction*
G04 #@! TA.AperFunction,SMDPad,CuDef*
G36*
X137342403Y-110201418D02*
G01*
X137391066Y-110233934D01*
X137423582Y-110282597D01*
X137435000Y-110340000D01*
X137435000Y-110640000D01*
X137423582Y-110697403D01*
X137391066Y-110746066D01*
X137342403Y-110778582D01*
X137285000Y-110790000D01*
X135635000Y-110790000D01*
X135577597Y-110778582D01*
X135528934Y-110746066D01*
X135496418Y-110697403D01*
X135485000Y-110640000D01*
X135485000Y-110340000D01*
X135496418Y-110282597D01*
X135528934Y-110233934D01*
X135577597Y-110201418D01*
X135635000Y-110190000D01*
X137285000Y-110190000D01*
X137342403Y-110201418D01*
G37*
G04 #@! TD.AperFunction*
G04 #@! TA.AperFunction,SMDPad,CuDef*
G36*
X137342403Y-111471418D02*
G01*
X137391066Y-111503934D01*
X137423582Y-111552597D01*
X137435000Y-111610000D01*
X137435000Y-111910000D01*
X137423582Y-111967403D01*
X137391066Y-112016066D01*
X137342403Y-112048582D01*
X137285000Y-112060000D01*
X135635000Y-112060000D01*
X135577597Y-112048582D01*
X135528934Y-112016066D01*
X135496418Y-111967403D01*
X135485000Y-111910000D01*
X135485000Y-111610000D01*
X135496418Y-111552597D01*
X135528934Y-111503934D01*
X135577597Y-111471418D01*
X135635000Y-111460000D01*
X137285000Y-111460000D01*
X137342403Y-111471418D01*
G37*
G04 #@! TD.AperFunction*
G04 #@! TA.AperFunction,SMDPad,CuDef*
G36*
X137342403Y-112741418D02*
G01*
X137391066Y-112773934D01*
X137423582Y-112822597D01*
X137435000Y-112880000D01*
X137435000Y-113180000D01*
X137423582Y-113237403D01*
X137391066Y-113286066D01*
X137342403Y-113318582D01*
X137285000Y-113330000D01*
X135635000Y-113330000D01*
X135577597Y-113318582D01*
X135528934Y-113286066D01*
X135496418Y-113237403D01*
X135485000Y-113180000D01*
X135485000Y-112880000D01*
X135496418Y-112822597D01*
X135528934Y-112773934D01*
X135577597Y-112741418D01*
X135635000Y-112730000D01*
X137285000Y-112730000D01*
X137342403Y-112741418D01*
G37*
G04 #@! TD.AperFunction*
G04 #@! TA.AperFunction,SMDPad,CuDef*
G36*
X137342403Y-114011418D02*
G01*
X137391066Y-114043934D01*
X137423582Y-114092597D01*
X137435000Y-114150000D01*
X137435000Y-114450000D01*
X137423582Y-114507403D01*
X137391066Y-114556066D01*
X137342403Y-114588582D01*
X137285000Y-114600000D01*
X135635000Y-114600000D01*
X135577597Y-114588582D01*
X135528934Y-114556066D01*
X135496418Y-114507403D01*
X135485000Y-114450000D01*
X135485000Y-114150000D01*
X135496418Y-114092597D01*
X135528934Y-114043934D01*
X135577597Y-114011418D01*
X135635000Y-114000000D01*
X137285000Y-114000000D01*
X137342403Y-114011418D01*
G37*
G04 #@! TD.AperFunction*
G04 #@! TA.AperFunction,SMDPad,CuDef*
G36*
X132392403Y-114011418D02*
G01*
X132441066Y-114043934D01*
X132473582Y-114092597D01*
X132485000Y-114150000D01*
X132485000Y-114450000D01*
X132473582Y-114507403D01*
X132441066Y-114556066D01*
X132392403Y-114588582D01*
X132335000Y-114600000D01*
X130685000Y-114600000D01*
X130627597Y-114588582D01*
X130578934Y-114556066D01*
X130546418Y-114507403D01*
X130535000Y-114450000D01*
X130535000Y-114150000D01*
X130546418Y-114092597D01*
X130578934Y-114043934D01*
X130627597Y-114011418D01*
X130685000Y-114000000D01*
X132335000Y-114000000D01*
X132392403Y-114011418D01*
G37*
G04 #@! TD.AperFunction*
G04 #@! TA.AperFunction,SMDPad,CuDef*
G36*
X132392403Y-112741418D02*
G01*
X132441066Y-112773934D01*
X132473582Y-112822597D01*
X132485000Y-112880000D01*
X132485000Y-113180000D01*
X132473582Y-113237403D01*
X132441066Y-113286066D01*
X132392403Y-113318582D01*
X132335000Y-113330000D01*
X130685000Y-113330000D01*
X130627597Y-113318582D01*
X130578934Y-113286066D01*
X130546418Y-113237403D01*
X130535000Y-113180000D01*
X130535000Y-112880000D01*
X130546418Y-112822597D01*
X130578934Y-112773934D01*
X130627597Y-112741418D01*
X130685000Y-112730000D01*
X132335000Y-112730000D01*
X132392403Y-112741418D01*
G37*
G04 #@! TD.AperFunction*
G04 #@! TA.AperFunction,SMDPad,CuDef*
G36*
X132392403Y-111471418D02*
G01*
X132441066Y-111503934D01*
X132473582Y-111552597D01*
X132485000Y-111610000D01*
X132485000Y-111910000D01*
X132473582Y-111967403D01*
X132441066Y-112016066D01*
X132392403Y-112048582D01*
X132335000Y-112060000D01*
X130685000Y-112060000D01*
X130627597Y-112048582D01*
X130578934Y-112016066D01*
X130546418Y-111967403D01*
X130535000Y-111910000D01*
X130535000Y-111610000D01*
X130546418Y-111552597D01*
X130578934Y-111503934D01*
X130627597Y-111471418D01*
X130685000Y-111460000D01*
X132335000Y-111460000D01*
X132392403Y-111471418D01*
G37*
G04 #@! TD.AperFunction*
G04 #@! TA.AperFunction,SMDPad,CuDef*
G36*
X132392403Y-110201418D02*
G01*
X132441066Y-110233934D01*
X132473582Y-110282597D01*
X132485000Y-110340000D01*
X132485000Y-110640000D01*
X132473582Y-110697403D01*
X132441066Y-110746066D01*
X132392403Y-110778582D01*
X132335000Y-110790000D01*
X130685000Y-110790000D01*
X130627597Y-110778582D01*
X130578934Y-110746066D01*
X130546418Y-110697403D01*
X130535000Y-110640000D01*
X130535000Y-110340000D01*
X130546418Y-110282597D01*
X130578934Y-110233934D01*
X130627597Y-110201418D01*
X130685000Y-110190000D01*
X132335000Y-110190000D01*
X132392403Y-110201418D01*
G37*
G04 #@! TD.AperFunction*
G04 #@! TA.AperFunction,SMDPad,CuDef*
G36*
X137342403Y-100041418D02*
G01*
X137391066Y-100073934D01*
X137423582Y-100122597D01*
X137435000Y-100180000D01*
X137435000Y-100480000D01*
X137423582Y-100537403D01*
X137391066Y-100586066D01*
X137342403Y-100618582D01*
X137285000Y-100630000D01*
X135635000Y-100630000D01*
X135577597Y-100618582D01*
X135528934Y-100586066D01*
X135496418Y-100537403D01*
X135485000Y-100480000D01*
X135485000Y-100180000D01*
X135496418Y-100122597D01*
X135528934Y-100073934D01*
X135577597Y-100041418D01*
X135635000Y-100030000D01*
X137285000Y-100030000D01*
X137342403Y-100041418D01*
G37*
G04 #@! TD.AperFunction*
G04 #@! TA.AperFunction,SMDPad,CuDef*
G36*
X137342403Y-101311418D02*
G01*
X137391066Y-101343934D01*
X137423582Y-101392597D01*
X137435000Y-101450000D01*
X137435000Y-101750000D01*
X137423582Y-101807403D01*
X137391066Y-101856066D01*
X137342403Y-101888582D01*
X137285000Y-101900000D01*
X135635000Y-101900000D01*
X135577597Y-101888582D01*
X135528934Y-101856066D01*
X135496418Y-101807403D01*
X135485000Y-101750000D01*
X135485000Y-101450000D01*
X135496418Y-101392597D01*
X135528934Y-101343934D01*
X135577597Y-101311418D01*
X135635000Y-101300000D01*
X137285000Y-101300000D01*
X137342403Y-101311418D01*
G37*
G04 #@! TD.AperFunction*
G04 #@! TA.AperFunction,SMDPad,CuDef*
G36*
X137342403Y-102581418D02*
G01*
X137391066Y-102613934D01*
X137423582Y-102662597D01*
X137435000Y-102720000D01*
X137435000Y-103020000D01*
X137423582Y-103077403D01*
X137391066Y-103126066D01*
X137342403Y-103158582D01*
X137285000Y-103170000D01*
X135635000Y-103170000D01*
X135577597Y-103158582D01*
X135528934Y-103126066D01*
X135496418Y-103077403D01*
X135485000Y-103020000D01*
X135485000Y-102720000D01*
X135496418Y-102662597D01*
X135528934Y-102613934D01*
X135577597Y-102581418D01*
X135635000Y-102570000D01*
X137285000Y-102570000D01*
X137342403Y-102581418D01*
G37*
G04 #@! TD.AperFunction*
G04 #@! TA.AperFunction,SMDPad,CuDef*
G36*
X137342403Y-103851418D02*
G01*
X137391066Y-103883934D01*
X137423582Y-103932597D01*
X137435000Y-103990000D01*
X137435000Y-104290000D01*
X137423582Y-104347403D01*
X137391066Y-104396066D01*
X137342403Y-104428582D01*
X137285000Y-104440000D01*
X135635000Y-104440000D01*
X135577597Y-104428582D01*
X135528934Y-104396066D01*
X135496418Y-104347403D01*
X135485000Y-104290000D01*
X135485000Y-103990000D01*
X135496418Y-103932597D01*
X135528934Y-103883934D01*
X135577597Y-103851418D01*
X135635000Y-103840000D01*
X137285000Y-103840000D01*
X137342403Y-103851418D01*
G37*
G04 #@! TD.AperFunction*
G04 #@! TA.AperFunction,SMDPad,CuDef*
G36*
X132392403Y-103851418D02*
G01*
X132441066Y-103883934D01*
X132473582Y-103932597D01*
X132485000Y-103990000D01*
X132485000Y-104290000D01*
X132473582Y-104347403D01*
X132441066Y-104396066D01*
X132392403Y-104428582D01*
X132335000Y-104440000D01*
X130685000Y-104440000D01*
X130627597Y-104428582D01*
X130578934Y-104396066D01*
X130546418Y-104347403D01*
X130535000Y-104290000D01*
X130535000Y-103990000D01*
X130546418Y-103932597D01*
X130578934Y-103883934D01*
X130627597Y-103851418D01*
X130685000Y-103840000D01*
X132335000Y-103840000D01*
X132392403Y-103851418D01*
G37*
G04 #@! TD.AperFunction*
G04 #@! TA.AperFunction,SMDPad,CuDef*
G36*
X132392403Y-102581418D02*
G01*
X132441066Y-102613934D01*
X132473582Y-102662597D01*
X132485000Y-102720000D01*
X132485000Y-103020000D01*
X132473582Y-103077403D01*
X132441066Y-103126066D01*
X132392403Y-103158582D01*
X132335000Y-103170000D01*
X130685000Y-103170000D01*
X130627597Y-103158582D01*
X130578934Y-103126066D01*
X130546418Y-103077403D01*
X130535000Y-103020000D01*
X130535000Y-102720000D01*
X130546418Y-102662597D01*
X130578934Y-102613934D01*
X130627597Y-102581418D01*
X130685000Y-102570000D01*
X132335000Y-102570000D01*
X132392403Y-102581418D01*
G37*
G04 #@! TD.AperFunction*
G04 #@! TA.AperFunction,SMDPad,CuDef*
G36*
X132392403Y-101311418D02*
G01*
X132441066Y-101343934D01*
X132473582Y-101392597D01*
X132485000Y-101450000D01*
X132485000Y-101750000D01*
X132473582Y-101807403D01*
X132441066Y-101856066D01*
X132392403Y-101888582D01*
X132335000Y-101900000D01*
X130685000Y-101900000D01*
X130627597Y-101888582D01*
X130578934Y-101856066D01*
X130546418Y-101807403D01*
X130535000Y-101750000D01*
X130535000Y-101450000D01*
X130546418Y-101392597D01*
X130578934Y-101343934D01*
X130627597Y-101311418D01*
X130685000Y-101300000D01*
X132335000Y-101300000D01*
X132392403Y-101311418D01*
G37*
G04 #@! TD.AperFunction*
G04 #@! TA.AperFunction,SMDPad,CuDef*
G36*
X132392403Y-100041418D02*
G01*
X132441066Y-100073934D01*
X132473582Y-100122597D01*
X132485000Y-100180000D01*
X132485000Y-100480000D01*
X132473582Y-100537403D01*
X132441066Y-100586066D01*
X132392403Y-100618582D01*
X132335000Y-100630000D01*
X130685000Y-100630000D01*
X130627597Y-100618582D01*
X130578934Y-100586066D01*
X130546418Y-100537403D01*
X130535000Y-100480000D01*
X130535000Y-100180000D01*
X130546418Y-100122597D01*
X130578934Y-100073934D01*
X130627597Y-100041418D01*
X130685000Y-100030000D01*
X132335000Y-100030000D01*
X132392403Y-100041418D01*
G37*
G04 #@! TD.AperFunction*
G04 #@! TA.AperFunction,SMDPad,CuDef*
G36*
X137342403Y-89881418D02*
G01*
X137391066Y-89913934D01*
X137423582Y-89962597D01*
X137435000Y-90020000D01*
X137435000Y-90320000D01*
X137423582Y-90377403D01*
X137391066Y-90426066D01*
X137342403Y-90458582D01*
X137285000Y-90470000D01*
X135635000Y-90470000D01*
X135577597Y-90458582D01*
X135528934Y-90426066D01*
X135496418Y-90377403D01*
X135485000Y-90320000D01*
X135485000Y-90020000D01*
X135496418Y-89962597D01*
X135528934Y-89913934D01*
X135577597Y-89881418D01*
X135635000Y-89870000D01*
X137285000Y-89870000D01*
X137342403Y-89881418D01*
G37*
G04 #@! TD.AperFunction*
G04 #@! TA.AperFunction,SMDPad,CuDef*
G36*
X137342403Y-91151418D02*
G01*
X137391066Y-91183934D01*
X137423582Y-91232597D01*
X137435000Y-91290000D01*
X137435000Y-91590000D01*
X137423582Y-91647403D01*
X137391066Y-91696066D01*
X137342403Y-91728582D01*
X137285000Y-91740000D01*
X135635000Y-91740000D01*
X135577597Y-91728582D01*
X135528934Y-91696066D01*
X135496418Y-91647403D01*
X135485000Y-91590000D01*
X135485000Y-91290000D01*
X135496418Y-91232597D01*
X135528934Y-91183934D01*
X135577597Y-91151418D01*
X135635000Y-91140000D01*
X137285000Y-91140000D01*
X137342403Y-91151418D01*
G37*
G04 #@! TD.AperFunction*
G04 #@! TA.AperFunction,SMDPad,CuDef*
G36*
X137342403Y-92421418D02*
G01*
X137391066Y-92453934D01*
X137423582Y-92502597D01*
X137435000Y-92560000D01*
X137435000Y-92860000D01*
X137423582Y-92917403D01*
X137391066Y-92966066D01*
X137342403Y-92998582D01*
X137285000Y-93010000D01*
X135635000Y-93010000D01*
X135577597Y-92998582D01*
X135528934Y-92966066D01*
X135496418Y-92917403D01*
X135485000Y-92860000D01*
X135485000Y-92560000D01*
X135496418Y-92502597D01*
X135528934Y-92453934D01*
X135577597Y-92421418D01*
X135635000Y-92410000D01*
X137285000Y-92410000D01*
X137342403Y-92421418D01*
G37*
G04 #@! TD.AperFunction*
G04 #@! TA.AperFunction,SMDPad,CuDef*
G36*
X137342403Y-93691418D02*
G01*
X137391066Y-93723934D01*
X137423582Y-93772597D01*
X137435000Y-93830000D01*
X137435000Y-94130000D01*
X137423582Y-94187403D01*
X137391066Y-94236066D01*
X137342403Y-94268582D01*
X137285000Y-94280000D01*
X135635000Y-94280000D01*
X135577597Y-94268582D01*
X135528934Y-94236066D01*
X135496418Y-94187403D01*
X135485000Y-94130000D01*
X135485000Y-93830000D01*
X135496418Y-93772597D01*
X135528934Y-93723934D01*
X135577597Y-93691418D01*
X135635000Y-93680000D01*
X137285000Y-93680000D01*
X137342403Y-93691418D01*
G37*
G04 #@! TD.AperFunction*
G04 #@! TA.AperFunction,SMDPad,CuDef*
G36*
X132392403Y-93691418D02*
G01*
X132441066Y-93723934D01*
X132473582Y-93772597D01*
X132485000Y-93830000D01*
X132485000Y-94130000D01*
X132473582Y-94187403D01*
X132441066Y-94236066D01*
X132392403Y-94268582D01*
X132335000Y-94280000D01*
X130685000Y-94280000D01*
X130627597Y-94268582D01*
X130578934Y-94236066D01*
X130546418Y-94187403D01*
X130535000Y-94130000D01*
X130535000Y-93830000D01*
X130546418Y-93772597D01*
X130578934Y-93723934D01*
X130627597Y-93691418D01*
X130685000Y-93680000D01*
X132335000Y-93680000D01*
X132392403Y-93691418D01*
G37*
G04 #@! TD.AperFunction*
G04 #@! TA.AperFunction,SMDPad,CuDef*
G36*
X132392403Y-92421418D02*
G01*
X132441066Y-92453934D01*
X132473582Y-92502597D01*
X132485000Y-92560000D01*
X132485000Y-92860000D01*
X132473582Y-92917403D01*
X132441066Y-92966066D01*
X132392403Y-92998582D01*
X132335000Y-93010000D01*
X130685000Y-93010000D01*
X130627597Y-92998582D01*
X130578934Y-92966066D01*
X130546418Y-92917403D01*
X130535000Y-92860000D01*
X130535000Y-92560000D01*
X130546418Y-92502597D01*
X130578934Y-92453934D01*
X130627597Y-92421418D01*
X130685000Y-92410000D01*
X132335000Y-92410000D01*
X132392403Y-92421418D01*
G37*
G04 #@! TD.AperFunction*
G04 #@! TA.AperFunction,SMDPad,CuDef*
G36*
X132392403Y-91151418D02*
G01*
X132441066Y-91183934D01*
X132473582Y-91232597D01*
X132485000Y-91290000D01*
X132485000Y-91590000D01*
X132473582Y-91647403D01*
X132441066Y-91696066D01*
X132392403Y-91728582D01*
X132335000Y-91740000D01*
X130685000Y-91740000D01*
X130627597Y-91728582D01*
X130578934Y-91696066D01*
X130546418Y-91647403D01*
X130535000Y-91590000D01*
X130535000Y-91290000D01*
X130546418Y-91232597D01*
X130578934Y-91183934D01*
X130627597Y-91151418D01*
X130685000Y-91140000D01*
X132335000Y-91140000D01*
X132392403Y-91151418D01*
G37*
G04 #@! TD.AperFunction*
G04 #@! TA.AperFunction,SMDPad,CuDef*
G36*
X132392403Y-89881418D02*
G01*
X132441066Y-89913934D01*
X132473582Y-89962597D01*
X132485000Y-90020000D01*
X132485000Y-90320000D01*
X132473582Y-90377403D01*
X132441066Y-90426066D01*
X132392403Y-90458582D01*
X132335000Y-90470000D01*
X130685000Y-90470000D01*
X130627597Y-90458582D01*
X130578934Y-90426066D01*
X130546418Y-90377403D01*
X130535000Y-90320000D01*
X130535000Y-90020000D01*
X130546418Y-89962597D01*
X130578934Y-89913934D01*
X130627597Y-89881418D01*
X130685000Y-89870000D01*
X132335000Y-89870000D01*
X132392403Y-89881418D01*
G37*
G04 #@! TD.AperFunction*
G04 #@! TA.AperFunction,SMDPad,CuDef*
G36*
X137277403Y-74641418D02*
G01*
X137326066Y-74673934D01*
X137358582Y-74722597D01*
X137370000Y-74780000D01*
X137370000Y-75080000D01*
X137358582Y-75137403D01*
X137326066Y-75186066D01*
X137277403Y-75218582D01*
X137220000Y-75230000D01*
X135570000Y-75230000D01*
X135512597Y-75218582D01*
X135463934Y-75186066D01*
X135431418Y-75137403D01*
X135420000Y-75080000D01*
X135420000Y-74780000D01*
X135431418Y-74722597D01*
X135463934Y-74673934D01*
X135512597Y-74641418D01*
X135570000Y-74630000D01*
X137220000Y-74630000D01*
X137277403Y-74641418D01*
G37*
G04 #@! TD.AperFunction*
G04 #@! TA.AperFunction,SMDPad,CuDef*
G36*
X137277403Y-75911418D02*
G01*
X137326066Y-75943934D01*
X137358582Y-75992597D01*
X137370000Y-76050000D01*
X137370000Y-76350000D01*
X137358582Y-76407403D01*
X137326066Y-76456066D01*
X137277403Y-76488582D01*
X137220000Y-76500000D01*
X135570000Y-76500000D01*
X135512597Y-76488582D01*
X135463934Y-76456066D01*
X135431418Y-76407403D01*
X135420000Y-76350000D01*
X135420000Y-76050000D01*
X135431418Y-75992597D01*
X135463934Y-75943934D01*
X135512597Y-75911418D01*
X135570000Y-75900000D01*
X137220000Y-75900000D01*
X137277403Y-75911418D01*
G37*
G04 #@! TD.AperFunction*
G04 #@! TA.AperFunction,SMDPad,CuDef*
G36*
X137277403Y-77181418D02*
G01*
X137326066Y-77213934D01*
X137358582Y-77262597D01*
X137370000Y-77320000D01*
X137370000Y-77620000D01*
X137358582Y-77677403D01*
X137326066Y-77726066D01*
X137277403Y-77758582D01*
X137220000Y-77770000D01*
X135570000Y-77770000D01*
X135512597Y-77758582D01*
X135463934Y-77726066D01*
X135431418Y-77677403D01*
X135420000Y-77620000D01*
X135420000Y-77320000D01*
X135431418Y-77262597D01*
X135463934Y-77213934D01*
X135512597Y-77181418D01*
X135570000Y-77170000D01*
X137220000Y-77170000D01*
X137277403Y-77181418D01*
G37*
G04 #@! TD.AperFunction*
G04 #@! TA.AperFunction,SMDPad,CuDef*
G36*
X137277403Y-78451418D02*
G01*
X137326066Y-78483934D01*
X137358582Y-78532597D01*
X137370000Y-78590000D01*
X137370000Y-78890000D01*
X137358582Y-78947403D01*
X137326066Y-78996066D01*
X137277403Y-79028582D01*
X137220000Y-79040000D01*
X135570000Y-79040000D01*
X135512597Y-79028582D01*
X135463934Y-78996066D01*
X135431418Y-78947403D01*
X135420000Y-78890000D01*
X135420000Y-78590000D01*
X135431418Y-78532597D01*
X135463934Y-78483934D01*
X135512597Y-78451418D01*
X135570000Y-78440000D01*
X137220000Y-78440000D01*
X137277403Y-78451418D01*
G37*
G04 #@! TD.AperFunction*
G04 #@! TA.AperFunction,SMDPad,CuDef*
G36*
X132327403Y-78451418D02*
G01*
X132376066Y-78483934D01*
X132408582Y-78532597D01*
X132420000Y-78590000D01*
X132420000Y-78890000D01*
X132408582Y-78947403D01*
X132376066Y-78996066D01*
X132327403Y-79028582D01*
X132270000Y-79040000D01*
X130620000Y-79040000D01*
X130562597Y-79028582D01*
X130513934Y-78996066D01*
X130481418Y-78947403D01*
X130470000Y-78890000D01*
X130470000Y-78590000D01*
X130481418Y-78532597D01*
X130513934Y-78483934D01*
X130562597Y-78451418D01*
X130620000Y-78440000D01*
X132270000Y-78440000D01*
X132327403Y-78451418D01*
G37*
G04 #@! TD.AperFunction*
G04 #@! TA.AperFunction,SMDPad,CuDef*
G36*
X132327403Y-77181418D02*
G01*
X132376066Y-77213934D01*
X132408582Y-77262597D01*
X132420000Y-77320000D01*
X132420000Y-77620000D01*
X132408582Y-77677403D01*
X132376066Y-77726066D01*
X132327403Y-77758582D01*
X132270000Y-77770000D01*
X130620000Y-77770000D01*
X130562597Y-77758582D01*
X130513934Y-77726066D01*
X130481418Y-77677403D01*
X130470000Y-77620000D01*
X130470000Y-77320000D01*
X130481418Y-77262597D01*
X130513934Y-77213934D01*
X130562597Y-77181418D01*
X130620000Y-77170000D01*
X132270000Y-77170000D01*
X132327403Y-77181418D01*
G37*
G04 #@! TD.AperFunction*
G04 #@! TA.AperFunction,SMDPad,CuDef*
G36*
X132327403Y-75911418D02*
G01*
X132376066Y-75943934D01*
X132408582Y-75992597D01*
X132420000Y-76050000D01*
X132420000Y-76350000D01*
X132408582Y-76407403D01*
X132376066Y-76456066D01*
X132327403Y-76488582D01*
X132270000Y-76500000D01*
X130620000Y-76500000D01*
X130562597Y-76488582D01*
X130513934Y-76456066D01*
X130481418Y-76407403D01*
X130470000Y-76350000D01*
X130470000Y-76050000D01*
X130481418Y-75992597D01*
X130513934Y-75943934D01*
X130562597Y-75911418D01*
X130620000Y-75900000D01*
X132270000Y-75900000D01*
X132327403Y-75911418D01*
G37*
G04 #@! TD.AperFunction*
G04 #@! TA.AperFunction,SMDPad,CuDef*
G36*
X132327403Y-74641418D02*
G01*
X132376066Y-74673934D01*
X132408582Y-74722597D01*
X132420000Y-74780000D01*
X132420000Y-75080000D01*
X132408582Y-75137403D01*
X132376066Y-75186066D01*
X132327403Y-75218582D01*
X132270000Y-75230000D01*
X130620000Y-75230000D01*
X130562597Y-75218582D01*
X130513934Y-75186066D01*
X130481418Y-75137403D01*
X130470000Y-75080000D01*
X130470000Y-74780000D01*
X130481418Y-74722597D01*
X130513934Y-74673934D01*
X130562597Y-74641418D01*
X130620000Y-74630000D01*
X132270000Y-74630000D01*
X132327403Y-74641418D01*
G37*
G04 #@! TD.AperFunction*
G04 #@! TA.AperFunction,SMDPad,CuDef*
G36*
X137342403Y-64481418D02*
G01*
X137391066Y-64513934D01*
X137423582Y-64562597D01*
X137435000Y-64620000D01*
X137435000Y-64920000D01*
X137423582Y-64977403D01*
X137391066Y-65026066D01*
X137342403Y-65058582D01*
X137285000Y-65070000D01*
X135635000Y-65070000D01*
X135577597Y-65058582D01*
X135528934Y-65026066D01*
X135496418Y-64977403D01*
X135485000Y-64920000D01*
X135485000Y-64620000D01*
X135496418Y-64562597D01*
X135528934Y-64513934D01*
X135577597Y-64481418D01*
X135635000Y-64470000D01*
X137285000Y-64470000D01*
X137342403Y-64481418D01*
G37*
G04 #@! TD.AperFunction*
G04 #@! TA.AperFunction,SMDPad,CuDef*
G36*
X137342403Y-65751418D02*
G01*
X137391066Y-65783934D01*
X137423582Y-65832597D01*
X137435000Y-65890000D01*
X137435000Y-66190000D01*
X137423582Y-66247403D01*
X137391066Y-66296066D01*
X137342403Y-66328582D01*
X137285000Y-66340000D01*
X135635000Y-66340000D01*
X135577597Y-66328582D01*
X135528934Y-66296066D01*
X135496418Y-66247403D01*
X135485000Y-66190000D01*
X135485000Y-65890000D01*
X135496418Y-65832597D01*
X135528934Y-65783934D01*
X135577597Y-65751418D01*
X135635000Y-65740000D01*
X137285000Y-65740000D01*
X137342403Y-65751418D01*
G37*
G04 #@! TD.AperFunction*
G04 #@! TA.AperFunction,SMDPad,CuDef*
G36*
X137342403Y-67021418D02*
G01*
X137391066Y-67053934D01*
X137423582Y-67102597D01*
X137435000Y-67160000D01*
X137435000Y-67460000D01*
X137423582Y-67517403D01*
X137391066Y-67566066D01*
X137342403Y-67598582D01*
X137285000Y-67610000D01*
X135635000Y-67610000D01*
X135577597Y-67598582D01*
X135528934Y-67566066D01*
X135496418Y-67517403D01*
X135485000Y-67460000D01*
X135485000Y-67160000D01*
X135496418Y-67102597D01*
X135528934Y-67053934D01*
X135577597Y-67021418D01*
X135635000Y-67010000D01*
X137285000Y-67010000D01*
X137342403Y-67021418D01*
G37*
G04 #@! TD.AperFunction*
G04 #@! TA.AperFunction,SMDPad,CuDef*
G36*
X137342403Y-68291418D02*
G01*
X137391066Y-68323934D01*
X137423582Y-68372597D01*
X137435000Y-68430000D01*
X137435000Y-68730000D01*
X137423582Y-68787403D01*
X137391066Y-68836066D01*
X137342403Y-68868582D01*
X137285000Y-68880000D01*
X135635000Y-68880000D01*
X135577597Y-68868582D01*
X135528934Y-68836066D01*
X135496418Y-68787403D01*
X135485000Y-68730000D01*
X135485000Y-68430000D01*
X135496418Y-68372597D01*
X135528934Y-68323934D01*
X135577597Y-68291418D01*
X135635000Y-68280000D01*
X137285000Y-68280000D01*
X137342403Y-68291418D01*
G37*
G04 #@! TD.AperFunction*
G04 #@! TA.AperFunction,SMDPad,CuDef*
G36*
X132392403Y-68291418D02*
G01*
X132441066Y-68323934D01*
X132473582Y-68372597D01*
X132485000Y-68430000D01*
X132485000Y-68730000D01*
X132473582Y-68787403D01*
X132441066Y-68836066D01*
X132392403Y-68868582D01*
X132335000Y-68880000D01*
X130685000Y-68880000D01*
X130627597Y-68868582D01*
X130578934Y-68836066D01*
X130546418Y-68787403D01*
X130535000Y-68730000D01*
X130535000Y-68430000D01*
X130546418Y-68372597D01*
X130578934Y-68323934D01*
X130627597Y-68291418D01*
X130685000Y-68280000D01*
X132335000Y-68280000D01*
X132392403Y-68291418D01*
G37*
G04 #@! TD.AperFunction*
G04 #@! TA.AperFunction,SMDPad,CuDef*
G36*
X132392403Y-67021418D02*
G01*
X132441066Y-67053934D01*
X132473582Y-67102597D01*
X132485000Y-67160000D01*
X132485000Y-67460000D01*
X132473582Y-67517403D01*
X132441066Y-67566066D01*
X132392403Y-67598582D01*
X132335000Y-67610000D01*
X130685000Y-67610000D01*
X130627597Y-67598582D01*
X130578934Y-67566066D01*
X130546418Y-67517403D01*
X130535000Y-67460000D01*
X130535000Y-67160000D01*
X130546418Y-67102597D01*
X130578934Y-67053934D01*
X130627597Y-67021418D01*
X130685000Y-67010000D01*
X132335000Y-67010000D01*
X132392403Y-67021418D01*
G37*
G04 #@! TD.AperFunction*
G04 #@! TA.AperFunction,SMDPad,CuDef*
G36*
X132392403Y-65751418D02*
G01*
X132441066Y-65783934D01*
X132473582Y-65832597D01*
X132485000Y-65890000D01*
X132485000Y-66190000D01*
X132473582Y-66247403D01*
X132441066Y-66296066D01*
X132392403Y-66328582D01*
X132335000Y-66340000D01*
X130685000Y-66340000D01*
X130627597Y-66328582D01*
X130578934Y-66296066D01*
X130546418Y-66247403D01*
X130535000Y-66190000D01*
X130535000Y-65890000D01*
X130546418Y-65832597D01*
X130578934Y-65783934D01*
X130627597Y-65751418D01*
X130685000Y-65740000D01*
X132335000Y-65740000D01*
X132392403Y-65751418D01*
G37*
G04 #@! TD.AperFunction*
G04 #@! TA.AperFunction,SMDPad,CuDef*
G36*
X132392403Y-64481418D02*
G01*
X132441066Y-64513934D01*
X132473582Y-64562597D01*
X132485000Y-64620000D01*
X132485000Y-64920000D01*
X132473582Y-64977403D01*
X132441066Y-65026066D01*
X132392403Y-65058582D01*
X132335000Y-65070000D01*
X130685000Y-65070000D01*
X130627597Y-65058582D01*
X130578934Y-65026066D01*
X130546418Y-64977403D01*
X130535000Y-64920000D01*
X130535000Y-64620000D01*
X130546418Y-64562597D01*
X130578934Y-64513934D01*
X130627597Y-64481418D01*
X130685000Y-64470000D01*
X132335000Y-64470000D01*
X132392403Y-64481418D01*
G37*
G04 #@! TD.AperFunction*
G04 #@! TA.AperFunction,SMDPad,CuDef*
G36*
X137342403Y-54321418D02*
G01*
X137391066Y-54353934D01*
X137423582Y-54402597D01*
X137435000Y-54460000D01*
X137435000Y-54760000D01*
X137423582Y-54817403D01*
X137391066Y-54866066D01*
X137342403Y-54898582D01*
X137285000Y-54910000D01*
X135635000Y-54910000D01*
X135577597Y-54898582D01*
X135528934Y-54866066D01*
X135496418Y-54817403D01*
X135485000Y-54760000D01*
X135485000Y-54460000D01*
X135496418Y-54402597D01*
X135528934Y-54353934D01*
X135577597Y-54321418D01*
X135635000Y-54310000D01*
X137285000Y-54310000D01*
X137342403Y-54321418D01*
G37*
G04 #@! TD.AperFunction*
G04 #@! TA.AperFunction,SMDPad,CuDef*
G36*
X137342403Y-55591418D02*
G01*
X137391066Y-55623934D01*
X137423582Y-55672597D01*
X137435000Y-55730000D01*
X137435000Y-56030000D01*
X137423582Y-56087403D01*
X137391066Y-56136066D01*
X137342403Y-56168582D01*
X137285000Y-56180000D01*
X135635000Y-56180000D01*
X135577597Y-56168582D01*
X135528934Y-56136066D01*
X135496418Y-56087403D01*
X135485000Y-56030000D01*
X135485000Y-55730000D01*
X135496418Y-55672597D01*
X135528934Y-55623934D01*
X135577597Y-55591418D01*
X135635000Y-55580000D01*
X137285000Y-55580000D01*
X137342403Y-55591418D01*
G37*
G04 #@! TD.AperFunction*
G04 #@! TA.AperFunction,SMDPad,CuDef*
G36*
X137342403Y-56861418D02*
G01*
X137391066Y-56893934D01*
X137423582Y-56942597D01*
X137435000Y-57000000D01*
X137435000Y-57300000D01*
X137423582Y-57357403D01*
X137391066Y-57406066D01*
X137342403Y-57438582D01*
X137285000Y-57450000D01*
X135635000Y-57450000D01*
X135577597Y-57438582D01*
X135528934Y-57406066D01*
X135496418Y-57357403D01*
X135485000Y-57300000D01*
X135485000Y-57000000D01*
X135496418Y-56942597D01*
X135528934Y-56893934D01*
X135577597Y-56861418D01*
X135635000Y-56850000D01*
X137285000Y-56850000D01*
X137342403Y-56861418D01*
G37*
G04 #@! TD.AperFunction*
G04 #@! TA.AperFunction,SMDPad,CuDef*
G36*
X137342403Y-58131418D02*
G01*
X137391066Y-58163934D01*
X137423582Y-58212597D01*
X137435000Y-58270000D01*
X137435000Y-58570000D01*
X137423582Y-58627403D01*
X137391066Y-58676066D01*
X137342403Y-58708582D01*
X137285000Y-58720000D01*
X135635000Y-58720000D01*
X135577597Y-58708582D01*
X135528934Y-58676066D01*
X135496418Y-58627403D01*
X135485000Y-58570000D01*
X135485000Y-58270000D01*
X135496418Y-58212597D01*
X135528934Y-58163934D01*
X135577597Y-58131418D01*
X135635000Y-58120000D01*
X137285000Y-58120000D01*
X137342403Y-58131418D01*
G37*
G04 #@! TD.AperFunction*
G04 #@! TA.AperFunction,SMDPad,CuDef*
G36*
X132392403Y-58131418D02*
G01*
X132441066Y-58163934D01*
X132473582Y-58212597D01*
X132485000Y-58270000D01*
X132485000Y-58570000D01*
X132473582Y-58627403D01*
X132441066Y-58676066D01*
X132392403Y-58708582D01*
X132335000Y-58720000D01*
X130685000Y-58720000D01*
X130627597Y-58708582D01*
X130578934Y-58676066D01*
X130546418Y-58627403D01*
X130535000Y-58570000D01*
X130535000Y-58270000D01*
X130546418Y-58212597D01*
X130578934Y-58163934D01*
X130627597Y-58131418D01*
X130685000Y-58120000D01*
X132335000Y-58120000D01*
X132392403Y-58131418D01*
G37*
G04 #@! TD.AperFunction*
G04 #@! TA.AperFunction,SMDPad,CuDef*
G36*
X132392403Y-56861418D02*
G01*
X132441066Y-56893934D01*
X132473582Y-56942597D01*
X132485000Y-57000000D01*
X132485000Y-57300000D01*
X132473582Y-57357403D01*
X132441066Y-57406066D01*
X132392403Y-57438582D01*
X132335000Y-57450000D01*
X130685000Y-57450000D01*
X130627597Y-57438582D01*
X130578934Y-57406066D01*
X130546418Y-57357403D01*
X130535000Y-57300000D01*
X130535000Y-57000000D01*
X130546418Y-56942597D01*
X130578934Y-56893934D01*
X130627597Y-56861418D01*
X130685000Y-56850000D01*
X132335000Y-56850000D01*
X132392403Y-56861418D01*
G37*
G04 #@! TD.AperFunction*
G04 #@! TA.AperFunction,SMDPad,CuDef*
G36*
X132392403Y-55591418D02*
G01*
X132441066Y-55623934D01*
X132473582Y-55672597D01*
X132485000Y-55730000D01*
X132485000Y-56030000D01*
X132473582Y-56087403D01*
X132441066Y-56136066D01*
X132392403Y-56168582D01*
X132335000Y-56180000D01*
X130685000Y-56180000D01*
X130627597Y-56168582D01*
X130578934Y-56136066D01*
X130546418Y-56087403D01*
X130535000Y-56030000D01*
X130535000Y-55730000D01*
X130546418Y-55672597D01*
X130578934Y-55623934D01*
X130627597Y-55591418D01*
X130685000Y-55580000D01*
X132335000Y-55580000D01*
X132392403Y-55591418D01*
G37*
G04 #@! TD.AperFunction*
G04 #@! TA.AperFunction,SMDPad,CuDef*
G36*
X132392403Y-54321418D02*
G01*
X132441066Y-54353934D01*
X132473582Y-54402597D01*
X132485000Y-54460000D01*
X132485000Y-54760000D01*
X132473582Y-54817403D01*
X132441066Y-54866066D01*
X132392403Y-54898582D01*
X132335000Y-54910000D01*
X130685000Y-54910000D01*
X130627597Y-54898582D01*
X130578934Y-54866066D01*
X130546418Y-54817403D01*
X130535000Y-54760000D01*
X130535000Y-54460000D01*
X130546418Y-54402597D01*
X130578934Y-54353934D01*
X130627597Y-54321418D01*
X130685000Y-54310000D01*
X132335000Y-54310000D01*
X132392403Y-54321418D01*
G37*
G04 #@! TD.AperFunction*
G04 #@! TA.AperFunction,SMDPad,CuDef*
G36*
X137277403Y-44161418D02*
G01*
X137326066Y-44193934D01*
X137358582Y-44242597D01*
X137370000Y-44300000D01*
X137370000Y-44600000D01*
X137358582Y-44657403D01*
X137326066Y-44706066D01*
X137277403Y-44738582D01*
X137220000Y-44750000D01*
X135570000Y-44750000D01*
X135512597Y-44738582D01*
X135463934Y-44706066D01*
X135431418Y-44657403D01*
X135420000Y-44600000D01*
X135420000Y-44300000D01*
X135431418Y-44242597D01*
X135463934Y-44193934D01*
X135512597Y-44161418D01*
X135570000Y-44150000D01*
X137220000Y-44150000D01*
X137277403Y-44161418D01*
G37*
G04 #@! TD.AperFunction*
G04 #@! TA.AperFunction,SMDPad,CuDef*
G36*
X137277403Y-45431418D02*
G01*
X137326066Y-45463934D01*
X137358582Y-45512597D01*
X137370000Y-45570000D01*
X137370000Y-45870000D01*
X137358582Y-45927403D01*
X137326066Y-45976066D01*
X137277403Y-46008582D01*
X137220000Y-46020000D01*
X135570000Y-46020000D01*
X135512597Y-46008582D01*
X135463934Y-45976066D01*
X135431418Y-45927403D01*
X135420000Y-45870000D01*
X135420000Y-45570000D01*
X135431418Y-45512597D01*
X135463934Y-45463934D01*
X135512597Y-45431418D01*
X135570000Y-45420000D01*
X137220000Y-45420000D01*
X137277403Y-45431418D01*
G37*
G04 #@! TD.AperFunction*
G04 #@! TA.AperFunction,SMDPad,CuDef*
G36*
X137277403Y-46701418D02*
G01*
X137326066Y-46733934D01*
X137358582Y-46782597D01*
X137370000Y-46840000D01*
X137370000Y-47140000D01*
X137358582Y-47197403D01*
X137326066Y-47246066D01*
X137277403Y-47278582D01*
X137220000Y-47290000D01*
X135570000Y-47290000D01*
X135512597Y-47278582D01*
X135463934Y-47246066D01*
X135431418Y-47197403D01*
X135420000Y-47140000D01*
X135420000Y-46840000D01*
X135431418Y-46782597D01*
X135463934Y-46733934D01*
X135512597Y-46701418D01*
X135570000Y-46690000D01*
X137220000Y-46690000D01*
X137277403Y-46701418D01*
G37*
G04 #@! TD.AperFunction*
G04 #@! TA.AperFunction,SMDPad,CuDef*
G36*
X137277403Y-47971418D02*
G01*
X137326066Y-48003934D01*
X137358582Y-48052597D01*
X137370000Y-48110000D01*
X137370000Y-48410000D01*
X137358582Y-48467403D01*
X137326066Y-48516066D01*
X137277403Y-48548582D01*
X137220000Y-48560000D01*
X135570000Y-48560000D01*
X135512597Y-48548582D01*
X135463934Y-48516066D01*
X135431418Y-48467403D01*
X135420000Y-48410000D01*
X135420000Y-48110000D01*
X135431418Y-48052597D01*
X135463934Y-48003934D01*
X135512597Y-47971418D01*
X135570000Y-47960000D01*
X137220000Y-47960000D01*
X137277403Y-47971418D01*
G37*
G04 #@! TD.AperFunction*
G04 #@! TA.AperFunction,SMDPad,CuDef*
G36*
X132327403Y-47971418D02*
G01*
X132376066Y-48003934D01*
X132408582Y-48052597D01*
X132420000Y-48110000D01*
X132420000Y-48410000D01*
X132408582Y-48467403D01*
X132376066Y-48516066D01*
X132327403Y-48548582D01*
X132270000Y-48560000D01*
X130620000Y-48560000D01*
X130562597Y-48548582D01*
X130513934Y-48516066D01*
X130481418Y-48467403D01*
X130470000Y-48410000D01*
X130470000Y-48110000D01*
X130481418Y-48052597D01*
X130513934Y-48003934D01*
X130562597Y-47971418D01*
X130620000Y-47960000D01*
X132270000Y-47960000D01*
X132327403Y-47971418D01*
G37*
G04 #@! TD.AperFunction*
G04 #@! TA.AperFunction,SMDPad,CuDef*
G36*
X132327403Y-46701418D02*
G01*
X132376066Y-46733934D01*
X132408582Y-46782597D01*
X132420000Y-46840000D01*
X132420000Y-47140000D01*
X132408582Y-47197403D01*
X132376066Y-47246066D01*
X132327403Y-47278582D01*
X132270000Y-47290000D01*
X130620000Y-47290000D01*
X130562597Y-47278582D01*
X130513934Y-47246066D01*
X130481418Y-47197403D01*
X130470000Y-47140000D01*
X130470000Y-46840000D01*
X130481418Y-46782597D01*
X130513934Y-46733934D01*
X130562597Y-46701418D01*
X130620000Y-46690000D01*
X132270000Y-46690000D01*
X132327403Y-46701418D01*
G37*
G04 #@! TD.AperFunction*
G04 #@! TA.AperFunction,SMDPad,CuDef*
G36*
X132327403Y-45431418D02*
G01*
X132376066Y-45463934D01*
X132408582Y-45512597D01*
X132420000Y-45570000D01*
X132420000Y-45870000D01*
X132408582Y-45927403D01*
X132376066Y-45976066D01*
X132327403Y-46008582D01*
X132270000Y-46020000D01*
X130620000Y-46020000D01*
X130562597Y-46008582D01*
X130513934Y-45976066D01*
X130481418Y-45927403D01*
X130470000Y-45870000D01*
X130470000Y-45570000D01*
X130481418Y-45512597D01*
X130513934Y-45463934D01*
X130562597Y-45431418D01*
X130620000Y-45420000D01*
X132270000Y-45420000D01*
X132327403Y-45431418D01*
G37*
G04 #@! TD.AperFunction*
G04 #@! TA.AperFunction,SMDPad,CuDef*
G36*
X132327403Y-44161418D02*
G01*
X132376066Y-44193934D01*
X132408582Y-44242597D01*
X132420000Y-44300000D01*
X132420000Y-44600000D01*
X132408582Y-44657403D01*
X132376066Y-44706066D01*
X132327403Y-44738582D01*
X132270000Y-44750000D01*
X130620000Y-44750000D01*
X130562597Y-44738582D01*
X130513934Y-44706066D01*
X130481418Y-44657403D01*
X130470000Y-44600000D01*
X130470000Y-44300000D01*
X130481418Y-44242597D01*
X130513934Y-44193934D01*
X130562597Y-44161418D01*
X130620000Y-44150000D01*
X132270000Y-44150000D01*
X132327403Y-44161418D01*
G37*
G04 #@! TD.AperFunction*
D18*
X151765000Y-79375000D03*
X151765000Y-74295000D03*
X151765000Y-69215000D03*
X151765000Y-64135000D03*
X151765000Y-59055000D03*
X151765000Y-53975000D03*
X151765000Y-48895000D03*
G04 #@! TA.AperFunction,ComponentPad*
G36*
X153410671Y-42794030D02*
G01*
X153491777Y-42848223D01*
X153545970Y-42929329D01*
X153565000Y-43024999D01*
X153565000Y-44605001D01*
X153545970Y-44700671D01*
X153491777Y-44781777D01*
X153410671Y-44835970D01*
X153315001Y-44855000D01*
X150214999Y-44855000D01*
X150119329Y-44835970D01*
X150038223Y-44781777D01*
X149984030Y-44700671D01*
X149965000Y-44605001D01*
X149965000Y-43024999D01*
X149984030Y-42929329D01*
X150038223Y-42848223D01*
X150119329Y-42794030D01*
X150214999Y-42775000D01*
X153315001Y-42775000D01*
X153410671Y-42794030D01*
G37*
G04 #@! TD.AperFunction*
X151765000Y-125095000D03*
X151765000Y-120015000D03*
X151765000Y-114935000D03*
X151765000Y-109855000D03*
X151765000Y-104775000D03*
X151765000Y-99695000D03*
X151765000Y-94615000D03*
G04 #@! TA.AperFunction,ComponentPad*
G36*
X153410671Y-88514030D02*
G01*
X153491777Y-88568223D01*
X153545970Y-88649329D01*
X153565000Y-88744999D01*
X153565000Y-90325001D01*
X153545970Y-90420671D01*
X153491777Y-90501777D01*
X153410671Y-90555970D01*
X153315001Y-90575000D01*
X150214999Y-90575000D01*
X150119329Y-90555970D01*
X150038223Y-90501777D01*
X149984030Y-90420671D01*
X149965000Y-90325001D01*
X149965000Y-88744999D01*
X149984030Y-88649329D01*
X150038223Y-88568223D01*
X150119329Y-88514030D01*
X150214999Y-88495000D01*
X153315001Y-88495000D01*
X153410671Y-88514030D01*
G37*
G04 #@! TD.AperFunction*
D19*
X100965000Y-94615000D03*
X100965000Y-92075000D03*
X100965000Y-89535000D03*
X100965000Y-86995000D03*
D20*
X100965000Y-84455000D03*
D19*
X87525225Y-112395000D03*
X87525225Y-109855000D03*
X87525225Y-107315000D03*
X87525225Y-104775000D03*
X87525225Y-102235000D03*
D20*
X87525225Y-99695000D03*
D19*
X100965000Y-112395000D03*
X100965000Y-109855000D03*
X100965000Y-107315000D03*
X100965000Y-104775000D03*
X100965000Y-102235000D03*
D20*
X100965000Y-99695000D03*
D18*
X85725000Y-91440000D03*
X85725000Y-86360000D03*
X85725000Y-81280000D03*
G04 #@! TA.AperFunction,ComponentPad*
G36*
X87370671Y-75179030D02*
G01*
X87451777Y-75233223D01*
X87505970Y-75314329D01*
X87525000Y-75409999D01*
X87525000Y-76990001D01*
X87505970Y-77085671D01*
X87451777Y-77166777D01*
X87370671Y-77220970D01*
X87275001Y-77240000D01*
X84174999Y-77240000D01*
X84079329Y-77220970D01*
X83998223Y-77166777D01*
X83944030Y-77085671D01*
X83925000Y-76990001D01*
X83925000Y-75409999D01*
X83944030Y-75314329D01*
X83998223Y-75233223D01*
X84079329Y-75179030D01*
X84174999Y-75160000D01*
X87275001Y-75160000D01*
X87370671Y-75179030D01*
G37*
G04 #@! TD.AperFunction*
D13*
X145035000Y-79375000D03*
X148335000Y-79375000D03*
X145035000Y-74295000D03*
X148335000Y-74295000D03*
X145035000Y-69215000D03*
X148335000Y-69215000D03*
X145035000Y-64135000D03*
X148335000Y-64135000D03*
X145035000Y-59055000D03*
X148335000Y-59055000D03*
X145035000Y-53975000D03*
X148335000Y-53975000D03*
X145035000Y-48895000D03*
X148335000Y-48895000D03*
X145035000Y-43815000D03*
X148335000Y-43815000D03*
X145035000Y-125095000D03*
X148335000Y-125095000D03*
X145035000Y-120015000D03*
X148335000Y-120015000D03*
X145035000Y-114935000D03*
X148335000Y-114935000D03*
X145035000Y-109855000D03*
X148335000Y-109855000D03*
X145035000Y-104775000D03*
X148335000Y-104775000D03*
X145035000Y-99695000D03*
X148335000Y-99695000D03*
X145035000Y-94615000D03*
X148335000Y-94615000D03*
X145035000Y-89535000D03*
X148335000Y-89535000D03*
G04 #@! TA.AperFunction,SMDPad,CuDef*
G36*
X100035671Y-78519030D02*
G01*
X100116777Y-78573223D01*
X100170970Y-78654329D01*
X100190000Y-78750000D01*
X100190000Y-80000000D01*
X100170970Y-80095671D01*
X100116777Y-80176777D01*
X100035671Y-80230970D01*
X99940000Y-80250000D01*
X99015000Y-80250000D01*
X98919329Y-80230970D01*
X98838223Y-80176777D01*
X98784030Y-80095671D01*
X98765000Y-80000000D01*
X98765000Y-78750000D01*
X98784030Y-78654329D01*
X98838223Y-78573223D01*
X98919329Y-78519030D01*
X99015000Y-78500000D01*
X99940000Y-78500000D01*
X100035671Y-78519030D01*
G37*
G04 #@! TD.AperFunction*
G04 #@! TA.AperFunction,SMDPad,CuDef*
G36*
X103010671Y-78519030D02*
G01*
X103091777Y-78573223D01*
X103145970Y-78654329D01*
X103165000Y-78750000D01*
X103165000Y-80000000D01*
X103145970Y-80095671D01*
X103091777Y-80176777D01*
X103010671Y-80230970D01*
X102915000Y-80250000D01*
X101990000Y-80250000D01*
X101894329Y-80230970D01*
X101813223Y-80176777D01*
X101759030Y-80095671D01*
X101740000Y-80000000D01*
X101740000Y-78750000D01*
X101759030Y-78654329D01*
X101813223Y-78573223D01*
X101894329Y-78519030D01*
X101990000Y-78500000D01*
X102915000Y-78500000D01*
X103010671Y-78519030D01*
G37*
G04 #@! TD.AperFunction*
G04 #@! TA.AperFunction,SMDPad,CuDef*
G36*
X82930000Y-60840000D02*
G01*
X82930000Y-58540000D01*
X86530000Y-59140000D01*
X86530000Y-60240000D01*
X82930000Y-60840000D01*
G37*
G04 #@! TD.AperFunction*
G04 #@! TA.AperFunction,SMDPad,CuDef*
G36*
X92330000Y-58540000D02*
G01*
X92330000Y-60840000D01*
X88730000Y-60240000D01*
X88730000Y-59140000D01*
X92330000Y-58540000D01*
G37*
G04 #@! TD.AperFunction*
G04 #@! TA.AperFunction,SMDPad,CuDef*
G36*
X122730671Y-86314030D02*
G01*
X122811777Y-86368223D01*
X122865970Y-86449329D01*
X122885000Y-86544999D01*
X122885000Y-87445001D01*
X122865970Y-87540671D01*
X122811777Y-87621777D01*
X122730671Y-87675970D01*
X122635001Y-87695000D01*
X121984999Y-87695000D01*
X121889329Y-87675970D01*
X121808223Y-87621777D01*
X121754030Y-87540671D01*
X121735000Y-87445001D01*
X121735000Y-86544999D01*
X121754030Y-86449329D01*
X121808223Y-86368223D01*
X121889329Y-86314030D01*
X121984999Y-86295000D01*
X122635001Y-86295000D01*
X122730671Y-86314030D01*
G37*
G04 #@! TD.AperFunction*
G04 #@! TA.AperFunction,SMDPad,CuDef*
G36*
X120680671Y-86314030D02*
G01*
X120761777Y-86368223D01*
X120815970Y-86449329D01*
X120835000Y-86544999D01*
X120835000Y-87445001D01*
X120815970Y-87540671D01*
X120761777Y-87621777D01*
X120680671Y-87675970D01*
X120585001Y-87695000D01*
X119934999Y-87695000D01*
X119839329Y-87675970D01*
X119758223Y-87621777D01*
X119704030Y-87540671D01*
X119685000Y-87445001D01*
X119685000Y-86544999D01*
X119704030Y-86449329D01*
X119758223Y-86368223D01*
X119839329Y-86314030D01*
X119934999Y-86295000D01*
X120585001Y-86295000D01*
X120680671Y-86314030D01*
G37*
G04 #@! TD.AperFunction*
G04 #@! TA.AperFunction,SMDPad,CuDef*
G36*
X103415671Y-65729030D02*
G01*
X103496777Y-65783223D01*
X103550970Y-65864329D01*
X103570000Y-65959999D01*
X103570000Y-66610001D01*
X103550970Y-66705671D01*
X103496777Y-66786777D01*
X103415671Y-66840970D01*
X103320001Y-66860000D01*
X102419999Y-66860000D01*
X102324329Y-66840970D01*
X102243223Y-66786777D01*
X102189030Y-66705671D01*
X102170000Y-66610001D01*
X102170000Y-65959999D01*
X102189030Y-65864329D01*
X102243223Y-65783223D01*
X102324329Y-65729030D01*
X102419999Y-65710000D01*
X103320001Y-65710000D01*
X103415671Y-65729030D01*
G37*
G04 #@! TD.AperFunction*
G04 #@! TA.AperFunction,SMDPad,CuDef*
G36*
X103415671Y-67779030D02*
G01*
X103496777Y-67833223D01*
X103550970Y-67914329D01*
X103570000Y-68009999D01*
X103570000Y-68660001D01*
X103550970Y-68755671D01*
X103496777Y-68836777D01*
X103415671Y-68890970D01*
X103320001Y-68910000D01*
X102419999Y-68910000D01*
X102324329Y-68890970D01*
X102243223Y-68836777D01*
X102189030Y-68755671D01*
X102170000Y-68660001D01*
X102170000Y-68009999D01*
X102189030Y-67914329D01*
X102243223Y-67833223D01*
X102324329Y-67779030D01*
X102419999Y-67760000D01*
X103320001Y-67760000D01*
X103415671Y-67779030D01*
G37*
G04 #@! TD.AperFunction*
D21*
X89535000Y-67905000D03*
D22*
X89535000Y-65405000D03*
D23*
X104858579Y-97362290D03*
X105775355Y-97761721D03*
X129540000Y-123190000D03*
X129540000Y-120650000D03*
X128905000Y-113030000D03*
X128905000Y-111125000D03*
X129295000Y-102870000D03*
X129540000Y-100965000D03*
X129540000Y-92710000D03*
X129540000Y-90805000D03*
X129295000Y-77470000D03*
X129540000Y-75565000D03*
X129540000Y-67310000D03*
X128905000Y-65405000D03*
X129295000Y-57150000D03*
X129540000Y-55245000D03*
X129295000Y-46990000D03*
X128905000Y-45085000D03*
X119380000Y-88265000D03*
X94615000Y-97790000D03*
X97790000Y-86995000D03*
X97790000Y-75565000D03*
X104775000Y-69215000D03*
X115570000Y-72390000D03*
X146050000Y-89535000D03*
X142875000Y-89535000D03*
X146050000Y-94615000D03*
X142875000Y-94615000D03*
X146050000Y-99695000D03*
X142875000Y-99695000D03*
X146050000Y-104775000D03*
X142875000Y-104775000D03*
X146050000Y-109855000D03*
X142875000Y-109855000D03*
X146050000Y-114935000D03*
X142875000Y-114935000D03*
X146050000Y-120015000D03*
X142875000Y-120015000D03*
X146050000Y-125095000D03*
X142875000Y-125095000D03*
X136460000Y-90740000D03*
X136525000Y-94615000D03*
X136460000Y-100900000D03*
X136345710Y-105865710D03*
X136460000Y-111190000D03*
X136525000Y-114935000D03*
X136460000Y-121220000D03*
X136525000Y-125095000D03*
X146050000Y-43815000D03*
X142875000Y-43815000D03*
X146050000Y-48895000D03*
X142875000Y-48895000D03*
X146050000Y-53975000D03*
X142875000Y-53975000D03*
X146050000Y-59055000D03*
X142875000Y-59055000D03*
X146050000Y-64135000D03*
X142875000Y-64135000D03*
X146050000Y-69215000D03*
X142875000Y-69215000D03*
X146050000Y-74295000D03*
X142875000Y-74295000D03*
X146050000Y-79375000D03*
X142875000Y-79375000D03*
X136395000Y-44955000D03*
X136980710Y-49985710D03*
X136460000Y-55180000D03*
X135890000Y-59055000D03*
X136460000Y-65340000D03*
X135890000Y-69215000D03*
X136395000Y-75695000D03*
X135890000Y-79375000D03*
X105292590Y-85725000D03*
X104775000Y-92075000D03*
X104775000Y-90170000D03*
X111760000Y-51435000D03*
X111772779Y-76835000D03*
X110575984Y-78622590D03*
X112395000Y-56515000D03*
X112277590Y-81915000D03*
X113030000Y-59055000D03*
X112395000Y-80010000D03*
X113030000Y-120015000D03*
X113030000Y-53975000D03*
X113782410Y-78105000D03*
X113782410Y-112395000D03*
X118110000Y-83185000D03*
X90805000Y-54610000D03*
X100965000Y-54610000D03*
X94364757Y-54640649D03*
X94615000Y-59055000D03*
X106680000Y-54610000D03*
X95885000Y-50165000D03*
X104524757Y-58450649D03*
X104580000Y-56320000D03*
X97155000Y-93345000D03*
X97272410Y-92075000D03*
X102235000Y-60960000D03*
D24*
X105673000Y-99695000D02*
X103768000Y-97790000D01*
X103768000Y-97790000D02*
X94615000Y-97790000D01*
X105673000Y-102235000D02*
X105673000Y-99695000D01*
X105673000Y-104775000D02*
X105673000Y-102235000D01*
X105673000Y-107315000D02*
X105673000Y-104775000D01*
X105673000Y-109855000D02*
X105673000Y-107315000D01*
X100965000Y-109855000D02*
X103623000Y-109855000D01*
X100965000Y-107315000D02*
X103623000Y-107315000D01*
X100965000Y-104775000D02*
X103623000Y-104775000D01*
X100965000Y-102235000D02*
X103623000Y-102235000D01*
X100965000Y-99695000D02*
X103623000Y-99695000D01*
D25*
X107080200Y-97155000D02*
X106887491Y-96962291D01*
X108585000Y-97155000D02*
X107080200Y-97155000D01*
X112795200Y-99060000D02*
X107950000Y-99060000D01*
X107073634Y-99060000D02*
X105775355Y-97761721D01*
X106887491Y-96962291D02*
X105258578Y-96962291D01*
X105258578Y-96962291D02*
X104858579Y-97362290D01*
X107950000Y-99060000D02*
X107073634Y-99060000D01*
X128025000Y-74930000D02*
X127390000Y-74295000D01*
X131445000Y-74930000D02*
X128025000Y-74930000D01*
X129295000Y-77470000D02*
X127390000Y-79375000D01*
X129295000Y-67310000D02*
X127390000Y-69215000D01*
X128025000Y-64770000D02*
X127390000Y-64135000D01*
X131510000Y-64770000D02*
X128025000Y-64770000D01*
X129295000Y-57150000D02*
X127390000Y-59055000D01*
X128025000Y-54610000D02*
X127390000Y-53975000D01*
X131510000Y-54610000D02*
X128025000Y-54610000D01*
X129295000Y-46990000D02*
X127390000Y-48895000D01*
X128025000Y-44450000D02*
X127390000Y-43815000D01*
X131445000Y-44450000D02*
X128025000Y-44450000D01*
X128025000Y-90170000D02*
X127390000Y-89535000D01*
X131510000Y-90170000D02*
X128025000Y-90170000D01*
X129295000Y-92710000D02*
X127390000Y-94615000D01*
X128025000Y-100330000D02*
X127390000Y-99695000D01*
X131510000Y-100330000D02*
X128025000Y-100330000D01*
X129295000Y-102870000D02*
X127390000Y-104775000D01*
X128025000Y-110490000D02*
X127390000Y-109855000D01*
X131510000Y-110490000D02*
X128025000Y-110490000D01*
X129295000Y-113030000D02*
X127390000Y-114935000D01*
X131510000Y-113030000D02*
X129295000Y-113030000D01*
X128025000Y-120650000D02*
X127390000Y-120015000D01*
X129295000Y-123190000D02*
X127390000Y-125095000D01*
D26*
X86485000Y-81280000D02*
X85725000Y-81280000D01*
X93590000Y-75955000D02*
X91810000Y-75955000D01*
X91810000Y-75955000D02*
X86485000Y-81280000D01*
X97790000Y-71755000D02*
X93590000Y-75955000D01*
X97790000Y-62670000D02*
X97790000Y-71755000D01*
X92253630Y-71755000D02*
X97790000Y-71755000D01*
X89535000Y-69036370D02*
X92253630Y-71755000D01*
X89535000Y-67905000D02*
X89535000Y-69036370D01*
X93590000Y-79375000D02*
X90805000Y-79375000D01*
X90805000Y-79375000D02*
X88900000Y-81280000D01*
X88900000Y-81280000D02*
X85725000Y-81280000D01*
X101405000Y-66285000D02*
X97790000Y-62670000D01*
X102870000Y-66285000D02*
X101405000Y-66285000D01*
X100115001Y-113244999D02*
X100965000Y-112395000D01*
X88375224Y-113244999D02*
X100115001Y-113244999D01*
X87525225Y-112395000D02*
X88375224Y-113244999D01*
D27*
X108585000Y-86995000D02*
X106045000Y-86995000D01*
X103505000Y-89535000D02*
X100965000Y-89535000D01*
X106045000Y-86995000D02*
X103505000Y-89535000D01*
D26*
X100965000Y-113597081D02*
X100965000Y-112395000D01*
X100965000Y-117875000D02*
X100965000Y-113597081D01*
X108185000Y-125095000D02*
X100965000Y-117875000D01*
X108585000Y-125095000D02*
X108185000Y-125095000D01*
D27*
X131510000Y-123190000D02*
X129540000Y-123190000D01*
D25*
X129540000Y-123190000D02*
X129295000Y-123190000D01*
D27*
X131510000Y-120650000D02*
X129540000Y-120650000D01*
D25*
X129540000Y-120650000D02*
X128025000Y-120650000D01*
D27*
X131510000Y-113030000D02*
X128905000Y-113030000D01*
X129540000Y-110490000D02*
X128905000Y-111125000D01*
X131510000Y-110490000D02*
X129540000Y-110490000D01*
X131510000Y-102870000D02*
X129295000Y-102870000D01*
X131510000Y-100330000D02*
X130175000Y-100330000D01*
X130175000Y-100330000D02*
X129540000Y-100965000D01*
X131510000Y-92710000D02*
X129540000Y-92710000D01*
D25*
X129540000Y-92710000D02*
X129295000Y-92710000D01*
D27*
X130175000Y-90170000D02*
X129540000Y-90805000D01*
X131510000Y-90170000D02*
X130175000Y-90170000D01*
X131445000Y-77470000D02*
X129295000Y-77470000D01*
X130175000Y-74930000D02*
X129540000Y-75565000D01*
X131445000Y-74930000D02*
X130175000Y-74930000D01*
X131510000Y-67310000D02*
X129540000Y-67310000D01*
D25*
X129540000Y-67310000D02*
X129295000Y-67310000D01*
D27*
X131510000Y-64770000D02*
X129540000Y-64770000D01*
X129540000Y-64770000D02*
X128905000Y-65405000D01*
X131510000Y-57150000D02*
X129295000Y-57150000D01*
X131510000Y-54610000D02*
X130175000Y-54610000D01*
X130175000Y-54610000D02*
X129540000Y-55245000D01*
X131445000Y-46990000D02*
X129295000Y-46990000D01*
X129540000Y-44450000D02*
X128905000Y-45085000D01*
X131445000Y-44450000D02*
X129540000Y-44450000D01*
D25*
X120922410Y-85607410D02*
X122310000Y-86995000D01*
X111477390Y-85607410D02*
X120922410Y-85607410D01*
X110089800Y-86995000D02*
X111477390Y-85607410D01*
X108585000Y-86995000D02*
X110089800Y-86995000D01*
D26*
X103260000Y-66675000D02*
X102870000Y-66285000D01*
X108585000Y-66675000D02*
X103260000Y-66675000D01*
X90530000Y-64410000D02*
X89535000Y-65405000D01*
X90530000Y-59690000D02*
X90530000Y-64410000D01*
X92445000Y-65405000D02*
X89535000Y-65405000D01*
X95510000Y-68470000D02*
X92445000Y-65405000D01*
X95510000Y-68970000D02*
X95510000Y-68470000D01*
D27*
X139945000Y-79375000D02*
X139945000Y-74295000D01*
X139945000Y-74295000D02*
X139945000Y-69215000D01*
X139945000Y-69215000D02*
X139945000Y-64135000D01*
X139945000Y-64135000D02*
X139945000Y-59055000D01*
X139945000Y-59055000D02*
X139945000Y-53975000D01*
X139945000Y-53975000D02*
X139945000Y-48895000D01*
X139945000Y-48895000D02*
X139945000Y-43815000D01*
X139945000Y-125095000D02*
X139945000Y-120015000D01*
X139945000Y-120015000D02*
X139945000Y-114935000D01*
X139945000Y-114935000D02*
X139945000Y-109855000D01*
X139945000Y-109855000D02*
X139945000Y-104775000D01*
X139945000Y-104775000D02*
X139945000Y-99695000D01*
X139945000Y-99695000D02*
X139945000Y-94615000D01*
X139945000Y-94615000D02*
X139945000Y-89535000D01*
D26*
X100705000Y-68335000D02*
X100070000Y-68970000D01*
X102870000Y-68335000D02*
X100705000Y-68335000D01*
D25*
X94370000Y-109855000D02*
X94370000Y-107315000D01*
X94370000Y-107315000D02*
X94370000Y-104775000D01*
X94370000Y-104775000D02*
X94370000Y-102235000D01*
X94370000Y-102235000D02*
X94370000Y-99695000D01*
X96910000Y-86995000D02*
X95640000Y-85725000D01*
X100965000Y-86995000D02*
X96910000Y-86995000D01*
D27*
X116205000Y-86995000D02*
X120260000Y-86995000D01*
X116205000Y-47460000D02*
X115100000Y-46355000D01*
X116205000Y-48895000D02*
X116205000Y-47460000D01*
X119380000Y-87875000D02*
X120260000Y-86995000D01*
X119380000Y-88265000D02*
X119380000Y-87875000D01*
X94370000Y-98035000D02*
X94615000Y-97790000D01*
X94370000Y-99695000D02*
X94370000Y-98035000D01*
X97790000Y-86995000D02*
X100965000Y-86995000D01*
X100070000Y-74165000D02*
X99940000Y-74295000D01*
X100070000Y-68970000D02*
X100070000Y-74165000D01*
X98670000Y-75565000D02*
X99940000Y-74295000D01*
X97790000Y-75565000D02*
X98670000Y-75565000D01*
X100315000Y-69215000D02*
X100070000Y-68970000D01*
X104775000Y-69215000D02*
X100315000Y-69215000D01*
X112395000Y-69215000D02*
X104775000Y-69215000D01*
X115570000Y-72390000D02*
X112395000Y-69215000D01*
X119380000Y-88265000D02*
X123190000Y-88265000D01*
X124705000Y-86750000D02*
X139945000Y-86750000D01*
X123190000Y-88265000D02*
X124705000Y-86750000D01*
X139945000Y-86750000D02*
X139945000Y-79375000D01*
X139945000Y-89535000D02*
X139945000Y-86750000D01*
D26*
X84730000Y-75205000D02*
X85725000Y-76200000D01*
X84730000Y-59690000D02*
X84730000Y-75205000D01*
D25*
X113547601Y-80762401D02*
X103839901Y-80762401D01*
X103839901Y-80762401D02*
X103221192Y-80143692D01*
X116205000Y-81915000D02*
X114700200Y-81915000D01*
X103221192Y-80143692D02*
X102452500Y-79375000D01*
X114700200Y-81915000D02*
X113547601Y-80762401D01*
X99477500Y-79375000D02*
X99477500Y-78322500D01*
X101990000Y-75810000D02*
X101990000Y-74295000D01*
X99477500Y-78322500D02*
X101990000Y-75810000D01*
X145035000Y-89535000D02*
X146050000Y-89535000D01*
X141995000Y-89535000D02*
X142875000Y-89535000D01*
X145035000Y-94615000D02*
X146050000Y-94615000D01*
X142875000Y-94615000D02*
X141995000Y-94615000D01*
X145035000Y-99695000D02*
X146050000Y-99695000D01*
X142875000Y-99695000D02*
X141995000Y-99695000D01*
X145035000Y-104775000D02*
X146050000Y-104775000D01*
X141995000Y-104775000D02*
X142875000Y-104775000D01*
X145035000Y-109855000D02*
X146050000Y-109855000D01*
X142875000Y-109855000D02*
X141995000Y-109855000D01*
X145035000Y-114935000D02*
X146050000Y-114935000D01*
X142875000Y-114935000D02*
X141995000Y-114935000D01*
X145035000Y-120015000D02*
X146050000Y-120015000D01*
X141995000Y-120015000D02*
X142875000Y-120015000D01*
X145035000Y-125095000D02*
X146050000Y-125095000D01*
X141995000Y-125095000D02*
X142875000Y-125095000D01*
X151765000Y-89535000D02*
X148335000Y-89535000D01*
D27*
X136460000Y-91440000D02*
X136460000Y-90740000D01*
X136460000Y-90740000D02*
X136460000Y-90170000D01*
D25*
X151765000Y-94615000D02*
X148335000Y-94615000D01*
D27*
X136460000Y-92710000D02*
X136460000Y-93980000D01*
X136460000Y-94550000D02*
X136525000Y-94615000D01*
X136460000Y-93980000D02*
X136460000Y-94550000D01*
D25*
X151765000Y-99695000D02*
X148335000Y-99695000D01*
D27*
X136460000Y-101600000D02*
X136460000Y-100900000D01*
X136460000Y-100900000D02*
X136460000Y-100330000D01*
D25*
X151765000Y-104775000D02*
X148335000Y-104775000D01*
D27*
X136460000Y-105751420D02*
X136345710Y-105865710D01*
X136460000Y-103570000D02*
X136460000Y-105751420D01*
X136460000Y-102870000D02*
X136460000Y-103570000D01*
X136460000Y-103570000D02*
X136460000Y-104140000D01*
D25*
X151765000Y-109855000D02*
X148335000Y-109855000D01*
D27*
X136460000Y-111760000D02*
X136460000Y-111190000D01*
X136460000Y-111190000D02*
X136460000Y-110490000D01*
D25*
X151765000Y-114935000D02*
X148335000Y-114935000D01*
D27*
X136460000Y-113030000D02*
X136460000Y-114300000D01*
X136460000Y-114870000D02*
X136525000Y-114935000D01*
X136460000Y-114300000D02*
X136460000Y-114870000D01*
D25*
X151765000Y-120015000D02*
X148335000Y-120015000D01*
D27*
X136460000Y-120650000D02*
X136460000Y-121220000D01*
X136460000Y-121220000D02*
X136460000Y-121920000D01*
D25*
X151765000Y-125095000D02*
X148335000Y-125095000D01*
D27*
X136460000Y-123190000D02*
X136460000Y-124460000D01*
X136460000Y-125030000D02*
X136525000Y-125095000D01*
X136460000Y-124460000D02*
X136460000Y-125030000D01*
D25*
X145035000Y-43815000D02*
X146050000Y-43815000D01*
X141995000Y-43815000D02*
X142875000Y-43815000D01*
X145035000Y-48895000D02*
X146050000Y-48895000D01*
X141995000Y-48895000D02*
X142875000Y-48895000D01*
X145035000Y-53975000D02*
X146050000Y-53975000D01*
X141995000Y-53975000D02*
X142875000Y-53975000D01*
X145035000Y-59055000D02*
X146050000Y-59055000D01*
X142875000Y-59055000D02*
X141995000Y-59055000D01*
X145035000Y-64135000D02*
X146050000Y-64135000D01*
X141995000Y-64135000D02*
X142875000Y-64135000D01*
X145035000Y-69215000D02*
X146050000Y-69215000D01*
X142875000Y-69215000D02*
X141995000Y-69215000D01*
X145035000Y-74295000D02*
X146050000Y-74295000D01*
X141995000Y-74295000D02*
X142875000Y-74295000D01*
X145035000Y-79375000D02*
X146050000Y-79375000D01*
X142875000Y-79375000D02*
X141995000Y-79375000D01*
X151765000Y-43815000D02*
X148335000Y-43815000D01*
D27*
X136395000Y-44450000D02*
X136395000Y-44955000D01*
X136395000Y-45720000D02*
X136395000Y-44955000D01*
D25*
X151765000Y-48895000D02*
X148335000Y-48895000D01*
D27*
X136395000Y-47495000D02*
X136395000Y-49400000D01*
X136395000Y-49400000D02*
X136980710Y-49985710D01*
X136395000Y-46990000D02*
X136395000Y-47495000D01*
X136395000Y-47495000D02*
X136395000Y-48260000D01*
D25*
X151765000Y-53975000D02*
X148335000Y-53975000D01*
D27*
X136460000Y-55880000D02*
X136460000Y-55180000D01*
X136460000Y-55180000D02*
X136460000Y-54610000D01*
D25*
X151765000Y-59055000D02*
X148335000Y-59055000D01*
D27*
X136460000Y-58485000D02*
X135890000Y-59055000D01*
X136460000Y-57850000D02*
X136460000Y-58485000D01*
X136460000Y-57150000D02*
X136460000Y-57850000D01*
X136460000Y-57850000D02*
X136460000Y-58420000D01*
D25*
X151765000Y-64135000D02*
X148335000Y-64135000D01*
D27*
X136460000Y-66040000D02*
X136460000Y-65340000D01*
X136460000Y-65340000D02*
X136460000Y-64770000D01*
D25*
X151765000Y-69215000D02*
X148335000Y-69215000D01*
D27*
X136460000Y-68645000D02*
X135890000Y-69215000D01*
X136460000Y-67880000D02*
X136460000Y-68645000D01*
X136460000Y-68580000D02*
X136460000Y-67880000D01*
X136460000Y-67880000D02*
X136460000Y-67310000D01*
D25*
X149660200Y-74295000D02*
X148335000Y-74295000D01*
X151765000Y-74295000D02*
X149660200Y-74295000D01*
D27*
X136395000Y-76200000D02*
X136395000Y-75695000D01*
X136395000Y-75695000D02*
X136395000Y-74930000D01*
D25*
X151765000Y-79375000D02*
X148335000Y-79375000D01*
D27*
X136395000Y-78870000D02*
X135890000Y-79375000D01*
X136395000Y-77975000D02*
X136395000Y-78870000D01*
X136395000Y-77470000D02*
X136395000Y-77975000D01*
X136395000Y-77975000D02*
X136395000Y-78740000D01*
D24*
X85725000Y-91440000D02*
X93590000Y-91440000D01*
X86082000Y-88265000D02*
X85725000Y-87908000D01*
X93590000Y-88265000D02*
X86082000Y-88265000D01*
X85725000Y-87908000D02*
X85725000Y-86360000D01*
D25*
X116205000Y-84455000D02*
X111915890Y-84455000D01*
X111915890Y-84455000D02*
X110645890Y-85725000D01*
X110645890Y-85725000D02*
X105858275Y-85725000D01*
X105858275Y-85725000D02*
X105292590Y-85725000D01*
X114700200Y-97155000D02*
X112795200Y-99060000D01*
X116205000Y-97155000D02*
X114700200Y-97155000D01*
X104775000Y-92075000D02*
X108585000Y-92075000D01*
X107950000Y-90170000D02*
X108585000Y-89535000D01*
X104775000Y-90170000D02*
X107950000Y-90170000D01*
X92320000Y-109855000D02*
X87525225Y-109855000D01*
X92320000Y-107315000D02*
X87525225Y-107315000D01*
X87525225Y-104775000D02*
X92320000Y-104775000D01*
X87525225Y-102235000D02*
X92320000Y-102235000D01*
X87525225Y-99695000D02*
X92320000Y-99695000D01*
X101814999Y-93765001D02*
X100965000Y-94615000D01*
X102117410Y-93462590D02*
X101814999Y-93765001D01*
X114700200Y-92075000D02*
X113312610Y-93462590D01*
X113312610Y-93462590D02*
X102117410Y-93462590D01*
X116205000Y-92075000D02*
X114700200Y-92075000D01*
X102117410Y-90922590D02*
X101814999Y-91225001D01*
X114700200Y-89535000D02*
X113312610Y-90922590D01*
X101814999Y-91225001D02*
X100965000Y-92075000D01*
X113312610Y-90922590D02*
X102117410Y-90922590D01*
X116205000Y-89535000D02*
X114700200Y-89535000D01*
X100965000Y-84455000D02*
X108585000Y-84455000D01*
X128270000Y-51435000D02*
X127390000Y-51435000D01*
X131445000Y-48260000D02*
X128270000Y-51435000D01*
X125340000Y-49385000D02*
X125340000Y-48895000D01*
X127390000Y-51435000D02*
X125340000Y-49385000D01*
X125340000Y-44305000D02*
X125340000Y-43815000D01*
X127390000Y-46355000D02*
X125340000Y-44305000D01*
X131445000Y-45720000D02*
X129383556Y-45720000D01*
X129383556Y-45720000D02*
X128748556Y-46355000D01*
X128748556Y-46355000D02*
X128065000Y-46355000D01*
X128065000Y-46355000D02*
X127390000Y-46355000D01*
X128335000Y-61595000D02*
X127390000Y-61595000D01*
X131510000Y-58420000D02*
X128335000Y-61595000D01*
X125340000Y-59545000D02*
X125340000Y-59055000D01*
X127390000Y-61595000D02*
X125340000Y-59545000D01*
X125340000Y-54465000D02*
X125340000Y-53975000D01*
X127390000Y-56515000D02*
X125340000Y-54465000D01*
X131139290Y-56250710D02*
X127654290Y-56250710D01*
X131510000Y-55880000D02*
X131139290Y-56250710D01*
X127654290Y-56250710D02*
X127390000Y-56515000D01*
X128335000Y-71755000D02*
X127390000Y-71755000D01*
X131510000Y-68580000D02*
X128335000Y-71755000D01*
X125340000Y-69705000D02*
X125340000Y-69215000D01*
X127390000Y-71755000D02*
X125340000Y-69705000D01*
X125340000Y-64625000D02*
X125340000Y-64135000D01*
X127390000Y-66675000D02*
X125340000Y-64625000D01*
X131510000Y-66040000D02*
X129383556Y-66040000D01*
X128748556Y-66675000D02*
X128065000Y-66675000D01*
X129383556Y-66040000D02*
X128748556Y-66675000D01*
X128065000Y-66675000D02*
X127390000Y-66675000D01*
X128270000Y-81915000D02*
X127390000Y-81915000D01*
X131445000Y-78740000D02*
X128270000Y-81915000D01*
X125340000Y-79865000D02*
X125340000Y-79375000D01*
X127390000Y-81915000D02*
X125340000Y-79865000D01*
X125340000Y-74785000D02*
X125340000Y-74295000D01*
X127390000Y-76835000D02*
X125340000Y-74785000D01*
X131074290Y-76570710D02*
X127654290Y-76570710D01*
X131445000Y-76200000D02*
X131074290Y-76570710D01*
X127654290Y-76570710D02*
X127390000Y-76835000D01*
X128335000Y-97155000D02*
X127390000Y-97155000D01*
X131510000Y-93980000D02*
X128335000Y-97155000D01*
X125340000Y-95105000D02*
X125340000Y-94615000D01*
X127390000Y-97155000D02*
X125340000Y-95105000D01*
X125340000Y-90025000D02*
X125340000Y-89535000D01*
X127390000Y-92075000D02*
X125340000Y-90025000D01*
X131510000Y-91440000D02*
X131139290Y-91810710D01*
X131139290Y-91810710D02*
X127654290Y-91810710D01*
X127654290Y-91810710D02*
X127390000Y-92075000D01*
X128335000Y-107315000D02*
X127390000Y-107315000D01*
X131510000Y-104140000D02*
X128335000Y-107315000D01*
X125340000Y-105265000D02*
X125340000Y-104775000D01*
X127390000Y-107315000D02*
X125340000Y-105265000D01*
X125340000Y-100185000D02*
X125340000Y-99695000D01*
X127390000Y-102235000D02*
X125340000Y-100185000D01*
X131139290Y-101970710D02*
X127654290Y-101970710D01*
X131510000Y-101600000D02*
X131139290Y-101970710D01*
X127654290Y-101970710D02*
X127390000Y-102235000D01*
X128335000Y-117475000D02*
X127390000Y-117475000D01*
X131510000Y-114300000D02*
X128335000Y-117475000D01*
X125340000Y-115425000D02*
X125340000Y-114935000D01*
X127390000Y-117475000D02*
X125340000Y-115425000D01*
X127390000Y-111905000D02*
X127390000Y-112395000D01*
X125340000Y-109855000D02*
X127390000Y-111905000D01*
X131510000Y-111760000D02*
X131139290Y-112130710D01*
X131139290Y-112130710D02*
X127654290Y-112130710D01*
X127654290Y-112130710D02*
X127390000Y-112395000D01*
X128335000Y-127635000D02*
X127390000Y-127635000D01*
X131510000Y-124460000D02*
X128335000Y-127635000D01*
X125340000Y-125585000D02*
X125340000Y-125095000D01*
X127390000Y-127635000D02*
X125340000Y-125585000D01*
X128025000Y-121920000D02*
X127390000Y-122555000D01*
X131510000Y-121920000D02*
X128025000Y-121920000D01*
X125340000Y-120505000D02*
X125340000Y-120015000D01*
X127390000Y-122555000D02*
X125340000Y-120505000D01*
X120650000Y-105410000D02*
X116205000Y-109855000D01*
X125340000Y-92075000D02*
X120650000Y-96765000D01*
X120650000Y-96765000D02*
X120650000Y-105410000D01*
X117757410Y-111242590D02*
X116605000Y-112395000D01*
X121154810Y-105619100D02*
X117757410Y-109016500D01*
X125340000Y-97155000D02*
X121154811Y-101340189D01*
X121154811Y-101340189D02*
X121154810Y-105619100D01*
X117757410Y-109016500D02*
X117757410Y-111242590D01*
X116605000Y-112395000D02*
X116205000Y-112395000D01*
X116605000Y-114935000D02*
X116205000Y-114935000D01*
X118745000Y-112795000D02*
X116605000Y-114935000D01*
X118745000Y-108830000D02*
X118745000Y-112795000D01*
X125340000Y-102235000D02*
X118745000Y-108830000D01*
X116605000Y-117475000D02*
X116205000Y-117475000D01*
X124412590Y-109667410D02*
X116605000Y-117475000D01*
X124412590Y-108242410D02*
X124412590Y-109667410D01*
X125340000Y-107315000D02*
X124412590Y-108242410D01*
X125340000Y-112395000D02*
X124460000Y-112395000D01*
X124460000Y-112395000D02*
X123190000Y-113665000D01*
X123190000Y-113665000D02*
X123190000Y-117475000D01*
X120650000Y-120015000D02*
X116205000Y-120015000D01*
X123190000Y-117475000D02*
X120650000Y-120015000D01*
X125340000Y-117475000D02*
X124460000Y-117475000D01*
X124460000Y-117475000D02*
X123190000Y-118745000D01*
X123190000Y-118745000D02*
X123190000Y-121285000D01*
X121920000Y-122555000D02*
X116205000Y-122555000D01*
X123190000Y-121285000D02*
X121920000Y-122555000D01*
X125340000Y-122555000D02*
X124460000Y-122555000D01*
X121920000Y-125095000D02*
X116205000Y-125095000D01*
X124460000Y-122555000D02*
X121920000Y-125095000D01*
X110490000Y-122555000D02*
X108585000Y-122555000D01*
X115570000Y-127635000D02*
X110490000Y-122555000D01*
X125340000Y-127635000D02*
X115570000Y-127635000D01*
X116605000Y-51435000D02*
X116205000Y-51435000D01*
X117709800Y-49930200D02*
X117709800Y-50330200D01*
X117709800Y-50330200D02*
X116605000Y-51435000D01*
X121285000Y-46355000D02*
X117709800Y-49930200D01*
X125340000Y-46355000D02*
X121285000Y-46355000D01*
X117709800Y-52870200D02*
X116605000Y-53975000D01*
X117709800Y-52470200D02*
X117709800Y-52870200D01*
X116605000Y-53975000D02*
X116205000Y-53975000D01*
X118745000Y-51435000D02*
X117709800Y-52470200D01*
X125340000Y-51435000D02*
X118745000Y-51435000D01*
X125340000Y-56515000D02*
X116205000Y-56515000D01*
X116605000Y-59055000D02*
X116205000Y-59055000D01*
X117709800Y-60159800D02*
X116605000Y-59055000D01*
X117709800Y-60559800D02*
X117709800Y-60159800D01*
X118745000Y-61595000D02*
X117709800Y-60559800D01*
X125340000Y-61595000D02*
X118745000Y-61595000D01*
X117709800Y-61595000D02*
X122789800Y-66675000D01*
X124665000Y-66675000D02*
X125340000Y-66675000D01*
X122789800Y-66675000D02*
X124665000Y-66675000D01*
X116205000Y-61595000D02*
X117709800Y-61595000D01*
X117720000Y-64135000D02*
X125340000Y-71755000D01*
X116205000Y-64135000D02*
X117720000Y-64135000D01*
X116205000Y-67779800D02*
X125260200Y-76835000D01*
X116205000Y-66675000D02*
X116205000Y-67779800D01*
X125260200Y-76835000D02*
X125340000Y-76835000D01*
X120650000Y-75800000D02*
X120650000Y-77225000D01*
X108585000Y-64135000D02*
X108985000Y-64135000D01*
X108985000Y-64135000D02*
X120650000Y-75800000D01*
X120650000Y-77225000D02*
X124717446Y-81292446D01*
X124717446Y-81292446D02*
X125340000Y-81915000D01*
X108585000Y-51435000D02*
X111760000Y-51435000D01*
X116205000Y-76835000D02*
X111772779Y-76835000D01*
X116205000Y-79375000D02*
X114700200Y-79375000D01*
X114700200Y-79375000D02*
X114195389Y-78870189D01*
X111141669Y-78622590D02*
X110575984Y-78622590D01*
X111389268Y-78870189D02*
X111141669Y-78622590D01*
X114195389Y-78870189D02*
X111389268Y-78870189D01*
X108585000Y-56515000D02*
X112395000Y-56515000D01*
X108585000Y-81915000D02*
X112277590Y-81915000D01*
X108585000Y-59055000D02*
X113030000Y-59055000D01*
X111760000Y-79375000D02*
X108585000Y-79375000D01*
X112395000Y-80010000D02*
X111760000Y-79375000D01*
X108585000Y-120015000D02*
X113030000Y-120015000D01*
X113030000Y-53975000D02*
X108585000Y-53975000D01*
X110089800Y-76835000D02*
X111359800Y-78105000D01*
X108585000Y-76835000D02*
X110089800Y-76835000D01*
X113216725Y-78105000D02*
X113782410Y-78105000D01*
X111359800Y-78105000D02*
X113216725Y-78105000D01*
X108585000Y-112395000D02*
X113782410Y-112395000D01*
X93590000Y-86215000D02*
X93590000Y-85725000D01*
X95640000Y-88265000D02*
X93590000Y-86215000D01*
X93590000Y-85725000D02*
X93590000Y-82550000D01*
X93590000Y-81425000D02*
X95640000Y-79375000D01*
X93590000Y-82550000D02*
X93590000Y-81425000D01*
X96275000Y-83185000D02*
X118110000Y-83185000D01*
X95640000Y-82550000D02*
X96275000Y-83185000D01*
D27*
X106680000Y-46990000D02*
X107315000Y-46355000D01*
X115100000Y-46355000D02*
X107315000Y-46355000D01*
X106680000Y-61595000D02*
X108585000Y-61595000D01*
D24*
X96910000Y-44840000D02*
X96910000Y-46990000D01*
X95250000Y-43180000D02*
X96910000Y-44840000D01*
X100330000Y-44695000D02*
X102625000Y-46990000D01*
X100330000Y-43180000D02*
X100330000Y-44695000D01*
X93600000Y-46990000D02*
X91060000Y-49530000D01*
X94860000Y-46990000D02*
X93600000Y-46990000D01*
X100575000Y-49520000D02*
X100585000Y-49530000D01*
X100575000Y-46990000D02*
X100575000Y-49520000D01*
X103885000Y-51300000D02*
X103115000Y-52070000D01*
X103885000Y-49530000D02*
X103885000Y-51300000D01*
X103115000Y-52070000D02*
X101355000Y-52070000D01*
X105165000Y-52070000D02*
X105165000Y-53975000D01*
X105410000Y-51825000D02*
X105165000Y-52070000D01*
X105410000Y-43180000D02*
X105410000Y-51825000D01*
X99305000Y-52070000D02*
X99305000Y-53975000D01*
X98670000Y-53340000D02*
X99305000Y-53975000D01*
X97155000Y-53340000D02*
X98670000Y-53340000D01*
X103115000Y-53975000D02*
X103115000Y-55880000D01*
X89145000Y-52070000D02*
X89145000Y-53975000D01*
X91195000Y-52070000D02*
X92955000Y-52070000D01*
X94360000Y-50665000D02*
X92955000Y-52070000D01*
X94360000Y-49530000D02*
X94360000Y-50665000D01*
X95005000Y-52070000D02*
X95005000Y-53975000D01*
X92955000Y-55880000D02*
X92955000Y-53975000D01*
X88510000Y-53340000D02*
X86995000Y-53340000D01*
X89145000Y-53975000D02*
X88510000Y-53340000D01*
X87232000Y-55880000D02*
X92280000Y-55880000D01*
X86995000Y-55643000D02*
X87232000Y-55880000D01*
X92280000Y-55880000D02*
X92955000Y-55880000D01*
X86995000Y-54610000D02*
X86995000Y-55643000D01*
X105165000Y-59690000D02*
X106680000Y-59690000D01*
D27*
X106680000Y-61595000D02*
X106680000Y-59690000D01*
D24*
X97155000Y-54610000D02*
X97380000Y-54610000D01*
X98650000Y-55880000D02*
X102440000Y-55880000D01*
X100013011Y-56588011D02*
X102492446Y-59067446D01*
X95713011Y-56588011D02*
X100013011Y-56588011D01*
X95005000Y-55880000D02*
X95713011Y-56588011D01*
X102440000Y-55880000D02*
X103115000Y-55880000D01*
X97380000Y-54610000D02*
X98650000Y-55880000D01*
X102492446Y-59067446D02*
X103115000Y-59690000D01*
X91195000Y-54220000D02*
X90805000Y-54610000D01*
X91195000Y-53975000D02*
X91195000Y-54220000D01*
X101355000Y-54220000D02*
X100965000Y-54610000D01*
X101355000Y-53975000D02*
X101355000Y-54220000D01*
X95005000Y-54000406D02*
X94364757Y-54640649D01*
X95005000Y-53975000D02*
X95005000Y-54000406D01*
X94615000Y-59495000D02*
X97790000Y-62670000D01*
X94615000Y-59055000D02*
X94615000Y-59495000D01*
D27*
X106680000Y-54610000D02*
X106680000Y-46990000D01*
X106680000Y-59690000D02*
X106680000Y-54610000D01*
D24*
X95885000Y-51190000D02*
X95005000Y-52070000D01*
X95885000Y-50165000D02*
X95885000Y-51190000D01*
X105165000Y-57810406D02*
X104524757Y-58450649D01*
X105165000Y-57785000D02*
X105165000Y-57810406D01*
X105020000Y-55880000D02*
X104580000Y-56320000D01*
X105165000Y-55880000D02*
X105020000Y-55880000D01*
X104580000Y-56320000D02*
X103115000Y-57785000D01*
D25*
X100965000Y-94615000D02*
X98425000Y-94615000D01*
X108185000Y-94615000D02*
X106915000Y-95885000D01*
X98581444Y-95885000D02*
X95640000Y-92943556D01*
X106915000Y-95885000D02*
X98581444Y-95885000D01*
X98425000Y-94615000D02*
X97155000Y-93345000D01*
X95640000Y-92943556D02*
X95640000Y-92240000D01*
X108585000Y-94615000D02*
X108185000Y-94615000D01*
X95640000Y-92240000D02*
X95640000Y-91440000D01*
X100965000Y-92075000D02*
X97272410Y-92075000D01*
X102235000Y-60570000D02*
X103115000Y-59690000D01*
X102235000Y-60960000D02*
X102235000Y-60570000D01*
G36*
X95151882Y-57277255D02*
G01*
X95220471Y-57337831D01*
X95253231Y-57353212D01*
X95282194Y-57374918D01*
X95367872Y-57407036D01*
X95451074Y-57446099D01*
X95485994Y-57451317D01*
X95520367Y-57464203D01*
X95623492Y-57471867D01*
X95651222Y-57476011D01*
X95679260Y-57476011D01*
X95774028Y-57483053D01*
X95807017Y-57476011D01*
X99645191Y-57476011D01*
X101900776Y-59731598D01*
X101900776Y-59792088D01*
X101711949Y-59980915D01*
X101655271Y-60025597D01*
X101595067Y-60112703D01*
X101532164Y-60197868D01*
X101530718Y-60201986D01*
X101407594Y-60325109D01*
X101271466Y-60560891D01*
X101201000Y-60823872D01*
X101201000Y-61096128D01*
X101271466Y-61359109D01*
X101407594Y-61594891D01*
X101600109Y-61787406D01*
X101835891Y-61923534D01*
X102098872Y-61994000D01*
X102371128Y-61994000D01*
X102634109Y-61923534D01*
X102869891Y-61787406D01*
X103062406Y-61594891D01*
X103198534Y-61359109D01*
X103269000Y-61096128D01*
X103269000Y-61029224D01*
X103450976Y-61029224D01*
X103604579Y-60995810D01*
X106448457Y-68263500D01*
X105194952Y-68263500D01*
X105174109Y-68251466D01*
X104911128Y-68181000D01*
X104638872Y-68181000D01*
X104375891Y-68251466D01*
X104355048Y-68263500D01*
X104209224Y-68263500D01*
X104209224Y-67999024D01*
X104132309Y-67645451D01*
X103992382Y-67427721D01*
X103800270Y-67261255D01*
X103569042Y-67155657D01*
X103326442Y-67120776D01*
X102409024Y-67120776D01*
X102077013Y-67193000D01*
X100744604Y-67193000D01*
X100644794Y-67186196D01*
X100538105Y-67204815D01*
X100430596Y-67217825D01*
X100403236Y-67228163D01*
X99453412Y-67228163D01*
X99152489Y-67308795D01*
X98976835Y-67456185D01*
X98865044Y-67649814D01*
X98828163Y-67858976D01*
X98828163Y-70086588D01*
X98908795Y-70387512D01*
X99056185Y-70563165D01*
X99118500Y-70599142D01*
X99118500Y-71629000D01*
X92836000Y-71629000D01*
X92836000Y-67411030D01*
X94268163Y-68843194D01*
X94268163Y-70086588D01*
X94348795Y-70387512D01*
X94496185Y-70563165D01*
X94689814Y-70674956D01*
X94898976Y-70711837D01*
X96126588Y-70711837D01*
X96427512Y-70631205D01*
X96603165Y-70483815D01*
X96714956Y-70290186D01*
X96751837Y-70081024D01*
X96751837Y-67853412D01*
X96671205Y-67552489D01*
X96523815Y-67376835D01*
X96330186Y-67265044D01*
X96121024Y-67228163D01*
X95883194Y-67228163D01*
X93280534Y-64625504D01*
X93214756Y-64550101D01*
X93126129Y-64487812D01*
X93040928Y-64421006D01*
X93013369Y-64408563D01*
X92988614Y-64391165D01*
X92887708Y-64351823D01*
X92836000Y-64328476D01*
X92836000Y-61231583D01*
X92934956Y-61060186D01*
X92971837Y-60851024D01*
X92971837Y-58529274D01*
X92936845Y-58325236D01*
X92836000Y-58146718D01*
X92836000Y-57276000D01*
X95150208Y-57276000D01*
X95151882Y-57277255D01*
G37*
D28*
X95151882Y-57277255D02*
X95220471Y-57337831D01*
X95253231Y-57353212D01*
X95282194Y-57374918D01*
X95367872Y-57407036D01*
X95451074Y-57446099D01*
X95485994Y-57451317D01*
X95520367Y-57464203D01*
X95623492Y-57471867D01*
X95651222Y-57476011D01*
X95679260Y-57476011D01*
X95774028Y-57483053D01*
X95807017Y-57476011D01*
X99645191Y-57476011D01*
X101900776Y-59731598D01*
X101900776Y-59792088D01*
X101711949Y-59980915D01*
X101655271Y-60025597D01*
X101595067Y-60112703D01*
X101532164Y-60197868D01*
X101530718Y-60201986D01*
X101407594Y-60325109D01*
X101271466Y-60560891D01*
X101201000Y-60823872D01*
X101201000Y-61096128D01*
X101271466Y-61359109D01*
X101407594Y-61594891D01*
X101600109Y-61787406D01*
X101835891Y-61923534D01*
X102098872Y-61994000D01*
X102371128Y-61994000D01*
X102634109Y-61923534D01*
X102869891Y-61787406D01*
X103062406Y-61594891D01*
X103198534Y-61359109D01*
X103269000Y-61096128D01*
X103269000Y-61029224D01*
X103450976Y-61029224D01*
X103604579Y-60995810D01*
X106448457Y-68263500D01*
X105194952Y-68263500D01*
X105174109Y-68251466D01*
X104911128Y-68181000D01*
X104638872Y-68181000D01*
X104375891Y-68251466D01*
X104355048Y-68263500D01*
X104209224Y-68263500D01*
X104209224Y-67999024D01*
X104132309Y-67645451D01*
X103992382Y-67427721D01*
X103800270Y-67261255D01*
X103569042Y-67155657D01*
X103326442Y-67120776D01*
X102409024Y-67120776D01*
X102077013Y-67193000D01*
X100744604Y-67193000D01*
X100644794Y-67186196D01*
X100538105Y-67204815D01*
X100430596Y-67217825D01*
X100403236Y-67228163D01*
X99453412Y-67228163D01*
X99152489Y-67308795D01*
X98976835Y-67456185D01*
X98865044Y-67649814D01*
X98828163Y-67858976D01*
X98828163Y-70086588D01*
X98908795Y-70387512D01*
X99056185Y-70563165D01*
X99118500Y-70599142D01*
X99118500Y-71629000D01*
X92836000Y-71629000D01*
X92836000Y-67411030D01*
X94268163Y-68843194D01*
X94268163Y-70086588D01*
X94348795Y-70387512D01*
X94496185Y-70563165D01*
X94689814Y-70674956D01*
X94898976Y-70711837D01*
X96126588Y-70711837D01*
X96427512Y-70631205D01*
X96603165Y-70483815D01*
X96714956Y-70290186D01*
X96751837Y-70081024D01*
X96751837Y-67853412D01*
X96671205Y-67552489D01*
X96523815Y-67376835D01*
X96330186Y-67265044D01*
X96121024Y-67228163D01*
X95883194Y-67228163D01*
X93280534Y-64625504D01*
X93214756Y-64550101D01*
X93126129Y-64487812D01*
X93040928Y-64421006D01*
X93013369Y-64408563D01*
X92988614Y-64391165D01*
X92887708Y-64351823D01*
X92836000Y-64328476D01*
X92836000Y-61231583D01*
X92934956Y-61060186D01*
X92971837Y-60851024D01*
X92971837Y-58529274D01*
X92936845Y-58325236D01*
X92836000Y-58146718D01*
X92836000Y-57276000D01*
X95150208Y-57276000D01*
X95151882Y-57277255D01*
M02*
