M48
; DRILL file {KiCad (5.99.0-434-g6ad8b170c)} date Saturday, December 07, 2019 at 03:10:17 PM
; FORMAT={-:-/ absolute / metric / decimal}
; #@! TF.CreationDate,2019-12-07T15:10:17-08:00
; #@! TF.GenerationSoftware,Kicad,Pcbnew,(5.99.0-434-g6ad8b170c)
FMAT,2
METRIC
T1C0.400
T2C0.750
T3C0.800
T4C1.000
T5C1.400
T6C3.200
%
G90
G05
T1
X90.805Y-54.61
X94.365Y-54.641
X94.615Y-59.055
X94.615Y-97.79
X95.885Y-50.165
X97.155Y-93.345
X97.272Y-92.075
X97.79Y-75.565
X97.79Y-86.995
X100.965Y-54.61
X102.235Y-60.96
X104.525Y-58.451
X104.58Y-56.32
X104.775Y-69.215
X104.775Y-90.17
X104.775Y-92.075
X104.859Y-97.362
X105.293Y-85.725
X105.775Y-97.762
X106.68Y-54.61
X110.576Y-78.623
X111.76Y-51.435
X111.773Y-76.835
X112.278Y-81.915
X112.395Y-56.515
X112.395Y-80.01
X113.03Y-53.975
X113.03Y-59.055
X113.03Y-120.015
X113.782Y-78.105
X113.782Y-112.395
X115.57Y-72.39
X118.11Y-83.185
X119.38Y-88.265
X128.905Y-45.085
X128.905Y-65.405
X128.905Y-111.125
X128.905Y-113.03
X129.295Y-46.99
X129.295Y-57.15
X129.295Y-77.47
X129.295Y-102.87
X129.54Y-55.245
X129.54Y-67.31
X129.54Y-75.565
X129.54Y-90.805
X129.54Y-92.71
X129.54Y-100.965
X129.54Y-120.65
X129.54Y-123.19
X135.89Y-59.055
X135.89Y-69.215
X135.89Y-79.375
X136.346Y-105.866
X136.395Y-44.955
X136.395Y-75.695
X136.46Y-55.18
X136.46Y-65.34
X136.46Y-90.74
X136.46Y-100.9
X136.46Y-111.19
X136.46Y-121.22
X136.525Y-94.615
X136.525Y-114.935
X136.525Y-125.095
X136.981Y-49.986
X142.875Y-43.815
X142.875Y-48.895
X142.875Y-53.975
X142.875Y-59.055
X142.875Y-64.135
X142.875Y-69.215
X142.875Y-74.295
X142.875Y-79.375
X142.875Y-89.535
X142.875Y-94.615
X142.875Y-99.695
X142.875Y-104.775
X142.875Y-109.855
X142.875Y-114.935
X142.875Y-120.015
X142.875Y-125.095
X146.05Y-43.815
X146.05Y-48.895
X146.05Y-53.975
X146.05Y-59.055
X146.05Y-64.135
X146.05Y-69.215
X146.05Y-74.295
X146.05Y-79.375
X146.05Y-89.535
X146.05Y-94.615
X146.05Y-99.695
X146.05Y-104.775
X146.05Y-109.855
X146.05Y-114.935
X146.05Y-120.015
X146.05Y-125.095
T2
X97.155Y-52.07
X97.155Y-53.34
X97.155Y-54.61
X86.995Y-52.07
X86.995Y-53.34
X86.995Y-54.61
T3
X108.585Y-76.835
X108.585Y-79.375
X108.585Y-81.915
X108.585Y-84.455
X108.585Y-86.995
X108.585Y-89.535
X108.585Y-92.075
X108.585Y-94.615
X108.585Y-97.155
X116.205Y-76.835
X116.205Y-79.375
X116.205Y-81.915
X116.205Y-84.455
X116.205Y-86.995
X116.205Y-89.535
X116.205Y-92.075
X116.205Y-94.615
X116.205Y-97.155
X108.585Y-48.895
X108.585Y-51.435
X108.585Y-53.975
X108.585Y-56.515
X108.585Y-59.055
X108.585Y-61.595
X108.585Y-64.135
X108.585Y-66.675
X116.205Y-48.895
X116.205Y-51.435
X116.205Y-53.975
X116.205Y-56.515
X116.205Y-59.055
X116.205Y-61.595
X116.205Y-64.135
X116.205Y-66.675
X108.585Y-107.315
X108.585Y-109.855
X108.585Y-112.395
X108.585Y-114.935
X108.585Y-117.475
X108.585Y-120.015
X108.585Y-122.555
X108.585Y-125.095
X116.205Y-107.315
X116.205Y-109.855
X116.205Y-112.395
X116.205Y-114.935
X116.205Y-117.475
X116.205Y-120.015
X116.205Y-122.555
X116.205Y-125.095
X89.535Y-65.405
X89.535Y-67.905
T4
X100.965Y-84.455
X100.965Y-86.995
X100.965Y-89.535
X100.965Y-92.075
X100.965Y-94.615
X87.525Y-99.695
X87.525Y-102.235
X87.525Y-104.775
X87.525Y-107.315
X87.525Y-109.855
X87.525Y-112.395
X100.965Y-99.695
X100.965Y-102.235
X100.965Y-104.775
X100.965Y-107.315
X100.965Y-109.855
X100.965Y-112.395
T5
X95.25Y-43.18
X100.33Y-43.18
X105.41Y-43.18
X151.765Y-43.815
X151.765Y-48.895
X151.765Y-53.975
X151.765Y-59.055
X151.765Y-64.135
X151.765Y-69.215
X151.765Y-74.295
X151.765Y-79.375
X151.765Y-89.535
X151.765Y-94.615
X151.765Y-99.695
X151.765Y-104.775
X151.765Y-109.855
X151.765Y-114.935
X151.765Y-120.015
X151.765Y-125.095
X85.725Y-76.2
X85.725Y-81.28
X85.725Y-86.36
X85.725Y-91.44
T6
X83.82Y-43.18
X83.82Y-125.73
T0
M30
